  0
SECTION
  2
HEADER
  9
$ACADVER
  1
AC1015
  9
$ACADMAINTVER
 70
     6
  9
$DWGCODEPAGE
  3
ANSI_932
  9
$INSBASE
 10
0.0
 20
0.0
 30
0.0
  9
$EXTMIN
 10
3.0
 20
2.0
 30
0.0
  9
$EXTMAX
 10
60.40254400000001
 20
93.616228
 30
0.0
  9
$LIMMIN
 10
0.0
 20
0.0
  9
$LIMMAX
 10
594.0
 20
420.0
  9
$ORTHOMODE
 70
     0
  9
$REGENMODE
 70
     1
  9
$FILLMODE
 70
     1
  9
$QTEXTMODE
 70
     0
  9
$MIRRTEXT
 70
     1
  9
$LTSCALE
 40
0.5
  9
$ATTMODE
 70
     1
  9
$TEXTSIZE
 40
0.2
  9
$TRACEWID
 40
0.05
  9
$TEXTSTYLE
  7
STANDARD
  9
$CLAYER
  8
0
  9
$CELTYPE
  6
ByLayer
  9
$CECOLOR
 62
   256
  9
$CELTSCALE
 40
1.0
  9
$DISPSILH
 70
     0
  9
$DIMSCALE
 40
1.0
  9
$DIMASZ
 40
1.0
  9
$DIMEXO
 40
0.0
  9
$DIMDLI
 40
0.5
  9
$DIMRND
 40
0.0
  9
$DIMDLE
 40
0.0
  9
$DIMEXE
 40
0.0
  9
$DIMTP
 40
0.0
  9
$DIMTM
 40
0.0
  9
$DIMTXT
 40
4.0
  9
$DIMCEN
 40
0.0
  9
$DIMTSZ
 40
0.0
  9
$DIMTOL
 70
     0
  9
$DIMLIM
 70
     0
  9
$DIMTIH
 70
     1
  9
$DIMTOH
 70
     1
  9
$DIMSE1
 70
     0
  9
$DIMSE2
 70
     0
  9
$DIMTAD
 70
     0
  9
$DIMZIN
 70
     0
  9
$DIMBLK
  1

  9
$DIMASO
 70
     0
  9
$DIMSHO
 70
     0
  9
$DIMPOST
  1

  9
$DIMAPOST
  1

  9
$DIMALT
 70
     0
  9
$DIMALTD
 70
     0
  9
$DIMALTF
 40
25.4
  9
$DIMLFAC
 40
1.0
  9
$DIMTOFL
 70
     0
  9
$DIMTVP
 40
0.0
  9
$DIMTIX
 70
     0
  9
$DIMSOXD
 70
     0
  9
$DIMSAH
 70
     0
  9
$DIMBLK1
  1

  9
$DIMBLK2
  1

  9
$DIMSTYLE
  2
Standard
  9
$DIMCLRD
 70
     0
  9
$DIMCLRE
 70
     0
  9
$DIMCLRT
 70
     0
  9
$DIMTFAC
 40
1.0
  9
$DIMGAP
 40
0.09
  9
$DIMJUST
 70
     0
  9
$DIMSD1
 70
     0
  9
$DIMSD2
 70
     0
  9
$DIMTOLJ
 70
     1
  9
$DIMTZIN
 70
     0
  9
$DIMALTZ
 70
     0
  9
$DIMALTTZ
 70
     0
  9
$DIMUPT
 70
     0
  9
$DIMDEC
 70
     2
  9
$DIMTDEC
 70
     2
  9
$DIMALTU
 70
     2
  9
$DIMALTTD
 70
     2
  9
$DIMTXSTY
  7
STANDARD
  9
$DIMAUNIT
 70
     0
  9
$DIMADEC
 70
     0
  9
$DIMALTRND
 40
0.0
  9
$DIMAZIN
 70
     0
  9
$DIMDSEP
 70
    46
  9
$DIMATFIT
 70
     3
  9
$DIMFRAC
 70
     0
  9
$DIMLDRBLK
  1

  9
$DIMLUNIT
 70
     2
  9
$DIMLWD
 70
    -2
  9
$DIMLWE
 70
    -2
  9
$DIMTMOVE
 70
     2
  9
$LUNITS
 70
     2
  9
$LUPREC
 70
     2
  9
$SKETCHINC
 40
0.0
  9
$FILLETRAD
 40
0.0
  9
$AUNITS
 70
     1
  9
$AUPREC
 70
     2
  9
$MENU
  1
ACAD
  9
$ELEVATION
 40
0.0
  9
$PELEVATION
 40
0.0
  9
$THICKNESS
 40
0.0
  9
$LIMCHECK
 70
     1
  9
$CHAMFERA
 40
0.0
  9
$CHAMFERB
 40
0.0
  9
$CHAMFERC
 40
0.0
  9
$CHAMFERD
 40
0.0
  9
$SKPOLY
 70
     0
  9
$TDCREATE
 40
2447893.0
  9
$TDUCREATE
 40
2447892.625
  9
$TDUPDATE
 40
2458196.508342917
  9
$TDUUPDATE
 40
2458196.133342917
  9
$TDINDWG
 40
0.0006196412
  9
$TDUSRTIMER
 40
0.0001304051
  9
$USRTIMER
 70
     1
  9
$ANGBASE
 50
0.0
  9
$ANGDIR
 70
     0
  9
$PDMODE
 70
     0
  9
$PDSIZE
 40
0.0
  9
$PLINEWID
 40
0.0
  9
$SPLFRAME
 70
     0
  9
$SPLINETYPE
 70
     6
  9
$SPLINESEGS
 70
     8
  9
$HANDSEED
  5
E4
  9
$SURFTAB1
 70
     6
  9
$SURFTAB2
 70
     6
  9
$SURFTYPE
 70
     6
  9
$SURFU
 70
     6
  9
$SURFV
 70
     6
  9
$UCSBASE
  2

  9
$UCSNAME
  2

  9
$UCSORG
 10
0.0
 20
0.0
 30
0.0
  9
$UCSXDIR
 10
1.0
 20
0.0
 30
0.0
  9
$UCSYDIR
 10
0.0
 20
1.0
 30
0.0
  9
$UCSORTHOREF
  2

  9
$UCSORTHOVIEW
 70
     0
  9
$UCSORGTOP
 10
0.0
 20
0.0
 30
0.0
  9
$UCSORGBOTTOM
 10
0.0
 20
0.0
 30
0.0
  9
$UCSORGLEFT
 10
0.0
 20
0.0
 30
0.0
  9
$UCSORGRIGHT
 10
0.0
 20
0.0
 30
0.0
  9
$UCSORGFRONT
 10
0.0
 20
0.0
 30
0.0
  9
$UCSORGBACK
 10
0.0
 20
0.0
 30
0.0
  9
$PUCSBASE
  2

  9
$PUCSNAME
  2

  9
$PUCSORG
 10
0.0
 20
0.0
 30
0.0
  9
$PUCSXDIR
 10
1.0
 20
0.0
 30
0.0
  9
$PUCSYDIR
 10
0.0
 20
1.0
 30
0.0
  9
$PUCSORTHOREF
  2

  9
$PUCSORTHOVIEW
 70
     0
  9
$PUCSORGTOP
 10
0.0
 20
0.0
 30
0.0
  9
$PUCSORGBOTTOM
 10
0.0
 20
0.0
 30
0.0
  9
$PUCSORGLEFT
 10
0.0
 20
0.0
 30
0.0
  9
$PUCSORGRIGHT
 10
0.0
 20
0.0
 30
0.0
  9
$PUCSORGFRONT
 10
0.0
 20
0.0
 30
0.0
  9
$PUCSORGBACK
 10
0.0
 20
0.0
 30
0.0
  9
$USERI1
 70
     0
  9
$USERI2
 70
     0
  9
$USERI3
 70
     0
  9
$USERI4
 70
     0
  9
$USERI5
 70
     0
  9
$USERR1
 40
0.0
  9
$USERR2
 40
0.0
  9
$USERR3
 40
0.0
  9
$USERR4
 40
0.0
  9
$USERR5
 40
0.0
  9
$WORLDVIEW
 70
     1
  9
$SHADEDGE
 70
     3
  9
$SHADEDIF
 70
    70
  9
$TILEMODE
 70
     1
  9
$MAXACTVP
 70
    64
  9
$PINSBASE
 10
0.0
 20
0.0
 30
0.0
  9
$PLIMCHECK
 70
     0
  9
$PEXTMIN
 10
0.0
 20
0.0
 30
0.0
  9
$PEXTMAX
 10
297.0
 20
210.0
 30
0.0
  9
$PLIMMIN
 10
0.0
 20
0.0
  9
$PLIMMAX
 10
0.0
 20
0.0
  9
$UNITMODE
 70
     0
  9
$VISRETAIN
 70
     1
  9
$PLINEGEN
 70
     0
  9
$PSLTSCALE
 70
     1
  9
$TREEDEPTH
 70
  3020
  9
$CMLSTYLE
  2
Standard
  9
$CMLJUST
 70
     0
  9
$CMLSCALE
 40
1.0
  9
$PROXYGRAPHICS
 70
     1
  9
$MEASUREMENT
 70
     0
  9
$CELWEIGHT
370
    -1
  9
$ENDCAPS
280
     0
  9
$JOINSTYLE
280
     0
  9
$LWDISPLAY
290
     0
  9
$INSUNITS
 70
     0
  9
$HYPERLINKBASE
  1

  9
$STYLESHEET
  1

  9
$XEDIT
290
     1
  9
$CEPSNTYPE
380
     0
  9
$PSTYLEMODE
290
     1
  9
$FINGERPRINTGUID
  2
{12811796-A5A9-402B-A70D-ACFA0ADC0693}
  9
$VERSIONGUID
  2
{FAEB1C32-E019-11D5-929B-00C0DF256EC4}
  9
$EXTNAMES
290
     1
  9
$PSVPSCALE
 40
0.0
  9
$OLESTARTUP
290
     0
  0
ENDSEC
  0
SECTION
  2
CLASSES
  0
CLASS
  1
ACDBDICTIONARYWDFLT
  2
AcDbDictionaryWithDefault
  3
ObjectDBX Classes
 90
        0
280
     0
281
     0
  0
CLASS
  1
SCALE
  2
AcDbScale
  3
ObjectDBX Classes
 90
     1153
280
     0
281
     0
  0
CLASS
  1
VISUALSTYLE
  2
AcDbVisualStyle
  3
ObjectDBX Classes
 90
     4095
280
     0
281
     0
  0
CLASS
  1
MATERIAL
  2
AcDbMaterial
  3
ObjectDBX Classes
 90
     1153
280
     0
281
     0
  0
CLASS
  1
TABLESTYLE
  2
AcDbTableStyle
  3
ObjectDBX Classes
 90
     4095
280
     0
281
     0
  0
CLASS
  1
MLEADERSTYLE
  2
AcDbMLeaderStyle
  3
ACDB_MLEADERSTYLE_CLASS
 90
     4095
280
     0
281
     0
  0
CLASS
  1
DICTIONARYVAR
  2
AcDbDictionaryVar
  3
ObjectDBX Classes
 90
        0
280
     0
281
     0
  0
CLASS
  1
SUN
  2
AcDbSun
  3
SCENEOE
 90
     1153
280
     0
281
     0
  0
CLASS
  1
ACDBPLACEHOLDER
  2
AcDbPlaceHolder
  3
ObjectDBX Classes
 90
        0
280
     0
281
     0
  0
CLASS
  1
LAYOUT
  2
AcDbLayout
  3
ObjectDBX Classes
 90
        0
280
     0
281
     0
  0
ENDSEC
  0
SECTION
  2
TABLES
  0
TABLE
  2
VPORT
  5
8
330
0
100
AcDbSymbolTable
 70
     1
  0
VPORT
  5
2C
330
8
100
AcDbSymbolTableRecord
100
AcDbViewportTableRecord
  2
*Active
 70
     0
 10
0.0
 20
0.0
 11
1.0
 21
1.0
 12
21.50167203940666
 22
19.95654404603144
 13
0.0
 23
0.0
 14
0.5
 24
0.5
 15
0.5
 25
0.5
 16
0.0
 26
0.0
 36
1.0
 17
0.0
 27
0.0
 37
0.0
 40
163.7090463191269
 41
2.111409395973154
 42
50.0
 43
0.0
 44
0.0
 50
0.0
 51
0.0
 71
    16
 72
   100
 73
     1
 74
     3
 75
     0
 76
     0
 77
     0
 78
     0
281
     0
 65
     1
110
0.0
120
0.0
130
0.0
111
1.0
121
0.0
131
0.0
112
0.0
122
1.0
132
0.0
 79
     0
146
0.0
  0
ENDTAB
  0
TABLE
  2
LTYPE
  5
5
330
0
100
AcDbSymbolTable
 70
     7
  0
LTYPE
  5
14
330
5
100
AcDbSymbolTableRecord
100
AcDbLinetypeTableRecord
  2
ByBlock
 70
     0
  3

 72
    65
 73
     0
 40
0.0
  0
LTYPE
  5
15
330
5
100
AcDbSymbolTableRecord
100
AcDbLinetypeTableRecord
  2
ByLayer
 70
     0
  3

 72
    65
 73
     0
 40
0.0
  0
LTYPE
  5
16
330
5
100
AcDbSymbolTableRecord
100
AcDbLinetypeTableRecord
  2
CONTINUOUS
 70
     0
  3
Solid line
 72
    65
 73
     0
 40
0.0
  0
LTYPE
  5
21
330
5
100
AcDbSymbolTableRecord
100
AcDbLinetypeTableRecord
  2
HIDDEN
 70
     0
  3
------------------------
 72
    65
 73
     2
 40
12.6
 49
8.4
 74
     0
 49
-4.2
 74
     0
  0
LTYPE
  5
22
330
5
100
AcDbSymbolTableRecord
100
AcDbLinetypeTableRecord
  2
DOT
 70
     0
  3
････････････････････････
 72
    65
 73
     2
 40
8.0
 49
6.0
 74
     0
 49
-2.0
 74
     0
  0
LTYPE
  5
23
330
5
100
AcDbSymbolTableRecord
100
AcDbLinetypeTableRecord
  2
DASHDOT
 70
     0
  3
--･--･--･--･--･--･--･--
 72
    65
 73
     4
 40
50.5
 49
30.0
 74
     0
 49
-9.0
 74
     0
 49
2.5
 74
     0
 49
-9.0
 74
     0
  0
LTYPE
  5
24
330
5
100
AcDbSymbolTableRecord
100
AcDbLinetypeTableRecord
  2
DIVIDE
 70
     0
  3
--･･--･･--･･--･･--･･--
 72
    65
 73
     6
 40
58.0
 49
30.0
 74
     0
 49
-9.0
 74
     0
 49
2.5
 74
     0
 49
-5.0
 74
     0
 49
2.5
 74
     0
 49
-9.0
 74
     0
  0
LTYPE
  5
25
330
5
100
AcDbSymbolTableRecord
100
AcDbLinetypeTableRecord
  2
ACAD_ISO06W100
 70
     0
  3
____ ... ____ ... ____
 72
    65
 73
     8
 40
37.5
 49
24.0
 74
     0
 49
-3.0
 74
     0
 49
0.5
 74
     0
 49
-3.0
 74
     0
 49
0.5
 74
     0
 49
-3.0
 74
     0
 49
0.5
 74
     0
 49
-3.0
 74
     0
  0
LTYPE
  5
26
330
5
100
AcDbSymbolTableRecord
100
AcDbLinetypeTableRecord
  2
ACAD_ISO14W100
 70
     0
  3
__ . . . __ . . . __ . . . 
 72
    65
 73
     8
 40
25.5
 49
12.0
 74
     0
 49
-3.0
 74
     0
 49
0.5
 74
     0
 49
-3.0
 74
     0
 49
0.5
 74
     0
 49
-3.0
 74
     0
 49
0.5
 74
     0
 49
-3.0
 74
     0
  0
ENDTAB
  0
TABLE
  2
LAYER
  5
2
330
0
100
AcDbSymbolTable
 70
     3
  0
LAYER
  5
10
330
2
100
AcDbSymbolTableRecord
100
AcDbLayerTableRecord
  2
0
 70
     0
 62
     7
  6
CONTINUOUS
370
    -3
390
F
  0
LAYER
  5
27
330
2
100
AcDbSymbolTableRecord
100
AcDbLayerTableRecord
  2
1
 70
     0
 62
     7
  6
CONTINUOUS
370
    -3
390
F
  0
LAYER
  5
28
330
2
100
AcDbSymbolTableRecord
100
AcDbLayerTableRecord
  2
23
 70
     0
 62
     7
  6
CONTINUOUS
370
    -3
390
F
  0
ENDTAB
  0
TABLE
  2
STYLE
  5
3
330
0
100
AcDbSymbolTable
 70
     2
  0
STYLE
  5
11
330
3
100
AcDbSymbolTableRecord
100
AcDbTextStyleTableRecord
  2
STANDARD
 70
     0
 40
0.0
 41
1.0
 50
0.0
 71
     0
 42
0.2
  3
TXT
  4

  0
STYLE
  5
2A
330
3
100
AcDbSymbolTableRecord
100
AcDbTextStyleTableRecord
  2
KANJI
 70
     0
 40
0.0
 41
1.0
 50
0.0
 71
     0
 42
0.2
  3
TXT
  4
BIGFONT
  0
ENDTAB
  0
TABLE
  2
VIEW
  5
6
330
0
100
AcDbSymbolTable
 70
     0
  0
ENDTAB
  0
TABLE
  2
UCS
  5
7
330
0
100
AcDbSymbolTable
 70
     0
  0
ENDTAB
  0
TABLE
  2
APPID
  5
9
330
0
100
AcDbSymbolTable
 70
     1
  0
APPID
  5
12
330
9
100
AcDbSymbolTableRecord
100
AcDbRegAppTableRecord
  2
ACAD
 70
     0
  0
ENDTAB
  0
TABLE
  2
DIMSTYLE
  5
A
330
0
100
AcDbSymbolTable
 70
     1
100
AcDbDimStyleTable
  0
DIMSTYLE
105
2B
330
A
100
AcDbSymbolTableRecord
100
AcDbDimStyleTableRecord
  2
Standard
 70
     0
178
     0
340
11
  0
ENDTAB
  0
TABLE
  2
BLOCK_RECORD
  5
1
330
0
100
AcDbSymbolTable
 70
     0
  0
BLOCK_RECORD
  5
1D
330
1
100
AcDbSymbolTableRecord
100
AcDbBlockTableRecord
  2
*Model_Space
340
1E
  0
BLOCK_RECORD
  5
1B
330
1
100
AcDbSymbolTableRecord
100
AcDbBlockTableRecord
  2
*Paper_Space
340
1C
  0
ENDTAB
  0
ENDSEC
  0
SECTION
  2
BLOCKS
  0
BLOCK
  5
B5
330
1D
100
AcDbEntity
  8
0
100
AcDbBlockBegin
  2
*Model_Space
 70
     0
 10
0.0
 20
0.0
 30
0.0
  3
*Model_Space
  1

  0
ENDBLK
  5
B6
330
1D
100
AcDbEntity
  8
0
100
AcDbBlockEnd
  0
BLOCK
  5
B7
330
1B
100
AcDbEntity
 67
     1
  8
0
100
AcDbBlockBegin
  2
*Paper_Space
 70
     0
 10
0.0
 20
0.0
 30
0.0
  3
*Paper_Space
  1

  0
ENDBLK
  5
B8
330
1B
100
AcDbEntity
 67
     1
  8
0
100
AcDbBlockEnd
  0
ENDSEC
  0
SECTION
  2
ENTITIES
  0
ARC
  5
2D
330
1D
100
AcDbEntity
  8
23
  6
Continuous
 62
     7
100
AcDbCircle
 10
31.608068
 20
17.105591
 30
0.0
 40
1.0
100
AcDbArc
 50
79.234986
 51
194.38565
  0
ARC
  5
2E
330
1D
100
AcDbEntity
  8
23
  6
Continuous
 62
     7
100
AcDbCircle
 10
31.933933
 20
12.716528
 30
0.0
 40
1.0
100
AcDbArc
 50
174.106613
 51
289.257276
  0
ARC
  5
2F
330
1D
100
AcDbEntity
  8
23
  6
Continuous
 62
     7
100
AcDbCircle
 10
7.391932
 20
17.105591
 30
0.0
 40
1.0
100
AcDbArc
 50
345.61435
 51
100.765014
  0
ARC
  5
30
330
1D
100
AcDbEntity
  8
23
  6
Continuous
 62
     7
100
AcDbCircle
 10
7.066067
 20
12.716528
 30
0.0
 40
1.0
100
AcDbArc
 50
250.742724
 51
5.893387
  0
ARC
  5
31
330
1D
100
AcDbEntity
  8
23
  6
Continuous
 62
     7
100
AcDbCircle
 10
32.728757
 20
23.0
 30
0.0
 40
5.0
100
AcDbArc
 50
214.228866
 51
259.234986
  0
ARC
  5
32
330
1D
100
AcDbEntity
  8
23
  6
Continuous
 62
     7
100
AcDbCircle
 10
32.728757
 20
23.0
 30
0.0
 40
5.0
100
AcDbArc
 50
259.234986
 51
270.0
  0
ARC
  5
33
330
1D
100
AcDbEntity
  8
23
  6
Continuous
 62
     7
100
AcDbCircle
 10
33.912797
 20
7.052245
 30
0.0
 40
5.0
100
AcDbArc
 50
96.551693
 51
109.257276
  0
ARC
  5
34
330
1D
100
AcDbEntity
  8
23
  6
Continuous
 62
     7
100
AcDbCircle
 10
6.271243
 20
23.0
 30
0.0
 40
5.0
100
AcDbArc
 50
280.765014
 51
325.771134
  0
ARC
  5
35
330
1D
100
AcDbEntity
  8
23
  6
Continuous
 62
     7
100
AcDbCircle
 10
6.271243
 20
23.0
 30
0.0
 40
5.0
100
AcDbArc
 50
270.0
 51
280.765014
  0
ARC
  5
36
330
1D
100
AcDbEntity
  8
23
  6
Continuous
 62
     7
100
AcDbCircle
 10
33.912797
 20
7.052245
 30
0.0
 40
5.0
100
AcDbArc
 50
109.257276
 51
154.263396
  0
ARC
  5
37
330
1D
100
AcDbEntity
  8
23
  6
Continuous
 62
     7
100
AcDbCircle
 10
5.087203
 20
7.052245
 30
0.0
 40
5.0
100
AcDbArc
 50
70.742724
 51
83.44830699999999
  0
ARC
  5
38
330
1D
100
AcDbEntity
  8
23
  6
Continuous
 62
     7
100
AcDbCircle
 10
5.087203
 20
7.052245
 30
0.0
 40
5.0
100
AcDbArc
 50
25.736604
 51
70.742724
  0
ARC
  5
39
330
1D
100
AcDbEntity
  8
23
  6
Continuous
 62
     7
100
AcDbCircle
 10
19.5
 20
14.0
 30
0.0
 40
11.5
100
AcDbArc
 50
354.106613
 51
14.38565
  0
ARC
  5
3A
330
1D
100
AcDbEntity
  8
23
  6
Continuous
 62
     7
100
AcDbCircle
 10
19.5
 20
14.0
 30
0.0
 40
11.5
100
AcDbArc
 50
165.61435
 51
185.893387
  0
ARC
  5
3B
330
1D
100
AcDbEntity
  8
23
  6
Continuous
 62
     7
100
AcDbCircle
 10
19.5
 20
14.0
 30
0.0
 40
11.0
100
AcDbArc
 50
34.228866
 51
145.771134
  0
CIRCLE
  5
3C
330
1D
100
AcDbEntity
  8
23
  6
Continuous
 62
     7
100
AcDbCircle
 10
28.0
 20
14.0
 30
0.0
 40
1.35
  0
CIRCLE
  5
3D
330
1D
100
AcDbEntity
  8
23
  6
Continuous
 62
     7
100
AcDbCircle
 10
19.5
 20
5.5
 30
0.0
 40
1.35
  0
CIRCLE
  5
3E
330
1D
100
AcDbEntity
  8
23
  6
Continuous
 62
     7
100
AcDbCircle
 10
11.0
 20
14.0
 30
0.0
 40
1.35
  0
CIRCLE
  5
3F
330
1D
100
AcDbEntity
  8
23
  6
Continuous
 62
     7
100
AcDbCircle
 10
19.5
 20
22.5
 30
0.0
 40
1.35
  0
CIRCLE
  5
40
330
1D
100
AcDbEntity
  8
23
  6
Continuous
 62
     7
100
AcDbCircle
 10
19.5
 20
14.0
 30
0.0
 40
5.05
  0
ARC
  5
41
330
1D
100
AcDbEntity
  8
23
  6
Continuous
 62
     7
100
AcDbCircle
 10
19.5
 20
14.0
 30
0.0
 40
11.0
100
AcDbArc
 50
205.736604
 51
334.2633959999999
  0
ARC
  5
42
330
1D
100
AcDbEntity
  8
23
  6
Continuous
 62
     7
100
AcDbCircle
 10
33.0
 20
15.0
 30
0.0
 40
3.0
100
AcDbArc
 50
276.551693
 51
90.0
  0
LINE
  5
43
330
1D
100
AcDbEntity
  8
23
  6
Continuous
 62
     7
100
AcDbLine
 10
33.0
 20
18.0
 30
0.0
 11
32.728757
 21
18.0
 31
0.0
  0
CIRCLE
  5
44
330
1D
100
AcDbEntity
  8
23
  6
Continuous
 62
     7
100
AcDbCircle
 10
33.0
 20
15.0
 30
0.0
 40
1.35
  0
LINE
  5
45
330
1D
100
AcDbEntity
  8
23
  6
Continuous
 62
     7
100
AcDbLine
 10
6.271243
 20
18.0
 30
0.0
 11
6.0
 21
18.0
 31
0.0
  0
ARC
  5
46
330
1D
100
AcDbEntity
  8
23
  6
Continuous
 62
     7
100
AcDbCircle
 10
6.0
 20
15.0
 30
0.0
 40
3.0
100
AcDbArc
 50
90.0
 51
263.448307
  0
CIRCLE
  5
47
330
1D
100
AcDbEntity
  8
23
  6
Continuous
 62
     7
100
AcDbCircle
 10
6.0
 20
15.0
 30
0.0
 40
1.35
  0
LINE
  5
48
330
1D
100
AcDbEntity
  8
1
  6
Continuous
 62
     7
100
AcDbLine
 10
7.205151
 20
18.087993
 30
0.0
 11
7.205151
 21
26.0
 31
0.0
  0
LINE
  5
49
330
1D
100
AcDbEntity
  8
1
  6
Continuous
 62
     7
100
AcDbLine
 10
7.205151
 20
26.0
 30
0.0
 11
19.5
 21
26.0
 31
0.0
  0
LINE
  5
4A
330
1D
100
AcDbEntity
  8
1
  6
Continuous
 62
     7
100
AcDbLine
 10
31.79485
 20
18.087993
 30
0.0
 11
31.79485
 21
26.0
 31
0.0
  0
LINE
  5
4B
330
1D
100
AcDbEntity
  8
1
  6
Continuous
 62
     7
100
AcDbLine
 10
31.79485
 20
26.0
 30
0.0
 11
19.5
 21
26.0
 31
0.0
  0
LINE
  5
4C
330
1D
100
AcDbEntity
  8
1
  6
Continuous
 62
     7
100
AcDbLine
 10
6.736256
 20
11.772481
 30
0.0
 11
6.736256
 21
2.0
 31
0.0
  0
LINE
  5
4D
330
1D
100
AcDbEntity
  8
1
  6
Continuous
 62
     7
100
AcDbLine
 10
6.736256
 20
2.0
 30
0.0
 11
32.263744
 21
2.0
 31
0.0
  0
LINE
  5
4E
330
1D
100
AcDbEntity
  8
1
  6
Continuous
 62
     7
100
AcDbLine
 10
32.263744
 20
2.0
 30
0.0
 11
32.263744
 21
11.772481
 31
0.0
  0
ARC
  5
4F
330
1D
100
AcDbEntity
  8
23
  6
Continuous
 62
     7
100
AcDbCircle
 10
19.805614
 20
30.504342
 30
0.0
 40
2.0
100
AcDbArc
 50
270.0500000000001
 51
340.05
  0
ARC
  5
50
330
1D
100
AcDbEntity
  8
23
  6
Continuous
 62
     7
100
AcDbCircle
 10
29.246147
 20
56.51259
 30
0.0
 40
2.0
100
AcDbArc
 50
340.05
 51
90.04999999999998
  0
ARC
  5
51
330
1D
100
AcDbEntity
  8
23
  6
Continuous
 62
     7
100
AcDbCircle
 10
8.21244
 20
30.494225
 30
0.0
 40
2.0
100
AcDbArc
 50
180.05
 51
270.0500000000001
  0
ARC
  5
52
330
1D
100
AcDbEntity
  8
23
  6
Continuous
 62
     7
100
AcDbCircle
 10
8.18975
 20
56.494215
 30
0.0
 40
2.0
100
AcDbArc
 50
90.04999999999998
 51
180.05
  0
LINE
  5
53
330
1D
100
AcDbEntity
  8
23
  6
Continuous
 62
     7
100
AcDbLine
 10
17.214181
 20
28.50208
 30
0.0
 11
19.807359
 21
28.504343
 31
0.0
  0
LINE
  5
54
330
1D
100
AcDbEntity
  8
23
  6
Continuous
 62
     7
100
AcDbLine
 10
21.685595
 20
29.821942
 30
0.0
 11
31.126129
 21
55.83019
 31
0.0
  0
LINE
  5
55
330
1D
100
AcDbEntity
  8
23
  6
Continuous
 62
     7
100
AcDbLine
 10
29.244402
 20
58.512589
 30
0.0
 11
17.188002
 21
58.502068
 31
0.0
  0
LINE
  5
56
330
1D
100
AcDbEntity
  8
23
  6
Continuous
 62
     7
100
AcDbLine
 10
17.214181
 20
28.50208
 30
0.0
 11
8.214185
 21
28.494226
 31
0.0
  0
LINE
  5
57
330
1D
100
AcDbEntity
  8
23
  6
Continuous
 62
     7
100
AcDbLine
 10
8.188005
 20
58.494214
 30
0.0
 11
17.188002
 21
58.502068
 31
0.0
  0
LINE
  5
58
330
1D
100
AcDbEntity
  8
23
  6
Continuous
 62
     7
100
AcDbLine
 10
6.21244
 20
30.49248
 30
0.0
 11
6.189751
 21
56.49247
 31
0.0
  0
CIRCLE
  5
59
330
1D
100
AcDbEntity
  8
23
  6
Continuous
 62
     7
100
AcDbCircle
 10
9.211567
 20
31.495097
 30
0.0
 40
1.55
  0
CIRCLE
  5
5A
330
1D
100
AcDbEntity
  8
23
  6
Continuous
 62
     7
100
AcDbCircle
 10
9.201095
 20
43.495093
 30
0.0
 40
1.55
  0
CIRCLE
  5
5B
330
1D
100
AcDbEntity
  8
23
  6
Continuous
 62
     7
100
AcDbCircle
 10
9.190623
 20
55.495088
 30
0.0
 40
1.55
  0
LINE
  5
5C
330
1D
100
AcDbEntity
  8
1
  6
Continuous
 62
     7
100
AcDbLine
 10
17.187129
 20
59.502068
 30
0.0
 11
32.246147
 21
59.515209
 31
0.0
  0
LINE
  5
5D
330
1D
100
AcDbEntity
  8
1
  6
Continuous
 62
     7
100
AcDbLine
 10
32.246147
 20
59.515209
 30
0.0
 11
32.246147
 21
27.507484
 31
0.0
  0
LINE
  5
5E
330
1D
100
AcDbEntity
  8
1
  6
Continuous
 62
     7
100
AcDbLine
 10
32.246147
 20
27.507484
 30
0.0
 11
17.215061
 21
27.494367
 31
0.0
  0
LINE
  5
5F
330
1D
100
AcDbEntity
  8
1
  6
Continuous
 62
     7
100
AcDbLine
 10
17.187129
 20
59.502068
 30
0.0
 11
17.215061
 21
27.494367
 31
0.0
  0
ARC
  5
60
330
1D
100
AcDbEntity
  8
23
  6
Continuous
 62
     7
100
AcDbCircle
 10
46.786681
 20
30.504342
 30
0.0
 40
2.0
100
AcDbArc
 50
199.95
 51
269.95
  0
ARC
  5
61
330
1D
100
AcDbEntity
  8
23
  6
Continuous
 62
     7
100
AcDbCircle
 10
37.346148
 20
56.51259
 30
0.0
 40
2.0
100
AcDbArc
 50
89.95
 51
199.95
  0
ARC
  5
62
330
1D
100
AcDbEntity
  8
23
  6
Continuous
 62
     7
100
AcDbCircle
 10
58.379855
 20
30.494225
 30
0.0
 40
2.0
100
AcDbArc
 50
269.95
 51
359.9499999999999
  0
ARC
  5
63
330
1D
100
AcDbEntity
  8
23
  6
Continuous
 62
     7
100
AcDbCircle
 10
58.402544
 20
56.494215
 30
0.0
 40
2.0
100
AcDbArc
 50
359.9499999999999
 51
89.95
  0
LINE
  5
64
330
1D
100
AcDbEntity
  8
23
  6
Continuous
 62
     7
100
AcDbLine
 10
49.378113
 20
28.50208
 30
0.0
 11
46.784935
 21
28.504343
 31
0.0
  0
LINE
  5
65
330
1D
100
AcDbEntity
  8
23
  6
Continuous
 62
     7
100
AcDbLine
 10
44.906699
 20
29.821942
 30
0.0
 11
35.466166
 21
55.83019
 31
0.0
  0
LINE
  5
66
330
1D
100
AcDbEntity
  8
23
  6
Continuous
 62
     7
100
AcDbLine
 10
37.347893
 20
58.512589
 30
0.0
 11
49.404293
 21
58.502068
 31
0.0
  0
LINE
  5
67
330
1D
100
AcDbEntity
  8
23
  6
Continuous
 62
     7
100
AcDbLine
 10
49.378113
 20
28.50208
 30
0.0
 11
58.37811
 21
28.494226
 31
0.0
  0
LINE
  5
68
330
1D
100
AcDbEntity
  8
23
  6
Continuous
 62
     7
100
AcDbLine
 10
58.40429
 20
58.494214
 30
0.0
 11
49.404293
 21
58.502068
 31
0.0
  0
LINE
  5
69
330
1D
100
AcDbEntity
  8
23
  6
Continuous
 62
     7
100
AcDbLine
 10
60.379854
 20
30.49248
 30
0.0
 11
60.402544
 21
56.49247
 31
0.0
  0
CIRCLE
  5
6A
330
1D
100
AcDbEntity
  8
23
  6
Continuous
 62
     7
100
AcDbCircle
 10
57.380728
 20
31.495097
 30
0.0
 40
1.55
  0
CIRCLE
  5
6B
330
1D
100
AcDbEntity
  8
23
  6
Continuous
 62
     7
100
AcDbCircle
 10
57.3912
 20
43.495093
 30
0.0
 40
1.55
  0
CIRCLE
  5
6C
330
1D
100
AcDbEntity
  8
23
  6
Continuous
 62
     7
100
AcDbCircle
 10
57.401672
 20
55.495088
 30
0.0
 40
1.55
  0
LINE
  5
6D
330
1D
100
AcDbEntity
  8
1
  6
Continuous
 62
     7
100
AcDbLine
 10
49.405166
 20
59.502068
 30
0.0
 11
34.346148
 21
59.515209
 31
0.0
  0
LINE
  5
6E
330
1D
100
AcDbEntity
  8
1
  6
Continuous
 62
     7
100
AcDbLine
 10
34.346148
 20
59.515209
 30
0.0
 11
34.346148
 21
27.507484
 31
0.0
  0
LINE
  5
6F
330
1D
100
AcDbEntity
  8
1
  6
Continuous
 62
     7
100
AcDbLine
 10
34.346148
 20
27.507484
 30
0.0
 11
49.377234
 21
27.494367
 31
0.0
  0
LINE
  5
70
330
1D
100
AcDbEntity
  8
1
  6
Continuous
 62
     7
100
AcDbLine
 10
49.405166
 20
59.502068
 30
0.0
 11
49.377234
 21
27.494367
 31
0.0
  0
ARC
  5
71
330
1D
100
AcDbEntity
  8
23
  6
Continuous
 62
     7
100
AcDbCircle
 10
19.805614
 20
90.606254
 30
0.0
 40
2.0
100
AcDbArc
 50
19.95
 51
89.95
  0
ARC
  5
72
330
1D
100
AcDbEntity
  8
23
  6
Continuous
 62
     7
100
AcDbCircle
 10
29.246147
 20
64.598005
 30
0.0
 40
2.0
100
AcDbArc
 50
269.95
 51
19.95
  0
ARC
  5
73
330
1D
100
AcDbEntity
  8
23
  6
Continuous
 62
     7
100
AcDbCircle
 10
8.21244
 20
90.61637
 30
0.0
 40
2.0
100
AcDbArc
 50
89.95
 51
179.95
  0
ARC
  5
74
330
1D
100
AcDbEntity
  8
23
  6
Continuous
 62
     7
100
AcDbCircle
 10
8.18975
 20
64.61638
 30
0.0
 40
2.0
100
AcDbArc
 50
179.95
 51
269.95
  0
LINE
  5
75
330
1D
100
AcDbEntity
  8
23
  6
Continuous
 62
     7
100
AcDbLine
 10
17.214181
 20
92.608516
 30
0.0
 11
19.807359
 21
92.606253
 31
0.0
  0
LINE
  5
76
330
1D
100
AcDbEntity
  8
23
  6
Continuous
 62
     7
100
AcDbLine
 10
21.685595
 20
91.288653
 30
0.0
 11
31.126129
 21
65.280405
 31
0.0
  0
LINE
  5
77
330
1D
100
AcDbEntity
  8
23
  6
Continuous
 62
     7
100
AcDbLine
 10
29.244402
 20
62.598006
 30
0.0
 11
17.188002
 21
62.608527
 31
0.0
  0
LINE
  5
78
330
1D
100
AcDbEntity
  8
23
  6
Continuous
 62
     7
100
AcDbLine
 10
17.214181
 20
92.608516
 30
0.0
 11
8.214185
 21
92.61637
 31
0.0
  0
LINE
  5
79
330
1D
100
AcDbEntity
  8
23
  6
Continuous
 62
     7
100
AcDbLine
 10
8.188005
 20
62.616381
 30
0.0
 11
17.188002
 21
62.608527
 31
0.0
  0
LINE
  5
7A
330
1D
100
AcDbEntity
  8
23
  6
Continuous
 62
     7
100
AcDbLine
 10
6.21244
 20
90.618116
 30
0.0
 11
6.189751
 21
64.618126
 31
0.0
  0
CIRCLE
  5
7B
330
1D
100
AcDbEntity
  8
23
  6
Continuous
 62
     7
100
AcDbCircle
 10
9.211567
 20
89.615498
 30
0.0
 40
1.55
  0
CIRCLE
  5
7C
330
1D
100
AcDbEntity
  8
23
  6
Continuous
 62
     7
100
AcDbCircle
 10
9.201095
 20
77.615503
 30
0.0
 40
1.55
  0
CIRCLE
  5
7D
330
1D
100
AcDbEntity
  8
23
  6
Continuous
 62
     7
100
AcDbCircle
 10
9.190623
 20
65.615507
 30
0.0
 40
1.55
  0
LINE
  5
7E
330
1D
100
AcDbEntity
  8
1
  6
Continuous
 62
     7
100
AcDbLine
 10
17.187129
 20
61.608528
 30
0.0
 11
32.246147
 21
61.595386
 31
0.0
  0
LINE
  5
7F
330
1D
100
AcDbEntity
  8
1
  6
Continuous
 62
     7
100
AcDbLine
 10
32.246147
 20
61.595386
 30
0.0
 11
32.246147
 21
93.603111
 31
0.0
  0
LINE
  5
80
330
1D
100
AcDbEntity
  8
1
  6
Continuous
 62
     7
100
AcDbLine
 10
32.246147
 20
93.603111
 30
0.0
 11
17.215061
 21
93.616228
 31
0.0
  0
LINE
  5
81
330
1D
100
AcDbEntity
  8
1
  6
Continuous
 62
     7
100
AcDbLine
 10
17.187129
 20
61.608528
 30
0.0
 11
17.215061
 21
93.616228
 31
0.0
  0
ARC
  5
82
330
1D
100
AcDbEntity
  8
23
  6
Continuous
 62
     7
100
AcDbCircle
 10
46.786681
 20
90.606254
 30
0.0
 40
2.0
100
AcDbArc
 50
90.04999999999998
 51
160.05
  0
ARC
  5
83
330
1D
100
AcDbEntity
  8
23
  6
Continuous
 62
     7
100
AcDbCircle
 10
37.346148
 20
64.598005
 30
0.0
 40
2.0
100
AcDbArc
 50
160.05
 51
270.0500000000001
  0
ARC
  5
84
330
1D
100
AcDbEntity
  8
23
  6
Continuous
 62
     7
100
AcDbCircle
 10
58.379855
 20
90.61637
 30
0.0
 40
2.0
100
AcDbArc
 50
0.05
 51
90.04999999999998
  0
ARC
  5
85
330
1D
100
AcDbEntity
  8
23
  6
Continuous
 62
     7
100
AcDbCircle
 10
58.402544
 20
64.61638
 30
0.0
 40
2.0
100
AcDbArc
 50
270.0500000000001
 51
0.05
  0
LINE
  5
86
330
1D
100
AcDbEntity
  8
23
  6
Continuous
 62
     7
100
AcDbLine
 10
49.378113
 20
92.608516
 30
0.0
 11
46.784935
 21
92.606253
 31
0.0
  0
LINE
  5
87
330
1D
100
AcDbEntity
  8
23
  6
Continuous
 62
     7
100
AcDbLine
 10
44.906699
 20
91.288653
 30
0.0
 11
35.466166
 21
65.280405
 31
0.0
  0
LINE
  5
88
330
1D
100
AcDbEntity
  8
23
  6
Continuous
 62
     7
100
AcDbLine
 10
37.347893
 20
62.598006
 30
0.0
 11
49.404293
 21
62.608527
 31
0.0
  0
LINE
  5
89
330
1D
100
AcDbEntity
  8
23
  6
Continuous
 62
     7
100
AcDbLine
 10
49.378113
 20
92.608516
 30
0.0
 11
58.37811
 21
92.61637
 31
0.0
  0
LINE
  5
8A
330
1D
100
AcDbEntity
  8
23
  6
Continuous
 62
     7
100
AcDbLine
 10
58.40429
 20
62.616381
 30
0.0
 11
49.404293
 21
62.608527
 31
0.0
  0
LINE
  5
8B
330
1D
100
AcDbEntity
  8
23
  6
Continuous
 62
     7
100
AcDbLine
 10
60.379854
 20
90.618116
 30
0.0
 11
60.402544
 21
64.618126
 31
0.0
  0
CIRCLE
  5
8C
330
1D
100
AcDbEntity
  8
23
  6
Continuous
 62
     7
100
AcDbCircle
 10
57.380728
 20
89.615498
 30
0.0
 40
1.55
  0
CIRCLE
  5
8D
330
1D
100
AcDbEntity
  8
23
  6
Continuous
 62
     7
100
AcDbCircle
 10
57.3912
 20
77.615503
 30
0.0
 40
1.55
  0
CIRCLE
  5
8E
330
1D
100
AcDbEntity
  8
23
  6
Continuous
 62
     7
100
AcDbCircle
 10
57.401672
 20
65.615507
 30
0.0
 40
1.55
  0
LINE
  5
8F
330
1D
100
AcDbEntity
  8
1
  6
Continuous
 62
     7
100
AcDbLine
 10
49.405166
 20
61.608528
 30
0.0
 11
34.346148
 21
61.595386
 31
0.0
  0
LINE
  5
90
330
1D
100
AcDbEntity
  8
1
  6
Continuous
 62
     7
100
AcDbLine
 10
34.346148
 20
61.595386
 30
0.0
 11
34.346148
 21
93.603111
 31
0.0
  0
LINE
  5
91
330
1D
100
AcDbEntity
  8
1
  6
Continuous
 62
     7
100
AcDbLine
 10
34.346148
 20
93.603111
 30
0.0
 11
49.377234
 21
93.616228
 31
0.0
  0
LINE
  5
92
330
1D
100
AcDbEntity
  8
1
  6
Continuous
 62
     7
100
AcDbLine
 10
49.405166
 20
61.608528
 30
0.0
 11
49.377234
 21
93.616228
 31
0.0
  0
ENDSEC
  0
SECTION
  2
OBJECTS
  0
DICTIONARY
  5
C
330
0
100
AcDbDictionary
281
     1
  3
ACAD_DETAILVIEWSTYLE
350
E0
  3
ACAD_GROUP
350
D
  3
ACAD_LAYOUT
350
1A
  3
ACAD_MLINESTYLE
350
17
  3
ACAD_PLOTSETTINGS
350
19
  3
ACAD_PLOTSTYLENAME
350
E
  3
ACAD_SCALELIST
350
93
  3
ACAD_SECTIONVIEWSTYLE
350
E1
  3
AcDbVariableDictionary
350
DB
  3
APPDATA
350
DA
  3
DWGPROPS
350
E3
  0
DICTIONARY
  5
E0
102
{ACAD_REACTORS
330
C
102
}
330
C
100
AcDbDictionary
281
     1
  0
DICTIONARY
  5
D
102
{ACAD_REACTORS
330
C
102
}
330
C
100
AcDbDictionary
281
     1
  0
DICTIONARY
  5
1A
102
{ACAD_REACTORS
330
C
102
}
330
C
100
AcDbDictionary
281
     1
  3
Model
350
1E
  3
シート 1
350
1C
  0
DICTIONARY
  5
17
102
{ACAD_REACTORS
330
C
102
}
330
C
100
AcDbDictionary
281
     1
  3
Standard
350
18
  0
DICTIONARY
  5
19
102
{ACAD_REACTORS
330
C
102
}
330
C
100
AcDbDictionary
281
     1
  0
ACDBDICTIONARYWDFLT
  5
E
102
{ACAD_REACTORS
330
C
102
}
330
C
100
AcDbDictionary
281
     1
  3
Normal
350
F
100
AcDbDictionaryWithDefault
340
F
  0
DICTIONARY
  5
93
102
{ACAD_REACTORS
330
C
102
}
330
C
100
AcDbDictionary
281
     1
  3
A0
350
94
  3
A1
350
95
  3
A2
350
96
  3
A3
350
97
  3
A4
350
98
  3
A5
350
99
  3
A6
350
9A
  3
A7
350
9B
  3
A8
350
9C
  3
A9
350
9D
  3
B0
350
9E
  3
B1
350
9F
  3
B2
350
A0
  3
B3
350
A1
  3
B4
350
A2
  3
B5
350
A3
  3
B6
350
A4
  3
B7
350
A5
  3
B8
350
A6
  3
B9
350
A7
  3
C0
350
A8
  3
C1
350
A9
  3
C2
350
AA
  3
C3
350
AB
  3
C4
350
AC
  3
C5
350
AD
  3
C6
350
AE
  3
C7
350
AF
  3
C8
350
B0
  3
C9
350
B1
  3
D0
350
B2
  3
D1
350
B3
  3
D2
350
B4
  0
DICTIONARY
  5
E1
102
{ACAD_REACTORS
330
C
102
}
330
C
100
AcDbDictionary
281
     1
  0
DICTIONARY
  5
DB
102
{ACAD_REACTORS
330
C
102
}
330
C
100
AcDbDictionary
281
     1
  0
DICTIONARY
  5
DA
102
{ACAD_REACTORS
330
C
102
}
330
C
100
AcDbDictionary
281
     1
  0
XRECORD
  5
E3
102
{ACAD_REACTORS
330
C
102
}
330
C
100
AcDbXrecord
280
     1
  1
DWGPROPS COOKIE
  2

  3

  4

  6

  7

  8
haya
  9

300
=
301
=
302
=
303
=
304
=
305
=
306
=
307
=
308
=
309
=
 40
0.0
 41
2447892.625
 42
2458196.133342917
  1

 90
        0
  0
LAYOUT
  5
1E
102
{ACAD_REACTORS
330
1A
102
}
330
1A
100
AcDbPlotSettings
  1

  2
none_device
  4
Letter_(8.50_x_11.00_Inches)
  6

 40
6.35
 41
6.35
 42
6.35
 43
6.35
 44
215.9
 45
279.4
 46
0.0
 47
0.0
 48
0.0
 49
0.0
140
0.0
141
0.0
142
1.0
143
1.0
 70
  1712
 72
     0
 73
     0
 74
     0
  7

 75
     0
147
1.0
148
0.0
149
0.0
100
AcDbLayout
  1
Model
 70
     3
 71
     0
 10
0.0
 20
0.0
 11
12.0
 21
9.0
 12
0.0
 22
0.0
 32
0.0
 14
3.0
 24
2.0
 34
0.0
 15
60.40254400000001
 25
93.616228
 35
0.0
146
0.0
 13
0.0
 23
0.0
 33
0.0
 16
1.0
 26
0.0
 36
0.0
 17
0.0
 27
1.0
 37
0.0
 76
     0
330
1D
331
2C
  0
LAYOUT
  5
1C
102
{ACAD_REACTORS
330
1A
102
}
330
1A
100
AcDbPlotSettings
  1

  2
none_device
  4

  6

 40
0.0
 41
0.0
 42
0.0
 43
0.0
 44
0.0
 45
0.0
 46
0.0
 47
0.0
 48
0.0
 49
0.0
140
0.0
141
0.0
142
1.0
143
1.0
 70
   688
 72
     0
 73
     0
 74
     5
  7

 75
    16
147
1.0
148
0.0
149
0.0
100
AcDbLayout
  1
シート 1
 70
     1
 71
     1
 10
0.0
 20
0.0
 11
0.0
 21
0.0
 12
0.0
 22
0.0
 32
0.0
 14
0.0
 24
0.0
 34
0.0
 15
297.0
 25
210.0
 35
0.0
146
0.0
 13
0.0
 23
0.0
 33
0.0
 16
1.0
 26
0.0
 36
0.0
 17
0.0
 27
1.0
 37
0.0
 76
     0
330
1B
  0
MLINESTYLE
  5
18
102
{ACAD_REACTORS
330
17
102
}
330
17
100
AcDbMlineStyle
  2
Standard
 70
     0
  3

 62
   256
 51
90.0
 52
90.0
 71
     2
 49
0.5
 62
   256
  6
BYLAYER
 49
-0.5
 62
   256
  6
BYLAYER
  0
ACDBPLACEHOLDER
  5
F
102
{ACAD_REACTORS
330
E
102
}
330
E
  0
SCALE
  5
94
102
{ACAD_REACTORS
330
93
102
}
330
93
100
AcDbScale
 70
     0
300
1:1
140
1.0
141
1.0
290
     1
  0
SCALE
  5
95
102
{ACAD_REACTORS
330
93
102
}
330
93
100
AcDbScale
 70
     0
300
1:2
140
1.0
141
2.0
290
     0
  0
SCALE
  5
96
102
{ACAD_REACTORS
330
93
102
}
330
93
100
AcDbScale
 70
     0
300
1:4
140
1.0
141
4.0
290
     0
  0
SCALE
  5
97
102
{ACAD_REACTORS
330
93
102
}
330
93
100
AcDbScale
 70
     0
300
1:5
140
1.0
141
5.0
290
     0
  0
SCALE
  5
98
102
{ACAD_REACTORS
330
93
102
}
330
93
100
AcDbScale
 70
     0
300
1:8
140
1.0
141
8.0
290
     0
  0
SCALE
  5
99
102
{ACAD_REACTORS
330
93
102
}
330
93
100
AcDbScale
 70
     0
300
1:10
140
1.0
141
10.0
290
     0
  0
SCALE
  5
9A
102
{ACAD_REACTORS
330
93
102
}
330
93
100
AcDbScale
 70
     0
300
1:16
140
1.0
141
16.0
290
     0
  0
SCALE
  5
9B
102
{ACAD_REACTORS
330
93
102
}
330
93
100
AcDbScale
 70
     0
300
1:20
140
1.0
141
20.0
290
     0
  0
SCALE
  5
9C
102
{ACAD_REACTORS
330
93
102
}
330
93
100
AcDbScale
 70
     0
300
1:30
140
1.0
141
30.0
290
     0
  0
SCALE
  5
9D
102
{ACAD_REACTORS
330
93
102
}
330
93
100
AcDbScale
 70
     0
300
1:40
140
1.0
141
40.0
290
     0
  0
SCALE
  5
9E
102
{ACAD_REACTORS
330
93
102
}
330
93
100
AcDbScale
 70
     0
300
1:50
140
1.0
141
50.0
290
     0
  0
SCALE
  5
9F
102
{ACAD_REACTORS
330
93
102
}
330
93
100
AcDbScale
 70
     0
300
1:100
140
1.0
141
100.0
290
     0
  0
SCALE
  5
A0
102
{ACAD_REACTORS
330
93
102
}
330
93
100
AcDbScale
 70
     0
300
2:1
140
2.0
141
1.0
290
     0
  0
SCALE
  5
A1
102
{ACAD_REACTORS
330
93
102
}
330
93
100
AcDbScale
 70
     0
300
4:1
140
4.0
141
1.0
290
     0
  0
SCALE
  5
A2
102
{ACAD_REACTORS
330
93
102
}
330
93
100
AcDbScale
 70
     0
300
8:1
140
8.0
141
1.0
290
     0
  0
SCALE
  5
A3
102
{ACAD_REACTORS
330
93
102
}
330
93
100
AcDbScale
 70
     0
300
10:1
140
10.0
141
1.0
290
     0
  0
SCALE
  5
A4
102
{ACAD_REACTORS
330
93
102
}
330
93
100
AcDbScale
 70
     0
300
100:1
140
100.0
141
1.0
290
     0
  0
SCALE
  5
A5
102
{ACAD_REACTORS
330
93
102
}
330
93
100
AcDbScale
 70
     0
300
1/128" = 1'-0"
140
0.0078125
141
12.0
290
     0
  0
SCALE
  5
A6
102
{ACAD_REACTORS
330
93
102
}
330
93
100
AcDbScale
 70
     0
300
1/64" = 1'-0"
140
0.015625
141
12.0
290
     0
  0
SCALE
  5
A7
102
{ACAD_REACTORS
330
93
102
}
330
93
100
AcDbScale
 70
     0
300
1/32" = 1'-0"
140
0.03125
141
12.0
290
     0
  0
SCALE
  5
A8
102
{ACAD_REACTORS
330
93
102
}
330
93
100
AcDbScale
 70
     0
300
1/16" = 1'-0"
140
0.0625
141
12.0
290
     0
  0
SCALE
  5
A9
102
{ACAD_REACTORS
330
93
102
}
330
93
100
AcDbScale
 70
     0
300
3/32" = 1'-0"
140
0.09375
141
12.0
290
     0
  0
SCALE
  5
AA
102
{ACAD_REACTORS
330
93
102
}
330
93
100
AcDbScale
 70
     0
300
1/8" = 1'-0"
140
0.125
141
12.0
290
     0
  0
SCALE
  5
AB
102
{ACAD_REACTORS
330
93
102
}
330
93
100
AcDbScale
 70
     0
300
3/16" = 1'-0"
140
0.1875
141
12.0
290
     0
  0
SCALE
  5
AC
102
{ACAD_REACTORS
330
93
102
}
330
93
100
AcDbScale
 70
     0
300
1/4" = 1'-0"
140
0.25
141
12.0
290
     0
  0
SCALE
  5
AD
102
{ACAD_REACTORS
330
93
102
}
330
93
100
AcDbScale
 70
     0
300
3/8" = 1'-0"
140
0.375
141
12.0
290
     0
  0
SCALE
  5
AE
102
{ACAD_REACTORS
330
93
102
}
330
93
100
AcDbScale
 70
     0
300
1/2" = 1'-0"
140
0.5
141
12.0
290
     0
  0
SCALE
  5
AF
102
{ACAD_REACTORS
330
93
102
}
330
93
100
AcDbScale
 70
     0
300
3/4" = 1'-0"
140
0.75
141
12.0
290
     0
  0
SCALE
  5
B0
102
{ACAD_REACTORS
330
93
102
}
330
93
100
AcDbScale
 70
     0
300
1" = 1'-0"
140
1.0
141
12.0
290
     0
  0
SCALE
  5
B1
102
{ACAD_REACTORS
330
93
102
}
330
93
100
AcDbScale
 70
     0
300
1-1/2" = 1'-0"
140
1.5
141
12.0
290
     0
  0
SCALE
  5
B2
102
{ACAD_REACTORS
330
93
102
}
330
93
100
AcDbScale
 70
     0
300
3" = 1'-0"
140
3.0
141
12.0
290
     0
  0
SCALE
  5
B3
102
{ACAD_REACTORS
330
93
102
}
330
93
100
AcDbScale
 70
     0
300
6" = 1'-0"
140
6.0
141
12.0
290
     0
  0
SCALE
  5
B4
102
{ACAD_REACTORS
330
93
102
}
330
93
100
AcDbScale
 70
     0
300
1'-0" = 1'-0"
140
12.0
141
12.0
290
     0
  0
ENDSEC
  0
EOF
