  0
SECTION
  2
HEADER
  9
$ACADVER
  1
AC1015
  9
$ACADMAINTVER
 70
     6
  9
$DWGCODEPAGE
  3
ANSI_932
  9
$INSBASE
 10
0.0
 20
0.0
 30
0.0
  9
$EXTMIN
 10
-0.0000000000000036
 20
0.0
 30
0.0
  9
$EXTMAX
 10
200.0
 20
299.9999999999998
 30
0.0
  9
$LIMMIN
 10
0.0
 20
0.0
  9
$LIMMAX
 10
594.0
 20
420.0
  9
$ORTHOMODE
 70
     0
  9
$REGENMODE
 70
     1
  9
$FILLMODE
 70
     1
  9
$QTEXTMODE
 70
     0
  9
$MIRRTEXT
 70
     1
  9
$LTSCALE
 40
0.25
  9
$ATTMODE
 70
     1
  9
$TEXTSIZE
 40
0.2
  9
$TRACEWID
 40
0.05
  9
$TEXTSTYLE
  7
STANDARD
  9
$CLAYER
  8
0
  9
$CELTYPE
  6
ByLayer
  9
$CECOLOR
 62
   256
  9
$CELTSCALE
 40
1.0
  9
$DISPSILH
 70
     0
  9
$DIMSCALE
 40
1.0
  9
$DIMASZ
 40
1.0
  9
$DIMEXO
 40
0.0
  9
$DIMDLI
 40
0.5
  9
$DIMRND
 40
0.0
  9
$DIMDLE
 40
0.0
  9
$DIMEXE
 40
0.0
  9
$DIMTP
 40
0.0
  9
$DIMTM
 40
0.0
  9
$DIMTXT
 40
4.0
  9
$DIMCEN
 40
0.0
  9
$DIMTSZ
 40
0.0
  9
$DIMTOL
 70
     0
  9
$DIMLIM
 70
     0
  9
$DIMTIH
 70
     1
  9
$DIMTOH
 70
     1
  9
$DIMSE1
 70
     0
  9
$DIMSE2
 70
     0
  9
$DIMTAD
 70
     0
  9
$DIMZIN
 70
     0
  9
$DIMBLK
  1

  9
$DIMASO
 70
     0
  9
$DIMSHO
 70
     0
  9
$DIMPOST
  1

  9
$DIMAPOST
  1

  9
$DIMALT
 70
     0
  9
$DIMALTD
 70
     0
  9
$DIMALTF
 40
25.4
  9
$DIMLFAC
 40
1.0
  9
$DIMTOFL
 70
     0
  9
$DIMTVP
 40
0.0
  9
$DIMTIX
 70
     0
  9
$DIMSOXD
 70
     0
  9
$DIMSAH
 70
     0
  9
$DIMBLK1
  1

  9
$DIMBLK2
  1

  9
$DIMSTYLE
  2
Standard
  9
$DIMCLRD
 70
     0
  9
$DIMCLRE
 70
     0
  9
$DIMCLRT
 70
     0
  9
$DIMTFAC
 40
1.0
  9
$DIMGAP
 40
0.09
  9
$DIMJUST
 70
     0
  9
$DIMSD1
 70
     0
  9
$DIMSD2
 70
     0
  9
$DIMTOLJ
 70
     1
  9
$DIMTZIN
 70
     0
  9
$DIMALTZ
 70
     0
  9
$DIMALTTZ
 70
     0
  9
$DIMUPT
 70
     0
  9
$DIMDEC
 70
     2
  9
$DIMTDEC
 70
     2
  9
$DIMALTU
 70
     2
  9
$DIMALTTD
 70
     2
  9
$DIMTXSTY
  7
STANDARD
  9
$DIMAUNIT
 70
     0
  9
$DIMADEC
 70
     0
  9
$DIMALTRND
 40
0.0
  9
$DIMAZIN
 70
     0
  9
$DIMDSEP
 70
    46
  9
$DIMATFIT
 70
     3
  9
$DIMFRAC
 70
     0
  9
$DIMLDRBLK
  1

  9
$DIMLUNIT
 70
     2
  9
$DIMLWD
 70
    -2
  9
$DIMLWE
 70
    -2
  9
$DIMTMOVE
 70
     2
  9
$LUNITS
 70
     2
  9
$LUPREC
 70
     2
  9
$SKETCHINC
 40
0.0
  9
$FILLETRAD
 40
0.0
  9
$AUNITS
 70
     1
  9
$AUPREC
 70
     2
  9
$MENU
  1
ACAD
  9
$ELEVATION
 40
0.0
  9
$PELEVATION
 40
0.0
  9
$THICKNESS
 40
0.0
  9
$LIMCHECK
 70
     1
  9
$CHAMFERA
 40
0.0
  9
$CHAMFERB
 40
0.0
  9
$CHAMFERC
 40
0.0
  9
$CHAMFERD
 40
0.0
  9
$SKPOLY
 70
     0
  9
$TDCREATE
 40
2447893.0
  9
$TDUCREATE
 40
2447892.625
  9
$TDUPDATE
 40
2458246.525667824
  9
$TDUUPDATE
 40
2458246.150667824
  9
$TDINDWG
 40
0.001636088
  9
$TDUSRTIMER
 40
0.0002130787
  9
$USRTIMER
 70
     1
  9
$ANGBASE
 50
0.0
  9
$ANGDIR
 70
     0
  9
$PDMODE
 70
     0
  9
$PDSIZE
 40
0.0
  9
$PLINEWID
 40
0.0
  9
$SPLFRAME
 70
     0
  9
$SPLINETYPE
 70
     6
  9
$SPLINESEGS
 70
     8
  9
$HANDSEED
  5
148
  9
$SURFTAB1
 70
     6
  9
$SURFTAB2
 70
     6
  9
$SURFTYPE
 70
     6
  9
$SURFU
 70
     6
  9
$SURFV
 70
     6
  9
$UCSBASE
  2

  9
$UCSNAME
  2

  9
$UCSORG
 10
0.0
 20
0.0
 30
0.0
  9
$UCSXDIR
 10
1.0
 20
0.0
 30
0.0
  9
$UCSYDIR
 10
0.0
 20
1.0
 30
0.0
  9
$UCSORTHOREF
  2

  9
$UCSORTHOVIEW
 70
     0
  9
$UCSORGTOP
 10
0.0
 20
0.0
 30
0.0
  9
$UCSORGBOTTOM
 10
0.0
 20
0.0
 30
0.0
  9
$UCSORGLEFT
 10
0.0
 20
0.0
 30
0.0
  9
$UCSORGRIGHT
 10
0.0
 20
0.0
 30
0.0
  9
$UCSORGFRONT
 10
0.0
 20
0.0
 30
0.0
  9
$UCSORGBACK
 10
0.0
 20
0.0
 30
0.0
  9
$PUCSBASE
  2

  9
$PUCSNAME
  2

  9
$PUCSORG
 10
0.0
 20
0.0
 30
0.0
  9
$PUCSXDIR
 10
1.0
 20
0.0
 30
0.0
  9
$PUCSYDIR
 10
0.0
 20
1.0
 30
0.0
  9
$PUCSORTHOREF
  2

  9
$PUCSORTHOVIEW
 70
     0
  9
$PUCSORGTOP
 10
0.0
 20
0.0
 30
0.0
  9
$PUCSORGBOTTOM
 10
0.0
 20
0.0
 30
0.0
  9
$PUCSORGLEFT
 10
0.0
 20
0.0
 30
0.0
  9
$PUCSORGRIGHT
 10
0.0
 20
0.0
 30
0.0
  9
$PUCSORGFRONT
 10
0.0
 20
0.0
 30
0.0
  9
$PUCSORGBACK
 10
0.0
 20
0.0
 30
0.0
  9
$USERI1
 70
     0
  9
$USERI2
 70
     0
  9
$USERI3
 70
     0
  9
$USERI4
 70
     0
  9
$USERI5
 70
     0
  9
$USERR1
 40
0.0
  9
$USERR2
 40
0.0
  9
$USERR3
 40
0.0
  9
$USERR4
 40
0.0
  9
$USERR5
 40
0.0
  9
$WORLDVIEW
 70
     1
  9
$SHADEDGE
 70
     3
  9
$SHADEDIF
 70
    70
  9
$TILEMODE
 70
     1
  9
$MAXACTVP
 70
    64
  9
$PINSBASE
 10
0.0
 20
0.0
 30
0.0
  9
$PLIMCHECK
 70
     0
  9
$PEXTMIN
 10
0.0
 20
0.0
 30
0.0
  9
$PEXTMAX
 10
594.0
 20
420.0
 30
0.0
  9
$PLIMMIN
 10
0.0
 20
0.0
  9
$PLIMMAX
 10
0.0
 20
0.0
  9
$UNITMODE
 70
     0
  9
$VISRETAIN
 70
     1
  9
$PLINEGEN
 70
     0
  9
$PSLTSCALE
 70
     1
  9
$TREEDEPTH
 70
  3020
  9
$CMLSTYLE
  2
Standard
  9
$CMLJUST
 70
     0
  9
$CMLSCALE
 40
1.0
  9
$PROXYGRAPHICS
 70
     1
  9
$MEASUREMENT
 70
     0
  9
$CELWEIGHT
370
    -1
  9
$ENDCAPS
280
     0
  9
$JOINSTYLE
280
     0
  9
$LWDISPLAY
290
     0
  9
$INSUNITS
 70
     0
  9
$HYPERLINKBASE
  1

  9
$STYLESHEET
  1

  9
$XEDIT
290
     1
  9
$CEPSNTYPE
380
     0
  9
$PSTYLEMODE
290
     1
  9
$FINGERPRINTGUID
  2
{03804DB5-10AD-41E9-AC09-50C592DC61DD}
  9
$VERSIONGUID
  2
{FAEB1C32-E019-11D5-929B-00C0DF256EC4}
  9
$EXTNAMES
290
     1
  9
$PSVPSCALE
 40
0.0
  9
$OLESTARTUP
290
     0
  0
ENDSEC
  0
SECTION
  2
CLASSES
  0
CLASS
  1
ACDBDICTIONARYWDFLT
  2
AcDbDictionaryWithDefault
  3
ObjectDBX Classes
 90
        0
280
     0
281
     0
  0
CLASS
  1
SCALE
  2
AcDbScale
  3
ObjectDBX Classes
 90
     1153
280
     0
281
     0
  0
CLASS
  1
VISUALSTYLE
  2
AcDbVisualStyle
  3
ObjectDBX Classes
 90
     4095
280
     0
281
     0
  0
CLASS
  1
MATERIAL
  2
AcDbMaterial
  3
ObjectDBX Classes
 90
     1153
280
     0
281
     0
  0
CLASS
  1
TABLESTYLE
  2
AcDbTableStyle
  3
ObjectDBX Classes
 90
     4095
280
     0
281
     0
  0
CLASS
  1
MLEADERSTYLE
  2
AcDbMLeaderStyle
  3
ACDB_MLEADERSTYLE_CLASS
 90
     4095
280
     0
281
     0
  0
CLASS
  1
DICTIONARYVAR
  2
AcDbDictionaryVar
  3
ObjectDBX Classes
 90
        0
280
     0
281
     0
  0
CLASS
  1
SUN
  2
AcDbSun
  3
SCENEOE
 90
     1153
280
     0
281
     0
  0
CLASS
  1
ACDBPLACEHOLDER
  2
AcDbPlaceHolder
  3
ObjectDBX Classes
 90
        0
280
     0
281
     0
  0
CLASS
  1
LAYOUT
  2
AcDbLayout
  3
ObjectDBX Classes
 90
        0
280
     0
281
     0
  0
ENDSEC
  0
SECTION
  2
TABLES
  0
TABLE
  2
VPORT
  5
8
330
0
100
AcDbSymbolTable
 70
     1
  0
VPORT
  5
2D
330
8
100
AcDbSymbolTableRecord
100
AcDbViewportTableRecord
  2
*Active
 70
     0
 10
0.0
 20
0.0
 11
1.0
 21
1.0
 12
284.4541042154478
 22
204.0592171109442
 13
0.0
 23
0.0
 14
10.0
 24
10.0
 15
0.5
 25
0.5
 16
0.0
 26
0.0
 36
1.0
 17
0.0
 27
0.0
 37
0.0
 40
499.6003610813199
 41
2.479430379746836
 42
50.0
 43
0.0
 44
0.0
 50
0.0
 51
0.0
 71
    16
 72
   100
 73
     1
 74
     3
 75
     1
 76
     0
 77
     0
 78
     0
281
     0
 65
     1
110
0.0
120
0.0
130
0.0
111
1.0
121
0.0
131
0.0
112
0.0
122
1.0
132
0.0
 79
     0
146
0.0
  0
ENDTAB
  0
TABLE
  2
LTYPE
  5
5
330
0
100
AcDbSymbolTable
 70
     7
  0
LTYPE
  5
14
330
5
100
AcDbSymbolTableRecord
100
AcDbLinetypeTableRecord
  2
ByBlock
 70
     0
  3

 72
    65
 73
     0
 40
0.0
  0
LTYPE
  5
15
330
5
100
AcDbSymbolTableRecord
100
AcDbLinetypeTableRecord
  2
ByLayer
 70
     0
  3

 72
    65
 73
     0
 40
0.0
  0
LTYPE
  5
16
330
5
100
AcDbSymbolTableRecord
100
AcDbLinetypeTableRecord
  2
CONTINUOUS
 70
     0
  3
Solid line
 72
    65
 73
     0
 40
0.0
  0
LTYPE
  5
21
330
5
100
AcDbSymbolTableRecord
100
AcDbLinetypeTableRecord
  2
HIDDEN
 70
     0
  3
------------------------
 72
    65
 73
     2
 40
12.6
 49
8.4
 74
     0
 49
-4.2
 74
     0
  0
LTYPE
  5
22
330
5
100
AcDbSymbolTableRecord
100
AcDbLinetypeTableRecord
  2
DOT
 70
     0
  3
････････････････････････
 72
    65
 73
     2
 40
8.0
 49
6.0
 74
     0
 49
-2.0
 74
     0
  0
LTYPE
  5
23
330
5
100
AcDbSymbolTableRecord
100
AcDbLinetypeTableRecord
  2
DASHDOT
 70
     0
  3
--･--･--･--･--･--･--･--
 72
    65
 73
     4
 40
50.5
 49
30.0
 74
     0
 49
-9.0
 74
     0
 49
2.5
 74
     0
 49
-9.0
 74
     0
  0
LTYPE
  5
24
330
5
100
AcDbSymbolTableRecord
100
AcDbLinetypeTableRecord
  2
DIVIDE
 70
     0
  3
--･･--･･--･･--･･--･･--
 72
    65
 73
     6
 40
58.0
 49
30.0
 74
     0
 49
-9.0
 74
     0
 49
2.5
 74
     0
 49
-5.0
 74
     0
 49
2.5
 74
     0
 49
-9.0
 74
     0
  0
LTYPE
  5
25
330
5
100
AcDbSymbolTableRecord
100
AcDbLinetypeTableRecord
  2
ACAD_ISO06W100
 70
     0
  3
____ ... ____ ... ____
 72
    65
 73
     8
 40
37.5
 49
24.0
 74
     0
 49
-3.0
 74
     0
 49
0.5
 74
     0
 49
-3.0
 74
     0
 49
0.5
 74
     0
 49
-3.0
 74
     0
 49
0.5
 74
     0
 49
-3.0
 74
     0
  0
LTYPE
  5
26
330
5
100
AcDbSymbolTableRecord
100
AcDbLinetypeTableRecord
  2
ACAD_ISO14W100
 70
     0
  3
__ . . . __ . . . __ . . . 
 72
    65
 73
     8
 40
25.5
 49
12.0
 74
     0
 49
-3.0
 74
     0
 49
0.5
 74
     0
 49
-3.0
 74
     0
 49
0.5
 74
     0
 49
-3.0
 74
     0
 49
0.5
 74
     0
 49
-3.0
 74
     0
  0
ENDTAB
  0
TABLE
  2
LAYER
  5
2
330
0
100
AcDbSymbolTable
 70
     4
  0
LAYER
  5
10
330
2
100
AcDbSymbolTableRecord
100
AcDbLayerTableRecord
  2
0
 70
     0
 62
     7
  6
CONTINUOUS
370
    -3
390
F
  0
LAYER
  5
27
330
2
100
AcDbSymbolTableRecord
100
AcDbLayerTableRecord
  2
1
 70
     0
 62
     7
  6
CONTINUOUS
370
    -3
390
F
  0
LAYER
  5
28
330
2
100
AcDbSymbolTableRecord
100
AcDbLayerTableRecord
  2
24
 70
     0
 62
     7
  6
CONTINUOUS
370
    -3
390
F
  0
LAYER
  5
29
330
2
100
AcDbSymbolTableRecord
100
AcDbLayerTableRecord
  2
26
 70
     0
 62
     7
  6
CONTINUOUS
370
    -3
390
F
  0
ENDTAB
  0
TABLE
  2
STYLE
  5
3
330
0
100
AcDbSymbolTable
 70
     2
  0
STYLE
  5
11
330
3
100
AcDbSymbolTableRecord
100
AcDbTextStyleTableRecord
  2
STANDARD
 70
     0
 40
0.0
 41
1.0
 50
0.0
 71
     0
 42
0.2
  3
TXT
  4

  0
STYLE
  5
2B
330
3
100
AcDbSymbolTableRecord
100
AcDbTextStyleTableRecord
  2
KANJI
 70
     0
 40
0.0
 41
1.0
 50
0.0
 71
     0
 42
0.2
  3
TXT
  4
BIGFONT
  0
ENDTAB
  0
TABLE
  2
VIEW
  5
6
330
0
100
AcDbSymbolTable
 70
     0
  0
ENDTAB
  0
TABLE
  2
UCS
  5
7
330
0
100
AcDbSymbolTable
 70
     0
  0
ENDTAB
  0
TABLE
  2
APPID
  5
9
330
0
100
AcDbSymbolTable
 70
     1
  0
APPID
  5
12
330
9
100
AcDbSymbolTableRecord
100
AcDbRegAppTableRecord
  2
ACAD
 70
     0
  0
ENDTAB
  0
TABLE
  2
DIMSTYLE
  5
A
330
0
100
AcDbSymbolTable
 70
     1
100
AcDbDimStyleTable
  0
DIMSTYLE
105
2C
330
A
100
AcDbSymbolTableRecord
100
AcDbDimStyleTableRecord
  2
Standard
 70
     0
178
     0
340
11
  0
ENDTAB
  0
TABLE
  2
BLOCK_RECORD
  5
1
330
0
100
AcDbSymbolTable
 70
     0
  0
BLOCK_RECORD
  5
1D
330
1
100
AcDbSymbolTableRecord
100
AcDbBlockTableRecord
  2
*Model_Space
340
1E
  0
BLOCK_RECORD
  5
1B
330
1
100
AcDbSymbolTableRecord
100
AcDbBlockTableRecord
  2
*Paper_Space
340
1C
  0
ENDTAB
  0
ENDSEC
  0
SECTION
  2
BLOCKS
  0
BLOCK
  5
118
330
1D
100
AcDbEntity
  8
0
100
AcDbBlockBegin
  2
*Model_Space
 70
     0
 10
0.0
 20
0.0
 30
0.0
  3
*Model_Space
  1

  0
ENDBLK
  5
119
330
1D
100
AcDbEntity
  8
0
100
AcDbBlockEnd
  0
BLOCK
  5
11A
330
1B
100
AcDbEntity
 67
     1
  8
0
100
AcDbBlockBegin
  2
*Paper_Space
 70
     0
 10
0.0
 20
0.0
 30
0.0
  3
*Paper_Space
  1

  0
ENDBLK
  5
11B
330
1B
100
AcDbEntity
 67
     1
  8
0
100
AcDbBlockEnd
  0
ENDSEC
  0
SECTION
  2
ENTITIES
  0
ARC
  5
2E
330
1D
100
AcDbEntity
  8
24
  6
Continuous
 62
     7
100
AcDbCircle
 10
106.823508
 20
39.0
 30
0.0
 40
3.0
100
AcDbArc
 50
90.0
 51
180.0
  0
ARC
  5
2F
330
1D
100
AcDbEntity
  8
24
  6
Continuous
 62
     7
100
AcDbCircle
 10
106.823508
 20
31.764731
 30
0.0
 40
3.0
100
AcDbArc
 50
180.0
 51
308.005901
  0
ARC
  5
30
330
1D
100
AcDbEntity
  8
24
  6
Continuous
 62
     7
100
AcDbCircle
 10
116.082264
 20
39.0
 30
0.0
 40
3.0
100
AcDbArc
 50
308.005901
 51
90.0
  0
ARC
  5
31
330
1D
100
AcDbEntity
  8
24
  6
Continuous
 62
     7
100
AcDbCircle
 10
16.491244
 20
39.0
 30
0.0
 40
3.0
100
AcDbArc
 50
90.0
 51
231.994099
  0
ARC
  5
32
330
1D
100
AcDbEntity
  8
24
  6
Continuous
 62
     7
100
AcDbCircle
 10
25.75
 20
39.0
 30
0.0
 40
3.0
100
AcDbArc
 50
0.0
 51
90.0
  0
ARC
  5
33
330
1D
100
AcDbEntity
  8
24
  6
Continuous
 62
     7
100
AcDbCircle
 10
25.75
 20
31.764731
 30
0.0
 40
3.0
100
AcDbArc
 50
231.994099
 51
0.0
  0
LINE
  5
34
330
1D
100
AcDbEntity
  8
24
  6
Continuous
 62
     7
100
AcDbLine
 10
103.823508
 20
31.764731
 30
0.0
 11
103.823508
 21
39.0
 31
0.0
  0
LINE
  5
35
330
1D
100
AcDbEntity
  8
24
  6
Continuous
 62
     7
100
AcDbLine
 10
117.929492
 20
36.636158
 30
0.0
 11
108.670736
 21
29.400889
 31
0.0
  0
LINE
  5
36
330
1D
100
AcDbEntity
  8
24
  6
Continuous
 62
     7
100
AcDbLine
 10
126.823508
 20
44.75
 30
0.0
 11
100.073508
 21
44.75
 31
0.0
  0
LINE
  5
37
330
1D
100
AcDbEntity
  8
24
  6
Continuous
 62
     7
100
AcDbLine
 10
83.573558
 20
3.0
 30
0.0
 11
100.798661
 21
12.399335
 31
0.0
  0
LINE
  5
38
330
1D
100
AcDbEntity
  8
24
  6
Continuous
 62
     7
100
AcDbLine
 10
106.823508
 20
42.0
 30
0.0
 11
116.082264
 21
42.0
 31
0.0
  0
CIRCLE
  5
39
330
1D
100
AcDbEntity
  8
24
  6
Continuous
 62
     7
100
AcDbCircle
 10
99.823508
 20
42.0
 30
0.0
 40
1.35
  0
CIRCLE
  5
3A
330
1D
100
AcDbEntity
  8
24
  6
Continuous
 62
     7
100
AcDbCircle
 10
126.823508
 20
42.0
 30
0.0
 40
1.35
  0
CIRCLE
  5
3B
330
1D
100
AcDbEntity
  8
24
  6
Continuous
 62
     7
100
AcDbCircle
 10
99.823508
 20
15.0
 30
0.0
 40
1.35
  0
ARC
  5
3C
330
1D
100
AcDbEntity
  8
24
  6
Continuous
 62
     7
100
AcDbCircle
 10
126.823508
 20
42.0
 30
0.0
 40
2.75
100
AcDbArc
 50
308.005901
 51
90.0
  0
ARC
  5
3D
330
1D
100
AcDbEntity
  8
24
  6
Continuous
 62
     7
100
AcDbCircle
 10
113.323508
 20
14.0
 30
0.0
 40
11.0
100
AcDbArc
 50
128.005901
 51
175.769466
  0
LINE
  5
3E
330
1D
100
AcDbEntity
  8
24
  6
Continuous
 62
     7
100
AcDbLine
 10
106.550339
 20
22.667421
 30
0.0
 11
128.5168
 21
39.833145
 31
0.0
  0
LINE
  5
3F
330
1D
100
AcDbEntity
  8
24
  6
Continuous
 62
     7
100
AcDbLine
 10
16.491244
 20
42.0
 30
0.0
 11
25.75
 21
42.0
 31
0.0
  0
LINE
  5
40
330
1D
100
AcDbEntity
  8
24
  6
Continuous
 62
     7
100
AcDbLine
 10
23.902772
 20
29.400889
 30
0.0
 11
14.644016
 21
36.636158
 31
0.0
  0
LINE
  5
41
330
1D
100
AcDbEntity
  8
24
  6
Continuous
 62
     7
100
AcDbLine
 10
31.774847
 20
12.399335
 30
0.0
 11
48.99995
 21
3.0
 31
0.0
  0
LINE
  5
42
330
1D
100
AcDbEntity
  8
24
  6
Continuous
 62
     7
100
AcDbLine
 10
28.75
 20
39.0
 30
0.0
 11
28.75
 21
31.764731
 31
0.0
  0
CIRCLE
  5
43
330
1D
100
AcDbEntity
  8
24
  6
Continuous
 62
     7
100
AcDbCircle
 10
32.75
 20
42.0
 30
0.0
 40
1.35
  0
CIRCLE
  5
44
330
1D
100
AcDbEntity
  8
24
  6
Continuous
 62
     7
100
AcDbCircle
 10
5.75
 20
42.0
 30
0.0
 40
1.35
  0
CIRCLE
  5
45
330
1D
100
AcDbEntity
  8
24
  6
Continuous
 62
     7
100
AcDbCircle
 10
32.75
 20
15.0
 30
0.0
 40
1.35
  0
ARC
  5
46
330
1D
100
AcDbEntity
  8
24
  6
Continuous
 62
     7
100
AcDbCircle
 10
5.75
 20
42.0
 30
0.0
 40
2.75
100
AcDbArc
 50
90.0
 51
231.994099
  0
ARC
  5
47
330
1D
100
AcDbEntity
  8
24
  6
Continuous
 62
     7
100
AcDbCircle
 10
19.25
 20
14.0
 30
0.0
 40
11.0
100
AcDbArc
 50
4.230534
 51
51.99409899999999
  0
LINE
  5
48
330
1D
100
AcDbEntity
  8
24
  6
Continuous
 62
     7
100
AcDbLine
 10
4.056708
 20
39.833145
 30
0.0
 11
26.023169
 21
22.667421
 31
0.0
  0
ARC
  5
49
330
1D
100
AcDbEntity
  8
24
  6
Continuous
 62
     7
100
AcDbCircle
 10
94.536301
 20
15.817275
 30
0.0
 40
2.0
100
AcDbArc
 50
298.620262
 51
351.212992
  0
ARC
  5
4A
330
1D
100
AcDbEntity
  8
24
  6
Continuous
 62
     7
100
AcDbCircle
 10
99.823508
 20
15.0
 30
0.0
 40
3.35
100
AcDbArc
 50
111.952128
 51
171.212992
  0
ARC
  5
4B
330
1D
100
AcDbEntity
  8
24
  6
Continuous
 62
     7
100
AcDbCircle
 10
89.573558
 20
22.5
 30
0.0
 40
2.0
100
AcDbArc
 50
90.0
 51
180.0
  0
LINE
  5
4C
330
1D
100
AcDbEntity
  8
24
  6
Continuous
 62
     7
100
AcDbLine
 10
87.573558
 20
13.109223
 30
0.0
 11
87.573558
 21
22.5
 31
0.0
  0
ARC
  5
4D
330
1D
100
AcDbEntity
  8
24
  6
Continuous
 62
     7
100
AcDbCircle
 10
97.823508
 20
22.5
 30
0.0
 40
2.0
100
AcDbArc
 50
0.0
 51
90.0
  0
LINE
  5
4E
330
1D
100
AcDbEntity
  8
24
  6
Continuous
 62
     7
100
AcDbLine
 10
89.573558
 20
24.5
 30
0.0
 11
97.823508
 21
24.5
 31
0.0
  0
ARC
  5
4F
330
1D
100
AcDbEntity
  8
24
  6
Continuous
 62
     7
100
AcDbCircle
 10
97.823508
 20
19.962106
 30
0.0
 40
2.0
100
AcDbArc
 50
291.952128
 51
0.0
  0
LINE
  5
50
330
1D
100
AcDbEntity
  8
24
  6
Continuous
 62
     7
100
AcDbLine
 10
99.823508
 20
22.5
 30
0.0
 11
99.823508
 21
19.962106
 31
0.0
  0
ARC
  5
51
330
1D
100
AcDbEntity
  8
24
  6
Continuous
 62
     7
100
AcDbCircle
 10
89.573558
 20
13.109223
 30
0.0
 40
2.0
100
AcDbArc
 50
180.0
 51
298.620262
  0
LINE
  5
52
330
1D
100
AcDbEntity
  8
24
  6
Continuous
 62
     7
100
AcDbLine
 10
95.494306
 20
14.061648
 30
0.0
 11
90.531563
 21
11.353596
 31
0.0
  0
ARC
  5
53
330
1D
100
AcDbEntity
  8
24
  6
Continuous
 62
     7
100
AcDbCircle
 10
38.037207
 20
15.817275
 30
0.0
 40
2.0
100
AcDbArc
 50
188.787008
 51
241.379738
  0
ARC
  5
54
330
1D
100
AcDbEntity
  8
24
  6
Continuous
 62
     7
100
AcDbCircle
 10
42.99995
 20
22.5
 30
0.0
 40
2.0
100
AcDbArc
 50
0.0
 51
90.0
  0
ARC
  5
55
330
1D
100
AcDbEntity
  8
24
  6
Continuous
 62
     7
100
AcDbCircle
 10
34.75
 20
22.5
 30
0.0
 40
2.0
100
AcDbArc
 50
90.0
 51
180.0
  0
ARC
  5
56
330
1D
100
AcDbEntity
  8
24
  6
Continuous
 62
     7
100
AcDbCircle
 10
34.75
 20
19.962106
 30
0.0
 40
2.0
100
AcDbArc
 50
180.0
 51
248.047872
  0
ARC
  5
57
330
1D
100
AcDbEntity
  8
24
  6
Continuous
 62
     7
100
AcDbCircle
 10
42.99995
 20
13.109223
 30
0.0
 40
2.0
100
AcDbArc
 50
241.379738
 51
0.0
  0
LINE
  5
58
330
1D
100
AcDbEntity
  8
24
  6
Continuous
 62
     7
100
AcDbLine
 10
42.041945
 20
11.353596
 30
0.0
 11
37.079203
 21
14.061648
 31
0.0
  0
LINE
  5
59
330
1D
100
AcDbEntity
  8
24
  6
Continuous
 62
     7
100
AcDbLine
 10
34.75
 20
24.5
 30
0.0
 11
42.99995
 21
24.5
 31
0.0
  0
LINE
  5
5A
330
1D
100
AcDbEntity
  8
24
  6
Continuous
 62
     7
100
AcDbLine
 10
32.75
 20
19.962106
 30
0.0
 11
32.75
 21
22.5
 31
0.0
  0
ARC
  5
5B
330
1D
100
AcDbEntity
  8
24
  6
Continuous
 62
     7
100
AcDbCircle
 10
32.75
 20
15.0
 30
0.0
 40
3.35
100
AcDbArc
 50
8.787008
 51
68.047872
  0
LINE
  5
5C
330
1D
100
AcDbEntity
  8
24
  6
Continuous
 62
     7
100
AcDbLine
 10
44.99995
 20
22.5
 30
0.0
 11
44.99995
 21
13.109223
 31
0.0
  0
ARC
  5
5D
330
1D
100
AcDbEntity
  8
24
  6
Continuous
 62
     7
100
AcDbCircle
 10
100.073508
 20
41.75
 30
0.0
 40
3.0
100
AcDbArc
 50
90.0
 51
180.0
  0
ARC
  5
5E
330
1D
100
AcDbEntity
  8
24
  6
Continuous
 62
     7
100
AcDbCircle
 10
94.073508
 20
31.5
 30
0.0
 40
3.0
100
AcDbArc
 50
270.0
 51
0.0
  0
ARC
  5
5F
330
1D
100
AcDbEntity
  8
24
  6
Continuous
 62
     7
100
AcDbCircle
 10
32.5
 20
41.75
 30
0.0
 40
3.0
100
AcDbArc
 50
0.0
 51
90.0
  0
ARC
  5
60
330
1D
100
AcDbEntity
  8
24
  6
Continuous
 62
     7
100
AcDbCircle
 10
38.5
 20
31.5
 30
0.0
 40
3.0
100
AcDbArc
 50
180.0
 51
270.0
  0
ARC
  5
61
330
1D
100
AcDbEntity
  8
24
  6
Continuous
 62
     7
100
AcDbCircle
 10
33.211854
 20
15.032775
 30
0.0
 40
3.0
100
AcDbArc
 50
184.230534
 51
241.379738
  0
ARC
  5
62
330
1D
100
AcDbEntity
  8
24
  6
Continuous
 62
     7
100
AcDbCircle
 10
99.361654
 20
15.032775
 30
0.0
 40
3.0
100
AcDbArc
 50
298.620262
 51
355.769466
  0
LINE
  5
63
330
1D
100
AcDbEntity
  8
24
  6
Continuous
 62
     7
100
AcDbLine
 10
94.073508
 20
28.5
 30
0.0
 11
38.5
 21
28.5
 31
0.0
  0
LINE
  5
64
330
1D
100
AcDbEntity
  8
24
  6
Continuous
 62
     7
100
AcDbLine
 10
35.5
 20
31.5
 30
0.0
 11
35.5
 21
41.75
 31
0.0
  0
LINE
  5
65
330
1D
100
AcDbEntity
  8
24
  6
Continuous
 62
     7
100
AcDbLine
 10
97.073508
 20
41.75
 30
0.0
 11
97.073508
 21
31.5
 31
0.0
  0
LINE
  5
66
330
1D
100
AcDbEntity
  8
24
  6
Continuous
 62
     7
100
AcDbLine
 10
5.75
 20
44.75
 30
0.0
 11
32.5
 21
44.75
 31
0.0
  0
LINE
  5
67
330
1D
100
AcDbEntity
  8
24
  6
Continuous
 62
     7
100
AcDbLine
 10
83.573558
 20
3.0
 30
0.0
 11
48.99995
 21
3.0
 31
0.0
  0
CIRCLE
  5
68
330
1D
100
AcDbEntity
  8
24
  6
Continuous
 62
     7
100
AcDbCircle
 10
66.286754
 20
14.0
 30
0.0
 40
5.05
  0
CIRCLE
  5
69
330
1D
100
AcDbEntity
  8
24
  6
Continuous
 62
     7
100
AcDbCircle
 10
74.786754
 20
14.0
 30
0.0
 40
1.35
  0
CIRCLE
  5
6A
330
1D
100
AcDbEntity
  8
24
  6
Continuous
 62
     7
100
AcDbCircle
 10
66.286754
 20
22.5
 30
0.0
 40
1.35
  0
CIRCLE
  5
6B
330
1D
100
AcDbEntity
  8
24
  6
Continuous
 62
     7
100
AcDbCircle
 10
57.786754
 20
14.0
 30
0.0
 40
1.35
  0
CIRCLE
  5
6C
330
1D
100
AcDbEntity
  8
24
  6
Continuous
 62
     7
100
AcDbCircle
 10
66.286754
 20
5.5
 30
0.0
 40
1.35
  0
LINE
  5
6D
330
1D
100
AcDbEntity
  8
24
  6
Continuous
 62
     7
100
AcDbLine
 10
22.036897
 20
46.85
 30
0.0
 11
22.036897
 21
51.606083
 31
0.0
  0
LINE
  5
6E
330
1D
100
AcDbEntity
  8
24
  6
Continuous
 62
     7
100
AcDbLine
 10
69.336897
 20
51.606083
 30
0.0
 11
69.336897
 21
46.85
 31
0.0
  0
LINE
  5
6F
330
1D
100
AcDbEntity
  8
24
  6
Continuous
 62
     7
100
AcDbLine
 10
69.336897
 20
46.85
 30
0.0
 11
22.036897
 21
46.85
 31
0.0
  0
LINE
  5
70
330
1D
100
AcDbEntity
  8
24
  6
Continuous
 62
     7
100
AcDbLine
 10
69.336897
 20
85.362166
 30
0.0
 11
69.336897
 21
80.606083
 31
0.0
  0
LINE
  5
71
330
1D
100
AcDbEntity
  8
24
  6
Continuous
 62
     7
100
AcDbLine
 10
22.036897
 20
80.606083
 30
0.0
 11
22.036897
 21
85.362166
 31
0.0
  0
LINE
  5
72
330
1D
100
AcDbEntity
  8
24
  6
Continuous
 62
     7
100
AcDbLine
 10
22.036897
 20
85.362166
 30
0.0
 11
69.336897
 21
85.362166
 31
0.0
  0
ARC
  5
73
330
1D
100
AcDbEntity
  8
24
  6
Continuous
 62
     7
100
AcDbCircle
 10
11.0
 20
57.606083
 30
0.0
 40
2.0
100
AcDbArc
 50
180.0
 51
270.0
  0
ARC
  5
74
330
1D
100
AcDbEntity
  8
24
  6
Continuous
 62
     7
100
AcDbCircle
 10
14.9997
 20
57.606083
 30
0.0
 40
2.0
100
AcDbArc
 50
270.0
 51
0.0
  0
ARC
  5
75
330
1D
100
AcDbEntity
  8
24
  6
Continuous
 62
     7
100
AcDbCircle
 10
14.9997
 20
74.606083
 30
0.0
 40
2.0
100
AcDbArc
 50
0.0
 51
90.0
  0
ARC
  5
76
330
1D
100
AcDbEntity
  8
24
  6
Continuous
 62
     7
100
AcDbCircle
 10
11.0
 20
74.606083
 30
0.0
 40
2.0
100
AcDbArc
 50
90.0
 51
180.0
  0
ARC
  5
77
330
1D
100
AcDbEntity
  8
24
  6
Continuous
 62
     7
100
AcDbCircle
 10
37.21636
 20
57.606083
 30
0.0
 40
2.0
100
AcDbArc
 50
270.0
 51
45.09947200000001
  0
ARC
  5
78
330
1D
100
AcDbEntity
  8
24
  6
Continuous
 62
     7
100
AcDbCircle
 10
28.036897
 20
57.606083
 30
0.0
 40
2.0
100
AcDbArc
 50
180.0
 51
270.0
  0
ARC
  5
79
330
1D
100
AcDbEntity
  8
24
  6
Continuous
 62
     7
100
AcDbCircle
 10
34.208657
 20
62.606083
 30
0.0
 40
2.0
100
AcDbArc
 50
16.957763
 51
90.0
  0
ARC
  5
7A
330
1D
100
AcDbEntity
  8
24
  6
Continuous
 62
     7
100
AcDbCircle
 10
28.036897
 20
62.606083
 30
0.0
 40
2.0
100
AcDbArc
 50
90.0
 51
180.0
  0
ARC
  5
7B
330
1D
100
AcDbEntity
  8
24
  6
Continuous
 62
     7
100
AcDbCircle
 10
34.208657
 20
69.606083
 30
0.0
 40
2.0
100
AcDbArc
 50
270.0
 51
343.042237
  0
ARC
  5
7C
330
1D
100
AcDbEntity
  8
24
  6
Continuous
 62
     7
100
AcDbCircle
 10
37.21636
 20
74.606083
 30
0.0
 40
2.0
100
AcDbArc
 50
314.900528
 51
90.0
  0
ARC
  5
7D
330
1D
100
AcDbEntity
  8
24
  6
Continuous
 62
     7
100
AcDbCircle
 10
28.036897
 20
74.606083
 30
0.0
 40
2.0
100
AcDbArc
 50
90.0
 51
180.0
  0
ARC
  5
7E
330
1D
100
AcDbEntity
  8
24
  6
Continuous
 62
     7
100
AcDbCircle
 10
28.036897
 20
69.606083
 30
0.0
 40
2.0
100
AcDbArc
 50
180.0
 51
270.0
  0
ARC
  5
7F
330
1D
100
AcDbEntity
  8
24
  6
Continuous
 62
     7
100
AcDbCircle
 10
63.336897
 20
69.606083
 30
0.0
 40
2.0
100
AcDbArc
 50
270.0
 51
0.0
  0
ARC
  5
80
330
1D
100
AcDbEntity
  8
24
  6
Continuous
 62
     7
100
AcDbCircle
 10
63.336897
 20
62.606083
 30
0.0
 40
2.0
100
AcDbArc
 50
0.0
 51
90.0
  0
ARC
  5
81
330
1D
100
AcDbEntity
  8
24
  6
Continuous
 62
     7
100
AcDbCircle
 10
57.165137
 20
62.606083
 30
0.0
 40
2.0
100
AcDbArc
 50
90.0
 51
163.042237
  0
ARC
  5
82
330
1D
100
AcDbEntity
  8
24
  6
Continuous
 62
     7
100
AcDbCircle
 10
57.165137
 20
69.606083
 30
0.0
 40
2.0
100
AcDbArc
 50
196.957763
 51
270.0
  0
ARC
  5
83
330
1D
100
AcDbEntity
  8
24
  6
Continuous
 62
     7
100
AcDbCircle
 10
54.157434
 20
74.606083
 30
0.0
 40
2.0
100
AcDbArc
 50
90.0
 51
225.099472
  0
ARC
  5
84
330
1D
100
AcDbEntity
  8
24
  6
Continuous
 62
     7
100
AcDbCircle
 10
54.157434
 20
57.606083
 30
0.0
 40
2.0
100
AcDbArc
 50
134.900528
 51
270.0
  0
ARC
  5
85
330
1D
100
AcDbEntity
  8
24
  6
Continuous
 62
     7
100
AcDbCircle
 10
63.336897
 20
57.606083
 30
0.0
 40
2.0
100
AcDbArc
 50
270.0
 51
0.0
  0
ARC
  5
86
330
1D
100
AcDbEntity
  8
24
  6
Continuous
 62
     7
100
AcDbCircle
 10
76.374094
 20
57.606083
 30
0.0
 40
2.0
100
AcDbArc
 50
180.0
 51
270.0
  0
ARC
  5
87
330
1D
100
AcDbEntity
  8
24
  6
Continuous
 62
     7
100
AcDbCircle
 10
80.373794
 20
57.606083
 30
0.0
 40
2.0
100
AcDbArc
 50
270.0
 51
0.0
  0
ARC
  5
88
330
1D
100
AcDbEntity
  8
24
  6
Continuous
 62
     7
100
AcDbCircle
 10
80.373794
 20
74.606083
 30
0.0
 40
2.0
100
AcDbArc
 50
0.0
 51
90.0
  0
ARC
  5
89
330
1D
100
AcDbEntity
  8
24
  6
Continuous
 62
     7
100
AcDbCircle
 10
76.374094
 20
74.606083
 30
0.0
 40
2.0
100
AcDbArc
 50
90.0
 51
180.0
  0
ARC
  5
8A
330
1D
100
AcDbEntity
  8
24
  6
Continuous
 62
     7
100
AcDbCircle
 10
63.336897
 20
74.606083
 30
0.0
 40
2.0
100
AcDbArc
 50
0.0
 51
90.0
  0
LINE
  5
8B
330
1D
100
AcDbEntity
  8
24
  6
Continuous
 62
     7
100
AcDbLine
 10
14.9997
 20
55.606083
 30
0.0
 11
11.0
 21
55.606083
 31
0.0
  0
LINE
  5
8C
330
1D
100
AcDbEntity
  8
24
  6
Continuous
 62
     7
100
AcDbLine
 10
16.9997
 20
74.606083
 30
0.0
 11
16.9997
 21
57.606083
 31
0.0
  0
LINE
  5
8D
330
1D
100
AcDbEntity
  8
24
  6
Continuous
 62
     7
100
AcDbLine
 10
11.0
 20
76.606083
 30
0.0
 11
14.9997
 21
76.606083
 31
0.0
  0
LINE
  5
8E
330
1D
100
AcDbEntity
  8
24
  6
Continuous
 62
     7
100
AcDbLine
 10
9.0
 20
57.606083
 30
0.0
 11
9.0
 21
74.606083
 31
0.0
  0
CIRCLE
  5
8F
330
1D
100
AcDbEntity
  8
24
  6
Continuous
 62
     7
100
AcDbCircle
 10
6.0
 20
76.106083
 30
0.0
 40
1.55
  0
CIRCLE
  5
90
330
1D
100
AcDbEntity
  8
24
  6
Continuous
 62
     7
100
AcDbCircle
 10
6.0
 20
56.106083
 30
0.0
 40
1.55
  0
LINE
  5
91
330
1D
100
AcDbEntity
  8
24
  6
Continuous
 62
     7
100
AcDbLine
 10
6.257359
 20
80.606083
 30
0.0
 11
3.0
 21
77.348724
 31
0.0
  0
LINE
  5
92
330
1D
100
AcDbEntity
  8
24
  6
Continuous
 62
     7
100
AcDbLine
 10
3.0
 20
77.348724
 30
0.0
 11
3.0
 21
54.863442
 31
0.0
  0
LINE
  5
93
330
1D
100
AcDbEntity
  8
24
  6
Continuous
 62
     7
100
AcDbLine
 10
3.0
 20
54.863442
 30
0.0
 11
6.257359
 21
51.606083
 31
0.0
  0
LINE
  5
94
330
1D
100
AcDbEntity
  8
24
  6
Continuous
 62
     7
100
AcDbLine
 10
22.036897
 20
80.606083
 30
0.0
 11
6.257359
 21
80.606083
 31
0.0
  0
LINE
  5
95
330
1D
100
AcDbEntity
  8
24
  6
Continuous
 62
     7
100
AcDbLine
 10
6.257359
 20
51.606083
 30
0.0
 11
22.036897
 21
51.606083
 31
0.0
  0
LINE
  5
96
330
1D
100
AcDbEntity
  8
24
  6
Continuous
 62
     7
100
AcDbLine
 10
37.21636
 20
55.606083
 30
0.0
 11
28.036897
 21
55.606083
 31
0.0
  0
LINE
  5
97
330
1D
100
AcDbEntity
  8
24
  6
Continuous
 62
     7
100
AcDbLine
 10
26.036897
 20
57.606083
 30
0.0
 11
26.036897
 21
62.606083
 31
0.0
  0
ARC
  5
98
330
1D
100
AcDbEntity
  8
24
  6
Continuous
 62
     7
100
AcDbCircle
 10
45.686897
 20
66.106083
 30
0.0
 40
10.0
100
AcDbArc
 50
196.957763
 51
225.099472
  0
LINE
  5
99
330
1D
100
AcDbEntity
  8
24
  6
Continuous
 62
     7
100
AcDbLine
 10
28.036897
 20
64.606083
 30
0.0
 11
34.208657
 21
64.606083
 31
0.0
  0
LINE
  5
9A
330
1D
100
AcDbEntity
  8
24
  6
Continuous
 62
     7
100
AcDbLine
 10
34.208657
 20
67.606083
 30
0.0
 11
28.036897
 21
67.606083
 31
0.0
  0
LINE
  5
9B
330
1D
100
AcDbEntity
  8
24
  6
Continuous
 62
     7
100
AcDbLine
 10
28.036897
 20
76.606083
 30
0.0
 11
37.21636
 21
76.606083
 31
0.0
  0
LINE
  5
9C
330
1D
100
AcDbEntity
  8
24
  6
Continuous
 62
     7
100
AcDbLine
 10
26.036897
 20
69.606083
 30
0.0
 11
26.036897
 21
74.606083
 31
0.0
  0
LINE
  5
9D
330
1D
100
AcDbEntity
  8
24
  6
Continuous
 62
     7
100
AcDbLine
 10
63.336897
 20
67.606083
 30
0.0
 11
57.165137
 21
67.606083
 31
0.0
  0
LINE
  5
9E
330
1D
100
AcDbEntity
  8
24
  6
Continuous
 62
     7
100
AcDbLine
 10
65.336897
 20
62.606083
 30
0.0
 11
65.336897
 21
57.606083
 31
0.0
  0
LINE
  5
9F
330
1D
100
AcDbEntity
  8
24
  6
Continuous
 62
     7
100
AcDbLine
 10
57.165137
 20
64.606083
 30
0.0
 11
63.336897
 21
64.606083
 31
0.0
  0
ARC
  5
A0
330
1D
100
AcDbEntity
  8
24
  6
Continuous
 62
     7
100
AcDbCircle
 10
45.686897
 20
66.106083
 30
0.0
 40
10.0
100
AcDbArc
 50
16.957763
 51
45.09947200000001
  0
LINE
  5
A1
330
1D
100
AcDbEntity
  8
24
  6
Continuous
 62
     7
100
AcDbLine
 10
54.157434
 20
76.606083
 30
0.0
 11
63.336897
 21
76.606083
 31
0.0
  0
LINE
  5
A2
330
1D
100
AcDbEntity
  8
24
  6
Continuous
 62
     7
100
AcDbLine
 10
63.336897
 20
55.606083
 30
0.0
 11
54.157434
 21
55.606083
 31
0.0
  0
LINE
  5
A3
330
1D
100
AcDbEntity
  8
24
  6
Continuous
 62
     7
100
AcDbLine
 10
65.336897
 20
74.606083
 30
0.0
 11
65.336897
 21
69.606083
 31
0.0
  0
ARC
  5
A4
330
1D
100
AcDbEntity
  8
24
  6
Continuous
 62
     7
100
AcDbCircle
 10
45.686897
 20
66.106083
 30
0.0
 40
10.0
100
AcDbArc
 50
134.900528
 51
163.042237
  0
ARC
  5
A5
330
1D
100
AcDbEntity
  8
24
  6
Continuous
 62
     7
100
AcDbCircle
 10
45.686897
 20
66.106083
 30
0.0
 40
10.0
100
AcDbArc
 50
314.900528
 51
343.042237
  0
CIRCLE
  5
A6
330
1D
100
AcDbEntity
  8
24
  6
Continuous
 62
     7
100
AcDbCircle
 10
45.686897
 20
66.106083
 30
0.0
 40
7.5
  0
LINE
  5
A7
330
1D
100
AcDbEntity
  8
24
  6
Continuous
 62
     7
100
AcDbLine
 10
80.373794
 20
55.606083
 30
0.0
 11
76.374094
 21
55.606083
 31
0.0
  0
LINE
  5
A8
330
1D
100
AcDbEntity
  8
24
  6
Continuous
 62
     7
100
AcDbLine
 10
82.373794
 20
74.606083
 30
0.0
 11
82.373794
 21
57.606083
 31
0.0
  0
LINE
  5
A9
330
1D
100
AcDbEntity
  8
24
  6
Continuous
 62
     7
100
AcDbLine
 10
76.374094
 20
76.606083
 30
0.0
 11
80.373794
 21
76.606083
 31
0.0
  0
LINE
  5
AA
330
1D
100
AcDbEntity
  8
24
  6
Continuous
 62
     7
100
AcDbLine
 10
74.374094
 20
57.606083
 30
0.0
 11
74.374094
 21
74.606083
 31
0.0
  0
CIRCLE
  5
AB
330
1D
100
AcDbEntity
  8
24
  6
Continuous
 62
     7
100
AcDbCircle
 10
85.373794
 20
76.106083
 30
0.0
 40
1.55
  0
CIRCLE
  5
AC
330
1D
100
AcDbEntity
  8
24
  6
Continuous
 62
     7
100
AcDbCircle
 10
85.373794
 20
56.106083
 30
0.0
 40
1.55
  0
LINE
  5
AD
330
1D
100
AcDbEntity
  8
24
  6
Continuous
 62
     7
100
AcDbLine
 10
88.373794
 20
77.348724
 30
0.0
 11
85.116434
 21
80.606083
 31
0.0
  0
LINE
  5
AE
330
1D
100
AcDbEntity
  8
24
  6
Continuous
 62
     7
100
AcDbLine
 10
88.373794
 20
54.863442
 30
0.0
 11
88.373794
 21
77.348724
 31
0.0
  0
LINE
  5
AF
330
1D
100
AcDbEntity
  8
24
  6
Continuous
 62
     7
100
AcDbLine
 10
85.116434
 20
51.606083
 30
0.0
 11
88.373794
 21
54.863442
 31
0.0
  0
LINE
  5
B0
330
1D
100
AcDbEntity
  8
24
  6
Continuous
 62
     7
100
AcDbLine
 10
69.336897
 20
80.606083
 30
0.0
 11
85.116434
 21
80.606083
 31
0.0
  0
LINE
  5
B1
330
1D
100
AcDbEntity
  8
24
  6
Continuous
 62
     7
100
AcDbLine
 10
85.116434
 20
51.606083
 30
0.0
 11
69.336897
 21
51.606083
 31
0.0
  0
LINE
  5
B2
330
1D
100
AcDbEntity
  8
1
  6
Continuous
 62
     7
100
AcDbLine
 10
19.418298
 20
81.606083
 30
0.0
 11
19.418298
 21
50.606083
 31
0.0
  0
LINE
  5
B3
330
1D
100
AcDbEntity
  8
1
  6
Continuous
 62
     7
100
AcDbLine
 10
19.418298
 20
50.606083
 30
0.0
 11
21.518298
 21
50.606083
 31
0.0
  0
LINE
  5
B4
330
1D
100
AcDbEntity
  8
1
  6
Continuous
 62
     7
100
AcDbLine
 10
21.518298
 20
50.606083
 30
0.0
 11
21.518298
 21
81.606083
 31
0.0
  0
LINE
  5
B5
330
1D
100
AcDbEntity
  8
1
  6
Continuous
 62
     7
100
AcDbLine
 10
21.518298
 20
81.606083
 30
0.0
 11
19.418298
 21
81.606083
 31
0.0
  0
LINE
  5
B6
330
1D
100
AcDbEntity
  8
1
  6
Continuous
 62
     7
100
AcDbLine
 10
71.955496
 20
81.606083
 30
0.0
 11
71.955496
 21
50.606083
 31
0.0
  0
LINE
  5
B7
330
1D
100
AcDbEntity
  8
1
  6
Continuous
 62
     7
100
AcDbLine
 10
71.955496
 20
50.606083
 30
0.0
 11
69.855496
 21
50.606083
 31
0.0
  0
LINE
  5
B8
330
1D
100
AcDbEntity
  8
1
  6
Continuous
 62
     7
100
AcDbLine
 10
69.855496
 20
50.606083
 30
0.0
 11
69.855496
 21
81.606083
 31
0.0
  0
LINE
  5
B9
330
1D
100
AcDbEntity
  8
1
  6
Continuous
 62
     7
100
AcDbLine
 10
69.855496
 20
81.606083
 30
0.0
 11
71.955496
 21
81.606083
 31
0.0
  0
LINE
  5
BA
330
1D
100
AcDbEntity
  8
1
  6
Continuous
 62
     7
100
AcDbLine
 10
21.036897
 20
83.109315
 30
0.0
 11
21.036897
 21
81.009315
 31
0.0
  0
LINE
  5
BB
330
1D
100
AcDbEntity
  8
1
  6
Continuous
 62
     7
100
AcDbLine
 10
21.036897
 20
81.009315
 30
0.0
 11
70.336897
 21
81.009315
 31
0.0
  0
LINE
  5
BC
330
1D
100
AcDbEntity
  8
1
  6
Continuous
 62
     7
100
AcDbLine
 10
70.336897
 20
81.009315
 30
0.0
 11
70.336897
 21
83.109315
 31
0.0
  0
LINE
  5
BD
330
1D
100
AcDbEntity
  8
1
  6
Continuous
 62
     7
100
AcDbLine
 10
70.336897
 20
83.109315
 30
0.0
 11
21.036897
 21
83.109315
 31
0.0
  0
LINE
  5
BE
330
1D
100
AcDbEntity
  8
1
  6
Continuous
 62
     7
100
AcDbLine
 10
21.036897
 20
49.102851
 30
0.0
 11
21.036897
 21
51.202851
 31
0.0
  0
LINE
  5
BF
330
1D
100
AcDbEntity
  8
1
  6
Continuous
 62
     7
100
AcDbLine
 10
21.036897
 20
51.202851
 30
0.0
 11
70.336897
 21
51.202851
 31
0.0
  0
LINE
  5
C0
330
1D
100
AcDbEntity
  8
1
  6
Continuous
 62
     7
100
AcDbLine
 10
70.336897
 20
51.202851
 30
0.0
 11
70.336897
 21
49.102851
 31
0.0
  0
LINE
  5
C1
330
1D
100
AcDbEntity
  8
1
  6
Continuous
 62
     7
100
AcDbLine
 10
70.336897
 20
49.102851
 30
0.0
 11
21.036897
 21
49.102851
 31
0.0
  0
LINE
  5
C2
330
1D
100
AcDbEntity
  8
1
  6
Continuous
 62
     7
100
AcDbLine
 10
47.418352
 20
29.5
 30
0.0
 11
47.418352
 21
2.0
 31
0.0
  0
LINE
  5
C3
330
1D
100
AcDbEntity
  8
1
  6
Continuous
 62
     7
100
AcDbLine
 10
47.418352
 20
2.0
 30
0.0
 11
49.518352
 21
2.0
 31
0.0
  0
LINE
  5
C4
330
1D
100
AcDbEntity
  8
1
  6
Continuous
 62
     7
100
AcDbLine
 10
49.518352
 20
2.0
 30
0.0
 11
49.518352
 21
29.5
 31
0.0
  0
LINE
  5
C5
330
1D
100
AcDbEntity
  8
1
  6
Continuous
 62
     7
100
AcDbLine
 10
49.518352
 20
29.5
 30
0.0
 11
47.418352
 21
29.5
 31
0.0
  0
LINE
  5
C6
330
1D
100
AcDbEntity
  8
1
  6
Continuous
 62
     7
100
AcDbLine
 10
83.055156
 20
29.5
 30
0.0
 11
83.055156
 21
2.0
 31
0.0
  0
LINE
  5
C7
330
1D
100
AcDbEntity
  8
1
  6
Continuous
 62
     7
100
AcDbLine
 10
83.055156
 20
2.0
 30
0.0
 11
85.155156
 21
2.0
 31
0.0
  0
LINE
  5
C8
330
1D
100
AcDbEntity
  8
1
  6
Continuous
 62
     7
100
AcDbLine
 10
85.155156
 20
2.0
 30
0.0
 11
85.155156
 21
29.5
 31
0.0
  0
LINE
  5
C9
330
1D
100
AcDbEntity
  8
1
  6
Continuous
 62
     7
100
AcDbLine
 10
85.155156
 20
29.5
 30
0.0
 11
83.055156
 21
29.5
 31
0.0
  0
ARC
  5
CA
330
1D
100
AcDbEntity
  8
26
  6
Continuous
 62
     7
100
AcDbCircle
 10
75.036783
 20
89.462166
 30
0.0
 40
2.0
100
AcDbArc
 50
180.0
 51
270.0
  0
ARC
  5
CB
330
1D
100
AcDbEntity
  8
26
  6
Continuous
 62
     7
100
AcDbCircle
 10
13.036783
 20
89.462166
 30
0.0
 40
2.0
100
AcDbArc
 50
270.0
 51
0.0
  0
ARC
  5
CC
330
1D
100
AcDbEntity
  8
26
  6
Continuous
 62
     7
100
AcDbCircle
 10
71.036783
 20
92.462166
 30
0.0
 40
2.0
100
AcDbArc
 50
0.0
 51
90.0
  0
ARC
  5
CD
330
1D
100
AcDbEntity
  8
26
  6
Continuous
 62
     7
100
AcDbCircle
 10
17.036783
 20
92.462166
 30
0.0
 40
2.0
100
AcDbArc
 50
90.0
 51
180.0
  0
ARC
  5
CE
330
1D
100
AcDbEntity
  8
26
  6
Continuous
 62
     7
100
AcDbCircle
 10
17.036783
 20
120.462166
 30
0.0
 40
2.0
100
AcDbArc
 50
90.0
 51
180.0
  0
ARC
  5
CF
330
1D
100
AcDbEntity
  8
26
  6
Continuous
 62
     7
100
AcDbCircle
 10
17.036783
 20
106.462166
 30
0.0
 40
2.0
100
AcDbArc
 50
180.0
 51
270.0
  0
ARC
  5
D0
330
1D
100
AcDbEntity
  8
26
  6
Continuous
 62
     7
100
AcDbCircle
 10
71.036783
 20
106.462166
 30
0.0
 40
2.0
100
AcDbArc
 50
270.0
 51
0.0
  0
ARC
  5
D1
330
1D
100
AcDbEntity
  8
26
  6
Continuous
 62
     7
100
AcDbCircle
 10
71.036783
 20
120.462166
 30
0.0
 40
2.0
100
AcDbArc
 50
0.0
 51
90.0
  0
LINE
  5
D2
330
1D
100
AcDbEntity
  8
26
  6
Continuous
 62
     7
100
AcDbLine
 10
17.036783
 20
94.462166
 30
0.0
 11
71.036783
 21
94.462166
 31
0.0
  0
LINE
  5
D3
330
1D
100
AcDbEntity
  8
26
  6
Continuous
 62
     7
100
AcDbLine
 10
15.036783
 20
89.462166
 30
0.0
 11
15.036783
 21
92.462166
 31
0.0
  0
LINE
  5
D4
330
1D
100
AcDbEntity
  8
26
  6
Continuous
 62
     7
100
AcDbLine
 10
15.036783
 20
106.462166
 30
0.0
 11
15.036783
 21
120.462166
 31
0.0
  0
LINE
  5
D5
330
1D
100
AcDbEntity
  8
26
  6
Continuous
 62
     7
100
AcDbLine
 10
71.036783
 20
104.462166
 30
0.0
 11
17.036783
 21
104.462166
 31
0.0
  0
LINE
  5
D6
330
1D
100
AcDbEntity
  8
26
  6
Continuous
 62
     7
100
AcDbLine
 10
73.036783
 20
120.462166
 30
0.0
 11
73.036783
 21
106.462166
 31
0.0
  0
LINE
  5
D7
330
1D
100
AcDbEntity
  8
26
  6
Continuous
 62
     7
100
AcDbLine
 10
17.036783
 20
122.462166
 30
0.0
 11
71.036783
 21
122.462166
 31
0.0
  0
LINE
  5
D8
330
1D
100
AcDbEntity
  8
26
  6
Continuous
 62
     7
100
AcDbLine
 10
73.036783
 20
92.462166
 30
0.0
 11
73.036783
 21
89.462166
 31
0.0
  0
LINE
  5
D9
330
1D
100
AcDbEntity
  8
26
  6
Continuous
 62
     7
100
AcDbLine
 10
9.5
 20
143.462166
 30
0.0
 11
9.5
 21
153.462166
 31
0.0
  0
LINE
  5
DA
330
1D
100
AcDbEntity
  8
26
  6
Continuous
 62
     7
100
AcDbLine
 10
78.573565
 20
153.462166
 30
0.0
 11
78.573565
 21
143.462166
 31
0.0
  0
LINE
  5
DB
330
1D
100
AcDbEntity
  8
26
  6
Continuous
 62
     7
100
AcDbLine
 10
78.573565
 20
143.462166
 30
0.0
 11
9.5
 21
143.462166
 31
0.0
  0
LINE
  5
DC
330
1D
100
AcDbEntity
  8
26
  6
Continuous
 62
     7
100
AcDbLine
 10
82.073565
 20
153.462166
 30
0.0
 11
78.573565
 21
153.462166
 31
0.0
  0
CIRCLE
  5
DD
330
1D
100
AcDbEntity
  8
26
  6
Continuous
 62
     7
100
AcDbCircle
 10
82.073565
 20
90.462166
 30
0.0
 40
1.2
  0
LINE
  5
DE
330
1D
100
AcDbEntity
  8
26
  6
Continuous
 62
     7
100
AcDbLine
 10
84.798462
 20
91.717132
 30
0.0
 11
83.073665
 21
95.462166
 31
0.0
  0
ARC
  5
DF
330
1D
100
AcDbEntity
  8
26
  6
Continuous
 62
     7
100
AcDbCircle
 10
82.073565
 20
90.462166
 30
0.0
 40
3.0
100
AcDbArc
 50
270.0
 51
24.728699
  0
LINE
  5
E0
330
1D
100
AcDbEntity
  8
26
  6
Continuous
 62
     7
100
AcDbLine
 10
83.073665
 20
95.462166
 30
0.0
 11
83.073665
 21
145.462166
 31
0.0
  0
LINE
  5
E1
330
1D
100
AcDbEntity
  8
26
  6
Continuous
 62
     7
100
AcDbLine
 10
83.073665
 20
145.462166
 30
0.0
 11
84.798462
 21
149.2072
 31
0.0
  0
ARC
  5
E2
330
1D
100
AcDbEntity
  8
26
  6
Continuous
 62
     7
100
AcDbCircle
 10
82.073565
 20
150.462166
 30
0.0
 40
3.0
100
AcDbArc
 50
335.271301
 51
90.0
  0
CIRCLE
  5
E3
330
1D
100
AcDbEntity
  8
26
  6
Continuous
 62
     7
100
AcDbCircle
 10
82.073565
 20
150.462166
 30
0.0
 40
1.2
  0
LINE
  5
E4
330
1D
100
AcDbEntity
  8
26
  6
Continuous
 62
     7
100
AcDbLine
 10
75.036783
 20
87.462166
 30
0.0
 11
82.073565
 21
87.462166
 31
0.0
  0
LINE
  5
E5
330
1D
100
AcDbEntity
  8
26
  6
Continuous
 62
     7
100
AcDbLine
 10
6.0
 20
87.462166
 30
0.0
 11
13.036783
 21
87.462166
 31
0.0
  0
CIRCLE
  5
E6
330
1D
100
AcDbEntity
  8
26
  6
Continuous
 62
     7
100
AcDbCircle
 10
6.0
 20
90.462166
 30
0.0
 40
1.2
  0
LINE
  5
E7
330
1D
100
AcDbEntity
  8
26
  6
Continuous
 62
     7
100
AcDbLine
 10
4.9999
 20
95.462166
 30
0.0
 11
3.275104
 21
91.717132
 31
0.0
  0
ARC
  5
E8
330
1D
100
AcDbEntity
  8
26
  6
Continuous
 62
     7
100
AcDbCircle
 10
6.0
 20
90.462166
 30
0.0
 40
3.0
100
AcDbArc
 50
155.271301
 51
270.0
  0
LINE
  5
E9
330
1D
100
AcDbEntity
  8
26
  6
Continuous
 62
     7
100
AcDbLine
 10
4.9999
 20
145.462166
 30
0.0
 11
4.9999
 21
95.462166
 31
0.0
  0
LINE
  5
EA
330
1D
100
AcDbEntity
  8
26
  6
Continuous
 62
     7
100
AcDbLine
 10
3.275104
 20
149.2072
 30
0.0
 11
4.9999
 21
145.462166
 31
0.0
  0
ARC
  5
EB
330
1D
100
AcDbEntity
  8
26
  6
Continuous
 62
     7
100
AcDbCircle
 10
6.0
 20
150.462166
 30
0.0
 40
3.0
100
AcDbArc
 50
90.0
 51
204.728699
  0
CIRCLE
  5
EC
330
1D
100
AcDbEntity
  8
26
  6
Continuous
 62
     7
100
AcDbCircle
 10
6.0
 20
150.462166
 30
0.0
 40
1.2
  0
LINE
  5
ED
330
1D
100
AcDbEntity
  8
26
  6
Continuous
 62
     7
100
AcDbLine
 10
6.0
 20
153.462166
 30
0.0
 11
9.5
 21
153.462166
 31
0.0
  0
LINE
  5
EE
330
1D
100
AcDbEntity
  8
1
  6
Continuous
 62
     7
100
AcDbLine
 10
8.418341
 20
144.462166
 30
0.0
 11
8.418341
 21
86.462166
 31
0.0
  0
LINE
  5
EF
330
1D
100
AcDbEntity
  8
1
  6
Continuous
 62
     7
100
AcDbLine
 10
8.418341
 20
86.462166
 30
0.0
 11
10.518341
 21
86.462166
 31
0.0
  0
LINE
  5
F0
330
1D
100
AcDbEntity
  8
1
  6
Continuous
 62
     7
100
AcDbLine
 10
10.518341
 20
86.462166
 30
0.0
 11
10.518341
 21
144.462166
 31
0.0
  0
LINE
  5
F1
330
1D
100
AcDbEntity
  8
1
  6
Continuous
 62
     7
100
AcDbLine
 10
10.518341
 20
144.462166
 30
0.0
 11
8.418341
 21
144.462166
 31
0.0
  0
LINE
  5
F2
330
1D
100
AcDbEntity
  8
1
  6
Continuous
 62
     7
100
AcDbLine
 10
79.655224
 20
144.462166
 30
0.0
 11
79.655224
 21
86.462166
 31
0.0
  0
LINE
  5
F3
330
1D
100
AcDbEntity
  8
1
  6
Continuous
 62
     7
100
AcDbLine
 10
79.655224
 20
86.462166
 30
0.0
 11
77.555224
 21
86.462166
 31
0.0
  0
LINE
  5
F4
330
1D
100
AcDbEntity
  8
1
  6
Continuous
 62
     7
100
AcDbLine
 10
77.555224
 20
86.462166
 30
0.0
 11
77.555224
 21
144.462166
 31
0.0
  0
LINE
  5
F5
330
1D
100
AcDbEntity
  8
1
  6
Continuous
 62
     7
100
AcDbLine
 10
77.555224
 20
144.462166
 30
0.0
 11
79.655224
 21
144.462166
 31
0.0
  0
LWPOLYLINE
  5
145
330
1D
100
AcDbEntity
  8
0
100
AcDbPolyline
 90
        4
 70
     1
 43
0.0
 10
0.0
 20
0.0
 10
0.0
 20
299.9999999999998
 10
200.0
 20
299.9999999999998
 10
200.0
 20
0.0
  0
ENDSEC
  0
SECTION
  2
OBJECTS
  0
DICTIONARY
  5
C
330
0
100
AcDbDictionary
281
     1
  3
ACAD_DETAILVIEWSTYLE
350
143
  3
ACAD_GROUP
350
D
  3
ACAD_LAYOUT
350
1A
  3
ACAD_MLINESTYLE
350
17
  3
ACAD_PLOTSETTINGS
350
19
  3
ACAD_PLOTSTYLENAME
350
E
  3
ACAD_SCALELIST
350
F6
  3
ACAD_SECTIONVIEWSTYLE
350
144
  3
AcDbVariableDictionary
350
13E
  3
APPDATA
350
13D
  3
DWGPROPS
350
147
  0
DICTIONARY
  5
143
102
{ACAD_REACTORS
330
C
102
}
330
C
100
AcDbDictionary
281
     1
  0
DICTIONARY
  5
D
102
{ACAD_REACTORS
330
C
102
}
330
C
100
AcDbDictionary
281
     1
  0
DICTIONARY
  5
1A
102
{ACAD_REACTORS
330
C
102
}
330
C
100
AcDbDictionary
281
     1
  3
Model
350
1E
  3
シート 1
350
1C
  0
DICTIONARY
  5
17
102
{ACAD_REACTORS
330
C
102
}
330
C
100
AcDbDictionary
281
     1
  3
Standard
350
18
  0
DICTIONARY
  5
19
102
{ACAD_REACTORS
330
C
102
}
330
C
100
AcDbDictionary
281
     1
  0
ACDBDICTIONARYWDFLT
  5
E
102
{ACAD_REACTORS
330
C
102
}
330
C
100
AcDbDictionary
281
     1
  3
Normal
350
F
100
AcDbDictionaryWithDefault
340
F
  0
DICTIONARY
  5
F6
102
{ACAD_REACTORS
330
C
102
}
330
C
100
AcDbDictionary
281
     1
  3
A0
350
F7
  3
A1
350
F8
  3
A2
350
F9
  3
A3
350
FA
  3
A4
350
FB
  3
A5
350
FC
  3
A6
350
FD
  3
A7
350
FE
  3
A8
350
FF
  3
A9
350
100
  3
B0
350
101
  3
B1
350
102
  3
B2
350
103
  3
B3
350
104
  3
B4
350
105
  3
B5
350
106
  3
B6
350
107
  3
B7
350
108
  3
B8
350
109
  3
B9
350
10A
  3
C0
350
10B
  3
C1
350
10C
  3
C2
350
10D
  3
C3
350
10E
  3
C4
350
10F
  3
C5
350
110
  3
C6
350
111
  3
C7
350
112
  3
C8
350
113
  3
C9
350
114
  3
D0
350
115
  3
D1
350
116
  3
D2
350
117
  0
DICTIONARY
  5
144
102
{ACAD_REACTORS
330
C
102
}
330
C
100
AcDbDictionary
281
     1
  0
DICTIONARY
  5
13E
102
{ACAD_REACTORS
330
C
102
}
330
C
100
AcDbDictionary
281
     1
  0
DICTIONARY
  5
13D
102
{ACAD_REACTORS
330
C
102
}
330
C
100
AcDbDictionary
281
     1
  0
XRECORD
  5
147
102
{ACAD_REACTORS
330
C
102
}
330
C
100
AcDbXrecord
280
     1
  1
DWGPROPS COOKIE
  2

  3

  4

  6

  7

  8
haya
  9

300
=
301
=
302
=
303
=
304
=
305
=
306
=
307
=
308
=
309
=
 40
0.0
 41
2447892.625
 42
2458246.150667824
  1

 90
        0
  0
LAYOUT
  5
1E
102
{ACAD_REACTORS
330
1A
102
}
330
1A
100
AcDbPlotSettings
  1

  2
none_device
  4
Letter_(8.50_x_11.00_Inches)
  6

 40
6.35
 41
6.35
 42
6.35
 43
6.35
 44
215.9
 45
279.4
 46
0.0
 47
0.0
 48
0.0
 49
0.0
140
0.0
141
0.0
142
1.0
143
1.0
 70
  1712
 72
     0
 73
     0
 74
     0
  7

 75
     0
147
1.0
148
0.0
149
0.0
100
AcDbLayout
  1
Model
 70
     3
 71
     0
 10
0.0
 20
0.0
 11
12.0
 21
9.0
 12
0.0
 22
0.0
 32
0.0
 14
-0.0000000000000036
 24
0.0
 34
0.0
 15
200.0
 25
299.9999999999998
 35
0.0
146
0.0
 13
0.0
 23
0.0
 33
0.0
 16
1.0
 26
0.0
 36
0.0
 17
0.0
 27
1.0
 37
0.0
 76
     0
330
1D
331
2D
  0
LAYOUT
  5
1C
102
{ACAD_REACTORS
330
1A
102
}
330
1A
100
AcDbPlotSettings
  1

  2
none_device
  4

  6

 40
0.0
 41
0.0
 42
0.0
 43
0.0
 44
0.0
 45
0.0
 46
0.0
 47
0.0
 48
0.0
 49
0.0
140
0.0
141
0.0
142
1.0
143
1.0
 70
   688
 72
     0
 73
     0
 74
     5
  7

 75
    16
147
1.0
148
0.0
149
0.0
100
AcDbLayout
  1
シート 1
 70
     1
 71
     1
 10
0.0
 20
0.0
 11
0.0
 21
0.0
 12
0.0
 22
0.0
 32
0.0
 14
0.0
 24
0.0
 34
0.0
 15
594.0
 25
420.0
 35
0.0
146
0.0
 13
0.0
 23
0.0
 33
0.0
 16
1.0
 26
0.0
 36
0.0
 17
0.0
 27
1.0
 37
0.0
 76
     0
330
1B
  0
MLINESTYLE
  5
18
102
{ACAD_REACTORS
330
17
102
}
330
17
100
AcDbMlineStyle
  2
Standard
 70
     0
  3

 62
   256
 51
90.0
 52
90.0
 71
     2
 49
0.5
 62
   256
  6
BYLAYER
 49
-0.5
 62
   256
  6
BYLAYER
  0
ACDBPLACEHOLDER
  5
F
102
{ACAD_REACTORS
330
E
102
}
330
E
  0
SCALE
  5
F7
102
{ACAD_REACTORS
330
F6
102
}
330
F6
100
AcDbScale
 70
     0
300
1:1
140
1.0
141
1.0
290
     1
  0
SCALE
  5
F8
102
{ACAD_REACTORS
330
F6
102
}
330
F6
100
AcDbScale
 70
     0
300
1:2
140
1.0
141
2.0
290
     0
  0
SCALE
  5
F9
102
{ACAD_REACTORS
330
F6
102
}
330
F6
100
AcDbScale
 70
     0
300
1:4
140
1.0
141
4.0
290
     0
  0
SCALE
  5
FA
102
{ACAD_REACTORS
330
F6
102
}
330
F6
100
AcDbScale
 70
     0
300
1:5
140
1.0
141
5.0
290
     0
  0
SCALE
  5
FB
102
{ACAD_REACTORS
330
F6
102
}
330
F6
100
AcDbScale
 70
     0
300
1:8
140
1.0
141
8.0
290
     0
  0
SCALE
  5
FC
102
{ACAD_REACTORS
330
F6
102
}
330
F6
100
AcDbScale
 70
     0
300
1:10
140
1.0
141
10.0
290
     0
  0
SCALE
  5
FD
102
{ACAD_REACTORS
330
F6
102
}
330
F6
100
AcDbScale
 70
     0
300
1:16
140
1.0
141
16.0
290
     0
  0
SCALE
  5
FE
102
{ACAD_REACTORS
330
F6
102
}
330
F6
100
AcDbScale
 70
     0
300
1:20
140
1.0
141
20.0
290
     0
  0
SCALE
  5
FF
102
{ACAD_REACTORS
330
F6
102
}
330
F6
100
AcDbScale
 70
     0
300
1:30
140
1.0
141
30.0
290
     0
  0
SCALE
  5
100
102
{ACAD_REACTORS
330
F6
102
}
330
F6
100
AcDbScale
 70
     0
300
1:40
140
1.0
141
40.0
290
     0
  0
SCALE
  5
101
102
{ACAD_REACTORS
330
F6
102
}
330
F6
100
AcDbScale
 70
     0
300
1:50
140
1.0
141
50.0
290
     0
  0
SCALE
  5
102
102
{ACAD_REACTORS
330
F6
102
}
330
F6
100
AcDbScale
 70
     0
300
1:100
140
1.0
141
100.0
290
     0
  0
SCALE
  5
103
102
{ACAD_REACTORS
330
F6
102
}
330
F6
100
AcDbScale
 70
     0
300
2:1
140
2.0
141
1.0
290
     0
  0
SCALE
  5
104
102
{ACAD_REACTORS
330
F6
102
}
330
F6
100
AcDbScale
 70
     0
300
4:1
140
4.0
141
1.0
290
     0
  0
SCALE
  5
105
102
{ACAD_REACTORS
330
F6
102
}
330
F6
100
AcDbScale
 70
     0
300
8:1
140
8.0
141
1.0
290
     0
  0
SCALE
  5
106
102
{ACAD_REACTORS
330
F6
102
}
330
F6
100
AcDbScale
 70
     0
300
10:1
140
10.0
141
1.0
290
     0
  0
SCALE
  5
107
102
{ACAD_REACTORS
330
F6
102
}
330
F6
100
AcDbScale
 70
     0
300
100:1
140
100.0
141
1.0
290
     0
  0
SCALE
  5
108
102
{ACAD_REACTORS
330
F6
102
}
330
F6
100
AcDbScale
 70
     0
300
1/128" = 1'-0"
140
0.0078125
141
12.0
290
     0
  0
SCALE
  5
109
102
{ACAD_REACTORS
330
F6
102
}
330
F6
100
AcDbScale
 70
     0
300
1/64" = 1'-0"
140
0.015625
141
12.0
290
     0
  0
SCALE
  5
10A
102
{ACAD_REACTORS
330
F6
102
}
330
F6
100
AcDbScale
 70
     0
300
1/32" = 1'-0"
140
0.03125
141
12.0
290
     0
  0
SCALE
  5
10B
102
{ACAD_REACTORS
330
F6
102
}
330
F6
100
AcDbScale
 70
     0
300
1/16" = 1'-0"
140
0.0625
141
12.0
290
     0
  0
SCALE
  5
10C
102
{ACAD_REACTORS
330
F6
102
}
330
F6
100
AcDbScale
 70
     0
300
3/32" = 1'-0"
140
0.09375
141
12.0
290
     0
  0
SCALE
  5
10D
102
{ACAD_REACTORS
330
F6
102
}
330
F6
100
AcDbScale
 70
     0
300
1/8" = 1'-0"
140
0.125
141
12.0
290
     0
  0
SCALE
  5
10E
102
{ACAD_REACTORS
330
F6
102
}
330
F6
100
AcDbScale
 70
     0
300
3/16" = 1'-0"
140
0.1875
141
12.0
290
     0
  0
SCALE
  5
10F
102
{ACAD_REACTORS
330
F6
102
}
330
F6
100
AcDbScale
 70
     0
300
1/4" = 1'-0"
140
0.25
141
12.0
290
     0
  0
SCALE
  5
110
102
{ACAD_REACTORS
330
F6
102
}
330
F6
100
AcDbScale
 70
     0
300
3/8" = 1'-0"
140
0.375
141
12.0
290
     0
  0
SCALE
  5
111
102
{ACAD_REACTORS
330
F6
102
}
330
F6
100
AcDbScale
 70
     0
300
1/2" = 1'-0"
140
0.5
141
12.0
290
     0
  0
SCALE
  5
112
102
{ACAD_REACTORS
330
F6
102
}
330
F6
100
AcDbScale
 70
     0
300
3/4" = 1'-0"
140
0.75
141
12.0
290
     0
  0
SCALE
  5
113
102
{ACAD_REACTORS
330
F6
102
}
330
F6
100
AcDbScale
 70
     0
300
1" = 1'-0"
140
1.0
141
12.0
290
     0
  0
SCALE
  5
114
102
{ACAD_REACTORS
330
F6
102
}
330
F6
100
AcDbScale
 70
     0
300
1-1/2" = 1'-0"
140
1.5
141
12.0
290
     0
  0
SCALE
  5
115
102
{ACAD_REACTORS
330
F6
102
}
330
F6
100
AcDbScale
 70
     0
300
3" = 1'-0"
140
3.0
141
12.0
290
     0
  0
SCALE
  5
116
102
{ACAD_REACTORS
330
F6
102
}
330
F6
100
AcDbScale
 70
     0
300
6" = 1'-0"
140
6.0
141
12.0
290
     0
  0
SCALE
  5
117
102
{ACAD_REACTORS
330
F6
102
}
330
F6
100
AcDbScale
 70
     0
300
1'-0" = 1'-0"
140
12.0
141
12.0
290
     0
  0
ENDSEC
  0
EOF
