  0
SECTION
  2
HEADER
  9
$ACADVER
  1
AC1015
  9
$ACADMAINTVER
 70
     6
  9
$DWGCODEPAGE
  3
ANSI_932
  9
$INSBASE
 10
0.0
 20
0.0
 30
0.0
  9
$EXTMIN
 10
-0.0000000000000036
 20
0.0
 30
0.0
  9
$EXTMAX
 10
200.0
 20
299.9999999999998
 30
0.0
  9
$LIMMIN
 10
0.0
 20
0.0
  9
$LIMMAX
 10
594.0
 20
420.0
  9
$ORTHOMODE
 70
     0
  9
$REGENMODE
 70
     1
  9
$FILLMODE
 70
     1
  9
$QTEXTMODE
 70
     0
  9
$MIRRTEXT
 70
     1
  9
$LTSCALE
 40
0.25
  9
$ATTMODE
 70
     1
  9
$TEXTSIZE
 40
0.2
  9
$TRACEWID
 40
0.05
  9
$TEXTSTYLE
  7
STANDARD
  9
$CLAYER
  8
0
  9
$CELTYPE
  6
ByLayer
  9
$CECOLOR
 62
   256
  9
$CELTSCALE
 40
1.0
  9
$DISPSILH
 70
     0
  9
$DIMSCALE
 40
1.0
  9
$DIMASZ
 40
1.0
  9
$DIMEXO
 40
0.0
  9
$DIMDLI
 40
0.5
  9
$DIMRND
 40
0.0
  9
$DIMDLE
 40
0.0
  9
$DIMEXE
 40
0.0
  9
$DIMTP
 40
0.0
  9
$DIMTM
 40
0.0
  9
$DIMTXT
 40
4.0
  9
$DIMCEN
 40
0.0
  9
$DIMTSZ
 40
0.0
  9
$DIMTOL
 70
     0
  9
$DIMLIM
 70
     0
  9
$DIMTIH
 70
     1
  9
$DIMTOH
 70
     1
  9
$DIMSE1
 70
     0
  9
$DIMSE2
 70
     0
  9
$DIMTAD
 70
     0
  9
$DIMZIN
 70
     0
  9
$DIMBLK
  1

  9
$DIMASO
 70
     0
  9
$DIMSHO
 70
     0
  9
$DIMPOST
  1

  9
$DIMAPOST
  1

  9
$DIMALT
 70
     0
  9
$DIMALTD
 70
     0
  9
$DIMALTF
 40
25.4
  9
$DIMLFAC
 40
1.0
  9
$DIMTOFL
 70
     0
  9
$DIMTVP
 40
0.0
  9
$DIMTIX
 70
     0
  9
$DIMSOXD
 70
     0
  9
$DIMSAH
 70
     0
  9
$DIMBLK1
  1

  9
$DIMBLK2
  1

  9
$DIMSTYLE
  2
Standard
  9
$DIMCLRD
 70
     0
  9
$DIMCLRE
 70
     0
  9
$DIMCLRT
 70
     0
  9
$DIMTFAC
 40
1.0
  9
$DIMGAP
 40
0.09
  9
$DIMJUST
 70
     0
  9
$DIMSD1
 70
     0
  9
$DIMSD2
 70
     0
  9
$DIMTOLJ
 70
     1
  9
$DIMTZIN
 70
     0
  9
$DIMALTZ
 70
     0
  9
$DIMALTTZ
 70
     0
  9
$DIMUPT
 70
     0
  9
$DIMDEC
 70
     2
  9
$DIMTDEC
 70
     2
  9
$DIMALTU
 70
     2
  9
$DIMALTTD
 70
     2
  9
$DIMTXSTY
  7
STANDARD
  9
$DIMAUNIT
 70
     0
  9
$DIMADEC
 70
     0
  9
$DIMALTRND
 40
0.0
  9
$DIMAZIN
 70
     0
  9
$DIMDSEP
 70
    46
  9
$DIMATFIT
 70
     3
  9
$DIMFRAC
 70
     0
  9
$DIMLDRBLK
  1

  9
$DIMLUNIT
 70
     2
  9
$DIMLWD
 70
    -2
  9
$DIMLWE
 70
    -2
  9
$DIMTMOVE
 70
     2
  9
$LUNITS
 70
     2
  9
$LUPREC
 70
     2
  9
$SKETCHINC
 40
0.0
  9
$FILLETRAD
 40
0.0
  9
$AUNITS
 70
     1
  9
$AUPREC
 70
     2
  9
$MENU
  1
ACAD
  9
$ELEVATION
 40
0.0
  9
$PELEVATION
 40
0.0
  9
$THICKNESS
 40
0.0
  9
$LIMCHECK
 70
     1
  9
$CHAMFERA
 40
0.0
  9
$CHAMFERB
 40
0.0
  9
$CHAMFERC
 40
0.0
  9
$CHAMFERD
 40
0.0
  9
$SKPOLY
 70
     0
  9
$TDCREATE
 40
2447893.0
  9
$TDUCREATE
 40
2447892.625
  9
$TDUPDATE
 40
2458196.364677743
  9
$TDUUPDATE
 40
2458195.989677743
  9
$TDINDWG
 40
0.0100783912
  9
$TDUSRTIMER
 40
0.000079294
  9
$USRTIMER
 70
     1
  9
$ANGBASE
 50
0.0
  9
$ANGDIR
 70
     0
  9
$PDMODE
 70
     0
  9
$PDSIZE
 40
0.0
  9
$PLINEWID
 40
0.0
  9
$SPLFRAME
 70
     0
  9
$SPLINETYPE
 70
     6
  9
$SPLINESEGS
 70
     8
  9
$HANDSEED
  5
97A
  9
$SURFTAB1
 70
     6
  9
$SURFTAB2
 70
     6
  9
$SURFTYPE
 70
     6
  9
$SURFU
 70
     6
  9
$SURFV
 70
     6
  9
$UCSBASE
  2

  9
$UCSNAME
  2

  9
$UCSORG
 10
0.0
 20
0.0
 30
0.0
  9
$UCSXDIR
 10
1.0
 20
0.0
 30
0.0
  9
$UCSYDIR
 10
0.0
 20
1.0
 30
0.0
  9
$UCSORTHOREF
  2

  9
$UCSORTHOVIEW
 70
     0
  9
$UCSORGTOP
 10
0.0
 20
0.0
 30
0.0
  9
$UCSORGBOTTOM
 10
0.0
 20
0.0
 30
0.0
  9
$UCSORGLEFT
 10
0.0
 20
0.0
 30
0.0
  9
$UCSORGRIGHT
 10
0.0
 20
0.0
 30
0.0
  9
$UCSORGFRONT
 10
0.0
 20
0.0
 30
0.0
  9
$UCSORGBACK
 10
0.0
 20
0.0
 30
0.0
  9
$PUCSBASE
  2

  9
$PUCSNAME
  2

  9
$PUCSORG
 10
0.0
 20
0.0
 30
0.0
  9
$PUCSXDIR
 10
1.0
 20
0.0
 30
0.0
  9
$PUCSYDIR
 10
0.0
 20
1.0
 30
0.0
  9
$PUCSORTHOREF
  2

  9
$PUCSORTHOVIEW
 70
     0
  9
$PUCSORGTOP
 10
0.0
 20
0.0
 30
0.0
  9
$PUCSORGBOTTOM
 10
0.0
 20
0.0
 30
0.0
  9
$PUCSORGLEFT
 10
0.0
 20
0.0
 30
0.0
  9
$PUCSORGRIGHT
 10
0.0
 20
0.0
 30
0.0
  9
$PUCSORGFRONT
 10
0.0
 20
0.0
 30
0.0
  9
$PUCSORGBACK
 10
0.0
 20
0.0
 30
0.0
  9
$USERI1
 70
     0
  9
$USERI2
 70
     0
  9
$USERI3
 70
     0
  9
$USERI4
 70
     0
  9
$USERI5
 70
     0
  9
$USERR1
 40
0.0
  9
$USERR2
 40
0.0
  9
$USERR3
 40
0.0
  9
$USERR4
 40
0.0
  9
$USERR5
 40
0.0
  9
$WORLDVIEW
 70
     1
  9
$SHADEDGE
 70
     3
  9
$SHADEDIF
 70
    70
  9
$TILEMODE
 70
     1
  9
$MAXACTVP
 70
    64
  9
$PINSBASE
 10
0.0
 20
0.0
 30
0.0
  9
$PLIMCHECK
 70
     0
  9
$PEXTMIN
 10
0.0
 20
0.0
 30
0.0
  9
$PEXTMAX
 10
594.0
 20
420.0
 30
0.0
  9
$PLIMMIN
 10
0.0
 20
0.0
  9
$PLIMMAX
 10
0.0
 20
0.0
  9
$UNITMODE
 70
     0
  9
$VISRETAIN
 70
     1
  9
$PLINEGEN
 70
     0
  9
$PSLTSCALE
 70
     1
  9
$TREEDEPTH
 70
  3020
  9
$CMLSTYLE
  2
Standard
  9
$CMLJUST
 70
     0
  9
$CMLSCALE
 40
1.0
  9
$PROXYGRAPHICS
 70
     1
  9
$MEASUREMENT
 70
     0
  9
$CELWEIGHT
370
    -1
  9
$ENDCAPS
280
     0
  9
$JOINSTYLE
280
     0
  9
$LWDISPLAY
290
     0
  9
$INSUNITS
 70
     0
  9
$HYPERLINKBASE
  1

  9
$STYLESHEET
  1

  9
$XEDIT
290
     1
  9
$CEPSNTYPE
380
     0
  9
$PSTYLEMODE
290
     1
  9
$FINGERPRINTGUID
  2
{73C0FDC5-8960-4A42-8D20-09DA0BAD5505}
  9
$VERSIONGUID
  2
{FAEB1C32-E019-11D5-929B-00C0DF256EC4}
  9
$EXTNAMES
290
     1
  9
$PSVPSCALE
 40
0.0
  9
$OLESTARTUP
290
     0
  0
ENDSEC
  0
SECTION
  2
CLASSES
  0
CLASS
  1
ACDBDICTIONARYWDFLT
  2
AcDbDictionaryWithDefault
  3
ObjectDBX Classes
 90
        0
280
     0
281
     0
  0
CLASS
  1
SCALE
  2
AcDbScale
  3
ObjectDBX Classes
 90
     1153
280
     0
281
     0
  0
CLASS
  1
VISUALSTYLE
  2
AcDbVisualStyle
  3
ObjectDBX Classes
 90
     4095
280
     0
281
     0
  0
CLASS
  1
MATERIAL
  2
AcDbMaterial
  3
ObjectDBX Classes
 90
     1153
280
     0
281
     0
  0
CLASS
  1
TABLESTYLE
  2
AcDbTableStyle
  3
ObjectDBX Classes
 90
     4095
280
     0
281
     0
  0
CLASS
  1
MLEADERSTYLE
  2
AcDbMLeaderStyle
  3
ACDB_MLEADERSTYLE_CLASS
 90
     4095
280
     0
281
     0
  0
CLASS
  1
DICTIONARYVAR
  2
AcDbDictionaryVar
  3
ObjectDBX Classes
 90
        0
280
     0
281
     0
  0
CLASS
  1
SUN
  2
AcDbSun
  3
SCENEOE
 90
     1153
280
     0
281
     0
  0
CLASS
  1
DIMASSOC
  2
AcDbDimAssoc
  3
"AcDbDimAssoc|Product Desc:     AcDim ARX App For Dimension|Company:          Autodesk, Inc.|WEB Address:      www.autodesk.com"
 90
        0
280
     0
281
     0
  0
CLASS
  1
ACDBPLACEHOLDER
  2
AcDbPlaceHolder
  3
ObjectDBX Classes
 90
        0
280
     0
281
     0
  0
CLASS
  1
LAYOUT
  2
AcDbLayout
  3
ObjectDBX Classes
 90
        0
280
     0
281
     0
  0
ENDSEC
  0
SECTION
  2
TABLES
  0
TABLE
  2
VPORT
  5
8
330
0
100
AcDbSymbolTable
 70
     1
  0
VPORT
  5
2C
330
8
100
AcDbSymbolTableRecord
100
AcDbViewportTableRecord
  2
*Active
 70
     0
 10
0.0
 20
0.0
 11
1.0
 21
1.0
 12
67.40971957234895
 22
188.9774999387565
 13
0.0
 23
0.0
 14
1.0
 24
1.0
 15
5.0
 25
5.0
 16
0.0
 26
0.0
 36
1.0
 17
0.0
 27
0.0
 37
0.0
 40
204.6363078989075
 41
2.111409395973154
 42
50.0
 43
0.0
 44
0.0
 50
0.0
 51
0.0
 71
    16
 72
   100
 73
     1
 74
     3
 75
     1
 76
     1
 77
     0
 78
     0
281
     0
 65
     1
110
0.0
120
0.0
130
0.0
111
1.0
121
0.0
131
0.0
112
0.0
122
1.0
132
0.0
 79
     0
146
0.0
  0
ENDTAB
  0
TABLE
  2
LTYPE
  5
5
330
0
100
AcDbSymbolTable
 70
     7
  0
LTYPE
  5
14
330
5
100
AcDbSymbolTableRecord
100
AcDbLinetypeTableRecord
  2
ByBlock
 70
     0
  3

 72
    65
 73
     0
 40
0.0
  0
LTYPE
  5
15
330
5
100
AcDbSymbolTableRecord
100
AcDbLinetypeTableRecord
  2
ByLayer
 70
     0
  3

 72
    65
 73
     0
 40
0.0
  0
LTYPE
  5
16
330
5
100
AcDbSymbolTableRecord
100
AcDbLinetypeTableRecord
  2
CONTINUOUS
 70
     0
  3
Solid line
 72
    65
 73
     0
 40
0.0
  0
LTYPE
  5
21
330
5
100
AcDbSymbolTableRecord
100
AcDbLinetypeTableRecord
  2
HIDDEN
 70
     0
  3
------------------------
 72
    65
 73
     2
 40
12.6
 49
8.4
 74
     0
 49
-4.2
 74
     0
  0
LTYPE
  5
22
330
5
100
AcDbSymbolTableRecord
100
AcDbLinetypeTableRecord
  2
DOT
 70
     0
  3
ееееееееееееееееееееееее
 72
    65
 73
     2
 40
8.0
 49
6.0
 74
     0
 49
-2.0
 74
     0
  0
LTYPE
  5
23
330
5
100
AcDbSymbolTableRecord
100
AcDbLinetypeTableRecord
  2
DASHDOT
 70
     0
  3
--е--е--е--е--е--е--е--
 72
    65
 73
     4
 40
50.5
 49
30.0
 74
     0
 49
-9.0
 74
     0
 49
2.5
 74
     0
 49
-9.0
 74
     0
  0
LTYPE
  5
24
330
5
100
AcDbSymbolTableRecord
100
AcDbLinetypeTableRecord
  2
DIVIDE
 70
     0
  3
--ее--ее--ее--ее--ее--
 72
    65
 73
     6
 40
58.0
 49
30.0
 74
     0
 49
-9.0
 74
     0
 49
2.5
 74
     0
 49
-5.0
 74
     0
 49
2.5
 74
     0
 49
-9.0
 74
     0
  0
LTYPE
  5
25
330
5
100
AcDbSymbolTableRecord
100
AcDbLinetypeTableRecord
  2
ACAD_ISO06W100
 70
     0
  3
____ ... ____ ... ____
 72
    65
 73
     8
 40
37.5
 49
24.0
 74
     0
 49
-3.0
 74
     0
 49
0.5
 74
     0
 49
-3.0
 74
     0
 49
0.5
 74
     0
 49
-3.0
 74
     0
 49
0.5
 74
     0
 49
-3.0
 74
     0
  0
LTYPE
  5
26
330
5
100
AcDbSymbolTableRecord
100
AcDbLinetypeTableRecord
  2
ACAD_ISO14W100
 70
     0
  3
__ . . . __ . . . __ . . . 
 72
    65
 73
     8
 40
25.5
 49
12.0
 74
     0
 49
-3.0
 74
     0
 49
0.5
 74
     0
 49
-3.0
 74
     0
 49
0.5
 74
     0
 49
-3.0
 74
     0
 49
0.5
 74
     0
 49
-3.0
 74
     0
  0
ENDTAB
  0
TABLE
  2
LAYER
  5
2
330
0
100
AcDbSymbolTable
 70
     5
  0
LAYER
  5
10
330
2
100
AcDbSymbolTableRecord
100
AcDbLayerTableRecord
  2
0
 70
     0
 62
     7
  6
CONTINUOUS
370
    -3
390
F
  0
LAYER
  5
27
330
2
100
AcDbSymbolTableRecord
100
AcDbLayerTableRecord
  2
23
 70
     0
 62
     7
  6
CONTINUOUS
370
    -3
390
F
  0
LAYER
  5
28
330
2
100
AcDbSymbolTableRecord
100
AcDbLayerTableRecord
  2
24
 70
     0
 62
     7
  6
CONTINUOUS
370
    -3
390
F
  0
LAYER
  5
2B7
330
2
100
AcDbSymbolTableRecord
100
AcDbLayerTableRecord
  2
Visible (ISO)
 70
     0
 62
     7
  6
CONTINUOUS
370
    50
390
F
  0
LAYER
  5
968
330
2
100
AcDbSymbolTableRecord
100
AcDbLayerTableRecord
  2
Defpoints
 70
     0
 62
     7
  6
CONTINUOUS
290
     0
370
    -3
390
F
  0
ENDTAB
  0
TABLE
  2
STYLE
  5
3
330
0
100
AcDbSymbolTable
 70
     2
  0
STYLE
  5
11
330
3
100
AcDbSymbolTableRecord
100
AcDbTextStyleTableRecord
  2
STANDARD
 70
     0
 40
0.0
 41
1.0
 50
0.0
 71
     0
 42
0.2
  3
TXT
  4

  0
STYLE
  5
2A
330
3
100
AcDbSymbolTableRecord
100
AcDbTextStyleTableRecord
  2
KANJI
 70
     0
 40
0.0
 41
1.0
 50
0.0
 71
     0
 42
0.2
  3
TXT
  4
BIGFONT
  0
ENDTAB
  0
TABLE
  2
VIEW
  5
6
330
0
100
AcDbSymbolTable
 70
     0
  0
ENDTAB
  0
TABLE
  2
UCS
  5
7
330
0
100
AcDbSymbolTable
 70
     0
  0
ENDTAB
  0
TABLE
  2
APPID
  5
9
330
0
100
AcDbSymbolTable
 70
     1
  0
APPID
  5
12
330
9
100
AcDbSymbolTableRecord
100
AcDbRegAppTableRecord
  2
ACAD
 70
     0
  0
ENDTAB
  0
TABLE
  2
DIMSTYLE
  5
A
330
0
100
AcDbSymbolTable
 70
     1
100
AcDbDimStyleTable
  0
DIMSTYLE
105
2B
330
A
100
AcDbSymbolTableRecord
100
AcDbDimStyleTableRecord
  2
Standard
 70
     0
178
     0
340
11
  0
ENDTAB
  0
TABLE
  2
BLOCK_RECORD
  5
1
330
0
100
AcDbSymbolTable
 70
     0
  0
BLOCK_RECORD
  5
1D
330
1
100
AcDbSymbolTableRecord
100
AcDbBlockTableRecord
  2
*Model_Space
340
1E
  0
BLOCK_RECORD
  5
1B
330
1
100
AcDbSymbolTableRecord
100
AcDbBlockTableRecord
  2
*Paper_Space
340
1C
  0
ENDTAB
  0
ENDSEC
  0
SECTION
  2
BLOCKS
  0
BLOCK
  5
239
330
1D
100
AcDbEntity
  8
0
100
AcDbBlockBegin
  2
*Model_Space
 70
     0
 10
0.0
 20
0.0
 30
0.0
  3
*Model_Space
  1

  0
ENDBLK
  5
23A
330
1D
100
AcDbEntity
  8
0
100
AcDbBlockEnd
  0
BLOCK
  5
23B
330
1B
100
AcDbEntity
 67
     1
  8
0
100
AcDbBlockBegin
  2
*Paper_Space
 70
     0
 10
0.0
 20
0.0
 30
0.0
  3
*Paper_Space
  1

  0
ENDBLK
  5
23C
330
1B
100
AcDbEntity
 67
     1
  8
0
100
AcDbBlockEnd
  0
ENDSEC
  0
SECTION
  2
ENTITIES
  0
ARC
  5
2D
102
{ACAD_REACTORS
330
7C1
102
}
330
1D
100
AcDbEntity
  8
23
  6
Continuous
 62
     7
100
AcDbCircle
 10
14.009808
 20
35.0
 30
0.0
 40
2.0
100
AcDbArc
 50
2.247469999999899
 51
90.0
  0
ARC
  5
2E
102
{ACAD_REACTORS
330
7C1
102
}
330
1D
100
AcDbEntity
  8
23
  6
Continuous
 62
     7
100
AcDbCircle
 10
39.490192
 20
35.0
 30
0.0
 40
2.0
100
AcDbArc
 50
90.0
 51
177.7525299999999
  0
ARC
  5
2F
102
{ACAD_REACTORS
330
7C1
102
}
330
1D
100
AcDbEntity
  8
23
  6
Continuous
 62
     7
100
AcDbCircle
 10
34.888097
 20
12.0
 30
0.0
 40
4.0
100
AcDbArc
 50
270.0
 51
319.994799
  0
ARC
  5
30
102
{ACAD_REACTORS
330
7C1
102
}
330
1D
100
AcDbEntity
  8
23
  6
Continuous
 62
     7
100
AcDbCircle
 10
39.5
 20
14.459705
 30
0.0
 40
4.0
100
AcDbArc
 50
276.15064
 51
0.0
  0
ARC
  5
31
102
{ACAD_REACTORS
330
7C1
102
}
330
1D
100
AcDbEntity
  8
23
  6
Continuous
 62
     7
100
AcDbCircle
 10
39.5
 20
24.63722
 30
0.0
 40
4.0
100
AcDbArc
 50
0.0
 51
139.569574
  0
ARC
  5
32
102
{ACAD_REACTORS
330
7C1
102
}
330
1D
100
AcDbEntity
  8
23
  6
Continuous
 62
     7
100
AcDbCircle
 10
14.0
 20
24.63722
 30
0.0
 40
4.0
100
AcDbArc
 50
40.43042599999998
 51
180.0
  0
ARC
  5
33
102
{ACAD_REACTORS
330
7C1
102
}
330
1D
100
AcDbEntity
  8
23
  6
Continuous
 62
     7
100
AcDbCircle
 10
14.0
 20
14.459705
 30
0.0
 40
4.0
100
AcDbArc
 50
180.0
 51
263.8493599999999
  0
ARC
  5
34
102
{ACAD_REACTORS
330
7C1
102
}
330
1D
100
AcDbEntity
  8
23
  6
Continuous
 62
     7
100
AcDbCircle
 10
18.611903
 20
12.0
 30
0.0
 40
4.0
100
AcDbArc
 50
220.005201
 51
270.0
  0
LINE
  5
35
102
{ACAD_REACTORS
330
7C1
102
}
330
1D
100
AcDbEntity
  8
23
  6
Continuous
 62
     7
100
AcDbLine
 10
14.009808
 20
37.0
 30
0.0
 11
7.0
 21
37.0
 31
0.0
  0
LINE
  5
36
102
{ACAD_REACTORS
330
7C1
102
}
330
1D
100
AcDbEntity
  8
23
  6
Continuous
 62
     7
100
AcDbLine
 10
46.5
 20
37.0
 30
0.0
 11
39.490192
 21
37.0
 31
0.0
  0
CIRCLE
  5
37
102
{ACAD_REACTORS
330
7C1
102
}
330
1D
100
AcDbEntity
  8
23
  6
Continuous
 62
     7
100
AcDbCircle
 10
13.25
 20
7.5
 30
0.0
 40
1.35
  0
CIRCLE
  5
38
102
{ACAD_REACTORS
330
7C1
102
}
330
1D
100
AcDbEntity
  8
23
  6
Continuous
 62
     7
100
AcDbCircle
 10
13.25
 20
34.5
 30
0.0
 40
1.35
  0
CIRCLE
  5
39
102
{ACAD_REACTORS
330
7C1
102
}
330
1D
100
AcDbEntity
  8
23
  6
Continuous
 62
     7
100
AcDbCircle
 10
40.25
 20
7.5
 30
0.0
 40
1.35
  0
CIRCLE
  5
3A
102
{ACAD_REACTORS
330
7C1
102
}
330
1D
100
AcDbEntity
  8
23
  6
Continuous
 62
     7
100
AcDbCircle
 10
40.25
 20
34.5
 30
0.0
 40
1.35
  0
LINE
  5
3B
102
{ACAD_REACTORS
330
7C1
102
}
330
1D
100
AcDbEntity
  8
23
  6
Continuous
 62
     7
100
AcDbLine
 10
7.0
 20
5.0
 30
0.0
 11
46.5
 21
5.0
 31
0.0
  0
LINE
  5
3C
102
{ACAD_REACTORS
330
7C1
102
}
330
1D
100
AcDbEntity
  8
23
  6
Continuous
 62
     7
100
AcDbLine
 10
7.0
 20
7.9
 30
0.0
 11
7.0
 21
5.0
 31
0.0
  0
ARC
  5
3D
102
{ACAD_REACTORS
330
7C1
102
}
330
1D
100
AcDbEntity
  8
23
  6
Continuous
 62
     7
100
AcDbCircle
 10
7.0
 20
8.95
 30
0.0
 40
1.05
100
AcDbArc
 50
270.0
 51
90.0
  0
LINE
  5
3E
102
{ACAD_REACTORS
330
7C1
102
}
330
1D
100
AcDbEntity
  8
23
  6
Continuous
 62
     7
100
AcDbLine
 10
5.0
 20
10.0
 30
0.0
 11
7.0
 21
10.0
 31
0.0
  0
LINE
  5
3F
102
{ACAD_REACTORS
330
7C1
102
}
330
1D
100
AcDbEntity
  8
23
  6
Continuous
 62
     7
100
AcDbLine
 10
5.0
 20
32.0
 30
0.0
 11
5.0
 21
10.0
 31
0.0
  0
LINE
  5
40
102
{ACAD_REACTORS
330
7C1
102
}
330
1D
100
AcDbEntity
  8
23
  6
Continuous
 62
     7
100
AcDbLine
 10
7.0
 20
32.0
 30
0.0
 11
5.0
 21
32.0
 31
0.0
  0
ARC
  5
41
102
{ACAD_REACTORS
330
7C1
102
}
330
1D
100
AcDbEntity
  8
23
  6
Continuous
 62
     7
100
AcDbCircle
 10
7.0
 20
33.05
 30
0.0
 40
1.05
100
AcDbArc
 50
270.0
 51
90.0
  0
LINE
  5
42
102
{ACAD_REACTORS
330
7C1
102
}
330
1D
100
AcDbEntity
  8
23
  6
Continuous
 62
     7
100
AcDbLine
 10
7.0
 20
37.0
 30
0.0
 11
7.0
 21
34.1
 31
0.0
  0
ARC
  5
43
102
{ACAD_REACTORS
330
7C1
102
}
330
1D
100
AcDbEntity
  8
23
  6
Continuous
 62
     7
100
AcDbCircle
 10
26.75
 20
35.5
 30
0.0
 40
10.75
100
AcDbArc
 50
182.24747
 51
357.75253
  0
LINE
  5
44
102
{ACAD_REACTORS
330
7C1
102
}
330
1D
100
AcDbEntity
  8
23
  6
Continuous
 62
     7
100
AcDbLine
 10
46.5
 20
34.1
 30
0.0
 11
46.5
 21
37.0
 31
0.0
  0
ARC
  5
45
102
{ACAD_REACTORS
330
7C1
102
}
330
1D
100
AcDbEntity
  8
23
  6
Continuous
 62
     7
100
AcDbCircle
 10
46.5
 20
33.05
 30
0.0
 40
1.05
100
AcDbArc
 50
90.0
 51
270.0
  0
LINE
  5
46
102
{ACAD_REACTORS
330
7C1
102
}
330
1D
100
AcDbEntity
  8
23
  6
Continuous
 62
     7
100
AcDbLine
 10
48.5
 20
32.0
 30
0.0
 11
46.5
 21
32.0
 31
0.0
  0
LINE
  5
47
102
{ACAD_REACTORS
330
7C1
102
}
330
1D
100
AcDbEntity
  8
23
  6
Continuous
 62
     7
100
AcDbLine
 10
48.5
 20
10.0
 30
0.0
 11
48.5
 21
32.0
 31
0.0
  0
LINE
  5
48
102
{ACAD_REACTORS
330
7C1
102
}
330
1D
100
AcDbEntity
  8
23
  6
Continuous
 62
     7
100
AcDbLine
 10
46.5
 20
10.0
 30
0.0
 11
48.5
 21
10.0
 31
0.0
  0
ARC
  5
49
102
{ACAD_REACTORS
330
7C1
102
}
330
1D
100
AcDbEntity
  8
23
  6
Continuous
 62
     7
100
AcDbCircle
 10
46.5
 20
8.95
 30
0.0
 40
1.05
100
AcDbArc
 50
90.0
 51
270.0
  0
LINE
  5
4A
102
{ACAD_REACTORS
330
7C1
102
}
330
1D
100
AcDbEntity
  8
23
  6
Continuous
 62
     7
100
AcDbLine
 10
46.5
 20
5.0
 30
0.0
 11
46.5
 21
7.9
 31
0.0
  0
ARC
  5
4B
102
{ACAD_REACTORS
330
7C1
102
}
330
1D
100
AcDbEntity
  8
23
  6
Continuous
 62
     7
100
AcDbCircle
 10
40.25
 20
7.5
 30
0.0
 40
3.0
100
AcDbArc
 50
96.15064000000002
 51
139.994799
  0
LINE
  5
4C
102
{ACAD_REACTORS
330
7C1
102
}
330
1D
100
AcDbEntity
  8
23
  6
Continuous
 62
     7
100
AcDbLine
 10
43.5
 20
24.63722
 30
0.0
 11
43.5
 21
14.459705
 31
0.0
  0
ARC
  5
4D
102
{ACAD_REACTORS
330
7C1
102
}
330
1D
100
AcDbEntity
  8
23
  6
Continuous
 62
     7
100
AcDbCircle
 10
26.75
 20
35.5
 30
0.0
 40
12.75
100
AcDbArc
 50
220.430426
 51
319.5695739999999
  0
LINE
  5
4E
102
{ACAD_REACTORS
330
7C1
102
}
330
1D
100
AcDbEntity
  8
23
  6
Continuous
 62
     7
100
AcDbLine
 10
10.0
 20
14.459705
 30
0.0
 11
10.0
 21
24.63722
 31
0.0
  0
LINE
  5
4F
102
{ACAD_REACTORS
330
7C1
102
}
330
1D
100
AcDbEntity
  8
23
  6
Continuous
 62
     7
100
AcDbLine
 10
34.888097
 20
8.0
 30
0.0
 11
18.611903
 21
8.0
 31
0.0
  0
ARC
  5
50
102
{ACAD_REACTORS
330
7C1
102
}
330
1D
100
AcDbEntity
  8
23
  6
Continuous
 62
     7
100
AcDbCircle
 10
13.25
 20
7.5
 30
0.0
 40
3.0
100
AcDbArc
 50
40.00520100000003
 51
83.84936000000002
  0
ARC
  5
51
102
{ACAD_REACTORS
330
7C3
102
}
330
1D
100
AcDbEntity
  8
23
  6
Continuous
 62
     7
100
AcDbCircle
 10
14.009808
 20
41.1
 30
0.0
 40
2.0
100
AcDbArc
 50
270.0
 51
357.7525300000001
  0
ARC
  5
52
102
{ACAD_REACTORS
330
7C3
102
}
330
1D
100
AcDbEntity
  8
23
  6
Continuous
 62
     7
100
AcDbCircle
 10
39.490192
 20
41.1
 30
0.0
 40
2.0
100
AcDbArc
 50
182.2474699999999
 51
270.0
  0
ARC
  5
53
102
{ACAD_REACTORS
330
7C3
102
}
330
1D
100
AcDbEntity
  8
23
  6
Continuous
 62
     7
100
AcDbCircle
 10
34.888097
 20
64.1
 30
0.0
 40
4.0
100
AcDbArc
 50
40.00520100000001
 51
90.0
  0
ARC
  5
54
102
{ACAD_REACTORS
330
7C3
102
}
330
1D
100
AcDbEntity
  8
23
  6
Continuous
 62
     7
100
AcDbCircle
 10
39.5
 20
61.640295
 30
0.0
 40
4.0
100
AcDbArc
 50
0.0
 51
83.84936000000005
  0
ARC
  5
55
102
{ACAD_REACTORS
330
7C3
102
}
330
1D
100
AcDbEntity
  8
23
  6
Continuous
 62
     7
100
AcDbCircle
 10
39.5
 20
51.46278
 30
0.0
 40
4.0
100
AcDbArc
 50
220.430426
 51
0.0
  0
ARC
  5
56
102
{ACAD_REACTORS
330
7C3
102
}
330
1D
100
AcDbEntity
  8
23
  6
Continuous
 62
     7
100
AcDbCircle
 10
14.0
 20
51.46278
 30
0.0
 40
4.0
100
AcDbArc
 50
180.0
 51
319.569574
  0
ARC
  5
57
102
{ACAD_REACTORS
330
7C3
102
}
330
1D
100
AcDbEntity
  8
23
  6
Continuous
 62
     7
100
AcDbCircle
 10
14.0
 20
61.640295
 30
0.0
 40
4.0
100
AcDbArc
 50
96.15063999999998
 51
180.0
  0
ARC
  5
58
102
{ACAD_REACTORS
330
7C3
102
}
330
1D
100
AcDbEntity
  8
23
  6
Continuous
 62
     7
100
AcDbCircle
 10
18.611903
 20
64.1
 30
0.0
 40
4.0
100
AcDbArc
 50
90.0
 51
139.994799
  0
LINE
  5
59
102
{ACAD_REACTORS
330
7C3
102
}
330
1D
100
AcDbEntity
  8
23
  6
Continuous
 62
     7
100
AcDbLine
 10
14.009808
 20
39.1
 30
0.0
 11
7.0
 21
39.1
 31
0.0
  0
LINE
  5
5A
102
{ACAD_REACTORS
330
7C3
102
}
330
1D
100
AcDbEntity
  8
23
  6
Continuous
 62
     7
100
AcDbLine
 10
46.5
 20
39.1
 30
0.0
 11
39.490192
 21
39.1
 31
0.0
  0
CIRCLE
  5
5B
102
{ACAD_REACTORS
330
7C3
102
}
330
1D
100
AcDbEntity
  8
23
  6
Continuous
 62
     7
100
AcDbCircle
 10
13.25
 20
68.6
 30
0.0
 40
1.35
  0
CIRCLE
  5
5C
102
{ACAD_REACTORS
330
7C3
102
}
330
1D
100
AcDbEntity
  8
23
  6
Continuous
 62
     7
100
AcDbCircle
 10
13.25
 20
41.6
 30
0.0
 40
1.35
  0
CIRCLE
  5
5D
102
{ACAD_REACTORS
330
7C3
102
}
330
1D
100
AcDbEntity
  8
23
  6
Continuous
 62
     7
100
AcDbCircle
 10
40.25
 20
68.6
 30
0.0
 40
1.35
  0
CIRCLE
  5
5E
102
{ACAD_REACTORS
330
7C3
102
}
330
1D
100
AcDbEntity
  8
23
  6
Continuous
 62
     7
100
AcDbCircle
 10
40.25
 20
41.6
 30
0.0
 40
1.35
  0
LINE
  5
5F
102
{ACAD_REACTORS
330
7C3
102
}
330
1D
100
AcDbEntity
  8
23
  6
Continuous
 62
     7
100
AcDbLine
 10
7.0
 20
71.1
 30
0.0
 11
46.5
 21
71.1
 31
0.0
  0
LINE
  5
60
102
{ACAD_REACTORS
330
7C3
102
}
330
1D
100
AcDbEntity
  8
23
  6
Continuous
 62
     7
100
AcDbLine
 10
7.0
 20
68.2
 30
0.0
 11
7.0
 21
71.1
 31
0.0
  0
ARC
  5
61
102
{ACAD_REACTORS
330
7C3
102
}
330
1D
100
AcDbEntity
  8
23
  6
Continuous
 62
     7
100
AcDbCircle
 10
7.0
 20
67.15
 30
0.0
 40
1.05
100
AcDbArc
 50
270.0
 51
90.0
  0
LINE
  5
62
102
{ACAD_REACTORS
330
7C3
102
}
330
1D
100
AcDbEntity
  8
23
  6
Continuous
 62
     7
100
AcDbLine
 10
5.0
 20
66.1
 30
0.0
 11
7.0
 21
66.1
 31
0.0
  0
LINE
  5
63
102
{ACAD_REACTORS
330
7C3
102
}
330
1D
100
AcDbEntity
  8
23
  6
Continuous
 62
     7
100
AcDbLine
 10
5.0
 20
44.1
 30
0.0
 11
5.0
 21
66.1
 31
0.0
  0
LINE
  5
64
102
{ACAD_REACTORS
330
7C3
102
}
330
1D
100
AcDbEntity
  8
23
  6
Continuous
 62
     7
100
AcDbLine
 10
7.0
 20
44.1
 30
0.0
 11
5.0
 21
44.1
 31
0.0
  0
ARC
  5
65
102
{ACAD_REACTORS
330
7C3
102
}
330
1D
100
AcDbEntity
  8
23
  6
Continuous
 62
     7
100
AcDbCircle
 10
7.0
 20
43.05
 30
0.0
 40
1.05
100
AcDbArc
 50
270.0
 51
90.0
  0
LINE
  5
66
102
{ACAD_REACTORS
330
7C3
102
}
330
1D
100
AcDbEntity
  8
23
  6
Continuous
 62
     7
100
AcDbLine
 10
7.0
 20
39.1
 30
0.0
 11
7.0
 21
42.0
 31
0.0
  0
ARC
  5
67
102
{ACAD_REACTORS
330
7C3
102
}
330
1D
100
AcDbEntity
  8
23
  6
Continuous
 62
     7
100
AcDbCircle
 10
26.75
 20
40.6
 30
0.0
 40
10.75
100
AcDbArc
 50
2.247469999999992
 51
177.75253
  0
LINE
  5
68
102
{ACAD_REACTORS
330
7C3
102
}
330
1D
100
AcDbEntity
  8
23
  6
Continuous
 62
     7
100
AcDbLine
 10
46.5
 20
42.0
 30
0.0
 11
46.5
 21
39.1
 31
0.0
  0
ARC
  5
69
102
{ACAD_REACTORS
330
7C3
102
}
330
1D
100
AcDbEntity
  8
23
  6
Continuous
 62
     7
100
AcDbCircle
 10
46.5
 20
43.05
 30
0.0
 40
1.05
100
AcDbArc
 50
90.0
 51
270.0
  0
LINE
  5
6A
102
{ACAD_REACTORS
330
7C3
102
}
330
1D
100
AcDbEntity
  8
23
  6
Continuous
 62
     7
100
AcDbLine
 10
48.5
 20
44.1
 30
0.0
 11
46.5
 21
44.1
 31
0.0
  0
LINE
  5
6B
102
{ACAD_REACTORS
330
7C3
102
}
330
1D
100
AcDbEntity
  8
23
  6
Continuous
 62
     7
100
AcDbLine
 10
48.5
 20
66.1
 30
0.0
 11
48.5
 21
44.1
 31
0.0
  0
LINE
  5
6C
102
{ACAD_REACTORS
330
7C3
102
}
330
1D
100
AcDbEntity
  8
23
  6
Continuous
 62
     7
100
AcDbLine
 10
46.5
 20
66.1
 30
0.0
 11
48.5
 21
66.1
 31
0.0
  0
ARC
  5
6D
102
{ACAD_REACTORS
330
7C3
102
}
330
1D
100
AcDbEntity
  8
23
  6
Continuous
 62
     7
100
AcDbCircle
 10
46.5
 20
67.15
 30
0.0
 40
1.05
100
AcDbArc
 50
90.0
 51
270.0
  0
LINE
  5
6E
102
{ACAD_REACTORS
330
7C3
102
}
330
1D
100
AcDbEntity
  8
23
  6
Continuous
 62
     7
100
AcDbLine
 10
46.5
 20
71.1
 30
0.0
 11
46.5
 21
68.2
 31
0.0
  0
ARC
  5
6F
102
{ACAD_REACTORS
330
7C3
102
}
330
1D
100
AcDbEntity
  8
23
  6
Continuous
 62
     7
100
AcDbCircle
 10
40.25
 20
68.6
 30
0.0
 40
3.0
100
AcDbArc
 50
220.005201
 51
263.84936
  0
LINE
  5
70
102
{ACAD_REACTORS
330
7C3
102
}
330
1D
100
AcDbEntity
  8
23
  6
Continuous
 62
     7
100
AcDbLine
 10
43.5
 20
51.46278
 30
0.0
 11
43.5
 21
61.640295
 31
0.0
  0
ARC
  5
71
102
{ACAD_REACTORS
330
7C3
102
}
330
1D
100
AcDbEntity
  8
23
  6
Continuous
 62
     7
100
AcDbCircle
 10
26.75
 20
40.6
 30
0.0
 40
12.75
100
AcDbArc
 50
40.430426
 51
139.569574
  0
LINE
  5
72
102
{ACAD_REACTORS
330
7C3
102
}
330
1D
100
AcDbEntity
  8
23
  6
Continuous
 62
     7
100
AcDbLine
 10
10.0
 20
61.640295
 30
0.0
 11
10.0
 21
51.46278
 31
0.0
  0
LINE
  5
73
102
{ACAD_REACTORS
330
7C3
102
}
330
1D
100
AcDbEntity
  8
23
  6
Continuous
 62
     7
100
AcDbLine
 10
34.888097
 20
68.1
 30
0.0
 11
18.611903
 21
68.1
 31
0.0
  0
ARC
  5
74
102
{ACAD_REACTORS
330
7C3
102
}
330
1D
100
AcDbEntity
  8
23
  6
Continuous
 62
     7
100
AcDbCircle
 10
13.25
 20
68.6
 30
0.0
 40
3.0
100
AcDbArc
 50
276.15064
 51
319.9947989999999
  0
ARC
  5
75
102
{ACAD_REACTORS
330
7C2
102
}
330
1D
100
AcDbEntity
  8
23
  6
Continuous
 62
     7
100
AcDbCircle
 10
59.388519
 20
35.0
 30
0.0
 40
2.0
100
AcDbArc
 50
4.411725999999981
 51
90.0
  0
ARC
  5
76
102
{ACAD_REACTORS
330
7C2
102
}
330
1D
100
AcDbEntity
  8
23
  6
Continuous
 62
     7
100
AcDbCircle
 10
80.653848
 20
11.0
 30
0.0
 40
3.0
100
AcDbArc
 50
270.0
 51
330.0
  0
ARC
  5
77
102
{ACAD_REACTORS
330
7C2
102
}
330
1D
100
AcDbEntity
  8
23
  6
Continuous
 62
     7
100
AcDbCircle
 10
64.046152
 20
11.0
 30
0.0
 40
3.0
100
AcDbArc
 50
209.9999999999999
 51
270.0
  0
ARC
  5
78
102
{ACAD_REACTORS
330
7C2
102
}
330
1D
100
AcDbEntity
  8
23
  6
Continuous
 62
     7
100
AcDbCircle
 10
59.6
 20
13.95294
 30
0.0
 40
3.0
100
AcDbArc
 50
180.0
 51
262.819244
  0
ARC
  5
79
102
{ACAD_REACTORS
330
7C2
102
}
330
1D
100
AcDbEntity
  8
23
  6
Continuous
 62
     7
100
AcDbCircle
 10
59.6
 20
26.333693
 30
0.0
 40
3.0
100
AcDbArc
 50
37.16728499999997
 51
180.0
  0
ARC
  5
7A
102
{ACAD_REACTORS
330
7C2
102
}
330
1D
100
AcDbEntity
  8
23
  6
Continuous
 62
     7
100
AcDbCircle
 10
85.1
 20
26.333693
 30
0.0
 40
3.0
100
AcDbArc
 50
0.0
 51
142.832715
  0
ARC
  5
7B
102
{ACAD_REACTORS
330
7C2
102
}
330
1D
100
AcDbEntity
  8
23
  6
Continuous
 62
     7
100
AcDbCircle
 10
85.1
 20
13.95294
 30
0.0
 40
3.0
100
AcDbArc
 50
277.180756
 51
0.0
  0
ARC
  5
7C
102
{ACAD_REACTORS
330
7C2
102
}
330
1D
100
AcDbEntity
  8
23
  6
Continuous
 62
     7
100
AcDbCircle
 10
85.311481
 20
35.0
 30
0.0
 40
2.0
100
AcDbArc
 50
90.0
 51
175.588274
  0
ARC
  5
7D
102
{ACAD_REACTORS
330
7C2
102
}
330
1D
100
AcDbEntity
  8
23
  6
Continuous
 62
     7
100
AcDbCircle
 10
72.35
 20
36.0
 30
0.0
 40
11.0
100
AcDbArc
 50
184.411726
 51
355.588274
  0
CIRCLE
  5
7E
102
{ACAD_REACTORS
330
7C2
102
}
330
1D
100
AcDbEntity
  8
23
  6
Continuous
 62
     7
100
AcDbCircle
 10
58.85
 20
8.0
 30
0.0
 40
1.35
  0
CIRCLE
  5
7F
102
{ACAD_REACTORS
330
7C2
102
}
330
1D
100
AcDbEntity
  8
23
  6
Continuous
 62
     7
100
AcDbCircle
 10
85.85
 20
8.0
 30
0.0
 40
1.35
  0
CIRCLE
  5
80
102
{ACAD_REACTORS
330
7C2
102
}
330
1D
100
AcDbEntity
  8
23
  6
Continuous
 62
     7
100
AcDbCircle
 10
58.85
 20
35.0
 30
0.0
 40
1.35
  0
CIRCLE
  5
81
102
{ACAD_REACTORS
330
7C2
102
}
330
1D
100
AcDbEntity
  8
23
  6
Continuous
 62
     7
100
AcDbCircle
 10
85.85
 20
35.0
 30
0.0
 40
1.35
  0
LINE
  5
82
102
{ACAD_REACTORS
330
7C2
102
}
330
1D
100
AcDbEntity
  8
23
  6
Continuous
 62
     7
100
AcDbLine
 10
52.6
 20
37.0
 30
0.0
 11
59.388519
 21
37.0
 31
0.0
  0
LINE
  5
83
102
{ACAD_REACTORS
330
7C2
102
}
330
1D
100
AcDbEntity
  8
23
  6
Continuous
 62
     7
100
AcDbLine
 10
52.6
 20
34.1
 30
0.0
 11
52.6
 21
37.0
 31
0.0
  0
ARC
  5
84
102
{ACAD_REACTORS
330
7C2
102
}
330
1D
100
AcDbEntity
  8
23
  6
Continuous
 62
     7
100
AcDbCircle
 10
52.6
 20
33.05
 30
0.0
 40
1.05
100
AcDbArc
 50
270.0
 51
90.0
  0
LINE
  5
85
102
{ACAD_REACTORS
330
7C2
102
}
330
1D
100
AcDbEntity
  8
23
  6
Continuous
 62
     7
100
AcDbLine
 10
50.6
 20
32.0
 30
0.0
 11
52.6
 21
32.0
 31
0.0
  0
LINE
  5
86
102
{ACAD_REACTORS
330
7C2
102
}
330
1D
100
AcDbEntity
  8
23
  6
Continuous
 62
     7
100
AcDbLine
 10
50.6
 20
10.0
 30
0.0
 11
50.6
 21
32.0
 31
0.0
  0
LINE
  5
87
102
{ACAD_REACTORS
330
7C2
102
}
330
1D
100
AcDbEntity
  8
23
  6
Continuous
 62
     7
100
AcDbLine
 10
52.6
 20
10.0
 30
0.0
 11
50.6
 21
10.0
 31
0.0
  0
ARC
  5
88
102
{ACAD_REACTORS
330
7C2
102
}
330
1D
100
AcDbEntity
  8
23
  6
Continuous
 62
     7
100
AcDbCircle
 10
52.6
 20
8.95
 30
0.0
 40
1.05
100
AcDbArc
 50
270.0
 51
90.0
  0
LINE
  5
89
102
{ACAD_REACTORS
330
7C2
102
}
330
1D
100
AcDbEntity
  8
23
  6
Continuous
 62
     7
100
AcDbLine
 10
52.6
 20
5.0
 30
0.0
 11
52.6
 21
7.9
 31
0.0
  0
LINE
  5
8A
102
{ACAD_REACTORS
330
7C2
102
}
330
1D
100
AcDbEntity
  8
23
  6
Continuous
 62
     7
100
AcDbLine
 10
92.1
 20
5.0
 30
0.0
 11
52.6
 21
5.0
 31
0.0
  0
LINE
  5
8B
102
{ACAD_REACTORS
330
7C2
102
}
330
1D
100
AcDbEntity
  8
23
  6
Continuous
 62
     7
100
AcDbLine
 10
92.1
 20
7.9
 30
0.0
 11
92.1
 21
5.0
 31
0.0
  0
ARC
  5
8C
102
{ACAD_REACTORS
330
7C2
102
}
330
1D
100
AcDbEntity
  8
23
  6
Continuous
 62
     7
100
AcDbCircle
 10
92.1
 20
8.95
 30
0.0
 40
1.05
100
AcDbArc
 50
90.0
 51
270.0
  0
LINE
  5
8D
102
{ACAD_REACTORS
330
7C2
102
}
330
1D
100
AcDbEntity
  8
23
  6
Continuous
 62
     7
100
AcDbLine
 10
94.1
 20
10.0
 30
0.0
 11
92.1
 21
10.0
 31
0.0
  0
LINE
  5
8E
102
{ACAD_REACTORS
330
7C2
102
}
330
1D
100
AcDbEntity
  8
23
  6
Continuous
 62
     7
100
AcDbLine
 10
94.1
 20
32.0
 30
0.0
 11
94.1
 21
10.0
 31
0.0
  0
LINE
  5
8F
102
{ACAD_REACTORS
330
7C2
102
}
330
1D
100
AcDbEntity
  8
23
  6
Continuous
 62
     7
100
AcDbLine
 10
92.1
 20
32.0
 30
0.0
 11
94.1
 21
32.0
 31
0.0
  0
ARC
  5
90
102
{ACAD_REACTORS
330
7C2
102
}
330
1D
100
AcDbEntity
  8
23
  6
Continuous
 62
     7
100
AcDbCircle
 10
92.1
 20
33.05
 30
0.0
 40
1.05
100
AcDbArc
 50
90.0
 51
270.0
  0
LINE
  5
91
102
{ACAD_REACTORS
330
7C2
102
}
330
1D
100
AcDbEntity
  8
23
  6
Continuous
 62
     7
100
AcDbLine
 10
92.1
 20
37.0
 30
0.0
 11
92.1
 21
34.1
 31
0.0
  0
LINE
  5
92
102
{ACAD_REACTORS
330
7C2
102
}
330
1D
100
AcDbEntity
  8
23
  6
Continuous
 62
     7
100
AcDbLine
 10
85.311481
 20
37.0
 30
0.0
 11
92.1
 21
37.0
 31
0.0
  0
ARC
  5
93
102
{ACAD_REACTORS
330
7C2
102
}
330
1D
100
AcDbEntity
  8
23
  6
Continuous
 62
     7
100
AcDbCircle
 10
85.85
 20
8.0
 30
0.0
 40
3.0
100
AcDbArc
 50
97.18075599999996
 51
150.0
  0
LINE
  5
94
102
{ACAD_REACTORS
330
7C2
102
}
330
1D
100
AcDbEntity
  8
23
  6
Continuous
 62
     7
100
AcDbLine
 10
80.653848
 20
8.0
 30
0.0
 11
64.046152
 21
8.0
 31
0.0
  0
ARC
  5
95
102
{ACAD_REACTORS
330
7C2
102
}
330
1D
100
AcDbEntity
  8
23
  6
Continuous
 62
     7
100
AcDbCircle
 10
58.85
 20
8.0
 30
0.0
 40
3.0
100
AcDbArc
 50
30.0
 51
82.81924400000005
  0
LINE
  5
96
102
{ACAD_REACTORS
330
7C2
102
}
330
1D
100
AcDbEntity
  8
23
  6
Continuous
 62
     7
100
AcDbLine
 10
56.6
 20
13.95294
 30
0.0
 11
56.6
 21
26.333693
 31
0.0
  0
ARC
  5
97
102
{ACAD_REACTORS
330
7C2
102
}
330
1D
100
AcDbEntity
  8
23
  6
Continuous
 62
     7
100
AcDbCircle
 10
72.35
 20
36.0
 30
0.0
 40
13.0
100
AcDbArc
 50
217.167285
 51
322.832715
  0
LINE
  5
98
102
{ACAD_REACTORS
330
7C2
102
}
330
1D
100
AcDbEntity
  8
23
  6
Continuous
 62
     7
100
AcDbLine
 10
88.1
 20
26.333693
 30
0.0
 11
88.1
 21
13.95294
 31
0.0
  0
ARC
  5
99
102
{ACAD_REACTORS
330
7C4
102
}
330
1D
100
AcDbEntity
  8
23
  6
Continuous
 62
     7
100
AcDbCircle
 10
59.388519
 20
41.1
 30
0.0
 40
2.0
100
AcDbArc
 50
270.0
 51
355.588274
  0
ARC
  5
9A
102
{ACAD_REACTORS
330
7C4
102
}
330
1D
100
AcDbEntity
  8
23
  6
Continuous
 62
     7
100
AcDbCircle
 10
80.653848
 20
65.1
 30
0.0
 40
3.0
100
AcDbArc
 50
30.0
 51
90.0
  0
ARC
  5
9B
102
{ACAD_REACTORS
330
7C4
102
}
330
1D
100
AcDbEntity
  8
23
  6
Continuous
 62
     7
100
AcDbCircle
 10
64.046152
 20
65.1
 30
0.0
 40
3.0
100
AcDbArc
 50
90.0
 51
150.0000000000001
  0
ARC
  5
9C
102
{ACAD_REACTORS
330
7C4
102
}
330
1D
100
AcDbEntity
  8
23
  6
Continuous
 62
     7
100
AcDbCircle
 10
59.6
 20
62.14706
 30
0.0
 40
3.0
100
AcDbArc
 50
97.18075599999996
 51
180.0
  0
ARC
  5
9D
102
{ACAD_REACTORS
330
7C4
102
}
330
1D
100
AcDbEntity
  8
23
  6
Continuous
 62
     7
100
AcDbCircle
 10
59.6
 20
49.766307
 30
0.0
 40
3.0
100
AcDbArc
 50
180.0
 51
322.8327150000001
  0
ARC
  5
9E
102
{ACAD_REACTORS
330
7C4
102
}
330
1D
100
AcDbEntity
  8
23
  6
Continuous
 62
     7
100
AcDbCircle
 10
85.1
 20
49.766307
 30
0.0
 40
3.0
100
AcDbArc
 50
217.1672849999999
 51
0.0
  0
ARC
  5
9F
102
{ACAD_REACTORS
330
7C4
102
}
330
1D
100
AcDbEntity
  8
23
  6
Continuous
 62
     7
100
AcDbCircle
 10
85.1
 20
62.14706
 30
0.0
 40
3.0
100
AcDbArc
 50
0.0
 51
82.81924400000007
  0
ARC
  5
A0
102
{ACAD_REACTORS
330
7C4
102
}
330
1D
100
AcDbEntity
  8
23
  6
Continuous
 62
     7
100
AcDbCircle
 10
85.311481
 20
41.1
 30
0.0
 40
2.0
100
AcDbArc
 50
184.411726
 51
270.0
  0
ARC
  5
A1
102
{ACAD_REACTORS
330
7C4
102
}
330
1D
100
AcDbEntity
  8
23
  6
Continuous
 62
     7
100
AcDbCircle
 10
72.35
 20
40.1
 30
0.0
 40
11.0
100
AcDbArc
 50
4.411726000000018
 51
175.588274
  0
CIRCLE
  5
A2
102
{ACAD_REACTORS
330
7C4
102
}
330
1D
100
AcDbEntity
  8
23
  6
Continuous
 62
     7
100
AcDbCircle
 10
58.85
 20
68.1
 30
0.0
 40
1.35
  0
CIRCLE
  5
A3
102
{ACAD_REACTORS
330
7C4
102
}
330
1D
100
AcDbEntity
  8
23
  6
Continuous
 62
     7
100
AcDbCircle
 10
85.85
 20
68.1
 30
0.0
 40
1.35
  0
CIRCLE
  5
A4
102
{ACAD_REACTORS
330
7C4
102
}
330
1D
100
AcDbEntity
  8
23
  6
Continuous
 62
     7
100
AcDbCircle
 10
58.85
 20
41.1
 30
0.0
 40
1.35
  0
CIRCLE
  5
A5
102
{ACAD_REACTORS
330
7C4
102
}
330
1D
100
AcDbEntity
  8
23
  6
Continuous
 62
     7
100
AcDbCircle
 10
85.85
 20
41.1
 30
0.0
 40
1.35
  0
LINE
  5
A6
102
{ACAD_REACTORS
330
7C4
102
}
330
1D
100
AcDbEntity
  8
23
  6
Continuous
 62
     7
100
AcDbLine
 10
52.6
 20
39.1
 30
0.0
 11
59.388519
 21
39.1
 31
0.0
  0
LINE
  5
A7
102
{ACAD_REACTORS
330
7C4
102
}
330
1D
100
AcDbEntity
  8
23
  6
Continuous
 62
     7
100
AcDbLine
 10
52.6
 20
42.0
 30
0.0
 11
52.6
 21
39.1
 31
0.0
  0
ARC
  5
A8
102
{ACAD_REACTORS
330
7C4
102
}
330
1D
100
AcDbEntity
  8
23
  6
Continuous
 62
     7
100
AcDbCircle
 10
52.6
 20
43.05
 30
0.0
 40
1.05
100
AcDbArc
 50
270.0
 51
90.0
  0
LINE
  5
A9
102
{ACAD_REACTORS
330
7C4
102
}
330
1D
100
AcDbEntity
  8
23
  6
Continuous
 62
     7
100
AcDbLine
 10
50.6
 20
44.1
 30
0.0
 11
52.6
 21
44.1
 31
0.0
  0
LINE
  5
AA
102
{ACAD_REACTORS
330
7C4
102
}
330
1D
100
AcDbEntity
  8
23
  6
Continuous
 62
     7
100
AcDbLine
 10
50.6
 20
66.1
 30
0.0
 11
50.6
 21
44.1
 31
0.0
  0
LINE
  5
AB
102
{ACAD_REACTORS
330
7C4
102
}
330
1D
100
AcDbEntity
  8
23
  6
Continuous
 62
     7
100
AcDbLine
 10
52.6
 20
66.1
 30
0.0
 11
50.6
 21
66.1
 31
0.0
  0
ARC
  5
AC
102
{ACAD_REACTORS
330
7C4
102
}
330
1D
100
AcDbEntity
  8
23
  6
Continuous
 62
     7
100
AcDbCircle
 10
52.6
 20
67.15
 30
0.0
 40
1.05
100
AcDbArc
 50
270.0
 51
90.0
  0
LINE
  5
AD
102
{ACAD_REACTORS
330
7C4
102
}
330
1D
100
AcDbEntity
  8
23
  6
Continuous
 62
     7
100
AcDbLine
 10
52.6
 20
71.1
 30
0.0
 11
52.6
 21
68.2
 31
0.0
  0
LINE
  5
AE
102
{ACAD_REACTORS
330
7C4
102
}
330
1D
100
AcDbEntity
  8
23
  6
Continuous
 62
     7
100
AcDbLine
 10
92.1
 20
71.1
 30
0.0
 11
52.6
 21
71.1
 31
0.0
  0
LINE
  5
AF
102
{ACAD_REACTORS
330
7C4
102
}
330
1D
100
AcDbEntity
  8
23
  6
Continuous
 62
     7
100
AcDbLine
 10
92.1
 20
68.2
 30
0.0
 11
92.1
 21
71.1
 31
0.0
  0
ARC
  5
B0
102
{ACAD_REACTORS
330
7C4
102
}
330
1D
100
AcDbEntity
  8
23
  6
Continuous
 62
     7
100
AcDbCircle
 10
92.1
 20
67.15
 30
0.0
 40
1.05
100
AcDbArc
 50
90.0
 51
270.0
  0
LINE
  5
B1
102
{ACAD_REACTORS
330
7C4
102
}
330
1D
100
AcDbEntity
  8
23
  6
Continuous
 62
     7
100
AcDbLine
 10
94.1
 20
66.1
 30
0.0
 11
92.1
 21
66.1
 31
0.0
  0
LINE
  5
B2
102
{ACAD_REACTORS
330
7C4
102
}
330
1D
100
AcDbEntity
  8
23
  6
Continuous
 62
     7
100
AcDbLine
 10
94.1
 20
44.1
 30
0.0
 11
94.1
 21
66.1
 31
0.0
  0
LINE
  5
B3
102
{ACAD_REACTORS
330
7C4
102
}
330
1D
100
AcDbEntity
  8
23
  6
Continuous
 62
     7
100
AcDbLine
 10
92.1
 20
44.1
 30
0.0
 11
94.1
 21
44.1
 31
0.0
  0
ARC
  5
B4
102
{ACAD_REACTORS
330
7C4
102
}
330
1D
100
AcDbEntity
  8
23
  6
Continuous
 62
     7
100
AcDbCircle
 10
92.1
 20
43.05
 30
0.0
 40
1.05
100
AcDbArc
 50
90.0
 51
270.0
  0
LINE
  5
B5
102
{ACAD_REACTORS
330
7C4
102
}
330
1D
100
AcDbEntity
  8
23
  6
Continuous
 62
     7
100
AcDbLine
 10
92.1
 20
39.1
 30
0.0
 11
92.1
 21
42.0
 31
0.0
  0
LINE
  5
B6
102
{ACAD_REACTORS
330
7C4
102
}
330
1D
100
AcDbEntity
  8
23
  6
Continuous
 62
     7
100
AcDbLine
 10
85.311481
 20
39.1
 30
0.0
 11
92.1
 21
39.1
 31
0.0
  0
ARC
  5
B7
102
{ACAD_REACTORS
330
7C4
102
}
330
1D
100
AcDbEntity
  8
23
  6
Continuous
 62
     7
100
AcDbCircle
 10
85.85
 20
68.1
 30
0.0
 40
3.0
100
AcDbArc
 50
210.0
 51
262.819244
  0
LINE
  5
B8
102
{ACAD_REACTORS
330
7C4
102
}
330
1D
100
AcDbEntity
  8
23
  6
Continuous
 62
     7
100
AcDbLine
 10
80.653848
 20
68.1
 30
0.0
 11
64.046152
 21
68.1
 31
0.0
  0
ARC
  5
B9
102
{ACAD_REACTORS
330
7C4
102
}
330
1D
100
AcDbEntity
  8
23
  6
Continuous
 62
     7
100
AcDbCircle
 10
58.85
 20
68.1
 30
0.0
 40
3.0
100
AcDbArc
 50
277.180756
 51
330.0
  0
LINE
  5
BA
102
{ACAD_REACTORS
330
7C4
102
}
330
1D
100
AcDbEntity
  8
23
  6
Continuous
 62
     7
100
AcDbLine
 10
56.6
 20
62.14706
 30
0.0
 11
56.6
 21
49.766307
 31
0.0
  0
ARC
  5
BB
102
{ACAD_REACTORS
330
7C4
102
}
330
1D
100
AcDbEntity
  8
23
  6
Continuous
 62
     7
100
AcDbCircle
 10
72.35
 20
40.1
 30
0.0
 40
13.0
100
AcDbArc
 50
37.16728500000001
 51
142.832715
  0
LINE
  5
BC
102
{ACAD_REACTORS
330
7C4
102
}
330
1D
100
AcDbEntity
  8
23
  6
Continuous
 62
     7
100
AcDbLine
 10
88.1
 20
49.766307
 30
0.0
 11
88.1
 21
62.14706
 31
0.0
  0
ARC
  5
E7
102
{ACAD_REACTORS
330
7BB
102
}
330
1D
100
AcDbEntity
  8
23
  6
Continuous
 62
     7
100
AcDbCircle
 10
61.2
 20
77.02334
 30
0.0
 40
2.0
100
AcDbArc
 50
121.999256
 51
180.0
  0
ARC
  5
E8
102
{ACAD_REACTORS
330
7BB
102
}
330
1D
100
AcDbEntity
  8
23
  6
Continuous
 62
     7
100
AcDbCircle
 10
64.806612
 20
93.884953
 30
0.0
 40
2.0
100
AcDbArc
 50
167.2266570000002
 51
213.854058
  0
ARC
  5
E9
102
{ACAD_REACTORS
330
7BB
102
}
330
1D
100
AcDbEntity
  8
23
  6
Continuous
 62
     7
100
AcDbCircle
 10
54.841101
 20
87.2
 30
0.0
 40
10.0
100
AcDbArc
 50
301.9992559999999
 51
33.85405800000004
  0
LINE
  5
EA
102
{ACAD_REACTORS
330
7BB
102
}
330
1D
100
AcDbEntity
  8
23
  6
Continuous
 62
     7
100
AcDbLine
 10
59.2
 20
77.02334
 30
0.0
 11
59.2
 21
73.2
 31
0.0
  0
LINE
  5
EB
102
{ACAD_REACTORS
330
7BB
102
}
330
1D
100
AcDbEntity
  8
23
  6
Continuous
 62
     7
100
AcDbLine
 10
59.2
 20
73.2
 30
0.0
 11
84.2
 21
73.2
 31
0.0
  0
LINE
  5
EC
102
{ACAD_REACTORS
330
7BB
102
}
330
1D
100
AcDbEntity
  8
23
  6
Continuous
 62
     7
100
AcDbLine
 10
84.2
 20
73.2
 30
0.0
 11
84.2
 21
78.2
 31
0.0
  0
LINE
  5
ED
102
{ACAD_REACTORS
330
7BB
102
}
330
1D
100
AcDbEntity
  8
23
  6
Continuous
 62
     7
100
AcDbLine
 10
84.2
 20
78.2
 30
0.0
 11
77.551514
 21
107.526569
 31
0.0
  0
ARC
  5
EE
102
{ACAD_REACTORS
330
7BB
102
}
330
1D
100
AcDbEntity
  8
23
  6
Continuous
 62
     7
100
AcDbCircle
 10
71.7
 20
106.2
 30
0.0
 40
6.0
100
AcDbArc
 50
12.77334300000002
 51
167.226657
  0
LINE
  5
EF
102
{ACAD_REACTORS
330
7BB
102
}
330
1D
100
AcDbEntity
  8
23
  6
Continuous
 62
     7
100
AcDbLine
 10
65.84848600000001
 20
107.526569
 30
0.0
 11
62.856108
 21
94.327142
 31
0.0
  0
CIRCLE
  5
F0
102
{ACAD_REACTORS
330
7BB
102
}
330
1D
100
AcDbEntity
  8
23
  6
Continuous
 62
     7
100
AcDbCircle
 10
62.2
 20
75.7
 30
0.0
 40
1.55
  0
CIRCLE
  5
F1
102
{ACAD_REACTORS
330
7BB
102
}
330
1D
100
AcDbEntity
  8
23
  6
Continuous
 62
     7
100
AcDbCircle
 10
81.2
 20
75.7
 30
0.0
 40
1.55
  0
CIRCLE
  5
F2
102
{ACAD_REACTORS
330
7BB
102
}
330
1D
100
AcDbEntity
  8
23
  6
Continuous
 62
     7
100
AcDbCircle
 10
71.7
 20
106.2
 30
0.0
 40
4.05
  0
ARC
  5
F3
102
{ACAD_REACTORS
330
7BB
102
}
330
1D
100
AcDbEntity
  8
23
  6
Continuous
 62
     7
100
AcDbCircle
 10
67.2
 20
75.65
 30
0.0
 40
1.05
100
AcDbArc
 50
180.0
 51
0.0
  0
LINE
  5
F4
102
{ACAD_REACTORS
330
7BB
102
}
330
1D
100
AcDbEntity
  8
23
  6
Continuous
 62
     7
100
AcDbLine
 10
66.15
 20
75.65
 30
0.0
 11
66.15
 21
78.25
 31
0.0
  0
ARC
  5
F5
102
{ACAD_REACTORS
330
7BB
102
}
330
1D
100
AcDbEntity
  8
23
  6
Continuous
 62
     7
100
AcDbCircle
 10
67.2
 20
78.25
 30
0.0
 40
1.05
100
AcDbArc
 50
0.0
 51
180.0
  0
LINE
  5
F6
102
{ACAD_REACTORS
330
7BB
102
}
330
1D
100
AcDbEntity
  8
23
  6
Continuous
 62
     7
100
AcDbLine
 10
68.25
 20
78.25
 30
0.0
 11
75.15
 21
78.25
 31
0.0
  0
ARC
  5
F7
102
{ACAD_REACTORS
330
7BB
102
}
330
1D
100
AcDbEntity
  8
23
  6
Continuous
 62
     7
100
AcDbCircle
 10
76.2
 20
78.25
 30
0.0
 40
1.05
100
AcDbArc
 50
0.0
 51
180.0
  0
LINE
  5
F8
102
{ACAD_REACTORS
330
7BB
102
}
330
1D
100
AcDbEntity
  8
23
  6
Continuous
 62
     7
100
AcDbLine
 10
77.25
 20
78.25
 30
0.0
 11
77.25
 21
75.65
 31
0.0
  0
ARC
  5
F9
102
{ACAD_REACTORS
330
7BB
102
}
330
1D
100
AcDbEntity
  8
23
  6
Continuous
 62
     7
100
AcDbCircle
 10
76.2
 20
75.65
 30
0.0
 40
1.05
100
AcDbArc
 50
180.0
 51
0.0
  0
LINE
  5
FA
102
{ACAD_REACTORS
330
7BB
102
}
330
1D
100
AcDbEntity
  8
23
  6
Continuous
 62
     7
100
AcDbLine
 10
75.15
 20
75.65
 30
0.0
 11
68.25
 21
75.65
 31
0.0
  0
CIRCLE
  5
187
102
{ACAD_REACTORS
330
7C0
102
}
330
1D
100
AcDbEntity
  8
24
  6
Continuous
 62
     7
100
AcDbCircle
 10
108.7
 20
41.0
 30
0.0
 40
5.05
  0
CIRCLE
  5
188
102
{ACAD_REACTORS
330
7C0
102
}
330
1D
100
AcDbEntity
  8
24
  6
Continuous
 62
     7
100
AcDbCircle
 10
118.2
 20
8.0
 30
0.0
 40
1.55
  0
CIRCLE
  5
189
102
{ACAD_REACTORS
330
7C0
102
}
330
1D
100
AcDbEntity
  8
24
  6
Continuous
 62
     7
100
AcDbCircle
 10
108.7
 20
8.0
 30
0.0
 40
1.55
  0
CIRCLE
  5
18A
102
{ACAD_REACTORS
330
7C0
102
}
330
1D
100
AcDbEntity
  8
24
  6
Continuous
 62
     7
100
AcDbCircle
 10
99.2
 20
8.0
 30
0.0
 40
1.55
  0
CIRCLE
  5
18B
102
{ACAD_REACTORS
330
7C0
102
}
330
1D
100
AcDbEntity
  8
24
  6
Continuous
 62
     7
100
AcDbCircle
 10
108.7
 20
49.5
 30
0.0
 40
1.35
  0
CIRCLE
  5
18C
102
{ACAD_REACTORS
330
7C0
102
}
330
1D
100
AcDbEntity
  8
24
  6
Continuous
 62
     7
100
AcDbCircle
 10
117.2
 20
41.0
 30
0.0
 40
1.35
  0
CIRCLE
  5
18D
102
{ACAD_REACTORS
330
7C0
102
}
330
1D
100
AcDbEntity
  8
24
  6
Continuous
 62
     7
100
AcDbCircle
 10
108.7
 20
32.5
 30
0.0
 40
1.35
  0
CIRCLE
  5
18E
102
{ACAD_REACTORS
330
7C0
102
}
330
1D
100
AcDbEntity
  8
24
  6
Continuous
 62
     7
100
AcDbCircle
 10
100.2
 20
41.0
 30
0.0
 40
1.35
  0
LINE
  5
18F
102
{ACAD_REACTORS
330
7C0
102
}
330
1D
100
AcDbEntity
  8
24
  6
Continuous
 62
     7
100
AcDbLine
 10
96.2
 20
11.0
 30
0.0
 11
96.2
 21
5.0
 31
0.0
  0
LINE
  5
190
102
{ACAD_REACTORS
330
7C0
102
}
330
1D
100
AcDbEntity
  8
24
  6
Continuous
 62
     7
100
AcDbLine
 10
97.713479
 20
41.544384
 30
0.0
 11
96.2
 21
11.0
 31
0.0
  0
ARC
  5
191
102
{ACAD_REACTORS
330
7C0
102
}
330
1D
100
AcDbEntity
  8
24
  6
Continuous
 62
     7
100
AcDbCircle
 10
108.7
 20
41.0
 30
0.0
 40
11.0
100
AcDbArc
 50
2.836694999999997
 51
177.163305
  0
LINE
  5
192
102
{ACAD_REACTORS
330
7C0
102
}
330
1D
100
AcDbEntity
  8
24
  6
Continuous
 62
     7
100
AcDbLine
 10
121.2
 20
11.0
 30
0.0
 11
119.686521
 21
41.544384
 31
0.0
  0
LINE
  5
193
102
{ACAD_REACTORS
330
7C0
102
}
330
1D
100
AcDbEntity
  8
24
  6
Continuous
 62
     7
100
AcDbLine
 10
121.2
 20
5.0
 30
0.0
 11
121.2
 21
11.0
 31
0.0
  0
LINE
  5
194
102
{ACAD_REACTORS
330
7C0
102
}
330
1D
100
AcDbEntity
  8
24
  6
Continuous
 62
     7
100
AcDbLine
 10
96.2
 20
5.0
 30
0.0
 11
121.2
 21
5.0
 31
0.0
  0
ARC
  5
195
102
{ACAD_REACTORS
330
7BF
102
}
330
1D
100
AcDbEntity
  8
24
  6
Continuous
 62
     7
100
AcDbCircle
 10
125.3
 20
9.892509
 30
0.0
 40
2.0
100
AcDbArc
 50
123.9744760000002
 51
180.0
  0
ARC
  5
196
102
{ACAD_REACTORS
330
7BF
102
}
330
1D
100
AcDbEntity
  8
24
  6
Continuous
 62
     7
100
AcDbCircle
 10
130.063966
 20
33.239125
 30
0.0
 40
2.0
100
AcDbArc
 50
168.0188439999999
 51
212.9593429999999
  0
LINE
  5
197
102
{ACAD_REACTORS
330
7BF
102
}
330
1D
100
AcDbEntity
  8
24
  6
Continuous
 62
     7
100
AcDbLine
 10
123.3
 20
9.892509
 30
0.0
 11
123.3
 21
5.0
 31
0.0
  0
LINE
  5
198
102
{ACAD_REACTORS
330
7BF
102
}
330
1D
100
AcDbEntity
  8
24
  6
Continuous
 62
     7
100
AcDbLine
 10
129.930704
 20
42.24554
 30
0.0
 11
128.107534
 21
33.654305
 31
0.0
  0
LINE
  5
199
102
{ACAD_REACTORS
330
7BF
102
}
330
1D
100
AcDbEntity
  8
24
  6
Continuous
 62
     7
100
AcDbLine
 10
123.3
 20
5.0
 30
0.0
 11
148.3
 21
5.0
 31
0.0
  0
LINE
  5
19A
102
{ACAD_REACTORS
330
7BF
102
}
330
1D
100
AcDbEntity
  8
24
  6
Continuous
 62
     7
100
AcDbLine
 10
148.3
 20
5.0
 30
0.0
 11
148.3
 21
11.0
 31
0.0
  0
LINE
  5
19B
102
{ACAD_REACTORS
330
7BF
102
}
330
1D
100
AcDbEntity
  8
24
  6
Continuous
 62
     7
100
AcDbLine
 10
148.3
 20
11.0
 30
0.0
 11
141.669296
 21
42.24554
 31
0.0
  0
ARC
  5
19C
102
{ACAD_REACTORS
330
7BF
102
}
330
1D
100
AcDbEntity
  8
24
  6
Continuous
 62
     7
100
AcDbCircle
 10
135.8
 20
41.0
 30
0.0
 40
6.0
100
AcDbArc
 50
11.98115600000001
 51
168.0188439999999
  0
CIRCLE
  5
19D
102
{ACAD_REACTORS
330
7BF
102
}
330
1D
100
AcDbEntity
  8
24
  6
Continuous
 62
     7
100
AcDbCircle
 10
126.3
 20
8.0
 30
0.0
 40
1.55
  0
CIRCLE
  5
19E
102
{ACAD_REACTORS
330
7BF
102
}
330
1D
100
AcDbEntity
  8
24
  6
Continuous
 62
     7
100
AcDbCircle
 10
135.8
 20
8.0
 30
0.0
 40
1.55
  0
CIRCLE
  5
19F
102
{ACAD_REACTORS
330
7BF
102
}
330
1D
100
AcDbEntity
  8
24
  6
Continuous
 62
     7
100
AcDbCircle
 10
145.3
 20
8.0
 30
0.0
 40
1.55
  0
CIRCLE
  5
1A0
102
{ACAD_REACTORS
330
7BF
102
}
330
1D
100
AcDbEntity
  8
24
  6
Continuous
 62
     7
100
AcDbCircle
 10
135.8
 20
41.0
 30
0.0
 40
4.05
  0
ARC
  5
1A1
102
{ACAD_REACTORS
330
7BF
102
}
330
1D
100
AcDbEntity
  8
24
  6
Continuous
 62
     7
100
AcDbCircle
 10
115.8
 20
23.990381
 30
0.0
 40
15.0
100
AcDbArc
 50
303.974476
 51
32.95934300000003
  0
CIRCLE
  5
1A2
102
{ACAD_REACTORS
330
7BD
102
}
330
1D
100
AcDbEntity
  8
24
  6
Continuous
 62
     7
100
AcDbCircle
 10
108.7
 20
65.1
 30
0.0
 40
5.05
  0
CIRCLE
  5
1A3
102
{ACAD_REACTORS
330
7BD
102
}
330
1D
100
AcDbEntity
  8
24
  6
Continuous
 62
     7
100
AcDbCircle
 10
118.2
 20
98.1
 30
0.0
 40
1.55
  0
CIRCLE
  5
1A4
102
{ACAD_REACTORS
330
7BD
102
}
330
1D
100
AcDbEntity
  8
24
  6
Continuous
 62
     7
100
AcDbCircle
 10
108.7
 20
98.1
 30
0.0
 40
1.55
  0
CIRCLE
  5
1A5
102
{ACAD_REACTORS
330
7BD
102
}
330
1D
100
AcDbEntity
  8
24
  6
Continuous
 62
     7
100
AcDbCircle
 10
99.2
 20
98.1
 30
0.0
 40
1.55
  0
CIRCLE
  5
1A6
102
{ACAD_REACTORS
330
7BD
102
}
330
1D
100
AcDbEntity
  8
24
  6
Continuous
 62
     7
100
AcDbCircle
 10
108.7
 20
56.6
 30
0.0
 40
1.35
  0
CIRCLE
  5
1A7
102
{ACAD_REACTORS
330
7BD
102
}
330
1D
100
AcDbEntity
  8
24
  6
Continuous
 62
     7
100
AcDbCircle
 10
117.2
 20
65.1
 30
0.0
 40
1.35
  0
CIRCLE
  5
1A8
102
{ACAD_REACTORS
330
7BD
102
}
330
1D
100
AcDbEntity
  8
24
  6
Continuous
 62
     7
100
AcDbCircle
 10
108.7
 20
73.6
 30
0.0
 40
1.35
  0
CIRCLE
  5
1A9
102
{ACAD_REACTORS
330
7BD
102
}
330
1D
100
AcDbEntity
  8
24
  6
Continuous
 62
     7
100
AcDbCircle
 10
100.2
 20
65.1
 30
0.0
 40
1.35
  0
LINE
  5
1AA
102
{ACAD_REACTORS
330
7BD
102
}
330
1D
100
AcDbEntity
  8
24
  6
Continuous
 62
     7
100
AcDbLine
 10
96.2
 20
95.1
 30
0.0
 11
96.2
 21
101.1
 31
0.0
  0
LINE
  5
1AB
102
{ACAD_REACTORS
330
7BD
102
}
330
1D
100
AcDbEntity
  8
24
  6
Continuous
 62
     7
100
AcDbLine
 10
97.713479
 20
64.555616
 30
0.0
 11
96.2
 21
95.1
 31
0.0
  0
ARC
  5
1AC
102
{ACAD_REACTORS
330
7BD
102
}
330
1D
100
AcDbEntity
  8
24
  6
Continuous
 62
     7
100
AcDbCircle
 10
108.7
 20
65.1
 30
0.0
 40
11.0
100
AcDbArc
 50
182.8366949999999
 51
357.163305
  0
LINE
  5
1AD
102
{ACAD_REACTORS
330
7BD
102
}
330
1D
100
AcDbEntity
  8
24
  6
Continuous
 62
     7
100
AcDbLine
 10
121.2
 20
95.1
 30
0.0
 11
119.686521
 21
64.555616
 31
0.0
  0
LINE
  5
1AE
102
{ACAD_REACTORS
330
7BD
102
}
330
1D
100
AcDbEntity
  8
24
  6
Continuous
 62
     7
100
AcDbLine
 10
121.2
 20
101.1
 30
0.0
 11
121.2
 21
95.1
 31
0.0
  0
LINE
  5
1AF
102
{ACAD_REACTORS
330
7BD
102
}
330
1D
100
AcDbEntity
  8
24
  6
Continuous
 62
     7
100
AcDbLine
 10
96.2
 20
101.1
 30
0.0
 11
121.2
 21
101.1
 31
0.0
  0
ARC
  5
1B0
102
{ACAD_REACTORS
330
7BE
102
}
330
1D
100
AcDbEntity
  8
24
  6
Continuous
 62
     7
100
AcDbCircle
 10
125.3
 20
96.207491
 30
0.0
 40
2.0
100
AcDbArc
 50
180.0
 51
236.0255239999998
  0
ARC
  5
1B1
102
{ACAD_REACTORS
330
7BE
102
}
330
1D
100
AcDbEntity
  8
24
  6
Continuous
 62
     7
100
AcDbCircle
 10
130.063966
 20
72.860875
 30
0.0
 40
2.0
100
AcDbArc
 50
147.0406570000001
 51
191.9811560000001
  0
LINE
  5
1B2
102
{ACAD_REACTORS
330
7BE
102
}
330
1D
100
AcDbEntity
  8
24
  6
Continuous
 62
     7
100
AcDbLine
 10
123.3
 20
96.207491
 30
0.0
 11
123.3
 21
101.1
 31
0.0
  0
LINE
  5
1B3
102
{ACAD_REACTORS
330
7BE
102
}
330
1D
100
AcDbEntity
  8
24
  6
Continuous
 62
     7
100
AcDbLine
 10
129.930704
 20
63.85446
 30
0.0
 11
128.107534
 21
72.445695
 31
0.0
  0
LINE
  5
1B4
102
{ACAD_REACTORS
330
7BE
102
}
330
1D
100
AcDbEntity
  8
24
  6
Continuous
 62
     7
100
AcDbLine
 10
123.3
 20
101.1
 30
0.0
 11
148.3
 21
101.1
 31
0.0
  0
LINE
  5
1B5
102
{ACAD_REACTORS
330
7BE
102
}
330
1D
100
AcDbEntity
  8
24
  6
Continuous
 62
     7
100
AcDbLine
 10
148.3
 20
101.1
 30
0.0
 11
148.3
 21
95.1
 31
0.0
  0
LINE
  5
1B6
102
{ACAD_REACTORS
330
7BE
102
}
330
1D
100
AcDbEntity
  8
24
  6
Continuous
 62
     7
100
AcDbLine
 10
148.3
 20
95.1
 30
0.0
 11
141.669296
 21
63.85446
 31
0.0
  0
ARC
  5
1B7
102
{ACAD_REACTORS
330
7BE
102
}
330
1D
100
AcDbEntity
  8
24
  6
Continuous
 62
     7
100
AcDbCircle
 10
135.8
 20
65.1
 30
0.0
 40
6.0
100
AcDbArc
 50
191.981156
 51
348.0188440000001
  0
CIRCLE
  5
1B8
102
{ACAD_REACTORS
330
7BE
102
}
330
1D
100
AcDbEntity
  8
24
  6
Continuous
 62
     7
100
AcDbCircle
 10
126.3
 20
98.1
 30
0.0
 40
1.55
  0
CIRCLE
  5
1B9
102
{ACAD_REACTORS
330
7BE
102
}
330
1D
100
AcDbEntity
  8
24
  6
Continuous
 62
     7
100
AcDbCircle
 10
135.8
 20
98.1
 30
0.0
 40
1.55
  0
CIRCLE
  5
1BA
102
{ACAD_REACTORS
330
7BE
102
}
330
1D
100
AcDbEntity
  8
24
  6
Continuous
 62
     7
100
AcDbCircle
 10
145.3
 20
98.1
 30
0.0
 40
1.55
  0
CIRCLE
  5
1BB
102
{ACAD_REACTORS
330
7BE
102
}
330
1D
100
AcDbEntity
  8
24
  6
Continuous
 62
     7
100
AcDbCircle
 10
135.8
 20
65.1
 30
0.0
 40
4.05
  0
ARC
  5
1BC
102
{ACAD_REACTORS
330
7BE
102
}
330
1D
100
AcDbEntity
  8
24
  6
Continuous
 62
     7
100
AcDbCircle
 10
115.8
 20
82.109619
 30
0.0
 40
15.0
100
AcDbArc
 50
327.040657
 51
56.025524
  0
ARC
  5
1BD
102
{ACAD_REACTORS
330
7BC
102
}
330
1D
100
AcDbEntity
  8
23
  6
Continuous
 62
     7
100
AcDbCircle
 10
111.2
 20
107.02334
 30
0.0
 40
2.0
100
AcDbArc
 50
0.0
 51
58.00074399999999
  0
ARC
  5
1BE
102
{ACAD_REACTORS
330
7BC
102
}
330
1D
100
AcDbEntity
  8
23
  6
Continuous
 62
     7
100
AcDbCircle
 10
107.593388
 20
123.884953
 30
0.0
 40
2.0
100
AcDbArc
 50
326.145942
 51
12.77334299999992
  0
ARC
  5
1BF
102
{ACAD_REACTORS
330
7BC
102
}
330
1D
100
AcDbEntity
  8
23
  6
Continuous
 62
     7
100
AcDbCircle
 10
117.558899
 20
117.2
 30
0.0
 40
10.0
100
AcDbArc
 50
146.145942
 51
238.0007440000001
  0
LINE
  5
1C0
102
{ACAD_REACTORS
330
7BC
102
}
330
1D
100
AcDbEntity
  8
23
  6
Continuous
 62
     7
100
AcDbLine
 10
113.2
 20
107.02334
 30
0.0
 11
113.2
 21
103.2
 31
0.0
  0
LINE
  5
1C1
102
{ACAD_REACTORS
330
7BC
102
}
330
1D
100
AcDbEntity
  8
23
  6
Continuous
 62
     7
100
AcDbLine
 10
113.2
 20
103.2
 30
0.0
 11
88.2
 21
103.2
 31
0.0
  0
LINE
  5
1C2
102
{ACAD_REACTORS
330
7BC
102
}
330
1D
100
AcDbEntity
  8
23
  6
Continuous
 62
     7
100
AcDbLine
 10
88.2
 20
103.2
 30
0.0
 11
88.2
 21
108.2
 31
0.0
  0
LINE
  5
1C3
102
{ACAD_REACTORS
330
7BC
102
}
330
1D
100
AcDbEntity
  8
23
  6
Continuous
 62
     7
100
AcDbLine
 10
88.2
 20
108.2
 30
0.0
 11
94.848486
 21
137.526569
 31
0.0
  0
ARC
  5
1C4
102
{ACAD_REACTORS
330
7BC
102
}
330
1D
100
AcDbEntity
  8
23
  6
Continuous
 62
     7
100
AcDbCircle
 10
100.7
 20
136.2
 30
0.0
 40
6.0
100
AcDbArc
 50
12.77334299999989
 51
167.2266570000001
  0
LINE
  5
1C5
102
{ACAD_REACTORS
330
7BC
102
}
330
1D
100
AcDbEntity
  8
23
  6
Continuous
 62
     7
100
AcDbLine
 10
106.551514
 20
137.526569
 30
0.0
 11
109.543892
 21
124.327142
 31
0.0
  0
CIRCLE
  5
1C6
102
{ACAD_REACTORS
330
7BC
102
}
330
1D
100
AcDbEntity
  8
23
  6
Continuous
 62
     7
100
AcDbCircle
 10
110.2
 20
105.7
 30
0.0
 40
1.55
  0
CIRCLE
  5
1C7
102
{ACAD_REACTORS
330
7BC
102
}
330
1D
100
AcDbEntity
  8
23
  6
Continuous
 62
     7
100
AcDbCircle
 10
91.2
 20
105.7
 30
0.0
 40
1.55
  0
CIRCLE
  5
1C8
102
{ACAD_REACTORS
330
7BC
102
}
330
1D
100
AcDbEntity
  8
23
  6
Continuous
 62
     7
100
AcDbCircle
 10
100.7
 20
136.2
 30
0.0
 40
4.05
  0
ARC
  5
1C9
102
{ACAD_REACTORS
330
7BC
102
}
330
1D
100
AcDbEntity
  8
23
  6
Continuous
 62
     7
100
AcDbCircle
 10
105.2
 20
105.65
 30
0.0
 40
1.05
100
AcDbArc
 50
180.0
 51
0.0
  0
LINE
  5
1CA
102
{ACAD_REACTORS
330
7BC
102
}
330
1D
100
AcDbEntity
  8
23
  6
Continuous
 62
     7
100
AcDbLine
 10
106.25
 20
105.65
 30
0.0
 11
106.25
 21
108.25
 31
0.0
  0
ARC
  5
1CB
102
{ACAD_REACTORS
330
7BC
102
}
330
1D
100
AcDbEntity
  8
23
  6
Continuous
 62
     7
100
AcDbCircle
 10
105.2
 20
108.25
 30
0.0
 40
1.05
100
AcDbArc
 50
0.0
 51
180.0
  0
LINE
  5
1CC
102
{ACAD_REACTORS
330
7BC
102
}
330
1D
100
AcDbEntity
  8
23
  6
Continuous
 62
     7
100
AcDbLine
 10
104.15
 20
108.25
 30
0.0
 11
97.25
 21
108.25
 31
0.0
  0
ARC
  5
1CD
102
{ACAD_REACTORS
330
7BC
102
}
330
1D
100
AcDbEntity
  8
23
  6
Continuous
 62
     7
100
AcDbCircle
 10
96.2
 20
108.25
 30
0.0
 40
1.05
100
AcDbArc
 50
0.0
 51
180.0
  0
LINE
  5
1CE
102
{ACAD_REACTORS
330
7BC
102
}
330
1D
100
AcDbEntity
  8
23
  6
Continuous
 62
     7
100
AcDbLine
 10
95.15
 20
108.25
 30
0.0
 11
95.15
 21
105.65
 31
0.0
  0
ARC
  5
1CF
102
{ACAD_REACTORS
330
7BC
102
}
330
1D
100
AcDbEntity
  8
23
  6
Continuous
 62
     7
100
AcDbCircle
 10
96.2
 20
105.65
 30
0.0
 40
1.05
100
AcDbArc
 50
180.0
 51
0.0
  0
LINE
  5
1D0
102
{ACAD_REACTORS
330
7BC
102
}
330
1D
100
AcDbEntity
  8
23
  6
Continuous
 62
     7
100
AcDbLine
 10
97.25
 20
105.65
 30
0.0
 11
104.15
 21
105.65
 31
0.0
  0
LWPOLYLINE
  5
25F
330
1D
100
AcDbEntity
  8
0
100
AcDbPolyline
 90
        4
 70
     1
 43
0.0
 10
0.0
 20
0.0
 10
0.0
 20
299.9999999999998
 10
200.0
 20
299.9999999999998
 10
200.0
 20
0.0
  0
CIRCLE
  5
491
102
{ACAD_REACTORS
330
7B9
102
}
330
1D
100
AcDbEntity
  8
Visible (ISO)
100
AcDbCircle
 10
17.5
 20
106.2000000000001
 30
0.0
 40
5.049999999999997
  0
ARC
  5
492
102
{ACAD_REACTORS
330
7B9
102
}
330
1D
100
AcDbEntity
  8
Visible (ISO)
100
AcDbCircle
 10
13.0
 20
75.6500000000001
 30
0.0
 40
1.049999999999999
100
AcDbArc
 50
180.0
 51
0.0
  0
LINE
  5
493
102
{ACAD_REACTORS
330
7B9
102
}
330
1D
100
AcDbEntity
  8
Visible (ISO)
100
AcDbLine
 10
11.94999999999999
 20
75.6500000000001
 30
0.0
 11
11.94999999999999
 21
78.25000000000013
 31
0.0
  0
ARC
  5
494
102
{ACAD_REACTORS
330
7B9
102
}
330
1D
100
AcDbEntity
  8
Visible (ISO)
100
AcDbCircle
 10
13.0
 20
78.25000000000013
 30
0.0
 40
1.049999999999999
100
AcDbArc
 50
0.0
 51
180.0
  0
LINE
  5
495
102
{ACAD_REACTORS
330
7B9
102
}
330
1D
100
AcDbEntity
  8
Visible (ISO)
100
AcDbLine
 10
14.05000000000001
 20
78.25000000000013
 30
0.0
 11
20.94999999999999
 21
78.25000000000013
 31
0.0
  0
ARC
  5
496
102
{ACAD_REACTORS
330
7B9
102
}
330
1D
100
AcDbEntity
  8
Visible (ISO)
100
AcDbCircle
 10
22.0
 20
78.25000000000013
 30
0.0
 40
1.049999999999999
100
AcDbArc
 50
0.0
 51
180.0
  0
LINE
  5
497
102
{ACAD_REACTORS
330
7B9
102
}
330
1D
100
AcDbEntity
  8
Visible (ISO)
100
AcDbLine
 10
23.05000000000001
 20
78.25000000000013
 30
0.0
 11
23.05000000000001
 21
75.6500000000001
 31
0.0
  0
ARC
  5
498
102
{ACAD_REACTORS
330
7B9
102
}
330
1D
100
AcDbEntity
  8
Visible (ISO)
100
AcDbCircle
 10
22.0
 20
75.6500000000001
 30
0.0
 40
1.049999999999999
100
AcDbArc
 50
180.0
 51
0.0
  0
LINE
  5
499
102
{ACAD_REACTORS
330
7B9
102
}
330
1D
100
AcDbEntity
  8
Visible (ISO)
100
AcDbLine
 10
20.94999999999999
 20
75.6500000000001
 30
0.0
 11
14.05000000000001
 21
75.6500000000001
 31
0.0
  0
CIRCLE
  5
49A
102
{ACAD_REACTORS
330
7B9
102
}
330
1D
100
AcDbEntity
  8
Visible (ISO)
100
AcDbCircle
 10
27.0
 20
75.70000000000012
 30
0.0
 40
1.55
  0
CIRCLE
  5
49B
102
{ACAD_REACTORS
330
7B9
102
}
330
1D
100
AcDbEntity
  8
Visible (ISO)
100
AcDbCircle
 10
8.0
 20
75.70000000000012
 30
0.0
 40
1.55
  0
CIRCLE
  5
49C
102
{ACAD_REACTORS
330
7B9
102
}
330
1D
100
AcDbEntity
  8
Visible (ISO)
100
AcDbCircle
 10
9.0
 20
106.2000000000001
 30
0.0
 40
1.35
  0
CIRCLE
  5
49D
102
{ACAD_REACTORS
330
7B9
102
}
330
1D
100
AcDbEntity
  8
Visible (ISO)
100
AcDbCircle
 10
17.5
 20
114.7000000000001
 30
0.0
 40
1.35
  0
CIRCLE
  5
49E
102
{ACAD_REACTORS
330
7B9
102
}
330
1D
100
AcDbEntity
  8
Visible (ISO)
100
AcDbCircle
 10
26.0
 20
106.2000000000001
 30
0.0
 40
1.35
  0
CIRCLE
  5
49F
102
{ACAD_REACTORS
330
7B9
102
}
330
1D
100
AcDbEntity
  8
Visible (ISO)
100
AcDbCircle
 10
17.5
 20
97.70000000000012
 30
0.0
 40
1.35
  0
LINE
  5
4A0
102
{ACAD_REACTORS
330
7B9
102
}
330
1D
100
AcDbEntity
  8
Visible (ISO)
100
AcDbLine
 10
5.0
 20
73.2
 30
0.0
 11
30.0
 21
73.2
 31
0.0
  0
LINE
  5
4A1
102
{ACAD_REACTORS
330
7B9
102
}
330
1D
100
AcDbEntity
  8
Visible (ISO)
100
AcDbLine
 10
5.0
 20
78.20000000000012
 30
0.0
 11
5.0
 21
73.2
 31
0.0
  0
LINE
  5
4A2
102
{ACAD_REACTORS
330
7B9
102
}
330
1D
100
AcDbEntity
  8
Visible (ISO)
100
AcDbLine
 10
6.515428431460975
 20
106.7823980216693
 30
0.0
 11
5.0
 21
78.20000000000012
 31
0.0
  0
ARC
  5
4A3
102
{ACAD_REACTORS
330
7B9
102
}
330
1D
100
AcDbEntity
  8
Visible (ISO)
100
AcDbCircle
 10
17.5
 20
106.2000000000001
 30
0.0
 40
11.0
100
AcDbArc
 50
3.03495984742634
 51
176.9650401525737
  0
LINE
  5
4A4
102
{ACAD_REACTORS
330
7B9
102
}
330
1D
100
AcDbEntity
  8
Visible (ISO)
100
AcDbLine
 10
30.0
 20
78.20000000000012
 30
0.0
 11
28.48457156853902
 21
106.7823980216693
 31
0.0
  0
LINE
  5
4A5
102
{ACAD_REACTORS
330
7B9
102
}
330
1D
100
AcDbEntity
  8
Visible (ISO)
100
AcDbLine
 10
30.0
 20
73.2
 30
0.0
 11
30.0
 21
78.20000000000012
 31
0.0
  0
CIRCLE
  5
4E1
102
{ACAD_REACTORS
330
7BA
102
}
330
1D
100
AcDbEntity
  8
Visible (ISO)
100
AcDbCircle
 10
44.6
 20
106.2000000000001
 30
0.0
 40
5.049999999999997
  0
ARC
  5
4E2
102
{ACAD_REACTORS
330
7BA
102
}
330
1D
100
AcDbEntity
  8
Visible (ISO)
100
AcDbCircle
 10
40.1
 20
75.6500000000001
 30
0.0
 40
1.049999999999999
100
AcDbArc
 50
180.0
 51
0.0
  0
LINE
  5
4E3
102
{ACAD_REACTORS
330
7BA
102
}
330
1D
100
AcDbEntity
  8
Visible (ISO)
100
AcDbLine
 10
39.04999999999999
 20
75.6500000000001
 30
0.0
 11
39.04999999999999
 21
78.25000000000013
 31
0.0
  0
ARC
  5
4E4
102
{ACAD_REACTORS
330
7BA
102
}
330
1D
100
AcDbEntity
  8
Visible (ISO)
100
AcDbCircle
 10
40.1
 20
78.25000000000013
 30
0.0
 40
1.049999999999999
100
AcDbArc
 50
0.0
 51
180.0
  0
LINE
  5
4E5
102
{ACAD_REACTORS
330
7BA
102
}
330
1D
100
AcDbEntity
  8
Visible (ISO)
100
AcDbLine
 10
41.15000000000001
 20
78.25000000000013
 30
0.0
 11
48.04999999999999
 21
78.25000000000013
 31
0.0
  0
ARC
  5
4E6
102
{ACAD_REACTORS
330
7BA
102
}
330
1D
100
AcDbEntity
  8
Visible (ISO)
100
AcDbCircle
 10
49.1
 20
78.25000000000013
 30
0.0
 40
1.049999999999999
100
AcDbArc
 50
0.0
 51
180.0
  0
LINE
  5
4E7
102
{ACAD_REACTORS
330
7BA
102
}
330
1D
100
AcDbEntity
  8
Visible (ISO)
100
AcDbLine
 10
50.15000000000001
 20
78.25000000000013
 30
0.0
 11
50.15000000000001
 21
75.6500000000001
 31
0.0
  0
ARC
  5
4E8
102
{ACAD_REACTORS
330
7BA
102
}
330
1D
100
AcDbEntity
  8
Visible (ISO)
100
AcDbCircle
 10
49.1
 20
75.6500000000001
 30
0.0
 40
1.049999999999999
100
AcDbArc
 50
180.0
 51
0.0
  0
LINE
  5
4E9
102
{ACAD_REACTORS
330
7BA
102
}
330
1D
100
AcDbEntity
  8
Visible (ISO)
100
AcDbLine
 10
48.04999999999999
 20
75.6500000000001
 30
0.0
 11
41.15000000000001
 21
75.6500000000001
 31
0.0
  0
CIRCLE
  5
4EA
102
{ACAD_REACTORS
330
7BA
102
}
330
1D
100
AcDbEntity
  8
Visible (ISO)
100
AcDbCircle
 10
54.1
 20
75.70000000000012
 30
0.0
 40
1.55
  0
CIRCLE
  5
4EB
102
{ACAD_REACTORS
330
7BA
102
}
330
1D
100
AcDbEntity
  8
Visible (ISO)
100
AcDbCircle
 10
35.1
 20
75.70000000000012
 30
0.0
 40
1.55
  0
CIRCLE
  5
4EC
102
{ACAD_REACTORS
330
7BA
102
}
330
1D
100
AcDbEntity
  8
Visible (ISO)
100
AcDbCircle
 10
36.1
 20
106.2000000000001
 30
0.0
 40
1.35
  0
CIRCLE
  5
4ED
102
{ACAD_REACTORS
330
7BA
102
}
330
1D
100
AcDbEntity
  8
Visible (ISO)
100
AcDbCircle
 10
44.6
 20
114.7000000000001
 30
0.0
 40
1.35
  0
CIRCLE
  5
4EE
102
{ACAD_REACTORS
330
7BA
102
}
330
1D
100
AcDbEntity
  8
Visible (ISO)
100
AcDbCircle
 10
53.1
 20
106.2000000000001
 30
0.0
 40
1.35
  0
CIRCLE
  5
4EF
102
{ACAD_REACTORS
330
7BA
102
}
330
1D
100
AcDbEntity
  8
Visible (ISO)
100
AcDbCircle
 10
44.6
 20
97.70000000000012
 30
0.0
 40
1.35
  0
LINE
  5
4F0
102
{ACAD_REACTORS
330
7BA
102
}
330
1D
100
AcDbEntity
  8
Visible (ISO)
100
AcDbLine
 10
32.1
 20
73.2
 30
0.0
 11
57.1
 21
73.2
 31
0.0
  0
LINE
  5
4F1
102
{ACAD_REACTORS
330
7BA
102
}
330
1D
100
AcDbEntity
  8
Visible (ISO)
100
AcDbLine
 10
32.1
 20
78.20000000000012
 30
0.0
 11
32.1
 21
73.2
 31
0.0
  0
LINE
  5
4F2
102
{ACAD_REACTORS
330
7BA
102
}
330
1D
100
AcDbEntity
  8
Visible (ISO)
100
AcDbLine
 10
33.61542843146098
 20
106.7823980216693
 30
0.0
 11
32.1
 21
78.20000000000012
 31
0.0
  0
ARC
  5
4F3
102
{ACAD_REACTORS
330
7BA
102
}
330
1D
100
AcDbEntity
  8
Visible (ISO)
100
AcDbCircle
 10
44.6
 20
106.2000000000001
 30
0.0
 40
11.0
100
AcDbArc
 50
3.03495984742634
 51
176.9650401525737
  0
LINE
  5
4F4
102
{ACAD_REACTORS
330
7BA
102
}
330
1D
100
AcDbEntity
  8
Visible (ISO)
100
AcDbLine
 10
57.1
 20
78.20000000000012
 30
0.0
 11
55.58457156853903
 21
106.7823980216693
 31
0.0
  0
LINE
  5
4F5
102
{ACAD_REACTORS
330
7BA
102
}
330
1D
100
AcDbEntity
  8
Visible (ISO)
100
AcDbLine
 10
57.1
 20
73.2
 30
0.0
 11
57.1
 21
78.20000000000012
 31
0.0
  0
ARC
  5
6B1
102
{ACAD_REACTORS
330
7C5
102
}
330
1D
100
AcDbEntity
  8
23
  6
Continuous
 62
     7
100
AcDbCircle
 10
37.456494
 20
138.0
 30
0.0
 40
2.0
100
AcDbArc
 50
90.0
 51
162.1277299999998
  0
ARC
  5
6B2
102
{ACAD_REACTORS
330
7C5
102
}
330
1D
100
AcDbEntity
  8
23
  6
Continuous
 62
     7
100
AcDbCircle
 10
37.566738
 20
122.0
 30
0.0
 40
2.0
100
AcDbArc
 50
193.8519199999999
 51
270.0
  0
ARC
  5
6B3
102
{ACAD_REACTORS
330
7C5
102
}
330
1D
100
AcDbEntity
  8
23
  6
Continuous
 62
     7
100
AcDbCircle
 10
8.043506
 20
138.0
 30
0.0
 40
2.0
100
AcDbArc
 50
17.8722700000002
 51
90.0
  0
ARC
  5
6B4
102
{ACAD_REACTORS
330
7C5
102
}
330
1D
100
AcDbEntity
  8
23
  6
Continuous
 62
     7
100
AcDbCircle
 10
7.933262
 20
122.0
 30
0.0
 40
2.0
100
AcDbArc
 50
270.0
 51
346.14808
  0
ARC
  5
6B5
102
{ACAD_REACTORS
330
7C5
102
}
330
1D
100
AcDbEntity
  8
23
  6
Continuous
 62
     7
100
AcDbCircle
 10
32.337293
 20
126.5
 30
0.0
 40
2.0
100
AcDbArc
 50
13.85191999999992
 51
90.0
  0
ARC
  5
6B6
102
{ACAD_REACTORS
330
7C5
102
}
330
1D
100
AcDbEntity
  8
23
  6
Continuous
 62
     7
100
AcDbCircle
 10
13.162707
 20
126.5
 30
0.0
 40
2.0
100
AcDbArc
 50
90.0
 51
166.1480800000001
  0
ARC
  5
6B7
102
{ACAD_REACTORS
330
7C5
102
}
330
1D
100
AcDbEntity
  8
23
  6
Continuous
 62
     7
100
AcDbCircle
 10
13.329145
 20
126.5
 30
0.0
 40
2.0
100
AcDbArc
 50
20.38084700000006
 51
90.0
  0
ARC
  5
6B8
102
{ACAD_REACTORS
330
7C5
102
}
330
1D
100
AcDbEntity
  8
23
  6
Continuous
 62
     7
100
AcDbCircle
 10
32.447537
 20
135.5
 30
0.0
 40
2.0
100
AcDbArc
 50
270.0
 51
342.1277299999998
  0
ARC
  5
6B9
102
{ACAD_REACTORS
330
7C5
102
}
330
1D
100
AcDbEntity
  8
23
  6
Continuous
 62
     7
100
AcDbCircle
 10
31.161451
 20
135.5
 30
0.0
 40
2.0
100
AcDbArc
 50
213.1794920000003
 51
270.0
  0
ARC
  5
6BA
102
{ACAD_REACTORS
330
7C5
102
}
330
1D
100
AcDbEntity
  8
23
  6
Continuous
 62
     7
100
AcDbCircle
 10
32.170855
 20
126.5
 30
0.0
 40
2.0
100
AcDbArc
 50
90.0
 51
159.619153
  0
ARC
  5
6BB
102
{ACAD_REACTORS
330
7C5
102
}
330
1D
100
AcDbEntity
  8
23
  6
Continuous
 62
     7
100
AcDbCircle
 10
14.338549
 20
135.5
 30
0.0
 40
2.0
100
AcDbArc
 50
270.0
 51
326.8205079999997
  0
ARC
  5
6BC
102
{ACAD_REACTORS
330
7C5
102
}
330
1D
100
AcDbEntity
  8
23
  6
Continuous
 62
     7
100
AcDbCircle
 10
13.052463
 20
135.5
 30
0.0
 40
2.0
100
AcDbArc
 50
197.8722700000002
 51
270.0
  0
LINE
  5
6BD
102
{ACAD_REACTORS
330
7C5
102
}
330
1D
100
AcDbEntity
  8
23
  6
Continuous
 62
     7
100
AcDbLine
 10
35.553008
 20
138.613792
 30
0.0
 11
34.351023
 21
134.886208
 31
0.0
  0
LINE
  5
6BE
102
{ACAD_REACTORS
330
7C5
102
}
330
1D
100
AcDbEntity
  8
23
  6
Continuous
 62
     7
100
AcDbLine
 10
32.170855
 20
128.5
 30
0.0
 11
32.337293
 21
128.5
 31
0.0
  0
LINE
  5
6BF
102
{ACAD_REACTORS
330
7C5
102
}
330
1D
100
AcDbEntity
  8
23
  6
Continuous
 62
     7
100
AcDbLine
 10
9.875098000000001
 20
121.521173
 30
0.0
 11
11.220871
 21
126.978827
 31
0.0
  0
LINE
  5
6C0
102
{ACAD_REACTORS
330
7C5
102
}
330
1D
100
AcDbEntity
  8
23
  6
Continuous
 62
     7
100
AcDbLine
 10
13.162707
 20
128.5
 30
0.0
 11
13.329145
 21
128.5
 31
0.0
  0
LINE
  5
6C1
102
{ACAD_REACTORS
330
7C5
102
}
330
1D
100
AcDbEntity
  8
23
  6
Continuous
 62
     7
100
AcDbLine
 10
32.447537
 20
133.5
 30
0.0
 11
31.161451
 21
133.5
 31
0.0
  0
ARC
  5
6C2
102
{ACAD_REACTORS
330
7C5
102
}
330
1D
100
AcDbEntity
  8
23
  6
Continuous
 62
     7
100
AcDbCircle
 10
22.75
 20
130.0
 30
0.0
 40
8.05
100
AcDbArc
 50
200.3808469999999
 51
339.6191529999999
  0
ARC
  5
6C3
102
{ACAD_REACTORS
330
7C5
102
}
330
1D
100
AcDbEntity
  8
23
  6
Continuous
 62
     7
100
AcDbCircle
 10
22.75
 20
130.0
 30
0.0
 40
8.05
100
AcDbArc
 50
33.17949199999994
 51
146.820508
  0
LINE
  5
6C4
102
{ACAD_REACTORS
330
7C5
102
}
330
1D
100
AcDbEntity
  8
23
  6
Continuous
 62
     7
100
AcDbLine
 10
14.338549
 20
133.5
 30
0.0
 11
13.052463
 21
133.5
 31
0.0
  0
LINE
  5
6C5
102
{ACAD_REACTORS
330
7C5
102
}
330
1D
100
AcDbEntity
  8
23
  6
Continuous
 62
     7
100
AcDbLine
 10
34.279129
 20
126.978827
 30
0.0
 11
35.624902
 21
121.521173
 31
0.0
  0
LINE
  5
6C6
102
{ACAD_REACTORS
330
7C5
102
}
330
1D
100
AcDbEntity
  8
23
  6
Continuous
 62
     7
100
AcDbLine
 10
11.148977
 20
134.886208
 30
0.0
 11
9.946992
 21
138.613792
 31
0.0
  0
LINE
  5
6C7
102
{ACAD_REACTORS
330
7C5
102
}
330
1D
100
AcDbEntity
  8
23
  6
Continuous
 62
     7
100
AcDbLine
 10
37.566738
 20
120.0
 30
0.0
 11
39.0
 21
120.0
 31
0.0
  0
LINE
  5
6C8
102
{ACAD_REACTORS
330
7C5
102
}
330
1D
100
AcDbEntity
  8
23
  6
Continuous
 62
     7
100
AcDbLine
 10
8.043506
 20
140.0
 30
0.0
 11
6.5
 21
140.0
 31
0.0
  0
LINE
  5
6C9
102
{ACAD_REACTORS
330
7C5
102
}
330
1D
100
AcDbEntity
  8
23
  6
Continuous
 62
     7
100
AcDbLine
 10
6.5
 20
120.0
 30
0.0
 11
7.933262
 21
120.0
 31
0.0
  0
LINE
  5
6CA
102
{ACAD_REACTORS
330
7C5
102
}
330
1D
100
AcDbEntity
  8
23
  6
Continuous
 62
     7
100
AcDbLine
 10
39.0
 20
140.0
 30
0.0
 11
37.456494
 21
140.0
 31
0.0
  0
CIRCLE
  5
6CB
102
{ACAD_REACTORS
330
7C5
102
}
330
1D
100
AcDbEntity
  8
23
  6
Continuous
 62
     7
100
AcDbCircle
 10
22.75
 20
130.0
 30
0.0
 40
6.05
  0
CIRCLE
  5
6CC
102
{ACAD_REACTORS
330
7C5
102
}
330
1D
100
AcDbEntity
  8
23
  6
Continuous
 62
     7
100
AcDbCircle
 10
36.25
 20
131.0
 30
0.0
 40
1.35
  0
CIRCLE
  5
6CD
102
{ACAD_REACTORS
330
7C5
102
}
330
1D
100
AcDbEntity
  8
23
  6
Continuous
 62
     7
100
AcDbCircle
 10
9.25
 20
131.0
 30
0.0
 40
1.35
  0
LINE
  5
6CE
102
{ACAD_REACTORS
330
7C5
102
}
330
1D
100
AcDbEntity
  8
23
  6
Continuous
 62
     7
100
AcDbLine
 10
39.0
 20
137.1
 30
0.0
 11
39.0
 21
140.0
 31
0.0
  0
ARC
  5
6CF
102
{ACAD_REACTORS
330
7C5
102
}
330
1D
100
AcDbEntity
  8
23
  6
Continuous
 62
     7
100
AcDbCircle
 10
39.0
 20
136.05
 30
0.0
 40
1.05
100
AcDbArc
 50
90.0
 51
270.0
  0
LINE
  5
6D0
102
{ACAD_REACTORS
330
7C5
102
}
330
1D
100
AcDbEntity
  8
23
  6
Continuous
 62
     7
100
AcDbLine
 10
40.5
 20
135.0
 30
0.0
 11
39.0
 21
135.0
 31
0.0
  0
LINE
  5
6D1
102
{ACAD_REACTORS
330
7C5
102
}
330
1D
100
AcDbEntity
  8
23
  6
Continuous
 62
     7
100
AcDbLine
 10
40.5
 20
125.0
 30
0.0
 11
40.5
 21
135.0
 31
0.0
  0
LINE
  5
6D2
102
{ACAD_REACTORS
330
7C5
102
}
330
1D
100
AcDbEntity
  8
23
  6
Continuous
 62
     7
100
AcDbLine
 10
39.0
 20
125.0
 30
0.0
 11
40.5
 21
125.0
 31
0.0
  0
ARC
  5
6D3
102
{ACAD_REACTORS
330
7C5
102
}
330
1D
100
AcDbEntity
  8
23
  6
Continuous
 62
     7
100
AcDbCircle
 10
39.0
 20
123.95
 30
0.0
 40
1.05
100
AcDbArc
 50
90.0
 51
270.0
  0
LINE
  5
6D4
102
{ACAD_REACTORS
330
7C5
102
}
330
1D
100
AcDbEntity
  8
23
  6
Continuous
 62
     7
100
AcDbLine
 10
39.0
 20
120.0
 30
0.0
 11
39.0
 21
122.9
 31
0.0
  0
LINE
  5
6D5
102
{ACAD_REACTORS
330
7C5
102
}
330
1D
100
AcDbEntity
  8
23
  6
Continuous
 62
     7
100
AcDbLine
 10
6.5
 20
122.9
 30
0.0
 11
6.5
 21
120.0
 31
0.0
  0
ARC
  5
6D6
102
{ACAD_REACTORS
330
7C5
102
}
330
1D
100
AcDbEntity
  8
23
  6
Continuous
 62
     7
100
AcDbCircle
 10
6.5
 20
123.95
 30
0.0
 40
1.05
100
AcDbArc
 50
270.0
 51
90.0
  0
LINE
  5
6D7
102
{ACAD_REACTORS
330
7C5
102
}
330
1D
100
AcDbEntity
  8
23
  6
Continuous
 62
     7
100
AcDbLine
 10
5.0
 20
125.0
 30
0.0
 11
6.5
 21
125.0
 31
0.0
  0
LINE
  5
6D8
102
{ACAD_REACTORS
330
7C5
102
}
330
1D
100
AcDbEntity
  8
23
  6
Continuous
 62
     7
100
AcDbLine
 10
5.0
 20
135.0
 30
0.0
 11
5.0
 21
125.0
 31
0.0
  0
LINE
  5
6D9
102
{ACAD_REACTORS
330
7C5
102
}
330
1D
100
AcDbEntity
  8
23
  6
Continuous
 62
     7
100
AcDbLine
 10
6.5
 20
135.0
 30
0.0
 11
5.0
 21
135.0
 31
0.0
  0
ARC
  5
6DA
102
{ACAD_REACTORS
330
7C5
102
}
330
1D
100
AcDbEntity
  8
23
  6
Continuous
 62
     7
100
AcDbCircle
 10
6.5
 20
136.05
 30
0.0
 40
1.05
100
AcDbArc
 50
270.0
 51
90.0
  0
LINE
  5
6DB
102
{ACAD_REACTORS
330
7C5
102
}
330
1D
100
AcDbEntity
  8
23
  6
Continuous
 62
     7
100
AcDbLine
 10
6.5
 20
140.0
 30
0.0
 11
6.5
 21
137.1
 31
0.0
  0
ARC
  5
6DC
102
{ACAD_REACTORS
330
7C6
102
}
330
1D
100
AcDbEntity
  8
23
  6
Continuous
 62
     7
100
AcDbCircle
 10
45.643506
 20
138.0
 30
0.0
 40
2.0
100
AcDbArc
 50
17.87227000000023
 51
90.0
  0
ARC
  5
6DD
102
{ACAD_REACTORS
330
7C6
102
}
330
1D
100
AcDbEntity
  8
23
  6
Continuous
 62
     7
100
AcDbCircle
 10
45.533263
 20
122.0
 30
0.0
 40
2.0
100
AcDbArc
 50
270.0
 51
346.1480800000001
  0
ARC
  5
6DE
102
{ACAD_REACTORS
330
7C6
102
}
330
1D
100
AcDbEntity
  8
23
  6
Continuous
 62
     7
100
AcDbCircle
 10
75.056494
 20
138.0
 30
0.0
 40
2.0
100
AcDbArc
 50
90.0
 51
162.1277299999998
  0
ARC
  5
6DF
102
{ACAD_REACTORS
330
7C6
102
}
330
1D
100
AcDbEntity
  8
23
  6
Continuous
 62
     7
100
AcDbCircle
 10
75.166738
 20
122.0
 30
0.0
 40
2.0
100
AcDbArc
 50
193.85192
 51
270.0
  0
ARC
  5
6E0
102
{ACAD_REACTORS
330
7C6
102
}
330
1D
100
AcDbEntity
  8
23
  6
Continuous
 62
     7
100
AcDbCircle
 10
50.762707
 20
126.5
 30
0.0
 40
2.0
100
AcDbArc
 50
90.0
 51
166.1480800000001
  0
ARC
  5
6E1
102
{ACAD_REACTORS
330
7C6
102
}
330
1D
100
AcDbEntity
  8
23
  6
Continuous
 62
     7
100
AcDbCircle
 10
69.937294
 20
126.5
 30
0.0
 40
2.0
100
AcDbArc
 50
13.85191999999997
 51
90.0
  0
ARC
  5
6E2
102
{ACAD_REACTORS
330
7C6
102
}
330
1D
100
AcDbEntity
  8
23
  6
Continuous
 62
     7
100
AcDbCircle
 10
69.770855
 20
126.5
 30
0.0
 40
2.0
100
AcDbArc
 50
90.0
 51
159.6191529999999
  0
ARC
  5
6E3
102
{ACAD_REACTORS
330
7C6
102
}
330
1D
100
AcDbEntity
  8
23
  6
Continuous
 62
     7
100
AcDbCircle
 10
50.652463
 20
135.5
 30
0.0
 40
2.0
100
AcDbArc
 50
197.8722700000002
 51
270.0
  0
ARC
  5
6E4
102
{ACAD_REACTORS
330
7C6
102
}
330
1D
100
AcDbEntity
  8
23
  6
Continuous
 62
     7
100
AcDbCircle
 10
51.93855
 20
135.5
 30
0.0
 40
2.0
100
AcDbArc
 50
270.0
 51
326.8205079999997
  0
ARC
  5
6E5
102
{ACAD_REACTORS
330
7C6
102
}
330
1D
100
AcDbEntity
  8
23
  6
Continuous
 62
     7
100
AcDbCircle
 10
50.929146
 20
126.5
 30
0.0
 40
2.0
100
AcDbArc
 50
20.38084700000007
 51
90.0
  0
ARC
  5
6E6
102
{ACAD_REACTORS
330
7C6
102
}
330
1D
100
AcDbEntity
  8
23
  6
Continuous
 62
     7
100
AcDbCircle
 10
68.761451
 20
135.5
 30
0.0
 40
2.0
100
AcDbArc
 50
213.1794920000003
 51
270.0
  0
ARC
  5
6E7
102
{ACAD_REACTORS
330
7C6
102
}
330
1D
100
AcDbEntity
  8
23
  6
Continuous
 62
     7
100
AcDbCircle
 10
70.047537
 20
135.5
 30
0.0
 40
2.0
100
AcDbArc
 50
270.0
 51
342.1277299999998
  0
LINE
  5
6E8
102
{ACAD_REACTORS
330
7C6
102
}
330
1D
100
AcDbEntity
  8
23
  6
Continuous
 62
     7
100
AcDbLine
 10
47.546992
 20
138.613792
 30
0.0
 11
48.748977
 21
134.886208
 31
0.0
  0
LINE
  5
6E9
102
{ACAD_REACTORS
330
7C6
102
}
330
1D
100
AcDbEntity
  8
23
  6
Continuous
 62
     7
100
AcDbLine
 10
50.929146
 20
128.5
 30
0.0
 11
50.762707
 21
128.5
 31
0.0
  0
LINE
  5
6EA
102
{ACAD_REACTORS
330
7C6
102
}
330
1D
100
AcDbEntity
  8
23
  6
Continuous
 62
     7
100
AcDbLine
 10
73.224902
 20
121.521173
 30
0.0
 11
71.879129
 21
126.978827
 31
0.0
  0
LINE
  5
6EB
102
{ACAD_REACTORS
330
7C6
102
}
330
1D
100
AcDbEntity
  8
23
  6
Continuous
 62
     7
100
AcDbLine
 10
69.937294
 20
128.5
 30
0.0
 11
69.770855
 21
128.5
 31
0.0
  0
LINE
  5
6EC
102
{ACAD_REACTORS
330
7C6
102
}
330
1D
100
AcDbEntity
  8
23
  6
Continuous
 62
     7
100
AcDbLine
 10
50.652463
 20
133.5
 30
0.0
 11
51.93855
 21
133.5
 31
0.0
  0
ARC
  5
6ED
102
{ACAD_REACTORS
330
7C6
102
}
330
1D
100
AcDbEntity
  8
23
  6
Continuous
 62
     7
100
AcDbCircle
 10
60.35
 20
130.0
 30
0.0
 40
8.05
100
AcDbArc
 50
200.3808469999999
 51
339.6191529999999
  0
ARC
  5
6EE
102
{ACAD_REACTORS
330
7C6
102
}
330
1D
100
AcDbEntity
  8
23
  6
Continuous
 62
     7
100
AcDbCircle
 10
60.35
 20
130.0
 30
0.0
 40
8.05
100
AcDbArc
 50
33.17949199999997
 51
146.8205080000001
  0
LINE
  5
6EF
102
{ACAD_REACTORS
330
7C6
102
}
330
1D
100
AcDbEntity
  8
23
  6
Continuous
 62
     7
100
AcDbLine
 10
68.761451
 20
133.5
 30
0.0
 11
70.047537
 21
133.5
 31
0.0
  0
LINE
  5
6F0
102
{ACAD_REACTORS
330
7C6
102
}
330
1D
100
AcDbEntity
  8
23
  6
Continuous
 62
     7
100
AcDbLine
 10
48.820872
 20
126.978827
 30
0.0
 11
47.475098
 21
121.521173
 31
0.0
  0
LINE
  5
6F1
102
{ACAD_REACTORS
330
7C6
102
}
330
1D
100
AcDbEntity
  8
23
  6
Continuous
 62
     7
100
AcDbLine
 10
71.951023
 20
134.886208
 30
0.0
 11
73.153008
 21
138.613792
 31
0.0
  0
LINE
  5
6F2
102
{ACAD_REACTORS
330
7C6
102
}
330
1D
100
AcDbEntity
  8
23
  6
Continuous
 62
     7
100
AcDbLine
 10
45.533263
 20
120.0
 30
0.0
 11
44.1
 21
120.0
 31
0.0
  0
LINE
  5
6F3
102
{ACAD_REACTORS
330
7C6
102
}
330
1D
100
AcDbEntity
  8
23
  6
Continuous
 62
     7
100
AcDbLine
 10
75.056494
 20
140.0
 30
0.0
 11
76.6
 21
140.0
 31
0.0
  0
LINE
  5
6F4
102
{ACAD_REACTORS
330
7C6
102
}
330
1D
100
AcDbEntity
  8
23
  6
Continuous
 62
     7
100
AcDbLine
 10
76.6
 20
120.0
 30
0.0
 11
75.166738
 21
120.0
 31
0.0
  0
LINE
  5
6F5
102
{ACAD_REACTORS
330
7C6
102
}
330
1D
100
AcDbEntity
  8
23
  6
Continuous
 62
     7
100
AcDbLine
 10
44.1
 20
140.0
 30
0.0
 11
45.643506
 21
140.0
 31
0.0
  0
CIRCLE
  5
6F6
102
{ACAD_REACTORS
330
7C6
102
}
330
1D
100
AcDbEntity
  8
23
  6
Continuous
 62
     7
100
AcDbCircle
 10
60.35
 20
130.0
 30
0.0
 40
6.05
  0
CIRCLE
  5
6F7
102
{ACAD_REACTORS
330
7C6
102
}
330
1D
100
AcDbEntity
  8
23
  6
Continuous
 62
     7
100
AcDbCircle
 10
46.85
 20
131.0
 30
0.0
 40
1.35
  0
CIRCLE
  5
6F8
102
{ACAD_REACTORS
330
7C6
102
}
330
1D
100
AcDbEntity
  8
23
  6
Continuous
 62
     7
100
AcDbCircle
 10
73.85
 20
131.0
 30
0.0
 40
1.35
  0
LINE
  5
6F9
102
{ACAD_REACTORS
330
7C6
102
}
330
1D
100
AcDbEntity
  8
23
  6
Continuous
 62
     7
100
AcDbLine
 10
44.1
 20
137.1
 30
0.0
 11
44.1
 21
140.0
 31
0.0
  0
ARC
  5
6FA
102
{ACAD_REACTORS
330
7C6
102
}
330
1D
100
AcDbEntity
  8
23
  6
Continuous
 62
     7
100
AcDbCircle
 10
44.1
 20
136.05
 30
0.0
 40
1.05
100
AcDbArc
 50
270.0
 51
90.0
  0
LINE
  5
6FB
102
{ACAD_REACTORS
330
7C6
102
}
330
1D
100
AcDbEntity
  8
23
  6
Continuous
 62
     7
100
AcDbLine
 10
42.6
 20
135.0
 30
0.0
 11
44.1
 21
135.0
 31
0.0
  0
LINE
  5
6FC
102
{ACAD_REACTORS
330
7C6
102
}
330
1D
100
AcDbEntity
  8
23
  6
Continuous
 62
     7
100
AcDbLine
 10
42.6
 20
125.0
 30
0.0
 11
42.6
 21
135.0
 31
0.0
  0
LINE
  5
6FD
102
{ACAD_REACTORS
330
7C6
102
}
330
1D
100
AcDbEntity
  8
23
  6
Continuous
 62
     7
100
AcDbLine
 10
44.1
 20
125.0
 30
0.0
 11
42.6
 21
125.0
 31
0.0
  0
ARC
  5
6FE
102
{ACAD_REACTORS
330
7C6
102
}
330
1D
100
AcDbEntity
  8
23
  6
Continuous
 62
     7
100
AcDbCircle
 10
44.1
 20
123.95
 30
0.0
 40
1.05
100
AcDbArc
 50
270.0
 51
90.0
  0
LINE
  5
6FF
102
{ACAD_REACTORS
330
7C6
102
}
330
1D
100
AcDbEntity
  8
23
  6
Continuous
 62
     7
100
AcDbLine
 10
44.1
 20
120.0
 30
0.0
 11
44.1
 21
122.9
 31
0.0
  0
LINE
  5
700
102
{ACAD_REACTORS
330
7C6
102
}
330
1D
100
AcDbEntity
  8
23
  6
Continuous
 62
     7
100
AcDbLine
 10
76.6
 20
122.9
 30
0.0
 11
76.6
 21
120.0
 31
0.0
  0
ARC
  5
701
102
{ACAD_REACTORS
330
7C6
102
}
330
1D
100
AcDbEntity
  8
23
  6
Continuous
 62
     7
100
AcDbCircle
 10
76.6
 20
123.95
 30
0.0
 40
1.05
100
AcDbArc
 50
90.0
 51
270.0
  0
LINE
  5
702
102
{ACAD_REACTORS
330
7C6
102
}
330
1D
100
AcDbEntity
  8
23
  6
Continuous
 62
     7
100
AcDbLine
 10
78.1
 20
125.0
 30
0.0
 11
76.6
 21
125.0
 31
0.0
  0
LINE
  5
703
102
{ACAD_REACTORS
330
7C6
102
}
330
1D
100
AcDbEntity
  8
23
  6
Continuous
 62
     7
100
AcDbLine
 10
78.1
 20
135.0
 30
0.0
 11
78.1
 21
125.0
 31
0.0
  0
LINE
  5
704
102
{ACAD_REACTORS
330
7C6
102
}
330
1D
100
AcDbEntity
  8
23
  6
Continuous
 62
     7
100
AcDbLine
 10
76.6
 20
135.0
 30
0.0
 11
78.1
 21
135.0
 31
0.0
  0
ARC
  5
705
102
{ACAD_REACTORS
330
7C6
102
}
330
1D
100
AcDbEntity
  8
23
  6
Continuous
 62
     7
100
AcDbCircle
 10
76.6
 20
136.05
 30
0.0
 40
1.05
100
AcDbArc
 50
90.0
 51
270.0
  0
LINE
  5
706
102
{ACAD_REACTORS
330
7C6
102
}
330
1D
100
AcDbEntity
  8
23
  6
Continuous
 62
     7
100
AcDbLine
 10
76.6
 20
140.0
 30
0.0
 11
76.6
 21
137.1
 31
0.0
  0
ARC
  5
707
102
{ACAD_REACTORS
330
7C7
102
}
330
1D
100
AcDbEntity
  8
23
  6
Continuous
 62
     7
100
AcDbCircle
 10
44.691224
 20
160.1
 30
0.0
 40
2.0
100
AcDbArc
 50
90.0
 51
151.5570709999999
  0
ARC
  5
708
102
{ACAD_REACTORS
330
7C7
102
}
330
1D
100
AcDbEntity
  8
23
  6
Continuous
 62
     7
100
AcDbCircle
 10
38.968278
 20
157.932928
 30
0.0
 40
2.0
100
AcDbArc
 50
284.8532559999999
 51
331.5570709999999
  0
ARC
  5
709
102
{ACAD_REACTORS
330
7C7
102
}
330
1D
100
AcDbEntity
  8
23
  6
Continuous
 62
     7
100
AcDbCircle
 10
36.25
 20
156.1
 30
0.0
 40
2.0
100
AcDbArc
 50
270.0
 51
323.1301020000004
  0
ARC
  5
70A
102
{ACAD_REACTORS
330
7C7
102
}
330
1D
100
AcDbEntity
  8
23
  6
Continuous
 62
     7
100
AcDbCircle
 10
35.96968
 20
156.1
 30
0.0
 40
2.0
100
AcDbArc
 50
203.4538299999996
 51
270.0
  0
ARC
  5
70B
102
{ACAD_REACTORS
330
7C7
102
}
330
1D
100
AcDbEntity
  8
23
  6
Continuous
 62
     7
100
AcDbCircle
 10
17.53032
 20
156.1
 30
0.0
 40
2.0
100
AcDbArc
 50
270.0
 51
336.5461700000004
  0
ARC
  5
70C
102
{ACAD_REACTORS
330
7C7
102
}
330
1D
100
AcDbEntity
  8
23
  6
Continuous
 62
     7
100
AcDbCircle
 10
17.25
 20
156.1
 30
0.0
 40
2.0
100
AcDbArc
 50
216.8698979999996
 51
270.0
  0
ARC
  5
70D
102
{ACAD_REACTORS
330
7C7
102
}
330
1D
100
AcDbEntity
  8
23
  6
Continuous
 62
     7
100
AcDbCircle
 10
14.531722
 20
157.932928
 30
0.0
 40
2.0
100
AcDbArc
 50
208.4429290000001
 51
255.1467439999999
  0
ARC
  5
70E
102
{ACAD_REACTORS
330
7C7
102
}
330
1D
100
AcDbEntity
  8
23
  6
Continuous
 62
     7
100
AcDbCircle
 10
8.808776
 20
160.1
 30
0.0
 40
2.0
100
AcDbArc
 50
28.44292900000011
 51
90.0
  0
ARC
  5
70F
102
{ACAD_REACTORS
330
7C7
102
}
330
1D
100
AcDbEntity
  8
23
  6
Continuous
 62
     7
100
AcDbCircle
 10
8.65376
 20
144.1
 30
0.0
 40
2.0
100
AcDbArc
 50
270.0
 51
337.8905520000004
  0
ARC
  5
710
102
{ACAD_REACTORS
330
7C7
102
}
330
1D
100
AcDbEntity
  8
23
  6
Continuous
 62
     7
100
AcDbCircle
 10
14.59624
 20
148.1
 30
0.0
 40
2.0
100
AcDbArc
 50
90.0
 51
157.8905519999996
  0
ARC
  5
711
102
{ACAD_REACTORS
330
7C7
102
}
330
1D
100
AcDbEntity
  8
23
  6
Continuous
 62
     7
100
AcDbCircle
 10
17.53032
 20
148.1
 30
0.0
 40
2.0
100
AcDbArc
 50
23.45383000000048
 51
90.0
  0
ARC
  5
712
102
{ACAD_REACTORS
330
7C7
102
}
330
1D
100
AcDbEntity
  8
23
  6
Continuous
 62
     7
100
AcDbCircle
 10
35.96968
 20
148.1
 30
0.0
 40
2.0
100
AcDbArc
 50
90.0
 51
156.5461699999995
  0
ARC
  5
713
102
{ACAD_REACTORS
330
7C7
102
}
330
1D
100
AcDbEntity
  8
23
  6
Continuous
 62
     7
100
AcDbCircle
 10
38.90376
 20
148.1
 30
0.0
 40
2.0
100
AcDbArc
 50
22.10944800000047
 51
90.0
  0
ARC
  5
714
102
{ACAD_REACTORS
330
7C7
102
}
330
1D
100
AcDbEntity
  8
23
  6
Continuous
 62
     7
100
AcDbCircle
 10
44.84624
 20
144.1
 30
0.0
 40
2.0
100
AcDbArc
 50
202.1094479999995
 51
270.0
  0
LINE
  5
715
102
{ACAD_REACTORS
330
7C7
102
}
330
1D
100
AcDbEntity
  8
23
  6
Continuous
 62
     7
100
AcDbLine
 10
46.5
 20
162.1
 30
0.0
 11
44.691224
 21
162.1
 31
0.0
  0
LINE
  5
716
102
{ACAD_REACTORS
330
7C7
102
}
330
1D
100
AcDbEntity
  8
23
  6
Continuous
 62
     7
100
AcDbLine
 10
8.808776
 20
162.1
 30
0.0
 11
7.0
 21
162.1
 31
0.0
  0
LINE
  5
717
102
{ACAD_REACTORS
330
7C7
102
}
330
1D
100
AcDbEntity
  8
23
  6
Continuous
 62
     7
100
AcDbLine
 10
7.0
 20
162.1
 30
0.0
 11
7.0
 21
159.2
 31
0.0
  0
ARC
  5
718
102
{ACAD_REACTORS
330
7C7
102
}
330
1D
100
AcDbEntity
  8
23
  6
Continuous
 62
     7
100
AcDbCircle
 10
7.0
 20
158.15
 30
0.0
 40
1.05
100
AcDbArc
 50
270.0
 51
90.0
  0
LINE
  5
719
102
{ACAD_REACTORS
330
7C7
102
}
330
1D
100
AcDbEntity
  8
23
  6
Continuous
 62
     7
100
AcDbLine
 10
7.0
 20
157.1
 30
0.0
 11
5.0
 21
157.1
 31
0.0
  0
LINE
  5
71A
102
{ACAD_REACTORS
330
7C7
102
}
330
1D
100
AcDbEntity
  8
23
  6
Continuous
 62
     7
100
AcDbLine
 10
5.0
 20
157.1
 30
0.0
 11
5.0
 21
147.1
 31
0.0
  0
LINE
  5
71B
102
{ACAD_REACTORS
330
7C7
102
}
330
1D
100
AcDbEntity
  8
23
  6
Continuous
 62
     7
100
AcDbLine
 10
5.0
 20
147.1
 30
0.0
 11
7.0
 21
147.1
 31
0.0
  0
ARC
  5
71C
102
{ACAD_REACTORS
330
7C7
102
}
330
1D
100
AcDbEntity
  8
23
  6
Continuous
 62
     7
100
AcDbCircle
 10
7.0
 20
146.05
 30
0.0
 40
1.05
100
AcDbArc
 50
270.0
 51
90.0
  0
LINE
  5
71D
102
{ACAD_REACTORS
330
7C7
102
}
330
1D
100
AcDbEntity
  8
23
  6
Continuous
 62
     7
100
AcDbLine
 10
7.0
 20
145.0
 30
0.0
 11
7.0
 21
142.1
 31
0.0
  0
LINE
  5
71E
102
{ACAD_REACTORS
330
7C7
102
}
330
1D
100
AcDbEntity
  8
23
  6
Continuous
 62
     7
100
AcDbLine
 10
7.0
 20
142.1
 30
0.0
 11
8.65376
 21
142.1
 31
0.0
  0
LINE
  5
71F
102
{ACAD_REACTORS
330
7C7
102
}
330
1D
100
AcDbEntity
  8
23
  6
Continuous
 62
     7
100
AcDbLine
 10
44.84624
 20
142.1
 30
0.0
 11
46.5
 21
142.1
 31
0.0
  0
LINE
  5
720
102
{ACAD_REACTORS
330
7C7
102
}
330
1D
100
AcDbEntity
  8
23
  6
Continuous
 62
     7
100
AcDbLine
 10
46.5
 20
142.1
 30
0.0
 11
46.5
 21
145.0
 31
0.0
  0
ARC
  5
721
102
{ACAD_REACTORS
330
7C7
102
}
330
1D
100
AcDbEntity
  8
23
  6
Continuous
 62
     7
100
AcDbCircle
 10
46.5
 20
146.05
 30
0.0
 40
1.05
100
AcDbArc
 50
90.0
 51
270.0
  0
LINE
  5
722
102
{ACAD_REACTORS
330
7C7
102
}
330
1D
100
AcDbEntity
  8
23
  6
Continuous
 62
     7
100
AcDbLine
 10
46.5
 20
147.1
 30
0.0
 11
48.5
 21
147.1
 31
0.0
  0
LINE
  5
723
102
{ACAD_REACTORS
330
7C7
102
}
330
1D
100
AcDbEntity
  8
23
  6
Continuous
 62
     7
100
AcDbLine
 10
48.5
 20
147.1
 30
0.0
 11
48.5
 21
157.1
 31
0.0
  0
LINE
  5
724
102
{ACAD_REACTORS
330
7C7
102
}
330
1D
100
AcDbEntity
  8
23
  6
Continuous
 62
     7
100
AcDbLine
 10
48.5
 20
157.1
 30
0.0
 11
46.5
 21
157.1
 31
0.0
  0
ARC
  5
725
102
{ACAD_REACTORS
330
7C7
102
}
330
1D
100
AcDbEntity
  8
23
  6
Continuous
 62
     7
100
AcDbCircle
 10
46.5
 20
158.15
 30
0.0
 40
1.05
100
AcDbArc
 50
90.0
 51
270.0
  0
LINE
  5
726
102
{ACAD_REACTORS
330
7C7
102
}
330
1D
100
AcDbEntity
  8
23
  6
Continuous
 62
     7
100
AcDbLine
 10
46.5
 20
159.2
 30
0.0
 11
46.5
 21
162.1
 31
0.0
  0
CIRCLE
  5
727
102
{ACAD_REACTORS
330
7C7
102
}
330
1D
100
AcDbEntity
  8
23
  6
Continuous
 62
     7
100
AcDbCircle
 10
26.75
 20
152.1
 30
0.0
 40
6.05
  0
CIRCLE
  5
728
102
{ACAD_REACTORS
330
7C7
102
}
330
1D
100
AcDbEntity
  8
23
  6
Continuous
 62
     7
100
AcDbCircle
 10
40.25
 20
153.1
 30
0.0
 40
1.35
  0
CIRCLE
  5
729
102
{ACAD_REACTORS
330
7C7
102
}
330
1D
100
AcDbEntity
  8
23
  6
Continuous
 62
     7
100
AcDbCircle
 10
13.25
 20
153.1
 30
0.0
 40
1.35
  0
LINE
  5
72A
102
{ACAD_REACTORS
330
7C7
102
}
330
1D
100
AcDbEntity
  8
23
  6
Continuous
 62
     7
100
AcDbLine
 10
42.93264
 20
161.052566
 30
0.0
 11
40.726862
 21
156.980361
 31
0.0
  0
ARC
  5
72B
102
{ACAD_REACTORS
330
7C7
102
}
330
1D
100
AcDbEntity
  8
23
  6
Continuous
 62
     7
100
AcDbCircle
 10
40.25
 20
153.1
 30
0.0
 40
3.0
100
AcDbArc
 50
104.8532559999999
 51
143.1301019999997
  0
LINE
  5
72C
102
{ACAD_REACTORS
330
7C7
102
}
330
1D
100
AcDbEntity
  8
23
  6
Continuous
 62
     7
100
AcDbLine
 10
36.25
 20
154.1
 30
0.0
 11
35.96968
 21
154.1
 31
0.0
  0
ARC
  5
72D
102
{ACAD_REACTORS
330
7C7
102
}
330
1D
100
AcDbEntity
  8
23
  6
Continuous
 62
     7
100
AcDbCircle
 10
26.75
 20
152.1
 30
0.0
 40
8.05
100
AcDbArc
 50
23.45383000000007
 51
156.54617
  0
LINE
  5
72E
102
{ACAD_REACTORS
330
7C7
102
}
330
1D
100
AcDbEntity
  8
23
  6
Continuous
 62
     7
100
AcDbLine
 10
17.53032
 20
154.1
 30
0.0
 11
17.25
 21
154.1
 31
0.0
  0
ARC
  5
72F
102
{ACAD_REACTORS
330
7C7
102
}
330
1D
100
AcDbEntity
  8
23
  6
Continuous
 62
     7
100
AcDbCircle
 10
13.25
 20
153.1
 30
0.0
 40
3.0
100
AcDbArc
 50
36.86989800000028
 51
75.14674400000006
  0
LINE
  5
730
102
{ACAD_REACTORS
330
7C7
102
}
330
1D
100
AcDbEntity
  8
23
  6
Continuous
 62
     7
100
AcDbLine
 10
12.773138
 20
156.980361
 30
0.0
 11
10.56736
 21
161.052566
 31
0.0
  0
LINE
  5
731
102
{ACAD_REACTORS
330
7C7
102
}
330
1D
100
AcDbEntity
  8
23
  6
Continuous
 62
     7
100
AcDbLine
 10
10.506694
 20
143.347246
 30
0.0
 11
12.743306
 21
148.852754
 31
0.0
  0
LINE
  5
732
102
{ACAD_REACTORS
330
7C7
102
}
330
1D
100
AcDbEntity
  8
23
  6
Continuous
 62
     7
100
AcDbLine
 10
14.59624
 20
150.1
 30
0.0
 11
17.53032
 21
150.1
 31
0.0
  0
ARC
  5
733
102
{ACAD_REACTORS
330
7C7
102
}
330
1D
100
AcDbEntity
  8
23
  6
Continuous
 62
     7
100
AcDbCircle
 10
26.75
 20
152.1
 30
0.0
 40
8.05
100
AcDbArc
 50
203.4538299999999
 51
336.5461700000001
  0
LINE
  5
734
102
{ACAD_REACTORS
330
7C7
102
}
330
1D
100
AcDbEntity
  8
23
  6
Continuous
 62
     7
100
AcDbLine
 10
35.96968
 20
150.1
 30
0.0
 11
38.90376
 21
150.1
 31
0.0
  0
LINE
  5
735
102
{ACAD_REACTORS
330
7C7
102
}
330
1D
100
AcDbEntity
  8
23
  6
Continuous
 62
     7
100
AcDbLine
 10
40.756694
 20
148.852754
 30
0.0
 11
42.993306
 21
143.347246
 31
0.0
  0
ARC
  5
736
102
{ACAD_REACTORS
330
7C8
102
}
330
1D
100
AcDbEntity
  8
23
  6
Continuous
 62
     7
100
AcDbCircle
 10
54.408776
 20
160.1
 30
0.0
 40
2.0
100
AcDbArc
 50
28.44292900000013
 51
90.0
  0
ARC
  5
737
102
{ACAD_REACTORS
330
7C8
102
}
330
1D
100
AcDbEntity
  8
23
  6
Continuous
 62
     7
100
AcDbCircle
 10
60.131722
 20
157.932928
 30
0.0
 40
2.0
100
AcDbArc
 50
208.4429290000001
 51
255.1467440000001
  0
ARC
  5
738
102
{ACAD_REACTORS
330
7C8
102
}
330
1D
100
AcDbEntity
  8
23
  6
Continuous
 62
     7
100
AcDbCircle
 10
62.85
 20
156.1
 30
0.0
 40
2.0
100
AcDbArc
 50
216.8698979999996
 51
270.0
  0
ARC
  5
739
102
{ACAD_REACTORS
330
7C8
102
}
330
1D
100
AcDbEntity
  8
23
  6
Continuous
 62
     7
100
AcDbCircle
 10
63.13032
 20
156.1
 30
0.0
 40
2.0
100
AcDbArc
 50
270.0
 51
336.5461700000003
  0
ARC
  5
73A
102
{ACAD_REACTORS
330
7C8
102
}
330
1D
100
AcDbEntity
  8
23
  6
Continuous
 62
     7
100
AcDbCircle
 10
81.56968
 20
156.1
 30
0.0
 40
2.0
100
AcDbArc
 50
203.4538299999997
 51
270.0
  0
ARC
  5
73B
102
{ACAD_REACTORS
330
7C8
102
}
330
1D
100
AcDbEntity
  8
23
  6
Continuous
 62
     7
100
AcDbCircle
 10
81.85
 20
156.1
 30
0.0
 40
2.0
100
AcDbArc
 50
270.0
 51
323.1301020000004
  0
ARC
  5
73C
102
{ACAD_REACTORS
330
7C8
102
}
330
1D
100
AcDbEntity
  8
23
  6
Continuous
 62
     7
100
AcDbCircle
 10
84.568279
 20
157.932928
 30
0.0
 40
2.0
100
AcDbArc
 50
284.8532560000002
 51
331.557071
  0
ARC
  5
73D
102
{ACAD_REACTORS
330
7C8
102
}
330
1D
100
AcDbEntity
  8
23
  6
Continuous
 62
     7
100
AcDbCircle
 10
90.291224
 20
160.1
 30
0.0
 40
2.0
100
AcDbArc
 50
90.0
 51
151.557071
  0
ARC
  5
73E
102
{ACAD_REACTORS
330
7C8
102
}
330
1D
100
AcDbEntity
  8
23
  6
Continuous
 62
     7
100
AcDbCircle
 10
90.44624
 20
144.1
 30
0.0
 40
2.0
100
AcDbArc
 50
202.1094479999995
 51
270.0
  0
ARC
  5
73F
102
{ACAD_REACTORS
330
7C8
102
}
330
1D
100
AcDbEntity
  8
23
  6
Continuous
 62
     7
100
AcDbCircle
 10
84.503761
 20
148.1
 30
0.0
 40
2.0
100
AcDbArc
 50
22.10944800000047
 51
90.0
  0
ARC
  5
740
102
{ACAD_REACTORS
330
7C8
102
}
330
1D
100
AcDbEntity
  8
23
  6
Continuous
 62
     7
100
AcDbCircle
 10
81.56968
 20
148.1
 30
0.0
 40
2.0
100
AcDbArc
 50
90.0
 51
156.5461699999996
  0
ARC
  5
741
102
{ACAD_REACTORS
330
7C8
102
}
330
1D
100
AcDbEntity
  8
23
  6
Continuous
 62
     7
100
AcDbCircle
 10
63.13032
 20
148.1
 30
0.0
 40
2.0
100
AcDbArc
 50
23.45383000000044
 51
90.0
  0
ARC
  5
742
102
{ACAD_REACTORS
330
7C8
102
}
330
1D
100
AcDbEntity
  8
23
  6
Continuous
 62
     7
100
AcDbCircle
 10
60.19624
 20
148.1
 30
0.0
 40
2.0
100
AcDbArc
 50
90.0
 51
157.8905519999996
  0
ARC
  5
743
102
{ACAD_REACTORS
330
7C8
102
}
330
1D
100
AcDbEntity
  8
23
  6
Continuous
 62
     7
100
AcDbCircle
 10
54.253761
 20
144.1
 30
0.0
 40
2.0
100
AcDbArc
 50
270.0
 51
337.8905520000005
  0
LINE
  5
744
102
{ACAD_REACTORS
330
7C8
102
}
330
1D
100
AcDbEntity
  8
23
  6
Continuous
 62
     7
100
AcDbLine
 10
52.6
 20
162.1
 30
0.0
 11
54.408776
 21
162.1
 31
0.0
  0
LINE
  5
745
102
{ACAD_REACTORS
330
7C8
102
}
330
1D
100
AcDbEntity
  8
23
  6
Continuous
 62
     7
100
AcDbLine
 10
90.291224
 20
162.1
 30
0.0
 11
92.1
 21
162.1
 31
0.0
  0
LINE
  5
746
102
{ACAD_REACTORS
330
7C8
102
}
330
1D
100
AcDbEntity
  8
23
  6
Continuous
 62
     7
100
AcDbLine
 10
92.1
 20
162.1
 30
0.0
 11
92.1
 21
159.2
 31
0.0
  0
ARC
  5
747
102
{ACAD_REACTORS
330
7C8
102
}
330
1D
100
AcDbEntity
  8
23
  6
Continuous
 62
     7
100
AcDbCircle
 10
92.1
 20
158.15
 30
0.0
 40
1.05
100
AcDbArc
 50
90.0
 51
270.0
  0
LINE
  5
748
102
{ACAD_REACTORS
330
7C8
102
}
330
1D
100
AcDbEntity
  8
23
  6
Continuous
 62
     7
100
AcDbLine
 10
92.1
 20
157.1
 30
0.0
 11
94.1
 21
157.1
 31
0.0
  0
LINE
  5
749
102
{ACAD_REACTORS
330
7C8
102
}
330
1D
100
AcDbEntity
  8
23
  6
Continuous
 62
     7
100
AcDbLine
 10
94.1
 20
157.1
 30
0.0
 11
94.1
 21
147.1
 31
0.0
  0
LINE
  5
74A
102
{ACAD_REACTORS
330
7C8
102
}
330
1D
100
AcDbEntity
  8
23
  6
Continuous
 62
     7
100
AcDbLine
 10
94.1
 20
147.1
 30
0.0
 11
92.1
 21
147.1
 31
0.0
  0
ARC
  5
74B
102
{ACAD_REACTORS
330
7C8
102
}
330
1D
100
AcDbEntity
  8
23
  6
Continuous
 62
     7
100
AcDbCircle
 10
92.1
 20
146.05
 30
0.0
 40
1.05
100
AcDbArc
 50
90.0
 51
270.0
  0
LINE
  5
74C
102
{ACAD_REACTORS
330
7C8
102
}
330
1D
100
AcDbEntity
  8
23
  6
Continuous
 62
     7
100
AcDbLine
 10
92.1
 20
145.0
 30
0.0
 11
92.1
 21
142.1
 31
0.0
  0
LINE
  5
74D
102
{ACAD_REACTORS
330
7C8
102
}
330
1D
100
AcDbEntity
  8
23
  6
Continuous
 62
     7
100
AcDbLine
 10
92.1
 20
142.1
 30
0.0
 11
90.44624
 21
142.1
 31
0.0
  0
LINE
  5
74E
102
{ACAD_REACTORS
330
7C8
102
}
330
1D
100
AcDbEntity
  8
23
  6
Continuous
 62
     7
100
AcDbLine
 10
54.253761
 20
142.1
 30
0.0
 11
52.6
 21
142.1
 31
0.0
  0
LINE
  5
74F
102
{ACAD_REACTORS
330
7C8
102
}
330
1D
100
AcDbEntity
  8
23
  6
Continuous
 62
     7
100
AcDbLine
 10
52.6
 20
142.1
 30
0.0
 11
52.6
 21
145.0
 31
0.0
  0
ARC
  5
750
102
{ACAD_REACTORS
330
7C8
102
}
330
1D
100
AcDbEntity
  8
23
  6
Continuous
 62
     7
100
AcDbCircle
 10
52.6
 20
146.05
 30
0.0
 40
1.05
100
AcDbArc
 50
270.0
 51
90.0
  0
LINE
  5
751
102
{ACAD_REACTORS
330
7C8
102
}
330
1D
100
AcDbEntity
  8
23
  6
Continuous
 62
     7
100
AcDbLine
 10
52.6
 20
147.1
 30
0.0
 11
50.6
 21
147.1
 31
0.0
  0
LINE
  5
752
102
{ACAD_REACTORS
330
7C8
102
}
330
1D
100
AcDbEntity
  8
23
  6
Continuous
 62
     7
100
AcDbLine
 10
50.6
 20
147.1
 30
0.0
 11
50.6
 21
157.1
 31
0.0
  0
LINE
  5
753
102
{ACAD_REACTORS
330
7C8
102
}
330
1D
100
AcDbEntity
  8
23
  6
Continuous
 62
     7
100
AcDbLine
 10
50.6
 20
157.1
 30
0.0
 11
52.6
 21
157.1
 31
0.0
  0
ARC
  5
754
102
{ACAD_REACTORS
330
7C8
102
}
330
1D
100
AcDbEntity
  8
23
  6
Continuous
 62
     7
100
AcDbCircle
 10
52.6
 20
158.15
 30
0.0
 40
1.05
100
AcDbArc
 50
270.0
 51
90.0
  0
LINE
  5
755
102
{ACAD_REACTORS
330
7C8
102
}
330
1D
100
AcDbEntity
  8
23
  6
Continuous
 62
     7
100
AcDbLine
 10
52.6
 20
159.2
 30
0.0
 11
52.6
 21
162.1
 31
0.0
  0
CIRCLE
  5
756
102
{ACAD_REACTORS
330
7C8
102
}
330
1D
100
AcDbEntity
  8
23
  6
Continuous
 62
     7
100
AcDbCircle
 10
72.35
 20
152.1
 30
0.0
 40
6.05
  0
CIRCLE
  5
757
102
{ACAD_REACTORS
330
7C8
102
}
330
1D
100
AcDbEntity
  8
23
  6
Continuous
 62
     7
100
AcDbCircle
 10
58.85
 20
153.1
 30
0.0
 40
1.35
  0
CIRCLE
  5
758
102
{ACAD_REACTORS
330
7C8
102
}
330
1D
100
AcDbEntity
  8
23
  6
Continuous
 62
     7
100
AcDbCircle
 10
85.85
 20
153.1
 30
0.0
 40
1.35
  0
LINE
  5
759
102
{ACAD_REACTORS
330
7C8
102
}
330
1D
100
AcDbEntity
  8
23
  6
Continuous
 62
     7
100
AcDbLine
 10
56.16736
 20
161.052566
 30
0.0
 11
58.373138
 21
156.980361
 31
0.0
  0
ARC
  5
75A
102
{ACAD_REACTORS
330
7C8
102
}
330
1D
100
AcDbEntity
  8
23
  6
Continuous
 62
     7
100
AcDbCircle
 10
58.85
 20
153.1
 30
0.0
 40
3.0
100
AcDbArc
 50
36.86989800000033
 51
75.14674400000011
  0
LINE
  5
75B
102
{ACAD_REACTORS
330
7C8
102
}
330
1D
100
AcDbEntity
  8
23
  6
Continuous
 62
     7
100
AcDbLine
 10
62.85
 20
154.1
 30
0.0
 11
63.13032
 21
154.1
 31
0.0
  0
ARC
  5
75C
102
{ACAD_REACTORS
330
7C8
102
}
330
1D
100
AcDbEntity
  8
23
  6
Continuous
 62
     7
100
AcDbCircle
 10
72.35
 20
152.1
 30
0.0
 40
8.05
100
AcDbArc
 50
23.45383000000005
 51
156.54617
  0
LINE
  5
75D
102
{ACAD_REACTORS
330
7C8
102
}
330
1D
100
AcDbEntity
  8
23
  6
Continuous
 62
     7
100
AcDbLine
 10
81.56968
 20
154.1
 30
0.0
 11
81.85
 21
154.1
 31
0.0
  0
ARC
  5
75E
102
{ACAD_REACTORS
330
7C8
102
}
330
1D
100
AcDbEntity
  8
23
  6
Continuous
 62
     7
100
AcDbCircle
 10
85.85
 20
153.1
 30
0.0
 40
3.0
100
AcDbArc
 50
104.8532560000001
 51
143.1301019999998
  0
LINE
  5
75F
102
{ACAD_REACTORS
330
7C8
102
}
330
1D
100
AcDbEntity
  8
23
  6
Continuous
 62
     7
100
AcDbLine
 10
86.326863
 20
156.980361
 30
0.0
 11
88.53264
 21
161.052566
 31
0.0
  0
LINE
  5
760
102
{ACAD_REACTORS
330
7C8
102
}
330
1D
100
AcDbEntity
  8
23
  6
Continuous
 62
     7
100
AcDbLine
 10
88.593307
 20
143.347246
 30
0.0
 11
86.356694
 21
148.852754
 31
0.0
  0
LINE
  5
761
102
{ACAD_REACTORS
330
7C8
102
}
330
1D
100
AcDbEntity
  8
23
  6
Continuous
 62
     7
100
AcDbLine
 10
84.503761
 20
150.1
 30
0.0
 11
81.56968
 21
150.1
 31
0.0
  0
ARC
  5
762
102
{ACAD_REACTORS
330
7C8
102
}
330
1D
100
AcDbEntity
  8
23
  6
Continuous
 62
     7
100
AcDbCircle
 10
72.35
 20
152.1
 30
0.0
 40
8.05
100
AcDbArc
 50
203.4538299999999
 51
336.5461700000001
  0
LINE
  5
763
102
{ACAD_REACTORS
330
7C8
102
}
330
1D
100
AcDbEntity
  8
23
  6
Continuous
 62
     7
100
AcDbLine
 10
63.13032
 20
150.1
 30
0.0
 11
60.19624
 21
150.1
 31
0.0
  0
LINE
  5
764
102
{ACAD_REACTORS
330
7C8
102
}
330
1D
100
AcDbEntity
  8
23
  6
Continuous
 62
     7
100
AcDbLine
 10
58.343307
 20
148.852754
 30
0.0
 11
56.106694
 21
143.347246
 31
0.0
  0
ARC
  5
765
102
{ACAD_REACTORS
330
7C9
102
}
330
1D
100
AcDbEntity
  8
23
  6
Continuous
 62
     7
100
AcDbCircle
 10
44.541126
 20
166.2
 30
0.0
 40
2.0
100
AcDbArc
 50
215.0003490000001
 51
270.0
  0
ARC
  5
766
102
{ACAD_REACTORS
330
7C9
102
}
330
1D
100
AcDbEntity
  8
23
  6
Continuous
 62
     7
100
AcDbCircle
 10
44.541126
 20
182.2
 30
0.0
 40
2.0
100
AcDbArc
 50
90.0
 51
144.9996509999999
  0
ARC
  5
767
102
{ACAD_REACTORS
330
7C9
102
}
330
1D
100
AcDbEntity
  8
23
  6
Continuous
 62
     7
100
AcDbCircle
 10
35.410254
 20
179.2
 30
0.0
 40
2.0
100
AcDbArc
 50
210.0
 51
270.0
  0
ARC
  5
768
102
{ACAD_REACTORS
330
7C9
102
}
330
1D
100
AcDbEntity
  8
23
  6
Continuous
 62
     7
100
AcDbCircle
 10
18.089746
 20
179.2
 30
0.0
 40
2.0
100
AcDbArc
 50
270.0
 51
330.0
  0
ARC
  5
769
102
{ACAD_REACTORS
330
7C9
102
}
330
1D
100
AcDbEntity
  8
23
  6
Continuous
 62
     7
100
AcDbCircle
 10
15.942643
 20
179.2
 30
0.0
 40
2.0
100
AcDbArc
 50
215.0003490000001
 51
270.0
  0
ARC
  5
76A
102
{ACAD_REACTORS
330
7C9
102
}
330
1D
100
AcDbEntity
  8
23
  6
Continuous
 62
     7
100
AcDbCircle
 10
8.958874
 20
182.2
 30
0.0
 40
2.0
100
AcDbArc
 50
35.00034900000013
 51
90.0
  0
ARC
  5
76B
102
{ACAD_REACTORS
330
7C9
102
}
330
1D
100
AcDbEntity
  8
23
  6
Continuous
 62
     7
100
AcDbCircle
 10
8.958874
 20
166.2
 30
0.0
 40
2.0
100
AcDbArc
 50
270.0
 51
324.9996509999999
  0
ARC
  5
76C
102
{ACAD_REACTORS
330
7C9
102
}
330
1D
100
AcDbEntity
  8
23
  6
Continuous
 62
     7
100
AcDbCircle
 10
15.942643
 20
169.2
 30
0.0
 40
2.0
100
AcDbArc
 50
90.0
 51
144.9996509999999
  0
ARC
  5
76D
102
{ACAD_REACTORS
330
7C9
102
}
330
1D
100
AcDbEntity
  8
23
  6
Continuous
 62
     7
100
AcDbCircle
 10
18.089746
 20
169.2
 30
0.0
 40
2.0
100
AcDbArc
 50
29.99999999999998
 51
90.0
  0
ARC
  5
76E
102
{ACAD_REACTORS
330
7C9
102
}
330
1D
100
AcDbEntity
  8
23
  6
Continuous
 62
     7
100
AcDbCircle
 10
35.410254
 20
169.2
 30
0.0
 40
2.0
100
AcDbArc
 50
90.0
 51
150.0
  0
ARC
  5
76F
102
{ACAD_REACTORS
330
7C9
102
}
330
1D
100
AcDbEntity
  8
23
  6
Continuous
 62
     7
100
AcDbCircle
 10
37.557357
 20
169.2
 30
0.0
 40
2.0
100
AcDbArc
 50
35.00034900000013
 51
90.0
  0
LINE
  5
770
102
{ACAD_REACTORS
330
7C9
102
}
330
1D
100
AcDbEntity
  8
23
  6
Continuous
 62
     7
100
AcDbLine
 10
39.195654
 20
170.347163
 30
0.0
 11
42.902829
 21
165.052837
 31
0.0
  0
LINE
  5
771
102
{ACAD_REACTORS
330
7C9
102
}
330
1D
100
AcDbEntity
  8
23
  6
Continuous
 62
     7
100
AcDbLine
 10
42.902829
 20
183.347163
 30
0.0
 11
38.598484
 21
177.2
 31
0.0
  0
LINE
  5
772
102
{ACAD_REACTORS
330
7C9
102
}
330
1D
100
AcDbEntity
  8
23
  6
Continuous
 62
     7
100
AcDbLine
 10
38.598484
 20
177.2
 30
0.0
 11
35.410254
 21
177.2
 31
0.0
  0
ARC
  5
773
102
{ACAD_REACTORS
330
7C9
102
}
330
1D
100
AcDbEntity
  8
23
  6
Continuous
 62
     7
100
AcDbCircle
 10
26.75
 20
174.2
 30
0.0
 40
8.0
100
AcDbArc
 50
29.99999999999998
 51
150.0
  0
LINE
  5
774
102
{ACAD_REACTORS
330
7C9
102
}
330
1D
100
AcDbEntity
  8
23
  6
Continuous
 62
     7
100
AcDbLine
 10
18.089746
 20
177.2
 30
0.0
 11
15.942643
 21
177.2
 31
0.0
  0
LINE
  5
775
102
{ACAD_REACTORS
330
7C9
102
}
330
1D
100
AcDbEntity
  8
23
  6
Continuous
 62
     7
100
AcDbLine
 10
14.304346
 20
178.052837
 30
0.0
 11
10.597171
 21
183.347163
 31
0.0
  0
LINE
  5
776
102
{ACAD_REACTORS
330
7C9
102
}
330
1D
100
AcDbEntity
  8
23
  6
Continuous
 62
     7
100
AcDbLine
 10
10.597171
 20
165.052837
 30
0.0
 11
14.304346
 21
170.347163
 31
0.0
  0
LINE
  5
777
102
{ACAD_REACTORS
330
7C9
102
}
330
1D
100
AcDbEntity
  8
23
  6
Continuous
 62
     7
100
AcDbLine
 10
15.942643
 20
171.2
 30
0.0
 11
18.089746
 21
171.2
 31
0.0
  0
ARC
  5
778
102
{ACAD_REACTORS
330
7C9
102
}
330
1D
100
AcDbEntity
  8
23
  6
Continuous
 62
     7
100
AcDbCircle
 10
26.75
 20
174.2
 30
0.0
 40
8.0
100
AcDbArc
 50
210.0
 51
330.0
  0
LINE
  5
779
102
{ACAD_REACTORS
330
7C9
102
}
330
1D
100
AcDbEntity
  8
23
  6
Continuous
 62
     7
100
AcDbLine
 10
35.410254
 20
171.2
 30
0.0
 11
37.557357
 21
171.2
 31
0.0
  0
LINE
  5
77A
102
{ACAD_REACTORS
330
7C9
102
}
330
1D
100
AcDbEntity
  8
23
  6
Continuous
 62
     7
100
AcDbLine
 10
44.541126
 20
164.2
 30
0.0
 11
46.5
 21
164.2
 31
0.0
  0
LINE
  5
77B
102
{ACAD_REACTORS
330
7C9
102
}
330
1D
100
AcDbEntity
  8
23
  6
Continuous
 62
     7
100
AcDbLine
 10
46.5
 20
164.2
 30
0.0
 11
46.5
 21
167.1
 31
0.0
  0
ARC
  5
77C
102
{ACAD_REACTORS
330
7C9
102
}
330
1D
100
AcDbEntity
  8
23
  6
Continuous
 62
     7
100
AcDbCircle
 10
46.5
 20
168.15
 30
0.0
 40
1.05
100
AcDbArc
 50
90.0
 51
270.0
  0
LINE
  5
77D
102
{ACAD_REACTORS
330
7C9
102
}
330
1D
100
AcDbEntity
  8
23
  6
Continuous
 62
     7
100
AcDbLine
 10
46.5
 20
169.2
 30
0.0
 11
48.5
 21
169.2
 31
0.0
  0
LINE
  5
77E
102
{ACAD_REACTORS
330
7C9
102
}
330
1D
100
AcDbEntity
  8
23
  6
Continuous
 62
     7
100
AcDbLine
 10
48.5
 20
169.2
 30
0.0
 11
48.5
 21
179.2
 31
0.0
  0
LINE
  5
77F
102
{ACAD_REACTORS
330
7C9
102
}
330
1D
100
AcDbEntity
  8
23
  6
Continuous
 62
     7
100
AcDbLine
 10
48.5
 20
179.2
 30
0.0
 11
46.5
 21
179.2
 31
0.0
  0
ARC
  5
780
102
{ACAD_REACTORS
330
7C9
102
}
330
1D
100
AcDbEntity
  8
23
  6
Continuous
 62
     7
100
AcDbCircle
 10
46.5
 20
180.25
 30
0.0
 40
1.05
100
AcDbArc
 50
90.0
 51
270.0
  0
LINE
  5
781
102
{ACAD_REACTORS
330
7C9
102
}
330
1D
100
AcDbEntity
  8
23
  6
Continuous
 62
     7
100
AcDbLine
 10
46.5
 20
181.3
 30
0.0
 11
46.5
 21
184.2
 31
0.0
  0
LINE
  5
782
102
{ACAD_REACTORS
330
7C9
102
}
330
1D
100
AcDbEntity
  8
23
  6
Continuous
 62
     7
100
AcDbLine
 10
46.5
 20
184.2
 30
0.0
 11
44.541126
 21
184.2
 31
0.0
  0
LINE
  5
783
102
{ACAD_REACTORS
330
7C9
102
}
330
1D
100
AcDbEntity
  8
23
  6
Continuous
 62
     7
100
AcDbLine
 10
8.958874
 20
184.2
 30
0.0
 11
7.0
 21
184.2
 31
0.0
  0
LINE
  5
784
102
{ACAD_REACTORS
330
7C9
102
}
330
1D
100
AcDbEntity
  8
23
  6
Continuous
 62
     7
100
AcDbLine
 10
7.0
 20
184.2
 30
0.0
 11
7.0
 21
181.3
 31
0.0
  0
ARC
  5
785
102
{ACAD_REACTORS
330
7C9
102
}
330
1D
100
AcDbEntity
  8
23
  6
Continuous
 62
     7
100
AcDbCircle
 10
7.0
 20
180.25
 30
0.0
 40
1.05
100
AcDbArc
 50
270.0
 51
90.0
  0
LINE
  5
786
102
{ACAD_REACTORS
330
7C9
102
}
330
1D
100
AcDbEntity
  8
23
  6
Continuous
 62
     7
100
AcDbLine
 10
7.0
 20
179.2
 30
0.0
 11
5.0
 21
179.2
 31
0.0
  0
LINE
  5
787
102
{ACAD_REACTORS
330
7C9
102
}
330
1D
100
AcDbEntity
  8
23
  6
Continuous
 62
     7
100
AcDbLine
 10
5.0
 20
179.2
 30
0.0
 11
5.0
 21
169.2
 31
0.0
  0
LINE
  5
788
102
{ACAD_REACTORS
330
7C9
102
}
330
1D
100
AcDbEntity
  8
23
  6
Continuous
 62
     7
100
AcDbLine
 10
5.0
 20
169.2
 30
0.0
 11
7.0
 21
169.2
 31
0.0
  0
ARC
  5
789
102
{ACAD_REACTORS
330
7C9
102
}
330
1D
100
AcDbEntity
  8
23
  6
Continuous
 62
     7
100
AcDbCircle
 10
7.0
 20
168.15
 30
0.0
 40
1.05
100
AcDbArc
 50
270.0
 51
90.0
  0
LINE
  5
78A
102
{ACAD_REACTORS
330
7C9
102
}
330
1D
100
AcDbEntity
  8
23
  6
Continuous
 62
     7
100
AcDbLine
 10
7.0
 20
167.1
 30
0.0
 11
7.0
 21
164.2
 31
0.0
  0
LINE
  5
78B
102
{ACAD_REACTORS
330
7C9
102
}
330
1D
100
AcDbEntity
  8
23
  6
Continuous
 62
     7
100
AcDbLine
 10
7.0
 20
164.2
 30
0.0
 11
8.958874
 21
164.2
 31
0.0
  0
CIRCLE
  5
78C
102
{ACAD_REACTORS
330
7C9
102
}
330
1D
100
AcDbEntity
  8
23
  6
Continuous
 62
     7
100
AcDbCircle
 10
13.25
 20
175.2
 30
0.0
 40
1.35
  0
CIRCLE
  5
78D
102
{ACAD_REACTORS
330
7C9
102
}
330
1D
100
AcDbEntity
  8
23
  6
Continuous
 62
     7
100
AcDbCircle
 10
40.25
 20
175.2
 30
0.0
 40
1.35
  0
CIRCLE
  5
78E
102
{ACAD_REACTORS
330
7C9
102
}
330
1D
100
AcDbEntity
  8
23
  6
Continuous
 62
     7
100
AcDbCircle
 10
26.75
 20
174.2
 30
0.0
 40
6.05
  0
ARC
  5
78F
102
{ACAD_REACTORS
330
7CA
102
}
330
1D
100
AcDbEntity
  8
23
  6
Continuous
 62
     7
100
AcDbCircle
 10
54.558874
 20
166.2
 30
0.0
 40
2.0
100
AcDbArc
 50
270.0
 51
324.9996509999999
  0
ARC
  5
790
102
{ACAD_REACTORS
330
7CA
102
}
330
1D
100
AcDbEntity
  8
23
  6
Continuous
 62
     7
100
AcDbCircle
 10
54.558874
 20
182.2
 30
0.0
 40
2.0
100
AcDbArc
 50
35.00034900000013
 51
90.0
  0
ARC
  5
791
102
{ACAD_REACTORS
330
7CA
102
}
330
1D
100
AcDbEntity
  8
23
  6
Continuous
 62
     7
100
AcDbCircle
 10
63.689746
 20
179.2
 30
0.0
 40
2.0
100
AcDbArc
 50
270.0
 51
330.0000000000001
  0
ARC
  5
792
102
{ACAD_REACTORS
330
7CA
102
}
330
1D
100
AcDbEntity
  8
23
  6
Continuous
 62
     7
100
AcDbCircle
 10
81.010254
 20
179.2
 30
0.0
 40
2.0
100
AcDbArc
 50
209.9999999999999
 51
270.0
  0
ARC
  5
793
102
{ACAD_REACTORS
330
7CA
102
}
330
1D
100
AcDbEntity
  8
23
  6
Continuous
 62
     7
100
AcDbCircle
 10
83.157358
 20
179.2
 30
0.0
 40
2.0
100
AcDbArc
 50
270.0
 51
324.999651
  0
ARC
  5
794
102
{ACAD_REACTORS
330
7CA
102
}
330
1D
100
AcDbEntity
  8
23
  6
Continuous
 62
     7
100
AcDbCircle
 10
90.141127
 20
182.2
 30
0.0
 40
2.0
100
AcDbArc
 50
90.0
 51
144.999651
  0
ARC
  5
795
102
{ACAD_REACTORS
330
7CA
102
}
330
1D
100
AcDbEntity
  8
23
  6
Continuous
 62
     7
100
AcDbCircle
 10
90.141127
 20
166.2
 30
0.0
 40
2.0
100
AcDbArc
 50
215.0003489999991
 51
270.0
  0
ARC
  5
796
102
{ACAD_REACTORS
330
7CA
102
}
330
1D
100
AcDbEntity
  8
23
  6
Continuous
 62
     7
100
AcDbCircle
 10
83.157358
 20
169.2
 30
0.0
 40
2.0
100
AcDbArc
 50
35.00034900000001
 51
90.0
  0
ARC
  5
797
102
{ACAD_REACTORS
330
7CA
102
}
330
1D
100
AcDbEntity
  8
23
  6
Continuous
 62
     7
100
AcDbCircle
 10
81.010254
 20
169.2
 30
0.0
 40
2.0
100
AcDbArc
 50
90.0
 51
150.0000000000001
  0
ARC
  5
798
102
{ACAD_REACTORS
330
7CA
102
}
330
1D
100
AcDbEntity
  8
23
  6
Continuous
 62
     7
100
AcDbCircle
 10
63.689746
 20
169.2
 30
0.0
 40
2.0
100
AcDbArc
 50
29.99999999999993
 51
90.0
  0
ARC
  5
799
102
{ACAD_REACTORS
330
7CA
102
}
330
1D
100
AcDbEntity
  8
23
  6
Continuous
 62
     7
100
AcDbCircle
 10
61.542643
 20
169.2
 30
0.0
 40
2.0
100
AcDbArc
 50
90.0
 51
144.9996509999999
  0
LINE
  5
79A
102
{ACAD_REACTORS
330
7CA
102
}
330
1D
100
AcDbEntity
  8
23
  6
Continuous
 62
     7
100
AcDbLine
 10
59.904346
 20
170.347163
 30
0.0
 11
56.197171
 21
165.052837
 31
0.0
  0
LINE
  5
79B
102
{ACAD_REACTORS
330
7CA
102
}
330
1D
100
AcDbEntity
  8
23
  6
Continuous
 62
     7
100
AcDbLine
 10
56.197171
 20
183.347163
 30
0.0
 11
60.501517
 21
177.2
 31
0.0
  0
LINE
  5
79C
102
{ACAD_REACTORS
330
7CA
102
}
330
1D
100
AcDbEntity
  8
23
  6
Continuous
 62
     7
100
AcDbLine
 10
60.501517
 20
177.2
 30
0.0
 11
63.689746
 21
177.2
 31
0.0
  0
ARC
  5
79D
102
{ACAD_REACTORS
330
7CA
102
}
330
1D
100
AcDbEntity
  8
23
  6
Continuous
 62
     7
100
AcDbCircle
 10
72.35
 20
174.2
 30
0.0
 40
8.0
100
AcDbArc
 50
29.99999999999998
 51
150.0
  0
LINE
  5
79E
102
{ACAD_REACTORS
330
7CA
102
}
330
1D
100
AcDbEntity
  8
23
  6
Continuous
 62
     7
100
AcDbLine
 10
81.010254
 20
177.2
 30
0.0
 11
83.157358
 21
177.2
 31
0.0
  0
LINE
  5
79F
102
{ACAD_REACTORS
330
7CA
102
}
330
1D
100
AcDbEntity
  8
23
  6
Continuous
 62
     7
100
AcDbLine
 10
84.795655
 20
178.052837
 30
0.0
 11
88.50283
 21
183.347163
 31
0.0
  0
LINE
  5
7A0
102
{ACAD_REACTORS
330
7CA
102
}
330
1D
100
AcDbEntity
  8
23
  6
Continuous
 62
     7
100
AcDbLine
 10
88.50283
 20
165.052837
 30
0.0
 11
84.795655
 21
170.347163
 31
0.0
  0
LINE
  5
7A1
102
{ACAD_REACTORS
330
7CA
102
}
330
1D
100
AcDbEntity
  8
23
  6
Continuous
 62
     7
100
AcDbLine
 10
83.157358
 20
171.2
 30
0.0
 11
81.010254
 21
171.2
 31
0.0
  0
ARC
  5
7A2
102
{ACAD_REACTORS
330
7CA
102
}
330
1D
100
AcDbEntity
  8
23
  6
Continuous
 62
     7
100
AcDbCircle
 10
72.35
 20
174.2
 30
0.0
 40
8.0
100
AcDbArc
 50
210.0
 51
330.0
  0
LINE
  5
7A3
102
{ACAD_REACTORS
330
7CA
102
}
330
1D
100
AcDbEntity
  8
23
  6
Continuous
 62
     7
100
AcDbLine
 10
63.689746
 20
171.2
 30
0.0
 11
61.542643
 21
171.2
 31
0.0
  0
LINE
  5
7A4
102
{ACAD_REACTORS
330
7CA
102
}
330
1D
100
AcDbEntity
  8
23
  6
Continuous
 62
     7
100
AcDbLine
 10
54.558874
 20
164.2
 30
0.0
 11
52.6
 21
164.2
 31
0.0
  0
LINE
  5
7A5
102
{ACAD_REACTORS
330
7CA
102
}
330
1D
100
AcDbEntity
  8
23
  6
Continuous
 62
     7
100
AcDbLine
 10
52.6
 20
164.2
 30
0.0
 11
52.6
 21
167.1
 31
0.0
  0
ARC
  5
7A6
102
{ACAD_REACTORS
330
7CA
102
}
330
1D
100
AcDbEntity
  8
23
  6
Continuous
 62
     7
100
AcDbCircle
 10
52.6
 20
168.15
 30
0.0
 40
1.05
100
AcDbArc
 50
270.0
 51
90.0
  0
LINE
  5
7A7
102
{ACAD_REACTORS
330
7CA
102
}
330
1D
100
AcDbEntity
  8
23
  6
Continuous
 62
     7
100
AcDbLine
 10
52.6
 20
169.2
 30
0.0
 11
50.6
 21
169.2
 31
0.0
  0
LINE
  5
7A8
102
{ACAD_REACTORS
330
7CA
102
}
330
1D
100
AcDbEntity
  8
23
  6
Continuous
 62
     7
100
AcDbLine
 10
50.6
 20
169.2
 30
0.0
 11
50.6
 21
179.2
 31
0.0
  0
LINE
  5
7A9
102
{ACAD_REACTORS
330
7CA
102
}
330
1D
100
AcDbEntity
  8
23
  6
Continuous
 62
     7
100
AcDbLine
 10
50.6
 20
179.2
 30
0.0
 11
52.6
 21
179.2
 31
0.0
  0
ARC
  5
7AA
102
{ACAD_REACTORS
330
7CA
102
}
330
1D
100
AcDbEntity
  8
23
  6
Continuous
 62
     7
100
AcDbCircle
 10
52.6
 20
180.25
 30
0.0
 40
1.05
100
AcDbArc
 50
270.0
 51
90.0
  0
LINE
  5
7AB
102
{ACAD_REACTORS
330
7CA
102
}
330
1D
100
AcDbEntity
  8
23
  6
Continuous
 62
     7
100
AcDbLine
 10
52.6
 20
181.3
 30
0.0
 11
52.6
 21
184.2
 31
0.0
  0
LINE
  5
7AC
102
{ACAD_REACTORS
330
7CA
102
}
330
1D
100
AcDbEntity
  8
23
  6
Continuous
 62
     7
100
AcDbLine
 10
52.6
 20
184.2
 30
0.0
 11
54.558874
 21
184.2
 31
0.0
  0
LINE
  5
7AD
102
{ACAD_REACTORS
330
7CA
102
}
330
1D
100
AcDbEntity
  8
23
  6
Continuous
 62
     7
100
AcDbLine
 10
90.141127
 20
184.2
 30
0.0
 11
92.1
 21
184.2
 31
0.0
  0
LINE
  5
7AE
102
{ACAD_REACTORS
330
7CA
102
}
330
1D
100
AcDbEntity
  8
23
  6
Continuous
 62
     7
100
AcDbLine
 10
92.1
 20
184.2
 30
0.0
 11
92.1
 21
181.3
 31
0.0
  0
ARC
  5
7AF
102
{ACAD_REACTORS
330
7CA
102
}
330
1D
100
AcDbEntity
  8
23
  6
Continuous
 62
     7
100
AcDbCircle
 10
92.1
 20
180.25
 30
0.0
 40
1.05
100
AcDbArc
 50
90.0
 51
270.0
  0
LINE
  5
7B0
102
{ACAD_REACTORS
330
7CA
102
}
330
1D
100
AcDbEntity
  8
23
  6
Continuous
 62
     7
100
AcDbLine
 10
92.1
 20
179.2
 30
0.0
 11
94.1
 21
179.2
 31
0.0
  0
LINE
  5
7B1
102
{ACAD_REACTORS
330
7CA
102
}
330
1D
100
AcDbEntity
  8
23
  6
Continuous
 62
     7
100
AcDbLine
 10
94.1
 20
179.2
 30
0.0
 11
94.1
 21
169.2
 31
0.0
  0
LINE
  5
7B2
102
{ACAD_REACTORS
330
7CA
102
}
330
1D
100
AcDbEntity
  8
23
  6
Continuous
 62
     7
100
AcDbLine
 10
94.1
 20
169.2
 30
0.0
 11
92.1
 21
169.2
 31
0.0
  0
ARC
  5
7B3
102
{ACAD_REACTORS
330
7CA
102
}
330
1D
100
AcDbEntity
  8
23
  6
Continuous
 62
     7
100
AcDbCircle
 10
92.1
 20
168.15
 30
0.0
 40
1.05
100
AcDbArc
 50
90.0
 51
270.0
  0
LINE
  5
7B4
102
{ACAD_REACTORS
330
7CA
102
}
330
1D
100
AcDbEntity
  8
23
  6
Continuous
 62
     7
100
AcDbLine
 10
92.1
 20
167.1
 30
0.0
 11
92.1
 21
164.2
 31
0.0
  0
LINE
  5
7B5
102
{ACAD_REACTORS
330
7CA
102
}
330
1D
100
AcDbEntity
  8
23
  6
Continuous
 62
     7
100
AcDbLine
 10
92.1
 20
164.2
 30
0.0
 11
90.141127
 21
164.2
 31
0.0
  0
CIRCLE
  5
7B6
102
{ACAD_REACTORS
330
7CA
102
}
330
1D
100
AcDbEntity
  8
23
  6
Continuous
 62
     7
100
AcDbCircle
 10
85.85
 20
175.2
 30
0.0
 40
1.35
  0
CIRCLE
  5
7B7
102
{ACAD_REACTORS
330
7CA
102
}
330
1D
100
AcDbEntity
  8
23
  6
Continuous
 62
     7
100
AcDbCircle
 10
58.85
 20
175.2
 30
0.0
 40
1.35
  0
CIRCLE
  5
7B8
102
{ACAD_REACTORS
330
7CA
102
}
330
1D
100
AcDbEntity
  8
23
  6
Continuous
 62
     7
100
AcDbCircle
 10
72.35
 20
174.2
 30
0.0
 40
6.05
  0
ENDSEC
  0
SECTION
  2
OBJECTS
  0
DICTIONARY
  5
C
330
0
100
AcDbDictionary
281
     1
  3
ACAD_DETAILVIEWSTYLE
350
265
  3
ACAD_GROUP
350
D
  3
ACAD_LAYOUT
350
1A
  3
ACAD_MLINESTYLE
350
17
  3
ACAD_PLOTSETTINGS
350
19
  3
ACAD_PLOTSTYLENAME
350
E
  3
ACAD_SCALELIST
350
217
  3
ACAD_SECTIONVIEWSTYLE
350
266
  3
AcDbVariableDictionary
350
260
  3
APPDATA
350
25E
  3
DWGPROPS
350
979
  0
DICTIONARY
  5
265
102
{ACAD_REACTORS
330
C
102
}
330
C
100
AcDbDictionary
281
     1
  0
DICTIONARY
  5
D
102
{ACAD_REACTORS
330
C
102
}
330
C
100
AcDbDictionary
281
     1
  3
*A1
350
7B9
  3
*A10
350
7C2
  3
*A11
350
7C3
  3
*A12
350
7C4
  3
*A13
350
7C5
  3
*A14
350
7C6
  3
*A15
350
7C7
  3
*A16
350
7C8
  3
*A17
350
7C9
  3
*A18
350
7CA
  3
*A2
350
7BA
  3
*A3
350
7BB
  3
*A4
350
7BC
  3
*A5
350
7BD
  3
*A6
350
7BE
  3
*A7
350
7BF
  3
*A8
350
7C0
  3
*A9
350
7C1
  0
DICTIONARY
  5
1A
102
{ACAD_REACTORS
330
C
102
}
330
C
100
AcDbDictionary
281
     1
  3
Model
350
1E
  3
ГVБ[Гg 1
350
1C
  0
DICTIONARY
  5
17
102
{ACAD_REACTORS
330
C
102
}
330
C
100
AcDbDictionary
281
     1
  3
Standard
350
18
  0
DICTIONARY
  5
19
102
{ACAD_REACTORS
330
C
102
}
330
C
100
AcDbDictionary
281
     1
  0
ACDBDICTIONARYWDFLT
  5
E
102
{ACAD_REACTORS
330
C
102
}
330
C
100
AcDbDictionary
281
     1
  3
Normal
350
F
100
AcDbDictionaryWithDefault
340
F
  0
DICTIONARY
  5
217
102
{ACAD_REACTORS
330
C
102
}
330
C
100
AcDbDictionary
281
     1
  3
A0
350
218
  3
A1
350
219
  3
A2
350
21A
  3
A3
350
21B
  3
A4
350
21C
  3
A5
350
21D
  3
A6
350
21E
  3
A7
350
21F
  3
A8
350
220
  3
A9
350
221
  3
B0
350
222
  3
B1
350
223
  3
B2
350
224
  3
B3
350
225
  3
B4
350
226
  3
B5
350
227
  3
B6
350
228
  3
B7
350
229
  3
B8
350
22A
  3
B9
350
22B
  3
C0
350
22C
  3
C1
350
22D
  3
C2
350
22E
  3
C3
350
22F
  3
C4
350
230
  3
C5
350
231
  3
C6
350
232
  3
C7
350
233
  3
C8
350
234
  3
C9
350
235
  3
D0
350
236
  3
D1
350
237
  3
D2
350
238
  0
DICTIONARY
  5
266
102
{ACAD_REACTORS
330
C
102
}
330
C
100
AcDbDictionary
281
     1
  0
DICTIONARY
  5
260
102
{ACAD_REACTORS
330
C
102
}
330
C
100
AcDbDictionary
281
     1
  0
DICTIONARY
  5
25E
102
{ACAD_REACTORS
330
C
102
}
330
C
100
AcDbDictionary
281
     1
  0
XRECORD
  5
979
102
{ACAD_REACTORS
330
C
102
}
330
C
100
AcDbXrecord
280
     1
  1
DWGPROPS COOKIE
  2

  3

  4

  6

  7

  8
haya
  9

300
=
301
=
302
=
303
=
304
=
305
=
306
=
307
=
308
=
309
=
 40
0.0
 41
2447892.625
 42
2458195.989677743
  1

 90
        0
  0
GROUP
  5
7B9
102
{ACAD_REACTORS
330
D
102
}
330
D
100
AcDbGroup
300

 70
     1
 71
     1
340
491
340
492
340
493
340
494
340
495
340
496
340
497
340
498
340
499
340
49A
340
49B
340
49C
340
49D
340
49E
340
49F
340
4A0
340
4A1
340
4A2
340
4A3
340
4A4
340
4A5
  0
GROUP
  5
7C2
102
{ACAD_REACTORS
330
D
102
}
330
D
100
AcDbGroup
300

 70
     1
 71
     1
340
75
340
76
340
77
340
78
340
79
340
7A
340
7B
340
7C
340
7D
340
7E
340
7F
340
80
340
81
340
82
340
83
340
84
340
85
340
86
340
87
340
88
340
89
340
8A
340
8B
340
8C
340
8D
340
8E
340
8F
340
90
340
91
340
92
340
93
340
94
340
95
340
96
340
97
340
98
  0
GROUP
  5
7C3
102
{ACAD_REACTORS
330
D
102
}
330
D
100
AcDbGroup
300

 70
     1
 71
     1
340
51
340
52
340
53
340
54
340
55
340
56
340
57
340
58
340
59
340
5A
340
5B
340
5C
340
5D
340
5E
340
5F
340
60
340
61
340
62
340
63
340
64
340
65
340
66
340
67
340
68
340
69
340
6A
340
6B
340
6C
340
6D
340
6E
340
6F
340
70
340
71
340
72
340
73
340
74
  0
GROUP
  5
7C4
102
{ACAD_REACTORS
330
D
102
}
330
D
100
AcDbGroup
300

 70
     1
 71
     1
340
99
340
9A
340
9B
340
9C
340
9D
340
9E
340
9F
340
A0
340
A1
340
A2
340
A3
340
A4
340
A5
340
A6
340
A7
340
A8
340
A9
340
AA
340
AB
340
AC
340
AD
340
AE
340
AF
340
B0
340
B1
340
B2
340
B3
340
B4
340
B5
340
B6
340
B7
340
B8
340
B9
340
BA
340
BB
340
BC
  0
GROUP
  5
7C5
102
{ACAD_REACTORS
330
D
102
}
330
D
100
AcDbGroup
300

 70
     1
 71
     1
340
6B1
340
6B2
340
6B3
340
6B4
340
6B5
340
6B6
340
6B7
340
6B8
340
6B9
340
6BA
340
6BB
340
6BC
340
6BD
340
6BE
340
6BF
340
6C0
340
6C1
340
6C2
340
6C3
340
6C4
340
6C5
340
6C6
340
6C7
340
6C8
340
6C9
340
6CA
340
6CB
340
6CC
340
6CD
340
6CE
340
6CF
340
6D0
340
6D1
340
6D2
340
6D3
340
6D4
340
6D5
340
6D6
340
6D7
340
6D8
340
6D9
340
6DA
340
6DB
  0
GROUP
  5
7C6
102
{ACAD_REACTORS
330
D
102
}
330
D
100
AcDbGroup
300

 70
     1
 71
     1
340
6DC
340
6DD
340
6DE
340
6DF
340
6E0
340
6E1
340
6E2
340
6E3
340
6E4
340
6E5
340
6E6
340
6E7
340
6E8
340
6E9
340
6EA
340
6EB
340
6EC
340
6ED
340
6EE
340
6EF
340
6F0
340
6F1
340
6F2
340
6F3
340
6F4
340
6F5
340
6F6
340
6F7
340
6F8
340
6F9
340
6FA
340
6FB
340
6FC
340
6FD
340
6FE
340
6FF
340
700
340
701
340
702
340
703
340
704
340
705
340
706
  0
GROUP
  5
7C7
102
{ACAD_REACTORS
330
D
102
}
330
D
100
AcDbGroup
300

 70
     1
 71
     1
340
707
340
708
340
709
340
70A
340
70B
340
70C
340
70D
340
70E
340
70F
340
710
340
711
340
712
340
713
340
714
340
715
340
716
340
717
340
718
340
719
340
71A
340
71B
340
71C
340
71D
340
71E
340
71F
340
720
340
721
340
722
340
723
340
724
340
725
340
726
340
727
340
728
340
729
340
72A
340
72B
340
72C
340
72D
340
72E
340
72F
340
730
340
731
340
732
340
733
340
734
340
735
  0
GROUP
  5
7C8
102
{ACAD_REACTORS
330
D
102
}
330
D
100
AcDbGroup
300

 70
     1
 71
     1
340
736
340
737
340
738
340
739
340
73A
340
73B
340
73C
340
73D
340
73E
340
73F
340
740
340
741
340
742
340
743
340
744
340
745
340
746
340
747
340
748
340
749
340
74A
340
74B
340
74C
340
74D
340
74E
340
74F
340
750
340
751
340
752
340
753
340
754
340
755
340
756
340
757
340
758
340
759
340
75A
340
75B
340
75C
340
75D
340
75E
340
75F
340
760
340
761
340
762
340
763
340
764
  0
GROUP
  5
7C9
102
{ACAD_REACTORS
330
D
102
}
330
D
100
AcDbGroup
300

 70
     1
 71
     1
340
765
340
766
340
767
340
768
340
769
340
76A
340
76B
340
76C
340
76D
340
76E
340
76F
340
770
340
771
340
772
340
773
340
774
340
775
340
776
340
777
340
778
340
779
340
77A
340
77B
340
77C
340
77D
340
77E
340
77F
340
780
340
781
340
782
340
783
340
784
340
785
340
786
340
787
340
788
340
789
340
78A
340
78B
340
78C
340
78D
340
78E
  0
GROUP
  5
7CA
102
{ACAD_REACTORS
330
D
102
}
330
D
100
AcDbGroup
300

 70
     1
 71
     1
340
78F
340
790
340
791
340
792
340
793
340
794
340
795
340
796
340
797
340
798
340
799
340
79A
340
79B
340
79C
340
79D
340
79E
340
79F
340
7A0
340
7A1
340
7A2
340
7A3
340
7A4
340
7A5
340
7A6
340
7A7
340
7A8
340
7A9
340
7AA
340
7AB
340
7AC
340
7AD
340
7AE
340
7AF
340
7B0
340
7B1
340
7B2
340
7B3
340
7B4
340
7B5
340
7B6
340
7B7
340
7B8
  0
GROUP
  5
7BA
102
{ACAD_REACTORS
330
D
102
}
330
D
100
AcDbGroup
300

 70
     1
 71
     1
340
4E1
340
4E2
340
4E3
340
4E4
340
4E5
340
4E6
340
4E7
340
4E8
340
4E9
340
4EA
340
4EB
340
4EC
340
4ED
340
4EE
340
4EF
340
4F0
340
4F1
340
4F2
340
4F3
340
4F4
340
4F5
  0
GROUP
  5
7BB
102
{ACAD_REACTORS
330
D
102
}
330
D
100
AcDbGroup
300

 70
     1
 71
     1
340
E7
340
E8
340
E9
340
EA
340
EB
340
EC
340
ED
340
EE
340
EF
340
F0
340
F1
340
F2
340
F3
340
F4
340
F5
340
F6
340
F7
340
F8
340
F9
340
FA
  0
GROUP
  5
7BC
102
{ACAD_REACTORS
330
D
102
}
330
D
100
AcDbGroup
300

 70
     1
 71
     1
340
1BD
340
1BE
340
1BF
340
1C0
340
1C1
340
1C2
340
1C3
340
1C4
340
1C5
340
1C6
340
1C7
340
1C8
340
1C9
340
1CA
340
1CB
340
1CC
340
1CD
340
1CE
340
1CF
340
1D0
  0
GROUP
  5
7BD
102
{ACAD_REACTORS
330
D
102
}
330
D
100
AcDbGroup
300

 70
     1
 71
     1
340
1A2
340
1A3
340
1A4
340
1A5
340
1A6
340
1A7
340
1A8
340
1A9
340
1AA
340
1AB
340
1AC
340
1AD
340
1AE
340
1AF
  0
GROUP
  5
7BE
102
{ACAD_REACTORS
330
D
102
}
330
D
100
AcDbGroup
300

 70
     1
 71
     1
340
1B0
340
1B1
340
1B2
340
1B3
340
1B4
340
1B5
340
1B6
340
1B7
340
1B8
340
1B9
340
1BA
340
1BB
340
1BC
  0
GROUP
  5
7BF
102
{ACAD_REACTORS
330
D
102
}
330
D
100
AcDbGroup
300

 70
     1
 71
     1
340
195
340
196
340
197
340
198
340
199
340
19A
340
19B
340
19C
340
19D
340
19E
340
19F
340
1A0
340
1A1
  0
GROUP
  5
7C0
102
{ACAD_REACTORS
330
D
102
}
330
D
100
AcDbGroup
300

 70
     1
 71
     1
340
187
340
188
340
189
340
18A
340
18B
340
18C
340
18D
340
18E
340
18F
340
190
340
191
340
192
340
193
340
194
  0
GROUP
  5
7C1
102
{ACAD_REACTORS
330
D
102
}
330
D
100
AcDbGroup
300

 70
     1
 71
     1
340
2D
340
2E
340
2F
340
30
340
31
340
32
340
33
340
34
340
35
340
36
340
37
340
38
340
39
340
3A
340
3B
340
3C
340
3D
340
3E
340
3F
340
40
340
41
340
42
340
43
340
44
340
45
340
46
340
47
340
48
340
49
340
4A
340
4B
340
4C
340
4D
340
4E
340
4F
340
50
  0
LAYOUT
  5
1E
102
{ACAD_REACTORS
330
1A
102
}
330
1A
100
AcDbPlotSettings
  1

  2
none_device
  4
Letter_(8.50_x_11.00_Inches)
  6

 40
6.35
 41
6.35
 42
6.35
 43
6.35
 44
215.9
 45
279.4
 46
0.0
 47
0.0
 48
0.0
 49
0.0
140
0.0
141
0.0
142
1.0
143
1.0
 70
  1712
 72
     0
 73
     0
 74
     0
  7

 75
     0
147
1.0
148
0.0
149
0.0
100
AcDbLayout
  1
Model
 70
     3
 71
     0
 10
0.0
 20
0.0
 11
12.0
 21
9.0
 12
0.0
 22
0.0
 32
0.0
 14
-0.0000000000000036
 24
0.0
 34
0.0
 15
200.0
 25
299.9999999999998
 35
0.0
146
0.0
 13
0.0
 23
0.0
 33
0.0
 16
1.0
 26
0.0
 36
0.0
 17
0.0
 27
1.0
 37
0.0
 76
     0
330
1D
331
2C
  0
LAYOUT
  5
1C
102
{ACAD_REACTORS
330
1A
102
}
330
1A
100
AcDbPlotSettings
  1

  2
none_device
  4

  6

 40
0.0
 41
0.0
 42
0.0
 43
0.0
 44
0.0
 45
0.0
 46
0.0
 47
0.0
 48
0.0
 49
0.0
140
0.0
141
0.0
142
1.0
143
1.0
 70
   688
 72
     0
 73
     0
 74
     5
  7

 75
    16
147
1.0
148
0.0
149
0.0
100
AcDbLayout
  1
ГVБ[Гg 1
 70
     1
 71
     1
 10
0.0
 20
0.0
 11
0.0
 21
0.0
 12
0.0
 22
0.0
 32
0.0
 14
0.0
 24
0.0
 34
0.0
 15
594.0
 25
420.0
 35
0.0
146
0.0
 13
0.0
 23
0.0
 33
0.0
 16
1.0
 26
0.0
 36
0.0
 17
0.0
 27
1.0
 37
0.0
 76
     0
330
1B
  0
MLINESTYLE
  5
18
102
{ACAD_REACTORS
330
17
102
}
330
17
100
AcDbMlineStyle
  2
Standard
 70
     0
  3

 62
   256
 51
90.0
 52
90.0
 71
     2
 49
0.5
 62
   256
  6
BYLAYER
 49
-0.5
 62
   256
  6
BYLAYER
  0
ACDBPLACEHOLDER
  5
F
102
{ACAD_REACTORS
330
E
102
}
330
E
  0
SCALE
  5
218
102
{ACAD_REACTORS
330
217
102
}
330
217
100
AcDbScale
 70
     0
300
1:1
140
1.0
141
1.0
290
     1
  0
SCALE
  5
219
102
{ACAD_REACTORS
330
217
102
}
330
217
100
AcDbScale
 70
     0
300
1:2
140
1.0
141
2.0
290
     0
  0
SCALE
  5
21A
102
{ACAD_REACTORS
330
217
102
}
330
217
100
AcDbScale
 70
     0
300
1:4
140
1.0
141
4.0
290
     0
  0
SCALE
  5
21B
102
{ACAD_REACTORS
330
217
102
}
330
217
100
AcDbScale
 70
     0
300
1:5
140
1.0
141
5.0
290
     0
  0
SCALE
  5
21C
102
{ACAD_REACTORS
330
217
102
}
330
217
100
AcDbScale
 70
     0
300
1:8
140
1.0
141
8.0
290
     0
  0
SCALE
  5
21D
102
{ACAD_REACTORS
330
217
102
}
330
217
100
AcDbScale
 70
     0
300
1:10
140
1.0
141
10.0
290
     0
  0
SCALE
  5
21E
102
{ACAD_REACTORS
330
217
102
}
330
217
100
AcDbScale
 70
     0
300
1:16
140
1.0
141
16.0
290
     0
  0
SCALE
  5
21F
102
{ACAD_REACTORS
330
217
102
}
330
217
100
AcDbScale
 70
     0
300
1:20
140
1.0
141
20.0
290
     0
  0
SCALE
  5
220
102
{ACAD_REACTORS
330
217
102
}
330
217
100
AcDbScale
 70
     0
300
1:30
140
1.0
141
30.0
290
     0
  0
SCALE
  5
221
102
{ACAD_REACTORS
330
217
102
}
330
217
100
AcDbScale
 70
     0
300
1:40
140
1.0
141
40.0
290
     0
  0
SCALE
  5
222
102
{ACAD_REACTORS
330
217
102
}
330
217
100
AcDbScale
 70
     0
300
1:50
140
1.0
141
50.0
290
     0
  0
SCALE
  5
223
102
{ACAD_REACTORS
330
217
102
}
330
217
100
AcDbScale
 70
     0
300
1:100
140
1.0
141
100.0
290
     0
  0
SCALE
  5
224
102
{ACAD_REACTORS
330
217
102
}
330
217
100
AcDbScale
 70
     0
300
2:1
140
2.0
141
1.0
290
     0
  0
SCALE
  5
225
102
{ACAD_REACTORS
330
217
102
}
330
217
100
AcDbScale
 70
     0
300
4:1
140
4.0
141
1.0
290
     0
  0
SCALE
  5
226
102
{ACAD_REACTORS
330
217
102
}
330
217
100
AcDbScale
 70
     0
300
8:1
140
8.0
141
1.0
290
     0
  0
SCALE
  5
227
102
{ACAD_REACTORS
330
217
102
}
330
217
100
AcDbScale
 70
     0
300
10:1
140
10.0
141
1.0
290
     0
  0
SCALE
  5
228
102
{ACAD_REACTORS
330
217
102
}
330
217
100
AcDbScale
 70
     0
300
100:1
140
100.0
141
1.0
290
     0
  0
SCALE
  5
229
102
{ACAD_REACTORS
330
217
102
}
330
217
100
AcDbScale
 70
     0
300
1/128" = 1'-0"
140
0.0078125
141
12.0
290
     0
  0
SCALE
  5
22A
102
{ACAD_REACTORS
330
217
102
}
330
217
100
AcDbScale
 70
     0
300
1/64" = 1'-0"
140
0.015625
141
12.0
290
     0
  0
SCALE
  5
22B
102
{ACAD_REACTORS
330
217
102
}
330
217
100
AcDbScale
 70
     0
300
1/32" = 1'-0"
140
0.03125
141
12.0
290
     0
  0
SCALE
  5
22C
102
{ACAD_REACTORS
330
217
102
}
330
217
100
AcDbScale
 70
     0
300
1/16" = 1'-0"
140
0.0625
141
12.0
290
     0
  0
SCALE
  5
22D
102
{ACAD_REACTORS
330
217
102
}
330
217
100
AcDbScale
 70
     0
300
3/32" = 1'-0"
140
0.09375
141
12.0
290
     0
  0
SCALE
  5
22E
102
{ACAD_REACTORS
330
217
102
}
330
217
100
AcDbScale
 70
     0
300
1/8" = 1'-0"
140
0.125
141
12.0
290
     0
  0
SCALE
  5
22F
102
{ACAD_REACTORS
330
217
102
}
330
217
100
AcDbScale
 70
     0
300
3/16" = 1'-0"
140
0.1875
141
12.0
290
     0
  0
SCALE
  5
230
102
{ACAD_REACTORS
330
217
102
}
330
217
100
AcDbScale
 70
     0
300
1/4" = 1'-0"
140
0.25
141
12.0
290
     0
  0
SCALE
  5
231
102
{ACAD_REACTORS
330
217
102
}
330
217
100
AcDbScale
 70
     0
300
3/8" = 1'-0"
140
0.375
141
12.0
290
     0
  0
SCALE
  5
232
102
{ACAD_REACTORS
330
217
102
}
330
217
100
AcDbScale
 70
     0
300
1/2" = 1'-0"
140
0.5
141
12.0
290
     0
  0
SCALE
  5
233
102
{ACAD_REACTORS
330
217
102
}
330
217
100
AcDbScale
 70
     0
300
3/4" = 1'-0"
140
0.75
141
12.0
290
     0
  0
SCALE
  5
234
102
{ACAD_REACTORS
330
217
102
}
330
217
100
AcDbScale
 70
     0
300
1" = 1'-0"
140
1.0
141
12.0
290
     0
  0
SCALE
  5
235
102
{ACAD_REACTORS
330
217
102
}
330
217
100
AcDbScale
 70
     0
300
1-1/2" = 1'-0"
140
1.5
141
12.0
290
     0
  0
SCALE
  5
236
102
{ACAD_REACTORS
330
217
102
}
330
217
100
AcDbScale
 70
     0
300
3" = 1'-0"
140
3.0
141
12.0
290
     0
  0
SCALE
  5
237
102
{ACAD_REACTORS
330
217
102
}
330
217
100
AcDbScale
 70
     0
300
6" = 1'-0"
140
6.0
141
12.0
290
     0
  0
SCALE
  5
238
102
{ACAD_REACTORS
330
217
102
}
330
217
100
AcDbScale
 70
     0
300
1'-0" = 1'-0"
140
12.0
141
12.0
290
     0
  0
ENDSEC
  0
EOF
