  0
SECTION
  2
HEADER
  9
$ACADVER
  1
AC1014
  9
$ACADMAINTVER
 70
     9
  9
$DWGCODEPAGE
  3
ANSI_932
  9
$INSBASE
 10
0.0
 20
0.0
 30
0.0
  9
$EXTMIN
 10
0.0
 20
0.0
 30
0.0
  9
$EXTMAX
 10
200.0
 20
299.9999999999998
 30
2.0
  9
$LIMMIN
 10
0.0
 20
0.0
  9
$LIMMAX
 10
594.0
 20
420.0
  9
$ORTHOMODE
 70
     0
  9
$REGENMODE
 70
     1
  9
$FILLMODE
 70
     1
  9
$QTEXTMODE
 70
     0
  9
$MIRRTEXT
 70
     1
  9
$DRAGMODE
 70
     2
  9
$LTSCALE
 40
0.25
  9
$OSMODE
 70
   511
  9
$ATTMODE
 70
     1
  9
$TEXTSIZE
 40
0.2
  9
$TRACEWID
 40
0.05
  9
$TEXTSTYLE
  7
STANDARD
  9
$CLAYER
  8
0
  9
$CELTYPE
  6
BYLAYER
  9
$CECOLOR
 62
   256
  9
$CELTSCALE
 40
1.0
  9
$DELOBJ
 70
     1
  9
$DISPSILH
 70
     0
  9
$DIMSCALE
 40
1.0
  9
$DIMASZ
 40
1.0
  9
$DIMEXO
 40
0.0
  9
$DIMDLI
 40
0.5
  9
$DIMRND
 40
0.0
  9
$DIMDLE
 40
0.0
  9
$DIMEXE
 40
0.0
  9
$DIMTP
 40
0.0
  9
$DIMTM
 40
0.0
  9
$DIMTXT
 40
4.0
  9
$DIMCEN
 40
0.0
  9
$DIMTSZ
 40
0.0
  9
$DIMTOL
 70
     0
  9
$DIMLIM
 70
     0
  9
$DIMTIH
 70
     1
  9
$DIMTOH
 70
     1
  9
$DIMSE1
 70
     0
  9
$DIMSE2
 70
     0
  9
$DIMTAD
 70
     0
  9
$DIMZIN
 70
     0
  9
$DIMBLK
  1

  9
$DIMASO
 70
     0
  9
$DIMSHO
 70
     0
  9
$DIMPOST
  1

  9
$DIMAPOST
  1

  9
$DIMALT
 70
     0
  9
$DIMALTD
 70
     0
  9
$DIMALTF
 40
25.4
  9
$DIMLFAC
 40
1.0
  9
$DIMTOFL
 70
     0
  9
$DIMTVP
 40
0.0
  9
$DIMTIX
 70
     0
  9
$DIMSOXD
 70
     0
  9
$DIMSAH
 70
     0
  9
$DIMBLK1
  1

  9
$DIMBLK2
  1

  9
$DIMSTYLE
  2
STANDARD
  9
$DIMCLRD
 70
     0
  9
$DIMCLRE
 70
     0
  9
$DIMCLRT
 70
     0
  9
$DIMTFAC
 40
1.0
  9
$DIMGAP
 40
0.09
  9
$DIMJUST
 70
     0
  9
$DIMSD1
 70
     0
  9
$DIMSD2
 70
     0
  9
$DIMTOLJ
 70
     1
  9
$DIMTZIN
 70
     0
  9
$DIMALTZ
 70
     0
  9
$DIMALTTZ
 70
     0
  9
$DIMFIT
 70
     5
  9
$DIMUPT
 70
     0
  9
$DIMUNIT
 70
     2
  9
$DIMDEC
 70
     2
  9
$DIMTDEC
 70
     2
  9
$DIMALTU
 70
     2
  9
$DIMALTTD
 70
     2
  9
$DIMTXSTY
  7
STANDARD
  9
$DIMAUNIT
 70
     0
  9
$LUNITS
 70
     2
  9
$LUPREC
 70
     2
  9
$SKETCHINC
 40
0.0
  9
$FILLETRAD
 40
0.0
  9
$AUNITS
 70
     1
  9
$AUPREC
 70
     2
  9
$MENU
  1
ACAD
  9
$ELEVATION
 40
0.0
  9
$PELEVATION
 40
0.0
  9
$THICKNESS
 40
0.0
  9
$LIMCHECK
 70
     1
  9
$CHAMFERA
 40
0.0
  9
$CHAMFERB
 40
0.0
  9
$CHAMFERC
 40
0.0
  9
$CHAMFERD
 40
0.0
  9
$SKPOLY
 70
     0
  9
$TDCREATE
 40
2447893.0
  9
$TDUPDATE
 40
2458246.526229734
  9
$TDINDWG
 40
0.1388617593
  9
$TDUSRTIMER
 40
0.000530544
  9
$USRTIMER
 70
     1
  9
$ANGBASE
 50
0.0
  9
$ANGDIR
 70
     0
  9
$PDMODE
 70
     0
  9
$PDSIZE
 40
0.0
  9
$PLINEWID
 40
0.0
  9
$COORDS
 70
     1
  9
$SPLFRAME
 70
     0
  9
$SPLINETYPE
 70
     6
  9
$SPLINESEGS
 70
     8
  9
$ATTDIA
 70
     0
  9
$ATTREQ
 70
     1
  9
$HANDLING
 70
     1
  9
$HANDSEED
  5
E5F
  9
$SURFTAB1
 70
     6
  9
$SURFTAB2
 70
     6
  9
$SURFTYPE
 70
     6
  9
$SURFU
 70
     6
  9
$SURFV
 70
     6
  9
$UCSNAME
  2

  9
$UCSORG
 10
0.0
 20
0.0
 30
0.0
  9
$UCSXDIR
 10
1.0
 20
0.0
 30
0.0
  9
$UCSYDIR
 10
0.0
 20
1.0
 30
0.0
  9
$PUCSNAME
  2

  9
$PUCSORG
 10
0.0
 20
0.0
 30
0.0
  9
$PUCSXDIR
 10
1.0
 20
0.0
 30
0.0
  9
$PUCSYDIR
 10
0.0
 20
1.0
 30
0.0
  9
$USERI1
 70
     0
  9
$USERI2
 70
     0
  9
$USERI3
 70
     0
  9
$USERI4
 70
     0
  9
$USERI5
 70
     0
  9
$USERR1
 40
0.0
  9
$USERR2
 40
0.0
  9
$USERR3
 40
0.0
  9
$USERR4
 40
0.0
  9
$USERR5
 40
0.0
  9
$WORLDVIEW
 70
     1
  9
$SHADEDGE
 70
     3
  9
$SHADEDIF
 70
    70
  9
$TILEMODE
 70
     1
  9
$MAXACTVP
 70
    64
  9
$PINSBASE
 10
0.0
 20
0.0
 30
0.0
  9
$PLIMCHECK
 70
     0
  9
$PEXTMIN
 10
1.05
 20
0.6999999999999997
 30
0.0
  9
$PEXTMAX
 10
9.45
 20
6.300000000000001
 30
0.0
  9
$PLIMMIN
 10
-0.25
 20
-0.7499999999999999
  9
$PLIMMAX
 10
10.75
 20
7.75
  9
$UNITMODE
 70
     0
  9
$VISRETAIN
 70
     1
  9
$PLINEGEN
 70
     0
  9
$PSLTSCALE
 70
     1
  9
$TREEDEPTH
 70
  3020
  9
$PICKSTYLE
 70
     1
  9
$CMLSTYLE
  2
STANDARD
  9
$CMLJUST
 70
     0
  9
$CMLSCALE
 40
1.0
  9
$PROXYGRAPHICS
 70
     1
  9
$MEASUREMENT
 70
     0
  0
ENDSEC
  0
SECTION
  2
CLASSES
  0
CLASS
  1
ACDBDICTIONARYWDFLT
  2
AcDbDictionaryWithDefault
  3
ObjectDBX Classes
 90
        0
280
     0
281
     0
  0
CLASS
  1
SCALE
  2
AcDbScale
  3
ObjectDBX Classes
 90
     1153
280
     0
281
     0
  0
CLASS
  1
VISUALSTYLE
  2
AcDbVisualStyle
  3
ObjectDBX Classes
 90
     4095
280
     0
281
     0
  0
CLASS
  1
MATERIAL
  2
AcDbMaterial
  3
ObjectDBX Classes
 90
     1153
280
     0
281
     0
  0
CLASS
  1
TABLESTYLE
  2
AcDbTableStyle
  3
ObjectDBX Classes
 90
     4095
280
     0
281
     0
  0
CLASS
  1
MLEADERSTYLE
  2
AcDbMLeaderStyle
  3
ACDB_MLEADERSTYLE_CLASS
 90
     4095
280
     0
281
     0
  0
CLASS
  1
DICTIONARYVAR
  2
AcDbDictionaryVar
  3
ObjectDBX Classes
 90
        0
280
     0
281
     0
  0
CLASS
  1
DIMASSOC
  2
AcDbDimAssoc
  3
"AcDbDimAssoc|Product Desc:     AcDim ARX App For Dimension|Company:          Autodesk, Inc.|WEB Address:      www.autodesk.com"
 90
        0
280
     0
281
     0
  0
CLASS
  1
SUN
  2
AcDbSun
  3
SCENEOE
 90
     1153
280
     0
281
     0
  0
CLASS
  1
XRECORD
  2
AcDbXrecord
  3
ObjectDBX Classes
 90
        0
280
     0
281
     0
  0
CLASS
  1
LWPOLYLINE
  2
AcDbPolyline
  3
ObjectDBX Classes
 90
        0
280
     0
281
     1
  0
CLASS
  1
HATCH
  2
AcDbHatch
  3
ObjectDBX Classes
 90
        0
280
     0
281
     1
  0
ENDSEC
  0
SECTION
  2
TABLES
  0
TABLE
  2
VPORT
  5
8
330
0
100
AcDbSymbolTable
 70
     1
  0
VPORT
  5
2C
330
8
100
AcDbSymbolTableRecord
100
AcDbViewportTableRecord
  2
*ACTIVE
 70
     0
 10
0.0
 20
0.0
 11
1.0
 21
1.0
 12
118.2941042324051
 22
202.2950927826044
 13
0.0
 23
0.0
 14
1.0
 24
1.0
 15
5.0
 25
5.0
 16
0.0
 26
0.0
 36
1.0
 17
0.0
 27
0.0
 37
0.0
 40
133.8724735717958
 41
2.386666666666667
 42
50.0
 43
0.0
 44
0.0
 50
0.0
 51
0.0
 71
    16
 72
   100
 73
     1
 74
     3
 75
     1
 76
     1
 77
     0
 78
     0
  0
ENDTAB
  0
TABLE
  2
LTYPE
  5
5
330
0
100
AcDbSymbolTable
 70
     7
  0
LTYPE
  5
14
330
5
100
AcDbSymbolTableRecord
100
AcDbLinetypeTableRecord
  2
BYBLOCK
 70
     0
  3

 72
    65
 73
     0
 40
0.0
  0
LTYPE
  5
15
330
5
100
AcDbSymbolTableRecord
100
AcDbLinetypeTableRecord
  2
BYLAYER
 70
     0
  3

 72
    65
 73
     0
 40
0.0
  0
LTYPE
  5
16
330
5
100
AcDbSymbolTableRecord
100
AcDbLinetypeTableRecord
  2
CONTINUOUS
 70
     0
  3
Solid line
 72
    65
 73
     0
 40
0.0
  0
LTYPE
  5
21
330
5
100
AcDbSymbolTableRecord
100
AcDbLinetypeTableRecord
  2
HIDDEN
 70
     0
  3
------------------------
 72
    65
 73
     2
 40
12.6
 49
8.4
 74
     0
 49
-4.2
 74
     0
  0
LTYPE
  5
22
330
5
100
AcDbSymbolTableRecord
100
AcDbLinetypeTableRecord
  2
DOT
 70
     0
  3
ееееееееееееееееееееееее
 72
    65
 73
     2
 40
8.0
 49
6.0
 74
     0
 49
-2.0
 74
     0
  0
LTYPE
  5
23
330
5
100
AcDbSymbolTableRecord
100
AcDbLinetypeTableRecord
  2
DASHDOT
 70
     0
  3
--е--е--е--е--е--е--е--
 72
    65
 73
     4
 40
50.5
 49
30.0
 74
     0
 49
-9.0
 74
     0
 49
2.5
 74
     0
 49
-9.0
 74
     0
  0
LTYPE
  5
24
330
5
100
AcDbSymbolTableRecord
100
AcDbLinetypeTableRecord
  2
DIVIDE
 70
     0
  3
--ее--ее--ее--ее--ее--
 72
    65
 73
     6
 40
58.0
 49
30.0
 74
     0
 49
-9.0
 74
     0
 49
2.5
 74
     0
 49
-5.0
 74
     0
 49
2.5
 74
     0
 49
-9.0
 74
     0
  0
LTYPE
  5
25
330
5
100
AcDbSymbolTableRecord
100
AcDbLinetypeTableRecord
  2
ACAD_ISO06W100
 70
     0
  3
____ ... ____ ... ____
 72
    65
 73
     8
 40
37.5
 49
24.0
 74
     0
 49
-3.0
 74
     0
 49
0.5
 74
     0
 49
-3.0
 74
     0
 49
0.5
 74
     0
 49
-3.0
 74
     0
 49
0.5
 74
     0
 49
-3.0
 74
     0
  0
LTYPE
  5
26
330
5
100
AcDbSymbolTableRecord
100
AcDbLinetypeTableRecord
  2
ACAD_ISO14W100
 70
     0
  3
__ . . . __ . . . __ . . . 
 72
    65
 73
     8
 40
25.5
 49
12.0
 74
     0
 49
-3.0
 74
     0
 49
0.5
 74
     0
 49
-3.0
 74
     0
 49
0.5
 74
     0
 49
-3.0
 74
     0
 49
0.5
 74
     0
 49
-3.0
 74
     0
  0
ENDTAB
  0
TABLE
  2
LAYER
  5
2
330
0
100
AcDbSymbolTable
 70
     5
  0
LAYER
  5
10
330
2
100
AcDbSymbolTableRecord
100
AcDbLayerTableRecord
  2
0
 70
     0
 62
     7
  6
CONTINUOUS
  0
LAYER
  5
27
330
2
100
AcDbSymbolTableRecord
100
AcDbLayerTableRecord
  2
23
 70
     0
 62
     7
  6
CONTINUOUS
  0
LAYER
  5
28
330
2
100
AcDbSymbolTableRecord
100
AcDbLayerTableRecord
  2
24
 70
     0
 62
     7
  6
CONTINUOUS
  0
LAYER
  5
172
330
2
100
AcDbSymbolTableRecord
100
AcDbLayerTableRecord
  2
DEFPOINTS
 70
     0
 62
     7
  6
CONTINUOUS
  0
LAYER
  5
810
330
2
100
AcDbSymbolTableRecord
100
AcDbLayerTableRecord
  2
VISIBLE__ISO_
 70
     0
 62
     7
  6
CONTINUOUS
  0
ENDTAB
  0
TABLE
  2
STYLE
  5
3
330
0
100
AcDbSymbolTable
 70
     2
  0
STYLE
  5
11
330
3
100
AcDbSymbolTableRecord
100
AcDbTextStyleTableRecord
  2
STANDARD
 70
     0
 40
0.0
 41
1.0
 50
0.0
 71
     0
 42
0.2
  3
TXT
  4

  0
STYLE
  5
2A
330
3
100
AcDbSymbolTableRecord
100
AcDbTextStyleTableRecord
  2
KANJI
 70
     0
 40
0.0
 41
1.0
 50
0.0
 71
     0
 42
0.2
  3
TXT
  4
BIGFONT
  0
ENDTAB
  0
TABLE
  2
VIEW
  5
6
330
0
100
AcDbSymbolTable
 70
     0
  0
ENDTAB
  0
TABLE
  2
UCS
  5
7
330
0
100
AcDbSymbolTable
 70
     0
  0
ENDTAB
  0
TABLE
  2
APPID
  5
9
330
0
100
AcDbSymbolTable
 70
     2
  0
APPID
  5
12
330
9
100
AcDbSymbolTableRecord
100
AcDbRegAppTableRecord
  2
ACAD
 70
     0
  0
APPID
  5
171
330
9
100
AcDbSymbolTableRecord
100
AcDbRegAppTableRecord
  2
ACAD_DSTYLE_DIMRADIAL_EXTE
 70
     0
  0
ENDTAB
  0
TABLE
  2
DIMSTYLE
  5
A
330
0
100
AcDbSymbolTable
 70
     1
  0
DIMSTYLE
105
2B
330
A
100
AcDbSymbolTableRecord
100
AcDbDimStyleTableRecord
  2
STANDARD
 70
     0
  3

  4

  5

  6

  7

 40
1.0
 41
0.18
 42
0.0625
 43
0.38
 44
0.18
 45
0.0
 46
0.0
 47
0.0
 48
0.0
140
0.18
141
0.09
142
0.0
143
25.4
144
1.0
145
0.0
146
1.0
147
0.09
 71
     0
 72
     0
 73
     1
 74
     1
 75
     0
 76
     0
 77
     0
 78
     0
170
     0
171
     2
172
     0
173
     0
174
     0
175
     0
176
     0
177
     0
178
     0
270
     2
271
     4
272
     4
273
     2
274
     2
340
11
275
     0
280
     0
281
     0
282
     0
283
     1
284
     0
285
     0
286
     0
287
     3
288
     0
  0
ENDTAB
  0
TABLE
  2
BLOCK_RECORD
  5
1
330
0
100
AcDbSymbolTable
 70
     0
  0
BLOCK_RECORD
  5
1D
330
1
100
AcDbSymbolTableRecord
100
AcDbBlockTableRecord
  2
*MODEL_SPACE
  0
BLOCK_RECORD
  5
1B
330
1
100
AcDbSymbolTableRecord
100
AcDbBlockTableRecord
  2
*PAPER_SPACE
  0
ENDTAB
  0
ENDSEC
  0
SECTION
  2
BLOCKS
  0
BLOCK
  5
13B
330
1D
100
AcDbEntity
  8
0
100
AcDbBlockBegin
  2
*MODEL_SPACE
 70
     0
 10
0.0
 20
0.0
 30
0.0
  3
*MODEL_SPACE
  1

  0
ENDBLK
  5
13C
330
1D
100
AcDbEntity
  8
0
100
AcDbBlockEnd
  0
BLOCK
  5
13D
330
1B
100
AcDbEntity
 67
     1
  8
0
100
AcDbBlockBegin
  2
*PAPER_SPACE
 70
     0
 10
0.0
 20
0.0
 30
0.0
  3
*PAPER_SPACE
  1

  0
ENDBLK
  5
13E
330
1B
100
AcDbEntity
 67
     1
  8
0
100
AcDbBlockEnd
  0
ENDSEC
  0
SECTION
  2
ENTITIES
  0
LWPOLYLINE
  5
168
330
1D
100
AcDbEntity
  8
0
100
AcDbPolyline
 90
        4
 70
     1
 43
0.0
 10
0.0
 20
0.0
 10
0.0
 20
299.9999999999998
 10
200.0
 20
299.9999999999998
 10
200.0
 20
0.0
  0
ARC
  5
5B3
102
{ACAD_REACTORS
330
612
102
}
330
1D
100
AcDbEntity
  8
23
  6
CONTINUOUS
 62
     7
100
AcDbCircle
 10
18.38035500000001
 20
176.0
 30
0.0
 40
2.0
100
AcDbArc
 50
2.331226999998905
 51
90.0
  0
ARC
  5
5B4
102
{ACAD_REACTORS
330
612
102
}
330
1D
100
AcDbEntity
  8
23
  6
CONTINUOUS
 62
     7
100
AcDbCircle
 10
12.61964499999999
 20
176.0
 30
0.0
 40
2.0
100
AcDbArc
 50
90.0
 51
177.6687730000011
  0
LINE
  5
5B5
102
{ACAD_REACTORS
330
612
102
}
330
1D
100
AcDbEntity
  8
23
  6
CONTINUOUS
 62
     7
100
AcDbLine
 10
18.38035500000001
 20
178.0
 30
0.0
 11
12.61964499999999
 21
178.0
 31
0.0
  0
ARC
  5
5B6
102
{ACAD_REACTORS
330
612
102
}
330
1D
100
AcDbEntity
  8
23
  6
CONTINUOUS
 62
     7
100
AcDbCircle
 10
18.05000000000001
 20
162.0
 30
0.0
 40
1.05
100
AcDbArc
 50
270.0
 51
90.0
  0
LINE
  5
5B7
102
{ACAD_REACTORS
330
612
102
}
330
1D
100
AcDbEntity
  8
23
  6
CONTINUOUS
 62
     7
100
AcDbLine
 10
18.05000000000001
 20
160.95
 30
0.0
 11
18.05000000000001
 21
50.05000000000001
 31
0.0
  0
ARC
  5
5B8
102
{ACAD_REACTORS
330
612
102
}
330
1D
100
AcDbEntity
  8
23
  6
CONTINUOUS
 62
     7
100
AcDbCircle
 10
18.05000000000001
 20
49.0
 30
0.0
 40
1.05
100
AcDbArc
 50
270.0
 51
90.0
  0
LINE
  5
5B9
102
{ACAD_REACTORS
330
612
102
}
330
1D
100
AcDbEntity
  8
23
  6
CONTINUOUS
 62
     7
100
AcDbLine
 10
18.05000000000001
 20
47.94999999999999
 30
0.0
 11
12.94999999999999
 21
47.94999999999999
 31
0.0
  0
ARC
  5
5BA
102
{ACAD_REACTORS
330
612
102
}
330
1D
100
AcDbEntity
  8
23
  6
CONTINUOUS
 62
     7
100
AcDbCircle
 10
12.94999999999999
 20
49.0
 30
0.0
 40
1.05
100
AcDbArc
 50
90.0
 51
270.0
  0
LINE
  5
5BB
102
{ACAD_REACTORS
330
612
102
}
330
1D
100
AcDbEntity
  8
23
  6
CONTINUOUS
 62
     7
100
AcDbLine
 10
12.94999999999999
 20
50.05000000000001
 30
0.0
 11
12.94999999999999
 21
160.95
 31
0.0
  0
ARC
  5
5BC
102
{ACAD_REACTORS
330
612
102
}
330
1D
100
AcDbEntity
  8
23
  6
CONTINUOUS
 62
     7
100
AcDbCircle
 10
12.94999999999999
 20
162.0
 30
0.0
 40
1.05
100
AcDbArc
 50
90.0
 51
270.0
  0
LINE
  5
5BD
102
{ACAD_REACTORS
330
612
102
}
330
1D
100
AcDbEntity
  8
23
  6
CONTINUOUS
 62
     7
100
AcDbLine
 10
12.94999999999999
 20
163.05
 30
0.0
 11
18.05000000000001
 21
163.05
 31
0.0
  0
CIRCLE
  5
5BE
102
{ACAD_REACTORS
330
612
102
}
330
1D
100
AcDbEntity
  8
23
  6
CONTINUOUS
 62
     7
100
AcDbCircle
 10
15.5
 20
15.5
 30
0.0
 40
5.05
  0
CIRCLE
  5
5BF
102
{ACAD_REACTORS
330
612
102
}
330
1D
100
AcDbEntity
  8
23
  6
CONTINUOUS
 62
     7
100
AcDbCircle
 10
15.5
 20
38.0
 30
0.0
 40
1.55
  0
CIRCLE
  5
5C0
102
{ACAD_REACTORS
330
612
102
}
330
1D
100
AcDbEntity
  8
23
  6
CONTINUOUS
 62
     7
100
AcDbCircle
 10
15.5
 20
173.0
 30
0.0
 40
1.55
  0
CIRCLE
  5
5C1
102
{ACAD_REACTORS
330
612
102
}
330
1D
100
AcDbEntity
  8
23
  6
CONTINUOUS
 62
     7
100
AcDbCircle
 10
15.5
 20
7.0
 30
0.0
 40
1.35
  0
CIRCLE
  5
5C2
102
{ACAD_REACTORS
330
612
102
}
330
1D
100
AcDbEntity
  8
23
  6
CONTINUOUS
 62
     7
100
AcDbCircle
 10
7.0
 20
15.5
 30
0.0
 40
1.35
  0
CIRCLE
  5
5C3
102
{ACAD_REACTORS
330
612
102
}
330
1D
100
AcDbEntity
  8
23
  6
CONTINUOUS
 62
     7
100
AcDbCircle
 10
15.5
 20
24.0
 30
0.0
 40
1.35
  0
CIRCLE
  5
5C4
102
{ACAD_REACTORS
330
612
102
}
330
1D
100
AcDbEntity
  8
23
  6
CONTINUOUS
 62
     7
100
AcDbCircle
 10
24.0
 20
15.5
 30
0.0
 40
1.35
  0
LINE
  5
5C5
102
{ACAD_REACTORS
330
612
102
}
330
1D
100
AcDbEntity
  8
23
  6
CONTINUOUS
 62
     7
100
AcDbLine
 10
26.0
 20
38.0
 30
0.0
 11
20.37869899999998
 21
176.081353
 31
0.0
  0
LINE
  5
5C6
102
{ACAD_REACTORS
330
612
102
}
330
1D
100
AcDbEntity
  8
23
  6
CONTINUOUS
 62
     7
100
AcDbLine
 10
26.0
 20
15.5
 30
0.0
 11
26.0
 21
38.0
 31
0.0
  0
ARC
  5
5C7
102
{ACAD_REACTORS
330
612
102
}
330
1D
100
AcDbEntity
  8
23
  6
CONTINUOUS
 62
     7
100
AcDbCircle
 10
15.5
 20
15.5
 30
0.0
 40
10.5
100
AcDbArc
 50
180.0
 51
0.0
  0
LINE
  5
5C8
102
{ACAD_REACTORS
330
612
102
}
330
1D
100
AcDbEntity
  8
23
  6
CONTINUOUS
 62
     7
100
AcDbLine
 10
5.0
 20
38.0
 30
0.0
 11
5.0
 21
15.5
 31
0.0
  0
LINE
  5
5C9
102
{ACAD_REACTORS
330
612
102
}
330
1D
100
AcDbEntity
  8
23
  6
CONTINUOUS
 62
     7
100
AcDbLine
 10
10.62130100000002
 20
176.081353
 30
0.0
 11
5.0
 21
38.0
 31
0.0
  0
ARC
  5
5CA
102
{ACAD_REACTORS
330
613
102
}
330
1D
100
AcDbEntity
  8
23
  6
CONTINUOUS
 62
     7
100
AcDbCircle
 10
35.71964600000001
 20
176.0
 30
0.0
 40
2.0
100
AcDbArc
 50
90.0
 51
177.6687730000011
  0
ARC
  5
5CB
102
{ACAD_REACTORS
330
613
102
}
330
1D
100
AcDbEntity
  8
23
  6
CONTINUOUS
 62
     7
100
AcDbCircle
 10
41.48035500000003
 20
176.0
 30
0.0
 40
2.0
100
AcDbArc
 50
2.331226999998905
 51
90.0
  0
LINE
  5
5CC
102
{ACAD_REACTORS
330
613
102
}
330
1D
100
AcDbEntity
  8
23
  6
CONTINUOUS
 62
     7
100
AcDbLine
 10
35.71964600000001
 20
178.0
 30
0.0
 11
41.48035500000003
 21
178.0
 31
0.0
  0
ARC
  5
5CD
102
{ACAD_REACTORS
330
613
102
}
330
1D
100
AcDbEntity
  8
23
  6
CONTINUOUS
 62
     7
100
AcDbCircle
 10
36.05000000000001
 20
162.0
 30
0.0
 40
1.05
100
AcDbArc
 50
90.0
 51
270.0
  0
LINE
  5
5CE
102
{ACAD_REACTORS
330
613
102
}
330
1D
100
AcDbEntity
  8
23
  6
CONTINUOUS
 62
     7
100
AcDbLine
 10
36.05000000000001
 20
160.95
 30
0.0
 11
36.05000000000001
 21
50.05000000000001
 31
0.0
  0
ARC
  5
5CF
102
{ACAD_REACTORS
330
613
102
}
330
1D
100
AcDbEntity
  8
23
  6
CONTINUOUS
 62
     7
100
AcDbCircle
 10
36.05000000000001
 20
49.0
 30
0.0
 40
1.05
100
AcDbArc
 50
90.0
 51
270.0
  0
LINE
  5
5D0
102
{ACAD_REACTORS
330
613
102
}
330
1D
100
AcDbEntity
  8
23
  6
CONTINUOUS
 62
     7
100
AcDbLine
 10
36.05000000000001
 20
47.94999999999999
 30
0.0
 11
41.14999999999998
 21
47.94999999999999
 31
0.0
  0
ARC
  5
5D1
102
{ACAD_REACTORS
330
613
102
}
330
1D
100
AcDbEntity
  8
23
  6
CONTINUOUS
 62
     7
100
AcDbCircle
 10
41.14999999999998
 20
49.0
 30
0.0
 40
1.05
100
AcDbArc
 50
270.0
 51
90.0
  0
LINE
  5
5D2
102
{ACAD_REACTORS
330
613
102
}
330
1D
100
AcDbEntity
  8
23
  6
CONTINUOUS
 62
     7
100
AcDbLine
 10
41.14999999999998
 20
50.05000000000001
 30
0.0
 11
41.14999999999998
 21
160.95
 31
0.0
  0
ARC
  5
5D3
102
{ACAD_REACTORS
330
613
102
}
330
1D
100
AcDbEntity
  8
23
  6
CONTINUOUS
 62
     7
100
AcDbCircle
 10
41.14999999999998
 20
162.0
 30
0.0
 40
1.05
100
AcDbArc
 50
270.0
 51
90.0
  0
LINE
  5
5D4
102
{ACAD_REACTORS
330
613
102
}
330
1D
100
AcDbEntity
  8
23
  6
CONTINUOUS
 62
     7
100
AcDbLine
 10
41.14999999999998
 20
163.05
 30
0.0
 11
36.05000000000001
 21
163.05
 31
0.0
  0
CIRCLE
  5
5D5
102
{ACAD_REACTORS
330
613
102
}
330
1D
100
AcDbEntity
  8
23
  6
CONTINUOUS
 62
     7
100
AcDbCircle
 10
38.60000000000002
 20
15.5
 30
0.0
 40
5.05
  0
CIRCLE
  5
5D6
102
{ACAD_REACTORS
330
613
102
}
330
1D
100
AcDbEntity
  8
23
  6
CONTINUOUS
 62
     7
100
AcDbCircle
 10
38.60000000000002
 20
38.0
 30
0.0
 40
1.55
  0
CIRCLE
  5
5D7
102
{ACAD_REACTORS
330
613
102
}
330
1D
100
AcDbEntity
  8
23
  6
CONTINUOUS
 62
     7
100
AcDbCircle
 10
38.60000000000002
 20
173.0
 30
0.0
 40
1.55
  0
CIRCLE
  5
5D8
102
{ACAD_REACTORS
330
613
102
}
330
1D
100
AcDbEntity
  8
23
  6
CONTINUOUS
 62
     7
100
AcDbCircle
 10
38.60000000000002
 20
7.0
 30
0.0
 40
1.35
  0
CIRCLE
  5
5D9
102
{ACAD_REACTORS
330
613
102
}
330
1D
100
AcDbEntity
  8
23
  6
CONTINUOUS
 62
     7
100
AcDbCircle
 10
47.10000000000002
 20
15.5
 30
0.0
 40
1.35
  0
CIRCLE
  5
5DA
102
{ACAD_REACTORS
330
613
102
}
330
1D
100
AcDbEntity
  8
23
  6
CONTINUOUS
 62
     7
100
AcDbCircle
 10
38.60000000000002
 20
24.0
 30
0.0
 40
1.35
  0
CIRCLE
  5
5DB
102
{ACAD_REACTORS
330
613
102
}
330
1D
100
AcDbEntity
  8
23
  6
CONTINUOUS
 62
     7
100
AcDbCircle
 10
30.10000000000002
 20
15.5
 30
0.0
 40
1.35
  0
LINE
  5
5DC
102
{ACAD_REACTORS
330
613
102
}
330
1D
100
AcDbEntity
  8
23
  6
CONTINUOUS
 62
     7
100
AcDbLine
 10
28.10000000000002
 20
38.0
 30
0.0
 11
33.72130100000004
 21
176.081353
 31
0.0
  0
LINE
  5
5DD
102
{ACAD_REACTORS
330
613
102
}
330
1D
100
AcDbEntity
  8
23
  6
CONTINUOUS
 62
     7
100
AcDbLine
 10
28.10000000000002
 20
15.5
 30
0.0
 11
28.10000000000002
 21
38.0
 31
0.0
  0
ARC
  5
5DE
102
{ACAD_REACTORS
330
613
102
}
330
1D
100
AcDbEntity
  8
23
  6
CONTINUOUS
 62
     7
100
AcDbCircle
 10
38.60000000000002
 20
15.5
 30
0.0
 40
10.5
100
AcDbArc
 50
180.0
 51
0.0
  0
LINE
  5
5DF
102
{ACAD_REACTORS
330
613
102
}
330
1D
100
AcDbEntity
  8
23
  6
CONTINUOUS
 62
     7
100
AcDbLine
 10
49.10000000000002
 20
38.0
 30
0.0
 11
49.10000000000002
 21
15.5
 31
0.0
  0
LINE
  5
5E0
102
{ACAD_REACTORS
330
613
102
}
330
1D
100
AcDbEntity
  8
23
  6
CONTINUOUS
 62
     7
100
AcDbLine
 10
43.4787
 20
176.081353
 30
0.0
 11
49.10000000000002
 21
38.0
 31
0.0
  0
ARC
  5
5F8
102
{ACAD_REACTORS
330
614
102
}
330
1D
100
AcDbEntity
  8
24
  6
CONTINUOUS
 62
     7
100
AcDbCircle
 10
16.420406
 20
182.1
 30
0.0
 40
2.0
100
AcDbArc
 50
270.0
 51
346.6031459999997
  0
ARC
  5
5F9
102
{ACAD_REACTORS
330
614
102
}
330
1D
100
AcDbEntity
  8
24
  6
CONTINUOUS
 62
     7
100
AcDbCircle
 10
14.57959399999998
 20
182.1
 30
0.0
 40
2.0
100
AcDbArc
 50
193.3968540000003
 51
270.0
  0
LINE
  5
5FA
102
{ACAD_REACTORS
330
614
102
}
330
1D
100
AcDbEntity
  8
24
  6
CONTINUOUS
 62
     7
100
AcDbLine
 10
14.57959399999998
 20
180.1
 30
0.0
 11
16.420406
 21
180.1
 31
0.0
  0
CIRCLE
  5
5FB
102
{ACAD_REACTORS
330
614
102
}
330
1D
100
AcDbEntity
  8
24
  6
CONTINUOUS
 62
     7
100
AcDbCircle
 10
15.49999999999999
 20
230.6
 30
0.0
 40
5.05
  0
LINE
  5
5FC
102
{ACAD_REACTORS
330
614
102
}
330
1D
100
AcDbEntity
  8
24
  6
CONTINUOUS
 62
     7
100
AcDbLine
 10
18.36598300000002
 20
181.636611
 30
0.0
 11
25.99999999999999
 21
213.688665
 31
0.0
  0
LINE
  5
5FD
102
{ACAD_REACTORS
330
614
102
}
330
1D
100
AcDbEntity
  8
24
  6
CONTINUOUS
 62
     7
100
AcDbLine
 10
25.99999999999999
 20
213.688665
 30
0.0
 11
25.99999999999999
 21
230.6
 31
0.0
  0
ARC
  5
5FE
102
{ACAD_REACTORS
330
614
102
}
330
1D
100
AcDbEntity
  8
24
  6
CONTINUOUS
 62
     7
100
AcDbCircle
 10
15.49999999999999
 20
230.6
 30
0.0
 40
10.5
100
AcDbArc
 50
0.0
 51
180.0
  0
LINE
  5
5FF
102
{ACAD_REACTORS
330
614
102
}
330
1D
100
AcDbEntity
  8
24
  6
CONTINUOUS
 62
     7
100
AcDbLine
 10
4.999999999999989
 20
230.6
 30
0.0
 11
4.999999999999989
 21
213.688665
 31
0.0
  0
LINE
  5
600
102
{ACAD_REACTORS
330
614
102
}
330
1D
100
AcDbEntity
  8
24
  6
CONTINUOUS
 62
     7
100
AcDbLine
 10
4.999999999999989
 20
213.688665
 30
0.0
 11
12.63401700000002
 21
181.636611
 31
0.0
  0
LINE
  5
601
102
{ACAD_REACTORS
330
614
102
}
330
1D
100
AcDbEntity
  8
24
  6
CONTINUOUS
 62
     7
100
AcDbLine
 10
12.94999999999998
 20
192.15
 30
0.0
 11
12.94999999999998
 21
201.05
 31
0.0
  0
ARC
  5
602
102
{ACAD_REACTORS
330
614
102
}
330
1D
100
AcDbEntity
  8
24
  6
CONTINUOUS
 62
     7
100
AcDbCircle
 10
12.94999999999998
 20
202.1
 30
0.0
 40
1.05
100
AcDbArc
 50
90.0
 51
270.0
  0
LINE
  5
603
102
{ACAD_REACTORS
330
614
102
}
330
1D
100
AcDbEntity
  8
24
  6
CONTINUOUS
 62
     7
100
AcDbLine
 10
12.94999999999998
 20
203.15
 30
0.0
 11
18.05
 21
203.15
 31
0.0
  0
ARC
  5
604
102
{ACAD_REACTORS
330
614
102
}
330
1D
100
AcDbEntity
  8
24
  6
CONTINUOUS
 62
     7
100
AcDbCircle
 10
18.05
 20
202.1
 30
0.0
 40
1.05
100
AcDbArc
 50
270.0
 51
90.0
  0
LINE
  5
605
102
{ACAD_REACTORS
330
614
102
}
330
1D
100
AcDbEntity
  8
24
  6
CONTINUOUS
 62
     7
100
AcDbLine
 10
18.05
 20
201.05
 30
0.0
 11
18.05
 21
192.15
 31
0.0
  0
ARC
  5
606
102
{ACAD_REACTORS
330
614
102
}
330
1D
100
AcDbEntity
  8
24
  6
CONTINUOUS
 62
     7
100
AcDbCircle
 10
18.05
 20
191.1
 30
0.0
 40
1.05
100
AcDbArc
 50
270.0
 51
90.0
  0
LINE
  5
607
102
{ACAD_REACTORS
330
614
102
}
330
1D
100
AcDbEntity
  8
24
  6
CONTINUOUS
 62
     7
100
AcDbLine
 10
18.05
 20
190.05
 30
0.0
 11
12.94999999999998
 21
190.05
 31
0.0
  0
ARC
  5
608
102
{ACAD_REACTORS
330
614
102
}
330
1D
100
AcDbEntity
  8
24
  6
CONTINUOUS
 62
     7
100
AcDbCircle
 10
12.94999999999998
 20
191.1
 30
0.0
 40
1.05
100
AcDbArc
 50
90.0
 51
270.0
  0
CIRCLE
  5
609
102
{ACAD_REACTORS
330
614
102
}
330
1D
100
AcDbEntity
  8
24
  6
CONTINUOUS
 62
     7
100
AcDbCircle
 10
6.999999999999989
 20
230.6
 30
0.0
 40
1.35
  0
CIRCLE
  5
60A
102
{ACAD_REACTORS
330
614
102
}
330
1D
100
AcDbEntity
  8
24
  6
CONTINUOUS
 62
     7
100
AcDbCircle
 10
15.49999999999999
 20
222.1
 30
0.0
 40
1.35
  0
CIRCLE
  5
60B
102
{ACAD_REACTORS
330
614
102
}
330
1D
100
AcDbEntity
  8
24
  6
CONTINUOUS
 62
     7
100
AcDbCircle
 10
23.99999999999999
 20
230.6
 30
0.0
 40
1.35
  0
CIRCLE
  5
60C
102
{ACAD_REACTORS
330
614
102
}
330
1D
100
AcDbEntity
  8
24
  6
CONTINUOUS
 62
     7
100
AcDbCircle
 10
15.49999999999999
 20
239.1
 30
0.0
 40
1.35
  0
CIRCLE
  5
60D
102
{ACAD_REACTORS
330
614
102
}
330
1D
100
AcDbEntity
  8
24
  6
CONTINUOUS
 62
     7
100
AcDbCircle
 10
15.49999999999999
 20
209.1
 30
0.0
 40
1.55
  0
CIRCLE
  5
60E
102
{ACAD_REACTORS
330
614
102
}
330
1D
100
AcDbEntity
  8
24
  6
CONTINUOUS
 62
     7
100
AcDbCircle
 10
15.49999999999999
 20
184.1
 30
0.0
 40
1.55
  0
CIRCLE
  5
94C
102
{ACAD_REACTORS
330
ADF
102
}
330
1D
100
AcDbEntity
  8
VISIBLE__ISO_
100
AcDbCircle
 10
94.45298046256059
 20
34.24799902967861
 30
0.0
 40
10.75
  0
CIRCLE
  5
94D
102
{ACAD_REACTORS
330
ADF
102
}
330
1D
100
AcDbEntity
  8
VISIBLE__ISO_
100
AcDbCircle
 10
94.45298046256059
 20
71.24799902967872
 30
0.0
 40
10.75
  0
CIRCLE
  5
94E
102
{ACAD_REACTORS
330
ADF
102
}
330
1D
100
AcDbEntity
  8
VISIBLE__ISO_
100
AcDbCircle
 10
94.45298046256059
 20
108.2479990296787
 30
0.0
 40
10.75
  0
CIRCLE
  5
94F
102
{ACAD_REACTORS
330
ADF
102
}
330
1D
100
AcDbEntity
  8
VISIBLE__ISO_
100
AcDbCircle
 10
94.45298046256059
 20
145.2479990296786
 30
0.0
 40
10.75
  0
CIRCLE
  5
950
102
{ACAD_REACTORS
330
ADF
102
}
330
1D
100
AcDbEntity
  8
VISIBLE__ISO_
100
AcDbCircle
 10
57.20298046256061
 20
81.49799902967872
 30
0.0
 40
1.55
  0
CIRCLE
  5
951
102
{ACAD_REACTORS
330
ADF
102
}
330
1D
100
AcDbEntity
  8
VISIBLE__ISO_
100
AcDbCircle
 10
57.20298046256061
 20
93.49799902967872
 30
0.0
 40
1.55
  0
CIRCLE
  5
952
102
{ACAD_REACTORS
330
ADF
102
}
330
1D
100
AcDbEntity
  8
VISIBLE__ISO_
100
AcDbCircle
 10
80.20298046256059
 20
10.99799902967873
 30
0.0
 40
1.55
  0
CIRCLE
  5
953
102
{ACAD_REACTORS
330
ADF
102
}
330
1D
100
AcDbEntity
  8
VISIBLE__ISO_
100
AcDbCircle
 10
68.20298046256059
 20
10.99799902967873
 30
0.0
 40
1.55
  0
CIRCLE
  5
954
102
{ACAD_REACTORS
330
ADF
102
}
330
1D
100
AcDbEntity
  8
VISIBLE__ISO_
100
AcDbCircle
 10
57.20298046256061
 20
10.99799902967861
 30
0.0
 40
1.55
  0
CIRCLE
  5
955
102
{ACAD_REACTORS
330
ADF
102
}
330
1D
100
AcDbEntity
  8
VISIBLE__ISO_
100
AcDbCircle
 10
57.20298046256061
 20
40.24799902967872
 30
0.0
 40
1.55
  0
CIRCLE
  5
956
102
{ACAD_REACTORS
330
ADF
102
}
330
1D
100
AcDbEntity
  8
VISIBLE__ISO_
100
AcDbCircle
 10
57.20298046256061
 20
52.24799902967872
 30
0.0
 40
1.55
  0
CIRCLE
  5
957
102
{ACAD_REACTORS
330
ADF
102
}
330
1D
100
AcDbEntity
  8
VISIBLE__ISO_
100
AcDbCircle
 10
57.20298046256061
 20
122.7479990296787
 30
0.0
 40
1.55
  0
CIRCLE
  5
958
102
{ACAD_REACTORS
330
ADF
102
}
330
1D
100
AcDbEntity
  8
VISIBLE__ISO_
100
AcDbCircle
 10
57.20298046256061
 20
134.7479990296787
 30
0.0
 40
1.55
  0
CIRCLE
  5
959
102
{ACAD_REACTORS
330
ADF
102
}
330
1D
100
AcDbEntity
  8
VISIBLE__ISO_
100
AcDbCircle
 10
57.20298046256061
 20
163.9979990296787
 30
0.0
 40
1.55
  0
CIRCLE
  5
95A
102
{ACAD_REACTORS
330
ADF
102
}
330
1D
100
AcDbEntity
  8
VISIBLE__ISO_
100
AcDbCircle
 10
68.20298046256059
 20
163.9979990296786
 30
0.0
 40
1.55
  0
CIRCLE
  5
95B
102
{ACAD_REACTORS
330
ADF
102
}
330
1D
100
AcDbEntity
  8
VISIBLE__ISO_
100
AcDbCircle
 10
80.20298046256059
 20
163.9979990296786
 30
0.0
 40
1.55
  0
CIRCLE
  5
95C
102
{ACAD_REACTORS
330
ADF
102
}
330
1D
100
AcDbEntity
  8
VISIBLE__ISO_
100
AcDbCircle
 10
113.2029804625606
 20
40.24799902967872
 30
0.0
 40
1.55
  0
CIRCLE
  5
95D
102
{ACAD_REACTORS
330
ADF
102
}
330
1D
100
AcDbEntity
  8
VISIBLE__ISO_
100
AcDbCircle
 10
113.2029804625606
 20
10.99799902967861
 30
0.0
 40
1.55
  0
CIRCLE
  5
95E
102
{ACAD_REACTORS
330
ADF
102
}
330
1D
100
AcDbEntity
  8
VISIBLE__ISO_
100
AcDbCircle
 10
102.2029804625606
 20
10.99799902967873
 30
0.0
 40
1.55
  0
CIRCLE
  5
95F
102
{ACAD_REACTORS
330
ADF
102
}
330
1D
100
AcDbEntity
  8
VISIBLE__ISO_
100
AcDbCircle
 10
90.20298046256059
 20
10.99799902967873
 30
0.0
 40
1.55
  0
CIRCLE
  5
960
102
{ACAD_REACTORS
330
ADF
102
}
330
1D
100
AcDbEntity
  8
VISIBLE__ISO_
100
AcDbCircle
 10
113.2029804625606
 20
52.24799902967872
 30
0.0
 40
1.55
  0
CIRCLE
  5
961
102
{ACAD_REACTORS
330
ADF
102
}
330
1D
100
AcDbEntity
  8
VISIBLE__ISO_
100
AcDbCircle
 10
113.2029804625606
 20
81.49799902967872
 30
0.0
 40
1.55
  0
CIRCLE
  5
962
102
{ACAD_REACTORS
330
ADF
102
}
330
1D
100
AcDbEntity
  8
VISIBLE__ISO_
100
AcDbCircle
 10
113.2029804625606
 20
122.7479990296787
 30
0.0
 40
1.55
  0
CIRCLE
  5
963
102
{ACAD_REACTORS
330
ADF
102
}
330
1D
100
AcDbEntity
  8
VISIBLE__ISO_
100
AcDbCircle
 10
113.2029804625606
 20
93.49799902967872
 30
0.0
 40
1.55
  0
CIRCLE
  5
964
102
{ACAD_REACTORS
330
ADF
102
}
330
1D
100
AcDbEntity
  8
VISIBLE__ISO_
100
AcDbCircle
 10
113.2029804625606
 20
134.7479990296787
 30
0.0
 40
1.55
  0
CIRCLE
  5
965
102
{ACAD_REACTORS
330
ADF
102
}
330
1D
100
AcDbEntity
  8
VISIBLE__ISO_
100
AcDbCircle
 10
102.2029804625606
 20
163.9979990296786
 30
0.0
 40
1.55
  0
CIRCLE
  5
966
102
{ACAD_REACTORS
330
ADF
102
}
330
1D
100
AcDbEntity
  8
VISIBLE__ISO_
100
AcDbCircle
 10
90.20298046256059
 20
163.9979990296786
 30
0.0
 40
1.55
  0
CIRCLE
  5
967
102
{ACAD_REACTORS
330
ADF
102
}
330
1D
100
AcDbEntity
  8
VISIBLE__ISO_
100
AcDbCircle
 10
113.2029804625606
 20
163.9979990296787
 30
0.0
 40
1.55
  0
CIRCLE
  5
968
102
{ACAD_REACTORS
330
ADF
102
}
330
1D
100
AcDbEntity
  8
VISIBLE__ISO_
100
AcDbCircle
 10
73.70298046256059
 20
20.99799902967873
 30
0.0
 40
1.2
  0
CIRCLE
  5
969
102
{ACAD_REACTORS
330
ADF
102
}
330
1D
100
AcDbEntity
  8
VISIBLE__ISO_
100
AcDbCircle
 10
64.20298046256062
 20
20.99799902967873
 30
0.0
 40
1.2
  0
CIRCLE
  5
96A
102
{ACAD_REACTORS
330
ADF
102
}
330
1D
100
AcDbEntity
  8
VISIBLE__ISO_
100
AcDbCircle
 10
64.20298046256062
 20
116.9979990296787
 30
0.0
 40
1.2
  0
CIRCLE
  5
96B
102
{ACAD_REACTORS
330
ADF
102
}
330
1D
100
AcDbEntity
  8
VISIBLE__ISO_
100
AcDbCircle
 10
73.70298046256059
 20
116.9979990296787
 30
0.0
 40
1.2
  0
CIRCLE
  5
96C
102
{ACAD_REACTORS
330
ADF
102
}
330
1D
100
AcDbEntity
  8
VISIBLE__ISO_
100
AcDbCircle
 10
73.70298046256059
 20
30.99799902967861
 30
0.0
 40
1.2
  0
CIRCLE
  5
96D
102
{ACAD_REACTORS
330
ADF
102
}
330
1D
100
AcDbEntity
  8
VISIBLE__ISO_
100
AcDbCircle
 10
64.20298046256062
 20
30.99799902967861
 30
0.0
 40
1.2
  0
CIRCLE
  5
96E
102
{ACAD_REACTORS
330
ADF
102
}
330
1D
100
AcDbEntity
  8
VISIBLE__ISO_
100
AcDbCircle
 10
64.20298046256062
 20
126.9979990296787
 30
0.0
 40
1.2
  0
CIRCLE
  5
96F
102
{ACAD_REACTORS
330
ADF
102
}
330
1D
100
AcDbEntity
  8
VISIBLE__ISO_
100
AcDbCircle
 10
73.70298046256059
 20
126.9979990296787
 30
0.0
 40
1.2
  0
CIRCLE
  5
970
102
{ACAD_REACTORS
330
ADF
102
}
330
1D
100
AcDbEntity
  8
VISIBLE__ISO_
100
AcDbCircle
 10
73.70298046256059
 20
40.99799902967861
 30
0.0
 40
1.2
  0
CIRCLE
  5
971
102
{ACAD_REACTORS
330
ADF
102
}
330
1D
100
AcDbEntity
  8
VISIBLE__ISO_
100
AcDbCircle
 10
64.20298046256062
 20
40.99799902967861
 30
0.0
 40
1.2
  0
CIRCLE
  5
972
102
{ACAD_REACTORS
330
ADF
102
}
330
1D
100
AcDbEntity
  8
VISIBLE__ISO_
100
AcDbCircle
 10
64.20298046256062
 20
136.9979990296786
 30
0.0
 40
1.2
  0
CIRCLE
  5
973
102
{ACAD_REACTORS
330
ADF
102
}
330
1D
100
AcDbEntity
  8
VISIBLE__ISO_
100
AcDbCircle
 10
73.70298046256059
 20
136.9979990296786
 30
0.0
 40
1.2
  0
CIRCLE
  5
974
102
{ACAD_REACTORS
330
ADF
102
}
330
1D
100
AcDbEntity
  8
VISIBLE__ISO_
100
AcDbCircle
 10
73.70298046256059
 20
50.99799902967861
 30
0.0
 40
1.2
  0
CIRCLE
  5
975
102
{ACAD_REACTORS
330
ADF
102
}
330
1D
100
AcDbEntity
  8
VISIBLE__ISO_
100
AcDbCircle
 10
64.20298046256062
 20
50.99799902967861
 30
0.0
 40
1.2
  0
CIRCLE
  5
976
102
{ACAD_REACTORS
330
ADF
102
}
330
1D
100
AcDbEntity
  8
VISIBLE__ISO_
100
AcDbCircle
 10
64.20298046256062
 20
146.9979990296786
 30
0.0
 40
1.2
  0
CIRCLE
  5
977
102
{ACAD_REACTORS
330
ADF
102
}
330
1D
100
AcDbEntity
  8
VISIBLE__ISO_
100
AcDbCircle
 10
73.70298046256059
 20
146.9979990296786
 30
0.0
 40
1.2
  0
CIRCLE
  5
978
102
{ACAD_REACTORS
330
ADF
102
}
330
1D
100
AcDbEntity
  8
VISIBLE__ISO_
100
AcDbCircle
 10
73.70298046256059
 20
60.99799902967861
 30
0.0
 40
1.2
  0
CIRCLE
  5
979
102
{ACAD_REACTORS
330
ADF
102
}
330
1D
100
AcDbEntity
  8
VISIBLE__ISO_
100
AcDbCircle
 10
64.20298046256062
 20
60.99799902967861
 30
0.0
 40
1.2
  0
CIRCLE
  5
97A
102
{ACAD_REACTORS
330
ADF
102
}
330
1D
100
AcDbEntity
  8
VISIBLE__ISO_
100
AcDbCircle
 10
73.70298046256059
 20
156.9979990296786
 30
0.0
 40
1.2
  0
CIRCLE
  5
97B
102
{ACAD_REACTORS
330
ADF
102
}
330
1D
100
AcDbEntity
  8
VISIBLE__ISO_
100
AcDbCircle
 10
64.20298046256062
 20
156.9979990296786
 30
0.0
 40
1.2
  0
LINE
  5
97C
102
{ACAD_REACTORS
330
ADF
102
}
330
1D
100
AcDbEntity
  8
VISIBLE__ISO_
100
AcDbLine
 10
119.2029804625606
 20
4.997999029678727
 30
0.0
 11
119.2029804625606
 21
169.9979990296787
 31
0.0
  0
LINE
  5
97D
102
{ACAD_REACTORS
330
ADF
102
}
330
1D
100
AcDbEntity
  8
VISIBLE__ISO_
100
AcDbLine
 10
51.20298046256061
 20
4.997999029678727
 30
0.0
 11
119.2029804625606
 21
4.997999029678727
 31
0.0
  0
LINE
  5
97E
102
{ACAD_REACTORS
330
ADF
102
}
330
1D
100
AcDbEntity
  8
VISIBLE__ISO_
100
AcDbLine
 10
51.20298046256061
 20
169.9979990296787
 30
0.0
 11
51.20298046256061
 21
4.997999029678727
 31
0.0
  0
LINE
  5
97F
102
{ACAD_REACTORS
330
ADF
102
}
330
1D
100
AcDbEntity
  8
VISIBLE__ISO_
100
AcDbLine
 10
119.2029804625606
 20
169.9979990296787
 30
0.0
 11
51.20298046256061
 21
169.9979990296787
 31
0.0
  0
CIRCLE
  5
AE0
102
{ACAD_REACTORS
330
B14
102
}
330
1D
100
AcDbEntity
  8
VISIBLE__ISO_
100
AcDbCircle
 10
164.55
 20
34.24799902967858
 30
0.0
 40
10.75
  0
CIRCLE
  5
AE1
102
{ACAD_REACTORS
330
B14
102
}
330
1D
100
AcDbEntity
  8
VISIBLE__ISO_
100
AcDbCircle
 10
164.55
 20
71.2479990296787
 30
0.0
 40
10.75
  0
CIRCLE
  5
AE2
102
{ACAD_REACTORS
330
B14
102
}
330
1D
100
AcDbEntity
  8
VISIBLE__ISO_
100
AcDbCircle
 10
164.55
 20
108.2479990296787
 30
0.0
 40
10.75
  0
CIRCLE
  5
AE3
102
{ACAD_REACTORS
330
B14
102
}
330
1D
100
AcDbEntity
  8
VISIBLE__ISO_
100
AcDbCircle
 10
164.55
 20
145.2479990296786
 30
0.0
 40
10.75
  0
CIRCLE
  5
AE4
102
{ACAD_REACTORS
330
B14
102
}
330
1D
100
AcDbEntity
  8
VISIBLE__ISO_
100
AcDbCircle
 10
127.3
 20
81.4979990296787
 30
0.0
 40
1.55
  0
CIRCLE
  5
AE5
102
{ACAD_REACTORS
330
B14
102
}
330
1D
100
AcDbEntity
  8
VISIBLE__ISO_
100
AcDbCircle
 10
127.3
 20
93.4979990296787
 30
0.0
 40
1.55
  0
CIRCLE
  5
AE6
102
{ACAD_REACTORS
330
B14
102
}
330
1D
100
AcDbEntity
  8
VISIBLE__ISO_
100
AcDbCircle
 10
150.3
 20
10.9979990296787
 30
0.0
 40
1.55
  0
CIRCLE
  5
AE7
102
{ACAD_REACTORS
330
B14
102
}
330
1D
100
AcDbEntity
  8
VISIBLE__ISO_
100
AcDbCircle
 10
138.3
 20
10.9979990296787
 30
0.0
 40
1.55
  0
CIRCLE
  5
AE8
102
{ACAD_REACTORS
330
B14
102
}
330
1D
100
AcDbEntity
  8
VISIBLE__ISO_
100
AcDbCircle
 10
127.3
 20
10.99799902967859
 30
0.0
 40
1.55
  0
CIRCLE
  5
AE9
102
{ACAD_REACTORS
330
B14
102
}
330
1D
100
AcDbEntity
  8
VISIBLE__ISO_
100
AcDbCircle
 10
127.3
 20
40.2479990296787
 30
0.0
 40
1.55
  0
CIRCLE
  5
AEA
102
{ACAD_REACTORS
330
B14
102
}
330
1D
100
AcDbEntity
  8
VISIBLE__ISO_
100
AcDbCircle
 10
127.3
 20
52.2479990296787
 30
0.0
 40
1.55
  0
CIRCLE
  5
AEB
102
{ACAD_REACTORS
330
B14
102
}
330
1D
100
AcDbEntity
  8
VISIBLE__ISO_
100
AcDbCircle
 10
127.3
 20
122.7479990296787
 30
0.0
 40
1.55
  0
CIRCLE
  5
AEC
102
{ACAD_REACTORS
330
B14
102
}
330
1D
100
AcDbEntity
  8
VISIBLE__ISO_
100
AcDbCircle
 10
127.3
 20
134.7479990296787
 30
0.0
 40
1.55
  0
CIRCLE
  5
AED
102
{ACAD_REACTORS
330
B14
102
}
330
1D
100
AcDbEntity
  8
VISIBLE__ISO_
100
AcDbCircle
 10
127.3
 20
163.9979990296787
 30
0.0
 40
1.55
  0
CIRCLE
  5
AEE
102
{ACAD_REACTORS
330
B14
102
}
330
1D
100
AcDbEntity
  8
VISIBLE__ISO_
100
AcDbCircle
 10
138.3
 20
163.9979990296786
 30
0.0
 40
1.55
  0
CIRCLE
  5
AEF
102
{ACAD_REACTORS
330
B14
102
}
330
1D
100
AcDbEntity
  8
VISIBLE__ISO_
100
AcDbCircle
 10
150.3
 20
163.9979990296786
 30
0.0
 40
1.55
  0
CIRCLE
  5
AF0
102
{ACAD_REACTORS
330
B14
102
}
330
1D
100
AcDbEntity
  8
VISIBLE__ISO_
100
AcDbCircle
 10
183.3
 20
40.2479990296787
 30
0.0
 40
1.55
  0
CIRCLE
  5
AF1
102
{ACAD_REACTORS
330
B14
102
}
330
1D
100
AcDbEntity
  8
VISIBLE__ISO_
100
AcDbCircle
 10
183.3
 20
10.99799902967859
 30
0.0
 40
1.55
  0
CIRCLE
  5
AF2
102
{ACAD_REACTORS
330
B14
102
}
330
1D
100
AcDbEntity
  8
VISIBLE__ISO_
100
AcDbCircle
 10
172.3
 20
10.9979990296787
 30
0.0
 40
1.55
  0
CIRCLE
  5
AF3
102
{ACAD_REACTORS
330
B14
102
}
330
1D
100
AcDbEntity
  8
VISIBLE__ISO_
100
AcDbCircle
 10
160.3
 20
10.9979990296787
 30
0.0
 40
1.55
  0
CIRCLE
  5
AF4
102
{ACAD_REACTORS
330
B14
102
}
330
1D
100
AcDbEntity
  8
VISIBLE__ISO_
100
AcDbCircle
 10
183.3
 20
52.2479990296787
 30
0.0
 40
1.55
  0
CIRCLE
  5
AF5
102
{ACAD_REACTORS
330
B14
102
}
330
1D
100
AcDbEntity
  8
VISIBLE__ISO_
100
AcDbCircle
 10
183.3
 20
81.4979990296787
 30
0.0
 40
1.55
  0
CIRCLE
  5
AF6
102
{ACAD_REACTORS
330
B14
102
}
330
1D
100
AcDbEntity
  8
VISIBLE__ISO_
100
AcDbCircle
 10
183.3
 20
122.7479990296787
 30
0.0
 40
1.55
  0
CIRCLE
  5
AF7
102
{ACAD_REACTORS
330
B14
102
}
330
1D
100
AcDbEntity
  8
VISIBLE__ISO_
100
AcDbCircle
 10
183.3
 20
93.4979990296787
 30
0.0
 40
1.55
  0
CIRCLE
  5
AF8
102
{ACAD_REACTORS
330
B14
102
}
330
1D
100
AcDbEntity
  8
VISIBLE__ISO_
100
AcDbCircle
 10
183.3
 20
134.7479990296787
 30
0.0
 40
1.55
  0
CIRCLE
  5
AF9
102
{ACAD_REACTORS
330
B14
102
}
330
1D
100
AcDbEntity
  8
VISIBLE__ISO_
100
AcDbCircle
 10
172.3
 20
163.9979990296786
 30
0.0
 40
1.55
  0
CIRCLE
  5
AFA
102
{ACAD_REACTORS
330
B14
102
}
330
1D
100
AcDbEntity
  8
VISIBLE__ISO_
100
AcDbCircle
 10
160.3
 20
163.9979990296786
 30
0.0
 40
1.55
  0
CIRCLE
  5
AFB
102
{ACAD_REACTORS
330
B14
102
}
330
1D
100
AcDbEntity
  8
VISIBLE__ISO_
100
AcDbCircle
 10
183.3
 20
163.9979990296787
 30
0.0
 40
1.55
  0
CIRCLE
  5
AFC
102
{ACAD_REACTORS
330
B14
102
}
330
1D
100
AcDbEntity
  8
VISIBLE__ISO_
100
AcDbCircle
 10
143.8
 20
20.9979990296787
 30
0.0
 40
1.2
  0
CIRCLE
  5
AFD
102
{ACAD_REACTORS
330
B14
102
}
330
1D
100
AcDbEntity
  8
VISIBLE__ISO_
100
AcDbCircle
 10
134.3
 20
20.9979990296787
 30
0.0
 40
1.2
  0
CIRCLE
  5
AFE
102
{ACAD_REACTORS
330
B14
102
}
330
1D
100
AcDbEntity
  8
VISIBLE__ISO_
100
AcDbCircle
 10
134.3
 20
116.9979990296787
 30
0.0
 40
1.2
  0
CIRCLE
  5
AFF
102
{ACAD_REACTORS
330
B14
102
}
330
1D
100
AcDbEntity
  8
VISIBLE__ISO_
100
AcDbCircle
 10
143.8
 20
116.9979990296787
 30
0.0
 40
1.2
  0
CIRCLE
  5
B00
102
{ACAD_REACTORS
330
B14
102
}
330
1D
100
AcDbEntity
  8
VISIBLE__ISO_
100
AcDbCircle
 10
143.8
 20
30.99799902967859
 30
0.0
 40
1.2
  0
CIRCLE
  5
B01
102
{ACAD_REACTORS
330
B14
102
}
330
1D
100
AcDbEntity
  8
VISIBLE__ISO_
100
AcDbCircle
 10
134.3
 20
30.99799902967859
 30
0.0
 40
1.2
  0
CIRCLE
  5
B02
102
{ACAD_REACTORS
330
B14
102
}
330
1D
100
AcDbEntity
  8
VISIBLE__ISO_
100
AcDbCircle
 10
134.3
 20
126.9979990296787
 30
0.0
 40
1.2
  0
CIRCLE
  5
B03
102
{ACAD_REACTORS
330
B14
102
}
330
1D
100
AcDbEntity
  8
VISIBLE__ISO_
100
AcDbCircle
 10
143.8
 20
126.9979990296787
 30
0.0
 40
1.2
  0
CIRCLE
  5
B04
102
{ACAD_REACTORS
330
B14
102
}
330
1D
100
AcDbEntity
  8
VISIBLE__ISO_
100
AcDbCircle
 10
143.8
 20
40.99799902967858
 30
0.0
 40
1.2
  0
CIRCLE
  5
B05
102
{ACAD_REACTORS
330
B14
102
}
330
1D
100
AcDbEntity
  8
VISIBLE__ISO_
100
AcDbCircle
 10
134.3
 20
40.99799902967858
 30
0.0
 40
1.2
  0
CIRCLE
  5
B06
102
{ACAD_REACTORS
330
B14
102
}
330
1D
100
AcDbEntity
  8
VISIBLE__ISO_
100
AcDbCircle
 10
134.3
 20
136.9979990296786
 30
0.0
 40
1.2
  0
CIRCLE
  5
B07
102
{ACAD_REACTORS
330
B14
102
}
330
1D
100
AcDbEntity
  8
VISIBLE__ISO_
100
AcDbCircle
 10
143.8
 20
136.9979990296786
 30
0.0
 40
1.2
  0
CIRCLE
  5
B08
102
{ACAD_REACTORS
330
B14
102
}
330
1D
100
AcDbEntity
  8
VISIBLE__ISO_
100
AcDbCircle
 10
143.8
 20
50.99799902967858
 30
0.0
 40
1.2
  0
CIRCLE
  5
B09
102
{ACAD_REACTORS
330
B14
102
}
330
1D
100
AcDbEntity
  8
VISIBLE__ISO_
100
AcDbCircle
 10
134.3
 20
50.99799902967858
 30
0.0
 40
1.2
  0
CIRCLE
  5
B0A
102
{ACAD_REACTORS
330
B14
102
}
330
1D
100
AcDbEntity
  8
VISIBLE__ISO_
100
AcDbCircle
 10
134.3
 20
146.9979990296786
 30
0.0
 40
1.2
  0
CIRCLE
  5
B0B
102
{ACAD_REACTORS
330
B14
102
}
330
1D
100
AcDbEntity
  8
VISIBLE__ISO_
100
AcDbCircle
 10
143.8
 20
146.9979990296786
 30
0.0
 40
1.2
  0
CIRCLE
  5
B0C
102
{ACAD_REACTORS
330
B14
102
}
330
1D
100
AcDbEntity
  8
VISIBLE__ISO_
100
AcDbCircle
 10
143.8
 20
60.99799902967858
 30
0.0
 40
1.2
  0
CIRCLE
  5
B0D
102
{ACAD_REACTORS
330
B14
102
}
330
1D
100
AcDbEntity
  8
VISIBLE__ISO_
100
AcDbCircle
 10
134.3
 20
60.99799902967858
 30
0.0
 40
1.2
  0
CIRCLE
  5
B0E
102
{ACAD_REACTORS
330
B14
102
}
330
1D
100
AcDbEntity
  8
VISIBLE__ISO_
100
AcDbCircle
 10
143.8
 20
156.9979990296786
 30
0.0
 40
1.2
  0
CIRCLE
  5
B0F
102
{ACAD_REACTORS
330
B14
102
}
330
1D
100
AcDbEntity
  8
VISIBLE__ISO_
100
AcDbCircle
 10
134.3
 20
156.9979990296786
 30
0.0
 40
1.2
  0
LINE
  5
B10
102
{ACAD_REACTORS
330
B14
102
}
330
1D
100
AcDbEntity
  8
VISIBLE__ISO_
100
AcDbLine
 10
189.3
 20
4.997999029678699
 30
0.0
 11
189.3
 21
169.9979990296787
 31
0.0
  0
LINE
  5
B11
102
{ACAD_REACTORS
330
B14
102
}
330
1D
100
AcDbEntity
  8
VISIBLE__ISO_
100
AcDbLine
 10
121.3
 20
4.997999029678699
 30
0.0
 11
189.3
 21
4.997999029678699
 31
0.0
  0
LINE
  5
B12
102
{ACAD_REACTORS
330
B14
102
}
330
1D
100
AcDbEntity
  8
VISIBLE__ISO_
100
AcDbLine
 10
121.3
 20
169.9979990296787
 30
0.0
 11
121.3
 21
4.997999029678699
 31
0.0
  0
LINE
  5
B13
102
{ACAD_REACTORS
330
B14
102
}
330
1D
100
AcDbEntity
  8
VISIBLE__ISO_
100
AcDbLine
 10
189.3
 20
169.9979990296787
 30
0.0
 11
121.3
 21
169.9979990296787
 31
0.0
  0
ARC
  5
C50
102
{ACAD_REACTORS
330
C67
102
}
330
1D
100
AcDbEntity
  8
24
  6
CONTINUOUS
 62
     7
100
AcDbCircle
 10
39.520406
 20
182.1
 30
0.0
 40
2.0
100
AcDbArc
 50
270.0
 51
346.6031459999997
  0
ARC
  5
C51
102
{ACAD_REACTORS
330
C67
102
}
330
1D
100
AcDbEntity
  8
24
  6
CONTINUOUS
 62
     7
100
AcDbCircle
 10
37.67959399999997
 20
182.1
 30
0.0
 40
2.0
100
AcDbArc
 50
193.3968540000003
 51
270.0
  0
LINE
  5
C52
102
{ACAD_REACTORS
330
C67
102
}
330
1D
100
AcDbEntity
  8
24
  6
CONTINUOUS
 62
     7
100
AcDbLine
 10
37.67959399999997
 20
180.1
 30
0.0
 11
39.520406
 21
180.1
 31
0.0
  0
CIRCLE
  5
C53
102
{ACAD_REACTORS
330
C67
102
}
330
1D
100
AcDbEntity
  8
24
  6
CONTINUOUS
 62
     7
100
AcDbCircle
 10
38.59999999999999
 20
230.6
 30
0.0
 40
5.05
  0
LINE
  5
C54
102
{ACAD_REACTORS
330
C67
102
}
330
1D
100
AcDbEntity
  8
24
  6
CONTINUOUS
 62
     7
100
AcDbLine
 10
41.46598300000002
 20
181.636611
 30
0.0
 11
49.09999999999999
 21
213.688665
 31
0.0
  0
LINE
  5
C55
102
{ACAD_REACTORS
330
C67
102
}
330
1D
100
AcDbEntity
  8
24
  6
CONTINUOUS
 62
     7
100
AcDbLine
 10
49.09999999999999
 20
213.688665
 30
0.0
 11
49.09999999999999
 21
230.6
 31
0.0
  0
ARC
  5
C56
102
{ACAD_REACTORS
330
C67
102
}
330
1D
100
AcDbEntity
  8
24
  6
CONTINUOUS
 62
     7
100
AcDbCircle
 10
38.59999999999999
 20
230.6
 30
0.0
 40
10.5
100
AcDbArc
 50
0.0
 51
180.0
  0
LINE
  5
C57
102
{ACAD_REACTORS
330
C67
102
}
330
1D
100
AcDbEntity
  8
24
  6
CONTINUOUS
 62
     7
100
AcDbLine
 10
28.09999999999999
 20
230.6
 30
0.0
 11
28.09999999999999
 21
213.688665
 31
0.0
  0
LINE
  5
C58
102
{ACAD_REACTORS
330
C67
102
}
330
1D
100
AcDbEntity
  8
24
  6
CONTINUOUS
 62
     7
100
AcDbLine
 10
28.09999999999999
 20
213.688665
 30
0.0
 11
35.73401700000002
 21
181.636611
 31
0.0
  0
LINE
  5
C59
102
{ACAD_REACTORS
330
C67
102
}
330
1D
100
AcDbEntity
  8
24
  6
CONTINUOUS
 62
     7
100
AcDbLine
 10
36.04999999999998
 20
192.15
 30
0.0
 11
36.04999999999998
 21
201.05
 31
0.0
  0
ARC
  5
C5A
102
{ACAD_REACTORS
330
C67
102
}
330
1D
100
AcDbEntity
  8
24
  6
CONTINUOUS
 62
     7
100
AcDbCircle
 10
36.04999999999998
 20
202.1
 30
0.0
 40
1.05
100
AcDbArc
 50
90.0
 51
270.0
  0
LINE
  5
C5B
102
{ACAD_REACTORS
330
C67
102
}
330
1D
100
AcDbEntity
  8
24
  6
CONTINUOUS
 62
     7
100
AcDbLine
 10
36.04999999999998
 20
203.15
 30
0.0
 11
41.15
 21
203.15
 31
0.0
  0
ARC
  5
C5C
102
{ACAD_REACTORS
330
C67
102
}
330
1D
100
AcDbEntity
  8
24
  6
CONTINUOUS
 62
     7
100
AcDbCircle
 10
41.15
 20
202.1
 30
0.0
 40
1.05
100
AcDbArc
 50
270.0
 51
90.0
  0
LINE
  5
C5D
102
{ACAD_REACTORS
330
C67
102
}
330
1D
100
AcDbEntity
  8
24
  6
CONTINUOUS
 62
     7
100
AcDbLine
 10
41.15
 20
201.05
 30
0.0
 11
41.15
 21
192.15
 31
0.0
  0
ARC
  5
C5E
102
{ACAD_REACTORS
330
C67
102
}
330
1D
100
AcDbEntity
  8
24
  6
CONTINUOUS
 62
     7
100
AcDbCircle
 10
41.15
 20
191.1
 30
0.0
 40
1.05
100
AcDbArc
 50
270.0
 51
90.0
  0
LINE
  5
C5F
102
{ACAD_REACTORS
330
C67
102
}
330
1D
100
AcDbEntity
  8
24
  6
CONTINUOUS
 62
     7
100
AcDbLine
 10
41.15
 20
190.05
 30
0.0
 11
36.04999999999998
 21
190.05
 31
0.0
  0
ARC
  5
C60
102
{ACAD_REACTORS
330
C67
102
}
330
1D
100
AcDbEntity
  8
24
  6
CONTINUOUS
 62
     7
100
AcDbCircle
 10
36.04999999999998
 20
191.1
 30
0.0
 40
1.05
100
AcDbArc
 50
90.0
 51
270.0
  0
CIRCLE
  5
C61
102
{ACAD_REACTORS
330
C67
102
}
330
1D
100
AcDbEntity
  8
24
  6
CONTINUOUS
 62
     7
100
AcDbCircle
 10
30.09999999999999
 20
230.6
 30
0.0
 40
1.35
  0
CIRCLE
  5
C62
102
{ACAD_REACTORS
330
C67
102
}
330
1D
100
AcDbEntity
  8
24
  6
CONTINUOUS
 62
     7
100
AcDbCircle
 10
38.59999999999999
 20
222.1
 30
0.0
 40
1.35
  0
CIRCLE
  5
C63
102
{ACAD_REACTORS
330
C67
102
}
330
1D
100
AcDbEntity
  8
24
  6
CONTINUOUS
 62
     7
100
AcDbCircle
 10
47.09999999999999
 20
230.6
 30
0.0
 40
1.35
  0
CIRCLE
  5
C64
102
{ACAD_REACTORS
330
C67
102
}
330
1D
100
AcDbEntity
  8
24
  6
CONTINUOUS
 62
     7
100
AcDbCircle
 10
38.59999999999999
 20
239.1
 30
0.0
 40
1.35
  0
CIRCLE
  5
C65
102
{ACAD_REACTORS
330
C67
102
}
330
1D
100
AcDbEntity
  8
24
  6
CONTINUOUS
 62
     7
100
AcDbCircle
 10
38.59999999999999
 20
209.1
 30
0.0
 40
1.55
  0
CIRCLE
  5
C66
102
{ACAD_REACTORS
330
C67
102
}
330
1D
100
AcDbEntity
  8
24
  6
CONTINUOUS
 62
     7
100
AcDbCircle
 10
38.59999999999999
 20
184.1
 30
0.0
 40
1.55
  0
ARC
  5
C68
102
{ACAD_REACTORS
330
D79
102
}
330
1D
100
AcDbEntity
  8
23
  6
CONTINUOUS
 62
     7
100
AcDbCircle
 10
176.910481
 20
245.282444
 30
2.0
 40
4.0
100
AcDbArc
 50
73.30075599999986
 51
90.0
  0
ARC
  5
C69
102
{ACAD_REACTORS
330
D79
102
}
330
1D
100
AcDbEntity
  8
23
  6
CONTINUOUS
 62
     7
100
AcDbCircle
 10
165.584631
 20
245.282444
 30
2.0
 40
4.0
100
AcDbArc
 50
90.0
 51
106.6992439999994
  0
ARC
  5
C6A
102
{ACAD_REACTORS
330
D79
102
}
330
1D
100
AcDbEntity
  8
23
  6
CONTINUOUS
 62
     7
100
AcDbCircle
 10
158.997556
 20
243.3063210000001
 30
2.0
 40
4.0
100
AcDbArc
 50
106.6992440000001
 51
180.0
  0
ARC
  5
C6B
102
{ACAD_REACTORS
330
D79
102
}
330
1D
100
AcDbEntity
  8
23
  6
CONTINUOUS
 62
     7
100
AcDbCircle
 10
183.497556
 20
243.3063210000001
 30
2.0
 40
4.0
100
AcDbArc
 50
0.0
 51
73.30075599999986
  0
ARC
  5
C6C
102
{ACAD_REACTORS
330
D79
102
}
330
1D
100
AcDbEntity
  8
23
  6
CONTINUOUS
 62
     7
100
AcDbCircle
 10
177.997556
 20
234.282444
 30
2.0
 40
4.0
100
AcDbArc
 50
0.0
 51
90.0
  0
ARC
  5
C6D
102
{ACAD_REACTORS
330
D79
102
}
330
1D
100
AcDbEntity
  8
23
  6
CONTINUOUS
 62
     7
100
AcDbCircle
 10
164.497556
 20
232.4040230000001
 30
2.0
 40
4.0
100
AcDbArc
 50
180.0
 51
231.5571250000012
  0
ARC
  5
C6E
102
{ACAD_REACTORS
330
D79
102
}
330
1D
100
AcDbEntity
  8
23
  6
CONTINUOUS
 62
     7
100
AcDbCircle
 10
164.497556
 20
234.282444
 30
2.0
 40
4.0
100
AcDbArc
 50
90.0
 51
180.0
  0
ARC
  5
C6F
102
{ACAD_REACTORS
330
D79
102
}
330
1D
100
AcDbEntity
  8
23
  6
CONTINUOUS
 62
     7
100
AcDbCircle
 10
177.997556
 20
221.687597
 30
2.0
 40
4.0
100
AcDbArc
 50
231.557125
 51
0.0
  0
LINE
  5
C70
102
{ACAD_REACTORS
330
D79
102
}
330
1D
100
AcDbEntity
  8
23
  6
CONTINUOUS
 62
     7
100
AcDbLine
 10
178.059872
 20
249.113749
 30
2.0
 11
184.646948
 21
247.137627
 31
2.0
  0
LINE
  5
C71
102
{ACAD_REACTORS
330
D79
102
}
330
1D
100
AcDbEntity
  8
23
  6
CONTINUOUS
 62
     7
100
AcDbLine
 10
157.848164
 20
247.137627
 30
2.0
 11
164.43524
 21
249.113749
 31
2.0
  0
LINE
  5
C72
102
{ACAD_REACTORS
330
D79
102
}
330
1D
100
AcDbEntity
  8
23
  6
CONTINUOUS
 62
     7
100
AcDbLine
 10
177.997556
 20
238.282444
 30
2.0
 11
164.497556
 21
238.282444
 31
2.0
  0
LINE
  5
C73
102
{ACAD_REACTORS
330
D79
102
}
330
1D
100
AcDbEntity
  8
23
  6
CONTINUOUS
 62
     7
100
AcDbLine
 10
162.01062
 20
229.2711090000001
 30
2.0
 11
175.51062
 21
218.554683
 31
2.0
  0
LINE
  5
C74
102
{ACAD_REACTORS
330
D79
102
}
330
1D
100
AcDbEntity
  8
23
  6
CONTINUOUS
 62
     7
100
AcDbLine
 10
160.497556
 20
234.282444
 30
2.0
 11
160.497556
 21
232.4040230000001
 31
2.0
  0
LINE
  5
C75
102
{ACAD_REACTORS
330
D79
102
}
330
1D
100
AcDbEntity
  8
23
  6
CONTINUOUS
 62
     7
100
AcDbLine
 10
181.997556
 20
221.687597
 30
2.0
 11
181.997556
 21
234.282444
 31
2.0
  0
ARC
  5
C76
102
{ACAD_REACTORS
330
D79
102
}
330
1D
100
AcDbEntity
  8
23
  6
CONTINUOUS
 62
     7
100
AcDbCircle
 10
165.997556
 20
241.232444
 30
2.0
 40
1.05
100
AcDbArc
 50
180.0
 51
0.0
  0
LINE
  5
C77
102
{ACAD_REACTORS
330
D79
102
}
330
1D
100
AcDbEntity
  8
23
  6
CONTINUOUS
 62
     7
100
AcDbLine
 10
167.047556
 20
241.232444
 30
2.0
 11
175.447556
 21
241.232444
 31
2.0
  0
ARC
  5
C78
102
{ACAD_REACTORS
330
D79
102
}
330
1D
100
AcDbEntity
  8
23
  6
CONTINUOUS
 62
     7
100
AcDbCircle
 10
176.497556
 20
241.232444
 30
2.0
 40
1.05
100
AcDbArc
 50
180.0
 51
0.0
  0
LINE
  5
C79
102
{ACAD_REACTORS
330
D79
102
}
330
1D
100
AcDbEntity
  8
23
  6
CONTINUOUS
 62
     7
100
AcDbLine
 10
177.547556
 20
241.232444
 30
2.0
 11
177.547556
 21
246.332444
 31
2.0
  0
ARC
  5
C7A
102
{ACAD_REACTORS
330
D79
102
}
330
1D
100
AcDbEntity
  8
23
  6
CONTINUOUS
 62
     7
100
AcDbCircle
 10
176.497556
 20
246.332444
 30
2.0
 40
1.05
100
AcDbArc
 50
0.0
 51
180.0
  0
LINE
  5
C7B
102
{ACAD_REACTORS
330
D79
102
}
330
1D
100
AcDbEntity
  8
23
  6
CONTINUOUS
 62
     7
100
AcDbLine
 10
175.447556
 20
246.332444
 30
2.0
 11
167.047556
 21
246.332444
 31
2.0
  0
ARC
  5
C7C
102
{ACAD_REACTORS
330
D79
102
}
330
1D
100
AcDbEntity
  8
23
  6
CONTINUOUS
 62
     7
100
AcDbCircle
 10
165.997556
 20
246.332444
 30
2.0
 40
1.05
100
AcDbArc
 50
0.0
 51
180.0
  0
LINE
  5
C7D
102
{ACAD_REACTORS
330
D79
102
}
330
1D
100
AcDbEntity
  8
23
  6
CONTINUOUS
 62
     7
100
AcDbLine
 10
164.947556
 20
246.332444
 30
2.0
 11
164.947556
 21
241.232444
 31
2.0
  0
CIRCLE
  5
C7E
102
{ACAD_REACTORS
330
D79
102
}
330
1D
100
AcDbEntity
  8
23
  6
CONTINUOUS
 62
     7
100
AcDbCircle
 10
184.747556
 20
229.782444
 30
2.0
 40
1.35
  0
CIRCLE
  5
C7F
102
{ACAD_REACTORS
330
D79
102
}
330
1D
100
AcDbEntity
  8
23
  6
CONTINUOUS
 62
     7
100
AcDbCircle
 10
157.747556
 20
229.782444
 30
2.0
 40
1.35
  0
CIRCLE
  5
C80
102
{ACAD_REACTORS
330
D79
102
}
330
1D
100
AcDbEntity
  8
23
  6
CONTINUOUS
 62
     7
100
AcDbCircle
 10
184.747556
 20
202.782444
 30
2.0
 40
1.35
  0
CIRCLE
  5
C81
102
{ACAD_REACTORS
330
D79
102
}
330
1D
100
AcDbEntity
  8
23
  6
CONTINUOUS
 62
     7
100
AcDbCircle
 10
182.497556
 20
243.782444
 30
2.0
 40
1.55
  0
CIRCLE
  5
C82
102
{ACAD_REACTORS
330
D79
102
}
330
1D
100
AcDbEntity
  8
23
  6
CONTINUOUS
 62
     7
100
AcDbCircle
 10
159.997556
 20
243.782444
 30
2.0
 40
1.55
  0
ARC
  5
C83
102
{ACAD_REACTORS
330
D79
102
}
330
1D
100
AcDbEntity
  8
23
  6
CONTINUOUS
 62
     7
100
AcDbCircle
 10
157.747556
 20
229.782444
 30
2.0
 40
2.75
100
AcDbArc
 50
179.9999990000004
 51
231.5571229999997
  0
LINE
  5
C84
102
{ACAD_REACTORS
330
D79
102
}
330
1D
100
AcDbEntity
  8
23
  6
CONTINUOUS
 62
     7
100
AcDbLine
 10
177.954193
 20
210.231118
 30
2.0
 11
156.037787
 21
227.628566
 31
2.0
  0
ARC
  5
C85
102
{ACAD_REACTORS
330
D79
102
}
330
1D
100
AcDbEntity
  8
23
  6
CONTINUOUS
 62
     7
100
AcDbCircle
 10
171.247556
 20
201.782444
 30
2.0
 40
10.786986
100
AcDbArc
 50
4.236396000000124
 51
51.55712500000002
  0
ARC
  5
C86
102
{ACAD_REACTORS
330
D79
102
}
330
1D
100
AcDbEntity
  8
23
  6
CONTINUOUS
 62
     7
100
AcDbCircle
 10
184.747556
 20
202.782444
 30
2.0
 40
2.75
100
AcDbArc
 50
184.2363919999989
 51
359.9999990000004
  0
LINE
  5
C87
102
{ACAD_REACTORS
330
D79
102
}
330
1D
100
AcDbEntity
  8
23
  6
CONTINUOUS
 62
     7
100
AcDbLine
 10
187.497556
 20
243.3063210000001
 30
2.0
 11
187.497556
 21
202.782444
 31
2.0
  0
LINE
  5
C88
102
{ACAD_REACTORS
330
D79
102
}
330
1D
100
AcDbEntity
  8
23
  6
CONTINUOUS
 62
     7
100
AcDbLine
 10
165.584631
 20
249.282444
 30
2.0
 11
176.910481
 21
249.282444
 31
2.0
  0
LINE
  5
C89
102
{ACAD_REACTORS
330
D79
102
}
330
1D
100
AcDbEntity
  8
23
  6
CONTINUOUS
 62
     7
100
AcDbLine
 10
154.997556
 20
229.782444
 30
2.0
 11
154.997556
 21
243.3063210000001
 31
2.0
  0
ARC
  5
C8A
102
{ACAD_REACTORS
330
D78
102
}
330
1D
100
AcDbEntity
  8
23
  6
CONTINUOUS
 62
     7
100
AcDbCircle
 10
165.584631
 20
176.1
 30
2.0
 40
4.0
100
AcDbArc
 50
253.3007559999999
 51
270.0
  0
ARC
  5
C8B
102
{ACAD_REACTORS
330
D78
102
}
330
1D
100
AcDbEntity
  8
23
  6
CONTINUOUS
 62
     7
100
AcDbCircle
 10
176.910481
 20
176.1
 30
2.0
 40
4.0
100
AcDbArc
 50
270.0
 51
286.6992440000001
  0
ARC
  5
C8C
102
{ACAD_REACTORS
330
D78
102
}
330
1D
100
AcDbEntity
  8
23
  6
CONTINUOUS
 62
     7
100
AcDbCircle
 10
183.497556
 20
178.076123
 30
2.0
 40
4.0
100
AcDbArc
 50
286.6992439999994
 51
0.0
  0
ARC
  5
C8D
102
{ACAD_REACTORS
330
D78
102
}
330
1D
100
AcDbEntity
  8
23
  6
CONTINUOUS
 62
     7
100
AcDbCircle
 10
158.997556
 20
178.076123
 30
2.0
 40
4.0
100
AcDbArc
 50
180.0
 51
253.3007559999999
  0
ARC
  5
C8E
102
{ACAD_REACTORS
330
D78
102
}
330
1D
100
AcDbEntity
  8
23
  6
CONTINUOUS
 62
     7
100
AcDbCircle
 10
164.497556
 20
187.1
 30
2.0
 40
4.0
100
AcDbArc
 50
180.0
 51
270.0
  0
ARC
  5
C8F
102
{ACAD_REACTORS
330
D78
102
}
330
1D
100
AcDbEntity
  8
23
  6
CONTINUOUS
 62
     7
100
AcDbCircle
 10
177.997556
 20
188.978421
 30
2.0
 40
4.0
100
AcDbArc
 50
0.0
 51
51.55712500000002
  0
ARC
  5
C90
102
{ACAD_REACTORS
330
D78
102
}
330
1D
100
AcDbEntity
  8
23
  6
CONTINUOUS
 62
     7
100
AcDbCircle
 10
177.997556
 20
187.1
 30
2.0
 40
4.0
100
AcDbArc
 50
270.0
 51
0.0
  0
ARC
  5
C91
102
{ACAD_REACTORS
330
D78
102
}
330
1D
100
AcDbEntity
  8
23
  6
CONTINUOUS
 62
     7
100
AcDbCircle
 10
164.497556
 20
199.694847
 30
2.0
 40
4.0
100
AcDbArc
 50
51.55712500000002
 51
180.0
  0
LINE
  5
C92
102
{ACAD_REACTORS
330
D78
102
}
330
1D
100
AcDbEntity
  8
23
  6
CONTINUOUS
 62
     7
100
AcDbLine
 10
164.43524
 20
172.268695
 30
2.0
 11
157.848164
 21
174.244817
 31
2.0
  0
LINE
  5
C93
102
{ACAD_REACTORS
330
D78
102
}
330
1D
100
AcDbEntity
  8
23
  6
CONTINUOUS
 62
     7
100
AcDbLine
 10
184.646948
 20
174.244817
 30
2.0
 11
178.059872
 21
172.268695
 31
2.0
  0
LINE
  5
C94
102
{ACAD_REACTORS
330
D78
102
}
330
1D
100
AcDbEntity
  8
23
  6
CONTINUOUS
 62
     7
100
AcDbLine
 10
164.497556
 20
183.1
 30
2.0
 11
177.997556
 21
183.1
 31
2.0
  0
LINE
  5
C95
102
{ACAD_REACTORS
330
D78
102
}
330
1D
100
AcDbEntity
  8
23
  6
CONTINUOUS
 62
     7
100
AcDbLine
 10
180.484492
 20
192.111335
 30
2.0
 11
166.984492
 21
202.827761
 31
2.0
  0
LINE
  5
C96
102
{ACAD_REACTORS
330
D78
102
}
330
1D
100
AcDbEntity
  8
23
  6
CONTINUOUS
 62
     7
100
AcDbLine
 10
181.997556
 20
187.1
 30
2.0
 11
181.997556
 21
188.978421
 31
2.0
  0
LINE
  5
C97
102
{ACAD_REACTORS
330
D78
102
}
330
1D
100
AcDbEntity
  8
23
  6
CONTINUOUS
 62
     7
100
AcDbLine
 10
160.497556
 20
199.694847
 30
2.0
 11
160.497556
 21
187.1
 31
2.0
  0
ARC
  5
C98
102
{ACAD_REACTORS
330
D78
102
}
330
1D
100
AcDbEntity
  8
23
  6
CONTINUOUS
 62
     7
100
AcDbCircle
 10
176.497556
 20
180.15
 30
2.0
 40
1.05
100
AcDbArc
 50
0.0
 51
180.0
  0
LINE
  5
C99
102
{ACAD_REACTORS
330
D78
102
}
330
1D
100
AcDbEntity
  8
23
  6
CONTINUOUS
 62
     7
100
AcDbLine
 10
175.447556
 20
180.15
 30
2.0
 11
167.047556
 21
180.15
 31
2.0
  0
ARC
  5
C9A
102
{ACAD_REACTORS
330
D78
102
}
330
1D
100
AcDbEntity
  8
23
  6
CONTINUOUS
 62
     7
100
AcDbCircle
 10
165.997556
 20
180.15
 30
2.0
 40
1.05
100
AcDbArc
 50
0.0
 51
180.0
  0
LINE
  5
C9B
102
{ACAD_REACTORS
330
D78
102
}
330
1D
100
AcDbEntity
  8
23
  6
CONTINUOUS
 62
     7
100
AcDbLine
 10
164.947556
 20
180.15
 30
2.0
 11
164.947556
 21
175.05
 31
2.0
  0
ARC
  5
C9C
102
{ACAD_REACTORS
330
D78
102
}
330
1D
100
AcDbEntity
  8
23
  6
CONTINUOUS
 62
     7
100
AcDbCircle
 10
165.997556
 20
175.05
 30
2.0
 40
1.05
100
AcDbArc
 50
180.0
 51
0.0
  0
LINE
  5
C9D
102
{ACAD_REACTORS
330
D78
102
}
330
1D
100
AcDbEntity
  8
23
  6
CONTINUOUS
 62
     7
100
AcDbLine
 10
167.047556
 20
175.05
 30
2.0
 11
175.447556
 21
175.05
 31
2.0
  0
ARC
  5
C9E
102
{ACAD_REACTORS
330
D78
102
}
330
1D
100
AcDbEntity
  8
23
  6
CONTINUOUS
 62
     7
100
AcDbCircle
 10
176.497556
 20
175.05
 30
2.0
 40
1.05
100
AcDbArc
 50
180.0
 51
0.0
  0
LINE
  5
C9F
102
{ACAD_REACTORS
330
D78
102
}
330
1D
100
AcDbEntity
  8
23
  6
CONTINUOUS
 62
     7
100
AcDbLine
 10
177.547556
 20
175.05
 30
2.0
 11
177.547556
 21
180.15
 31
2.0
  0
CIRCLE
  5
CA0
102
{ACAD_REACTORS
330
D78
102
}
330
1D
100
AcDbEntity
  8
23
  6
CONTINUOUS
 62
     7
100
AcDbCircle
 10
157.747556
 20
191.6
 30
2.0
 40
1.35
  0
CIRCLE
  5
CA1
102
{ACAD_REACTORS
330
D78
102
}
330
1D
100
AcDbEntity
  8
23
  6
CONTINUOUS
 62
     7
100
AcDbCircle
 10
184.747556
 20
191.6
 30
2.0
 40
1.35
  0
CIRCLE
  5
CA2
102
{ACAD_REACTORS
330
D78
102
}
330
1D
100
AcDbEntity
  8
23
  6
CONTINUOUS
 62
     7
100
AcDbCircle
 10
157.747556
 20
218.6
 30
2.0
 40
1.35
  0
CIRCLE
  5
CA3
102
{ACAD_REACTORS
330
D78
102
}
330
1D
100
AcDbEntity
  8
23
  6
CONTINUOUS
 62
     7
100
AcDbCircle
 10
159.997556
 20
177.6
 30
2.0
 40
1.55
  0
CIRCLE
  5
CA4
102
{ACAD_REACTORS
330
D78
102
}
330
1D
100
AcDbEntity
  8
23
  6
CONTINUOUS
 62
     7
100
AcDbCircle
 10
182.497556
 20
177.6
 30
2.0
 40
1.55
  0
ARC
  5
CA5
102
{ACAD_REACTORS
330
D78
102
}
330
1D
100
AcDbEntity
  8
23
  6
CONTINUOUS
 62
     7
100
AcDbCircle
 10
184.747556
 20
191.6
 30
2.0
 40
2.75
100
AcDbArc
 50
359.9999990000004
 51
51.55712299999966
  0
LINE
  5
CA6
102
{ACAD_REACTORS
330
D78
102
}
330
1D
100
AcDbEntity
  8
23
  6
CONTINUOUS
 62
     7
100
AcDbLine
 10
164.540919
 20
211.151326
 30
2.0
 11
186.457325
 21
193.753878
 31
2.0
  0
ARC
  5
CA7
102
{ACAD_REACTORS
330
D78
102
}
330
1D
100
AcDbEntity
  8
23
  6
CONTINUOUS
 62
     7
100
AcDbCircle
 10
171.247556
 20
219.6
 30
2.0
 40
10.786986
100
AcDbArc
 50
184.2363960000001
 51
231.557125
  0
ARC
  5
CA8
102
{ACAD_REACTORS
330
D78
102
}
330
1D
100
AcDbEntity
  8
23
  6
CONTINUOUS
 62
     7
100
AcDbCircle
 10
157.747556
 20
218.6
 30
2.0
 40
2.75
100
AcDbArc
 50
4.236392000000082
 51
179.9999990000004
  0
LINE
  5
CA9
102
{ACAD_REACTORS
330
D78
102
}
330
1D
100
AcDbEntity
  8
23
  6
CONTINUOUS
 62
     7
100
AcDbLine
 10
154.997556
 20
178.076123
 30
2.0
 11
154.997556
 21
218.6
 31
2.0
  0
LINE
  5
CAA
102
{ACAD_REACTORS
330
D78
102
}
330
1D
100
AcDbEntity
  8
23
  6
CONTINUOUS
 62
     7
100
AcDbLine
 10
176.910481
 20
172.1
 30
2.0
 11
165.584631
 21
172.1
 31
2.0
  0
LINE
  5
CAB
102
{ACAD_REACTORS
330
D78
102
}
330
1D
100
AcDbEntity
  8
23
  6
CONTINUOUS
 62
     7
100
AcDbLine
 10
187.497556
 20
191.6
 30
2.0
 11
187.497556
 21
178.076123
 31
2.0
  0
ARC
  5
CAC
102
{ACAD_REACTORS
330
D7B
102
}
330
1D
100
AcDbEntity
  8
23
  6
CONTINUOUS
 62
     7
100
AcDbCircle
 10
142.310481
 20
245.282444
 30
2.0
 40
4.0
100
AcDbArc
 50
73.30075599999986
 51
90.0
  0
ARC
  5
CAD
102
{ACAD_REACTORS
330
D7B
102
}
330
1D
100
AcDbEntity
  8
23
  6
CONTINUOUS
 62
     7
100
AcDbCircle
 10
130.984631
 20
245.282444
 30
2.0
 40
4.0
100
AcDbArc
 50
90.0
 51
106.6992440000001
  0
ARC
  5
CAE
102
{ACAD_REACTORS
330
D7B
102
}
330
1D
100
AcDbEntity
  8
23
  6
CONTINUOUS
 62
     7
100
AcDbCircle
 10
124.397556
 20
243.3063210000001
 30
2.0
 40
4.0
100
AcDbArc
 50
106.6992440000001
 51
180.0
  0
ARC
  5
CAF
102
{ACAD_REACTORS
330
D7B
102
}
330
1D
100
AcDbEntity
  8
23
  6
CONTINUOUS
 62
     7
100
AcDbCircle
 10
148.897556
 20
243.3063210000001
 30
2.0
 40
4.0
100
AcDbArc
 50
0.0
 51
73.30075599999986
  0
ARC
  5
CB0
102
{ACAD_REACTORS
330
D7B
102
}
330
1D
100
AcDbEntity
  8
23
  6
CONTINUOUS
 62
     7
100
AcDbCircle
 10
143.397556
 20
234.282444
 30
2.0
 40
4.0
100
AcDbArc
 50
0.0
 51
90.0
  0
ARC
  5
CB1
102
{ACAD_REACTORS
330
D7B
102
}
330
1D
100
AcDbEntity
  8
23
  6
CONTINUOUS
 62
     7
100
AcDbCircle
 10
129.897556
 20
232.4040230000001
 30
2.0
 40
4.0
100
AcDbArc
 50
180.0
 51
231.5571250000013
  0
ARC
  5
CB2
102
{ACAD_REACTORS
330
D7B
102
}
330
1D
100
AcDbEntity
  8
23
  6
CONTINUOUS
 62
     7
100
AcDbCircle
 10
129.897556
 20
234.282444
 30
2.0
 40
4.0
100
AcDbArc
 50
90.0
 51
180.0
  0
ARC
  5
CB3
102
{ACAD_REACTORS
330
D7B
102
}
330
1D
100
AcDbEntity
  8
23
  6
CONTINUOUS
 62
     7
100
AcDbCircle
 10
143.397556
 20
221.687597
 30
2.0
 40
4.0
100
AcDbArc
 50
231.5571250000006
 51
0.0
  0
LINE
  5
CB4
102
{ACAD_REACTORS
330
D7B
102
}
330
1D
100
AcDbEntity
  8
23
  6
CONTINUOUS
 62
     7
100
AcDbLine
 10
143.459872
 20
249.113749
 30
2.0
 11
150.046948
 21
247.137627
 31
2.0
  0
LINE
  5
CB5
102
{ACAD_REACTORS
330
D7B
102
}
330
1D
100
AcDbEntity
  8
23
  6
CONTINUOUS
 62
     7
100
AcDbLine
 10
123.248164
 20
247.137627
 30
2.0
 11
129.83524
 21
249.113749
 31
2.0
  0
LINE
  5
CB6
102
{ACAD_REACTORS
330
D7B
102
}
330
1D
100
AcDbEntity
  8
23
  6
CONTINUOUS
 62
     7
100
AcDbLine
 10
143.397556
 20
238.282444
 30
2.0
 11
129.897556
 21
238.282444
 31
2.0
  0
LINE
  5
CB7
102
{ACAD_REACTORS
330
D7B
102
}
330
1D
100
AcDbEntity
  8
23
  6
CONTINUOUS
 62
     7
100
AcDbLine
 10
127.41062
 20
229.2711090000001
 30
2.0
 11
140.91062
 21
218.554683
 31
2.0
  0
LINE
  5
CB8
102
{ACAD_REACTORS
330
D7B
102
}
330
1D
100
AcDbEntity
  8
23
  6
CONTINUOUS
 62
     7
100
AcDbLine
 10
125.897556
 20
234.282444
 30
2.0
 11
125.897556
 21
232.4040230000001
 31
2.0
  0
LINE
  5
CB9
102
{ACAD_REACTORS
330
D7B
102
}
330
1D
100
AcDbEntity
  8
23
  6
CONTINUOUS
 62
     7
100
AcDbLine
 10
147.397556
 20
221.687597
 30
2.0
 11
147.397556
 21
234.282444
 31
2.0
  0
ARC
  5
CBA
102
{ACAD_REACTORS
330
D7B
102
}
330
1D
100
AcDbEntity
  8
23
  6
CONTINUOUS
 62
     7
100
AcDbCircle
 10
131.397556
 20
241.232444
 30
2.0
 40
1.05
100
AcDbArc
 50
180.0
 51
0.0
  0
LINE
  5
CBB
102
{ACAD_REACTORS
330
D7B
102
}
330
1D
100
AcDbEntity
  8
23
  6
CONTINUOUS
 62
     7
100
AcDbLine
 10
132.447556
 20
241.232444
 30
2.0
 11
140.8475559999999
 21
241.232444
 31
2.0
  0
ARC
  5
CBC
102
{ACAD_REACTORS
330
D7B
102
}
330
1D
100
AcDbEntity
  8
23
  6
CONTINUOUS
 62
     7
100
AcDbCircle
 10
141.897556
 20
241.232444
 30
2.0
 40
1.05
100
AcDbArc
 50
180.0
 51
0.0
  0
LINE
  5
CBD
102
{ACAD_REACTORS
330
D7B
102
}
330
1D
100
AcDbEntity
  8
23
  6
CONTINUOUS
 62
     7
100
AcDbLine
 10
142.947556
 20
241.232444
 30
2.0
 11
142.947556
 21
246.332444
 31
2.0
  0
ARC
  5
CBE
102
{ACAD_REACTORS
330
D7B
102
}
330
1D
100
AcDbEntity
  8
23
  6
CONTINUOUS
 62
     7
100
AcDbCircle
 10
141.897556
 20
246.332444
 30
2.0
 40
1.05
100
AcDbArc
 50
0.0
 51
180.0
  0
LINE
  5
CBF
102
{ACAD_REACTORS
330
D7B
102
}
330
1D
100
AcDbEntity
  8
23
  6
CONTINUOUS
 62
     7
100
AcDbLine
 10
140.8475559999999
 20
246.332444
 30
2.0
 11
132.447556
 21
246.332444
 31
2.0
  0
ARC
  5
CC0
102
{ACAD_REACTORS
330
D7B
102
}
330
1D
100
AcDbEntity
  8
23
  6
CONTINUOUS
 62
     7
100
AcDbCircle
 10
131.397556
 20
246.332444
 30
2.0
 40
1.05
100
AcDbArc
 50
0.0
 51
180.0
  0
LINE
  5
CC1
102
{ACAD_REACTORS
330
D7B
102
}
330
1D
100
AcDbEntity
  8
23
  6
CONTINUOUS
 62
     7
100
AcDbLine
 10
130.3475559999999
 20
246.332444
 30
2.0
 11
130.3475559999999
 21
241.232444
 31
2.0
  0
CIRCLE
  5
CC2
102
{ACAD_REACTORS
330
D7B
102
}
330
1D
100
AcDbEntity
  8
23
  6
CONTINUOUS
 62
     7
100
AcDbCircle
 10
150.147556
 20
229.782444
 30
2.0
 40
1.35
  0
CIRCLE
  5
CC3
102
{ACAD_REACTORS
330
D7B
102
}
330
1D
100
AcDbEntity
  8
23
  6
CONTINUOUS
 62
     7
100
AcDbCircle
 10
123.147556
 20
229.782444
 30
2.0
 40
1.35
  0
CIRCLE
  5
CC4
102
{ACAD_REACTORS
330
D7B
102
}
330
1D
100
AcDbEntity
  8
23
  6
CONTINUOUS
 62
     7
100
AcDbCircle
 10
150.147556
 20
202.782444
 30
2.0
 40
1.35
  0
CIRCLE
  5
CC5
102
{ACAD_REACTORS
330
D7B
102
}
330
1D
100
AcDbEntity
  8
23
  6
CONTINUOUS
 62
     7
100
AcDbCircle
 10
147.897556
 20
243.782444
 30
2.0
 40
1.55
  0
CIRCLE
  5
CC6
102
{ACAD_REACTORS
330
D7B
102
}
330
1D
100
AcDbEntity
  8
23
  6
CONTINUOUS
 62
     7
100
AcDbCircle
 10
125.397556
 20
243.782444
 30
2.0
 40
1.55
  0
ARC
  5
CC7
102
{ACAD_REACTORS
330
D7B
102
}
330
1D
100
AcDbEntity
  8
23
  6
CONTINUOUS
 62
     7
100
AcDbCircle
 10
123.147556
 20
229.782444
 30
2.0
 40
2.75
100
AcDbArc
 50
179.9999990000004
 51
231.5571229999997
  0
LINE
  5
CC8
102
{ACAD_REACTORS
330
D7B
102
}
330
1D
100
AcDbEntity
  8
23
  6
CONTINUOUS
 62
     7
100
AcDbLine
 10
143.354193
 20
210.231118
 30
2.0
 11
121.437787
 21
227.628566
 31
2.0
  0
ARC
  5
CC9
102
{ACAD_REACTORS
330
D7B
102
}
330
1D
100
AcDbEntity
  8
23
  6
CONTINUOUS
 62
     7
100
AcDbCircle
 10
136.647556
 20
201.782444
 30
2.0
 40
10.786986
100
AcDbArc
 50
4.236396000000124
 51
51.55712500000002
  0
ARC
  5
CCA
102
{ACAD_REACTORS
330
D7B
102
}
330
1D
100
AcDbEntity
  8
23
  6
CONTINUOUS
 62
     7
100
AcDbCircle
 10
150.147556
 20
202.782444
 30
2.0
 40
2.75
100
AcDbArc
 50
184.2363919999989
 51
359.9999990000004
  0
LINE
  5
CCB
102
{ACAD_REACTORS
330
D7B
102
}
330
1D
100
AcDbEntity
  8
23
  6
CONTINUOUS
 62
     7
100
AcDbLine
 10
152.897556
 20
243.3063210000001
 30
2.0
 11
152.897556
 21
202.782444
 31
2.0
  0
LINE
  5
CCC
102
{ACAD_REACTORS
330
D7B
102
}
330
1D
100
AcDbEntity
  8
23
  6
CONTINUOUS
 62
     7
100
AcDbLine
 10
130.984631
 20
249.282444
 30
2.0
 11
142.310481
 21
249.282444
 31
2.0
  0
LINE
  5
CCD
102
{ACAD_REACTORS
330
D7B
102
}
330
1D
100
AcDbEntity
  8
23
  6
CONTINUOUS
 62
     7
100
AcDbLine
 10
120.397556
 20
229.782444
 30
2.0
 11
120.397556
 21
243.3063210000001
 31
2.0
  0
ARC
  5
CCE
102
{ACAD_REACTORS
330
D7A
102
}
330
1D
100
AcDbEntity
  8
23
  6
CONTINUOUS
 62
     7
100
AcDbCircle
 10
130.984631
 20
176.1
 30
2.0
 40
4.0
100
AcDbArc
 50
253.3007559999999
 51
270.0
  0
ARC
  5
CCF
102
{ACAD_REACTORS
330
D7A
102
}
330
1D
100
AcDbEntity
  8
23
  6
CONTINUOUS
 62
     7
100
AcDbCircle
 10
142.310481
 20
176.1
 30
2.0
 40
4.0
100
AcDbArc
 50
270.0
 51
286.6992440000001
  0
ARC
  5
CD0
102
{ACAD_REACTORS
330
D7A
102
}
330
1D
100
AcDbEntity
  8
23
  6
CONTINUOUS
 62
     7
100
AcDbCircle
 10
148.897556
 20
178.076123
 30
2.0
 40
4.0
100
AcDbArc
 50
286.6992439999994
 51
0.0
  0
ARC
  5
CD1
102
{ACAD_REACTORS
330
D7A
102
}
330
1D
100
AcDbEntity
  8
23
  6
CONTINUOUS
 62
     7
100
AcDbCircle
 10
124.397556
 20
178.076123
 30
2.0
 40
4.0
100
AcDbArc
 50
180.0
 51
253.3007559999999
  0
ARC
  5
CD2
102
{ACAD_REACTORS
330
D7A
102
}
330
1D
100
AcDbEntity
  8
23
  6
CONTINUOUS
 62
     7
100
AcDbCircle
 10
129.897556
 20
187.1
 30
2.0
 40
4.0
100
AcDbArc
 50
180.0
 51
270.0
  0
ARC
  5
CD3
102
{ACAD_REACTORS
330
D7A
102
}
330
1D
100
AcDbEntity
  8
23
  6
CONTINUOUS
 62
     7
100
AcDbCircle
 10
143.397556
 20
188.978421
 30
2.0
 40
4.0
100
AcDbArc
 50
0.0
 51
51.55712500000002
  0
ARC
  5
CD4
102
{ACAD_REACTORS
330
D7A
102
}
330
1D
100
AcDbEntity
  8
23
  6
CONTINUOUS
 62
     7
100
AcDbCircle
 10
143.397556
 20
187.1
 30
2.0
 40
4.0
100
AcDbArc
 50
270.0
 51
0.0
  0
ARC
  5
CD5
102
{ACAD_REACTORS
330
D7A
102
}
330
1D
100
AcDbEntity
  8
23
  6
CONTINUOUS
 62
     7
100
AcDbCircle
 10
129.897556
 20
199.694847
 30
2.0
 40
4.0
100
AcDbArc
 50
51.55712499999888
 51
180.0
  0
LINE
  5
CD6
102
{ACAD_REACTORS
330
D7A
102
}
330
1D
100
AcDbEntity
  8
23
  6
CONTINUOUS
 62
     7
100
AcDbLine
 10
129.83524
 20
172.268695
 30
2.0
 11
123.248164
 21
174.244817
 31
2.0
  0
LINE
  5
CD7
102
{ACAD_REACTORS
330
D7A
102
}
330
1D
100
AcDbEntity
  8
23
  6
CONTINUOUS
 62
     7
100
AcDbLine
 10
150.046948
 20
174.244817
 30
2.0
 11
143.459872
 21
172.268695
 31
2.0
  0
LINE
  5
CD8
102
{ACAD_REACTORS
330
D7A
102
}
330
1D
100
AcDbEntity
  8
23
  6
CONTINUOUS
 62
     7
100
AcDbLine
 10
129.897556
 20
183.1
 30
2.0
 11
143.397556
 21
183.1
 31
2.0
  0
LINE
  5
CD9
102
{ACAD_REACTORS
330
D7A
102
}
330
1D
100
AcDbEntity
  8
23
  6
CONTINUOUS
 62
     7
100
AcDbLine
 10
145.884492
 20
192.111335
 30
2.0
 11
132.384492
 21
202.827761
 31
2.0
  0
LINE
  5
CDA
102
{ACAD_REACTORS
330
D7A
102
}
330
1D
100
AcDbEntity
  8
23
  6
CONTINUOUS
 62
     7
100
AcDbLine
 10
147.397556
 20
187.1
 30
2.0
 11
147.397556
 21
188.978421
 31
2.0
  0
LINE
  5
CDB
102
{ACAD_REACTORS
330
D7A
102
}
330
1D
100
AcDbEntity
  8
23
  6
CONTINUOUS
 62
     7
100
AcDbLine
 10
125.897556
 20
199.694847
 30
2.0
 11
125.897556
 21
187.1
 31
2.0
  0
ARC
  5
CDC
102
{ACAD_REACTORS
330
D7A
102
}
330
1D
100
AcDbEntity
  8
23
  6
CONTINUOUS
 62
     7
100
AcDbCircle
 10
141.897556
 20
180.15
 30
2.0
 40
1.05
100
AcDbArc
 50
0.0
 51
180.0
  0
LINE
  5
CDD
102
{ACAD_REACTORS
330
D7A
102
}
330
1D
100
AcDbEntity
  8
23
  6
CONTINUOUS
 62
     7
100
AcDbLine
 10
140.8475559999999
 20
180.15
 30
2.0
 11
132.447556
 21
180.15
 31
2.0
  0
ARC
  5
CDE
102
{ACAD_REACTORS
330
D7A
102
}
330
1D
100
AcDbEntity
  8
23
  6
CONTINUOUS
 62
     7
100
AcDbCircle
 10
131.397556
 20
180.15
 30
2.0
 40
1.05
100
AcDbArc
 50
0.0
 51
180.0
  0
LINE
  5
CDF
102
{ACAD_REACTORS
330
D7A
102
}
330
1D
100
AcDbEntity
  8
23
  6
CONTINUOUS
 62
     7
100
AcDbLine
 10
130.3475559999999
 20
180.15
 30
2.0
 11
130.3475559999999
 21
175.05
 31
2.0
  0
ARC
  5
CE0
102
{ACAD_REACTORS
330
D7A
102
}
330
1D
100
AcDbEntity
  8
23
  6
CONTINUOUS
 62
     7
100
AcDbCircle
 10
131.397556
 20
175.05
 30
2.0
 40
1.05
100
AcDbArc
 50
180.0
 51
0.0
  0
LINE
  5
CE1
102
{ACAD_REACTORS
330
D7A
102
}
330
1D
100
AcDbEntity
  8
23
  6
CONTINUOUS
 62
     7
100
AcDbLine
 10
132.447556
 20
175.05
 30
2.0
 11
140.8475559999999
 21
175.05
 31
2.0
  0
ARC
  5
CE2
102
{ACAD_REACTORS
330
D7A
102
}
330
1D
100
AcDbEntity
  8
23
  6
CONTINUOUS
 62
     7
100
AcDbCircle
 10
141.897556
 20
175.05
 30
2.0
 40
1.05
100
AcDbArc
 50
180.0
 51
0.0
  0
LINE
  5
CE3
102
{ACAD_REACTORS
330
D7A
102
}
330
1D
100
AcDbEntity
  8
23
  6
CONTINUOUS
 62
     7
100
AcDbLine
 10
142.947556
 20
175.05
 30
2.0
 11
142.947556
 21
180.15
 31
2.0
  0
CIRCLE
  5
CE4
102
{ACAD_REACTORS
330
D7A
102
}
330
1D
100
AcDbEntity
  8
23
  6
CONTINUOUS
 62
     7
100
AcDbCircle
 10
123.147556
 20
191.6
 30
2.0
 40
1.35
  0
CIRCLE
  5
CE5
102
{ACAD_REACTORS
330
D7A
102
}
330
1D
100
AcDbEntity
  8
23
  6
CONTINUOUS
 62
     7
100
AcDbCircle
 10
150.147556
 20
191.6
 30
2.0
 40
1.35
  0
CIRCLE
  5
CE6
102
{ACAD_REACTORS
330
D7A
102
}
330
1D
100
AcDbEntity
  8
23
  6
CONTINUOUS
 62
     7
100
AcDbCircle
 10
123.147556
 20
218.6
 30
2.0
 40
1.35
  0
CIRCLE
  5
CE7
102
{ACAD_REACTORS
330
D7A
102
}
330
1D
100
AcDbEntity
  8
23
  6
CONTINUOUS
 62
     7
100
AcDbCircle
 10
125.397556
 20
177.6
 30
2.0
 40
1.55
  0
CIRCLE
  5
CE8
102
{ACAD_REACTORS
330
D7A
102
}
330
1D
100
AcDbEntity
  8
23
  6
CONTINUOUS
 62
     7
100
AcDbCircle
 10
147.897556
 20
177.6
 30
2.0
 40
1.55
  0
ARC
  5
CE9
102
{ACAD_REACTORS
330
D7A
102
}
330
1D
100
AcDbEntity
  8
23
  6
CONTINUOUS
 62
     7
100
AcDbCircle
 10
150.147556
 20
191.6
 30
2.0
 40
2.75
100
AcDbArc
 50
359.9999990000004
 51
51.55712299999966
  0
LINE
  5
CEA
102
{ACAD_REACTORS
330
D7A
102
}
330
1D
100
AcDbEntity
  8
23
  6
CONTINUOUS
 62
     7
100
AcDbLine
 10
129.940919
 20
211.151326
 30
2.0
 11
151.857325
 21
193.753878
 31
2.0
  0
ARC
  5
CEB
102
{ACAD_REACTORS
330
D7A
102
}
330
1D
100
AcDbEntity
  8
23
  6
CONTINUOUS
 62
     7
100
AcDbCircle
 10
136.647556
 20
219.6
 30
2.0
 40
10.786986
100
AcDbArc
 50
184.2363960000001
 51
231.557125
  0
ARC
  5
CEC
102
{ACAD_REACTORS
330
D7A
102
}
330
1D
100
AcDbEntity
  8
23
  6
CONTINUOUS
 62
     7
100
AcDbCircle
 10
123.147556
 20
218.6
 30
2.0
 40
2.75
100
AcDbArc
 50
4.236392000000082
 51
179.9999990000004
  0
LINE
  5
CED
102
{ACAD_REACTORS
330
D7A
102
}
330
1D
100
AcDbEntity
  8
23
  6
CONTINUOUS
 62
     7
100
AcDbLine
 10
120.397556
 20
178.076123
 30
2.0
 11
120.397556
 21
218.6
 31
2.0
  0
LINE
  5
CEE
102
{ACAD_REACTORS
330
D7A
102
}
330
1D
100
AcDbEntity
  8
23
  6
CONTINUOUS
 62
     7
100
AcDbLine
 10
142.310481
 20
172.1
 30
2.0
 11
130.984631
 21
172.1
 31
2.0
  0
LINE
  5
CEF
102
{ACAD_REACTORS
330
D7A
102
}
330
1D
100
AcDbEntity
  8
23
  6
CONTINUOUS
 62
     7
100
AcDbLine
 10
152.897556
 20
191.6
 30
2.0
 11
152.897556
 21
178.076123
 31
2.0
  0
ARC
  5
CF0
102
{ACAD_REACTORS
330
D7D
102
}
330
1D
100
AcDbEntity
  8
23
  6
CONTINUOUS
 62
     7
100
AcDbCircle
 10
107.710481
 20
245.282444
 30
2.0
 40
4.0
100
AcDbArc
 50
73.30075599999986
 51
90.0
  0
ARC
  5
CF1
102
{ACAD_REACTORS
330
D7D
102
}
330
1D
100
AcDbEntity
  8
23
  6
CONTINUOUS
 62
     7
100
AcDbCircle
 10
96.38463100000001
 20
245.282444
 30
2.0
 40
4.0
100
AcDbArc
 50
90.0
 51
106.6992440000001
  0
ARC
  5
CF2
102
{ACAD_REACTORS
330
D7D
102
}
330
1D
100
AcDbEntity
  8
23
  6
CONTINUOUS
 62
     7
100
AcDbCircle
 10
89.79755600000004
 20
243.306321
 30
2.0
 40
4.0
100
AcDbArc
 50
106.6992439999994
 51
180.0
  0
ARC
  5
CF3
102
{ACAD_REACTORS
330
D7D
102
}
330
1D
100
AcDbEntity
  8
23
  6
CONTINUOUS
 62
     7
100
AcDbCircle
 10
114.297556
 20
243.306321
 30
2.0
 40
4.0
100
AcDbArc
 50
0.0
 51
73.30075599999986
  0
ARC
  5
CF4
102
{ACAD_REACTORS
330
D7D
102
}
330
1D
100
AcDbEntity
  8
23
  6
CONTINUOUS
 62
     7
100
AcDbCircle
 10
108.797556
 20
234.282444
 30
2.0
 40
4.0
100
AcDbArc
 50
0.0
 51
90.0
  0
ARC
  5
CF5
102
{ACAD_REACTORS
330
D7D
102
}
330
1D
100
AcDbEntity
  8
23
  6
CONTINUOUS
 62
     7
100
AcDbCircle
 10
95.29755600000004
 20
232.404023
 30
2.0
 40
4.0
100
AcDbArc
 50
180.0
 51
231.5571249999988
  0
ARC
  5
CF6
102
{ACAD_REACTORS
330
D7D
102
}
330
1D
100
AcDbEntity
  8
23
  6
CONTINUOUS
 62
     7
100
AcDbCircle
 10
95.29755600000004
 20
234.282444
 30
2.0
 40
4.0
100
AcDbArc
 50
90.0
 51
180.0
  0
ARC
  5
CF7
102
{ACAD_REACTORS
330
D7D
102
}
330
1D
100
AcDbEntity
  8
23
  6
CONTINUOUS
 62
     7
100
AcDbCircle
 10
108.797556
 20
221.687597
 30
2.0
 40
4.0
100
AcDbArc
 50
231.557125
 51
0.0
  0
LINE
  5
CF8
102
{ACAD_REACTORS
330
D7D
102
}
330
1D
100
AcDbEntity
  8
23
  6
CONTINUOUS
 62
     7
100
AcDbLine
 10
108.859872
 20
249.113749
 30
2.0
 11
115.446948
 21
247.137627
 31
2.0
  0
LINE
  5
CF9
102
{ACAD_REACTORS
330
D7D
102
}
330
1D
100
AcDbEntity
  8
23
  6
CONTINUOUS
 62
     7
100
AcDbLine
 10
88.64816400000001
 20
247.137627
 30
2.0
 11
95.23524000000003
 21
249.113749
 31
2.0
  0
LINE
  5
CFA
102
{ACAD_REACTORS
330
D7D
102
}
330
1D
100
AcDbEntity
  8
23
  6
CONTINUOUS
 62
     7
100
AcDbLine
 10
108.797556
 20
238.282444
 30
2.0
 11
95.29755600000004
 21
238.282444
 31
2.0
  0
LINE
  5
CFB
102
{ACAD_REACTORS
330
D7D
102
}
330
1D
100
AcDbEntity
  8
23
  6
CONTINUOUS
 62
     7
100
AcDbLine
 10
92.81062000000003
 20
229.271109
 30
2.0
 11
106.31062
 21
218.554683
 31
2.0
  0
LINE
  5
CFC
102
{ACAD_REACTORS
330
D7D
102
}
330
1D
100
AcDbEntity
  8
23
  6
CONTINUOUS
 62
     7
100
AcDbLine
 10
91.29755600000004
 20
234.282444
 30
2.0
 11
91.29755600000004
 21
232.404023
 31
2.0
  0
LINE
  5
CFD
102
{ACAD_REACTORS
330
D7D
102
}
330
1D
100
AcDbEntity
  8
23
  6
CONTINUOUS
 62
     7
100
AcDbLine
 10
112.797556
 20
221.687597
 30
2.0
 11
112.797556
 21
234.282444
 31
2.0
  0
ARC
  5
CFE
102
{ACAD_REACTORS
330
D7D
102
}
330
1D
100
AcDbEntity
  8
23
  6
CONTINUOUS
 62
     7
100
AcDbCircle
 10
96.79755600000004
 20
241.232444
 30
2.0
 40
1.05
100
AcDbArc
 50
180.0
 51
0.0
  0
LINE
  5
CFF
102
{ACAD_REACTORS
330
D7D
102
}
330
1D
100
AcDbEntity
  8
23
  6
CONTINUOUS
 62
     7
100
AcDbLine
 10
97.847556
 20
241.232444
 30
2.0
 11
106.247556
 21
241.232444
 31
2.0
  0
ARC
  5
D00
102
{ACAD_REACTORS
330
D7D
102
}
330
1D
100
AcDbEntity
  8
23
  6
CONTINUOUS
 62
     7
100
AcDbCircle
 10
107.297556
 20
241.232444
 30
2.0
 40
1.05
100
AcDbArc
 50
180.0
 51
0.0
  0
LINE
  5
D01
102
{ACAD_REACTORS
330
D7D
102
}
330
1D
100
AcDbEntity
  8
23
  6
CONTINUOUS
 62
     7
100
AcDbLine
 10
108.347556
 20
241.232444
 30
2.0
 11
108.347556
 21
246.332444
 31
2.0
  0
ARC
  5
D02
102
{ACAD_REACTORS
330
D7D
102
}
330
1D
100
AcDbEntity
  8
23
  6
CONTINUOUS
 62
     7
100
AcDbCircle
 10
107.297556
 20
246.332444
 30
2.0
 40
1.05
100
AcDbArc
 50
0.0
 51
180.0
  0
LINE
  5
D03
102
{ACAD_REACTORS
330
D7D
102
}
330
1D
100
AcDbEntity
  8
23
  6
CONTINUOUS
 62
     7
100
AcDbLine
 10
106.247556
 20
246.332444
 30
2.0
 11
97.847556
 21
246.332444
 31
2.0
  0
ARC
  5
D04
102
{ACAD_REACTORS
330
D7D
102
}
330
1D
100
AcDbEntity
  8
23
  6
CONTINUOUS
 62
     7
100
AcDbCircle
 10
96.79755600000004
 20
246.332444
 30
2.0
 40
1.05
100
AcDbArc
 50
0.0
 51
180.0
  0
LINE
  5
D05
102
{ACAD_REACTORS
330
D7D
102
}
330
1D
100
AcDbEntity
  8
23
  6
CONTINUOUS
 62
     7
100
AcDbLine
 10
95.74755599999997
 20
246.332444
 30
2.0
 11
95.74755599999997
 21
241.232444
 31
2.0
  0
CIRCLE
  5
D06
102
{ACAD_REACTORS
330
D7D
102
}
330
1D
100
AcDbEntity
  8
23
  6
CONTINUOUS
 62
     7
100
AcDbCircle
 10
115.547556
 20
229.782444
 30
2.0
 40
1.35
  0
CIRCLE
  5
D07
102
{ACAD_REACTORS
330
D7D
102
}
330
1D
100
AcDbEntity
  8
23
  6
CONTINUOUS
 62
     7
100
AcDbCircle
 10
88.54755600000004
 20
229.782444
 30
2.0
 40
1.35
  0
CIRCLE
  5
D08
102
{ACAD_REACTORS
330
D7D
102
}
330
1D
100
AcDbEntity
  8
23
  6
CONTINUOUS
 62
     7
100
AcDbCircle
 10
115.547556
 20
202.782444
 30
2.0
 40
1.35
  0
CIRCLE
  5
D09
102
{ACAD_REACTORS
330
D7D
102
}
330
1D
100
AcDbEntity
  8
23
  6
CONTINUOUS
 62
     7
100
AcDbCircle
 10
113.297556
 20
243.782444
 30
2.0
 40
1.55
  0
CIRCLE
  5
D0A
102
{ACAD_REACTORS
330
D7D
102
}
330
1D
100
AcDbEntity
  8
23
  6
CONTINUOUS
 62
     7
100
AcDbCircle
 10
90.79755600000004
 20
243.782444
 30
2.0
 40
1.55
  0
ARC
  5
D0B
102
{ACAD_REACTORS
330
D7D
102
}
330
1D
100
AcDbEntity
  8
23
  6
CONTINUOUS
 62
     7
100
AcDbCircle
 10
88.54755600000004
 20
229.782444
 30
2.0
 40
2.75
100
AcDbArc
 50
179.9999990000004
 51
231.5571230000013
  0
LINE
  5
D0C
102
{ACAD_REACTORS
330
D7D
102
}
330
1D
100
AcDbEntity
  8
23
  6
CONTINUOUS
 62
     7
100
AcDbLine
 10
108.754193
 20
210.231118
 30
2.0
 11
86.83778699999999
 21
227.628566
 31
2.0
  0
ARC
  5
D0D
102
{ACAD_REACTORS
330
D7D
102
}
330
1D
100
AcDbEntity
  8
23
  6
CONTINUOUS
 62
     7
100
AcDbCircle
 10
102.047556
 20
201.782444
 30
2.0
 40
10.786986
100
AcDbArc
 50
4.236396000000124
 51
51.5571249999996
  0
ARC
  5
D0E
102
{ACAD_REACTORS
330
D7D
102
}
330
1D
100
AcDbEntity
  8
23
  6
CONTINUOUS
 62
     7
100
AcDbCircle
 10
115.547556
 20
202.782444
 30
2.0
 40
2.75
100
AcDbArc
 50
184.2363919999989
 51
359.9999990000004
  0
LINE
  5
D0F
102
{ACAD_REACTORS
330
D7D
102
}
330
1D
100
AcDbEntity
  8
23
  6
CONTINUOUS
 62
     7
100
AcDbLine
 10
118.297556
 20
243.306321
 30
2.0
 11
118.297556
 21
202.782444
 31
2.0
  0
LINE
  5
D10
102
{ACAD_REACTORS
330
D7D
102
}
330
1D
100
AcDbEntity
  8
23
  6
CONTINUOUS
 62
     7
100
AcDbLine
 10
96.38463100000001
 20
249.282444
 30
2.0
 11
107.710481
 21
249.282444
 31
2.0
  0
LINE
  5
D11
102
{ACAD_REACTORS
330
D7D
102
}
330
1D
100
AcDbEntity
  8
23
  6
CONTINUOUS
 62
     7
100
AcDbLine
 10
85.79755600000004
 20
229.782444
 30
2.0
 11
85.79755600000004
 21
243.306321
 31
2.0
  0
ARC
  5
D12
102
{ACAD_REACTORS
330
D7C
102
}
330
1D
100
AcDbEntity
  8
23
  6
CONTINUOUS
 62
     7
100
AcDbCircle
 10
96.38463100000001
 20
176.1
 30
2.0
 40
4.0
100
AcDbArc
 50
253.3007559999999
 51
270.0
  0
ARC
  5
D13
102
{ACAD_REACTORS
330
D7C
102
}
330
1D
100
AcDbEntity
  8
23
  6
CONTINUOUS
 62
     7
100
AcDbCircle
 10
107.710481
 20
176.1
 30
2.0
 40
4.0
100
AcDbArc
 50
270.0
 51
286.6992440000001
  0
ARC
  5
D14
102
{ACAD_REACTORS
330
D7C
102
}
330
1D
100
AcDbEntity
  8
23
  6
CONTINUOUS
 62
     7
100
AcDbCircle
 10
114.297556
 20
178.076123
 30
2.0
 40
4.0
100
AcDbArc
 50
286.6992440000001
 51
0.0
  0
ARC
  5
D15
102
{ACAD_REACTORS
330
D7C
102
}
330
1D
100
AcDbEntity
  8
23
  6
CONTINUOUS
 62
     7
100
AcDbCircle
 10
89.79755600000004
 20
178.076123
 30
2.0
 40
4.0
100
AcDbArc
 50
180.0
 51
253.3007559999999
  0
ARC
  5
D16
102
{ACAD_REACTORS
330
D7C
102
}
330
1D
100
AcDbEntity
  8
23
  6
CONTINUOUS
 62
     7
100
AcDbCircle
 10
95.29755600000004
 20
187.1
 30
2.0
 40
4.0
100
AcDbArc
 50
180.0
 51
270.0
  0
ARC
  5
D17
102
{ACAD_REACTORS
330
D7C
102
}
330
1D
100
AcDbEntity
  8
23
  6
CONTINUOUS
 62
     7
100
AcDbCircle
 10
108.797556
 20
188.978421
 30
2.0
 40
4.0
100
AcDbArc
 50
0.0
 51
51.55712500000002
  0
ARC
  5
D18
102
{ACAD_REACTORS
330
D7C
102
}
330
1D
100
AcDbEntity
  8
23
  6
CONTINUOUS
 62
     7
100
AcDbCircle
 10
108.797556
 20
187.1
 30
2.0
 40
4.0
100
AcDbArc
 50
270.0
 51
0.0
  0
ARC
  5
D19
102
{ACAD_REACTORS
330
D7C
102
}
330
1D
100
AcDbEntity
  8
23
  6
CONTINUOUS
 62
     7
100
AcDbCircle
 10
95.29755600000004
 20
199.694847
 30
2.0
 40
4.0
100
AcDbArc
 50
51.55712499999945
 51
180.0
  0
LINE
  5
D1A
102
{ACAD_REACTORS
330
D7C
102
}
330
1D
100
AcDbEntity
  8
23
  6
CONTINUOUS
 62
     7
100
AcDbLine
 10
95.23524000000003
 20
172.268695
 30
2.0
 11
88.64816400000001
 21
174.244817
 31
2.0
  0
LINE
  5
D1B
102
{ACAD_REACTORS
330
D7C
102
}
330
1D
100
AcDbEntity
  8
23
  6
CONTINUOUS
 62
     7
100
AcDbLine
 10
115.446948
 20
174.244817
 30
2.0
 11
108.859872
 21
172.268695
 31
2.0
  0
LINE
  5
D1C
102
{ACAD_REACTORS
330
D7C
102
}
330
1D
100
AcDbEntity
  8
23
  6
CONTINUOUS
 62
     7
100
AcDbLine
 10
95.29755600000004
 20
183.1
 30
2.0
 11
108.797556
 21
183.1
 31
2.0
  0
LINE
  5
D1D
102
{ACAD_REACTORS
330
D7C
102
}
330
1D
100
AcDbEntity
  8
23
  6
CONTINUOUS
 62
     7
100
AcDbLine
 10
111.284492
 20
192.111335
 30
2.0
 11
97.784492
 21
202.827761
 31
2.0
  0
LINE
  5
D1E
102
{ACAD_REACTORS
330
D7C
102
}
330
1D
100
AcDbEntity
  8
23
  6
CONTINUOUS
 62
     7
100
AcDbLine
 10
112.797556
 20
187.1
 30
2.0
 11
112.797556
 21
188.978421
 31
2.0
  0
LINE
  5
D1F
102
{ACAD_REACTORS
330
D7C
102
}
330
1D
100
AcDbEntity
  8
23
  6
CONTINUOUS
 62
     7
100
AcDbLine
 10
91.29755600000004
 20
199.694847
 30
2.0
 11
91.29755600000004
 21
187.1
 31
2.0
  0
ARC
  5
D20
102
{ACAD_REACTORS
330
D7C
102
}
330
1D
100
AcDbEntity
  8
23
  6
CONTINUOUS
 62
     7
100
AcDbCircle
 10
107.297556
 20
180.15
 30
2.0
 40
1.05
100
AcDbArc
 50
0.0
 51
180.0
  0
LINE
  5
D21
102
{ACAD_REACTORS
330
D7C
102
}
330
1D
100
AcDbEntity
  8
23
  6
CONTINUOUS
 62
     7
100
AcDbLine
 10
106.247556
 20
180.15
 30
2.0
 11
97.847556
 21
180.15
 31
2.0
  0
ARC
  5
D22
102
{ACAD_REACTORS
330
D7C
102
}
330
1D
100
AcDbEntity
  8
23
  6
CONTINUOUS
 62
     7
100
AcDbCircle
 10
96.79755600000004
 20
180.15
 30
2.0
 40
1.05
100
AcDbArc
 50
0.0
 51
180.0
  0
LINE
  5
D23
102
{ACAD_REACTORS
330
D7C
102
}
330
1D
100
AcDbEntity
  8
23
  6
CONTINUOUS
 62
     7
100
AcDbLine
 10
95.74755599999997
 20
180.15
 30
2.0
 11
95.74755599999997
 21
175.05
 31
2.0
  0
ARC
  5
D24
102
{ACAD_REACTORS
330
D7C
102
}
330
1D
100
AcDbEntity
  8
23
  6
CONTINUOUS
 62
     7
100
AcDbCircle
 10
96.79755600000004
 20
175.05
 30
2.0
 40
1.05
100
AcDbArc
 50
180.0
 51
0.0
  0
LINE
  5
D25
102
{ACAD_REACTORS
330
D7C
102
}
330
1D
100
AcDbEntity
  8
23
  6
CONTINUOUS
 62
     7
100
AcDbLine
 10
97.847556
 20
175.05
 30
2.0
 11
106.247556
 21
175.05
 31
2.0
  0
ARC
  5
D26
102
{ACAD_REACTORS
330
D7C
102
}
330
1D
100
AcDbEntity
  8
23
  6
CONTINUOUS
 62
     7
100
AcDbCircle
 10
107.297556
 20
175.05
 30
2.0
 40
1.05
100
AcDbArc
 50
180.0
 51
0.0
  0
LINE
  5
D27
102
{ACAD_REACTORS
330
D7C
102
}
330
1D
100
AcDbEntity
  8
23
  6
CONTINUOUS
 62
     7
100
AcDbLine
 10
108.347556
 20
175.05
 30
2.0
 11
108.347556
 21
180.15
 31
2.0
  0
CIRCLE
  5
D28
102
{ACAD_REACTORS
330
D7C
102
}
330
1D
100
AcDbEntity
  8
23
  6
CONTINUOUS
 62
     7
100
AcDbCircle
 10
88.54755600000004
 20
191.6
 30
2.0
 40
1.35
  0
CIRCLE
  5
D29
102
{ACAD_REACTORS
330
D7C
102
}
330
1D
100
AcDbEntity
  8
23
  6
CONTINUOUS
 62
     7
100
AcDbCircle
 10
115.547556
 20
191.6
 30
2.0
 40
1.35
  0
CIRCLE
  5
D2A
102
{ACAD_REACTORS
330
D7C
102
}
330
1D
100
AcDbEntity
  8
23
  6
CONTINUOUS
 62
     7
100
AcDbCircle
 10
88.54755600000004
 20
218.6
 30
2.0
 40
1.35
  0
CIRCLE
  5
D2B
102
{ACAD_REACTORS
330
D7C
102
}
330
1D
100
AcDbEntity
  8
23
  6
CONTINUOUS
 62
     7
100
AcDbCircle
 10
90.79755600000004
 20
177.6
 30
2.0
 40
1.55
  0
CIRCLE
  5
D2C
102
{ACAD_REACTORS
330
D7C
102
}
330
1D
100
AcDbEntity
  8
23
  6
CONTINUOUS
 62
     7
100
AcDbCircle
 10
113.297556
 20
177.6
 30
2.0
 40
1.55
  0
ARC
  5
D2D
102
{ACAD_REACTORS
330
D7C
102
}
330
1D
100
AcDbEntity
  8
23
  6
CONTINUOUS
 62
     7
100
AcDbCircle
 10
115.547556
 20
191.6
 30
2.0
 40
2.75
100
AcDbArc
 50
359.9999990000004
 51
51.55712299999966
  0
LINE
  5
D2E
102
{ACAD_REACTORS
330
D7C
102
}
330
1D
100
AcDbEntity
  8
23
  6
CONTINUOUS
 62
     7
100
AcDbLine
 10
95.34091900000004
 20
211.151326
 30
2.0
 11
117.257325
 21
193.753878
 31
2.0
  0
ARC
  5
D2F
102
{ACAD_REACTORS
330
D7C
102
}
330
1D
100
AcDbEntity
  8
23
  6
CONTINUOUS
 62
     7
100
AcDbCircle
 10
102.047556
 20
219.6
 30
2.0
 40
10.786986
100
AcDbArc
 50
184.2363960000001
 51
231.557125
  0
ARC
  5
D30
102
{ACAD_REACTORS
330
D7C
102
}
330
1D
100
AcDbEntity
  8
23
  6
CONTINUOUS
 62
     7
100
AcDbCircle
 10
88.54755600000004
 20
218.6
 30
2.0
 40
2.75
100
AcDbArc
 50
4.236392000000082
 51
179.9999990000004
  0
LINE
  5
D31
102
{ACAD_REACTORS
330
D7C
102
}
330
1D
100
AcDbEntity
  8
23
  6
CONTINUOUS
 62
     7
100
AcDbLine
 10
85.79755600000004
 20
178.076123
 30
2.0
 11
85.79755600000004
 21
218.6
 31
2.0
  0
LINE
  5
D32
102
{ACAD_REACTORS
330
D7C
102
}
330
1D
100
AcDbEntity
  8
23
  6
CONTINUOUS
 62
     7
100
AcDbLine
 10
107.710481
 20
172.1
 30
2.0
 11
96.38463100000001
 21
172.1
 31
2.0
  0
LINE
  5
D33
102
{ACAD_REACTORS
330
D7C
102
}
330
1D
100
AcDbEntity
  8
23
  6
CONTINUOUS
 62
     7
100
AcDbLine
 10
118.297556
 20
191.6
 30
2.0
 11
118.297556
 21
178.076123
 31
2.0
  0
ARC
  5
D34
102
{ACAD_REACTORS
330
D7F
102
}
330
1D
100
AcDbEntity
  8
23
  6
CONTINUOUS
 62
     7
100
AcDbCircle
 10
73.110481
 20
245.282444
 30
2.0
 40
4.0
100
AcDbArc
 50
73.30075599999986
 51
90.0
  0
ARC
  5
D35
102
{ACAD_REACTORS
330
D7F
102
}
330
1D
100
AcDbEntity
  8
23
  6
CONTINUOUS
 62
     7
100
AcDbCircle
 10
61.78463099999999
 20
245.282444
 30
2.0
 40
4.0
100
AcDbArc
 50
90.0
 51
106.6992440000001
  0
ARC
  5
D36
102
{ACAD_REACTORS
330
D7F
102
}
330
1D
100
AcDbEntity
  8
23
  6
CONTINUOUS
 62
     7
100
AcDbCircle
 10
55.19755600000002
 20
243.306321
 30
2.0
 40
4.0
100
AcDbArc
 50
106.6992439999993
 51
180.0
  0
ARC
  5
D37
102
{ACAD_REACTORS
330
D7F
102
}
330
1D
100
AcDbEntity
  8
23
  6
CONTINUOUS
 62
     7
100
AcDbCircle
 10
79.69755599999996
 20
243.306321
 30
2.0
 40
4.0
100
AcDbArc
 50
0.0
 51
73.30075599999986
  0
ARC
  5
D38
102
{ACAD_REACTORS
330
D7F
102
}
330
1D
100
AcDbEntity
  8
23
  6
CONTINUOUS
 62
     7
100
AcDbCircle
 10
74.19755600000002
 20
234.282444
 30
2.0
 40
4.0
100
AcDbArc
 50
0.0
 51
90.0
  0
ARC
  5
D39
102
{ACAD_REACTORS
330
D7F
102
}
330
1D
100
AcDbEntity
  8
23
  6
CONTINUOUS
 62
     7
100
AcDbCircle
 10
60.69755600000002
 20
232.404023
 30
2.0
 40
4.0
100
AcDbArc
 50
180.0
 51
231.5571249999988
  0
ARC
  5
D3A
102
{ACAD_REACTORS
330
D7F
102
}
330
1D
100
AcDbEntity
  8
23
  6
CONTINUOUS
 62
     7
100
AcDbCircle
 10
60.69755600000002
 20
234.282444
 30
2.0
 40
4.0
100
AcDbArc
 50
90.0
 51
180.0
  0
ARC
  5
D3B
102
{ACAD_REACTORS
330
D7F
102
}
330
1D
100
AcDbEntity
  8
23
  6
CONTINUOUS
 62
     7
100
AcDbCircle
 10
74.19755600000002
 20
221.687597
 30
2.0
 40
4.0
100
AcDbArc
 50
231.5571250000004
 51
0.0
  0
LINE
  5
D3C
102
{ACAD_REACTORS
330
D7F
102
}
330
1D
100
AcDbEntity
  8
23
  6
CONTINUOUS
 62
     7
100
AcDbLine
 10
74.25987199999997
 20
249.113749
 30
2.0
 11
80.846948
 21
247.137627
 31
2.0
  0
LINE
  5
D3D
102
{ACAD_REACTORS
330
D7F
102
}
330
1D
100
AcDbEntity
  8
23
  6
CONTINUOUS
 62
     7
100
AcDbLine
 10
54.04816399999999
 20
247.137627
 30
2.0
 11
60.63524000000001
 21
249.113749
 31
2.0
  0
LINE
  5
D3E
102
{ACAD_REACTORS
330
D7F
102
}
330
1D
100
AcDbEntity
  8
23
  6
CONTINUOUS
 62
     7
100
AcDbLine
 10
74.19755600000002
 20
238.282444
 30
2.0
 11
60.69755600000002
 21
238.282444
 31
2.0
  0
LINE
  5
D3F
102
{ACAD_REACTORS
330
D7F
102
}
330
1D
100
AcDbEntity
  8
23
  6
CONTINUOUS
 62
     7
100
AcDbLine
 10
58.21062000000001
 20
229.271109
 30
2.0
 11
71.71062
 21
218.554683
 31
2.0
  0
LINE
  5
D40
102
{ACAD_REACTORS
330
D7F
102
}
330
1D
100
AcDbEntity
  8
23
  6
CONTINUOUS
 62
     7
100
AcDbLine
 10
56.69755600000002
 20
234.282444
 30
2.0
 11
56.69755600000002
 21
232.404023
 31
2.0
  0
LINE
  5
D41
102
{ACAD_REACTORS
330
D7F
102
}
330
1D
100
AcDbEntity
  8
23
  6
CONTINUOUS
 62
     7
100
AcDbLine
 10
78.19755599999996
 20
221.687597
 30
2.0
 11
78.19755599999996
 21
234.282444
 31
2.0
  0
ARC
  5
D42
102
{ACAD_REACTORS
330
D7F
102
}
330
1D
100
AcDbEntity
  8
23
  6
CONTINUOUS
 62
     7
100
AcDbCircle
 10
62.19755600000002
 20
241.232444
 30
2.0
 40
1.05
100
AcDbArc
 50
180.0
 51
0.0
  0
LINE
  5
D43
102
{ACAD_REACTORS
330
D7F
102
}
330
1D
100
AcDbEntity
  8
23
  6
CONTINUOUS
 62
     7
100
AcDbLine
 10
63.24755599999997
 20
241.232444
 30
2.0
 11
71.64755599999995
 21
241.232444
 31
2.0
  0
ARC
  5
D44
102
{ACAD_REACTORS
330
D7F
102
}
330
1D
100
AcDbEntity
  8
23
  6
CONTINUOUS
 62
     7
100
AcDbCircle
 10
72.69755600000002
 20
241.232444
 30
2.0
 40
1.05
100
AcDbArc
 50
180.0
 51
0.0
  0
LINE
  5
D45
102
{ACAD_REACTORS
330
D7F
102
}
330
1D
100
AcDbEntity
  8
23
  6
CONTINUOUS
 62
     7
100
AcDbLine
 10
73.74755599999997
 20
241.232444
 30
2.0
 11
73.74755599999997
 21
246.332444
 31
2.0
  0
ARC
  5
D46
102
{ACAD_REACTORS
330
D7F
102
}
330
1D
100
AcDbEntity
  8
23
  6
CONTINUOUS
 62
     7
100
AcDbCircle
 10
72.69755600000002
 20
246.332444
 30
2.0
 40
1.05
100
AcDbArc
 50
0.0
 51
180.0
  0
LINE
  5
D47
102
{ACAD_REACTORS
330
D7F
102
}
330
1D
100
AcDbEntity
  8
23
  6
CONTINUOUS
 62
     7
100
AcDbLine
 10
71.64755599999995
 20
246.332444
 30
2.0
 11
63.24755599999997
 21
246.332444
 31
2.0
  0
ARC
  5
D48
102
{ACAD_REACTORS
330
D7F
102
}
330
1D
100
AcDbEntity
  8
23
  6
CONTINUOUS
 62
     7
100
AcDbCircle
 10
62.19755600000002
 20
246.332444
 30
2.0
 40
1.05
100
AcDbArc
 50
0.0
 51
180.0
  0
LINE
  5
D49
102
{ACAD_REACTORS
330
D7F
102
}
330
1D
100
AcDbEntity
  8
23
  6
CONTINUOUS
 62
     7
100
AcDbLine
 10
61.14755599999995
 20
246.332444
 30
2.0
 11
61.14755599999995
 21
241.232444
 31
2.0
  0
CIRCLE
  5
D4A
102
{ACAD_REACTORS
330
D7F
102
}
330
1D
100
AcDbEntity
  8
23
  6
CONTINUOUS
 62
     7
100
AcDbCircle
 10
80.94755599999996
 20
229.782444
 30
2.0
 40
1.35
  0
CIRCLE
  5
D4B
102
{ACAD_REACTORS
330
D7F
102
}
330
1D
100
AcDbEntity
  8
23
  6
CONTINUOUS
 62
     7
100
AcDbCircle
 10
53.94755600000002
 20
229.782444
 30
2.0
 40
1.35
  0
CIRCLE
  5
D4C
102
{ACAD_REACTORS
330
D7F
102
}
330
1D
100
AcDbEntity
  8
23
  6
CONTINUOUS
 62
     7
100
AcDbCircle
 10
80.94755599999996
 20
202.782444
 30
2.0
 40
1.35
  0
CIRCLE
  5
D4D
102
{ACAD_REACTORS
330
D7F
102
}
330
1D
100
AcDbEntity
  8
23
  6
CONTINUOUS
 62
     7
100
AcDbCircle
 10
78.69755599999996
 20
243.782444
 30
2.0
 40
1.55
  0
CIRCLE
  5
D4E
102
{ACAD_REACTORS
330
D7F
102
}
330
1D
100
AcDbEntity
  8
23
  6
CONTINUOUS
 62
     7
100
AcDbCircle
 10
56.19755600000002
 20
243.782444
 30
2.0
 40
1.55
  0
ARC
  5
D4F
102
{ACAD_REACTORS
330
D7F
102
}
330
1D
100
AcDbEntity
  8
23
  6
CONTINUOUS
 62
     7
100
AcDbCircle
 10
53.94755600000002
 20
229.782444
 30
2.0
 40
2.75
100
AcDbArc
 50
179.9999990000004
 51
231.5571230000013
  0
LINE
  5
D50
102
{ACAD_REACTORS
330
D7F
102
}
330
1D
100
AcDbEntity
  8
23
  6
CONTINUOUS
 62
     7
100
AcDbLine
 10
74.15419300000002
 20
210.231118
 30
2.0
 11
52.23778699999997
 21
227.628566
 31
2.0
  0
ARC
  5
D51
102
{ACAD_REACTORS
330
D7F
102
}
330
1D
100
AcDbEntity
  8
23
  6
CONTINUOUS
 62
     7
100
AcDbCircle
 10
67.44755600000002
 20
201.782444
 30
2.0
 40
10.786986
100
AcDbArc
 50
4.236396000000124
 51
51.5571249999996
  0
ARC
  5
D52
102
{ACAD_REACTORS
330
D7F
102
}
330
1D
100
AcDbEntity
  8
23
  6
CONTINUOUS
 62
     7
100
AcDbCircle
 10
80.94755599999996
 20
202.782444
 30
2.0
 40
2.75
100
AcDbArc
 50
184.2363920000001
 51
359.9999990000004
  0
LINE
  5
D53
102
{ACAD_REACTORS
330
D7F
102
}
330
1D
100
AcDbEntity
  8
23
  6
CONTINUOUS
 62
     7
100
AcDbLine
 10
83.69755599999996
 20
243.306321
 30
2.0
 11
83.69755599999996
 21
202.782444
 31
2.0
  0
LINE
  5
D54
102
{ACAD_REACTORS
330
D7F
102
}
330
1D
100
AcDbEntity
  8
23
  6
CONTINUOUS
 62
     7
100
AcDbLine
 10
61.78463099999999
 20
249.282444
 30
2.0
 11
73.110481
 21
249.282444
 31
2.0
  0
LINE
  5
D55
102
{ACAD_REACTORS
330
D7F
102
}
330
1D
100
AcDbEntity
  8
23
  6
CONTINUOUS
 62
     7
100
AcDbLine
 10
51.19755600000002
 20
229.782444
 30
2.0
 11
51.19755600000002
 21
243.306321
 31
2.0
  0
ARC
  5
D56
102
{ACAD_REACTORS
330
D7E
102
}
330
1D
100
AcDbEntity
  8
23
  6
CONTINUOUS
 62
     7
100
AcDbCircle
 10
61.78463099999999
 20
176.1
 30
2.0
 40
4.0
100
AcDbArc
 50
253.3007559999999
 51
270.0
  0
ARC
  5
D57
102
{ACAD_REACTORS
330
D7E
102
}
330
1D
100
AcDbEntity
  8
23
  6
CONTINUOUS
 62
     7
100
AcDbCircle
 10
73.110481
 20
176.1
 30
2.0
 40
4.0
100
AcDbArc
 50
270.0
 51
286.6992440000001
  0
ARC
  5
D58
102
{ACAD_REACTORS
330
D7E
102
}
330
1D
100
AcDbEntity
  8
23
  6
CONTINUOUS
 62
     7
100
AcDbCircle
 10
79.69755599999996
 20
178.076123
 30
2.0
 40
4.0
100
AcDbArc
 50
286.6992440000001
 51
0.0
  0
ARC
  5
D59
102
{ACAD_REACTORS
330
D7E
102
}
330
1D
100
AcDbEntity
  8
23
  6
CONTINUOUS
 62
     7
100
AcDbCircle
 10
55.19755600000002
 20
178.076123
 30
2.0
 40
4.0
100
AcDbArc
 50
180.0
 51
253.3007559999998
  0
ARC
  5
D5A
102
{ACAD_REACTORS
330
D7E
102
}
330
1D
100
AcDbEntity
  8
23
  6
CONTINUOUS
 62
     7
100
AcDbCircle
 10
60.69755600000002
 20
187.1
 30
2.0
 40
4.0
100
AcDbArc
 50
180.0
 51
270.0
  0
ARC
  5
D5B
102
{ACAD_REACTORS
330
D7E
102
}
330
1D
100
AcDbEntity
  8
23
  6
CONTINUOUS
 62
     7
100
AcDbCircle
 10
74.19755600000002
 20
188.978421
 30
2.0
 40
4.0
100
AcDbArc
 50
0.0
 51
51.55712500000002
  0
ARC
  5
D5C
102
{ACAD_REACTORS
330
D7E
102
}
330
1D
100
AcDbEntity
  8
23
  6
CONTINUOUS
 62
     7
100
AcDbCircle
 10
74.19755600000002
 20
187.1
 30
2.0
 40
4.0
100
AcDbArc
 50
270.0
 51
0.0
  0
ARC
  5
D5D
102
{ACAD_REACTORS
330
D7E
102
}
330
1D
100
AcDbEntity
  8
23
  6
CONTINUOUS
 62
     7
100
AcDbCircle
 10
60.69755600000002
 20
199.694847
 30
2.0
 40
4.0
100
AcDbArc
 50
51.55712499999888
 51
180.0
  0
LINE
  5
D5E
102
{ACAD_REACTORS
330
D7E
102
}
330
1D
100
AcDbEntity
  8
23
  6
CONTINUOUS
 62
     7
100
AcDbLine
 10
60.63524000000001
 20
172.268695
 30
2.0
 11
54.04816399999999
 21
174.244817
 31
2.0
  0
LINE
  5
D5F
102
{ACAD_REACTORS
330
D7E
102
}
330
1D
100
AcDbEntity
  8
23
  6
CONTINUOUS
 62
     7
100
AcDbLine
 10
80.846948
 20
174.244817
 30
2.0
 11
74.25987199999997
 21
172.268695
 31
2.0
  0
LINE
  5
D60
102
{ACAD_REACTORS
330
D7E
102
}
330
1D
100
AcDbEntity
  8
23
  6
CONTINUOUS
 62
     7
100
AcDbLine
 10
60.69755600000002
 20
183.1
 30
2.0
 11
74.19755600000002
 21
183.1
 31
2.0
  0
LINE
  5
D61
102
{ACAD_REACTORS
330
D7E
102
}
330
1D
100
AcDbEntity
  8
23
  6
CONTINUOUS
 62
     7
100
AcDbLine
 10
76.68449199999998
 20
192.111335
 30
2.0
 11
63.18449199999998
 21
202.827761
 31
2.0
  0
LINE
  5
D62
102
{ACAD_REACTORS
330
D7E
102
}
330
1D
100
AcDbEntity
  8
23
  6
CONTINUOUS
 62
     7
100
AcDbLine
 10
78.19755599999996
 20
187.1
 30
2.0
 11
78.19755599999996
 21
188.978421
 31
2.0
  0
LINE
  5
D63
102
{ACAD_REACTORS
330
D7E
102
}
330
1D
100
AcDbEntity
  8
23
  6
CONTINUOUS
 62
     7
100
AcDbLine
 10
56.69755600000002
 20
199.694847
 30
2.0
 11
56.69755600000002
 21
187.1
 31
2.0
  0
ARC
  5
D64
102
{ACAD_REACTORS
330
D7E
102
}
330
1D
100
AcDbEntity
  8
23
  6
CONTINUOUS
 62
     7
100
AcDbCircle
 10
72.69755600000002
 20
180.15
 30
2.0
 40
1.05
100
AcDbArc
 50
0.0
 51
180.0
  0
LINE
  5
D65
102
{ACAD_REACTORS
330
D7E
102
}
330
1D
100
AcDbEntity
  8
23
  6
CONTINUOUS
 62
     7
100
AcDbLine
 10
71.64755599999995
 20
180.15
 30
2.0
 11
63.24755599999997
 21
180.15
 31
2.0
  0
ARC
  5
D66
102
{ACAD_REACTORS
330
D7E
102
}
330
1D
100
AcDbEntity
  8
23
  6
CONTINUOUS
 62
     7
100
AcDbCircle
 10
62.19755600000002
 20
180.15
 30
2.0
 40
1.05
100
AcDbArc
 50
0.0
 51
180.0
  0
LINE
  5
D67
102
{ACAD_REACTORS
330
D7E
102
}
330
1D
100
AcDbEntity
  8
23
  6
CONTINUOUS
 62
     7
100
AcDbLine
 10
61.14755599999995
 20
180.15
 30
2.0
 11
61.14755599999995
 21
175.05
 31
2.0
  0
ARC
  5
D68
102
{ACAD_REACTORS
330
D7E
102
}
330
1D
100
AcDbEntity
  8
23
  6
CONTINUOUS
 62
     7
100
AcDbCircle
 10
62.19755600000002
 20
175.05
 30
2.0
 40
1.05
100
AcDbArc
 50
180.0
 51
0.0
  0
LINE
  5
D69
102
{ACAD_REACTORS
330
D7E
102
}
330
1D
100
AcDbEntity
  8
23
  6
CONTINUOUS
 62
     7
100
AcDbLine
 10
63.24755599999997
 20
175.05
 30
2.0
 11
71.64755599999995
 21
175.05
 31
2.0
  0
ARC
  5
D6A
102
{ACAD_REACTORS
330
D7E
102
}
330
1D
100
AcDbEntity
  8
23
  6
CONTINUOUS
 62
     7
100
AcDbCircle
 10
72.69755600000002
 20
175.05
 30
2.0
 40
1.05
100
AcDbArc
 50
180.0
 51
0.0
  0
LINE
  5
D6B
102
{ACAD_REACTORS
330
D7E
102
}
330
1D
100
AcDbEntity
  8
23
  6
CONTINUOUS
 62
     7
100
AcDbLine
 10
73.74755599999997
 20
175.05
 30
2.0
 11
73.74755599999997
 21
180.15
 31
2.0
  0
CIRCLE
  5
D6C
102
{ACAD_REACTORS
330
D7E
102
}
330
1D
100
AcDbEntity
  8
23
  6
CONTINUOUS
 62
     7
100
AcDbCircle
 10
53.94755600000002
 20
191.6
 30
2.0
 40
1.35
  0
CIRCLE
  5
D6D
102
{ACAD_REACTORS
330
D7E
102
}
330
1D
100
AcDbEntity
  8
23
  6
CONTINUOUS
 62
     7
100
AcDbCircle
 10
80.94755599999996
 20
191.6
 30
2.0
 40
1.35
  0
CIRCLE
  5
D6E
102
{ACAD_REACTORS
330
D7E
102
}
330
1D
100
AcDbEntity
  8
23
  6
CONTINUOUS
 62
     7
100
AcDbCircle
 10
53.94755600000002
 20
218.6
 30
2.0
 40
1.35
  0
CIRCLE
  5
D6F
102
{ACAD_REACTORS
330
D7E
102
}
330
1D
100
AcDbEntity
  8
23
  6
CONTINUOUS
 62
     7
100
AcDbCircle
 10
56.19755600000002
 20
177.6
 30
2.0
 40
1.55
  0
CIRCLE
  5
D70
102
{ACAD_REACTORS
330
D7E
102
}
330
1D
100
AcDbEntity
  8
23
  6
CONTINUOUS
 62
     7
100
AcDbCircle
 10
78.69755599999996
 20
177.6
 30
2.0
 40
1.55
  0
ARC
  5
D71
102
{ACAD_REACTORS
330
D7E
102
}
330
1D
100
AcDbEntity
  8
23
  6
CONTINUOUS
 62
     7
100
AcDbCircle
 10
80.94755599999996
 20
191.6
 30
2.0
 40
2.75
100
AcDbArc
 50
359.9999990000004
 51
51.55712299999966
  0
LINE
  5
D72
102
{ACAD_REACTORS
330
D7E
102
}
330
1D
100
AcDbEntity
  8
23
  6
CONTINUOUS
 62
     7
100
AcDbLine
 10
60.74091900000002
 20
211.151326
 30
2.0
 11
82.65732500000001
 21
193.753878
 31
2.0
  0
ARC
  5
D73
102
{ACAD_REACTORS
330
D7E
102
}
330
1D
100
AcDbEntity
  8
23
  6
CONTINUOUS
 62
     7
100
AcDbCircle
 10
67.44755600000002
 20
219.6
 30
2.0
 40
10.786986
100
AcDbArc
 50
184.2363960000001
 51
231.5571249999995
  0
ARC
  5
D74
102
{ACAD_REACTORS
330
D7E
102
}
330
1D
100
AcDbEntity
  8
23
  6
CONTINUOUS
 62
     7
100
AcDbCircle
 10
53.94755600000002
 20
218.6
 30
2.0
 40
2.75
100
AcDbArc
 50
4.236392000000082
 51
179.9999990000004
  0
LINE
  5
D75
102
{ACAD_REACTORS
330
D7E
102
}
330
1D
100
AcDbEntity
  8
23
  6
CONTINUOUS
 62
     7
100
AcDbLine
 10
51.19755600000002
 20
178.076123
 30
2.0
 11
51.19755600000002
 21
218.6
 31
2.0
  0
LINE
  5
D76
102
{ACAD_REACTORS
330
D7E
102
}
330
1D
100
AcDbEntity
  8
23
  6
CONTINUOUS
 62
     7
100
AcDbLine
 10
73.110481
 20
172.1
 30
2.0
 11
61.78463099999999
 21
172.1
 31
2.0
  0
LINE
  5
D77
102
{ACAD_REACTORS
330
D7E
102
}
330
1D
100
AcDbEntity
  8
23
  6
CONTINUOUS
 62
     7
100
AcDbLine
 10
83.69755599999996
 20
191.6
 30
2.0
 11
83.69755599999996
 21
178.076123
 31
2.0
  0
VIEWPORT
  5
E49
330
1B
100
AcDbEntity
 67
     1
  8
0
100
AcDbViewport
 10
5.25
 20
3.5
 30
0.0
 40
11.55
 41
8.925
 68
     1
 69
     1
1001
ACAD
1000
MVIEW
1002
{
1070
    16
1010
0.0
1020
0.0
1030
0.0
1010
0.0
1020
0.0
1030
1.0
1040
0.0
1040
8.925
1040
5.25
1040
3.5
1040
50.0
1040
0.0
1040
0.0
1070
     0
1070
   100
1070
     0
1070
     3
1070
     0
1070
     0
1070
     0
1070
     0
1040
0.0
1040
0.0
1040
0.0
1040
0.5
1040
0.5
1040
0.0
1040
0.0
1070
     0
1002
{
1002
}
1002
}
  0
VIEWPORT
  5
E4A
102
{ACAD_XDICTIONARY
360
E4B
102
}
330
1B
100
AcDbEntity
 67
     1
  8
0
100
AcDbViewport
 10
5.25
 20
3.5
 30
0.0
 40
8.4
 41
5.600000000000001
 68
     2
 69
     2
1001
ACAD
1000
MVIEW
1002
{
1070
    16
1010
0.0
1020
0.0
1030
0.0
1010
0.0
1020
0.0
1030
1.0
1040
0.0
1040
362.08806192
1040
266.241222
1040
149.9999999999999
1040
50.0
1040
0.0
1040
0.0
1070
     0
1070
   100
1070
     0
1070
     3
1070
     0
1070
     0
1070
     0
1070
     0
1040
0.0
1040
0.0
1040
0.0
1040
0.5
1040
0.5
1040
0.0
1040
0.0
1070
     0
1002
{
1002
}
1002
}
  0
ENDSEC
  0
SECTION
  2
OBJECTS
  0
DICTIONARY
  5
C
330
0
100
AcDbDictionary
  3
ACAD_DETAILVIEWSTYLE
350
166
  3
ACAD_GROUP
350
D
  3
ACAD_MLINESTYLE
350
17
  3
ACAD_SCALELIST
350
119
  3
ACAD_SECTIONVIEWSTYLE
350
167
  3
ACDBVARIABLEDICTIONARY
350
161
  3
APPDATA
350
160
  3
DWGPROPS
350
E5E
  0
DICTIONARY
  5
E4B
330
E4A
100
AcDbDictionary
280
     1
  3
ASDK_XREC_ANNOTATION_SCALE_INFO
360
E4C
  0
DICTIONARY
  5
166
102
{ACAD_REACTORS
330
C
102
}
330
C
100
AcDbDictionary
  0
DICTIONARY
  5
D
102
{ACAD_REACTORS
330
C
102
}
330
C
100
AcDbDictionary
  3
*A1
350
612
  3
*A10
350
D7B
  3
*A11
350
D7C
  3
*A12
350
D7D
  3
*A13
350
D7E
  3
*A14
350
D7F
  3
*A2
350
613
  3
*A3
350
614
  3
*A4
350
ADF
  3
*A5
350
B14
  3
*A6
350
C67
  3
*A7
350
D78
  3
*A8
350
D79
  3
*A9
350
D7A
  0
DICTIONARY
  5
17
102
{ACAD_REACTORS
330
C
102
}
330
C
100
AcDbDictionary
  3
STANDARD
350
18
  0
DICTIONARY
  5
119
102
{ACAD_REACTORS
330
C
102
}
330
C
100
AcDbDictionary
  0
DICTIONARY
  5
167
102
{ACAD_REACTORS
330
C
102
}
330
C
100
AcDbDictionary
  0
DICTIONARY
  5
161
102
{ACAD_REACTORS
330
C
102
}
330
C
100
AcDbDictionary
  0
DICTIONARY
  5
160
102
{ACAD_REACTORS
330
C
102
}
330
C
100
AcDbDictionary
  0
XRECORD
  5
E5E
102
{ACAD_REACTORS
330
C
102
}
330
C
100
AcDbXrecord
  1
DWGPROPS COOKIE
  2

  3

  4

  6

  7

  8
haya
  9

300
=
301
=
302
=
303
=
304
=
305
=
306
=
307
=
308
=
309
=
 40
0.0
 41
2447892.625
 42
2458246.151229734
  1

 90
        0
  0
XRECORD
  5
E4C
102
{ACAD_REACTORS
330
E4B
102
}
330
E4B
100
AcDbXrecord
 90
        1
340
0
  0
GROUP
  5
612
102
{ACAD_REACTORS
330
D
102
}
330
D
100
AcDbGroup
300

 70
     1
 71
     1
340
5B3
340
5B4
340
5B5
340
5B6
340
5B7
340
5B8
340
5B9
340
5BA
340
5BB
340
5BC
340
5BD
340
5BE
340
5BF
340
5C0
340
5C1
340
5C2
340
5C3
340
5C4
340
5C5
340
5C6
340
5C7
340
5C8
340
5C9
  0
GROUP
  5
D7B
102
{ACAD_REACTORS
330
D
102
}
330
D
100
AcDbGroup
300

 70
     1
 71
     1
340
CAC
340
CAD
340
CAE
340
CAF
340
CB0
340
CB1
340
CB2
340
CB3
340
CB4
340
CB5
340
CB6
340
CB7
340
CB8
340
CB9
340
CBA
340
CBB
340
CBC
340
CBD
340
CBE
340
CBF
340
CC0
340
CC1
340
CC2
340
CC3
340
CC4
340
CC5
340
CC6
340
CC7
340
CC8
340
CC9
340
CCA
340
CCB
340
CCC
340
CCD
  0
GROUP
  5
D7C
102
{ACAD_REACTORS
330
D
102
}
330
D
100
AcDbGroup
300

 70
     1
 71
     1
340
D12
340
D13
340
D14
340
D15
340
D16
340
D17
340
D18
340
D19
340
D1A
340
D1B
340
D1C
340
D1D
340
D1E
340
D1F
340
D20
340
D21
340
D22
340
D23
340
D24
340
D25
340
D26
340
D27
340
D28
340
D29
340
D2A
340
D2B
340
D2C
340
D2D
340
D2E
340
D2F
340
D30
340
D31
340
D32
340
D33
  0
GROUP
  5
D7D
102
{ACAD_REACTORS
330
D
102
}
330
D
100
AcDbGroup
300

 70
     1
 71
     1
340
CF0
340
CF1
340
CF2
340
CF3
340
CF4
340
CF5
340
CF6
340
CF7
340
CF8
340
CF9
340
CFA
340
CFB
340
CFC
340
CFD
340
CFE
340
CFF
340
D00
340
D01
340
D02
340
D03
340
D04
340
D05
340
D06
340
D07
340
D08
340
D09
340
D0A
340
D0B
340
D0C
340
D0D
340
D0E
340
D0F
340
D10
340
D11
  0
GROUP
  5
D7E
102
{ACAD_REACTORS
330
D
102
}
330
D
100
AcDbGroup
300

 70
     1
 71
     1
340
D56
340
D57
340
D58
340
D59
340
D5A
340
D5B
340
D5C
340
D5D
340
D5E
340
D5F
340
D60
340
D61
340
D62
340
D63
340
D64
340
D65
340
D66
340
D67
340
D68
340
D69
340
D6A
340
D6B
340
D6C
340
D6D
340
D6E
340
D6F
340
D70
340
D71
340
D72
340
D73
340
D74
340
D75
340
D76
340
D77
  0
GROUP
  5
D7F
102
{ACAD_REACTORS
330
D
102
}
330
D
100
AcDbGroup
300

 70
     1
 71
     1
340
D34
340
D35
340
D36
340
D37
340
D38
340
D39
340
D3A
340
D3B
340
D3C
340
D3D
340
D3E
340
D3F
340
D40
340
D41
340
D42
340
D43
340
D44
340
D45
340
D46
340
D47
340
D48
340
D49
340
D4A
340
D4B
340
D4C
340
D4D
340
D4E
340
D4F
340
D50
340
D51
340
D52
340
D53
340
D54
340
D55
  0
GROUP
  5
613
102
{ACAD_REACTORS
330
D
102
}
330
D
100
AcDbGroup
300

 70
     1
 71
     1
340
5CA
340
5CB
340
5CC
340
5CD
340
5CE
340
5CF
340
5D0
340
5D1
340
5D2
340
5D3
340
5D4
340
5D5
340
5D6
340
5D7
340
5D8
340
5D9
340
5DA
340
5DB
340
5DC
340
5DD
340
5DE
340
5DF
340
5E0
  0
GROUP
  5
614
102
{ACAD_REACTORS
330
D
102
}
330
D
100
AcDbGroup
300

 70
     1
 71
     1
340
5F8
340
5F9
340
5FA
340
5FB
340
5FC
340
5FD
340
5FE
340
5FF
340
600
340
601
340
602
340
603
340
604
340
605
340
606
340
607
340
608
340
609
340
60A
340
60B
340
60C
340
60D
340
60E
  0
GROUP
  5
ADF
102
{ACAD_REACTORS
330
D
102
}
330
D
100
AcDbGroup
300

 70
     1
 71
     1
340
94C
340
94D
340
94E
340
94F
340
950
340
951
340
952
340
953
340
954
340
955
340
956
340
957
340
958
340
959
340
95A
340
95B
340
95C
340
95D
340
95E
340
95F
340
960
340
961
340
962
340
963
340
964
340
965
340
966
340
967
340
968
340
969
340
96A
340
96B
340
96C
340
96D
340
96E
340
96F
340
970
340
971
340
972
340
973
340
974
340
975
340
976
340
977
340
978
340
979
340
97A
340
97B
340
97C
340
97D
340
97E
340
97F
  0
GROUP
  5
B14
102
{ACAD_REACTORS
330
D
102
}
330
D
100
AcDbGroup
300

 70
     1
 71
     1
340
AE0
340
AE1
340
AE2
340
AE3
340
AE4
340
AE5
340
AE6
340
AE7
340
AE8
340
AE9
340
AEA
340
AEB
340
AEC
340
AED
340
AEE
340
AEF
340
AF0
340
AF1
340
AF2
340
AF3
340
AF4
340
AF5
340
AF6
340
AF7
340
AF8
340
AF9
340
AFA
340
AFB
340
AFC
340
AFD
340
AFE
340
AFF
340
B00
340
B01
340
B02
340
B03
340
B04
340
B05
340
B06
340
B07
340
B08
340
B09
340
B0A
340
B0B
340
B0C
340
B0D
340
B0E
340
B0F
340
B10
340
B11
340
B12
340
B13
  0
GROUP
  5
C67
102
{ACAD_REACTORS
330
D
102
}
330
D
100
AcDbGroup
300

 70
     1
 71
     1
340
C50
340
C51
340
C52
340
C53
340
C54
340
C55
340
C56
340
C57
340
C58
340
C59
340
C5A
340
C5B
340
C5C
340
C5D
340
C5E
340
C5F
340
C60
340
C61
340
C62
340
C63
340
C64
340
C65
340
C66
  0
GROUP
  5
D78
102
{ACAD_REACTORS
330
D
102
}
330
D
100
AcDbGroup
300

 70
     1
 71
     1
340
C8A
340
C8B
340
C8C
340
C8D
340
C8E
340
C8F
340
C90
340
C91
340
C92
340
C93
340
C94
340
C95
340
C96
340
C97
340
C98
340
C99
340
C9A
340
C9B
340
C9C
340
C9D
340
C9E
340
C9F
340
CA0
340
CA1
340
CA2
340
CA3
340
CA4
340
CA5
340
CA6
340
CA7
340
CA8
340
CA9
340
CAA
340
CAB
  0
GROUP
  5
D79
102
{ACAD_REACTORS
330
D
102
}
330
D
100
AcDbGroup
300

 70
     1
 71
     1
340
C68
340
C69
340
C6A
340
C6B
340
C6C
340
C6D
340
C6E
340
C6F
340
C70
340
C71
340
C72
340
C73
340
C74
340
C75
340
C76
340
C77
340
C78
340
C79
340
C7A
340
C7B
340
C7C
340
C7D
340
C7E
340
C7F
340
C80
340
C81
340
C82
340
C83
340
C84
340
C85
340
C86
340
C87
340
C88
340
C89
  0
GROUP
  5
D7A
102
{ACAD_REACTORS
330
D
102
}
330
D
100
AcDbGroup
300

 70
     1
 71
     1
340
CCE
340
CCF
340
CD0
340
CD1
340
CD2
340
CD3
340
CD4
340
CD5
340
CD6
340
CD7
340
CD8
340
CD9
340
CDA
340
CDB
340
CDC
340
CDD
340
CDE
340
CDF
340
CE0
340
CE1
340
CE2
340
CE3
340
CE4
340
CE5
340
CE6
340
CE7
340
CE8
340
CE9
340
CEA
340
CEB
340
CEC
340
CED
340
CEE
340
CEF
  0
MLINESTYLE
  5
18
102
{ACAD_REACTORS
330
17
102
}
330
17
100
AcDbMlineStyle
  2
Standard
 70
     0
  3

 62
   256
 51
90.0
 52
90.0
 71
     2
 49
0.5
 62
   256
  6
BYLAYER
 49
-0.5
 62
   256
  6
BYLAYER
  0
ENDSEC
  0
EOF
