  0
SECTION
  2
HEADER
  9
$ACADVER
  1
AC1015
  9
$ACADMAINTVER
 70
     6
  9
$DWGCODEPAGE
  3
ANSI_932
  9
$INSBASE
 10
0.0
 20
0.0
 30
0.0
  9
$EXTMIN
 10
0.0
 20
0.0
 30
0.0
  9
$EXTMAX
 10
200.0
 20
280.0
 30
0.0
  9
$LIMMIN
 10
0.0
 20
0.0
  9
$LIMMAX
 10
594.0
 20
420.0
  9
$ORTHOMODE
 70
     0
  9
$REGENMODE
 70
     1
  9
$FILLMODE
 70
     1
  9
$QTEXTMODE
 70
     0
  9
$MIRRTEXT
 70
     1
  9
$LTSCALE
 40
0.25
  9
$ATTMODE
 70
     1
  9
$TEXTSIZE
 40
0.2
  9
$TRACEWID
 40
0.05
  9
$TEXTSTYLE
  7
STANDARD
  9
$CLAYER
  8
0
  9
$CELTYPE
  6
ByLayer
  9
$CECOLOR
 62
   256
  9
$CELTSCALE
 40
1.0
  9
$DISPSILH
 70
     0
  9
$DIMSCALE
 40
1.0
  9
$DIMASZ
 40
1.0
  9
$DIMEXO
 40
0.0
  9
$DIMDLI
 40
0.5
  9
$DIMRND
 40
0.0
  9
$DIMDLE
 40
0.0
  9
$DIMEXE
 40
0.0
  9
$DIMTP
 40
0.0
  9
$DIMTM
 40
0.0
  9
$DIMTXT
 40
4.0
  9
$DIMCEN
 40
0.0
  9
$DIMTSZ
 40
0.0
  9
$DIMTOL
 70
     0
  9
$DIMLIM
 70
     0
  9
$DIMTIH
 70
     1
  9
$DIMTOH
 70
     1
  9
$DIMSE1
 70
     0
  9
$DIMSE2
 70
     0
  9
$DIMTAD
 70
     0
  9
$DIMZIN
 70
     0
  9
$DIMBLK
  1

  9
$DIMASO
 70
     0
  9
$DIMSHO
 70
     0
  9
$DIMPOST
  1

  9
$DIMAPOST
  1

  9
$DIMALT
 70
     0
  9
$DIMALTD
 70
     0
  9
$DIMALTF
 40
25.4
  9
$DIMLFAC
 40
1.0
  9
$DIMTOFL
 70
     0
  9
$DIMTVP
 40
0.0
  9
$DIMTIX
 70
     0
  9
$DIMSOXD
 70
     0
  9
$DIMSAH
 70
     0
  9
$DIMBLK1
  1

  9
$DIMBLK2
  1

  9
$DIMSTYLE
  2
Standard
  9
$DIMCLRD
 70
     0
  9
$DIMCLRE
 70
     0
  9
$DIMCLRT
 70
     0
  9
$DIMTFAC
 40
1.0
  9
$DIMGAP
 40
0.09
  9
$DIMJUST
 70
     0
  9
$DIMSD1
 70
     0
  9
$DIMSD2
 70
     0
  9
$DIMTOLJ
 70
     1
  9
$DIMTZIN
 70
     0
  9
$DIMALTZ
 70
     0
  9
$DIMALTTZ
 70
     0
  9
$DIMUPT
 70
     0
  9
$DIMDEC
 70
     2
  9
$DIMTDEC
 70
     2
  9
$DIMALTU
 70
     2
  9
$DIMALTTD
 70
     2
  9
$DIMTXSTY
  7
STANDARD
  9
$DIMAUNIT
 70
     0
  9
$DIMADEC
 70
     0
  9
$DIMALTRND
 40
0.0
  9
$DIMAZIN
 70
     0
  9
$DIMDSEP
 70
    46
  9
$DIMATFIT
 70
     3
  9
$DIMFRAC
 70
     0
  9
$DIMLDRBLK
  1

  9
$DIMLUNIT
 70
     2
  9
$DIMLWD
 70
    -2
  9
$DIMLWE
 70
    -2
  9
$DIMTMOVE
 70
     2
  9
$LUNITS
 70
     2
  9
$LUPREC
 70
     2
  9
$SKETCHINC
 40
0.0
  9
$FILLETRAD
 40
0.0
  9
$AUNITS
 70
     1
  9
$AUPREC
 70
     2
  9
$MENU
  1
ACAD
  9
$ELEVATION
 40
0.0
  9
$PELEVATION
 40
0.0
  9
$THICKNESS
 40
0.0
  9
$LIMCHECK
 70
     1
  9
$CHAMFERA
 40
0.0
  9
$CHAMFERB
 40
0.0
  9
$CHAMFERC
 40
0.0
  9
$CHAMFERD
 40
0.0
  9
$SKPOLY
 70
     0
  9
$TDCREATE
 40
2447893.0
  9
$TDUCREATE
 40
2447892.625
  9
$TDUPDATE
 40
2458196.507569329
  9
$TDUUPDATE
 40
2458196.132569329
  9
$TDINDWG
 40
0.0381404861
  9
$TDUSRTIMER
 40
0.000147419
  9
$USRTIMER
 70
     1
  9
$ANGBASE
 50
0.0
  9
$ANGDIR
 70
     0
  9
$PDMODE
 70
     0
  9
$PDSIZE
 40
0.0
  9
$PLINEWID
 40
0.0
  9
$SPLFRAME
 70
     0
  9
$SPLINETYPE
 70
     6
  9
$SPLINESEGS
 70
     8
  9
$HANDSEED
  5
1111
  9
$SURFTAB1
 70
     6
  9
$SURFTAB2
 70
     6
  9
$SURFTYPE
 70
     6
  9
$SURFU
 70
     6
  9
$SURFV
 70
     6
  9
$UCSBASE
  2

  9
$UCSNAME
  2

  9
$UCSORG
 10
0.0
 20
0.0
 30
0.0
  9
$UCSXDIR
 10
1.0
 20
0.0
 30
0.0
  9
$UCSYDIR
 10
0.0
 20
1.0
 30
0.0
  9
$UCSORTHOREF
  2

  9
$UCSORTHOVIEW
 70
     0
  9
$UCSORGTOP
 10
0.0
 20
0.0
 30
0.0
  9
$UCSORGBOTTOM
 10
0.0
 20
0.0
 30
0.0
  9
$UCSORGLEFT
 10
0.0
 20
0.0
 30
0.0
  9
$UCSORGRIGHT
 10
0.0
 20
0.0
 30
0.0
  9
$UCSORGFRONT
 10
0.0
 20
0.0
 30
0.0
  9
$UCSORGBACK
 10
0.0
 20
0.0
 30
0.0
  9
$PUCSBASE
  2

  9
$PUCSNAME
  2

  9
$PUCSORG
 10
0.0
 20
0.0
 30
0.0
  9
$PUCSXDIR
 10
1.0
 20
0.0
 30
0.0
  9
$PUCSYDIR
 10
0.0
 20
1.0
 30
0.0
  9
$PUCSORTHOREF
  2

  9
$PUCSORTHOVIEW
 70
     0
  9
$PUCSORGTOP
 10
0.0
 20
0.0
 30
0.0
  9
$PUCSORGBOTTOM
 10
0.0
 20
0.0
 30
0.0
  9
$PUCSORGLEFT
 10
0.0
 20
0.0
 30
0.0
  9
$PUCSORGRIGHT
 10
0.0
 20
0.0
 30
0.0
  9
$PUCSORGFRONT
 10
0.0
 20
0.0
 30
0.0
  9
$PUCSORGBACK
 10
0.0
 20
0.0
 30
0.0
  9
$USERI1
 70
     0
  9
$USERI2
 70
     0
  9
$USERI3
 70
     0
  9
$USERI4
 70
     0
  9
$USERI5
 70
     0
  9
$USERR1
 40
0.0
  9
$USERR2
 40
0.0
  9
$USERR3
 40
0.0
  9
$USERR4
 40
0.0
  9
$USERR5
 40
0.0
  9
$WORLDVIEW
 70
     1
  9
$SHADEDGE
 70
     3
  9
$SHADEDIF
 70
    70
  9
$TILEMODE
 70
     1
  9
$MAXACTVP
 70
    64
  9
$PINSBASE
 10
0.0
 20
0.0
 30
0.0
  9
$PLIMCHECK
 70
     0
  9
$PEXTMIN
 10
0.0
 20
0.0
 30
0.0
  9
$PEXTMAX
 10
594.0
 20
420.0
 30
0.0
  9
$PLIMMIN
 10
0.0
 20
0.0
  9
$PLIMMAX
 10
0.0
 20
0.0
  9
$UNITMODE
 70
     0
  9
$VISRETAIN
 70
     1
  9
$PLINEGEN
 70
     0
  9
$PSLTSCALE
 70
     1
  9
$TREEDEPTH
 70
  3020
  9
$CMLSTYLE
  2
Standard
  9
$CMLJUST
 70
     0
  9
$CMLSCALE
 40
1.0
  9
$PROXYGRAPHICS
 70
     1
  9
$MEASUREMENT
 70
     0
  9
$CELWEIGHT
370
    -1
  9
$ENDCAPS
280
     0
  9
$JOINSTYLE
280
     0
  9
$LWDISPLAY
290
     0
  9
$INSUNITS
 70
     0
  9
$HYPERLINKBASE
  1

  9
$STYLESHEET
  1

  9
$XEDIT
290
     1
  9
$CEPSNTYPE
380
     0
  9
$PSTYLEMODE
290
     1
  9
$FINGERPRINTGUID
  2
{14024035-BCF3-409D-A958-313A212FFE65}
  9
$VERSIONGUID
  2
{FAEB1C32-E019-11D5-929B-00C0DF256EC4}
  9
$EXTNAMES
290
     1
  9
$PSVPSCALE
 40
0.0
  9
$OLESTARTUP
290
     0
  0
ENDSEC
  0
SECTION
  2
CLASSES
  0
CLASS
  1
ACDBDICTIONARYWDFLT
  2
AcDbDictionaryWithDefault
  3
ObjectDBX Classes
 90
        0
280
     0
281
     0
  0
CLASS
  1
SCALE
  2
AcDbScale
  3
ObjectDBX Classes
 90
     1153
280
     0
281
     0
  0
CLASS
  1
VISUALSTYLE
  2
AcDbVisualStyle
  3
ObjectDBX Classes
 90
     4095
280
     0
281
     0
  0
CLASS
  1
MATERIAL
  2
AcDbMaterial
  3
ObjectDBX Classes
 90
     1153
280
     0
281
     0
  0
CLASS
  1
TABLESTYLE
  2
AcDbTableStyle
  3
ObjectDBX Classes
 90
     4095
280
     0
281
     0
  0
CLASS
  1
MLEADERSTYLE
  2
AcDbMLeaderStyle
  3
ACDB_MLEADERSTYLE_CLASS
 90
     4095
280
     0
281
     0
  0
CLASS
  1
DICTIONARYVAR
  2
AcDbDictionaryVar
  3
ObjectDBX Classes
 90
        0
280
     0
281
     0
  0
CLASS
  1
SUN
  2
AcDbSun
  3
SCENEOE
 90
     1153
280
     0
281
     0
  0
CLASS
  1
DIMASSOC
  2
AcDbDimAssoc
  3
"AcDbDimAssoc|Product Desc:     AcDim ARX App For Dimension|Company:          Autodesk, Inc.|WEB Address:      www.autodesk.com"
 90
        0
280
     0
281
     0
  0
CLASS
  1
ACDBPLACEHOLDER
  2
AcDbPlaceHolder
  3
ObjectDBX Classes
 90
        0
280
     0
281
     0
  0
CLASS
  1
LAYOUT
  2
AcDbLayout
  3
ObjectDBX Classes
 90
        0
280
     0
281
     0
  0
ENDSEC
  0
SECTION
  2
TABLES
  0
TABLE
  2
VPORT
  5
8
330
0
100
AcDbSymbolTable
 70
     1
  0
VPORT
  5
2D
330
8
100
AcDbSymbolTableRecord
100
AcDbViewportTableRecord
  2
*Active
 70
     0
 10
0.0
 20
0.0
 11
1.0
 21
1.0
 12
218.7487327650676
 22
112.7433317903541
 13
0.0
 23
0.0
 14
1.0
 24
1.0
 15
5.0
 25
5.0
 16
0.0
 26
0.0
 36
1.0
 17
0.0
 27
0.0
 37
0.0
 40
416.9736234920013
 41
2.111409395973154
 42
50.0
 43
0.0
 44
0.0
 50
0.0
 51
0.0
 71
    16
 72
   100
 73
     1
 74
     3
 75
     1
 76
     1
 77
     0
 78
     0
281
     0
 65
     1
110
0.0
120
0.0
130
0.0
111
1.0
121
0.0
131
0.0
112
0.0
122
1.0
132
0.0
 79
     0
146
0.0
  0
ENDTAB
  0
TABLE
  2
LTYPE
  5
5
330
0
100
AcDbSymbolTable
 70
     7
  0
LTYPE
  5
14
330
5
100
AcDbSymbolTableRecord
100
AcDbLinetypeTableRecord
  2
ByBlock
 70
     0
  3

 72
    65
 73
     0
 40
0.0
  0
LTYPE
  5
15
330
5
100
AcDbSymbolTableRecord
100
AcDbLinetypeTableRecord
  2
ByLayer
 70
     0
  3

 72
    65
 73
     0
 40
0.0
  0
LTYPE
  5
16
330
5
100
AcDbSymbolTableRecord
100
AcDbLinetypeTableRecord
  2
CONTINUOUS
 70
     0
  3
Solid line
 72
    65
 73
     0
 40
0.0
  0
LTYPE
  5
21
330
5
100
AcDbSymbolTableRecord
100
AcDbLinetypeTableRecord
  2
HIDDEN
 70
     0
  3
------------------------
 72
    65
 73
     2
 40
12.6
 49
8.4
 74
     0
 49
-4.2
 74
     0
  0
LTYPE
  5
22
330
5
100
AcDbSymbolTableRecord
100
AcDbLinetypeTableRecord
  2
DOT
 70
     0
  3
ееееееееееееееееееееееее
 72
    65
 73
     2
 40
8.0
 49
6.0
 74
     0
 49
-2.0
 74
     0
  0
LTYPE
  5
23
330
5
100
AcDbSymbolTableRecord
100
AcDbLinetypeTableRecord
  2
DASHDOT
 70
     0
  3
--е--е--е--е--е--е--е--
 72
    65
 73
     4
 40
50.5
 49
30.0
 74
     0
 49
-9.0
 74
     0
 49
2.5
 74
     0
 49
-9.0
 74
     0
  0
LTYPE
  5
24
330
5
100
AcDbSymbolTableRecord
100
AcDbLinetypeTableRecord
  2
DIVIDE
 70
     0
  3
--ее--ее--ее--ее--ее--
 72
    65
 73
     6
 40
58.0
 49
30.0
 74
     0
 49
-9.0
 74
     0
 49
2.5
 74
     0
 49
-5.0
 74
     0
 49
2.5
 74
     0
 49
-9.0
 74
     0
  0
LTYPE
  5
25
330
5
100
AcDbSymbolTableRecord
100
AcDbLinetypeTableRecord
  2
ACAD_ISO06W100
 70
     0
  3
____ ... ____ ... ____
 72
    65
 73
     8
 40
37.5
 49
24.0
 74
     0
 49
-3.0
 74
     0
 49
0.5
 74
     0
 49
-3.0
 74
     0
 49
0.5
 74
     0
 49
-3.0
 74
     0
 49
0.5
 74
     0
 49
-3.0
 74
     0
  0
LTYPE
  5
26
330
5
100
AcDbSymbolTableRecord
100
AcDbLinetypeTableRecord
  2
ACAD_ISO14W100
 70
     0
  3
__ . . . __ . . . __ . . . 
 72
    65
 73
     8
 40
25.5
 49
12.0
 74
     0
 49
-3.0
 74
     0
 49
0.5
 74
     0
 49
-3.0
 74
     0
 49
0.5
 74
     0
 49
-3.0
 74
     0
 49
0.5
 74
     0
 49
-3.0
 74
     0
  0
ENDTAB
  0
TABLE
  2
LAYER
  5
2
330
0
100
AcDbSymbolTable
 70
     6
  0
LAYER
  5
10
330
2
100
AcDbSymbolTableRecord
100
AcDbLayerTableRecord
  2
0
 70
     0
 62
     7
  6
CONTINUOUS
370
    -3
390
F
  0
LAYER
  5
27
330
2
100
AcDbSymbolTableRecord
100
AcDbLayerTableRecord
  2
1
 70
     0
 62
     7
  6
CONTINUOUS
370
    -3
390
F
  0
LAYER
  5
28
330
2
100
AcDbSymbolTableRecord
100
AcDbLayerTableRecord
  2
23
 70
     0
 62
     7
  6
CONTINUOUS
370
    -3
390
F
  0
LAYER
  5
29
330
2
100
AcDbSymbolTableRecord
100
AcDbLayerTableRecord
  2
24
 70
     0
 62
     7
  6
CONTINUOUS
370
    -3
390
F
  0
LAYER
  5
2CE
330
2
100
AcDbSymbolTableRecord
100
AcDbLayerTableRecord
  2
Visible (ISO)
 70
     0
 62
     7
  6
CONTINUOUS
370
    50
390
F
  0
LAYER
  5
B17
330
2
100
AcDbSymbolTableRecord
100
AcDbLayerTableRecord
  2
Defpoints
 70
     0
 62
     7
  6
CONTINUOUS
290
     0
370
    -3
390
F
  0
ENDTAB
  0
TABLE
  2
STYLE
  5
3
330
0
100
AcDbSymbolTable
 70
     2
  0
STYLE
  5
11
330
3
100
AcDbSymbolTableRecord
100
AcDbTextStyleTableRecord
  2
STANDARD
 70
     0
 40
0.0
 41
1.0
 50
0.0
 71
     0
 42
0.2
  3
TXT
  4

  0
STYLE
  5
2B
330
3
100
AcDbSymbolTableRecord
100
AcDbTextStyleTableRecord
  2
KANJI
 70
     0
 40
0.0
 41
1.0
 50
0.0
 71
     0
 42
0.2
  3
TXT
  4
BIGFONT
  0
ENDTAB
  0
TABLE
  2
VIEW
  5
6
330
0
100
AcDbSymbolTable
 70
     0
  0
ENDTAB
  0
TABLE
  2
UCS
  5
7
330
0
100
AcDbSymbolTable
 70
     0
  0
ENDTAB
  0
TABLE
  2
APPID
  5
9
330
0
100
AcDbSymbolTable
 70
     2
  0
APPID
  5
12
330
9
100
AcDbSymbolTableRecord
100
AcDbRegAppTableRecord
  2
ACAD
 70
     0
  0
APPID
  5
D10
330
9
100
AcDbSymbolTableRecord
100
AcDbRegAppTableRecord
  2
ACAD_DSTYLE_DIMRADIAL_EXTENSION
 70
     0
  0
ENDTAB
  0
TABLE
  2
DIMSTYLE
  5
A
330
0
100
AcDbSymbolTable
 70
     1
100
AcDbDimStyleTable
  0
DIMSTYLE
105
2C
330
A
100
AcDbSymbolTableRecord
100
AcDbDimStyleTableRecord
  2
Standard
 70
     0
178
     0
340
11
  0
ENDTAB
  0
TABLE
  2
BLOCK_RECORD
  5
1
330
0
100
AcDbSymbolTable
 70
     0
  0
BLOCK_RECORD
  5
1D
330
1
100
AcDbSymbolTableRecord
100
AcDbBlockTableRecord
  2
*Model_Space
340
1E
  0
BLOCK_RECORD
  5
1B
330
1
100
AcDbSymbolTableRecord
100
AcDbBlockTableRecord
  2
*Paper_Space
340
1C
  0
ENDTAB
  0
ENDSEC
  0
SECTION
  2
BLOCKS
  0
BLOCK
  5
10A
330
1D
100
AcDbEntity
  8
0
100
AcDbBlockBegin
  2
*Model_Space
 70
     0
 10
0.0
 20
0.0
 30
0.0
  3
*Model_Space
  1

  0
ENDBLK
  5
10B
330
1D
100
AcDbEntity
  8
0
100
AcDbBlockEnd
  0
BLOCK
  5
10C
330
1B
100
AcDbEntity
 67
     1
  8
0
100
AcDbBlockBegin
  2
*Paper_Space
 70
     0
 10
0.0
 20
0.0
 30
0.0
  3
*Paper_Space
  1

  0
ENDBLK
  5
10D
330
1B
100
AcDbEntity
 67
     1
  8
0
100
AcDbBlockEnd
  0
ENDSEC
  0
SECTION
  2
ENTITIES
  0
ARC
  5
6B9
330
1D
100
AcDbEntity
  8
23
  6
Continuous
 62
     7
100
AcDbCircle
 10
46.0
 20
52.0
 30
0.0
 40
10.0
100
AcDbArc
 50
270.0
 51
0.0
  0
ARC
  5
6BA
330
1D
100
AcDbEntity
  8
23
  6
Continuous
 62
     7
100
AcDbCircle
 10
46.0
 20
93.0
 30
0.0
 40
10.0
100
AcDbArc
 50
0.0
 51
90.0
  0
ARC
  5
6BB
330
1D
100
AcDbEntity
  8
23
  6
Continuous
 62
     7
100
AcDbCircle
 10
26.0
 20
93.0
 30
0.0
 40
10.0
100
AcDbArc
 50
90.0
 51
180.0
  0
ARC
  5
6BC
330
1D
100
AcDbEntity
  8
23
  6
Continuous
 62
     7
100
AcDbCircle
 10
26.0
 20
52.0
 30
0.0
 40
10.0
100
AcDbArc
 50
180.0
 51
270.0
  0
ARC
  5
6BD
330
1D
100
AcDbEntity
  8
23
  6
Continuous
 62
     7
100
AcDbCircle
 10
36.0
 20
22.0
 30
0.0
 40
10.0
100
AcDbArc
 50
0.0
 51
180.0
  0
ARC
  5
6BE
330
1D
100
AcDbEntity
  8
23
  6
Continuous
 62
     7
100
AcDbCircle
 10
36.0
 20
18.0
 30
0.0
 40
10.0
100
AcDbArc
 50
180.0
 51
0.0
  0
LINE
  5
6BF
330
1D
100
AcDbEntity
  8
23
  6
Continuous
 62
     7
100
AcDbLine
 10
56.0
 20
93.0
 30
0.0
 11
56.0
 21
52.0
 31
0.0
  0
LINE
  5
6C0
330
1D
100
AcDbEntity
  8
23
  6
Continuous
 62
     7
100
AcDbLine
 10
26.0
 20
103.0
 30
0.0
 11
46.0
 21
103.0
 31
0.0
  0
LINE
  5
6C1
330
1D
100
AcDbEntity
  8
23
  6
Continuous
 62
     7
100
AcDbLine
 10
16.0
 20
52.0
 30
0.0
 11
16.0
 21
93.0
 31
0.0
  0
LINE
  5
6C2
330
1D
100
AcDbEntity
  8
23
  6
Continuous
 62
     7
100
AcDbLine
 10
46.0
 20
42.0
 30
0.0
 11
26.0
 21
42.0
 31
0.0
  0
LINE
  5
6C3
330
1D
100
AcDbEntity
  8
23
  6
Continuous
 62
     7
100
AcDbLine
 10
46.0
 20
22.0
 30
0.0
 11
46.0
 21
18.0
 31
0.0
  0
LINE
  5
6C4
330
1D
100
AcDbEntity
  8
23
  6
Continuous
 62
     7
100
AcDbLine
 10
26.0
 20
18.0
 30
0.0
 11
26.0
 21
22.0
 31
0.0
  0
LINE
  5
6C5
330
1D
100
AcDbEntity
  8
23
  6
Continuous
 62
     7
100
AcDbLine
 10
64.0
 20
93.0
 30
0.0
 11
69.0
 21
93.0
 31
0.0
  0
LINE
  5
6C6
330
1D
100
AcDbEntity
  8
23
  6
Continuous
 62
     7
100
AcDbLine
 10
69.0
 20
18.0
 30
0.0
 11
64.0
 21
18.0
 31
0.0
  0
LINE
  5
6C7
330
1D
100
AcDbEntity
  8
23
  6
Continuous
 62
     7
100
AcDbLine
 10
69.0
 20
93.0
 30
0.0
 11
69.0
 21
18.0
 31
0.0
  0
LINE
  5
6C8
330
1D
100
AcDbEntity
  8
23
  6
Continuous
 62
     7
100
AcDbLine
 10
8.0
 20
18.0
 30
0.0
 11
3.0
 21
18.0
 31
0.0
  0
LINE
  5
6C9
330
1D
100
AcDbEntity
  8
23
  6
Continuous
 62
     7
100
AcDbLine
 10
3.0
 20
93.0
 30
0.0
 11
8.0
 21
93.0
 31
0.0
  0
LINE
  5
6CA
330
1D
100
AcDbEntity
  8
23
  6
Continuous
 62
     7
100
AcDbLine
 10
3.0
 20
18.0
 30
0.0
 11
3.0
 21
93.0
 31
0.0
  0
LINE
  5
6CB
330
1D
100
AcDbEntity
  8
23
  6
Continuous
 62
     7
100
AcDbLine
 10
64.0
 20
95.1
 30
0.0
 11
64.0
 21
108.0
 31
0.0
  0
LINE
  5
6CC
330
1D
100
AcDbEntity
  8
23
  6
Continuous
 62
     7
100
AcDbLine
 10
8.0
 20
15.9
 30
0.0
 11
8.0
 21
3.0
 31
0.0
  0
LINE
  5
6CD
330
1D
100
AcDbEntity
  8
23
  6
Continuous
 62
     7
100
AcDbLine
 10
52.94999999999999
 20
15.05
 30
0.0
 11
52.94999999999999
 21
25.95
 31
0.0
  0
LINE
  5
6CE
330
1D
100
AcDbEntity
  8
23
  6
Continuous
 62
     7
100
AcDbLine
 10
58.05000000000001
 20
25.95
 30
0.0
 11
58.05000000000001
 21
15.05
 31
0.0
  0
LINE
  5
6CF
330
1D
100
AcDbEntity
  8
23
  6
Continuous
 62
     7
100
AcDbLine
 10
58.05000000000001
 20
12.95
 30
0.0
 11
52.94999999999999
 21
12.95
 31
0.0
  0
LINE
  5
6D0
330
1D
100
AcDbEntity
  8
23
  6
Continuous
 62
     7
100
AcDbLine
 10
52.94999999999999
 20
28.05
 30
0.0
 11
58.05000000000001
 21
28.05
 31
0.0
  0
ARC
  5
6D1
330
1D
100
AcDbEntity
  8
23
  6
Continuous
 62
     7
100
AcDbCircle
 10
52.94999999999999
 20
14.0
 30
0.0
 40
1.05
100
AcDbArc
 50
90.0
 51
270.0
  0
LINE
  5
6D2
330
1D
100
AcDbEntity
  8
23
  6
Continuous
 62
     7
100
AcDbLine
 10
13.94999999999999
 20
15.05
 30
0.0
 11
13.94999999999999
 21
25.95
 31
0.0
  0
LINE
  5
6D3
330
1D
100
AcDbEntity
  8
23
  6
Continuous
 62
     7
100
AcDbLine
 10
19.05000000000001
 20
25.95
 30
0.0
 11
19.05000000000001
 21
15.05
 31
0.0
  0
LINE
  5
6D4
330
1D
100
AcDbEntity
  8
23
  6
Continuous
 62
     7
100
AcDbLine
 10
19.05000000000001
 20
12.95
 30
0.0
 11
13.94999999999999
 21
12.95
 31
0.0
  0
LINE
  5
6D5
330
1D
100
AcDbEntity
  8
23
  6
Continuous
 62
     7
100
AcDbLine
 10
13.94999999999999
 20
28.05
 30
0.0
 11
19.05000000000001
 21
28.05
 31
0.0
  0
ARC
  5
6D6
330
1D
100
AcDbEntity
  8
23
  6
Continuous
 62
     7
100
AcDbCircle
 10
13.94999999999999
 20
14.0
 30
0.0
 40
1.05
100
AcDbArc
 50
90.0
 51
270.0
  0
CIRCLE
  5
6D7
330
1D
100
AcDbEntity
  8
23
  6
Continuous
 62
     7
100
AcDbCircle
 10
55.5
 20
7.0
 30
0.0
 40
1.55
  0
CIRCLE
  5
6D8
330
1D
100
AcDbEntity
  8
23
  6
Continuous
 62
     7
100
AcDbCircle
 10
55.5
 20
34.0
 30
0.0
 40
1.55
  0
CIRCLE
  5
6D9
330
1D
100
AcDbEntity
  8
23
  6
Continuous
 62
     7
100
AcDbCircle
 10
16.5
 20
7.0
 30
0.0
 40
1.55
  0
CIRCLE
  5
6DA
330
1D
100
AcDbEntity
  8
23
  6
Continuous
 62
     7
100
AcDbCircle
 10
16.5
 20
34.0
 30
0.0
 40
1.55
  0
CIRCLE
  5
6DB
330
1D
100
AcDbEntity
  8
23
  6
Continuous
 62
     7
100
AcDbCircle
 10
60.5
 20
100.0
 30
0.0
 40
1.04
  0
CIRCLE
  5
6DC
330
1D
100
AcDbEntity
  8
23
  6
Continuous
 62
     7
100
AcDbCircle
 10
60.5
 20
42.0
 30
0.0
 40
1.04
  0
CIRCLE
  5
6DD
330
1D
100
AcDbEntity
  8
23
  6
Continuous
 62
     7
100
AcDbCircle
 10
11.5
 20
42.0
 30
0.0
 40
1.04
  0
CIRCLE
  5
6DE
330
1D
100
AcDbEntity
  8
23
  6
Continuous
 62
     7
100
AcDbCircle
 10
11.5
 20
100.0
 30
0.0
 40
1.04
  0
ARC
  5
6DF
330
1D
100
AcDbEntity
  8
23
  6
Continuous
 62
     7
100
AcDbCircle
 10
52.94999999999999
 20
27.0
 30
0.0
 40
1.05
100
AcDbArc
 50
90.0
 51
270.0
  0
ARC
  5
6E0
330
1D
100
AcDbEntity
  8
23
  6
Continuous
 62
     7
100
AcDbCircle
 10
58.05000000000001
 20
27.0
 30
0.0
 40
1.05
100
AcDbArc
 50
270.0
 51
90.0
  0
ARC
  5
6E1
330
1D
100
AcDbEntity
  8
23
  6
Continuous
 62
     7
100
AcDbCircle
 10
58.05000000000001
 20
14.0
 30
0.0
 40
1.05
100
AcDbArc
 50
270.0
 51
90.0
  0
ARC
  5
6E2
330
1D
100
AcDbEntity
  8
23
  6
Continuous
 62
     7
100
AcDbCircle
 10
19.05000000000001
 20
14.0
 30
0.0
 40
1.05
100
AcDbArc
 50
270.0
 51
90.0
  0
ARC
  5
6E3
330
1D
100
AcDbEntity
  8
23
  6
Continuous
 62
     7
100
AcDbCircle
 10
19.05000000000001
 20
27.0
 30
0.0
 40
1.05
100
AcDbArc
 50
270.0
 51
90.0
  0
ARC
  5
6E4
330
1D
100
AcDbEntity
  8
23
  6
Continuous
 62
     7
100
AcDbCircle
 10
13.94999999999999
 20
27.0
 30
0.0
 40
1.05
100
AcDbArc
 50
90.0
 51
270.0
  0
LINE
  5
6E5
330
1D
100
AcDbEntity
  8
23
  6
Continuous
 62
     7
100
AcDbLine
 10
64.0
 20
108.0
 30
0.0
 11
8.0
 21
108.0
 31
0.0
  0
ARC
  5
6E6
330
1D
100
AcDbEntity
  8
23
  6
Continuous
 62
     7
100
AcDbCircle
 10
64.0
 20
94.05
 30
0.0
 40
1.05
100
AcDbArc
 50
90.0
 51
270.0
  0
ARC
  5
6E7
330
1D
100
AcDbEntity
  8
23
  6
Continuous
 62
     7
100
AcDbCircle
 10
64.0
 20
16.95
 30
0.0
 40
1.05
100
AcDbArc
 50
90.0
 51
270.0
  0
LINE
  5
6E8
330
1D
100
AcDbEntity
  8
23
  6
Continuous
 62
     7
100
AcDbLine
 10
64.0
 20
3.0
 30
0.0
 11
64.0
 21
15.9
 31
0.0
  0
LINE
  5
6E9
330
1D
100
AcDbEntity
  8
23
  6
Continuous
 62
     7
100
AcDbLine
 10
8.0
 20
3.0
 30
0.0
 11
64.0
 21
3.0
 31
0.0
  0
ARC
  5
6EA
330
1D
100
AcDbEntity
  8
23
  6
Continuous
 62
     7
100
AcDbCircle
 10
8.0
 20
16.95
 30
0.0
 40
1.05
100
AcDbArc
 50
270.0
 51
90.0
  0
ARC
  5
6EB
330
1D
100
AcDbEntity
  8
23
  6
Continuous
 62
     7
100
AcDbCircle
 10
8.0
 20
94.05
 30
0.0
 40
1.05
100
AcDbArc
 50
270.0
 51
90.0
  0
LINE
  5
6EC
330
1D
100
AcDbEntity
  8
23
  6
Continuous
 62
     7
100
AcDbLine
 10
8.0
 20
108.0
 30
0.0
 11
8.0
 21
95.1
 31
0.0
  0
LINE
  5
6ED
330
1D
100
AcDbEntity
  8
1
  6
Continuous
 62
     7
100
AcDbLine
 10
2.0
 20
94.0
 30
0.0
 11
2.0
 21
17.0
 31
0.0
  0
LINE
  5
6EE
330
1D
100
AcDbEntity
  8
1
  6
Continuous
 62
     7
100
AcDbLine
 10
2.0
 20
17.0
 30
0.0
 11
8.0
 21
17.0
 31
0.0
  0
LINE
  5
6EF
330
1D
100
AcDbEntity
  8
1
  6
Continuous
 62
     7
100
AcDbLine
 10
8.0
 20
17.0
 30
0.0
 11
8.0
 21
94.0
 31
0.0
  0
LINE
  5
6F0
330
1D
100
AcDbEntity
  8
1
  6
Continuous
 62
     7
100
AcDbLine
 10
8.0
 20
94.0
 30
0.0
 11
2.0
 21
94.0
 31
0.0
  0
LINE
  5
6F1
330
1D
100
AcDbEntity
  8
1
  6
Continuous
 62
     7
100
AcDbLine
 10
70.0
 20
94.0
 30
0.0
 11
70.0
 21
17.0
 31
0.0
  0
LINE
  5
6F2
330
1D
100
AcDbEntity
  8
1
  6
Continuous
 62
     7
100
AcDbLine
 10
70.0
 20
17.0
 30
0.0
 11
64.0
 21
17.0
 31
0.0
  0
LINE
  5
6F3
330
1D
100
AcDbEntity
  8
1
  6
Continuous
 62
     7
100
AcDbLine
 10
64.0
 20
17.0
 30
0.0
 11
64.0
 21
94.0
 31
0.0
  0
LINE
  5
6F4
330
1D
100
AcDbEntity
  8
1
  6
Continuous
 62
     7
100
AcDbLine
 10
64.0
 20
94.0
 30
0.0
 11
70.0
 21
94.0
 31
0.0
  0
ARC
  5
6F5
330
1D
100
AcDbEntity
  8
23
  6
Continuous
 62
     7
100
AcDbCircle
 10
96.10000000000002
 20
14.0
 30
0.0
 40
5.0
100
AcDbArc
 50
0.0
 51
90.0
  0
ARC
  5
6F6
330
1D
100
AcDbEntity
  8
23
  6
Continuous
 62
     7
100
AcDbCircle
 10
96.10000000000002
 20
12.0
 30
0.0
 40
5.0
100
AcDbArc
 50
270.0
 51
0.0
  0
ARC
  5
6F7
330
1D
100
AcDbEntity
  8
23
  6
Continuous
 62
     7
100
AcDbCircle
 10
90.10000000000002
 20
12.0
 30
0.0
 40
5.0
100
AcDbArc
 50
180.0
 51
270.0
  0
ARC
  5
6F8
330
1D
100
AcDbEntity
  8
23
  6
Continuous
 62
     7
100
AcDbCircle
 10
90.10000000000002
 20
14.0
 30
0.0
 40
5.0
100
AcDbArc
 50
90.0
 51
180.0
  0
ARC
  5
6F9
330
1D
100
AcDbEntity
  8
23
  6
Continuous
 62
     7
100
AcDbCircle
 10
86.10000000000002
 20
29.0
 30
0.0
 40
5.0
100
AcDbArc
 50
180.0
 51
270.0
  0
ARC
  5
6FA
330
1D
100
AcDbEntity
  8
23
  6
Continuous
 62
     7
100
AcDbCircle
 10
100.1
 20
29.0
 30
0.0
 40
5.0
100
AcDbArc
 50
270.0
 51
0.0
  0
ARC
  5
6FB
330
1D
100
AcDbEntity
  8
23
  6
Continuous
 62
     7
100
AcDbCircle
 10
100.1
 20
82.0
 30
0.0
 40
5.0
100
AcDbArc
 50
0.0
 51
90.0
  0
ARC
  5
6FC
330
1D
100
AcDbEntity
  8
23
  6
Continuous
 62
     7
100
AcDbCircle
 10
86.10000000000002
 20
82.0
 30
0.0
 40
5.0
100
AcDbArc
 50
90.0
 51
180.0
  0
ARC
  5
6FD
330
1D
100
AcDbEntity
  8
23
  6
Continuous
 62
     7
100
AcDbCircle
 10
96.10000000000002
 20
97.0
 30
0.0
 40
5.0
100
AcDbArc
 50
270.0
 51
0.0
  0
ARC
  5
6FE
330
1D
100
AcDbEntity
  8
23
  6
Continuous
 62
     7
100
AcDbCircle
 10
90.10000000000002
 20
97.0
 30
0.0
 40
5.0
100
AcDbArc
 50
180.0
 51
270.0
  0
ARC
  5
6FF
330
1D
100
AcDbEntity
  8
23
  6
Continuous
 62
     7
100
AcDbCircle
 10
96.10000000000002
 20
99.0
 30
0.0
 40
5.0
100
AcDbArc
 50
0.0
 51
90.0
  0
ARC
  5
700
330
1D
100
AcDbEntity
  8
23
  6
Continuous
 62
     7
100
AcDbCircle
 10
90.10000000000002
 20
99.0
 30
0.0
 40
5.0
100
AcDbArc
 50
90.0
 51
180.0
  0
LINE
  5
701
330
1D
100
AcDbEntity
  8
23
  6
Continuous
 62
     7
100
AcDbLine
 10
90.10000000000002
 20
19.0
 30
0.0
 11
96.10000000000002
 21
19.0
 31
0.0
  0
LINE
  5
702
330
1D
100
AcDbEntity
  8
23
  6
Continuous
 62
     7
100
AcDbLine
 10
101.1
 20
14.0
 30
0.0
 11
101.1
 21
12.0
 31
0.0
  0
LINE
  5
703
330
1D
100
AcDbEntity
  8
23
  6
Continuous
 62
     7
100
AcDbLine
 10
96.10000000000002
 20
7.0
 30
0.0
 11
90.10000000000002
 21
7.0
 31
0.0
  0
LINE
  5
704
330
1D
100
AcDbEntity
  8
23
  6
Continuous
 62
     7
100
AcDbLine
 10
85.10000000000002
 20
12.0
 30
0.0
 11
85.10000000000002
 21
14.0
 31
0.0
  0
LINE
  5
705
330
1D
100
AcDbEntity
  8
23
  6
Continuous
 62
     7
100
AcDbLine
 10
100.1
 20
24.0
 30
0.0
 11
86.10000000000002
 21
24.0
 31
0.0
  0
LINE
  5
706
330
1D
100
AcDbEntity
  8
23
  6
Continuous
 62
     7
100
AcDbLine
 10
105.1
 20
82.0
 30
0.0
 11
105.1
 21
29.0
 31
0.0
  0
LINE
  5
707
330
1D
100
AcDbEntity
  8
23
  6
Continuous
 62
     7
100
AcDbLine
 10
86.10000000000002
 20
87.0
 30
0.0
 11
100.1
 21
87.0
 31
0.0
  0
LINE
  5
708
330
1D
100
AcDbEntity
  8
23
  6
Continuous
 62
     7
100
AcDbLine
 10
81.10000000000002
 20
29.0
 30
0.0
 11
81.10000000000002
 21
82.0
 31
0.0
  0
LINE
  5
709
330
1D
100
AcDbEntity
  8
23
  6
Continuous
 62
     7
100
AcDbLine
 10
101.1
 20
99.0
 30
0.0
 11
101.1
 21
97.0
 31
0.0
  0
LINE
  5
70A
330
1D
100
AcDbEntity
  8
23
  6
Continuous
 62
     7
100
AcDbLine
 10
96.10000000000002
 20
92.0
 30
0.0
 11
90.10000000000002
 21
92.0
 31
0.0
  0
LINE
  5
70B
330
1D
100
AcDbEntity
  8
23
  6
Continuous
 62
     7
100
AcDbLine
 10
90.10000000000002
 20
104.0
 30
0.0
 11
96.10000000000002
 21
104.0
 31
0.0
  0
LINE
  5
70C
330
1D
100
AcDbEntity
  8
23
  6
Continuous
 62
     7
100
AcDbLine
 10
85.10000000000002
 20
97.0
 30
0.0
 11
85.10000000000002
 21
99.0
 31
0.0
  0
LINE
  5
70D
330
1D
100
AcDbEntity
  8
23
  6
Continuous
 62
     7
100
AcDbLine
 10
110.1
 20
88.0
 30
0.0
 11
115.1
 21
88.0
 31
0.0
  0
LINE
  5
70E
330
1D
100
AcDbEntity
  8
23
  6
Continuous
 62
     7
100
AcDbLine
 10
115.1
 20
23.0
 30
0.0
 11
110.1
 21
23.0
 31
0.0
  0
LINE
  5
70F
330
1D
100
AcDbEntity
  8
23
  6
Continuous
 62
     7
100
AcDbLine
 10
115.1
 20
88.0
 30
0.0
 11
115.1
 21
23.0
 31
0.0
  0
LINE
  5
710
330
1D
100
AcDbEntity
  8
23
  6
Continuous
 62
     7
100
AcDbLine
 10
76.10000000000002
 20
23.0
 30
0.0
 11
71.10000000000002
 21
23.0
 31
0.0
  0
LINE
  5
711
330
1D
100
AcDbEntity
  8
23
  6
Continuous
 62
     7
100
AcDbLine
 10
71.10000000000002
 20
88.0
 30
0.0
 11
76.10000000000002
 21
88.0
 31
0.0
  0
LINE
  5
712
330
1D
100
AcDbEntity
  8
23
  6
Continuous
 62
     7
100
AcDbLine
 10
71.10000000000002
 20
23.0
 30
0.0
 11
71.10000000000002
 21
88.0
 31
0.0
  0
LINE
  5
713
330
1D
100
AcDbEntity
  8
23
  6
Continuous
 62
     7
100
AcDbLine
 10
110.1
 20
90.1
 30
0.0
 11
110.1
 21
108.0
 31
0.0
  0
LINE
  5
714
330
1D
100
AcDbEntity
  8
23
  6
Continuous
 62
     7
100
AcDbLine
 10
110.1
 20
3.0
 30
0.0
 11
110.1
 21
20.9
 31
0.0
  0
LINE
  5
715
330
1D
100
AcDbEntity
  8
23
  6
Continuous
 62
     7
100
AcDbLine
 10
76.10000000000002
 20
20.9
 30
0.0
 11
76.10000000000002
 21
3.0
 31
0.0
  0
CIRCLE
  5
716
330
1D
100
AcDbEntity
  8
23
  6
Continuous
 62
     7
100
AcDbCircle
 10
81.10000000000002
 20
13.0
 30
0.0
 40
1.2
  0
CIRCLE
  5
717
330
1D
100
AcDbEntity
  8
23
  6
Continuous
 62
     7
100
AcDbCircle
 10
105.1
 20
13.0
 30
0.0
 40
1.2
  0
CIRCLE
  5
718
330
1D
100
AcDbEntity
  8
23
  6
Continuous
 62
     7
100
AcDbCircle
 10
105.1
 20
98.0
 30
0.0
 40
1.2
  0
CIRCLE
  5
719
330
1D
100
AcDbEntity
  8
23
  6
Continuous
 62
     7
100
AcDbCircle
 10
81.10000000000002
 20
98.0
 30
0.0
 40
1.2
  0
LINE
  5
71A
330
1D
100
AcDbEntity
  8
23
  6
Continuous
 62
     7
100
AcDbLine
 10
110.1
 20
108.0
 30
0.0
 11
76.10000000000002
 21
108.0
 31
0.0
  0
ARC
  5
71B
330
1D
100
AcDbEntity
  8
23
  6
Continuous
 62
     7
100
AcDbCircle
 10
110.1
 20
89.05
 30
0.0
 40
1.05
100
AcDbArc
 50
90.0
 51
270.0
  0
ARC
  5
71C
330
1D
100
AcDbEntity
  8
23
  6
Continuous
 62
     7
100
AcDbCircle
 10
110.1
 20
21.95
 30
0.0
 40
1.05
100
AcDbArc
 50
90.0
 51
270.0
  0
LINE
  5
71D
330
1D
100
AcDbEntity
  8
23
  6
Continuous
 62
     7
100
AcDbLine
 10
76.10000000000002
 20
3.0
 30
0.0
 11
110.1
 21
3.0
 31
0.0
  0
ARC
  5
71E
330
1D
100
AcDbEntity
  8
23
  6
Continuous
 62
     7
100
AcDbCircle
 10
76.10000000000002
 20
21.95
 30
0.0
 40
1.05
100
AcDbArc
 50
270.0
 51
90.0
  0
ARC
  5
71F
330
1D
100
AcDbEntity
  8
23
  6
Continuous
 62
     7
100
AcDbCircle
 10
76.10000000000002
 20
89.05
 30
0.0
 40
1.05
100
AcDbArc
 50
270.0
 51
90.0
  0
LINE
  5
720
330
1D
100
AcDbEntity
  8
23
  6
Continuous
 62
     7
100
AcDbLine
 10
76.10000000000002
 20
108.0
 30
0.0
 11
76.10000000000002
 21
90.1
 31
0.0
  0
LINE
  5
721
330
1D
100
AcDbEntity
  8
1
  6
Continuous
 62
     7
100
AcDbLine
 10
76.10000000000002
 20
89.0
 30
0.0
 11
76.10000000000002
 21
22.0
 31
0.0
  0
LINE
  5
722
330
1D
100
AcDbEntity
  8
1
  6
Continuous
 62
     7
100
AcDbLine
 10
76.10000000000002
 20
22.0
 30
0.0
 11
70.10000000000002
 21
22.0
 31
0.0
  0
LINE
  5
723
330
1D
100
AcDbEntity
  8
1
  6
Continuous
 62
     7
100
AcDbLine
 10
70.10000000000002
 20
22.0
 30
0.0
 11
70.10000000000002
 21
89.0
 31
0.0
  0
LINE
  5
724
330
1D
100
AcDbEntity
  8
1
  6
Continuous
 62
     7
100
AcDbLine
 10
70.10000000000002
 20
89.0
 30
0.0
 11
76.10000000000002
 21
89.0
 31
0.0
  0
LINE
  5
725
330
1D
100
AcDbEntity
  8
1
  6
Continuous
 62
     7
100
AcDbLine
 10
110.1
 20
89.0
 30
0.0
 11
110.1
 21
22.0
 31
0.0
  0
LINE
  5
726
330
1D
100
AcDbEntity
  8
1
  6
Continuous
 62
     7
100
AcDbLine
 10
110.1
 20
22.0
 30
0.0
 11
116.1
 21
22.0
 31
0.0
  0
LINE
  5
727
330
1D
100
AcDbEntity
  8
1
  6
Continuous
 62
     7
100
AcDbLine
 10
116.1
 20
22.0
 30
0.0
 11
116.1
 21
89.0
 31
0.0
  0
LINE
  5
728
330
1D
100
AcDbEntity
  8
1
  6
Continuous
 62
     7
100
AcDbLine
 10
116.1
 20
89.0
 30
0.0
 11
110.1
 21
89.0
 31
0.0
  0
CIRCLE
  5
7BF
330
1D
100
AcDbEntity
  8
23
  6
Continuous
 62
     7
100
AcDbCircle
 10
25.0
 20
240.7
 30
0.0
 40
12.0
  0
LINE
  5
7C0
330
1D
100
AcDbEntity
  8
23
  6
Continuous
 62
     7
100
AcDbLine
 10
8.0
 20
235.7
 30
0.0
 11
3.0
 21
235.7
 31
0.0
  0
LINE
  5
7C1
330
1D
100
AcDbEntity
  8
23
  6
Continuous
 62
     7
100
AcDbLine
 10
3.0
 20
245.7
 30
0.0
 11
8.0
 21
245.7
 31
0.0
  0
LINE
  5
7C2
330
1D
100
AcDbEntity
  8
23
  6
Continuous
 62
     7
100
AcDbLine
 10
3.0
 20
235.7
 30
0.0
 11
3.0
 21
245.7
 31
0.0
  0
LINE
  5
7C3
330
1D
100
AcDbEntity
  8
23
  6
Continuous
 62
     7
100
AcDbLine
 10
42.0
 20
245.7
 30
0.0
 11
47.0
 21
245.7
 31
0.0
  0
LINE
  5
7C4
330
1D
100
AcDbEntity
  8
23
  6
Continuous
 62
     7
100
AcDbLine
 10
47.0
 20
235.7
 30
0.0
 11
42.0
 21
235.7
 31
0.0
  0
LINE
  5
7C5
330
1D
100
AcDbEntity
  8
23
  6
Continuous
 62
     7
100
AcDbLine
 10
47.0
 20
245.7
 30
0.0
 11
47.0
 21
235.7
 31
0.0
  0
LINE
  5
7C6
330
1D
100
AcDbEntity
  8
23
  6
Continuous
 62
     7
100
AcDbLine
 10
8.0
 20
233.6
 30
0.0
 11
8.0
 21
224.7
 31
0.0
  0
LINE
  5
7C7
330
1D
100
AcDbEntity
  8
23
  6
Continuous
 62
     7
100
AcDbLine
 10
42.0
 20
247.8
 30
0.0
 11
42.0
 21
256.7
 31
0.0
  0
LINE
  5
7C8
330
1D
100
AcDbEntity
  8
23
  6
Continuous
 62
     7
100
AcDbLine
 10
42.0
 20
224.7
 30
0.0
 11
42.0
 21
233.6
 31
0.0
  0
LINE
  5
7C9
330
1D
100
AcDbEntity
  8
23
  6
Continuous
 62
     7
100
AcDbLine
 10
42.0
 20
256.7
 30
0.0
 11
8.0
 21
256.7
 31
0.0
  0
ARC
  5
7CA
330
1D
100
AcDbEntity
  8
23
  6
Continuous
 62
     7
100
AcDbCircle
 10
42.0
 20
246.75
 30
0.0
 40
1.05
100
AcDbArc
 50
90.0
 51
270.0
  0
ARC
  5
7CB
330
1D
100
AcDbEntity
  8
23
  6
Continuous
 62
     7
100
AcDbCircle
 10
42.0
 20
234.65
 30
0.0
 40
1.05
100
AcDbArc
 50
90.0
 51
270.0
  0
LINE
  5
7CC
330
1D
100
AcDbEntity
  8
23
  6
Continuous
 62
     7
100
AcDbLine
 10
8.0
 20
224.7
 30
0.0
 11
42.0
 21
224.7
 31
0.0
  0
ARC
  5
7CD
330
1D
100
AcDbEntity
  8
23
  6
Continuous
 62
     7
100
AcDbCircle
 10
8.0
 20
234.65
 30
0.0
 40
1.05
100
AcDbArc
 50
270.0
 51
90.0
  0
ARC
  5
7CE
330
1D
100
AcDbEntity
  8
23
  6
Continuous
 62
     7
100
AcDbCircle
 10
8.0
 20
246.75
 30
0.0
 40
1.05
100
AcDbArc
 50
270.0
 51
90.0
  0
LINE
  5
7CF
330
1D
100
AcDbEntity
  8
23
  6
Continuous
 62
     7
100
AcDbLine
 10
8.0
 20
256.7
 30
0.0
 11
8.0
 21
247.8
 31
0.0
  0
LINE
  5
7D0
330
1D
100
AcDbEntity
  8
1
  6
Continuous
 62
     7
100
AcDbLine
 10
8.0
 20
246.7
 30
0.0
 11
8.0
 21
234.7
 31
0.0
  0
LINE
  5
7D1
330
1D
100
AcDbEntity
  8
1
  6
Continuous
 62
     7
100
AcDbLine
 10
8.0
 20
234.7
 30
0.0
 11
2.0
 21
234.7
 31
0.0
  0
LINE
  5
7D2
330
1D
100
AcDbEntity
  8
1
  6
Continuous
 62
     7
100
AcDbLine
 10
2.0
 20
234.7
 30
0.0
 11
2.0
 21
246.7
 31
0.0
  0
LINE
  5
7D3
330
1D
100
AcDbEntity
  8
1
  6
Continuous
 62
     7
100
AcDbLine
 10
2.0
 20
246.7
 30
0.0
 11
8.0
 21
246.7
 31
0.0
  0
LINE
  5
7D4
330
1D
100
AcDbEntity
  8
1
  6
Continuous
 62
     7
100
AcDbLine
 10
42.0
 20
246.7
 30
0.0
 11
42.0
 21
234.7
 31
0.0
  0
LINE
  5
7D5
330
1D
100
AcDbEntity
  8
1
  6
Continuous
 62
     7
100
AcDbLine
 10
42.0
 20
234.7
 30
0.0
 11
48.0
 21
234.7
 31
0.0
  0
LINE
  5
7D6
330
1D
100
AcDbEntity
  8
1
  6
Continuous
 62
     7
100
AcDbLine
 10
48.0
 20
234.7
 30
0.0
 11
48.0
 21
246.7
 31
0.0
  0
LINE
  5
7D7
330
1D
100
AcDbEntity
  8
1
  6
Continuous
 62
     7
100
AcDbLine
 10
48.0
 20
246.7
 30
0.0
 11
42.0
 21
246.7
 31
0.0
  0
ARC
  5
7D8
330
1D
100
AcDbEntity
  8
24
  6
Continuous
 62
     7
100
AcDbCircle
 10
73.0
 20
152.1
 30
0.0
 40
7.0
100
AcDbArc
 50
180.0
 51
270.0
  0
ARC
  5
7D9
330
1D
100
AcDbEntity
  8
24
  6
Continuous
 62
     7
100
AcDbCircle
 10
20.0
 20
125.1
 30
0.0
 40
7.0
100
AcDbArc
 50
180.0
 51
270.0
  0
ARC
  5
7DA
330
1D
100
AcDbEntity
  8
24
  6
Continuous
 62
     7
100
AcDbCircle
 10
20.0
 20
128.1
 30
0.0
 40
7.0
100
AcDbArc
 50
90.0
 51
180.0
  0
ARC
  5
7DB
330
1D
100
AcDbEntity
  8
24
  6
Continuous
 62
     7
100
AcDbCircle
 10
18.0
 20
147.1
 30
0.0
 40
7.0
100
AcDbArc
 50
180.0
 51
270.0
  0
ARC
  5
7DC
330
1D
100
AcDbEntity
  8
24
  6
Continuous
 62
     7
100
AcDbCircle
 10
18.0
 20
201.1
 30
0.0
 40
7.0
100
AcDbArc
 50
90.0
 51
180.0
  0
ARC
  5
7DD
330
1D
100
AcDbEntity
  8
24
  6
Continuous
 62
     7
100
AcDbCircle
 10
22.0
 20
201.1
 30
0.0
 40
7.0
100
AcDbArc
 50
0.0
 51
90.0
  0
ARC
  5
7DE
330
1D
100
AcDbEntity
  8
24
  6
Continuous
 62
     7
100
AcDbCircle
 10
47.0
 20
201.1
 30
0.0
 40
7.0
100
AcDbArc
 50
90.0
 51
180.0
  0
ARC
  5
7DF
330
1D
100
AcDbEntity
  8
24
  6
Continuous
 62
     7
100
AcDbCircle
 10
51.0
 20
201.1
 30
0.0
 40
7.0
100
AcDbArc
 50
0.0
 51
90.0
  0
ARC
  5
7E0
330
1D
100
AcDbEntity
  8
24
  6
Continuous
 62
     7
100
AcDbCircle
 10
51.0
 20
147.1
 30
0.0
 40
7.0
100
AcDbArc
 50
270.0
 51
0.0
  0
ARC
  5
7E1
330
1D
100
AcDbEntity
  8
24
  6
Continuous
 62
     7
100
AcDbCircle
 10
55.44999999999999
 20
128.1
 30
0.0
 40
7.0
100
AcDbArc
 50
0.0
 51
90.0
  0
ARC
  5
7E2
330
1D
100
AcDbEntity
  8
24
  6
Continuous
 62
     7
100
AcDbCircle
 10
55.44999999999999
 20
125.1
 30
0.0
 40
7.0
100
AcDbArc
 50
270.0
 51
0.0
  0
ARC
  5
7E3
330
1D
100
AcDbEntity
  8
24
  6
Continuous
 62
     7
100
AcDbCircle
 10
46.5
 20
125.1
 30
0.0
 40
7.0
100
AcDbArc
 50
180.0
 51
270.0
  0
ARC
  5
7E4
330
1D
100
AcDbEntity
  8
24
  6
Continuous
 62
     7
100
AcDbCircle
 10
22.5
 20
125.1
 30
0.0
 40
7.0
100
AcDbArc
 50
270.0
 51
0.0
  0
ARC
  5
7E5
330
1D
100
AcDbEntity
  8
24
  6
Continuous
 62
     7
100
AcDbCircle
 10
22.0
 20
147.1
 30
0.0
 40
7.0
100
AcDbArc
 50
270.0
 51
0.0
  0
ARC
  5
7E6
330
1D
100
AcDbEntity
  8
24
  6
Continuous
 62
     7
100
AcDbCircle
 10
22.5
 20
128.1
 30
0.0
 40
7.0
100
AcDbArc
 50
0.0
 51
90.0
  0
ARC
  5
7E7
330
1D
100
AcDbEntity
  8
24
  6
Continuous
 62
     7
100
AcDbCircle
 10
47.0
 20
147.1
 30
0.0
 40
7.0
100
AcDbArc
 50
180.0
 51
270.0
  0
ARC
  5
7E8
330
1D
100
AcDbEntity
  8
24
  6
Continuous
 62
     7
100
AcDbCircle
 10
46.5
 20
128.1
 30
0.0
 40
7.0
100
AcDbArc
 50
90.0
 51
180.0
  0
LINE
  5
7E9
330
1D
100
AcDbEntity
  8
24
  6
Continuous
 62
     7
100
AcDbLine
 10
66.0
 20
152.1
 30
0.0
 11
66.0
 21
220.1
 31
0.0
  0
LINE
  5
7EA
330
1D
100
AcDbEntity
  8
24
  6
Continuous
 62
     7
100
AcDbLine
 10
11.0
 20
147.1
 30
0.0
 11
11.0
 21
201.1
 31
0.0
  0
LINE
  5
7EB
330
1D
100
AcDbEntity
  8
24
  6
Continuous
 62
     7
100
AcDbLine
 10
18.0
 20
208.1
 30
0.0
 11
22.0
 21
208.1
 31
0.0
  0
LINE
  5
7EC
330
1D
100
AcDbEntity
  8
24
  6
Continuous
 62
     7
100
AcDbLine
 10
29.0
 20
201.1
 30
0.0
 11
29.0
 21
147.1
 31
0.0
  0
LINE
  5
7ED
330
1D
100
AcDbEntity
  8
24
  6
Continuous
 62
     7
100
AcDbLine
 10
47.0
 20
208.1
 30
0.0
 11
51.0
 21
208.1
 31
0.0
  0
LINE
  5
7EE
330
1D
100
AcDbEntity
  8
24
  6
Continuous
 62
     7
100
AcDbLine
 10
58.0
 20
201.1
 30
0.0
 11
58.0
 21
147.1
 31
0.0
  0
LINE
  5
7EF
330
1D
100
AcDbEntity
  8
24
  6
Continuous
 62
     7
100
AcDbLine
 10
51.0
 20
140.1
 30
0.0
 11
47.0
 21
140.1
 31
0.0
  0
LINE
  5
7F0
330
1D
100
AcDbEntity
  8
24
  6
Continuous
 62
     7
100
AcDbLine
 10
22.0
 20
140.1
 30
0.0
 11
18.0
 21
140.1
 31
0.0
  0
LINE
  5
7F1
330
1D
100
AcDbEntity
  8
24
  6
Continuous
 62
     7
100
AcDbLine
 10
40.0
 20
147.1
 30
0.0
 11
40.0
 21
201.1
 31
0.0
  0
LINE
  5
7F2
330
1D
100
AcDbEntity
  8
24
  6
Continuous
 62
     7
100
AcDbLine
 10
5.449999999999989
 20
127.15
 30
0.0
 11
5.449999999999989
 21
198.05
 31
0.0
  0
LINE
  5
7F3
330
1D
100
AcDbEntity
  8
24
  6
Continuous
 62
     7
100
AcDbLine
 10
8.050000000000011
 20
125.05
 30
0.0
 11
5.449999999999989
 21
125.05
 31
0.0
  0
LINE
  5
7F4
330
1D
100
AcDbEntity
  8
24
  6
Continuous
 62
     7
100
AcDbLine
 10
5.449999999999989
 20
200.15
 30
0.0
 11
8.050000000000011
 21
200.15
 31
0.0
  0
LINE
  5
7F5
330
1D
100
AcDbEntity
  8
24
  6
Continuous
 62
     7
100
AcDbLine
 10
8.050000000000011
 20
198.05
 30
0.0
 11
8.050000000000011
 21
127.15
 31
0.0
  0
ARC
  5
7F6
330
1D
100
AcDbEntity
  8
24
  6
Continuous
 62
     7
100
AcDbCircle
 10
5.449999999999989
 20
199.1
 30
0.0
 40
1.05
100
AcDbArc
 50
90.0
 51
270.0
  0
ARC
  5
7F7
330
1D
100
AcDbEntity
  8
24
  6
Continuous
 62
     7
100
AcDbCircle
 10
8.050000000000011
 20
199.1
 30
0.0
 40
1.05
100
AcDbArc
 50
270.0
 51
90.0
  0
LINE
  5
7F8
330
1D
100
AcDbEntity
  8
24
  6
Continuous
 62
     7
100
AcDbLine
 10
60.94999999999999
 20
162.15
 30
0.0
 11
60.94999999999999
 21
198.05
 31
0.0
  0
LINE
  5
7F9
330
1D
100
AcDbEntity
  8
24
  6
Continuous
 62
     7
100
AcDbLine
 10
63.55000000000001
 20
160.05
 30
0.0
 11
60.94999999999999
 21
160.05
 31
0.0
  0
LINE
  5
7FA
330
1D
100
AcDbEntity
  8
24
  6
Continuous
 62
     7
100
AcDbLine
 10
60.94999999999999
 20
200.15
 30
0.0
 11
63.55000000000001
 21
200.15
 31
0.0
  0
LINE
  5
7FB
330
1D
100
AcDbEntity
  8
24
  6
Continuous
 62
     7
100
AcDbLine
 10
63.55000000000001
 20
198.05
 30
0.0
 11
63.55000000000001
 21
162.15
 31
0.0
  0
ARC
  5
7FC
330
1D
100
AcDbEntity
  8
24
  6
Continuous
 62
     7
100
AcDbCircle
 10
60.94999999999999
 20
199.1
 30
0.0
 40
1.05
100
AcDbArc
 50
90.0
 51
270.0
  0
ARC
  5
7FD
330
1D
100
AcDbEntity
  8
24
  6
Continuous
 62
     7
100
AcDbCircle
 10
63.55000000000001
 20
199.1
 30
0.0
 40
1.05
100
AcDbArc
 50
270.0
 51
90.0
  0
LINE
  5
7FE
330
1D
100
AcDbEntity
  8
24
  6
Continuous
 62
     7
100
AcDbLine
 10
28.05000000000001
 20
217.65
 30
0.0
 11
40.94999999999999
 21
217.65
 31
0.0
  0
LINE
  5
7FF
330
1D
100
AcDbEntity
  8
24
  6
Continuous
 62
     7
100
AcDbLine
 10
40.94999999999999
 20
215.05
 30
0.0
 11
28.05000000000001
 21
215.05
 31
0.0
  0
LINE
  5
800
330
1D
100
AcDbEntity
  8
24
  6
Continuous
 62
     7
100
AcDbLine
 10
25.94999999999999
 20
215.05
 30
0.0
 11
25.94999999999999
 21
217.65
 31
0.0
  0
LINE
  5
801
330
1D
100
AcDbEntity
  8
24
  6
Continuous
 62
     7
100
AcDbLine
 10
43.05000000000001
 20
217.65
 30
0.0
 11
43.05000000000001
 21
215.05
 31
0.0
  0
ARC
  5
802
330
1D
100
AcDbEntity
  8
24
  6
Continuous
 62
     7
100
AcDbCircle
 10
27.0
 20
217.65
 30
0.0
 40
1.05
100
AcDbArc
 50
0.0
 51
180.0
  0
CIRCLE
  5
803
330
1D
100
AcDbEntity
  8
24
  6
Continuous
 62
     7
100
AcDbCircle
 10
26.0
 20
113.6
 30
0.0
 40
1.2
  0
CIRCLE
  5
804
330
1D
100
AcDbEntity
  8
24
  6
Continuous
 62
     7
100
AcDbCircle
 10
86.0
 20
113.6
 30
0.0
 40
1.2
  0
CIRCLE
  5
805
330
1D
100
AcDbEntity
  8
24
  6
Continuous
 62
     7
100
AcDbCircle
 10
33.0
 20
186.1
 30
0.0
 40
1.2
  0
CIRCLE
  5
806
330
1D
100
AcDbEntity
  8
24
  6
Continuous
 62
     7
100
AcDbCircle
 10
18.0
 20
216.1
 30
0.0
 40
1.2
  0
CIRCLE
  5
807
330
1D
100
AcDbEntity
  8
24
  6
Continuous
 62
     7
100
AcDbCircle
 10
48.0
 20
216.1
 30
0.0
 40
1.2
  0
ARC
  5
808
330
1D
100
AcDbEntity
  8
24
  6
Continuous
 62
     7
100
AcDbCircle
 10
60.94999999999999
 20
161.1
 30
0.0
 40
1.05
100
AcDbArc
 50
90.0
 51
270.0
  0
ARC
  5
809
330
1D
100
AcDbEntity
  8
24
  6
Continuous
 62
     7
100
AcDbCircle
 10
63.55000000000001
 20
161.1
 30
0.0
 40
1.05
100
AcDbArc
 50
270.0
 51
90.0
  0
ARC
  5
80A
330
1D
100
AcDbEntity
  8
24
  6
Continuous
 62
     7
100
AcDbCircle
 10
5.449999999999989
 20
126.1
 30
0.0
 40
1.05
100
AcDbArc
 50
90.0
 51
270.0
  0
ARC
  5
80B
330
1D
100
AcDbEntity
  8
24
  6
Continuous
 62
     7
100
AcDbCircle
 10
8.050000000000011
 20
126.1
 30
0.0
 40
1.05
100
AcDbArc
 50
270.0
 51
90.0
  0
ARC
  5
80C
330
1D
100
AcDbEntity
  8
24
  6
Continuous
 62
     7
100
AcDbCircle
 10
27.0
 20
215.05
 30
0.0
 40
1.05
100
AcDbArc
 50
180.0
 51
0.0
  0
ARC
  5
80D
330
1D
100
AcDbEntity
  8
24
  6
Continuous
 62
     7
100
AcDbCircle
 10
42.0
 20
215.05
 30
0.0
 40
1.05
100
AcDbArc
 50
180.0
 51
0.0
  0
ARC
  5
80E
330
1D
100
AcDbEntity
  8
24
  6
Continuous
 62
     7
100
AcDbCircle
 10
42.0
 20
217.65
 30
0.0
 40
1.05
100
AcDbArc
 50
0.0
 51
180.0
  0
LINE
  5
80F
330
1D
100
AcDbEntity
  8
24
  6
Continuous
 62
     7
100
AcDbLine
 10
93.0
 20
120.1
 30
0.0
 11
98.0
 21
120.1
 31
0.0
  0
ARC
  5
810
330
1D
100
AcDbEntity
  8
24
  6
Continuous
 62
     7
100
AcDbCircle
 10
93.0
 20
119.05
 30
0.0
 40
1.05
100
AcDbArc
 50
90.0
 51
270.0
  0
LINE
  5
811
330
1D
100
AcDbEntity
  8
24
  6
Continuous
 62
     7
100
AcDbLine
 10
93.0
 20
110.1
 30
0.0
 11
93.0
 21
118.0
 31
0.0
  0
LINE
  5
812
330
1D
100
AcDbEntity
  8
24
  6
Continuous
 62
     7
100
AcDbLine
 10
3.0
 20
110.1
 30
0.0
 11
93.0
 21
110.1
 31
0.0
  0
LINE
  5
813
330
1D
100
AcDbEntity
  8
24
  6
Continuous
 62
     7
100
AcDbLine
 10
3.0
 20
220.1
 30
0.0
 11
3.0
 21
110.1
 31
0.0
  0
LINE
  5
814
330
1D
100
AcDbEntity
  8
24
  6
Continuous
 62
     7
100
AcDbLine
 10
5.5
 20
222.6
 30
0.0
 11
3.0
 21
220.1
 31
0.0
  0
LINE
  5
815
330
1D
100
AcDbEntity
  8
24
  6
Continuous
 62
     7
100
AcDbLine
 10
63.5
 20
222.6
 30
0.0
 11
5.5
 21
222.6
 31
0.0
  0
LINE
  5
816
330
1D
100
AcDbEntity
  8
24
  6
Continuous
 62
     7
100
AcDbLine
 10
66.0
 20
220.1
 30
0.0
 11
63.5
 21
222.6
 31
0.0
  0
LINE
  5
817
330
1D
100
AcDbEntity
  8
24
  6
Continuous
 62
     7
100
AcDbLine
 10
93.0
 20
145.1
 30
0.0
 11
73.0
 21
145.1
 31
0.0
  0
LINE
  5
818
330
1D
100
AcDbEntity
  8
24
  6
Continuous
 62
     7
100
AcDbLine
 10
93.0
 20
137.2
 30
0.0
 11
93.0
 21
145.1
 31
0.0
  0
ARC
  5
819
330
1D
100
AcDbEntity
  8
24
  6
Continuous
 62
     7
100
AcDbCircle
 10
93.0
 20
136.15
 30
0.0
 40
1.05
100
AcDbArc
 50
90.0
 51
270.0
  0
LINE
  5
81A
330
1D
100
AcDbEntity
  8
24
  6
Continuous
 62
     7
100
AcDbLine
 10
98.0
 20
135.1
 30
0.0
 11
93.0
 21
135.1
 31
0.0
  0
LINE
  5
81B
330
1D
100
AcDbEntity
  8
24
  6
Continuous
 62
     7
100
AcDbLine
 10
98.0
 20
120.1
 30
0.0
 11
98.0
 21
135.1
 31
0.0
  0
LINE
  5
81C
330
1D
100
AcDbEntity
  8
24
  6
Continuous
 62
     7
100
AcDbLine
 10
22.5
 20
118.1
 30
0.0
 11
20.0
 21
118.1
 31
0.0
  0
LINE
  5
81D
330
1D
100
AcDbEntity
  8
24
  6
Continuous
 62
     7
100
AcDbLine
 10
13.0
 20
125.1
 30
0.0
 11
13.0
 21
128.1
 31
0.0
  0
LINE
  5
81E
330
1D
100
AcDbEntity
  8
24
  6
Continuous
 62
     7
100
AcDbLine
 10
46.5
 20
135.1
 30
0.0
 11
55.44999999999999
 21
135.1
 31
0.0
  0
LINE
  5
81F
330
1D
100
AcDbEntity
  8
24
  6
Continuous
 62
     7
100
AcDbLine
 10
62.44999999999999
 20
128.1
 30
0.0
 11
62.44999999999999
 21
125.1
 31
0.0
  0
LINE
  5
820
330
1D
100
AcDbEntity
  8
24
  6
Continuous
 62
     7
100
AcDbLine
 10
55.44999999999999
 20
118.1
 30
0.0
 11
46.5
 21
118.1
 31
0.0
  0
LINE
  5
821
330
1D
100
AcDbEntity
  8
24
  6
Continuous
 62
     7
100
AcDbLine
 10
29.5
 20
128.1
 30
0.0
 11
29.5
 21
125.1
 31
0.0
  0
LINE
  5
822
330
1D
100
AcDbEntity
  8
24
  6
Continuous
 62
     7
100
AcDbLine
 10
20.0
 20
135.1
 30
0.0
 11
22.5
 21
135.1
 31
0.0
  0
LINE
  5
823
330
1D
100
AcDbEntity
  8
24
  6
Continuous
 62
     7
100
AcDbLine
 10
39.5
 20
125.1
 30
0.0
 11
39.5
 21
128.1
 31
0.0
  0
LINE
  5
824
330
1D
100
AcDbEntity
  8
24
  6
Continuous
 62
     7
100
AcDbLine
 10
66.44999999999999
 20
143.1
 30
0.0
 11
86.44999999999999
 21
143.1
 31
0.0
  0
LINE
  5
825
330
1D
100
AcDbEntity
  8
24
  6
Continuous
 62
     7
100
AcDbLine
 10
66.44999999999999
 20
117.1
 30
0.0
 11
66.44999999999999
 21
143.1
 31
0.0
  0
LINE
  5
826
330
1D
100
AcDbEntity
  8
24
  6
Continuous
 62
     7
100
AcDbLine
 10
86.44999999999999
 20
117.1
 30
0.0
 11
66.44999999999999
 21
117.1
 31
0.0
  0
LINE
  5
827
330
1D
100
AcDbEntity
  8
24
  6
Continuous
 62
     7
100
AcDbLine
 10
86.44999999999999
 20
143.1
 30
0.0
 11
86.44999999999999
 21
117.1
 31
0.0
  0
ARC
  5
828
330
1D
100
AcDbEntity
  8
24
  6
Continuous
 62
     7
100
AcDbCircle
 10
69.89999999999998
 20
121.35
 30
0.0
 40
1.05
100
AcDbArc
 50
90.0
 51
270.0
  0
LINE
  5
829
330
1D
100
AcDbEntity
  8
24
  6
Continuous
 62
     7
100
AcDbLine
 10
69.89999999999998
 20
137.8
 30
0.0
 11
69.89999999999998
 21
122.4
 31
0.0
  0
ARC
  5
82A
330
1D
100
AcDbEntity
  8
24
  6
Continuous
 62
     7
100
AcDbCircle
 10
69.89999999999998
 20
138.85
 30
0.0
 40
1.05
100
AcDbArc
 50
90.0
 51
270.0
  0
LINE
  5
82B
330
1D
100
AcDbEntity
  8
24
  6
Continuous
 62
     7
100
AcDbLine
 10
83.0
 20
139.9
 30
0.0
 11
69.89999999999998
 21
139.9
 31
0.0
  0
ARC
  5
82C
330
1D
100
AcDbEntity
  8
24
  6
Continuous
 62
     7
100
AcDbCircle
 10
83.0
 20
138.85
 30
0.0
 40
1.05
100
AcDbArc
 50
270.0
 51
90.0
  0
LINE
  5
82D
330
1D
100
AcDbEntity
  8
24
  6
Continuous
 62
     7
100
AcDbLine
 10
83.0
 20
122.4
 30
0.0
 11
83.0
 21
137.8
 31
0.0
  0
ARC
  5
82E
330
1D
100
AcDbEntity
  8
24
  6
Continuous
 62
     7
100
AcDbCircle
 10
83.0
 20
121.35
 30
0.0
 40
1.05
100
AcDbArc
 50
270.0
 51
90.0
  0
LINE
  5
82F
330
1D
100
AcDbEntity
  8
24
  6
Continuous
 62
     7
100
AcDbLine
 10
69.89999999999998
 20
120.3
 30
0.0
 11
83.0
 21
120.3
 31
0.0
  0
CIRCLE
  5
830
330
1D
100
AcDbEntity
  8
24
  6
Continuous
 62
     7
100
AcDbCircle
 10
58.0
 20
217.6
 30
0.0
 40
3.0
  0
CIRCLE
  5
831
330
1D
100
AcDbEntity
  8
24
  6
Continuous
 62
     7
100
AcDbCircle
 10
58.0
 20
217.6
 30
0.0
 40
1.55
  0
CIRCLE
  5
832
330
1D
100
AcDbEntity
  8
24
  6
Continuous
 62
     7
100
AcDbCircle
 10
34.5
 20
200.1
 30
0.0
 40
3.0
  0
CIRCLE
  5
833
330
1D
100
AcDbEntity
  8
24
  6
Continuous
 62
     7
100
AcDbCircle
 10
34.5
 20
200.1
 30
0.0
 40
1.55
  0
CIRCLE
  5
834
330
1D
100
AcDbEntity
  8
24
  6
Continuous
 62
     7
100
AcDbCircle
 10
34.5
 20
125.1
 30
0.0
 40
3.0
  0
CIRCLE
  5
835
330
1D
100
AcDbEntity
  8
24
  6
Continuous
 62
     7
100
AcDbCircle
 10
34.5
 20
125.1
 30
0.0
 40
1.55
  0
CIRCLE
  5
836
330
1D
100
AcDbEntity
  8
24
  6
Continuous
 62
     7
100
AcDbCircle
 10
11.0
 20
217.6
 30
0.0
 40
3.0
  0
CIRCLE
  5
837
330
1D
100
AcDbEntity
  8
24
  6
Continuous
 62
     7
100
AcDbCircle
 10
11.0
 20
217.6
 30
0.0
 40
1.55
  0
ARC
  5
838
330
1D
100
AcDbEntity
  8
24
  6
Continuous
 62
     7
100
AcDbCircle
 10
125.1
 20
152.1
 30
0.0
 40
7.0
100
AcDbArc
 50
270.0
 51
0.0
  0
ARC
  5
839
330
1D
100
AcDbEntity
  8
24
  6
Continuous
 62
     7
100
AcDbCircle
 10
178.1
 20
125.1
 30
0.0
 40
7.0
100
AcDbArc
 50
270.0
 51
0.0
  0
ARC
  5
83A
330
1D
100
AcDbEntity
  8
24
  6
Continuous
 62
     7
100
AcDbCircle
 10
178.1
 20
128.1
 30
0.0
 40
7.0
100
AcDbArc
 50
0.0
 51
90.0
  0
ARC
  5
83B
330
1D
100
AcDbEntity
  8
24
  6
Continuous
 62
     7
100
AcDbCircle
 10
180.1
 20
147.1
 30
0.0
 40
7.0
100
AcDbArc
 50
270.0
 51
0.0
  0
ARC
  5
83C
330
1D
100
AcDbEntity
  8
24
  6
Continuous
 62
     7
100
AcDbCircle
 10
180.1
 20
201.1
 30
0.0
 40
7.0
100
AcDbArc
 50
0.0
 51
90.0
  0
ARC
  5
83D
330
1D
100
AcDbEntity
  8
24
  6
Continuous
 62
     7
100
AcDbCircle
 10
176.1
 20
201.1
 30
0.0
 40
7.0
100
AcDbArc
 50
90.0
 51
180.0
  0
ARC
  5
83E
330
1D
100
AcDbEntity
  8
24
  6
Continuous
 62
     7
100
AcDbCircle
 10
151.1
 20
201.1
 30
0.0
 40
7.0
100
AcDbArc
 50
0.0
 51
90.0
  0
ARC
  5
83F
330
1D
100
AcDbEntity
  8
24
  6
Continuous
 62
     7
100
AcDbCircle
 10
147.1
 20
201.1
 30
0.0
 40
7.0
100
AcDbArc
 50
90.0
 51
180.0
  0
ARC
  5
840
330
1D
100
AcDbEntity
  8
24
  6
Continuous
 62
     7
100
AcDbCircle
 10
147.1
 20
147.1
 30
0.0
 40
7.0
100
AcDbArc
 50
180.0
 51
270.0
  0
ARC
  5
841
330
1D
100
AcDbEntity
  8
24
  6
Continuous
 62
     7
100
AcDbCircle
 10
142.65
 20
128.1
 30
0.0
 40
7.0
100
AcDbArc
 50
90.0
 51
180.0
  0
ARC
  5
842
330
1D
100
AcDbEntity
  8
24
  6
Continuous
 62
     7
100
AcDbCircle
 10
142.65
 20
125.1
 30
0.0
 40
7.0
100
AcDbArc
 50
180.0
 51
270.0
  0
ARC
  5
843
330
1D
100
AcDbEntity
  8
24
  6
Continuous
 62
     7
100
AcDbCircle
 10
151.6
 20
125.1
 30
0.0
 40
7.0
100
AcDbArc
 50
270.0
 51
0.0
  0
ARC
  5
844
330
1D
100
AcDbEntity
  8
24
  6
Continuous
 62
     7
100
AcDbCircle
 10
175.6
 20
125.1
 30
0.0
 40
7.0
100
AcDbArc
 50
180.0
 51
270.0
  0
ARC
  5
845
330
1D
100
AcDbEntity
  8
24
  6
Continuous
 62
     7
100
AcDbCircle
 10
176.1
 20
147.1
 30
0.0
 40
7.0
100
AcDbArc
 50
180.0
 51
270.0
  0
ARC
  5
846
330
1D
100
AcDbEntity
  8
24
  6
Continuous
 62
     7
100
AcDbCircle
 10
175.6
 20
128.1
 30
0.0
 40
7.0
100
AcDbArc
 50
90.0
 51
180.0
  0
ARC
  5
847
330
1D
100
AcDbEntity
  8
24
  6
Continuous
 62
     7
100
AcDbCircle
 10
151.1
 20
147.1
 30
0.0
 40
7.0
100
AcDbArc
 50
270.0
 51
0.0
  0
ARC
  5
848
330
1D
100
AcDbEntity
  8
24
  6
Continuous
 62
     7
100
AcDbCircle
 10
151.6
 20
128.1
 30
0.0
 40
7.0
100
AcDbArc
 50
0.0
 51
90.0
  0
LINE
  5
849
330
1D
100
AcDbEntity
  8
24
  6
Continuous
 62
     7
100
AcDbLine
 10
132.1
 20
152.1
 30
0.0
 11
132.1
 21
220.1
 31
0.0
  0
LINE
  5
84A
330
1D
100
AcDbEntity
  8
24
  6
Continuous
 62
     7
100
AcDbLine
 10
187.1
 20
147.1
 30
0.0
 11
187.1
 21
201.1
 31
0.0
  0
LINE
  5
84B
330
1D
100
AcDbEntity
  8
24
  6
Continuous
 62
     7
100
AcDbLine
 10
180.1
 20
208.1
 30
0.0
 11
176.1
 21
208.1
 31
0.0
  0
LINE
  5
84C
330
1D
100
AcDbEntity
  8
24
  6
Continuous
 62
     7
100
AcDbLine
 10
169.1
 20
201.1
 30
0.0
 11
169.1
 21
147.1
 31
0.0
  0
LINE
  5
84D
330
1D
100
AcDbEntity
  8
24
  6
Continuous
 62
     7
100
AcDbLine
 10
151.1
 20
208.1
 30
0.0
 11
147.1
 21
208.1
 31
0.0
  0
LINE
  5
84E
330
1D
100
AcDbEntity
  8
24
  6
Continuous
 62
     7
100
AcDbLine
 10
140.1
 20
201.1
 30
0.0
 11
140.1
 21
147.1
 31
0.0
  0
LINE
  5
84F
330
1D
100
AcDbEntity
  8
24
  6
Continuous
 62
     7
100
AcDbLine
 10
147.1
 20
140.1
 30
0.0
 11
151.1
 21
140.1
 31
0.0
  0
LINE
  5
850
330
1D
100
AcDbEntity
  8
24
  6
Continuous
 62
     7
100
AcDbLine
 10
176.1
 20
140.1
 30
0.0
 11
180.1
 21
140.1
 31
0.0
  0
LINE
  5
851
330
1D
100
AcDbEntity
  8
24
  6
Continuous
 62
     7
100
AcDbLine
 10
158.1
 20
147.1
 30
0.0
 11
158.1
 21
201.1
 31
0.0
  0
LINE
  5
852
330
1D
100
AcDbEntity
  8
24
  6
Continuous
 62
     7
100
AcDbLine
 10
192.65
 20
127.15
 30
0.0
 11
192.65
 21
198.05
 31
0.0
  0
LINE
  5
853
330
1D
100
AcDbEntity
  8
24
  6
Continuous
 62
     7
100
AcDbLine
 10
190.05
 20
125.05
 30
0.0
 11
192.65
 21
125.05
 31
0.0
  0
LINE
  5
854
330
1D
100
AcDbEntity
  8
24
  6
Continuous
 62
     7
100
AcDbLine
 10
192.65
 20
200.15
 30
0.0
 11
190.05
 21
200.15
 31
0.0
  0
LINE
  5
855
330
1D
100
AcDbEntity
  8
24
  6
Continuous
 62
     7
100
AcDbLine
 10
190.05
 20
198.05
 30
0.0
 11
190.05
 21
127.15
 31
0.0
  0
ARC
  5
856
330
1D
100
AcDbEntity
  8
24
  6
Continuous
 62
     7
100
AcDbCircle
 10
192.65
 20
199.1
 30
0.0
 40
1.05
100
AcDbArc
 50
270.0
 51
90.0
  0
ARC
  5
857
330
1D
100
AcDbEntity
  8
24
  6
Continuous
 62
     7
100
AcDbCircle
 10
190.05
 20
199.1
 30
0.0
 40
1.05
100
AcDbArc
 50
90.0
 51
270.0
  0
LINE
  5
858
330
1D
100
AcDbEntity
  8
24
  6
Continuous
 62
     7
100
AcDbLine
 10
137.15
 20
162.15
 30
0.0
 11
137.15
 21
198.05
 31
0.0
  0
LINE
  5
859
330
1D
100
AcDbEntity
  8
24
  6
Continuous
 62
     7
100
AcDbLine
 10
134.55
 20
160.05
 30
0.0
 11
137.15
 21
160.05
 31
0.0
  0
LINE
  5
85A
330
1D
100
AcDbEntity
  8
24
  6
Continuous
 62
     7
100
AcDbLine
 10
137.15
 20
200.15
 30
0.0
 11
134.55
 21
200.15
 31
0.0
  0
LINE
  5
85B
330
1D
100
AcDbEntity
  8
24
  6
Continuous
 62
     7
100
AcDbLine
 10
134.55
 20
198.05
 30
0.0
 11
134.55
 21
162.15
 31
0.0
  0
ARC
  5
85C
330
1D
100
AcDbEntity
  8
24
  6
Continuous
 62
     7
100
AcDbCircle
 10
137.15
 20
199.1
 30
0.0
 40
1.05
100
AcDbArc
 50
270.0
 51
90.0
  0
ARC
  5
85D
330
1D
100
AcDbEntity
  8
24
  6
Continuous
 62
     7
100
AcDbCircle
 10
134.55
 20
199.1
 30
0.0
 40
1.05
100
AcDbArc
 50
90.0
 51
270.0
  0
LINE
  5
85E
330
1D
100
AcDbEntity
  8
24
  6
Continuous
 62
     7
100
AcDbLine
 10
170.05
 20
217.65
 30
0.0
 11
157.15
 21
217.65
 31
0.0
  0
LINE
  5
85F
330
1D
100
AcDbEntity
  8
24
  6
Continuous
 62
     7
100
AcDbLine
 10
157.15
 20
215.05
 30
0.0
 11
170.05
 21
215.05
 31
0.0
  0
LINE
  5
860
330
1D
100
AcDbEntity
  8
24
  6
Continuous
 62
     7
100
AcDbLine
 10
172.15
 20
215.05
 30
0.0
 11
172.15
 21
217.65
 31
0.0
  0
LINE
  5
861
330
1D
100
AcDbEntity
  8
24
  6
Continuous
 62
     7
100
AcDbLine
 10
155.05
 20
217.65
 30
0.0
 11
155.05
 21
215.05
 31
0.0
  0
ARC
  5
862
330
1D
100
AcDbEntity
  8
24
  6
Continuous
 62
     7
100
AcDbCircle
 10
171.1
 20
217.65
 30
0.0
 40
1.05
100
AcDbArc
 50
0.0
 51
180.0
  0
CIRCLE
  5
863
330
1D
100
AcDbEntity
  8
24
  6
Continuous
 62
     7
100
AcDbCircle
 10
172.1
 20
113.6
 30
0.0
 40
1.2
  0
CIRCLE
  5
864
330
1D
100
AcDbEntity
  8
24
  6
Continuous
 62
     7
100
AcDbCircle
 10
112.1
 20
113.6
 30
0.0
 40
1.2
  0
CIRCLE
  5
865
330
1D
100
AcDbEntity
  8
24
  6
Continuous
 62
     7
100
AcDbCircle
 10
165.1
 20
186.1
 30
0.0
 40
1.2
  0
CIRCLE
  5
866
330
1D
100
AcDbEntity
  8
24
  6
Continuous
 62
     7
100
AcDbCircle
 10
180.1
 20
216.1
 30
0.0
 40
1.2
  0
CIRCLE
  5
867
330
1D
100
AcDbEntity
  8
24
  6
Continuous
 62
     7
100
AcDbCircle
 10
150.1
 20
216.1
 30
0.0
 40
1.2
  0
ARC
  5
868
330
1D
100
AcDbEntity
  8
24
  6
Continuous
 62
     7
100
AcDbCircle
 10
137.15
 20
161.1
 30
0.0
 40
1.05
100
AcDbArc
 50
270.0
 51
90.0
  0
ARC
  5
869
330
1D
100
AcDbEntity
  8
24
  6
Continuous
 62
     7
100
AcDbCircle
 10
134.55
 20
161.1
 30
0.0
 40
1.05
100
AcDbArc
 50
90.0
 51
270.0
  0
ARC
  5
86A
330
1D
100
AcDbEntity
  8
24
  6
Continuous
 62
     7
100
AcDbCircle
 10
192.65
 20
126.1
 30
0.0
 40
1.05
100
AcDbArc
 50
270.0
 51
90.0
  0
ARC
  5
86B
330
1D
100
AcDbEntity
  8
24
  6
Continuous
 62
     7
100
AcDbCircle
 10
190.05
 20
126.1
 30
0.0
 40
1.05
100
AcDbArc
 50
90.0
 51
270.0
  0
ARC
  5
86C
330
1D
100
AcDbEntity
  8
24
  6
Continuous
 62
     7
100
AcDbCircle
 10
171.1
 20
215.05
 30
0.0
 40
1.05
100
AcDbArc
 50
180.0
 51
0.0
  0
ARC
  5
86D
330
1D
100
AcDbEntity
  8
24
  6
Continuous
 62
     7
100
AcDbCircle
 10
156.1
 20
215.05
 30
0.0
 40
1.05
100
AcDbArc
 50
180.0
 51
0.0
  0
ARC
  5
86E
330
1D
100
AcDbEntity
  8
24
  6
Continuous
 62
     7
100
AcDbCircle
 10
156.1
 20
217.65
 30
0.0
 40
1.05
100
AcDbArc
 50
0.0
 51
180.0
  0
LINE
  5
86F
330
1D
100
AcDbEntity
  8
24
  6
Continuous
 62
     7
100
AcDbLine
 10
105.1
 20
120.1
 30
0.0
 11
100.1
 21
120.1
 31
0.0
  0
ARC
  5
870
330
1D
100
AcDbEntity
  8
24
  6
Continuous
 62
     7
100
AcDbCircle
 10
105.1
 20
119.05
 30
0.0
 40
1.05
100
AcDbArc
 50
270.0
 51
90.0
  0
LINE
  5
871
330
1D
100
AcDbEntity
  8
24
  6
Continuous
 62
     7
100
AcDbLine
 10
105.1
 20
110.1
 30
0.0
 11
105.1
 21
118.0
 31
0.0
  0
LINE
  5
872
330
1D
100
AcDbEntity
  8
24
  6
Continuous
 62
     7
100
AcDbLine
 10
195.1
 20
110.1
 30
0.0
 11
105.1
 21
110.1
 31
0.0
  0
LINE
  5
873
330
1D
100
AcDbEntity
  8
24
  6
Continuous
 62
     7
100
AcDbLine
 10
195.1
 20
220.1
 30
0.0
 11
195.1
 21
110.1
 31
0.0
  0
LINE
  5
874
330
1D
100
AcDbEntity
  8
24
  6
Continuous
 62
     7
100
AcDbLine
 10
192.6
 20
222.6
 30
0.0
 11
195.1
 21
220.1
 31
0.0
  0
LINE
  5
875
330
1D
100
AcDbEntity
  8
24
  6
Continuous
 62
     7
100
AcDbLine
 10
134.6
 20
222.6
 30
0.0
 11
192.6
 21
222.6
 31
0.0
  0
LINE
  5
876
330
1D
100
AcDbEntity
  8
24
  6
Continuous
 62
     7
100
AcDbLine
 10
132.1
 20
220.1
 30
0.0
 11
134.6
 21
222.6
 31
0.0
  0
LINE
  5
877
330
1D
100
AcDbEntity
  8
24
  6
Continuous
 62
     7
100
AcDbLine
 10
105.1
 20
145.1
 30
0.0
 11
125.1
 21
145.1
 31
0.0
  0
LINE
  5
878
330
1D
100
AcDbEntity
  8
24
  6
Continuous
 62
     7
100
AcDbLine
 10
105.1
 20
137.2
 30
0.0
 11
105.1
 21
145.1
 31
0.0
  0
ARC
  5
879
330
1D
100
AcDbEntity
  8
24
  6
Continuous
 62
     7
100
AcDbCircle
 10
105.1
 20
136.15
 30
0.0
 40
1.05
100
AcDbArc
 50
270.0
 51
90.0
  0
LINE
  5
87A
330
1D
100
AcDbEntity
  8
24
  6
Continuous
 62
     7
100
AcDbLine
 10
100.1
 20
135.1
 30
0.0
 11
105.1
 21
135.1
 31
0.0
  0
LINE
  5
87B
330
1D
100
AcDbEntity
  8
24
  6
Continuous
 62
     7
100
AcDbLine
 10
100.1
 20
120.1
 30
0.0
 11
100.1
 21
135.1
 31
0.0
  0
LINE
  5
87C
330
1D
100
AcDbEntity
  8
24
  6
Continuous
 62
     7
100
AcDbLine
 10
175.6
 20
118.1
 30
0.0
 11
178.1
 21
118.1
 31
0.0
  0
LINE
  5
87D
330
1D
100
AcDbEntity
  8
24
  6
Continuous
 62
     7
100
AcDbLine
 10
185.1
 20
125.1
 30
0.0
 11
185.1
 21
128.1
 31
0.0
  0
LINE
  5
87E
330
1D
100
AcDbEntity
  8
24
  6
Continuous
 62
     7
100
AcDbLine
 10
151.6
 20
135.1
 30
0.0
 11
142.65
 21
135.1
 31
0.0
  0
LINE
  5
87F
330
1D
100
AcDbEntity
  8
24
  6
Continuous
 62
     7
100
AcDbLine
 10
135.65
 20
128.1
 30
0.0
 11
135.65
 21
125.1
 31
0.0
  0
LINE
  5
880
330
1D
100
AcDbEntity
  8
24
  6
Continuous
 62
     7
100
AcDbLine
 10
142.65
 20
118.1
 30
0.0
 11
151.6
 21
118.1
 31
0.0
  0
LINE
  5
881
330
1D
100
AcDbEntity
  8
24
  6
Continuous
 62
     7
100
AcDbLine
 10
168.6
 20
128.1
 30
0.0
 11
168.6
 21
125.1
 31
0.0
  0
LINE
  5
882
330
1D
100
AcDbEntity
  8
24
  6
Continuous
 62
     7
100
AcDbLine
 10
178.1
 20
135.1
 30
0.0
 11
175.6
 21
135.1
 31
0.0
  0
LINE
  5
883
330
1D
100
AcDbEntity
  8
24
  6
Continuous
 62
     7
100
AcDbLine
 10
158.6
 20
125.1
 30
0.0
 11
158.6
 21
128.1
 31
0.0
  0
LINE
  5
884
330
1D
100
AcDbEntity
  8
24
  6
Continuous
 62
     7
100
AcDbLine
 10
131.65
 20
143.1
 30
0.0
 11
111.65
 21
143.1
 31
0.0
  0
LINE
  5
885
330
1D
100
AcDbEntity
  8
24
  6
Continuous
 62
     7
100
AcDbLine
 10
131.65
 20
117.1
 30
0.0
 11
131.65
 21
143.1
 31
0.0
  0
LINE
  5
886
330
1D
100
AcDbEntity
  8
24
  6
Continuous
 62
     7
100
AcDbLine
 10
111.65
 20
117.1
 30
0.0
 11
131.65
 21
117.1
 31
0.0
  0
LINE
  5
887
330
1D
100
AcDbEntity
  8
24
  6
Continuous
 62
     7
100
AcDbLine
 10
111.65
 20
143.1
 30
0.0
 11
111.65
 21
117.1
 31
0.0
  0
ARC
  5
888
330
1D
100
AcDbEntity
  8
24
  6
Continuous
 62
     7
100
AcDbCircle
 10
128.2
 20
121.35
 30
0.0
 40
1.05
100
AcDbArc
 50
270.0
 51
90.0
  0
LINE
  5
889
330
1D
100
AcDbEntity
  8
24
  6
Continuous
 62
     7
100
AcDbLine
 10
128.2
 20
137.8
 30
0.0
 11
128.2
 21
122.4
 31
0.0
  0
ARC
  5
88A
330
1D
100
AcDbEntity
  8
24
  6
Continuous
 62
     7
100
AcDbCircle
 10
128.2
 20
138.85
 30
0.0
 40
1.05
100
AcDbArc
 50
270.0
 51
90.0
  0
LINE
  5
88B
330
1D
100
AcDbEntity
  8
24
  6
Continuous
 62
     7
100
AcDbLine
 10
115.1
 20
139.9
 30
0.0
 11
128.2
 21
139.9
 31
0.0
  0
ARC
  5
88C
330
1D
100
AcDbEntity
  8
24
  6
Continuous
 62
     7
100
AcDbCircle
 10
115.1
 20
138.85
 30
0.0
 40
1.05
100
AcDbArc
 50
90.0
 51
270.0
  0
LINE
  5
88D
330
1D
100
AcDbEntity
  8
24
  6
Continuous
 62
     7
100
AcDbLine
 10
115.1
 20
122.4
 30
0.0
 11
115.1
 21
137.8
 31
0.0
  0
ARC
  5
88E
330
1D
100
AcDbEntity
  8
24
  6
Continuous
 62
     7
100
AcDbCircle
 10
115.1
 20
121.35
 30
0.0
 40
1.05
100
AcDbArc
 50
90.0
 51
270.0
  0
LINE
  5
88F
330
1D
100
AcDbEntity
  8
24
  6
Continuous
 62
     7
100
AcDbLine
 10
128.2
 20
120.3
 30
0.0
 11
115.1
 21
120.3
 31
0.0
  0
CIRCLE
  5
890
330
1D
100
AcDbEntity
  8
24
  6
Continuous
 62
     7
100
AcDbCircle
 10
140.1
 20
217.6
 30
0.0
 40
3.0
  0
CIRCLE
  5
891
330
1D
100
AcDbEntity
  8
24
  6
Continuous
 62
     7
100
AcDbCircle
 10
140.1
 20
217.6
 30
0.0
 40
1.55
  0
CIRCLE
  5
892
330
1D
100
AcDbEntity
  8
24
  6
Continuous
 62
     7
100
AcDbCircle
 10
163.6
 20
200.1
 30
0.0
 40
3.0
  0
CIRCLE
  5
893
330
1D
100
AcDbEntity
  8
24
  6
Continuous
 62
     7
100
AcDbCircle
 10
163.6
 20
200.1
 30
0.0
 40
1.55
  0
CIRCLE
  5
894
330
1D
100
AcDbEntity
  8
24
  6
Continuous
 62
     7
100
AcDbCircle
 10
163.6
 20
125.1
 30
0.0
 40
3.0
  0
CIRCLE
  5
895
330
1D
100
AcDbEntity
  8
24
  6
Continuous
 62
     7
100
AcDbCircle
 10
163.6
 20
125.1
 30
0.0
 40
1.55
  0
CIRCLE
  5
896
330
1D
100
AcDbEntity
  8
24
  6
Continuous
 62
     7
100
AcDbCircle
 10
187.1
 20
217.6
 30
0.0
 40
3.0
  0
CIRCLE
  5
897
330
1D
100
AcDbEntity
  8
24
  6
Continuous
 62
     7
100
AcDbCircle
 10
187.1
 20
217.6
 30
0.0
 40
1.55
  0
LINE
  5
898
330
1D
100
AcDbEntity
  8
1
  6
Continuous
 62
     7
100
AcDbLine
 10
0.0
 20
109.05
 30
0.0
 11
0.0
 21
0.0
 31
0.0
  0
LINE
  5
899
330
1D
100
AcDbEntity
  8
1
  6
Continuous
 62
     7
100
AcDbLine
 10
0.0
 20
0.0
 30
0.0
 11
200.0
 21
0.0
 31
0.0
  0
LINE
  5
89A
330
1D
100
AcDbEntity
  8
1
  6
Continuous
 62
     7
100
AcDbLine
 10
200.0
 20
0.0
 30
0.0
 11
200.0
 21
109.05
 31
0.0
  0
LINE
  5
89B
330
1D
100
AcDbEntity
  8
1
  6
Continuous
 62
     7
100
AcDbLine
 10
200.0
 20
109.05
 30
0.0
 11
0.0
 21
109.05
 31
0.0
  0
LINE
  5
89C
330
1D
100
AcDbEntity
  8
1
  6
Continuous
 62
     7
100
AcDbLine
 10
200.0
 20
280.0
 30
0.0
 11
200.0
 21
109.05
 31
0.0
  0
LINE
  5
89D
330
1D
100
AcDbEntity
  8
1
  6
Continuous
 62
     7
100
AcDbLine
 10
200.0
 20
109.05
 30
0.0
 11
0.0
 21
109.05
 31
0.0
  0
LINE
  5
89E
330
1D
100
AcDbEntity
  8
1
  6
Continuous
 62
     7
100
AcDbLine
 10
0.0
 20
109.05
 30
0.0
 11
0.0
 21
280.0
 31
0.0
  0
LINE
  5
89F
330
1D
100
AcDbEntity
  8
1
  6
Continuous
 62
     7
100
AcDbLine
 10
0.0
 20
280.0
 30
0.0
 11
200.0
 21
280.0
 31
0.0
  0
ARC
  5
FBB
102
{ACAD_REACTORS
330
109C
102
}
330
1D
100
AcDbEntity
  8
24
  6
Continuous
 62
     7
100
AcDbCircle
 10
135.2
 20
21.0
 30
0.0
 40
10.0
100
AcDbArc
 50
180.0
 51
270.0
  0
ARC
  5
FBC
102
{ACAD_REACTORS
330
109C
102
}
330
1D
100
AcDbEntity
  8
24
  6
Continuous
 62
     7
100
AcDbCircle
 10
155.2
 20
21.0
 30
0.0
 40
10.0
100
AcDbArc
 50
270.0
 51
0.0
  0
ARC
  5
FBD
102
{ACAD_REACTORS
330
109C
102
}
330
1D
100
AcDbEntity
  8
24
  6
Continuous
 62
     7
100
AcDbCircle
 10
155.2
 20
90.0
 30
0.0
 40
10.0
100
AcDbArc
 50
0.0
 51
90.0
  0
ARC
  5
FBE
102
{ACAD_REACTORS
330
109C
102
}
330
1D
100
AcDbEntity
  8
24
  6
Continuous
 62
     7
100
AcDbCircle
 10
135.2
 20
90.0
 30
0.0
 40
10.0
100
AcDbArc
 50
90.0
 51
180.0
  0
LINE
  5
FBF
102
{ACAD_REACTORS
330
109C
102
}
330
1D
100
AcDbEntity
  8
24
  6
Continuous
 62
     7
100
AcDbLine
 10
155.2
 20
11.0
 30
0.0
 11
135.2
 21
11.0
 31
0.0
  0
LINE
  5
FC0
102
{ACAD_REACTORS
330
109C
102
}
330
1D
100
AcDbEntity
  8
24
  6
Continuous
 62
     7
100
AcDbLine
 10
165.2
 20
90.0
 30
0.0
 11
165.2
 21
21.0
 31
0.0
  0
LINE
  5
FC1
102
{ACAD_REACTORS
330
109C
102
}
330
1D
100
AcDbEntity
  8
24
  6
Continuous
 62
     7
100
AcDbLine
 10
135.2
 20
100.0
 30
0.0
 11
155.2
 21
100.0
 31
0.0
  0
LINE
  5
FC2
102
{ACAD_REACTORS
330
109C
102
}
330
1D
100
AcDbEntity
  8
24
  6
Continuous
 62
     7
100
AcDbLine
 10
125.2
 20
21.0
 30
0.0
 11
125.2
 21
90.0
 31
0.0
  0
CIRCLE
  5
FC3
102
{ACAD_REACTORS
330
109C
102
}
330
1D
100
AcDbEntity
  8
24
  6
Continuous
 62
     7
100
AcDbCircle
 10
169.7
 20
100.0
 30
0.0
 40
1.04
  0
CIRCLE
  5
FC4
102
{ACAD_REACTORS
330
109C
102
}
330
1D
100
AcDbEntity
  8
24
  6
Continuous
 62
     7
100
AcDbCircle
 10
169.7
 20
42.0
 30
0.0
 40
1.04
  0
CIRCLE
  5
FC5
102
{ACAD_REACTORS
330
109C
102
}
330
1D
100
AcDbEntity
  8
24
  6
Continuous
 62
     7
100
AcDbCircle
 10
120.7
 20
42.0
 30
0.0
 40
1.04
  0
CIRCLE
  5
FC6
102
{ACAD_REACTORS
330
109C
102
}
330
1D
100
AcDbEntity
  8
24
  6
Continuous
 62
     7
100
AcDbCircle
 10
120.7
 20
100.0
 30
0.0
 40
1.04
  0
LINE
  5
FC7
102
{ACAD_REACTORS
330
109C
102
}
330
1D
100
AcDbEntity
  8
24
  6
Continuous
 62
     7
100
AcDbLine
 10
173.2
 20
108.0
 30
0.0
 11
117.2
 21
108.0
 31
0.0
  0
LINE
  5
FC8
102
{ACAD_REACTORS
330
109C
102
}
330
1D
100
AcDbEntity
  8
24
  6
Continuous
 62
     7
100
AcDbLine
 10
173.2
 20
3.0
 30
0.0
 11
173.2
 21
108.0
 31
0.0
  0
LINE
  5
FC9
102
{ACAD_REACTORS
330
109C
102
}
330
1D
100
AcDbEntity
  8
24
  6
Continuous
 62
     7
100
AcDbLine
 10
117.2
 20
3.0
 30
0.0
 11
173.2
 21
3.0
 31
0.0
  0
LINE
  5
FCA
102
{ACAD_REACTORS
330
109C
102
}
330
1D
100
AcDbEntity
  8
24
  6
Continuous
 62
     7
100
AcDbLine
 10
117.2
 20
108.0
 30
0.0
 11
117.2
 21
3.0
 31
0.0
  0
ARC
  5
FCB
102
{ACAD_REACTORS
330
110F
102
}
330
1D
100
AcDbEntity
  8
1
  6
Continuous
 62
     7
100
AcDbCircle
 10
72.0
 20
256.0
 30
0.0
 40
1.05
100
AcDbArc
 50
90.0
 51
270.0
  0
ARC
  5
FCC
102
{ACAD_REACTORS
330
110F
102
}
330
1D
100
AcDbEntity
  8
1
  6
Continuous
 62
     7
100
AcDbCircle
 10
72.0
 20
153.0
 30
0.0
 40
1.05
100
AcDbArc
 50
90.0
 51
270.0
  0
ARC
  5
FCD
102
{ACAD_REACTORS
330
110F
102
}
330
1D
100
AcDbEntity
  8
1
  6
Continuous
 62
     7
100
AcDbCircle
 10
77.10000000000002
 20
256.0
 30
0.0
 40
1.05
100
AcDbArc
 50
270.0
 51
90.0
  0
LINE
  5
FCE
102
{ACAD_REACTORS
330
110F
102
}
330
1D
100
AcDbEntity
  8
1
  6
Continuous
 62
     7
100
AcDbLine
 10
72.0
 20
257.05
 30
0.0
 11
77.10000000000002
 21
257.05
 31
0.0
  0
LINE
  5
FCF
102
{ACAD_REACTORS
330
110F
102
}
330
1D
100
AcDbEntity
  8
1
  6
Continuous
 62
     7
100
AcDbLine
 10
72.0
 20
254.95
 30
0.0
 11
72.0
 21
154.05
 31
0.0
  0
LINE
  5
FD0
102
{ACAD_REACTORS
330
110F
102
}
330
1D
100
AcDbEntity
  8
1
  6
Continuous
 62
     7
100
AcDbLine
 10
77.10000000000002
 20
254.95
 30
0.0
 11
77.10000000000002
 21
154.05
 31
0.0
  0
LINE
  5
FD1
102
{ACAD_REACTORS
330
110F
102
}
330
1D
100
AcDbEntity
  8
1
  6
Continuous
 62
     7
100
AcDbLine
 10
72.0
 20
151.95
 30
0.0
 11
77.10000000000002
 21
151.95
 31
0.0
  0
ARC
  5
FD2
102
{ACAD_REACTORS
330
110F
102
}
330
1D
100
AcDbEntity
  8
1
  6
Continuous
 62
     7
100
AcDbCircle
 10
77.10000000000002
 20
153.0
 30
0.0
 40
1.05
100
AcDbArc
 50
270.0
 51
90.0
  0
LINE
  5
FD3
102
{ACAD_REACTORS
330
110F
102
}
330
1D
100
AcDbEntity
  8
1
  6
Continuous
 62
     7
100
AcDbLine
 10
70.0
 20
150.0
 30
0.0
 11
70.0
 21
259.0
 31
0.0
  0
LINE
  5
FD4
102
{ACAD_REACTORS
330
110F
102
}
330
1D
100
AcDbEntity
  8
1
  6
Continuous
 62
     7
100
AcDbLine
 10
70.0
 20
259.0
 30
0.0
 11
79.10000000000002
 21
259.0
 31
0.0
  0
LINE
  5
FD5
102
{ACAD_REACTORS
330
110F
102
}
330
1D
100
AcDbEntity
  8
1
  6
Continuous
 62
     7
100
AcDbLine
 10
79.10000000000002
 20
259.0
 30
0.0
 11
79.10000000000002
 21
150.0
 31
0.0
  0
LINE
  5
FD6
102
{ACAD_REACTORS
330
110F
102
}
330
1D
100
AcDbEntity
  8
1
  6
Continuous
 62
     7
100
AcDbLine
 10
79.10000000000002
 20
150.0
 30
0.0
 11
70.0
 21
150.0
 31
0.0
  0
CIRCLE
  5
FD7
102
{ACAD_REACTORS
330
110F
102
}
330
1D
100
AcDbEntity
  8
1
  6
Continuous
 62
     7
100
AcDbCircle
 10
74.54999999999995
 20
242.0
 30
0.0
 40
1.05
  0
CIRCLE
  5
FD8
102
{ACAD_REACTORS
330
110F
102
}
330
1D
100
AcDbEntity
  8
1
  6
Continuous
 62
     7
100
AcDbCircle
 10
74.54999999999995
 20
167.0
 30
0.0
 40
1.05
  0
ENDSEC
  0
SECTION
  2
OBJECTS
  0
DICTIONARY
  5
C
330
0
100
AcDbDictionary
281
     1
  3
ACAD_DETAILVIEWSTYLE
350
135
  3
ACAD_GROUP
350
D
  3
ACAD_LAYOUT
350
1A
  3
ACAD_MLINESTYLE
350
17
  3
ACAD_PLOTSETTINGS
350
19
  3
ACAD_PLOTSTYLENAME
350
E
  3
ACAD_SCALELIST
350
E8
  3
ACAD_SECTIONVIEWSTYLE
350
136
  3
AcDbVariableDictionary
350
130
  3
APPDATA
350
12F
  3
DWGPROPS
350
1110
  0
DICTIONARY
  5
135
102
{ACAD_REACTORS
330
C
102
}
330
C
100
AcDbDictionary
281
     1
  0
DICTIONARY
  5
D
102
{ACAD_REACTORS
330
C
102
}
330
C
100
AcDbDictionary
281
     1
  3
*A13
350
109C
  3
*A14
350
110F
  0
DICTIONARY
  5
1A
102
{ACAD_REACTORS
330
C
102
}
330
C
100
AcDbDictionary
281
     1
  3
Model
350
1E
  3
ГVБ[Гg 1
350
1C
  0
DICTIONARY
  5
17
102
{ACAD_REACTORS
330
C
102
}
330
C
100
AcDbDictionary
281
     1
  3
Standard
350
18
  0
DICTIONARY
  5
19
102
{ACAD_REACTORS
330
C
102
}
330
C
100
AcDbDictionary
281
     1
  0
ACDBDICTIONARYWDFLT
  5
E
102
{ACAD_REACTORS
330
C
102
}
330
C
100
AcDbDictionary
281
     1
  3
Normal
350
F
100
AcDbDictionaryWithDefault
340
F
  0
DICTIONARY
  5
E8
102
{ACAD_REACTORS
330
C
102
}
330
C
100
AcDbDictionary
281
     1
  3
A0
350
E9
  3
A1
350
EA
  3
A2
350
EB
  3
A3
350
EC
  3
A4
350
ED
  3
A5
350
EE
  3
A6
350
EF
  3
A7
350
F0
  3
A8
350
F1
  3
A9
350
F2
  3
B0
350
F3
  3
B1
350
F4
  3
B2
350
F5
  3
B3
350
F6
  3
B4
350
F7
  3
B5
350
F8
  3
B6
350
F9
  3
B7
350
FA
  3
B8
350
FB
  3
B9
350
FC
  3
C0
350
FD
  3
C1
350
FE
  3
C2
350
FF
  3
C3
350
100
  3
C4
350
101
  3
C5
350
102
  3
C6
350
103
  3
C7
350
104
  3
C8
350
105
  3
C9
350
106
  3
D0
350
107
  3
D1
350
108
  3
D2
350
109
  0
DICTIONARY
  5
136
102
{ACAD_REACTORS
330
C
102
}
330
C
100
AcDbDictionary
281
     1
  0
DICTIONARY
  5
130
102
{ACAD_REACTORS
330
C
102
}
330
C
100
AcDbDictionary
281
     1
  0
DICTIONARY
  5
12F
102
{ACAD_REACTORS
330
C
102
}
330
C
100
AcDbDictionary
281
     1
  0
XRECORD
  5
1110
102
{ACAD_REACTORS
330
C
102
}
330
C
100
AcDbXrecord
280
     1
  1
DWGPROPS COOKIE
  2

  3

  4

  6

  7

  8
haya
  9

300
=
301
=
302
=
303
=
304
=
305
=
306
=
307
=
308
=
309
=
 40
0.0
 41
2447892.625
 42
2458196.132569329
  1

 90
        0
  0
GROUP
  5
109C
102
{ACAD_REACTORS
330
D
102
}
330
D
100
AcDbGroup
300

 70
     1
 71
     1
340
FBB
340
FBC
340
FBD
340
FBE
340
FBF
340
FC0
340
FC1
340
FC2
340
FC3
340
FC4
340
FC5
340
FC6
340
FC7
340
FC8
340
FC9
340
FCA
  0
GROUP
  5
110F
102
{ACAD_REACTORS
330
D
102
}
330
D
100
AcDbGroup
300

 70
     1
 71
     1
340
FCB
340
FCC
340
FCD
340
FCE
340
FCF
340
FD0
340
FD1
340
FD2
340
FD3
340
FD4
340
FD5
340
FD6
340
FD7
340
FD8
  0
LAYOUT
  5
1E
102
{ACAD_REACTORS
330
1A
102
}
330
1A
100
AcDbPlotSettings
  1

  2
none_device
  4
Letter_(8.50_x_11.00_Inches)
  6

 40
6.35
 41
6.35
 42
6.35
 43
6.35
 44
215.9
 45
279.4
 46
0.0
 47
0.0
 48
0.0
 49
0.0
140
0.0
141
0.0
142
1.0
143
1.0
 70
  1712
 72
     0
 73
     0
 74
     0
  7

 75
     0
147
1.0
148
0.0
149
0.0
100
AcDbLayout
  1
Model
 70
     3
 71
     0
 10
0.0
 20
0.0
 11
12.0
 21
9.0
 12
0.0
 22
0.0
 32
0.0
 14
0.0
 24
0.0
 34
0.0
 15
200.0
 25
280.0
 35
0.0
146
0.0
 13
0.0
 23
0.0
 33
0.0
 16
1.0
 26
0.0
 36
0.0
 17
0.0
 27
1.0
 37
0.0
 76
     0
330
1D
331
2D
  0
LAYOUT
  5
1C
102
{ACAD_REACTORS
330
1A
102
}
330
1A
100
AcDbPlotSettings
  1

  2
none_device
  4

  6

 40
0.0
 41
0.0
 42
0.0
 43
0.0
 44
0.0
 45
0.0
 46
0.0
 47
0.0
 48
0.0
 49
0.0
140
0.0
141
0.0
142
1.0
143
1.0
 70
   688
 72
     0
 73
     0
 74
     5
  7

 75
    16
147
1.0
148
0.0
149
0.0
100
AcDbLayout
  1
ГVБ[Гg 1
 70
     1
 71
     1
 10
0.0
 20
0.0
 11
0.0
 21
0.0
 12
0.0
 22
0.0
 32
0.0
 14
0.0
 24
0.0
 34
0.0
 15
594.0
 25
420.0
 35
0.0
146
0.0
 13
0.0
 23
0.0
 33
0.0
 16
1.0
 26
0.0
 36
0.0
 17
0.0
 27
1.0
 37
0.0
 76
     0
330
1B
  0
MLINESTYLE
  5
18
102
{ACAD_REACTORS
330
17
102
}
330
17
100
AcDbMlineStyle
  2
Standard
 70
     0
  3

 62
   256
 51
90.0
 52
90.0
 71
     2
 49
0.5
 62
   256
  6
BYLAYER
 49
-0.5
 62
   256
  6
BYLAYER
  0
ACDBPLACEHOLDER
  5
F
102
{ACAD_REACTORS
330
E
102
}
330
E
  0
SCALE
  5
E9
102
{ACAD_REACTORS
330
E8
102
}
330
E8
100
AcDbScale
 70
     0
300
1:1
140
1.0
141
1.0
290
     1
  0
SCALE
  5
EA
102
{ACAD_REACTORS
330
E8
102
}
330
E8
100
AcDbScale
 70
     0
300
1:2
140
1.0
141
2.0
290
     0
  0
SCALE
  5
EB
102
{ACAD_REACTORS
330
E8
102
}
330
E8
100
AcDbScale
 70
     0
300
1:4
140
1.0
141
4.0
290
     0
  0
SCALE
  5
EC
102
{ACAD_REACTORS
330
E8
102
}
330
E8
100
AcDbScale
 70
     0
300
1:5
140
1.0
141
5.0
290
     0
  0
SCALE
  5
ED
102
{ACAD_REACTORS
330
E8
102
}
330
E8
100
AcDbScale
 70
     0
300
1:8
140
1.0
141
8.0
290
     0
  0
SCALE
  5
EE
102
{ACAD_REACTORS
330
E8
102
}
330
E8
100
AcDbScale
 70
     0
300
1:10
140
1.0
141
10.0
290
     0
  0
SCALE
  5
EF
102
{ACAD_REACTORS
330
E8
102
}
330
E8
100
AcDbScale
 70
     0
300
1:16
140
1.0
141
16.0
290
     0
  0
SCALE
  5
F0
102
{ACAD_REACTORS
330
E8
102
}
330
E8
100
AcDbScale
 70
     0
300
1:20
140
1.0
141
20.0
290
     0
  0
SCALE
  5
F1
102
{ACAD_REACTORS
330
E8
102
}
330
E8
100
AcDbScale
 70
     0
300
1:30
140
1.0
141
30.0
290
     0
  0
SCALE
  5
F2
102
{ACAD_REACTORS
330
E8
102
}
330
E8
100
AcDbScale
 70
     0
300
1:40
140
1.0
141
40.0
290
     0
  0
SCALE
  5
F3
102
{ACAD_REACTORS
330
E8
102
}
330
E8
100
AcDbScale
 70
     0
300
1:50
140
1.0
141
50.0
290
     0
  0
SCALE
  5
F4
102
{ACAD_REACTORS
330
E8
102
}
330
E8
100
AcDbScale
 70
     0
300
1:100
140
1.0
141
100.0
290
     0
  0
SCALE
  5
F5
102
{ACAD_REACTORS
330
E8
102
}
330
E8
100
AcDbScale
 70
     0
300
2:1
140
2.0
141
1.0
290
     0
  0
SCALE
  5
F6
102
{ACAD_REACTORS
330
E8
102
}
330
E8
100
AcDbScale
 70
     0
300
4:1
140
4.0
141
1.0
290
     0
  0
SCALE
  5
F7
102
{ACAD_REACTORS
330
E8
102
}
330
E8
100
AcDbScale
 70
     0
300
8:1
140
8.0
141
1.0
290
     0
  0
SCALE
  5
F8
102
{ACAD_REACTORS
330
E8
102
}
330
E8
100
AcDbScale
 70
     0
300
10:1
140
10.0
141
1.0
290
     0
  0
SCALE
  5
F9
102
{ACAD_REACTORS
330
E8
102
}
330
E8
100
AcDbScale
 70
     0
300
100:1
140
100.0
141
1.0
290
     0
  0
SCALE
  5
FA
102
{ACAD_REACTORS
330
E8
102
}
330
E8
100
AcDbScale
 70
     0
300
1/128" = 1'-0"
140
0.0078125
141
12.0
290
     0
  0
SCALE
  5
FB
102
{ACAD_REACTORS
330
E8
102
}
330
E8
100
AcDbScale
 70
     0
300
1/64" = 1'-0"
140
0.015625
141
12.0
290
     0
  0
SCALE
  5
FC
102
{ACAD_REACTORS
330
E8
102
}
330
E8
100
AcDbScale
 70
     0
300
1/32" = 1'-0"
140
0.03125
141
12.0
290
     0
  0
SCALE
  5
FD
102
{ACAD_REACTORS
330
E8
102
}
330
E8
100
AcDbScale
 70
     0
300
1/16" = 1'-0"
140
0.0625
141
12.0
290
     0
  0
SCALE
  5
FE
102
{ACAD_REACTORS
330
E8
102
}
330
E8
100
AcDbScale
 70
     0
300
3/32" = 1'-0"
140
0.09375
141
12.0
290
     0
  0
SCALE
  5
FF
102
{ACAD_REACTORS
330
E8
102
}
330
E8
100
AcDbScale
 70
     0
300
1/8" = 1'-0"
140
0.125
141
12.0
290
     0
  0
SCALE
  5
100
102
{ACAD_REACTORS
330
E8
102
}
330
E8
100
AcDbScale
 70
     0
300
3/16" = 1'-0"
140
0.1875
141
12.0
290
     0
  0
SCALE
  5
101
102
{ACAD_REACTORS
330
E8
102
}
330
E8
100
AcDbScale
 70
     0
300
1/4" = 1'-0"
140
0.25
141
12.0
290
     0
  0
SCALE
  5
102
102
{ACAD_REACTORS
330
E8
102
}
330
E8
100
AcDbScale
 70
     0
300
3/8" = 1'-0"
140
0.375
141
12.0
290
     0
  0
SCALE
  5
103
102
{ACAD_REACTORS
330
E8
102
}
330
E8
100
AcDbScale
 70
     0
300
1/2" = 1'-0"
140
0.5
141
12.0
290
     0
  0
SCALE
  5
104
102
{ACAD_REACTORS
330
E8
102
}
330
E8
100
AcDbScale
 70
     0
300
3/4" = 1'-0"
140
0.75
141
12.0
290
     0
  0
SCALE
  5
105
102
{ACAD_REACTORS
330
E8
102
}
330
E8
100
AcDbScale
 70
     0
300
1" = 1'-0"
140
1.0
141
12.0
290
     0
  0
SCALE
  5
106
102
{ACAD_REACTORS
330
E8
102
}
330
E8
100
AcDbScale
 70
     0
300
1-1/2" = 1'-0"
140
1.5
141
12.0
290
     0
  0
SCALE
  5
107
102
{ACAD_REACTORS
330
E8
102
}
330
E8
100
AcDbScale
 70
     0
300
3" = 1'-0"
140
3.0
141
12.0
290
     0
  0
SCALE
  5
108
102
{ACAD_REACTORS
330
E8
102
}
330
E8
100
AcDbScale
 70
     0
300
6" = 1'-0"
140
6.0
141
12.0
290
     0
  0
SCALE
  5
109
102
{ACAD_REACTORS
330
E8
102
}
330
E8
100
AcDbScale
 70
     0
300
1'-0" = 1'-0"
140
12.0
141
12.0
290
     0
  0
ENDSEC
  0
EOF
