  0
SECTION
  2
HEADER
  9
$ACADVER
  1
AC1015
  9
$ACADMAINTVER
 70
     6
  9
$DWGCODEPAGE
  3
ANSI_932
  9
$INSBASE
 10
0.0
 20
0.0
 30
0.0
  9
$EXTMIN
 10
0.0
 20
0.0
 30
0.0
  9
$EXTMAX
 10
649.0009831484441
 20
727.3000000000003
 30
0.0
  9
$LIMMIN
 10
0.0
 20
0.0
  9
$LIMMAX
 10
594.0
 20
420.0
  9
$ORTHOMODE
 70
     0
  9
$REGENMODE
 70
     1
  9
$FILLMODE
 70
     1
  9
$QTEXTMODE
 70
     0
  9
$MIRRTEXT
 70
     1
  9
$LTSCALE
 40
0.25
  9
$ATTMODE
 70
     1
  9
$TEXTSIZE
 40
0.2
  9
$TRACEWID
 40
0.05
  9
$TEXTSTYLE
  7
STANDARD
  9
$CLAYER
  8
0
  9
$CELTYPE
  6
ByLayer
  9
$CECOLOR
 62
   256
  9
$CELTSCALE
 40
1.0
  9
$DISPSILH
 70
     0
  9
$DIMSCALE
 40
1.0
  9
$DIMASZ
 40
1.0
  9
$DIMEXO
 40
0.0
  9
$DIMDLI
 40
0.5
  9
$DIMRND
 40
0.0
  9
$DIMDLE
 40
0.0
  9
$DIMEXE
 40
0.0
  9
$DIMTP
 40
0.0
  9
$DIMTM
 40
0.0
  9
$DIMTXT
 40
4.0
  9
$DIMCEN
 40
0.0
  9
$DIMTSZ
 40
0.0
  9
$DIMTOL
 70
     0
  9
$DIMLIM
 70
     0
  9
$DIMTIH
 70
     1
  9
$DIMTOH
 70
     1
  9
$DIMSE1
 70
     0
  9
$DIMSE2
 70
     0
  9
$DIMTAD
 70
     0
  9
$DIMZIN
 70
     0
  9
$DIMBLK
  1

  9
$DIMASO
 70
     0
  9
$DIMSHO
 70
     0
  9
$DIMPOST
  1

  9
$DIMAPOST
  1

  9
$DIMALT
 70
     0
  9
$DIMALTD
 70
     0
  9
$DIMALTF
 40
25.4
  9
$DIMLFAC
 40
1.0
  9
$DIMTOFL
 70
     0
  9
$DIMTVP
 40
0.0
  9
$DIMTIX
 70
     0
  9
$DIMSOXD
 70
     0
  9
$DIMSAH
 70
     0
  9
$DIMBLK1
  1

  9
$DIMBLK2
  1

  9
$DIMSTYLE
  2
Standard
  9
$DIMCLRD
 70
     0
  9
$DIMCLRE
 70
     0
  9
$DIMCLRT
 70
     0
  9
$DIMTFAC
 40
1.0
  9
$DIMGAP
 40
0.09
  9
$DIMJUST
 70
     0
  9
$DIMSD1
 70
     0
  9
$DIMSD2
 70
     0
  9
$DIMTOLJ
 70
     1
  9
$DIMTZIN
 70
     0
  9
$DIMALTZ
 70
     0
  9
$DIMALTTZ
 70
     0
  9
$DIMUPT
 70
     0
  9
$DIMDEC
 70
     2
  9
$DIMTDEC
 70
     2
  9
$DIMALTU
 70
     2
  9
$DIMALTTD
 70
     2
  9
$DIMTXSTY
  7
STANDARD
  9
$DIMAUNIT
 70
     0
  9
$DIMADEC
 70
     0
  9
$DIMALTRND
 40
0.0
  9
$DIMAZIN
 70
     0
  9
$DIMDSEP
 70
    46
  9
$DIMATFIT
 70
     3
  9
$DIMFRAC
 70
     0
  9
$DIMLDRBLK
  1

  9
$DIMLUNIT
 70
     2
  9
$DIMLWD
 70
    -2
  9
$DIMLWE
 70
    -2
  9
$DIMTMOVE
 70
     2
  9
$LUNITS
 70
     2
  9
$LUPREC
 70
     2
  9
$SKETCHINC
 40
0.0
  9
$FILLETRAD
 40
0.0
  9
$AUNITS
 70
     1
  9
$AUPREC
 70
     2
  9
$MENU
  1
ACAD
  9
$ELEVATION
 40
0.0
  9
$PELEVATION
 40
0.0
  9
$THICKNESS
 40
0.0
  9
$LIMCHECK
 70
     1
  9
$CHAMFERA
 40
0.0
  9
$CHAMFERB
 40
0.0
  9
$CHAMFERC
 40
0.0
  9
$CHAMFERD
 40
0.0
  9
$SKPOLY
 70
     0
  9
$TDCREATE
 40
2447893.0
  9
$TDUCREATE
 40
2447892.625
  9
$TDUPDATE
 40
2458196.507368843
  9
$TDUUPDATE
 40
2458196.132368843
  9
$TDINDWG
 40
0.1138743866
  9
$TDUSRTIMER
 40
0.0006110995
  9
$USRTIMER
 70
     1
  9
$ANGBASE
 50
0.0
  9
$ANGDIR
 70
     0
  9
$PDMODE
 70
     0
  9
$PDSIZE
 40
0.0
  9
$PLINEWID
 40
0.0
  9
$SPLFRAME
 70
     0
  9
$SPLINETYPE
 70
     6
  9
$SPLINESEGS
 70
     8
  9
$HANDSEED
  5
139A
  9
$SURFTAB1
 70
     6
  9
$SURFTAB2
 70
     6
  9
$SURFTYPE
 70
     6
  9
$SURFU
 70
     6
  9
$SURFV
 70
     6
  9
$UCSBASE
  2

  9
$UCSNAME
  2

  9
$UCSORG
 10
0.0
 20
0.0
 30
0.0
  9
$UCSXDIR
 10
1.0
 20
0.0
 30
0.0
  9
$UCSYDIR
 10
0.0
 20
1.0
 30
0.0
  9
$UCSORTHOREF
  2

  9
$UCSORTHOVIEW
 70
     0
  9
$UCSORGTOP
 10
0.0
 20
0.0
 30
0.0
  9
$UCSORGBOTTOM
 10
0.0
 20
0.0
 30
0.0
  9
$UCSORGLEFT
 10
0.0
 20
0.0
 30
0.0
  9
$UCSORGRIGHT
 10
0.0
 20
0.0
 30
0.0
  9
$UCSORGFRONT
 10
0.0
 20
0.0
 30
0.0
  9
$UCSORGBACK
 10
0.0
 20
0.0
 30
0.0
  9
$PUCSBASE
  2

  9
$PUCSNAME
  2

  9
$PUCSORG
 10
0.0
 20
0.0
 30
0.0
  9
$PUCSXDIR
 10
1.0
 20
0.0
 30
0.0
  9
$PUCSYDIR
 10
0.0
 20
1.0
 30
0.0
  9
$PUCSORTHOREF
  2

  9
$PUCSORTHOVIEW
 70
     0
  9
$PUCSORGTOP
 10
0.0
 20
0.0
 30
0.0
  9
$PUCSORGBOTTOM
 10
0.0
 20
0.0
 30
0.0
  9
$PUCSORGLEFT
 10
0.0
 20
0.0
 30
0.0
  9
$PUCSORGRIGHT
 10
0.0
 20
0.0
 30
0.0
  9
$PUCSORGFRONT
 10
0.0
 20
0.0
 30
0.0
  9
$PUCSORGBACK
 10
0.0
 20
0.0
 30
0.0
  9
$USERI1
 70
     0
  9
$USERI2
 70
     0
  9
$USERI3
 70
     0
  9
$USERI4
 70
     0
  9
$USERI5
 70
     0
  9
$USERR1
 40
0.0
  9
$USERR2
 40
0.0
  9
$USERR3
 40
0.0
  9
$USERR4
 40
0.0
  9
$USERR5
 40
0.0
  9
$WORLDVIEW
 70
     1
  9
$SHADEDGE
 70
     3
  9
$SHADEDIF
 70
    70
  9
$TILEMODE
 70
     1
  9
$MAXACTVP
 70
    64
  9
$PINSBASE
 10
0.0
 20
0.0
 30
0.0
  9
$PLIMCHECK
 70
     0
  9
$PEXTMIN
 10
0.0
 20
0.0
 30
0.0
  9
$PEXTMAX
 10
594.0
 20
420.0
 30
0.0
  9
$PLIMMIN
 10
0.0
 20
0.0
  9
$PLIMMAX
 10
0.0
 20
0.0
  9
$UNITMODE
 70
     0
  9
$VISRETAIN
 70
     1
  9
$PLINEGEN
 70
     0
  9
$PSLTSCALE
 70
     1
  9
$TREEDEPTH
 70
  3020
  9
$CMLSTYLE
  2
Standard
  9
$CMLJUST
 70
     0
  9
$CMLSCALE
 40
1.0
  9
$PROXYGRAPHICS
 70
     1
  9
$MEASUREMENT
 70
     0
  9
$CELWEIGHT
370
    -1
  9
$ENDCAPS
280
     0
  9
$JOINSTYLE
280
     0
  9
$LWDISPLAY
290
     0
  9
$INSUNITS
 70
     0
  9
$HYPERLINKBASE
  1

  9
$STYLESHEET
  1

  9
$XEDIT
290
     1
  9
$CEPSNTYPE
380
     0
  9
$PSTYLEMODE
290
     1
  9
$FINGERPRINTGUID
  2
{14024035-BCF3-409D-A958-313A212FFE65}
  9
$VERSIONGUID
  2
{FAEB1C32-E019-11D5-929B-00C0DF256EC4}
  9
$EXTNAMES
290
     1
  9
$PSVPSCALE
 40
0.0
  9
$OLESTARTUP
290
     0
  0
ENDSEC
  0
SECTION
  2
CLASSES
  0
CLASS
  1
ACDBDICTIONARYWDFLT
  2
AcDbDictionaryWithDefault
  3
ObjectDBX Classes
 90
        0
280
     0
281
     0
  0
CLASS
  1
SCALE
  2
AcDbScale
  3
ObjectDBX Classes
 90
     1153
280
     0
281
     0
  0
CLASS
  1
VISUALSTYLE
  2
AcDbVisualStyle
  3
ObjectDBX Classes
 90
     4095
280
     0
281
     0
  0
CLASS
  1
MATERIAL
  2
AcDbMaterial
  3
ObjectDBX Classes
 90
     1153
280
     0
281
     0
  0
CLASS
  1
TABLESTYLE
  2
AcDbTableStyle
  3
ObjectDBX Classes
 90
     4095
280
     0
281
     0
  0
CLASS
  1
MLEADERSTYLE
  2
AcDbMLeaderStyle
  3
ACDB_MLEADERSTYLE_CLASS
 90
     4095
280
     0
281
     0
  0
CLASS
  1
DICTIONARYVAR
  2
AcDbDictionaryVar
  3
ObjectDBX Classes
 90
        0
280
     0
281
     0
  0
CLASS
  1
SUN
  2
AcDbSun
  3
SCENEOE
 90
     1153
280
     0
281
     0
  0
CLASS
  1
DIMASSOC
  2
AcDbDimAssoc
  3
"AcDbDimAssoc|Product Desc:     AcDim ARX App For Dimension|Company:          Autodesk, Inc.|WEB Address:      www.autodesk.com"
 90
        0
280
     0
281
     0
  0
CLASS
  1
ACDBPLACEHOLDER
  2
AcDbPlaceHolder
  3
ObjectDBX Classes
 90
        0
280
     0
281
     0
  0
CLASS
  1
LAYOUT
  2
AcDbLayout
  3
ObjectDBX Classes
 90
        0
280
     0
281
     0
  0
ENDSEC
  0
SECTION
  2
TABLES
  0
TABLE
  2
VPORT
  5
8
330
0
100
AcDbSymbolTable
 70
     1
  0
VPORT
  5
2D
330
8
100
AcDbSymbolTableRecord
100
AcDbViewportTableRecord
  2
*Active
 70
     0
 10
0.0
 20
0.0
 11
1.0
 21
1.0
 12
-9.9135714871816
 22
110.9918285444841
 13
0.0
 23
0.0
 14
1.0
 24
1.0
 15
5.0
 25
5.0
 16
0.0
 26
0.0
 36
1.0
 17
0.0
 27
0.0
 37
0.0
 40
261.6705674550029
 41
2.111409395973154
 42
50.0
 43
0.0
 44
0.0
 50
0.0
 51
0.0
 71
    16
 72
   100
 73
     1
 74
     3
 75
     1
 76
     1
 77
     0
 78
     0
281
     0
 65
     1
110
0.0
120
0.0
130
0.0
111
1.0
121
0.0
131
0.0
112
0.0
122
1.0
132
0.0
 79
     0
146
0.0
  0
ENDTAB
  0
TABLE
  2
LTYPE
  5
5
330
0
100
AcDbSymbolTable
 70
     7
  0
LTYPE
  5
14
330
5
100
AcDbSymbolTableRecord
100
AcDbLinetypeTableRecord
  2
ByBlock
 70
     0
  3

 72
    65
 73
     0
 40
0.0
  0
LTYPE
  5
15
330
5
100
AcDbSymbolTableRecord
100
AcDbLinetypeTableRecord
  2
ByLayer
 70
     0
  3

 72
    65
 73
     0
 40
0.0
  0
LTYPE
  5
16
330
5
100
AcDbSymbolTableRecord
100
AcDbLinetypeTableRecord
  2
CONTINUOUS
 70
     0
  3
Solid line
 72
    65
 73
     0
 40
0.0
  0
LTYPE
  5
21
330
5
100
AcDbSymbolTableRecord
100
AcDbLinetypeTableRecord
  2
HIDDEN
 70
     0
  3
------------------------
 72
    65
 73
     2
 40
12.6
 49
8.4
 74
     0
 49
-4.2
 74
     0
  0
LTYPE
  5
22
330
5
100
AcDbSymbolTableRecord
100
AcDbLinetypeTableRecord
  2
DOT
 70
     0
  3
ееееееееееееееееееееееее
 72
    65
 73
     2
 40
8.0
 49
6.0
 74
     0
 49
-2.0
 74
     0
  0
LTYPE
  5
23
330
5
100
AcDbSymbolTableRecord
100
AcDbLinetypeTableRecord
  2
DASHDOT
 70
     0
  3
--е--е--е--е--е--е--е--
 72
    65
 73
     4
 40
50.5
 49
30.0
 74
     0
 49
-9.0
 74
     0
 49
2.5
 74
     0
 49
-9.0
 74
     0
  0
LTYPE
  5
24
330
5
100
AcDbSymbolTableRecord
100
AcDbLinetypeTableRecord
  2
DIVIDE
 70
     0
  3
--ее--ее--ее--ее--ее--
 72
    65
 73
     6
 40
58.0
 49
30.0
 74
     0
 49
-9.0
 74
     0
 49
2.5
 74
     0
 49
-5.0
 74
     0
 49
2.5
 74
     0
 49
-9.0
 74
     0
  0
LTYPE
  5
25
330
5
100
AcDbSymbolTableRecord
100
AcDbLinetypeTableRecord
  2
ACAD_ISO06W100
 70
     0
  3
____ ... ____ ... ____
 72
    65
 73
     8
 40
37.5
 49
24.0
 74
     0
 49
-3.0
 74
     0
 49
0.5
 74
     0
 49
-3.0
 74
     0
 49
0.5
 74
     0
 49
-3.0
 74
     0
 49
0.5
 74
     0
 49
-3.0
 74
     0
  0
LTYPE
  5
26
330
5
100
AcDbSymbolTableRecord
100
AcDbLinetypeTableRecord
  2
ACAD_ISO14W100
 70
     0
  3
__ . . . __ . . . __ . . . 
 72
    65
 73
     8
 40
25.5
 49
12.0
 74
     0
 49
-3.0
 74
     0
 49
0.5
 74
     0
 49
-3.0
 74
     0
 49
0.5
 74
     0
 49
-3.0
 74
     0
 49
0.5
 74
     0
 49
-3.0
 74
     0
  0
ENDTAB
  0
TABLE
  2
LAYER
  5
2
330
0
100
AcDbSymbolTable
 70
     6
  0
LAYER
  5
10
330
2
100
AcDbSymbolTableRecord
100
AcDbLayerTableRecord
  2
0
 70
     0
 62
     7
  6
CONTINUOUS
370
    -3
390
F
  0
LAYER
  5
27
330
2
100
AcDbSymbolTableRecord
100
AcDbLayerTableRecord
  2
1
 70
     0
 62
     7
  6
CONTINUOUS
370
    -3
390
F
  0
LAYER
  5
28
330
2
100
AcDbSymbolTableRecord
100
AcDbLayerTableRecord
  2
23
 70
     0
 62
     7
  6
CONTINUOUS
370
    -3
390
F
  0
LAYER
  5
29
330
2
100
AcDbSymbolTableRecord
100
AcDbLayerTableRecord
  2
24
 70
     0
 62
     7
  6
CONTINUOUS
370
    -3
390
F
  0
LAYER
  5
2CE
330
2
100
AcDbSymbolTableRecord
100
AcDbLayerTableRecord
  2
Visible (ISO)
 70
     0
 62
     7
  6
CONTINUOUS
370
    50
390
F
  0
LAYER
  5
B17
330
2
100
AcDbSymbolTableRecord
100
AcDbLayerTableRecord
  2
Defpoints
 70
     0
 62
     7
  6
CONTINUOUS
290
     0
370
    -3
390
F
  0
ENDTAB
  0
TABLE
  2
STYLE
  5
3
330
0
100
AcDbSymbolTable
 70
     2
  0
STYLE
  5
11
330
3
100
AcDbSymbolTableRecord
100
AcDbTextStyleTableRecord
  2
STANDARD
 70
     0
 40
0.0
 41
1.0
 50
0.0
 71
     0
 42
0.2
  3
TXT
  4

  0
STYLE
  5
2B
330
3
100
AcDbSymbolTableRecord
100
AcDbTextStyleTableRecord
  2
KANJI
 70
     0
 40
0.0
 41
1.0
 50
0.0
 71
     0
 42
0.2
  3
TXT
  4
BIGFONT
  0
ENDTAB
  0
TABLE
  2
VIEW
  5
6
330
0
100
AcDbSymbolTable
 70
     0
  0
ENDTAB
  0
TABLE
  2
UCS
  5
7
330
0
100
AcDbSymbolTable
 70
     0
  0
ENDTAB
  0
TABLE
  2
APPID
  5
9
330
0
100
AcDbSymbolTable
 70
     2
  0
APPID
  5
12
330
9
100
AcDbSymbolTableRecord
100
AcDbRegAppTableRecord
  2
ACAD
 70
     0
  0
APPID
  5
D10
330
9
100
AcDbSymbolTableRecord
100
AcDbRegAppTableRecord
  2
ACAD_DSTYLE_DIMRADIAL_EXTENSION
 70
     0
  0
ENDTAB
  0
TABLE
  2
DIMSTYLE
  5
A
330
0
100
AcDbSymbolTable
 70
     1
100
AcDbDimStyleTable
  0
DIMSTYLE
105
2C
330
A
100
AcDbSymbolTableRecord
100
AcDbDimStyleTableRecord
  2
Standard
 70
     0
178
     0
340
11
  0
ENDTAB
  0
TABLE
  2
BLOCK_RECORD
  5
1
330
0
100
AcDbSymbolTable
 70
     4
  0
BLOCK_RECORD
  5
1D
330
1
100
AcDbSymbolTableRecord
100
AcDbBlockTableRecord
  2
*Model_Space
340
1E
  0
BLOCK_RECORD
  5
1B
330
1
100
AcDbSymbolTableRecord
100
AcDbBlockTableRecord
  2
*Paper_Space
340
1C
  0
ENDTAB
  0
ENDSEC
  0
SECTION
  2
BLOCKS
  0
BLOCK
  5
10A
330
1D
100
AcDbEntity
  8
0
100
AcDbBlockBegin
  2
*Model_Space
 70
     0
 10
0.0
 20
0.0
 30
0.0
  3
*Model_Space
  1

  0
ENDBLK
  5
10B
330
1D
100
AcDbEntity
  8
0
100
AcDbBlockEnd
  0
BLOCK
  5
10C
330
1B
100
AcDbEntity
 67
     1
  8
0
100
AcDbBlockBegin
  2
*Paper_Space
 70
     0
 10
0.0
 20
0.0
 30
0.0
  3
*Paper_Space
  1

  0
ENDBLK
  5
10D
330
1B
100
AcDbEntity
 67
     1
  8
0
100
AcDbBlockEnd
  0
ENDSEC
  0
SECTION
  2
ENTITIES
  0
ARC
  5
2E
102
{ACAD_REACTORS
330
B16
102
}
330
1D
100
AcDbEntity
  8
24
  6
Continuous
 62
     7
100
AcDbCircle
 10
80.0
 20
23.0
 30
0.0
 40
5.0
100
AcDbArc
 50
270.0
 51
0.0
  0
ARC
  5
2F
102
{ACAD_REACTORS
330
B16
102
}
330
1D
100
AcDbEntity
  8
24
  6
Continuous
 62
     7
100
AcDbCircle
 10
80.0
 20
30.0
 30
0.0
 40
5.0
100
AcDbArc
 50
0.0
 51
90.0
  0
ARC
  5
30
102
{ACAD_REACTORS
330
B16
102
}
330
1D
100
AcDbEntity
  8
24
  6
Continuous
 62
     7
100
AcDbCircle
 10
55.0
 20
30.0
 30
0.0
 40
5.0
100
AcDbArc
 50
90.0
 51
180.0
  0
ARC
  5
31
102
{ACAD_REACTORS
330
B16
102
}
330
1D
100
AcDbEntity
  8
24
  6
Continuous
 62
     7
100
AcDbCircle
 10
55.0
 20
23.0
 30
0.0
 40
5.0
100
AcDbArc
 50
180.0
 51
270.0
  0
ARC
  5
32
102
{ACAD_REACTORS
330
B16
102
}
330
1D
100
AcDbEntity
  8
24
  6
Continuous
 62
     7
100
AcDbCircle
 10
113.376361
 20
12.995078
 30
0.0
 40
2.0
100
AcDbArc
 50
274.2891530000001
 51
54.78860900000011
  0
ARC
  5
33
102
{ACAD_REACTORS
330
B16
102
}
330
1D
100
AcDbEntity
  8
24
  6
Continuous
 62
     7
100
AcDbCircle
 10
92.0
 20
11.391851
 30
0.0
 40
2.0
100
AcDbArc
 50
180.0
 51
274.2891530000001
  0
ARC
  5
34
102
{ACAD_REACTORS
330
B16
102
}
330
1D
100
AcDbEntity
  8
24
  6
Continuous
 62
     7
100
AcDbCircle
 10
121.0
 20
33.0
 30
0.0
 40
2.0
100
AcDbArc
 50
0.0
 51
90.0
  0
ARC
  5
35
102
{ACAD_REACTORS
330
B16
102
}
330
1D
100
AcDbEntity
  8
24
  6
Continuous
 62
     7
100
AcDbCircle
 10
121.0
 20
18.630426
 30
0.0
 40
2.0
100
AcDbArc
 50
234.7886090000001
 51
0.0
  0
ARC
  5
36
102
{ACAD_REACTORS
330
B16
102
}
330
1D
100
AcDbEntity
  8
24
  6
Continuous
 62
     7
100
AcDbCircle
 10
100.638426
 20
33.0
 30
0.0
 40
2.0
100
AcDbArc
 50
90.0
 51
234.7886090000001
  0
ARC
  5
37
102
{ACAD_REACTORS
330
B16
102
}
330
1D
100
AcDbEntity
  8
24
  6
Continuous
 62
     7
100
AcDbCircle
 10
92.0
 20
28.080808
 30
0.0
 40
2.0
100
AcDbArc
 50
54.78860900000009
 51
180.0
  0
ARC
  5
38
102
{ACAD_REACTORS
330
B16
102
}
330
1D
100
AcDbEntity
  8
24
  6
Continuous
 62
     7
100
AcDbCircle
 10
43.0
 20
11.391851
 30
0.0
 40
2.0
100
AcDbArc
 50
265.7108469999999
 51
0.0
  0
ARC
  5
39
102
{ACAD_REACTORS
330
B16
102
}
330
1D
100
AcDbEntity
  8
24
  6
Continuous
 62
     7
100
AcDbCircle
 10
21.623639
 20
12.995078
 30
0.0
 40
2.0
100
AcDbArc
 50
125.211391
 51
265.710847
  0
ARC
  5
3A
102
{ACAD_REACTORS
330
B16
102
}
330
1D
100
AcDbEntity
  8
24
  6
Continuous
 62
     7
100
AcDbCircle
 10
43.0
 20
28.080808
 30
0.0
 40
2.0
100
AcDbArc
 50
0.0
 51
125.2113910000001
  0
ARC
  5
3B
102
{ACAD_REACTORS
330
B16
102
}
330
1D
100
AcDbEntity
  8
24
  6
Continuous
 62
     7
100
AcDbCircle
 10
34.361574
 20
33.0
 30
0.0
 40
2.0
100
AcDbArc
 50
305.211391
 51
90.0
  0
ARC
  5
3C
102
{ACAD_REACTORS
330
B16
102
}
330
1D
100
AcDbEntity
  8
24
  6
Continuous
 62
     7
100
AcDbCircle
 10
14.0
 20
18.630426
 30
0.0
 40
2.0
100
AcDbArc
 50
180.0
 51
305.211391
  0
ARC
  5
3D
102
{ACAD_REACTORS
330
B16
102
}
330
1D
100
AcDbEntity
  8
24
  6
Continuous
 62
     7
100
AcDbCircle
 10
14.0
 20
33.0
 30
0.0
 40
2.0
100
AcDbArc
 50
90.0
 51
180.0
  0
LINE
  5
3E
102
{ACAD_REACTORS
330
B16
102
}
330
1D
100
AcDbEntity
  8
24
  6
Continuous
 62
     7
100
AcDbLine
 10
85.0
 20
30.0
 30
0.0
 11
85.0
 21
23.0
 31
0.0
  0
LINE
  5
3F
102
{ACAD_REACTORS
330
B16
102
}
330
1D
100
AcDbEntity
  8
24
  6
Continuous
 62
     7
100
AcDbLine
 10
55.0
 20
35.0
 30
0.0
 11
80.0
 21
35.0
 31
0.0
  0
LINE
  5
40
102
{ACAD_REACTORS
330
B16
102
}
330
1D
100
AcDbEntity
  8
24
  6
Continuous
 62
     7
100
AcDbLine
 10
50.0
 20
23.0
 30
0.0
 11
50.0
 21
30.0
 31
0.0
  0
LINE
  5
41
102
{ACAD_REACTORS
330
B16
102
}
330
1D
100
AcDbEntity
  8
24
  6
Continuous
 62
     7
100
AcDbLine
 10
80.0
 20
18.0
 30
0.0
 11
55.0
 21
18.0
 31
0.0
  0
LINE
  5
42
102
{ACAD_REACTORS
330
B16
102
}
330
1D
100
AcDbEntity
  8
24
  6
Continuous
 62
     7
100
AcDbLine
 10
93.15319
 20
29.714868
 30
0.0
 11
114.529551
 21
14.629139
 31
0.0
  0
LINE
  5
43
102
{ACAD_REACTORS
330
B16
102
}
330
1D
100
AcDbEntity
  8
24
  6
Continuous
 62
     7
100
AcDbLine
 10
113.525941
 20
11.00068
 30
0.0
 11
92.14958
 21
9.397452999999999
 31
0.0
  0
LINE
  5
44
102
{ACAD_REACTORS
330
B16
102
}
330
1D
100
AcDbEntity
  8
24
  6
Continuous
 62
     7
100
AcDbLine
 10
100.638426
 20
35.0
 30
0.0
 11
121.0
 21
35.0
 31
0.0
  0
LINE
  5
45
102
{ACAD_REACTORS
330
B16
102
}
330
1D
100
AcDbEntity
  8
24
  6
Continuous
 62
     7
100
AcDbLine
 10
123.0
 20
33.0
 30
0.0
 11
123.0
 21
18.630426
 31
0.0
  0
LINE
  5
46
102
{ACAD_REACTORS
330
B16
102
}
330
1D
100
AcDbEntity
  8
24
  6
Continuous
 62
     7
100
AcDbLine
 10
119.84681
 20
16.996366
 30
0.0
 11
99.485236
 21
31.365939
 31
0.0
  0
LINE
  5
47
102
{ACAD_REACTORS
330
B16
102
}
330
1D
100
AcDbEntity
  8
24
  6
Continuous
 62
     7
100
AcDbLine
 10
90.0
 20
11.391851
 30
0.0
 11
90.0
 21
28.080808
 31
0.0
  0
LINE
  5
48
102
{ACAD_REACTORS
330
B16
102
}
330
1D
100
AcDbEntity
  8
24
  6
Continuous
 62
     7
100
AcDbLine
 10
45.0
 20
28.080808
 30
0.0
 11
45.0
 21
11.391851
 31
0.0
  0
LINE
  5
49
102
{ACAD_REACTORS
330
B16
102
}
330
1D
100
AcDbEntity
  8
24
  6
Continuous
 62
     7
100
AcDbLine
 10
42.85042
 20
9.397452999999999
 30
0.0
 11
21.474059
 21
11.00068
 31
0.0
  0
LINE
  5
4A
102
{ACAD_REACTORS
330
B16
102
}
330
1D
100
AcDbEntity
  8
24
  6
Continuous
 62
     7
100
AcDbLine
 10
20.470449
 20
14.629139
 30
0.0
 11
41.84681
 21
29.714868
 31
0.0
  0
LINE
  5
4B
102
{ACAD_REACTORS
330
B16
102
}
330
1D
100
AcDbEntity
  8
24
  6
Continuous
 62
     7
100
AcDbLine
 10
14.0
 20
35.0
 30
0.0
 11
34.361574
 21
35.0
 31
0.0
  0
LINE
  5
4C
102
{ACAD_REACTORS
330
B16
102
}
330
1D
100
AcDbEntity
  8
24
  6
Continuous
 62
     7
100
AcDbLine
 10
35.514764
 20
31.365939
 30
0.0
 11
15.15319
 21
16.996366
 31
0.0
  0
LINE
  5
4D
102
{ACAD_REACTORS
330
B16
102
}
330
1D
100
AcDbEntity
  8
24
  6
Continuous
 62
     7
100
AcDbLine
 10
12.0
 20
18.630426
 30
0.0
 11
12.0
 21
33.0
 31
0.0
  0
LINE
  5
4E
102
{ACAD_REACTORS
330
B16
102
}
330
1D
100
AcDbEntity
  8
24
  6
Continuous
 62
     7
100
AcDbLine
 10
127.0
 20
33.0
 30
0.0
 11
130.0
 21
33.0
 31
0.0
  0
LINE
  5
4F
102
{ACAD_REACTORS
330
B16
102
}
330
1D
100
AcDbEntity
  8
24
  6
Continuous
 62
     7
100
AcDbLine
 10
130.0
 20
13.0
 30
0.0
 11
127.0
 21
13.0
 31
0.0
  0
LINE
  5
50
102
{ACAD_REACTORS
330
B16
102
}
330
1D
100
AcDbEntity
  8
24
  6
Continuous
 62
     7
100
AcDbLine
 10
130.0
 20
33.0
 30
0.0
 11
130.0
 21
13.0
 31
0.0
  0
LINE
  5
51
102
{ACAD_REACTORS
330
B16
102
}
330
1D
100
AcDbEntity
  8
24
  6
Continuous
 62
     7
100
AcDbLine
 10
8.0
 20
13.0
 30
0.0
 11
5.0
 21
13.0
 31
0.0
  0
LINE
  5
52
102
{ACAD_REACTORS
330
B16
102
}
330
1D
100
AcDbEntity
  8
24
  6
Continuous
 62
     7
100
AcDbLine
 10
5.0
 20
33.0
 30
0.0
 11
8.0
 21
33.0
 31
0.0
  0
LINE
  5
53
102
{ACAD_REACTORS
330
B16
102
}
330
1D
100
AcDbEntity
  8
24
  6
Continuous
 62
     7
100
AcDbLine
 10
5.0
 20
13.0
 30
0.0
 11
5.0
 21
33.0
 31
0.0
  0
LINE
  5
54
102
{ACAD_REACTORS
330
B16
102
}
330
1D
100
AcDbEntity
  8
24
  6
Continuous
 62
     7
100
AcDbLine
 10
50.05
 20
13.05
 30
0.0
 11
84.95
 21
13.05
 31
0.0
  0
LINE
  5
55
102
{ACAD_REACTORS
330
B16
102
}
330
1D
100
AcDbEntity
  8
24
  6
Continuous
 62
     7
100
AcDbLine
 10
87.05
 20
13.05
 30
0.0
 11
87.05
 21
7.95
 31
0.0
  0
LINE
  5
56
102
{ACAD_REACTORS
330
B16
102
}
330
1D
100
AcDbEntity
  8
24
  6
Continuous
 62
     7
100
AcDbLine
 10
84.95
 20
7.95
 30
0.0
 11
50.05
 21
7.95
 31
0.0
  0
LINE
  5
57
102
{ACAD_REACTORS
330
B16
102
}
330
1D
100
AcDbEntity
  8
24
  6
Continuous
 62
     7
100
AcDbLine
 10
47.95
 20
7.95
 30
0.0
 11
47.95
 21
13.05
 31
0.0
  0
ARC
  5
58
102
{ACAD_REACTORS
330
B16
102
}
330
1D
100
AcDbEntity
  8
24
  6
Continuous
 62
     7
100
AcDbCircle
 10
127.0
 20
34.05
 30
0.0
 40
1.05
100
AcDbArc
 50
90.0
 51
270.0
  0
LINE
  5
59
102
{ACAD_REACTORS
330
B16
102
}
330
1D
100
AcDbEntity
  8
24
  6
Continuous
 62
     7
100
AcDbLine
 10
127.0
 20
35.1
 30
0.0
 11
127.0
 21
38.0
 31
0.0
  0
LINE
  5
5A
102
{ACAD_REACTORS
330
B16
102
}
330
1D
100
AcDbEntity
  8
24
  6
Continuous
 62
     7
100
AcDbLine
 10
127.0
 20
38.0
 30
0.0
 11
8.0
 21
38.0
 31
0.0
  0
LINE
  5
5B
102
{ACAD_REACTORS
330
B16
102
}
330
1D
100
AcDbEntity
  8
24
  6
Continuous
 62
     7
100
AcDbLine
 10
8.0
 20
38.0
 30
0.0
 11
8.0
 21
35.1
 31
0.0
  0
ARC
  5
5C
102
{ACAD_REACTORS
330
B16
102
}
330
1D
100
AcDbEntity
  8
24
  6
Continuous
 62
     7
100
AcDbCircle
 10
8.0
 20
34.05
 30
0.0
 40
1.05
100
AcDbArc
 50
270.0
 51
90.0
  0
ARC
  5
5D
102
{ACAD_REACTORS
330
B16
102
}
330
1D
100
AcDbEntity
  8
24
  6
Continuous
 62
     7
100
AcDbCircle
 10
8.0
 20
11.95
 30
0.0
 40
1.05
100
AcDbArc
 50
270.0
 51
90.0
  0
LINE
  5
5E
102
{ACAD_REACTORS
330
B16
102
}
330
1D
100
AcDbEntity
  8
24
  6
Continuous
 62
     7
100
AcDbLine
 10
8.0
 20
10.9
 30
0.0
 11
8.0
 21
8.0
 31
0.0
  0
LINE
  5
5F
102
{ACAD_REACTORS
330
B16
102
}
330
1D
100
AcDbEntity
  8
24
  6
Continuous
 62
     7
100
AcDbLine
 10
8.0
 20
8.0
 30
0.0
 11
48.0
 21
5.0
 31
0.0
  0
LINE
  5
60
102
{ACAD_REACTORS
330
B16
102
}
330
1D
100
AcDbEntity
  8
24
  6
Continuous
 62
     7
100
AcDbLine
 10
48.0
 20
5.0
 30
0.0
 11
87.0
 21
5.0
 31
0.0
  0
LINE
  5
61
102
{ACAD_REACTORS
330
B16
102
}
330
1D
100
AcDbEntity
  8
24
  6
Continuous
 62
     7
100
AcDbLine
 10
87.0
 20
5.0
 30
0.0
 11
127.0
 21
8.0
 31
0.0
  0
LINE
  5
62
102
{ACAD_REACTORS
330
B16
102
}
330
1D
100
AcDbEntity
  8
24
  6
Continuous
 62
     7
100
AcDbLine
 10
127.0
 20
8.0
 30
0.0
 11
127.0
 21
10.9
 31
0.0
  0
ARC
  5
63
102
{ACAD_REACTORS
330
B16
102
}
330
1D
100
AcDbEntity
  8
24
  6
Continuous
 62
     7
100
AcDbCircle
 10
127.0
 20
11.95
 30
0.0
 40
1.05
100
AcDbArc
 50
90.0
 51
270.0
  0
ARC
  5
64
102
{ACAD_REACTORS
330
B16
102
}
330
1D
100
AcDbEntity
  8
24
  6
Continuous
 62
     7
100
AcDbCircle
 10
49.0
 20
7.95
 30
0.0
 40
1.05
100
AcDbArc
 50
180.0
 51
0.0
  0
ARC
  5
65
102
{ACAD_REACTORS
330
B16
102
}
330
1D
100
AcDbEntity
  8
24
  6
Continuous
 62
     7
100
AcDbCircle
 10
49.0
 20
13.05
 30
0.0
 40
1.05
100
AcDbArc
 50
0.0
 51
180.0
  0
ARC
  5
66
102
{ACAD_REACTORS
330
B16
102
}
330
1D
100
AcDbEntity
  8
24
  6
Continuous
 62
     7
100
AcDbCircle
 10
86.0
 20
13.05
 30
0.0
 40
1.05
100
AcDbArc
 50
0.0
 51
180.0
  0
ARC
  5
67
102
{ACAD_REACTORS
330
B16
102
}
330
1D
100
AcDbEntity
  8
24
  6
Continuous
 62
     7
100
AcDbCircle
 10
86.0
 20
7.95
 30
0.0
 40
1.05
100
AcDbArc
 50
180.0
 51
0.0
  0
LINE
  5
68
102
{ACAD_REACTORS
330
B16
102
}
330
1D
100
AcDbEntity
  8
1
  6
Continuous
 62
     7
100
AcDbLine
 10
3.9
 20
34.0
 30
0.0
 11
3.9
 21
12.0
 31
0.0
  0
LINE
  5
69
102
{ACAD_REACTORS
330
B16
102
}
330
1D
100
AcDbEntity
  8
1
  6
Continuous
 62
     7
100
AcDbLine
 10
3.9
 20
12.0
 30
0.0
 11
8.0
 21
12.0
 31
0.0
  0
LINE
  5
6A
102
{ACAD_REACTORS
330
B16
102
}
330
1D
100
AcDbEntity
  8
1
  6
Continuous
 62
     7
100
AcDbLine
 10
8.0
 20
12.0
 30
0.0
 11
8.0
 21
34.0
 31
0.0
  0
LINE
  5
6B
102
{ACAD_REACTORS
330
B16
102
}
330
1D
100
AcDbEntity
  8
1
  6
Continuous
 62
     7
100
AcDbLine
 10
8.0
 20
34.0
 30
0.0
 11
3.9
 21
34.0
 31
0.0
  0
LINE
  5
6C
102
{ACAD_REACTORS
330
B16
102
}
330
1D
100
AcDbEntity
  8
1
  6
Continuous
 62
     7
100
AcDbLine
 10
131.1
 20
34.0
 30
0.0
 11
131.1
 21
12.0
 31
0.0
  0
LINE
  5
6D
102
{ACAD_REACTORS
330
B16
102
}
330
1D
100
AcDbEntity
  8
1
  6
Continuous
 62
     7
100
AcDbLine
 10
131.1
 20
12.0
 30
0.0
 11
127.0
 21
12.0
 31
0.0
  0
LINE
  5
6E
102
{ACAD_REACTORS
330
B16
102
}
330
1D
100
AcDbEntity
  8
1
  6
Continuous
 62
     7
100
AcDbLine
 10
127.0
 20
12.0
 30
0.0
 11
127.0
 21
34.0
 31
0.0
  0
LINE
  5
6F
102
{ACAD_REACTORS
330
B16
102
}
330
1D
100
AcDbEntity
  8
1
  6
Continuous
 62
     7
100
AcDbLine
 10
127.0
 20
34.0
 30
0.0
 11
131.1
 21
34.0
 31
0.0
  0
ARC
  5
70
102
{ACAD_REACTORS
330
B13
102
}
330
1D
100
AcDbEntity
  8
23
  6
Continuous
 62
     7
100
AcDbCircle
 10
19.81165754607557
 20
156.942632
 30
0.0
 40
2.0
100
AcDbArc
 50
103.3261250000002
 51
180.0
  0
ARC
  5
71
102
{ACAD_REACTORS
330
B13
102
}
330
1D
100
AcDbEntity
  8
23
  6
Continuous
 62
     7
100
AcDbCircle
 10
19.81165754607557
 20
141.521954
 30
0.0
 40
2.0
100
AcDbArc
 50
180.0
 51
290.4349649999997
  0
LINE
  5
72
102
{ACAD_REACTORS
330
B13
102
}
330
1D
100
AcDbEntity
  8
23
  6
Continuous
 62
     7
100
AcDbLine
 10
17.81165754607557
 20
141.521954
 30
0.0
 11
17.81165754607557
 21
156.942632
 31
0.0
  0
LINE
  5
73
102
{ACAD_REACTORS
330
B13
102
}
330
1D
100
AcDbEntity
  8
23
  6
Continuous
 62
     7
100
AcDbLine
 10
73.78807854607558
 20
159.498794
 30
0.0
 11
20.50994554607556
 21
139.647816
 31
0.0
  0
ARC
  5
74
102
{ACAD_REACTORS
330
B13
102
}
330
1D
100
AcDbEntity
  8
23
  6
Continuous
 62
     7
100
AcDbCircle
 10
71.69321454607555
 20
165.121209
 30
0.0
 40
6.0
100
AcDbArc
 50
290.4349650000001
 51
103.3261249999999
  0
LINE
  5
75
102
{ACAD_REACTORS
330
B13
102
}
330
1D
100
AcDbEntity
  8
23
  6
Continuous
 62
     7
100
AcDbLine
 10
19.35067054607558
 20
158.88878
 30
0.0
 11
70.31025354607559
 21
170.959652
 31
0.0
  0
CIRCLE
  5
76
102
{ACAD_REACTORS
330
B13
102
}
330
1D
100
AcDbEntity
  8
23
  6
Continuous
 62
     7
100
AcDbCircle
 10
12.81165754607557
 20
152.6
 30
0.0
 40
1.55
  0
CIRCLE
  5
77
102
{ACAD_REACTORS
330
B13
102
}
330
1D
100
AcDbEntity
  8
23
  6
Continuous
 62
     7
100
AcDbCircle
 10
12.81165754607557
 20
136.6
 30
0.0
 40
1.55
  0
LINE
  5
78
102
{ACAD_REACTORS
330
B13
102
}
330
1D
100
AcDbEntity
  8
23
  6
Continuous
 62
     7
100
AcDbLine
 10
75.18465454607556
 20
155.750518
 30
0.0
 11
4.999157546075568
 21
129.6
 31
0.0
  0
ARC
  5
79
102
{ACAD_REACTORS
330
B13
102
}
330
1D
100
AcDbEntity
  8
23
  6
Continuous
 62
     7
100
AcDbCircle
 10
71.69321454607555
 20
165.121209
 30
0.0
 40
10.0
100
AcDbArc
 50
290.4349650000001
 51
103.3261250000001
  0
LINE
  5
7A
102
{ACAD_REACTORS
330
B13
102
}
330
1D
100
AcDbEntity
  8
23
  6
Continuous
 62
     7
100
AcDbLine
 10
4.999157546075568
 20
159.6
 30
0.0
 11
69.38827954607555
 21
174.851948
 31
0.0
  0
LINE
  5
7B
102
{ACAD_REACTORS
330
B13
102
}
330
1D
100
AcDbEntity
  8
23
  6
Continuous
 62
     7
100
AcDbLine
 10
4.999157546075568
 20
129.6
 30
0.0
 11
4.999157546075568
 21
159.6
 31
0.0
  0
ARC
  5
7C
102
{ACAD_REACTORS
330
B11
102
}
330
1D
100
AcDbEntity
  8
23
  6
Continuous
 62
     7
100
AcDbCircle
 10
170.1875
 20
167.842632
 30
0.0
 40
2.0
100
AcDbArc
 50
0.0
 51
76.67387499999963
  0
ARC
  5
7D
102
{ACAD_REACTORS
330
B11
102
}
330
1D
100
AcDbEntity
  8
23
  6
Continuous
 62
     7
100
AcDbCircle
 10
170.1875
 20
152.421954
 30
0.0
 40
2.0
100
AcDbArc
 50
249.565035
 51
0.0
  0
LINE
  5
7E
102
{ACAD_REACTORS
330
B11
102
}
330
1D
100
AcDbEntity
  8
23
  6
Continuous
 62
     7
100
AcDbLine
 10
172.1875
 20
152.421954
 30
0.0
 11
172.1875
 21
167.842632
 31
0.0
  0
LINE
  5
7F
102
{ACAD_REACTORS
330
B11
102
}
330
1D
100
AcDbEntity
  8
23
  6
Continuous
 62
     7
100
AcDbLine
 10
116.211079
 20
170.398794
 30
0.0
 11
169.489212
 21
150.547816
 31
0.0
  0
ARC
  5
80
102
{ACAD_REACTORS
330
B11
102
}
330
1D
100
AcDbEntity
  8
23
  6
Continuous
 62
     7
100
AcDbCircle
 10
118.305943
 20
176.0212089999999
 30
0.0
 40
6.0
100
AcDbArc
 50
76.67387500000015
 51
249.5650349999999
  0
LINE
  5
81
102
{ACAD_REACTORS
330
B11
102
}
330
1D
100
AcDbEntity
  8
23
  6
Continuous
 62
     7
100
AcDbLine
 10
170.648487
 20
169.78878
 30
0.0
 11
119.688904
 21
181.859652
 31
0.0
  0
CIRCLE
  5
82
102
{ACAD_REACTORS
330
B11
102
}
330
1D
100
AcDbEntity
  8
23
  6
Continuous
 62
     7
100
AcDbCircle
 10
177.1875
 20
163.4999999999999
 30
0.0
 40
1.55
  0
CIRCLE
  5
83
102
{ACAD_REACTORS
330
B11
102
}
330
1D
100
AcDbEntity
  8
23
  6
Continuous
 62
     7
100
AcDbCircle
 10
177.1875
 20
147.4999999999999
 30
0.0
 40
1.55
  0
LINE
  5
84
102
{ACAD_REACTORS
330
B11
102
}
330
1D
100
AcDbEntity
  8
23
  6
Continuous
 62
     7
100
AcDbLine
 10
114.814503
 20
166.650518
 30
0.0
 11
185.0
 21
140.5
 31
0.0
  0
ARC
  5
85
102
{ACAD_REACTORS
330
B11
102
}
330
1D
100
AcDbEntity
  8
23
  6
Continuous
 62
     7
100
AcDbCircle
 10
118.305943
 20
176.0212089999999
 30
0.0
 40
10.0
100
AcDbArc
 50
76.67387499999991
 51
249.5650349999999
  0
LINE
  5
86
102
{ACAD_REACTORS
330
B11
102
}
330
1D
100
AcDbEntity
  8
23
  6
Continuous
 62
     7
100
AcDbLine
 10
185.0
 20
170.5
 30
0.0
 11
120.610878
 21
185.751948
 31
0.0
  0
LINE
  5
87
102
{ACAD_REACTORS
330
B11
102
}
330
1D
100
AcDbEntity
  8
23
  6
Continuous
 62
     7
100
AcDbLine
 10
185.0
 20
140.5
 30
0.0
 11
185.0
 21
170.5
 31
0.0
  0
CIRCLE
  5
88
102
{ACAD_REACTORS
330
B14
102
}
330
1D
100
AcDbEntity
  8
23
  6
Continuous
 62
     7
100
AcDbCircle
 10
10.0
 20
100.1962892317502
 30
0.0
 40
1.2
  0
LINE
  5
89
102
{ACAD_REACTORS
330
B14
102
}
330
1D
100
AcDbEntity
  8
23
  6
Continuous
 62
     7
100
AcDbLine
 10
8.134325999999987
 20
102.3234362317502
 30
0.0
 11
9.090673000000038
 21
102.8755832317502
 31
0.0
  0
LINE
  5
8A
102
{ACAD_REACTORS
330
B14
102
}
330
1D
100
AcDbEntity
  8
23
  6
Continuous
 62
     7
100
AcDbLine
 10
10.90932600000002
 20
102.8755832317502
 30
0.0
 11
11.86567300000002
 21
102.3234362317502
 31
0.0
  0
LINE
  5
8B
102
{ACAD_REACTORS
330
B14
102
}
330
1D
100
AcDbEntity
  8
23
  6
Continuous
 62
     7
100
AcDbLine
 10
11.86567300000002
 20
98.06914223175022
 30
0.0
 11
10.90932600000002
 21
97.51699523175023
 31
0.0
  0
LINE
  5
8C
102
{ACAD_REACTORS
330
B14
102
}
330
1D
100
AcDbEntity
  8
23
  6
Continuous
 62
     7
100
AcDbLine
 10
12.77499999999998
 20
100.7484362317502
 30
0.0
 11
12.77499999999998
 21
99.64414223175021
 31
0.0
  0
LINE
  5
8D
102
{ACAD_REACTORS
330
B14
102
}
330
1D
100
AcDbEntity
  8
23
  6
Continuous
 62
     7
100
AcDbLine
 10
7.225000000000023
 20
99.64414223175021
 30
0.0
 11
7.225000000000023
 21
100.7484362317502
 31
0.0
  0
LINE
  5
8E
102
{ACAD_REACTORS
330
B14
102
}
330
1D
100
AcDbEntity
  8
23
  6
Continuous
 62
     7
100
AcDbLine
 10
9.090673000000038
 20
97.51699523175023
 30
0.0
 11
8.134325999999987
 21
98.06914223175022
 31
0.0
  0
ARC
  5
8F
102
{ACAD_REACTORS
330
B14
102
}
330
1D
100
AcDbEntity
  8
23
  6
Continuous
 62
     7
100
AcDbCircle
 10
8.134325999999987
 20
99.11914223175023
 30
0.0
 40
1.05
100
AcDbArc
 50
150.0000000000005
 51
270.0
  0
ARC
  5
90
102
{ACAD_REACTORS
330
B14
102
}
330
1D
100
AcDbEntity
  8
23
  6
Continuous
 62
     7
100
AcDbCircle
 10
11.86567300000002
 20
99.11914223175023
 30
0.0
 40
1.05
100
AcDbArc
 50
270.0
 51
29.99999999999853
  0
ARC
  5
91
102
{ACAD_REACTORS
330
B14
102
}
330
1D
100
AcDbEntity
  8
23
  6
Continuous
 62
     7
100
AcDbCircle
 10
11.86567300000002
 20
101.2734362317502
 30
0.0
 40
1.05
100
AcDbArc
 50
329.9999999999969
 51
90.0
  0
ARC
  5
92
102
{ACAD_REACTORS
330
B14
102
}
330
1D
100
AcDbEntity
  8
23
  6
Continuous
 62
     7
100
AcDbCircle
 10
8.134325999999987
 20
101.2734362317502
 30
0.0
 40
1.05
100
AcDbArc
 50
90.0
 51
210.0000000000031
  0
ARC
  5
93
102
{ACAD_REACTORS
330
B14
102
}
330
1D
100
AcDbEntity
  8
23
  6
Continuous
 62
     7
100
AcDbCircle
 10
10.0
 20
102.3505832317502
 30
0.0
 40
1.05
100
AcDbArc
 50
30.00000000000309
 51
149.9999999999969
  0
ARC
  5
94
102
{ACAD_REACTORS
330
B14
102
}
330
1D
100
AcDbEntity
  8
23
  6
Continuous
 62
     7
100
AcDbCircle
 10
10.0
 20
98.0419952317502
 30
0.0
 40
1.05
100
AcDbArc
 50
210.0000000000031
 51
329.9999999999969
  0
CIRCLE
  5
95
102
{ACAD_REACTORS
330
B14
102
}
330
1D
100
AcDbEntity
  8
23
  6
Continuous
 62
     7
100
AcDbCircle
 10
46.5
 20
100.1962892317502
 30
0.0
 40
1.2
  0
LINE
  5
96
102
{ACAD_REACTORS
330
B14
102
}
330
1D
100
AcDbEntity
  8
23
  6
Continuous
 62
     7
100
AcDbLine
 10
49.27499999999998
 20
100.7484362317502
 30
0.0
 11
49.27499999999998
 21
99.64414223175021
 31
0.0
  0
LINE
  5
97
102
{ACAD_REACTORS
330
B14
102
}
330
1D
100
AcDbEntity
  8
23
  6
Continuous
 62
     7
100
AcDbLine
 10
44.63432599999999
 20
102.3234362317502
 30
0.0
 11
45.59067300000004
 21
102.8755832317502
 31
0.0
  0
LINE
  5
98
102
{ACAD_REACTORS
330
B14
102
}
330
1D
100
AcDbEntity
  8
23
  6
Continuous
 62
     7
100
AcDbLine
 10
47.40932600000002
 20
102.8755832317502
 30
0.0
 11
48.36567300000002
 21
102.3234362317502
 31
0.0
  0
LINE
  5
99
102
{ACAD_REACTORS
330
B14
102
}
330
1D
100
AcDbEntity
  8
23
  6
Continuous
 62
     7
100
AcDbLine
 10
45.59067300000004
 20
97.51699523175023
 30
0.0
 11
44.63432599999999
 21
98.06914223175022
 31
0.0
  0
LINE
  5
9A
102
{ACAD_REACTORS
330
B14
102
}
330
1D
100
AcDbEntity
  8
23
  6
Continuous
 62
     7
100
AcDbLine
 10
43.72500000000002
 20
99.64414223175021
 30
0.0
 11
43.72500000000002
 21
100.7484362317502
 31
0.0
  0
LINE
  5
9B
102
{ACAD_REACTORS
330
B14
102
}
330
1D
100
AcDbEntity
  8
23
  6
Continuous
 62
     7
100
AcDbLine
 10
48.36567300000002
 20
98.06914223175022
 30
0.0
 11
47.40932600000002
 21
97.51699523175023
 31
0.0
  0
ARC
  5
9C
102
{ACAD_REACTORS
330
B14
102
}
330
1D
100
AcDbEntity
  8
23
  6
Continuous
 62
     7
100
AcDbCircle
 10
46.5
 20
98.0419952317502
 30
0.0
 40
1.05
100
AcDbArc
 50
210.0000000000031
 51
329.9999999999969
  0
ARC
  5
9D
102
{ACAD_REACTORS
330
B14
102
}
330
1D
100
AcDbEntity
  8
23
  6
Continuous
 62
     7
100
AcDbCircle
 10
46.5
 20
102.3505832317502
 30
0.0
 40
1.05
100
AcDbArc
 50
30.00000000000309
 51
149.9999999999969
  0
ARC
  5
9E
102
{ACAD_REACTORS
330
B14
102
}
330
1D
100
AcDbEntity
  8
23
  6
Continuous
 62
     7
100
AcDbCircle
 10
44.63432599999999
 20
101.2734362317502
 30
0.0
 40
1.05
100
AcDbArc
 50
90.0
 51
210.0000000000031
  0
ARC
  5
9F
102
{ACAD_REACTORS
330
B14
102
}
330
1D
100
AcDbEntity
  8
23
  6
Continuous
 62
     7
100
AcDbCircle
 10
48.36567300000002
 20
101.2734362317502
 30
0.0
 40
1.05
100
AcDbArc
 50
329.9999999999969
 51
90.0
  0
ARC
  5
A0
102
{ACAD_REACTORS
330
B14
102
}
330
1D
100
AcDbEntity
  8
23
  6
Continuous
 62
     7
100
AcDbCircle
 10
48.36567300000002
 20
99.11914223175023
 30
0.0
 40
1.05
100
AcDbArc
 50
270.0
 51
29.99999999999944
  0
ARC
  5
A1
102
{ACAD_REACTORS
330
B14
102
}
330
1D
100
AcDbEntity
  8
23
  6
Continuous
 62
     7
100
AcDbCircle
 10
44.63432599999999
 20
99.11914223175023
 30
0.0
 40
1.05
100
AcDbArc
 50
150.0000000000006
 51
270.0
  0
ARC
  5
A2
102
{ACAD_REACTORS
330
B14
102
}
330
1D
100
AcDbEntity
  8
23
  6
Continuous
 62
     7
100
AcDbCircle
 10
38.99557600000003
 20
124.1462892317502
 30
0.0
 40
1.05
100
AcDbArc
 50
15.00000000000165
 51
90.0
  0
ARC
  5
A3
102
{ACAD_REACTORS
330
B14
102
}
330
1D
100
AcDbEntity
  8
23
  6
Continuous
 62
     7
100
AcDbCircle
 10
17.50442299999997
 20
124.1462892317502
 30
0.0
 40
1.05
100
AcDbArc
 50
90.0
 51
164.9999999999984
  0
ARC
  5
A4
102
{ACAD_REACTORS
330
B14
102
}
330
1D
100
AcDbEntity
  8
23
  6
Continuous
 62
     7
100
AcDbCircle
 10
44.05981600000001
 20
105.2462892317502
 30
0.0
 40
1.05
100
AcDbArc
 50
270.0
 51
15.00000000000091
  0
ARC
  5
A5
102
{ACAD_REACTORS
330
B14
102
}
330
1D
100
AcDbEntity
  8
23
  6
Continuous
 62
     7
100
AcDbCircle
 10
12.44018299999999
 20
105.2462892317502
 30
0.0
 40
1.05
100
AcDbArc
 50
164.9999999999991
 51
270.0
  0
LINE
  5
A6
102
{ACAD_REACTORS
330
B14
102
}
330
1D
100
AcDbEntity
  8
23
  6
Continuous
 62
     7
100
AcDbLine
 10
17.50442299999997
 20
125.1962892317502
 30
0.0
 11
38.99557600000003
 21
125.1962892317502
 31
0.0
  0
LINE
  5
A7
102
{ACAD_REACTORS
330
B14
102
}
330
1D
100
AcDbEntity
  8
23
  6
Continuous
 62
     7
100
AcDbLine
 10
11.42596100000003
 20
105.5180492317502
 30
0.0
 11
16.49020100000001
 21
124.4180492317502
 31
0.0
  0
LINE
  5
A8
102
{ACAD_REACTORS
330
B14
102
}
330
1D
100
AcDbEntity
  8
23
  6
Continuous
 62
     7
100
AcDbLine
 10
40.00979799999999
 20
124.4180492317502
 30
0.0
 11
45.07403799999997
 21
105.5180492317502
 31
0.0
  0
LINE
  5
A9
102
{ACAD_REACTORS
330
B14
102
}
330
1D
100
AcDbEntity
  8
23
  6
Continuous
 62
     7
100
AcDbLine
 10
44.05981600000001
 20
104.1962892317502
 30
0.0
 11
12.44018299999999
 21
104.1962892317502
 31
0.0
  0
LINE
  5
AA
102
{ACAD_REACTORS
330
B14
102
}
330
1D
100
AcDbEntity
  8
23
  6
Continuous
 62
     7
100
AcDbLine
 10
11.94999999999999
 20
90.6962892317502
 30
0.0
 11
5.0
 21
90.6962892317502
 31
0.0
  0
LINE
  5
AB
102
{ACAD_REACTORS
330
B14
102
}
330
1D
100
AcDbEntity
  8
23
  6
Continuous
 62
     7
100
AcDbLine
 10
11.94999999999999
 20
93.64628923175019
 30
0.0
 11
11.94999999999999
 21
90.6962892317502
 31
0.0
  0
ARC
  5
AC
102
{ACAD_REACTORS
330
B14
102
}
330
1D
100
AcDbEntity
  8
23
  6
Continuous
 62
     7
100
AcDbCircle
 10
11.94999999999999
 20
94.6962892317502
 30
0.0
 40
1.05
100
AcDbArc
 50
90.0
 51
270.0
  0
LINE
  5
AD
102
{ACAD_REACTORS
330
B14
102
}
330
1D
100
AcDbEntity
  8
23
  6
Continuous
 62
     7
100
AcDbLine
 10
44.55000000000001
 20
95.74628923175021
 30
0.0
 11
11.94999999999999
 21
95.74628923175021
 31
0.0
  0
ARC
  5
AE
102
{ACAD_REACTORS
330
B14
102
}
330
1D
100
AcDbEntity
  8
23
  6
Continuous
 62
     7
100
AcDbCircle
 10
44.55000000000001
 20
94.6962892317502
 30
0.0
 40
1.05
100
AcDbArc
 50
270.0
 51
90.0
  0
LINE
  5
AF
102
{ACAD_REACTORS
330
B14
102
}
330
1D
100
AcDbEntity
  8
23
  6
Continuous
 62
     7
100
AcDbLine
 10
44.55000000000001
 20
90.6962892317502
 30
0.0
 11
44.55000000000001
 21
93.64628923175019
 31
0.0
  0
LINE
  5
B0
102
{ACAD_REACTORS
330
B14
102
}
330
1D
100
AcDbEntity
  8
23
  6
Continuous
 62
     7
100
AcDbLine
 10
51.5
 20
90.6962892317502
 30
0.0
 11
44.55000000000001
 21
90.6962892317502
 31
0.0
  0
LINE
  5
B1
102
{ACAD_REACTORS
330
B14
102
}
330
1D
100
AcDbEntity
  8
23
  6
Continuous
 62
     7
100
AcDbLine
 10
51.5
 20
100.8545512317502
 30
0.0
 11
51.5
 21
90.6962892317502
 31
0.0
  0
LINE
  5
B2
102
{ACAD_REACTORS
330
B14
102
}
330
1D
100
AcDbEntity
  8
23
  6
Continuous
 62
     7
100
AcDbLine
 10
43.63790499999999
 20
130.1962892317502
 30
0.0
 11
51.5
 21
100.8545512317502
 31
0.0
  0
LINE
  5
B3
102
{ACAD_REACTORS
330
B14
102
}
330
1D
100
AcDbEntity
  8
23
  6
Continuous
 62
     7
100
AcDbLine
 10
12.86209400000001
 20
130.1962892317502
 30
0.0
 11
43.63790499999999
 21
130.1962892317502
 31
0.0
  0
LINE
  5
B4
102
{ACAD_REACTORS
330
B14
102
}
330
1D
100
AcDbEntity
  8
23
  6
Continuous
 62
     7
100
AcDbLine
 10
5.0
 20
100.8545512317502
 30
0.0
 11
12.86209400000001
 21
130.1962892317502
 31
0.0
  0
LINE
  5
B5
102
{ACAD_REACTORS
330
B14
102
}
330
1D
100
AcDbEntity
  8
23
  6
Continuous
 62
     7
100
AcDbLine
 10
5.0
 20
90.6962892317502
 30
0.0
 11
5.0
 21
100.8545512317502
 31
0.0
  0
CIRCLE
  5
B6
102
{ACAD_REACTORS
330
B12
102
}
330
1D
100
AcDbEntity
  8
23
  6
Continuous
 62
     7
100
AcDbCircle
 10
95.1
 20
100.1999999999999
 30
0.0
 40
1.2
  0
LINE
  5
B7
102
{ACAD_REACTORS
330
B12
102
}
330
1D
100
AcDbEntity
  8
23
  6
Continuous
 62
     7
100
AcDbLine
 10
96.965674
 20
102.327147
 30
0.0
 11
96.00932699999996
 21
102.879294
 31
0.0
  0
LINE
  5
B8
102
{ACAD_REACTORS
330
B12
102
}
330
1D
100
AcDbEntity
  8
23
  6
Continuous
 62
     7
100
AcDbLine
 10
94.19067399999997
 20
102.879294
 30
0.0
 11
93.23432699999998
 21
102.327147
 31
0.0
  0
LINE
  5
B9
102
{ACAD_REACTORS
330
B12
102
}
330
1D
100
AcDbEntity
  8
23
  6
Continuous
 62
     7
100
AcDbLine
 10
93.23432699999998
 20
98.07285299999997
 30
0.0
 11
94.19067399999997
 21
97.52070599999998
 31
0.0
  0
LINE
  5
BA
102
{ACAD_REACTORS
330
B12
102
}
330
1D
100
AcDbEntity
  8
23
  6
Continuous
 62
     7
100
AcDbLine
 10
92.32499999999996
 20
100.7521469999999
 30
0.0
 11
92.32499999999996
 21
99.64785299999996
 31
0.0
  0
LINE
  5
BB
102
{ACAD_REACTORS
330
B12
102
}
330
1D
100
AcDbEntity
  8
23
  6
Continuous
 62
     7
100
AcDbLine
 10
97.87499999999997
 20
99.64785299999996
 30
0.0
 11
97.87499999999997
 21
100.7521469999999
 31
0.0
  0
LINE
  5
BC
102
{ACAD_REACTORS
330
B12
102
}
330
1D
100
AcDbEntity
  8
23
  6
Continuous
 62
     7
100
AcDbLine
 10
96.00932699999996
 20
97.52070599999998
 30
0.0
 11
96.965674
 21
98.07285299999997
 31
0.0
  0
ARC
  5
BD
102
{ACAD_REACTORS
330
B12
102
}
330
1D
100
AcDbEntity
  8
23
  6
Continuous
 62
     7
100
AcDbCircle
 10
96.965674
 20
99.12285299999998
 30
0.0
 40
1.05
100
AcDbArc
 50
270.0
 51
29.99999999999944
  0
ARC
  5
BE
102
{ACAD_REACTORS
330
B12
102
}
330
1D
100
AcDbEntity
  8
23
  6
Continuous
 62
     7
100
AcDbCircle
 10
93.23432699999998
 20
99.12285299999998
 30
0.0
 40
1.05
100
AcDbArc
 50
150.0000000000016
 51
270.0
  0
ARC
  5
BF
102
{ACAD_REACTORS
330
B12
102
}
330
1D
100
AcDbEntity
  8
23
  6
Continuous
 62
     7
100
AcDbCircle
 10
93.23432699999998
 20
101.277147
 30
0.0
 40
1.05
100
AcDbArc
 50
90.0
 51
210.0000000000033
  0
ARC
  5
C0
102
{ACAD_REACTORS
330
B12
102
}
330
1D
100
AcDbEntity
  8
23
  6
Continuous
 62
     7
100
AcDbCircle
 10
96.965674
 20
101.277147
 30
0.0
 40
1.05
100
AcDbArc
 50
329.9999999999967
 51
90.0
  0
ARC
  5
C1
102
{ACAD_REACTORS
330
B12
102
}
330
1D
100
AcDbEntity
  8
23
  6
Continuous
 62
     7
100
AcDbCircle
 10
95.1
 20
102.3542939999999
 30
0.0
 40
1.05
100
AcDbArc
 50
30.00000000000329
 51
149.9999999999971
  0
ARC
  5
C2
102
{ACAD_REACTORS
330
B12
102
}
330
1D
100
AcDbEntity
  8
23
  6
Continuous
 62
     7
100
AcDbCircle
 10
95.1
 20
98.04570599999995
 30
0.0
 40
1.05
100
AcDbArc
 50
209.9999999999966
 51
329.9999999999967
  0
CIRCLE
  5
C3
102
{ACAD_REACTORS
330
B12
102
}
330
1D
100
AcDbEntity
  8
23
  6
Continuous
 62
     7
100
AcDbCircle
 10
58.6
 20
100.2
 30
0.0
 40
1.2
  0
LINE
  5
C4
102
{ACAD_REACTORS
330
B12
102
}
330
1D
100
AcDbEntity
  8
23
  6
Continuous
 62
     7
100
AcDbLine
 10
55.82499999999997
 20
100.752147
 30
0.0
 11
55.82499999999997
 21
99.64785300000001
 31
0.0
  0
LINE
  5
C5
102
{ACAD_REACTORS
330
B12
102
}
330
1D
100
AcDbEntity
  8
23
  6
Continuous
 62
     7
100
AcDbLine
 10
60.46567400000001
 20
102.327147
 30
0.0
 11
59.50932699999996
 21
102.879294
 31
0.0
  0
LINE
  5
C6
102
{ACAD_REACTORS
330
B12
102
}
330
1D
100
AcDbEntity
  8
23
  6
Continuous
 62
     7
100
AcDbLine
 10
57.69067399999998
 20
102.879294
 30
0.0
 11
56.73432699999999
 21
102.327147
 31
0.0
  0
LINE
  5
C7
102
{ACAD_REACTORS
330
B12
102
}
330
1D
100
AcDbEntity
  8
23
  6
Continuous
 62
     7
100
AcDbLine
 10
59.50932699999996
 20
97.52070600000003
 30
0.0
 11
60.46567400000001
 21
98.07285300000002
 31
0.0
  0
LINE
  5
C8
102
{ACAD_REACTORS
330
B12
102
}
330
1D
100
AcDbEntity
  8
23
  6
Continuous
 62
     7
100
AcDbLine
 10
61.37499999999998
 20
99.64785300000001
 30
0.0
 11
61.37499999999998
 21
100.752147
 31
0.0
  0
LINE
  5
C9
102
{ACAD_REACTORS
330
B12
102
}
330
1D
100
AcDbEntity
  8
23
  6
Continuous
 62
     7
100
AcDbLine
 10
56.73432699999999
 20
98.07285300000002
 30
0.0
 11
57.69067399999998
 21
97.52070600000003
 31
0.0
  0
ARC
  5
CA
102
{ACAD_REACTORS
330
B12
102
}
330
1D
100
AcDbEntity
  8
23
  6
Continuous
 62
     7
100
AcDbCircle
 10
58.6
 20
98.04570600000001
 30
0.0
 40
1.05
100
AcDbArc
 50
210.0000000000031
 51
329.9999999999969
  0
ARC
  5
CB
102
{ACAD_REACTORS
330
B12
102
}
330
1D
100
AcDbEntity
  8
23
  6
Continuous
 62
     7
100
AcDbCircle
 10
58.6
 20
102.354294
 30
0.0
 40
1.05
100
AcDbArc
 50
30.00000000000309
 51
149.9999999999969
  0
ARC
  5
CC
102
{ACAD_REACTORS
330
B12
102
}
330
1D
100
AcDbEntity
  8
23
  6
Continuous
 62
     7
100
AcDbCircle
 10
60.46567400000001
 20
101.277147
 30
0.0
 40
1.05
100
AcDbArc
 50
329.9999999999969
 51
90.0
  0
ARC
  5
CD
102
{ACAD_REACTORS
330
B12
102
}
330
1D
100
AcDbEntity
  8
23
  6
Continuous
 62
     7
100
AcDbCircle
 10
56.73432699999999
 20
101.277147
 30
0.0
 40
1.05
100
AcDbArc
 50
90.0
 51
210.0000000000031
  0
ARC
  5
CE
102
{ACAD_REACTORS
330
B12
102
}
330
1D
100
AcDbEntity
  8
23
  6
Continuous
 62
     7
100
AcDbCircle
 10
56.73432699999999
 20
99.12285300000003
 30
0.0
 40
1.05
100
AcDbArc
 50
150.0000000000014
 51
270.0
  0
ARC
  5
CF
102
{ACAD_REACTORS
330
B12
102
}
330
1D
100
AcDbEntity
  8
23
  6
Continuous
 62
     7
100
AcDbCircle
 10
60.46567400000001
 20
99.12285300000003
 30
0.0
 40
1.05
100
AcDbArc
 50
270.0
 51
29.99999999999944
  0
ARC
  5
D0
102
{ACAD_REACTORS
330
B12
102
}
330
1D
100
AcDbEntity
  8
23
  6
Continuous
 62
     7
100
AcDbCircle
 10
66.10442399999997
 20
124.15
 30
0.0
 40
1.05
100
AcDbArc
 50
90.0
 51
164.9999999999983
  0
ARC
  5
D1
102
{ACAD_REACTORS
330
B12
102
}
330
1D
100
AcDbEntity
  8
23
  6
Continuous
 62
     7
100
AcDbCircle
 10
87.59557699999996
 20
124.1499999999999
 30
0.0
 40
1.05
100
AcDbArc
 50
15.0000000000008
 51
90.0
  0
ARC
  5
D2
102
{ACAD_REACTORS
330
B12
102
}
330
1D
100
AcDbEntity
  8
23
  6
Continuous
 62
     7
100
AcDbCircle
 10
61.04018399999999
 20
105.25
 30
0.0
 40
1.05
100
AcDbArc
 50
164.9999999999991
 51
270.0
  0
ARC
  5
D3
102
{ACAD_REACTORS
330
B12
102
}
330
1D
100
AcDbEntity
  8
23
  6
Continuous
 62
     7
100
AcDbCircle
 10
92.65981699999995
 20
105.25
 30
0.0
 40
1.05
100
AcDbArc
 50
270.0
 51
15.0000000000008
  0
LINE
  5
D4
102
{ACAD_REACTORS
330
B12
102
}
330
1D
100
AcDbEntity
  8
23
  6
Continuous
 62
     7
100
AcDbLine
 10
87.59557699999996
 20
125.1999999999999
 30
0.0
 11
66.10442399999997
 21
125.2
 31
0.0
  0
LINE
  5
D5
102
{ACAD_REACTORS
330
B12
102
}
330
1D
100
AcDbEntity
  8
23
  6
Continuous
 62
     7
100
AcDbLine
 10
93.67403899999996
 20
105.52176
 30
0.0
 11
88.60979899999998
 21
124.42176
 31
0.0
  0
LINE
  5
D6
102
{ACAD_REACTORS
330
B12
102
}
330
1D
100
AcDbEntity
  8
23
  6
Continuous
 62
     7
100
AcDbLine
 10
65.09020199999995
 20
124.42176
 30
0.0
 11
60.02596199999997
 21
105.52176
 31
0.0
  0
LINE
  5
D7
102
{ACAD_REACTORS
330
B12
102
}
330
1D
100
AcDbEntity
  8
23
  6
Continuous
 62
     7
100
AcDbLine
 10
61.04018399999999
 20
104.2
 30
0.0
 11
92.65981699999995
 21
104.1999999999999
 31
0.0
  0
LINE
  5
D8
102
{ACAD_REACTORS
330
B12
102
}
330
1D
100
AcDbEntity
  8
23
  6
Continuous
 62
     7
100
AcDbLine
 10
93.14999999999995
 20
90.69999999999995
 30
0.0
 11
100.1
 21
90.69999999999995
 31
0.0
  0
LINE
  5
D9
102
{ACAD_REACTORS
330
B12
102
}
330
1D
100
AcDbEntity
  8
23
  6
Continuous
 62
     7
100
AcDbLine
 10
93.14999999999995
 20
93.64999999999993
 30
0.0
 11
93.14999999999995
 21
90.69999999999995
 31
0.0
  0
ARC
  5
DA
102
{ACAD_REACTORS
330
B12
102
}
330
1D
100
AcDbEntity
  8
23
  6
Continuous
 62
     7
100
AcDbCircle
 10
93.14999999999995
 20
94.69999999999995
 30
0.0
 40
1.05
100
AcDbArc
 50
270.0
 51
90.0
  0
LINE
  5
DB
102
{ACAD_REACTORS
330
B12
102
}
330
1D
100
AcDbEntity
  8
23
  6
Continuous
 62
     7
100
AcDbLine
 10
60.54999999999999
 20
95.75000000000001
 30
0.0
 11
93.14999999999995
 21
95.74999999999996
 31
0.0
  0
ARC
  5
DC
102
{ACAD_REACTORS
330
B12
102
}
330
1D
100
AcDbEntity
  8
23
  6
Continuous
 62
     7
100
AcDbCircle
 10
60.54999999999999
 20
94.7
 30
0.0
 40
1.05
100
AcDbArc
 50
90.0
 51
270.0
  0
LINE
  5
DD
102
{ACAD_REACTORS
330
B12
102
}
330
1D
100
AcDbEntity
  8
23
  6
Continuous
 62
     7
100
AcDbLine
 10
60.54999999999999
 20
90.7
 30
0.0
 11
60.54999999999999
 21
93.64999999999999
 31
0.0
  0
LINE
  5
DE
102
{ACAD_REACTORS
330
B12
102
}
330
1D
100
AcDbEntity
  8
23
  6
Continuous
 62
     7
100
AcDbLine
 10
53.6
 20
90.7
 30
0.0
 11
60.54999999999999
 21
90.7
 31
0.0
  0
LINE
  5
DF
102
{ACAD_REACTORS
330
B12
102
}
330
1D
100
AcDbEntity
  8
23
  6
Continuous
 62
     7
100
AcDbLine
 10
53.6
 20
100.858262
 30
0.0
 11
53.6
 21
90.7
 31
0.0
  0
LINE
  5
E0
102
{ACAD_REACTORS
330
B12
102
}
330
1D
100
AcDbEntity
  8
23
  6
Continuous
 62
     7
100
AcDbLine
 10
61.46209499999996
 20
130.2
 30
0.0
 11
53.6
 21
100.858262
 31
0.0
  0
LINE
  5
E1
102
{ACAD_REACTORS
330
B12
102
}
330
1D
100
AcDbEntity
  8
23
  6
Continuous
 62
     7
100
AcDbLine
 10
92.23790599999998
 20
130.1999999999999
 30
0.0
 11
61.46209499999996
 21
130.2
 31
0.0
  0
LINE
  5
E2
102
{ACAD_REACTORS
330
B12
102
}
330
1D
100
AcDbEntity
  8
23
  6
Continuous
 62
     7
100
AcDbLine
 10
100.1
 20
100.858262
 30
0.0
 11
92.23790599999998
 21
130.1999999999999
 31
0.0
  0
LINE
  5
E3
102
{ACAD_REACTORS
330
B12
102
}
330
1D
100
AcDbEntity
  8
23
  6
Continuous
 62
     7
100
AcDbLine
 10
100.1
 20
90.69999999999995
 30
0.0
 11
100.1
 21
100.858262
 31
0.0
  0
LWPOLYLINE
  5
137
330
1D
100
AcDbEntity
  8
0
100
AcDbPolyline
 90
        4
 70
     1
 43
0.0
 10
0.0
 20
0.0
 10
0.0
 20
299.9999999999998
 10
200.0
 20
299.9999999999998
 10
200.0
 20
0.0
  0
ARC
  5
729
102
{ACAD_REACTORS
330
B68
102
}
330
1D
100
AcDbEntity
  8
23
  6
Continuous
 62
     7
100
AcDbCircle
 10
174.6
 20
34.0
 30
0.0
 40
2.0
100
AcDbArc
 50
0.0
 51
90.0
  0
ARC
  5
72A
102
{ACAD_REACTORS
330
B68
102
}
330
1D
100
AcDbEntity
  8
23
  6
Continuous
 62
     7
100
AcDbCircle
 10
142.1
 20
34.0
 30
0.0
 40
2.0
100
AcDbArc
 50
90.0
 51
180.0
  0
ARC
  5
72B
102
{ACAD_REACTORS
330
B68
102
}
330
1D
100
AcDbEntity
  8
23
  6
Continuous
 62
     7
100
AcDbCircle
 10
142.1
 20
11.0
 30
0.0
 40
2.0
100
AcDbArc
 50
180.0
 51
270.0
  0
ARC
  5
72C
102
{ACAD_REACTORS
330
B68
102
}
330
1D
100
AcDbEntity
  8
23
  6
Continuous
 62
     7
100
AcDbCircle
 10
174.6
 20
11.0
 30
0.0
 40
2.0
100
AcDbArc
 50
270.0
 51
0.0
  0
ARC
  5
72D
102
{ACAD_REACTORS
330
B68
102
}
330
1D
100
AcDbEntity
  8
23
  6
Continuous
 62
     7
100
AcDbCircle
 10
174.6
 20
29.898979
 30
0.0
 40
2.0
100
AcDbArc
 50
281.5369589999965
 51
0.0
  0
ARC
  5
72E
102
{ACAD_REACTORS
330
B68
102
}
330
1D
100
AcDbEntity
  8
23
  6
Continuous
 62
     7
100
AcDbCircle
 10
174.6
 20
20.101021
 30
0.0
 40
2.0
100
AcDbArc
 50
0.0
 51
78.46304100000349
  0
LINE
  5
72F
102
{ACAD_REACTORS
330
B68
102
}
330
1D
100
AcDbEntity
  8
23
  6
Continuous
 62
     7
100
AcDbLine
 10
176.6
 20
34.0
 30
0.0
 11
176.6
 21
29.898979
 31
0.0
  0
LINE
  5
730
102
{ACAD_REACTORS
330
B68
102
}
330
1D
100
AcDbEntity
  8
23
  6
Continuous
 62
     7
100
AcDbLine
 10
140.1
 20
11.0
 30
0.0
 11
140.1
 21
34.0
 31
0.0
  0
LINE
  5
731
102
{ACAD_REACTORS
330
B68
102
}
330
1D
100
AcDbEntity
  8
23
  6
Continuous
 62
     7
100
AcDbLine
 10
176.6
 20
20.101021
 30
0.0
 11
176.6
 21
11.0
 31
0.0
  0
ARC
  5
732
102
{ACAD_REACTORS
330
B68
102
}
330
1D
100
AcDbEntity
  8
23
  6
Continuous
 62
     7
100
AcDbCircle
 10
175.6
 20
25.0
 30
0.0
 40
3.0
100
AcDbArc
 50
101.5369590000009
 51
258.4630409999991
  0
LINE
  5
733
102
{ACAD_REACTORS
330
B68
102
}
330
1D
100
AcDbEntity
  8
23
  6
Continuous
 62
     7
100
AcDbLine
 10
142.1
 20
36.0
 30
0.0
 11
174.6
 21
36.0
 31
0.0
  0
LINE
  5
734
102
{ACAD_REACTORS
330
B68
102
}
330
1D
100
AcDbEntity
  8
23
  6
Continuous
 62
     7
100
AcDbLine
 10
174.6
 20
9.0
 30
0.0
 11
142.1
 21
9.0
 31
0.0
  0
LINE
  5
735
102
{ACAD_REACTORS
330
B68
102
}
330
1D
100
AcDbEntity
  8
23
  6
Continuous
 62
     7
100
AcDbLine
 10
149.1499999999999
 20
45.05
 30
0.0
 11
168.5499999999999
 21
45.05
 31
0.0
  0
LINE
  5
736
102
{ACAD_REACTORS
330
B68
102
}
330
1D
100
AcDbEntity
  8
23
  6
Continuous
 62
     7
100
AcDbLine
 10
170.6499999999999
 20
45.05
 30
0.0
 11
170.6499999999999
 21
39.95
 31
0.0
  0
LINE
  5
737
102
{ACAD_REACTORS
330
B68
102
}
330
1D
100
AcDbEntity
  8
23
  6
Continuous
 62
     7
100
AcDbLine
 10
147.0499999999999
 20
39.95
 30
0.0
 11
147.0499999999999
 21
45.05
 31
0.0
  0
LINE
  5
738
102
{ACAD_REACTORS
330
B68
102
}
330
1D
100
AcDbEntity
  8
23
  6
Continuous
 62
     7
100
AcDbLine
 10
168.5499999999999
 20
39.95
 30
0.0
 11
149.1499999999999
 21
39.95
 31
0.0
  0
ARC
  5
739
102
{ACAD_REACTORS
330
B68
102
}
330
1D
100
AcDbEntity
  8
23
  6
Continuous
 62
     7
100
AcDbCircle
 10
148.1
 20
45.05
 30
0.0
 40
1.05
100
AcDbArc
 50
0.0
 51
180.0
  0
ARC
  5
73A
102
{ACAD_REACTORS
330
B68
102
}
330
1D
100
AcDbEntity
  8
23
  6
Continuous
 62
     7
100
AcDbCircle
 10
148.1
 20
39.95
 30
0.0
 40
1.05
100
AcDbArc
 50
180.0
 51
0.0
  0
LINE
  5
73B
102
{ACAD_REACTORS
330
B68
102
}
330
1D
100
AcDbEntity
  8
23
  6
Continuous
 62
     7
100
AcDbLine
 10
134.5499999999999
 20
22.05
 30
0.0
 11
134.5499999999999
 21
37.95
 31
0.0
  0
LINE
  5
73C
102
{ACAD_REACTORS
330
B68
102
}
330
1D
100
AcDbEntity
  8
23
  6
Continuous
 62
     7
100
AcDbLine
 10
137.1499999999999
 20
37.95
 30
0.0
 11
137.1499999999999
 21
22.05
 31
0.0
  0
LINE
  5
73D
102
{ACAD_REACTORS
330
B68
102
}
330
1D
100
AcDbEntity
  8
23
  6
Continuous
 62
     7
100
AcDbLine
 10
134.5499999999999
 20
40.05
 30
0.0
 11
137.1499999999999
 21
40.05
 31
0.0
  0
LINE
  5
73E
102
{ACAD_REACTORS
330
B68
102
}
330
1D
100
AcDbEntity
  8
23
  6
Continuous
 62
     7
100
AcDbLine
 10
137.1499999999999
 20
19.95
 30
0.0
 11
134.5499999999999
 21
19.95
 31
0.0
  0
ARC
  5
73F
102
{ACAD_REACTORS
330
B68
102
}
330
1D
100
AcDbEntity
  8
23
  6
Continuous
 62
     7
100
AcDbCircle
 10
134.5499999999999
 20
39.0
 30
0.0
 40
1.05
100
AcDbArc
 50
90.0
 51
270.0
  0
ARC
  5
740
102
{ACAD_REACTORS
330
B68
102
}
330
1D
100
AcDbEntity
  8
23
  6
Continuous
 62
     7
100
AcDbCircle
 10
169.6
 20
45.05
 30
0.0
 40
1.05
100
AcDbArc
 50
0.0
 51
180.0
  0
ARC
  5
741
102
{ACAD_REACTORS
330
B68
102
}
330
1D
100
AcDbEntity
  8
23
  6
Continuous
 62
     7
100
AcDbCircle
 10
169.6
 20
39.95
 30
0.0
 40
1.05
100
AcDbArc
 50
180.0
 51
0.0
  0
LINE
  5
742
102
{ACAD_REACTORS
330
B68
102
}
330
1D
100
AcDbEntity
  8
23
  6
Continuous
 62
     7
100
AcDbLine
 10
132.1
 20
45.0
 30
0.0
 11
132.1
 21
5.0
 31
0.0
  0
LINE
  5
743
102
{ACAD_REACTORS
330
B68
102
}
330
1D
100
AcDbEntity
  8
23
  6
Continuous
 62
     7
100
AcDbLine
 10
132.1
 20
5.0
 30
0.0
 11
180.6
 21
5.0
 31
0.0
  0
LINE
  5
744
102
{ACAD_REACTORS
330
B68
102
}
330
1D
100
AcDbEntity
  8
23
  6
Continuous
 62
     7
100
AcDbLine
 10
180.6
 20
5.0
 30
0.0
 11
180.6
 21
45.0
 31
0.0
  0
LINE
  5
745
102
{ACAD_REACTORS
330
B68
102
}
330
1D
100
AcDbEntity
  8
23
  6
Continuous
 62
     7
100
AcDbLine
 10
180.6
 20
45.0
 30
0.0
 11
176.6
 21
47.0
 31
0.0
  0
LINE
  5
746
102
{ACAD_REACTORS
330
B68
102
}
330
1D
100
AcDbEntity
  8
23
  6
Continuous
 62
     7
100
AcDbLine
 10
176.6
 20
47.0
 30
0.0
 11
141.1
 21
47.0
 31
0.0
  0
LINE
  5
747
102
{ACAD_REACTORS
330
B68
102
}
330
1D
100
AcDbEntity
  8
23
  6
Continuous
 62
     7
100
AcDbLine
 10
141.1
 20
47.0
 30
0.0
 11
132.1
 21
45.0
 31
0.0
  0
ARC
  5
748
102
{ACAD_REACTORS
330
B68
102
}
330
1D
100
AcDbEntity
  8
23
  6
Continuous
 62
     7
100
AcDbCircle
 10
137.1499999999999
 20
39.0
 30
0.0
 40
1.05
100
AcDbArc
 50
270.0
 51
90.0
  0
ARC
  5
749
102
{ACAD_REACTORS
330
B68
102
}
330
1D
100
AcDbEntity
  8
23
  6
Continuous
 62
     7
100
AcDbCircle
 10
137.1499999999999
 20
21.0
 30
0.0
 40
1.05
100
AcDbArc
 50
270.0
 51
90.0
  0
ARC
  5
74A
102
{ACAD_REACTORS
330
B68
102
}
330
1D
100
AcDbEntity
  8
23
  6
Continuous
 62
     7
100
AcDbCircle
 10
134.5499999999999
 20
21.0
 30
0.0
 40
1.05
100
AcDbArc
 50
90.0
 51
270.0
  0
CIRCLE
  5
74B
102
{ACAD_REACTORS
330
B68
102
}
330
1D
100
AcDbEntity
  8
23
  6
Continuous
 62
     7
100
AcDbCircle
 10
141.1
 20
42.5
 30
0.0
 40
1.55
  0
CIRCLE
  5
74C
102
{ACAD_REACTORS
330
B68
102
}
330
1D
100
AcDbEntity
  8
23
  6
Continuous
 62
     7
100
AcDbCircle
 10
176.6
 20
42.5
 30
0.0
 40
1.55
  0
CIRCLE
  5
74D
102
{ACAD_REACTORS
330
B68
102
}
330
1D
100
AcDbEntity
  8
23
  6
Continuous
 62
     7
100
AcDbCircle
 10
137.1
 20
10.0
 30
0.0
 40
1.55
  0
CIRCLE
  5
74E
102
{ACAD_REACTORS
330
B68
102
}
330
1D
100
AcDbEntity
  8
23
  6
Continuous
 62
     7
100
AcDbCircle
 10
175.6
 20
25.0
 30
0.0
 40
1.55
  0
ARC
  5
74F
102
{ACAD_REACTORS
330
B69
102
}
330
1D
100
AcDbEntity
  8
23
  6
Continuous
 62
     7
100
AcDbCircle
 10
174.6
 20
62.09999999999999
 30
0.0
 40
2.0
100
AcDbArc
 50
270.0
 51
0.0
  0
ARC
  5
750
102
{ACAD_REACTORS
330
B69
102
}
330
1D
100
AcDbEntity
  8
23
  6
Continuous
 62
     7
100
AcDbCircle
 10
142.1
 20
62.09999999999999
 30
0.0
 40
2.0
100
AcDbArc
 50
180.0
 51
270.0
  0
ARC
  5
751
102
{ACAD_REACTORS
330
B69
102
}
330
1D
100
AcDbEntity
  8
23
  6
Continuous
 62
     7
100
AcDbCircle
 10
142.1
 20
85.1
 30
0.0
 40
2.0
100
AcDbArc
 50
90.0
 51
180.0
  0
ARC
  5
752
102
{ACAD_REACTORS
330
B69
102
}
330
1D
100
AcDbEntity
  8
23
  6
Continuous
 62
     7
100
AcDbCircle
 10
174.6
 20
85.1
 30
0.0
 40
2.0
100
AcDbArc
 50
0.0
 51
90.0
  0
ARC
  5
753
102
{ACAD_REACTORS
330
B69
102
}
330
1D
100
AcDbEntity
  8
23
  6
Continuous
 62
     7
100
AcDbCircle
 10
174.6
 20
66.201021
 30
0.0
 40
2.0
100
AcDbArc
 50
0.0
 51
78.46304100000349
  0
ARC
  5
754
102
{ACAD_REACTORS
330
B69
102
}
330
1D
100
AcDbEntity
  8
23
  6
Continuous
 62
     7
100
AcDbCircle
 10
174.6
 20
75.998979
 30
0.0
 40
2.0
100
AcDbArc
 50
281.5369589999965
 51
0.0
  0
LINE
  5
755
102
{ACAD_REACTORS
330
B69
102
}
330
1D
100
AcDbEntity
  8
23
  6
Continuous
 62
     7
100
AcDbLine
 10
176.6
 20
62.09999999999999
 30
0.0
 11
176.6
 21
66.201021
 31
0.0
  0
LINE
  5
756
102
{ACAD_REACTORS
330
B69
102
}
330
1D
100
AcDbEntity
  8
23
  6
Continuous
 62
     7
100
AcDbLine
 10
140.1
 20
85.1
 30
0.0
 11
140.1
 21
62.09999999999999
 31
0.0
  0
LINE
  5
757
102
{ACAD_REACTORS
330
B69
102
}
330
1D
100
AcDbEntity
  8
23
  6
Continuous
 62
     7
100
AcDbLine
 10
176.6
 20
75.998979
 30
0.0
 11
176.6
 21
85.1
 31
0.0
  0
ARC
  5
758
102
{ACAD_REACTORS
330
B69
102
}
330
1D
100
AcDbEntity
  8
23
  6
Continuous
 62
     7
100
AcDbCircle
 10
175.6
 20
71.1
 30
0.0
 40
3.0
100
AcDbArc
 50
101.5369590000009
 51
258.4630409999991
  0
LINE
  5
759
102
{ACAD_REACTORS
330
B69
102
}
330
1D
100
AcDbEntity
  8
23
  6
Continuous
 62
     7
100
AcDbLine
 10
142.1
 20
60.09999999999999
 30
0.0
 11
174.6
 21
60.09999999999999
 31
0.0
  0
LINE
  5
75A
102
{ACAD_REACTORS
330
B69
102
}
330
1D
100
AcDbEntity
  8
23
  6
Continuous
 62
     7
100
AcDbLine
 10
174.6
 20
87.1
 30
0.0
 11
142.1
 21
87.1
 31
0.0
  0
LINE
  5
75B
102
{ACAD_REACTORS
330
B69
102
}
330
1D
100
AcDbEntity
  8
23
  6
Continuous
 62
     7
100
AcDbLine
 10
149.1499999999999
 20
51.05
 30
0.0
 11
168.5499999999999
 21
51.05
 31
0.0
  0
LINE
  5
75C
102
{ACAD_REACTORS
330
B69
102
}
330
1D
100
AcDbEntity
  8
23
  6
Continuous
 62
     7
100
AcDbLine
 10
170.6499999999999
 20
51.05
 30
0.0
 11
170.6499999999999
 21
56.15000000000001
 31
0.0
  0
LINE
  5
75D
102
{ACAD_REACTORS
330
B69
102
}
330
1D
100
AcDbEntity
  8
23
  6
Continuous
 62
     7
100
AcDbLine
 10
147.0499999999999
 20
56.15000000000001
 30
0.0
 11
147.0499999999999
 21
51.05
 31
0.0
  0
LINE
  5
75E
102
{ACAD_REACTORS
330
B69
102
}
330
1D
100
AcDbEntity
  8
23
  6
Continuous
 62
     7
100
AcDbLine
 10
168.5499999999999
 20
56.15000000000001
 30
0.0
 11
149.1499999999999
 21
56.15000000000001
 31
0.0
  0
ARC
  5
75F
102
{ACAD_REACTORS
330
B69
102
}
330
1D
100
AcDbEntity
  8
23
  6
Continuous
 62
     7
100
AcDbCircle
 10
148.1
 20
51.05
 30
0.0
 40
1.05
100
AcDbArc
 50
180.0
 51
0.0
  0
ARC
  5
760
102
{ACAD_REACTORS
330
B69
102
}
330
1D
100
AcDbEntity
  8
23
  6
Continuous
 62
     7
100
AcDbCircle
 10
148.1
 20
56.15000000000001
 30
0.0
 40
1.05
100
AcDbArc
 50
0.0
 51
180.0
  0
LINE
  5
761
102
{ACAD_REACTORS
330
B69
102
}
330
1D
100
AcDbEntity
  8
23
  6
Continuous
 62
     7
100
AcDbLine
 10
134.5499999999999
 20
74.05
 30
0.0
 11
134.5499999999999
 21
58.15000000000001
 31
0.0
  0
LINE
  5
762
102
{ACAD_REACTORS
330
B69
102
}
330
1D
100
AcDbEntity
  8
23
  6
Continuous
 62
     7
100
AcDbLine
 10
137.1499999999999
 20
58.15000000000001
 30
0.0
 11
137.1499999999999
 21
74.05
 31
0.0
  0
LINE
  5
763
102
{ACAD_REACTORS
330
B69
102
}
330
1D
100
AcDbEntity
  8
23
  6
Continuous
 62
     7
100
AcDbLine
 10
134.5499999999999
 20
56.05
 30
0.0
 11
137.1499999999999
 21
56.05
 31
0.0
  0
LINE
  5
764
102
{ACAD_REACTORS
330
B69
102
}
330
1D
100
AcDbEntity
  8
23
  6
Continuous
 62
     7
100
AcDbLine
 10
137.1499999999999
 20
76.15
 30
0.0
 11
134.5499999999999
 21
76.15
 31
0.0
  0
ARC
  5
765
102
{ACAD_REACTORS
330
B69
102
}
330
1D
100
AcDbEntity
  8
23
  6
Continuous
 62
     7
100
AcDbCircle
 10
134.5499999999999
 20
57.09999999999999
 30
0.0
 40
1.05
100
AcDbArc
 50
90.0
 51
270.0
  0
ARC
  5
766
102
{ACAD_REACTORS
330
B69
102
}
330
1D
100
AcDbEntity
  8
23
  6
Continuous
 62
     7
100
AcDbCircle
 10
169.6
 20
51.05
 30
0.0
 40
1.05
100
AcDbArc
 50
180.0
 51
0.0
  0
ARC
  5
767
102
{ACAD_REACTORS
330
B69
102
}
330
1D
100
AcDbEntity
  8
23
  6
Continuous
 62
     7
100
AcDbCircle
 10
169.6
 20
56.15000000000001
 30
0.0
 40
1.05
100
AcDbArc
 50
0.0
 51
180.0
  0
LINE
  5
768
102
{ACAD_REACTORS
330
B69
102
}
330
1D
100
AcDbEntity
  8
23
  6
Continuous
 62
     7
100
AcDbLine
 10
132.1
 20
51.09999999999999
 30
0.0
 11
132.1
 21
91.1
 31
0.0
  0
LINE
  5
769
102
{ACAD_REACTORS
330
B69
102
}
330
1D
100
AcDbEntity
  8
23
  6
Continuous
 62
     7
100
AcDbLine
 10
132.1
 20
91.1
 30
0.0
 11
180.6
 21
91.1
 31
0.0
  0
LINE
  5
76A
102
{ACAD_REACTORS
330
B69
102
}
330
1D
100
AcDbEntity
  8
23
  6
Continuous
 62
     7
100
AcDbLine
 10
180.6
 20
91.1
 30
0.0
 11
180.6
 21
51.09999999999999
 31
0.0
  0
LINE
  5
76B
102
{ACAD_REACTORS
330
B69
102
}
330
1D
100
AcDbEntity
  8
23
  6
Continuous
 62
     7
100
AcDbLine
 10
180.6
 20
51.09999999999999
 30
0.0
 11
176.6
 21
49.09999999999999
 31
0.0
  0
LINE
  5
76C
102
{ACAD_REACTORS
330
B69
102
}
330
1D
100
AcDbEntity
  8
23
  6
Continuous
 62
     7
100
AcDbLine
 10
176.6
 20
49.09999999999999
 30
0.0
 11
141.1
 21
49.09999999999999
 31
0.0
  0
LINE
  5
76D
102
{ACAD_REACTORS
330
B69
102
}
330
1D
100
AcDbEntity
  8
23
  6
Continuous
 62
     7
100
AcDbLine
 10
141.1
 20
49.09999999999999
 30
0.0
 11
132.1
 21
51.09999999999999
 31
0.0
  0
ARC
  5
76E
102
{ACAD_REACTORS
330
B69
102
}
330
1D
100
AcDbEntity
  8
23
  6
Continuous
 62
     7
100
AcDbCircle
 10
137.1499999999999
 20
57.09999999999999
 30
0.0
 40
1.05
100
AcDbArc
 50
270.0
 51
90.0
  0
ARC
  5
76F
102
{ACAD_REACTORS
330
B69
102
}
330
1D
100
AcDbEntity
  8
23
  6
Continuous
 62
     7
100
AcDbCircle
 10
137.1499999999999
 20
75.1
 30
0.0
 40
1.05
100
AcDbArc
 50
270.0
 51
90.0
  0
ARC
  5
770
102
{ACAD_REACTORS
330
B69
102
}
330
1D
100
AcDbEntity
  8
23
  6
Continuous
 62
     7
100
AcDbCircle
 10
134.5499999999999
 20
75.1
 30
0.0
 40
1.05
100
AcDbArc
 50
90.0
 51
270.0
  0
CIRCLE
  5
771
102
{ACAD_REACTORS
330
B69
102
}
330
1D
100
AcDbEntity
  8
23
  6
Continuous
 62
     7
100
AcDbCircle
 10
141.1
 20
53.59999999999999
 30
0.0
 40
1.55
  0
CIRCLE
  5
772
102
{ACAD_REACTORS
330
B69
102
}
330
1D
100
AcDbEntity
  8
23
  6
Continuous
 62
     7
100
AcDbCircle
 10
176.6
 20
53.59999999999999
 30
0.0
 40
1.55
  0
CIRCLE
  5
773
102
{ACAD_REACTORS
330
B69
102
}
330
1D
100
AcDbEntity
  8
23
  6
Continuous
 62
     7
100
AcDbCircle
 10
137.1
 20
86.1
 30
0.0
 40
1.55
  0
CIRCLE
  5
774
102
{ACAD_REACTORS
330
B69
102
}
330
1D
100
AcDbEntity
  8
23
  6
Continuous
 62
     7
100
AcDbCircle
 10
175.6
 20
71.1
 30
0.0
 40
1.55
  0
ARC
  5
775
102
{ACAD_REACTORS
330
B15
102
}
330
1D
100
AcDbEntity
  8
23
  6
Continuous
 62
     7
100
AcDbCircle
 10
26.5
 20
55.1
 30
0.0
 40
3.0
100
AcDbArc
 50
270.0
 51
0.0
  0
ARC
  5
776
102
{ACAD_REACTORS
330
B15
102
}
330
1D
100
AcDbEntity
  8
23
  6
Continuous
 62
     7
100
AcDbCircle
 10
18.0
 20
55.1
 30
0.0
 40
3.0
100
AcDbArc
 50
180.0
 51
270.0
  0
ARC
  5
777
102
{ACAD_REACTORS
330
B15
102
}
330
1D
100
AcDbEntity
  8
23
  6
Continuous
 62
     7
100
AcDbCircle
 10
18.0
 20
78.6
 30
0.0
 40
3.0
100
AcDbArc
 50
90.0
 51
180.0
  0
ARC
  5
778
102
{ACAD_REACTORS
330
B15
102
}
330
1D
100
AcDbEntity
  8
23
  6
Continuous
 62
     7
100
AcDbCircle
 10
26.5
 20
78.6
 30
0.0
 40
3.0
100
AcDbArc
 50
0.0
 51
90.0
  0
ARC
  5
779
102
{ACAD_REACTORS
330
B15
102
}
330
1D
100
AcDbEntity
  8
23
  6
Continuous
 62
     7
100
AcDbCircle
 10
47.5
 20
80.6
 30
0.0
 40
3.0
100
AcDbArc
 50
90.0
 51
180.0
  0
ARC
  5
77A
102
{ACAD_REACTORS
330
B15
102
}
330
1D
100
AcDbEntity
  8
23
  6
Continuous
 62
     7
100
AcDbCircle
 10
76.84964499999998
 20
80.6
 30
0.0
 40
3.0
100
AcDbArc
 50
300.8884659999987
 51
90.0
  0
ARC
  5
77B
102
{ACAD_REACTORS
330
B15
102
}
330
1D
100
AcDbEntity
  8
23
  6
Continuous
 62
     7
100
AcDbCircle
 10
47.5
 20
63.04262299999997
 30
0.0
 40
3.0
100
AcDbArc
 50
180.0
 51
300.8884659999997
  0
ARC
  5
77C
102
{ACAD_REACTORS
330
B15
102
}
330
1D
100
AcDbEntity
  8
23
  6
Continuous
 62
     7
100
AcDbCircle
 10
58.15035499999999
 20
53.1
 30
0.0
 40
3.0
100
AcDbArc
 50
120.8884659999997
 51
270.0
  0
ARC
  5
77D
102
{ACAD_REACTORS
330
B15
102
}
330
1D
100
AcDbEntity
  8
23
  6
Continuous
 62
     7
100
AcDbCircle
 10
87.5
 20
53.09999999999999
 30
0.0
 40
3.0
100
AcDbArc
 50
270.0
 51
0.0
  0
ARC
  5
77E
102
{ACAD_REACTORS
330
B15
102
}
330
1D
100
AcDbEntity
  8
23
  6
Continuous
 62
     7
100
AcDbCircle
 10
87.5
 20
70.65737699999997
 30
0.0
 40
3.0
100
AcDbArc
 50
0.0
 51
120.8884660000005
  0
ARC
  5
77F
102
{ACAD_REACTORS
330
B15
102
}
330
1D
100
AcDbEntity
  8
23
  6
Continuous
 62
     7
100
AcDbCircle
 10
108.5
 20
78.6
 30
0.0
 40
3.0
100
AcDbArc
 50
90.0
 51
180.0
  0
ARC
  5
780
102
{ACAD_REACTORS
330
B15
102
}
330
1D
100
AcDbEntity
  8
23
  6
Continuous
 62
     7
100
AcDbCircle
 10
117.0
 20
78.6
 30
0.0
 40
3.0
100
AcDbArc
 50
0.0
 51
90.0
  0
ARC
  5
781
102
{ACAD_REACTORS
330
B15
102
}
330
1D
100
AcDbEntity
  8
23
  6
Continuous
 62
     7
100
AcDbCircle
 10
117.0
 20
55.09999999999999
 30
0.0
 40
3.0
100
AcDbArc
 50
270.0
 51
0.0
  0
ARC
  5
782
102
{ACAD_REACTORS
330
B15
102
}
330
1D
100
AcDbEntity
  8
23
  6
Continuous
 62
     7
100
AcDbCircle
 10
108.5
 20
55.09999999999999
 30
0.0
 40
3.0
100
AcDbArc
 50
180.0
 51
270.0
  0
LINE
  5
783
102
{ACAD_REACTORS
330
B15
102
}
330
1D
100
AcDbEntity
  8
23
  6
Continuous
 62
     7
100
AcDbLine
 10
29.5
 20
78.6
 30
0.0
 11
29.5
 21
55.1
 31
0.0
  0
LINE
  5
784
102
{ACAD_REACTORS
330
B15
102
}
330
1D
100
AcDbEntity
  8
23
  6
Continuous
 62
     7
100
AcDbLine
 10
26.5
 20
52.1
 30
0.0
 11
18.0
 21
52.1
 31
0.0
  0
LINE
  5
785
102
{ACAD_REACTORS
330
B15
102
}
330
1D
100
AcDbEntity
  8
23
  6
Continuous
 62
     7
100
AcDbLine
 10
15.0
 20
55.1
 30
0.0
 11
15.0
 21
78.6
 31
0.0
  0
LINE
  5
786
102
{ACAD_REACTORS
330
B15
102
}
330
1D
100
AcDbEntity
  8
23
  6
Continuous
 62
     7
100
AcDbLine
 10
18.0
 20
81.6
 30
0.0
 11
26.5
 21
81.6
 31
0.0
  0
LINE
  5
787
102
{ACAD_REACTORS
330
B15
102
}
330
1D
100
AcDbEntity
  8
23
  6
Continuous
 62
     7
100
AcDbLine
 10
44.5
 20
63.04262299999997
 30
0.0
 11
44.5
 21
80.6
 31
0.0
  0
LINE
  5
788
102
{ACAD_REACTORS
330
B15
102
}
330
1D
100
AcDbEntity
  8
23
  6
Continuous
 62
     7
100
AcDbLine
 10
47.5
 20
83.6
 30
0.0
 11
76.84964499999998
 21
83.6
 31
0.0
  0
LINE
  5
789
102
{ACAD_REACTORS
330
B15
102
}
330
1D
100
AcDbEntity
  8
23
  6
Continuous
 62
     7
100
AcDbLine
 10
78.38975099999999
 20
78.02549499999995
 30
0.0
 11
49.04010599999998
 21
60.46811799999998
 31
0.0
  0
LINE
  5
78A
102
{ACAD_REACTORS
330
B15
102
}
330
1D
100
AcDbEntity
  8
23
  6
Continuous
 62
     7
100
AcDbLine
 10
87.5
 20
50.09999999999999
 30
0.0
 11
58.15035499999999
 21
50.1
 31
0.0
  0
LINE
  5
78B
102
{ACAD_REACTORS
330
B15
102
}
330
1D
100
AcDbEntity
  8
23
  6
Continuous
 62
     7
100
AcDbLine
 10
90.5
 20
70.65737699999997
 30
0.0
 11
90.5
 21
53.09999999999999
 31
0.0
  0
LINE
  5
78C
102
{ACAD_REACTORS
330
B15
102
}
330
1D
100
AcDbEntity
  8
23
  6
Continuous
 62
     7
100
AcDbLine
 10
56.61024899999998
 20
55.67450499999999
 30
0.0
 11
85.95989399999999
 21
73.23188199999996
 31
0.0
  0
LINE
  5
78D
102
{ACAD_REACTORS
330
B15
102
}
330
1D
100
AcDbEntity
  8
23
  6
Continuous
 62
     7
100
AcDbLine
 10
105.5
 20
55.09999999999999
 30
0.0
 11
105.5
 21
78.6
 31
0.0
  0
LINE
  5
78E
102
{ACAD_REACTORS
330
B15
102
}
330
1D
100
AcDbEntity
  8
23
  6
Continuous
 62
     7
100
AcDbLine
 10
108.5
 20
81.6
 30
0.0
 11
117.0
 21
81.6
 31
0.0
  0
LINE
  5
78F
102
{ACAD_REACTORS
330
B15
102
}
330
1D
100
AcDbEntity
  8
23
  6
Continuous
 62
     7
100
AcDbLine
 10
120.0
 20
78.6
 30
0.0
 11
120.0
 21
55.09999999999999
 31
0.0
  0
LINE
  5
790
102
{ACAD_REACTORS
330
B15
102
}
330
1D
100
AcDbEntity
  8
23
  6
Continuous
 62
     7
100
AcDbLine
 10
117.0
 20
52.09999999999999
 30
0.0
 11
108.5
 21
52.09999999999999
 31
0.0
  0
CIRCLE
  5
791
102
{ACAD_REACTORS
330
B15
102
}
330
1D
100
AcDbEntity
  8
23
  6
Continuous
 62
     7
100
AcDbCircle
 10
37.0
 20
49.85
 30
0.0
 40
3.0
  0
CIRCLE
  5
792
102
{ACAD_REACTORS
330
B15
102
}
330
1D
100
AcDbEntity
  8
23
  6
Continuous
 62
     7
100
AcDbCircle
 10
37.0
 20
49.85
 30
0.0
 40
1.55
  0
CIRCLE
  5
793
102
{ACAD_REACTORS
330
B15
102
}
330
1D
100
AcDbEntity
  8
23
  6
Continuous
 62
     7
100
AcDbCircle
 10
98.0
 20
49.84999999999999
 30
0.0
 40
3.0
  0
CIRCLE
  5
794
102
{ACAD_REACTORS
330
B15
102
}
330
1D
100
AcDbEntity
  8
23
  6
Continuous
 62
     7
100
AcDbCircle
 10
98.0
 20
49.84999999999999
 30
0.0
 40
1.55
  0
CIRCLE
  5
795
102
{ACAD_REACTORS
330
B15
102
}
330
1D
100
AcDbEntity
  8
23
  6
Continuous
 62
     7
100
AcDbCircle
 10
98.0
 20
76.85
 30
0.0
 40
3.0
  0
CIRCLE
  5
796
102
{ACAD_REACTORS
330
B15
102
}
330
1D
100
AcDbEntity
  8
23
  6
Continuous
 62
     7
100
AcDbCircle
 10
98.0
 20
76.85
 30
0.0
 40
1.55
  0
CIRCLE
  5
797
102
{ACAD_REACTORS
330
B15
102
}
330
1D
100
AcDbEntity
  8
23
  6
Continuous
 62
     7
100
AcDbCircle
 10
37.0
 20
76.85
 30
0.0
 40
3.0
  0
CIRCLE
  5
798
102
{ACAD_REACTORS
330
B15
102
}
330
1D
100
AcDbEntity
  8
23
  6
Continuous
 62
     7
100
AcDbCircle
 10
37.0
 20
76.85
 30
0.0
 40
1.55
  0
LINE
  5
799
102
{ACAD_REACTORS
330
B15
102
}
330
1D
100
AcDbEntity
  8
23
  6
Continuous
 62
     7
100
AcDbLine
 10
39.54999999999998
 20
68.79999999999998
 30
0.0
 11
39.54999999999998
 21
57.89999999999996
 31
0.0
  0
LINE
  5
79A
102
{ACAD_REACTORS
330
B15
102
}
330
1D
100
AcDbEntity
  8
23
  6
Continuous
 62
     7
100
AcDbLine
 10
34.44999999999999
 20
57.89999999999996
 30
0.0
 11
34.44999999999999
 21
68.79999999999998
 31
0.0
  0
LINE
  5
79B
102
{ACAD_REACTORS
330
B15
102
}
330
1D
100
AcDbEntity
  8
23
  6
Continuous
 62
     7
100
AcDbLine
 10
34.44999999999999
 20
70.89999999999995
 30
0.0
 11
39.54999999999998
 21
70.89999999999995
 31
0.0
  0
LINE
  5
79C
102
{ACAD_REACTORS
330
B15
102
}
330
1D
100
AcDbEntity
  8
23
  6
Continuous
 62
     7
100
AcDbLine
 10
39.54999999999998
 20
55.79999999999999
 30
0.0
 11
34.44999999999999
 21
55.79999999999999
 31
0.0
  0
ARC
  5
79D
102
{ACAD_REACTORS
330
B15
102
}
330
1D
100
AcDbEntity
  8
23
  6
Continuous
 62
     7
100
AcDbCircle
 10
39.54999999999998
 20
69.85
 30
0.0
 40
1.05
100
AcDbArc
 50
270.0
 51
90.0
  0
LINE
  5
79E
102
{ACAD_REACTORS
330
B15
102
}
330
1D
100
AcDbEntity
  8
23
  6
Continuous
 62
     7
100
AcDbLine
 10
100.55
 20
68.79999999999998
 30
0.0
 11
100.55
 21
57.89999999999994
 31
0.0
  0
LINE
  5
79F
102
{ACAD_REACTORS
330
B15
102
}
330
1D
100
AcDbEntity
  8
23
  6
Continuous
 62
     7
100
AcDbLine
 10
95.44999999999999
 20
57.89999999999994
 30
0.0
 11
95.44999999999999
 21
68.79999999999998
 31
0.0
  0
LINE
  5
7A0
102
{ACAD_REACTORS
330
B15
102
}
330
1D
100
AcDbEntity
  8
23
  6
Continuous
 62
     7
100
AcDbLine
 10
95.44999999999999
 20
70.89999999999995
 30
0.0
 11
100.55
 21
70.89999999999995
 31
0.0
  0
LINE
  5
7A1
102
{ACAD_REACTORS
330
B15
102
}
330
1D
100
AcDbEntity
  8
23
  6
Continuous
 62
     7
100
AcDbLine
 10
100.55
 20
55.79999999999998
 30
0.0
 11
95.44999999999999
 21
55.79999999999998
 31
0.0
  0
ARC
  5
7A2
102
{ACAD_REACTORS
330
B15
102
}
330
1D
100
AcDbEntity
  8
23
  6
Continuous
 62
     7
100
AcDbCircle
 10
100.55
 20
69.85
 30
0.0
 40
1.05
100
AcDbArc
 50
270.0
 51
90.0
  0
ARC
  5
7A3
102
{ACAD_REACTORS
330
B15
102
}
330
1D
100
AcDbEntity
  8
23
  6
Continuous
 62
     7
100
AcDbCircle
 10
34.44999999999999
 20
69.85
 30
0.0
 40
1.05
100
AcDbArc
 50
90.0
 51
270.0
  0
ARC
  5
7A4
102
{ACAD_REACTORS
330
B15
102
}
330
1D
100
AcDbEntity
  8
23
  6
Continuous
 62
     7
100
AcDbCircle
 10
34.44999999999999
 20
56.85
 30
0.0
 40
1.05
100
AcDbArc
 50
90.0
 51
270.0
  0
ARC
  5
7A5
102
{ACAD_REACTORS
330
B15
102
}
330
1D
100
AcDbEntity
  8
23
  6
Continuous
 62
     7
100
AcDbCircle
 10
39.54999999999998
 20
56.85
 30
0.0
 40
1.05
100
AcDbArc
 50
270.0
 51
90.0
  0
ARC
  5
7A6
102
{ACAD_REACTORS
330
B15
102
}
330
1D
100
AcDbEntity
  8
23
  6
Continuous
 62
     7
100
AcDbCircle
 10
95.44999999999999
 20
69.85
 30
0.0
 40
1.05
100
AcDbArc
 50
90.0
 51
270.0
  0
ARC
  5
7A7
102
{ACAD_REACTORS
330
B15
102
}
330
1D
100
AcDbEntity
  8
23
  6
Continuous
 62
     7
100
AcDbCircle
 10
95.44999999999999
 20
56.84999999999999
 30
0.0
 40
1.05
100
AcDbArc
 50
90.0
 51
270.0
  0
ARC
  5
7A8
102
{ACAD_REACTORS
330
B15
102
}
330
1D
100
AcDbEntity
  8
23
  6
Continuous
 62
     7
100
AcDbCircle
 10
100.55
 20
56.84999999999999
 30
0.0
 40
1.05
100
AcDbArc
 50
270.0
 51
90.0
  0
ARC
  5
7A9
102
{ACAD_REACTORS
330
B15
102
}
330
1D
100
AcDbEntity
  8
23
  6
Continuous
 62
     7
100
AcDbCircle
 10
127.0
 20
54.04999999999998
 30
0.0
 40
1.05
100
AcDbArc
 50
90.0
 51
270.0
  0
LINE
  5
7AA
102
{ACAD_REACTORS
330
B15
102
}
330
1D
100
AcDbEntity
  8
23
  6
Continuous
 62
     7
100
AcDbLine
 10
127.0
 20
45.1
 30
0.0
 11
127.0
 21
52.99999999999996
 31
0.0
  0
LINE
  5
7AB
102
{ACAD_REACTORS
330
B15
102
}
330
1D
100
AcDbEntity
  8
23
  6
Continuous
 62
     7
100
AcDbLine
 10
89.1
 20
45.1
 30
0.0
 11
127.0
 21
45.1
 31
0.0
  0
ARC
  5
7AC
102
{ACAD_REACTORS
330
B15
102
}
330
1D
100
AcDbEntity
  8
23
  6
Continuous
 62
     7
100
AcDbCircle
 10
88.04999999999998
 20
45.1
 30
0.0
 40
1.05
100
AcDbArc
 50
0.0
 51
180.0
  0
LINE
  5
7AD
102
{ACAD_REACTORS
330
B15
102
}
330
1D
100
AcDbEntity
  8
23
  6
Continuous
 62
     7
100
AcDbLine
 10
87.0
 20
40.1
 30
0.0
 11
87.0
 21
45.1
 31
0.0
  0
LINE
  5
7AE
102
{ACAD_REACTORS
330
B15
102
}
330
1D
100
AcDbEntity
  8
23
  6
Continuous
 62
     7
100
AcDbLine
 10
48.0
 20
40.1
 30
0.0
 11
87.0
 21
40.1
 31
0.0
  0
LINE
  5
7AF
102
{ACAD_REACTORS
330
B15
102
}
330
1D
100
AcDbEntity
  8
23
  6
Continuous
 62
     7
100
AcDbLine
 10
48.0
 20
45.1
 30
0.0
 11
48.0
 21
40.1
 31
0.0
  0
ARC
  5
7B0
102
{ACAD_REACTORS
330
B15
102
}
330
1D
100
AcDbEntity
  8
23
  6
Continuous
 62
     7
100
AcDbCircle
 10
46.94999999999999
 20
45.1
 30
0.0
 40
1.05
100
AcDbArc
 50
0.0
 51
180.0
  0
LINE
  5
7B1
102
{ACAD_REACTORS
330
B15
102
}
330
1D
100
AcDbEntity
  8
23
  6
Continuous
 62
     7
100
AcDbLine
 10
8.0
 20
45.1
 30
0.0
 11
45.89999999999998
 21
45.1
 31
0.0
  0
LINE
  5
7B2
102
{ACAD_REACTORS
330
B15
102
}
330
1D
100
AcDbEntity
  8
23
  6
Continuous
 62
     7
100
AcDbLine
 10
8.0
 20
52.99999999999998
 30
0.0
 11
8.0
 21
45.1
 31
0.0
  0
ARC
  5
7B3
102
{ACAD_REACTORS
330
B15
102
}
330
1D
100
AcDbEntity
  8
23
  6
Continuous
 62
     7
100
AcDbCircle
 10
8.0
 20
54.04999999999999
 30
0.0
 40
1.05
100
AcDbArc
 50
270.0
 51
90.0
  0
LINE
  5
7B4
102
{ACAD_REACTORS
330
B15
102
}
330
1D
100
AcDbEntity
  8
23
  6
Continuous
 62
     7
100
AcDbLine
 10
5.0
 20
55.1
 30
0.0
 11
8.0
 21
55.1
 31
0.0
  0
LINE
  5
7B5
102
{ACAD_REACTORS
330
B15
102
}
330
1D
100
AcDbEntity
  8
23
  6
Continuous
 62
     7
100
AcDbLine
 10
5.0
 20
78.6
 30
0.0
 11
5.0
 21
55.1
 31
0.0
  0
LINE
  5
7B6
102
{ACAD_REACTORS
330
B15
102
}
330
1D
100
AcDbEntity
  8
23
  6
Continuous
 62
     7
100
AcDbLine
 10
8.0
 20
78.6
 30
0.0
 11
5.0
 21
78.6
 31
0.0
  0
ARC
  5
7B7
102
{ACAD_REACTORS
330
B15
102
}
330
1D
100
AcDbEntity
  8
23
  6
Continuous
 62
     7
100
AcDbCircle
 10
8.0
 20
79.64999999999995
 30
0.0
 40
1.05
100
AcDbArc
 50
270.0
 51
90.0
  0
LINE
  5
7B8
102
{ACAD_REACTORS
330
B15
102
}
330
1D
100
AcDbEntity
  8
23
  6
Continuous
 62
     7
100
AcDbLine
 10
8.0
 20
88.6
 30
0.0
 11
8.0
 21
80.69999999999996
 31
0.0
  0
LINE
  5
7B9
102
{ACAD_REACTORS
330
B15
102
}
330
1D
100
AcDbEntity
  8
23
  6
Continuous
 62
     7
100
AcDbLine
 10
127.0
 20
88.6
 30
0.0
 11
8.0
 21
88.6
 31
0.0
  0
LINE
  5
7BA
102
{ACAD_REACTORS
330
B15
102
}
330
1D
100
AcDbEntity
  8
23
  6
Continuous
 62
     7
100
AcDbLine
 10
127.0
 20
80.69999999999996
 30
0.0
 11
127.0
 21
88.6
 31
0.0
  0
ARC
  5
7BB
102
{ACAD_REACTORS
330
B15
102
}
330
1D
100
AcDbEntity
  8
23
  6
Continuous
 62
     7
100
AcDbCircle
 10
127.0
 20
79.64999999999995
 30
0.0
 40
1.05
100
AcDbArc
 50
90.0
 51
270.0
  0
LINE
  5
7BC
102
{ACAD_REACTORS
330
B15
102
}
330
1D
100
AcDbEntity
  8
23
  6
Continuous
 62
     7
100
AcDbLine
 10
130.0
 20
78.6
 30
0.0
 11
127.0
 21
78.6
 31
0.0
  0
LINE
  5
7BD
102
{ACAD_REACTORS
330
B15
102
}
330
1D
100
AcDbEntity
  8
23
  6
Continuous
 62
     7
100
AcDbLine
 10
130.0
 20
55.09999999999999
 30
0.0
 11
130.0
 21
78.6
 31
0.0
  0
LINE
  5
7BE
102
{ACAD_REACTORS
330
B15
102
}
330
1D
100
AcDbEntity
  8
23
  6
Continuous
 62
     7
100
AcDbLine
 10
127.0
 20
55.09999999999999
 30
0.0
 11
130.0
 21
55.09999999999999
 31
0.0
  0
LWPOLYLINE
  5
B6A
330
1D
100
AcDbEntity
  8
0
100
AcDbPolyline
 90
        4
 70
     1
 43
0.0
 10
131.1
 20
4.0
 10
131.1
 20
92.1
 10
181.6
 20
92.1
 10
181.6
 20
4.0
  0
ARC
  5
C3F
102
{ACAD_REACTORS
330
C69
102
}
330
1D
100
AcDbEntity
  8
Visible (ISO)
100
AcDbCircle
 10
102.1117662534446
 20
193.9180962950852
 30
0.0
 40
1.999999999999983
100
AcDbArc
 50
350.4114066040614
 51
87.59216238552169
  0
ARC
  5
C40
102
{ACAD_REACTORS
330
C69
102
}
330
1D
100
AcDbEntity
  8
Visible (ISO)
100
AcDbCircle
 10
102.1117662534446
 20
191.2529371180722
 30
0.0
 40
1.99999999999999
100
AcDbArc
 50
272.4078376144799
 51
9.588593395939318
  0
ARC
  5
C41
102
{ACAD_REACTORS
330
C69
102
}
330
1D
100
AcDbEntity
  8
Visible (ISO)
100
AcDbCircle
 10
19.80000000000001
 20
197.3792609017043
 30
0.0
 40
2.0
100
AcDbArc
 50
87.59216238552007
 51
180.0
  0
ARC
  5
C42
102
{ACAD_REACTORS
330
C69
102
}
330
1D
100
AcDbEntity
  8
Visible (ISO)
100
AcDbCircle
 10
19.80000000000001
 20
187.791772511453
 30
0.0
 40
1.999999999999999
100
AcDbArc
 50
180.0
 51
272.4078376144799
  0
ARC
  5
C43
102
{ACAD_REACTORS
330
C69
102
}
330
1D
100
AcDbEntity
  8
Visible (ISO)
100
AcDbCircle
 10
109.9999999999987
 20
192.5855167065787
 30
0.0
 40
5.999999999998735
100
AcDbArc
 50
170.41140660406
 51
189.58859339594
  0
LINE
  5
C44
102
{ACAD_REACTORS
330
C69
102
}
330
1D
100
AcDbEntity
  8
Visible (ISO)
100
AcDbLine
 10
102.1957909044949
 20
189.254702933094
 30
0.0
 11
19.88402465105031
 21
185.7935383264748
 31
0.0
  0
LINE
  5
C45
102
{ACAD_REACTORS
330
C69
102
}
330
1D
100
AcDbEntity
  8
Visible (ISO)
100
AcDbLine
 10
17.80000000000001
 20
187.791772511453
 30
0.0
 11
17.80000000000001
 21
197.3792609017043
 31
0.0
  0
LINE
  5
C46
102
{ACAD_REACTORS
330
C69
102
}
330
1D
100
AcDbEntity
  8
Visible (ISO)
100
AcDbLine
 10
19.88402465105031
 20
199.3774950866826
 30
0.0
 11
102.1957909044949
 21
195.9163304800634
 31
0.0
  0
CIRCLE
  5
C47
102
{ACAD_REACTORS
330
C69
102
}
330
1D
100
AcDbEntity
  8
Visible (ISO)
100
AcDbCircle
 10
9.999999999999998
 20
187.5855167065787
 30
0.0
 40
1.55
  0
LINE
  5
C48
102
{ACAD_REACTORS
330
C69
102
}
330
1D
100
AcDbEntity
  8
Visible (ISO)
100
AcDbLine
 10
12.80000000000001
 20
188.1520974603096
 30
0.0
 11
12.80000000000001
 21
187.0189359528477
 31
0.0
  0
LINE
  5
C49
102
{ACAD_REACTORS
330
C69
102
}
330
1D
100
AcDbEntity
  8
Visible (ISO)
100
AcDbLine
 10
7.199999999999988
 20
187.0189359528478
 30
0.0
 11
7.199999999999988
 21
188.1520974603097
 31
0.0
  0
LINE
  5
C4A
102
{ACAD_REACTORS
330
C69
102
}
330
1D
100
AcDbEntity
  8
Visible (ISO)
100
AcDbLine
 10
8.109326673973667
 20
189.7270974603096
 30
0.0
 11
9.09067332602626
 21
190.2936782140406
 31
0.0
  0
LINE
  5
C4B
102
{ACAD_REACTORS
330
C69
102
}
330
1D
100
AcDbEntity
  8
Visible (ISO)
100
AcDbLine
 10
10.90932667397362
 20
190.2936782140406
 30
0.0
 11
11.89067332602633
 21
189.7270974603096
 31
0.0
  0
LINE
  5
C4C
102
{ACAD_REACTORS
330
C69
102
}
330
1D
100
AcDbEntity
  8
Visible (ISO)
100
AcDbLine
 10
9.09067332602626
 20
184.8773551991168
 30
0.0
 11
8.109326673973667
 21
185.4439359528478
 31
0.0
  0
LINE
  5
C4D
102
{ACAD_REACTORS
330
C69
102
}
330
1D
100
AcDbEntity
  8
Visible (ISO)
100
AcDbLine
 10
11.89067332602633
 20
185.4439359528478
 30
0.0
 11
10.90932667397362
 21
184.8773551991168
 31
0.0
  0
ARC
  5
C4E
102
{ACAD_REACTORS
330
C69
102
}
330
1D
100
AcDbEntity
  8
Visible (ISO)
100
AcDbCircle
 10
9.999999999999998
 20
185.4023551991168
 30
0.0
 40
1.05
100
AcDbArc
 50
209.9999999999986
 51
329.9999999999978
  0
ARC
  5
C4F
102
{ACAD_REACTORS
330
C69
102
}
330
1D
100
AcDbEntity
  8
Visible (ISO)
100
AcDbCircle
 10
9.999999999999998
 20
189.7686782140406
 30
0.0
 40
1.05
100
AcDbArc
 50
29.99999999999858
 51
149.9999999999997
  0
ARC
  5
C50
102
{ACAD_REACTORS
330
C69
102
}
330
1D
100
AcDbEntity
  8
Visible (ISO)
100
AcDbCircle
 10
8.109326673973667
 20
188.6770974603096
 30
0.0
 40
1.05
100
AcDbArc
 50
90.0
 51
210.0000000000021
  0
ARC
  5
C51
102
{ACAD_REACTORS
330
C69
102
}
330
1D
100
AcDbEntity
  8
Visible (ISO)
100
AcDbCircle
 10
11.89067332602633
 20
188.6770974603096
 30
0.0
 40
1.05
100
AcDbArc
 50
329.9999999999996
 51
90.0
  0
ARC
  5
C52
102
{ACAD_REACTORS
330
C69
102
}
330
1D
100
AcDbEntity
  8
Visible (ISO)
100
AcDbCircle
 10
11.89067332602633
 20
186.4939359528478
 30
0.0
 40
1.049999999999999
100
AcDbArc
 50
270.0
 51
30.00000000000218
  0
ARC
  5
C53
102
{ACAD_REACTORS
330
C69
102
}
330
1D
100
AcDbEntity
  8
Visible (ISO)
100
AcDbCircle
 10
8.109326673973667
 20
186.4939359528478
 30
0.0
 40
1.049999999999998
100
AcDbArc
 50
149.9999999999978
 51
270.0
  0
CIRCLE
  5
C54
102
{ACAD_REACTORS
330
C69
102
}
330
1D
100
AcDbEntity
  8
Visible (ISO)
100
AcDbCircle
 10
9.999999999999998
 20
197.5855167065787
 30
0.0
 40
1.55
  0
LINE
  5
C55
102
{ACAD_REACTORS
330
C69
102
}
330
1D
100
AcDbEntity
  8
Visible (ISO)
100
AcDbLine
 10
8.109326673973667
 20
199.7270974603097
 30
0.0
 11
9.09067332602626
 21
200.2936782140406
 31
0.0
  0
LINE
  5
C56
102
{ACAD_REACTORS
330
C69
102
}
330
1D
100
AcDbEntity
  8
Visible (ISO)
100
AcDbLine
 10
11.89067332602633
 20
195.4439359528478
 30
0.0
 11
10.90932667397362
 21
194.8773551991168
 31
0.0
  0
LINE
  5
C57
102
{ACAD_REACTORS
330
C69
102
}
330
1D
100
AcDbEntity
  8
Visible (ISO)
100
AcDbLine
 10
7.199999999999988
 20
197.0189359528477
 30
0.0
 11
7.199999999999988
 21
198.1520974603097
 31
0.0
  0
LINE
  5
C58
102
{ACAD_REACTORS
330
C69
102
}
330
1D
100
AcDbEntity
  8
Visible (ISO)
100
AcDbLine
 10
9.09067332602626
 20
194.8773551991168
 30
0.0
 11
8.109326673973667
 21
195.4439359528478
 31
0.0
  0
LINE
  5
C59
102
{ACAD_REACTORS
330
C69
102
}
330
1D
100
AcDbEntity
  8
Visible (ISO)
100
AcDbLine
 10
12.80000000000001
 20
198.1520974603096
 30
0.0
 11
12.80000000000001
 21
197.0189359528477
 31
0.0
  0
LINE
  5
C5A
102
{ACAD_REACTORS
330
C69
102
}
330
1D
100
AcDbEntity
  8
Visible (ISO)
100
AcDbLine
 10
10.90932667397362
 20
200.2936782140406
 30
0.0
 11
11.89067332602633
 21
199.7270974603097
 31
0.0
  0
ARC
  5
C5B
102
{ACAD_REACTORS
330
C69
102
}
330
1D
100
AcDbEntity
  8
Visible (ISO)
100
AcDbCircle
 10
8.109326673973667
 20
196.4939359528477
 30
0.0
 40
1.049999999999999
100
AcDbArc
 50
149.9999999999978
 51
270.0
  0
ARC
  5
C5C
102
{ACAD_REACTORS
330
C69
102
}
330
1D
100
AcDbEntity
  8
Visible (ISO)
100
AcDbCircle
 10
11.89067332602633
 20
196.4939359528477
 30
0.0
 40
1.05
100
AcDbArc
 50
270.0
 51
30.00000000000214
  0
ARC
  5
C5D
102
{ACAD_REACTORS
330
C69
102
}
330
1D
100
AcDbEntity
  8
Visible (ISO)
100
AcDbCircle
 10
11.89067332602633
 20
198.6770974603097
 30
0.0
 40
1.049999999999999
100
AcDbArc
 50
329.9999999999978
 51
90.0
  0
ARC
  5
C5E
102
{ACAD_REACTORS
330
C69
102
}
330
1D
100
AcDbEntity
  8
Visible (ISO)
100
AcDbCircle
 10
8.109326673973667
 20
198.6770974603097
 30
0.0
 40
1.05
100
AcDbArc
 50
90.0
 51
210.0000000000021
  0
ARC
  5
C5F
102
{ACAD_REACTORS
330
C69
102
}
330
1D
100
AcDbEntity
  8
Visible (ISO)
100
AcDbCircle
 10
9.999999999999998
 20
199.7686782140406
 30
0.0
 40
1.05
100
AcDbArc
 50
29.99999999999858
 51
149.9999999999997
  0
ARC
  5
C60
102
{ACAD_REACTORS
330
C69
102
}
330
1D
100
AcDbEntity
  8
Visible (ISO)
100
AcDbCircle
 10
9.999999999999998
 20
195.4023551991168
 30
0.0
 40
1.05
100
AcDbArc
 50
209.9999999999986
 51
329.9999999999996
  0
CIRCLE
  5
C61
102
{ACAD_REACTORS
330
C69
102
}
330
1D
100
AcDbEntity
  8
Visible (ISO)
100
AcDbCircle
 10
110.0
 20
192.5855167065787
 30
0.0
 40
4.05
  0
CIRCLE
  5
C62
102
{ACAD_REACTORS
330
C69
102
}
330
1D
100
AcDbEntity
  8
Visible (ISO)
100
AcDbCircle
 10
110.0
 20
192.5855167065787
 30
0.0
 40
1.55
  0
LINE
  5
C63
102
{ACAD_REACTORS
330
C69
102
}
330
1D
100
AcDbEntity
  8
Visible (ISO)
100
AcDbLine
 10
15.0
 20
182.5855167065787
 30
0.0
 11
4.999999999999999
 21
182.5855167065787
 31
0.0
  0
LINE
  5
C64
102
{ACAD_REACTORS
330
C69
102
}
330
1D
100
AcDbEntity
  8
Visible (ISO)
100
AcDbLine
 10
110.252073953151
 20
186.5908141516438
 30
0.0
 11
15.0
 21
182.5855167065787
 31
0.0
  0
ARC
  5
C65
102
{ACAD_REACTORS
330
C69
102
}
330
1D
100
AcDbEntity
  8
Visible (ISO)
100
AcDbCircle
 10
110.0
 20
192.5855167065787
 30
0.0
 40
6.000000000000003
100
AcDbArc
 50
272.4078376144794
 51
87.59216238552007
  0
LINE
  5
C66
102
{ACAD_REACTORS
330
C69
102
}
330
1D
100
AcDbEntity
  8
Visible (ISO)
100
AcDbLine
 10
15.0
 20
202.5855167065787
 30
0.0
 11
110.252073953151
 21
198.5802192615136
 31
0.0
  0
LINE
  5
C67
102
{ACAD_REACTORS
330
C69
102
}
330
1D
100
AcDbEntity
  8
Visible (ISO)
100
AcDbLine
 10
4.999999999999999
 20
202.5855167065787
 30
0.0
 11
15.0
 21
202.5855167065787
 31
0.0
  0
LINE
  5
C68
102
{ACAD_REACTORS
330
C69
102
}
330
1D
100
AcDbEntity
  8
Visible (ISO)
100
AcDbLine
 10
4.999999999999999
 20
182.5855167065787
 30
0.0
 11
4.999999999999999
 21
202.5855167065787
 31
0.0
  0
ARC
  5
CAA
102
{ACAD_REACTORS
330
CC4
102
}
330
1D
100
AcDbEntity
  8
Visible (ISO)
100
AcDbCircle
 10
119.0071067811865
 20
141.4355339059327
 30
0.0
 40
1.999999999999999
100
AcDbArc
 50
180.0
 51
224.9999999999991
  0
ARC
  5
CAB
102
{ACAD_REACTORS
330
CC4
102
}
330
1D
100
AcDbEntity
  8
Visible (ISO)
100
AcDbCircle
 10
125.0960069081858
 20
146.95
 30
0.0
 40
1.999999999999999
100
AcDbArc
 50
39.79096107474138
 51
90.0
  0
ARC
  5
CAC
102
{ACAD_REACTORS
330
CC4
102
}
330
1D
100
AcDbEntity
  8
Visible (ISO)
100
AcDbCircle
 10
119.0071067811865
 20
146.95
 30
0.0
 40
1.999999999999998
100
AcDbArc
 50
90.0
 51
180.0
  0
ARC
  5
CAD
102
{ACAD_REACTORS
330
CC4
102
}
330
1D
100
AcDbEntity
  8
Visible (ISO)
100
AcDbCircle
 10
162.2426406871191
 20
98.2
 30
0.0
 40
2.000000000000021
100
AcDbArc
 50
225.0000000000003
 51
270.0
  0
ARC
  5
CAE
102
{ACAD_REACTORS
330
CC4
102
}
330
1D
100
AcDbEntity
  8
Visible (ISO)
100
AcDbCircle
 10
165.6999479058426
 20
98.2
 30
0.0
 40
2.000000000000001
100
AcDbArc
 50
270.0
 51
39.79096107474054
  0
LINE
  5
CAF
102
{ACAD_REACTORS
330
CC4
102
}
330
1D
100
AcDbEntity
  8
Visible (ISO)
100
AcDbLine
 10
160.8284271247462
 20
96.78578643762681
 30
0.0
 11
117.5928932188134
 21
140.0213203435596
 31
0.0
  0
LINE
  5
CB0
102
{ACAD_REACTORS
330
CC4
102
}
330
1D
100
AcDbEntity
  8
Visible (ISO)
100
AcDbLine
 10
119.0071067811865
 20
148.95
 30
0.0
 11
125.0960069081858
 21
148.95
 31
0.0
  0
LINE
  5
CB1
102
{ACAD_REACTORS
330
CC4
102
}
330
1D
100
AcDbEntity
  8
Visible (ISO)
100
AcDbLine
 10
117.0071067811865
 20
141.4355339059327
 30
0.0
 11
117.0071067811865
 21
146.95
 31
0.0
  0
LINE
  5
CB2
102
{ACAD_REACTORS
330
CC4
102
}
330
1D
100
AcDbEntity
  8
Visible (ISO)
100
AcDbLine
 10
165.6999479058426
 20
96.2
 30
0.0
 11
162.2426406871191
 21
96.2
 31
0.0
  0
LINE
  5
CB3
102
{ACAD_REACTORS
330
CC4
102
}
330
1D
100
AcDbEntity
  8
Visible (ISO)
100
AcDbLine
 10
126.6327759023917
 20
148.229976975749
 30
0.0
 11
167.2367169000483
 21
99.47997697574901
 31
0.0
  0
ARC
  5
CB4
102
{ACAD_REACTORS
330
CC4
102
}
330
1D
100
AcDbEntity
  8
Visible (ISO)
100
AcDbCircle
 10
116.0071067811865
 20
148.5648351928655
 30
0.0
 40
2.0
100
AcDbArc
 50
130.1949279489142
 51
180.0
  0
ARC
  5
CB5
102
{ACAD_REACTORS
330
CC4
102
}
330
1D
100
AcDbEntity
  8
Visible (ISO)
100
AcDbCircle
 10
116.0071067811865
 20
140.1928932188134
 30
0.0
 40
1.999999999999989
100
AcDbArc
 50
180.0
 51
224.9999999999997
  0
ARC
  5
CB6
102
{ACAD_REACTORS
330
CC4
102
}
330
1D
100
AcDbEntity
  8
Visible (ISO)
100
AcDbCircle
 10
161.0
 20
95.19999999999989
 30
0.0
 40
1.999999999999966
100
AcDbArc
 50
225.0000000000006
 51
270.0000000000016
  0
ARC
  5
CB7
102
{ACAD_REACTORS
330
CC4
102
}
330
1D
100
AcDbEntity
  8
Visible (ISO)
100
AcDbCircle
 10
170.2071067811865
 20
95.2
 30
0.0
 40
1.999999999999984
100
AcDbArc
 50
270.0
 51
0.0
  0
ARC
  5
CB8
102
{ACAD_REACTORS
330
CC4
102
}
330
1D
100
AcDbEntity
  8
Visible (ISO)
100
AcDbCircle
 10
170.2071067811865
 20
97.47618853374591
 30
0.0
 40
1.999999999999965
100
AcDbArc
 50
0.0
 51
39.79096107474189
  0
ARC
  5
CB9
102
{ACAD_REACTORS
330
CC4
102
}
330
1D
100
AcDbEntity
  8
Visible (ISO)
100
AcDbCircle
 10
116.0071067811865
 20
161.7151464892814
 30
0.0
 40
2.000000000000002
100
AcDbArc
 50
59.63176167527686
 51
180.0
  0
ARC
  5
CBA
102
{ACAD_REACTORS
330
CC4
102
}
330
1D
100
AcDbEntity
  8
Visible (ISO)
100
AcDbCircle
 10
116.0071067811865
 20
159.3351648071345
 30
0.0
 40
1.999999999999998
100
AcDbArc
 50
180.0
 51
229.8050720510861
  0
ARC
  5
CBB
102
{ACAD_REACTORS
330
CC4
102
}
330
1D
100
AcDbEntity
  8
Visible (ISO)
100
AcDbCircle
 10
111.4571067811865
 20
153.95
 30
0.0
 40
5.049999999999998
100
AcDbArc
 50
310.1949279489126
 51
49.80507205108653
  0
LINE
  5
CBC
102
{ACAD_REACTORS
330
CC4
102
}
330
1D
100
AcDbEntity
  8
Visible (ISO)
100
AcDbLine
 10
114.0071067811865
 20
148.5648351928655
 30
0.0
 11
114.0071067811865
 21
140.1928932188134
 31
0.0
  0
LINE
  5
CBD
102
{ACAD_REACTORS
330
CC4
102
}
330
1D
100
AcDbEntity
  8
Visible (ISO)
100
AcDbLine
 10
114.5928932188134
 20
138.7786796564404
 30
0.0
 11
159.5857864376269
 21
93.7857864376269
 31
0.0
  0
LINE
  5
CBE
102
{ACAD_REACTORS
330
CC4
102
}
330
1D
100
AcDbEntity
  8
Visible (ISO)
100
AcDbLine
 10
161.0
 20
93.2
 30
0.0
 11
170.2071067811865
 21
93.2
 31
0.0
  0
LINE
  5
CBF
102
{ACAD_REACTORS
330
CC4
102
}
330
1D
100
AcDbEntity
  8
Visible (ISO)
100
AcDbLine
 10
172.2071067811865
 20
95.2
 30
0.0
 11
172.2071067811865
 21
97.47618853374591
 31
0.0
  0
LINE
  5
CC0
102
{ACAD_REACTORS
330
CC4
102
}
330
1D
100
AcDbEntity
  8
Visible (ISO)
100
AcDbLine
 10
171.7438757753924
 20
98.75616550949489
 30
0.0
 11
119.9093362493186
 21
160.9898733666194
 31
0.0
  0
ARC
  5
CC1
102
{ACAD_REACTORS
330
CC4
102
}
330
1D
100
AcDbEntity
  8
Visible (ISO)
100
AcDbCircle
 10
111.4571067811865
 20
153.95
 30
0.0
 40
10.99999999999997
100
AcDbArc
 50
39.79096107474126
 51
59.63176167527692
  0
LINE
  5
CC2
102
{ACAD_REACTORS
330
CC4
102
}
330
1D
100
AcDbEntity
  8
Visible (ISO)
100
AcDbLine
 10
114.0071067811865
 20
161.7151464892814
 30
0.0
 11
114.0071067811865
 21
159.3351648071345
 31
0.0
  0
CIRCLE
  5
CC3
102
{ACAD_REACTORS
330
CC4
102
}
330
1D
100
AcDbEntity
  8
Visible (ISO)
100
AcDbCircle
 10
119.9571067811865
 20
153.95
 30
0.0
 40
1.35
  0
ARC
  5
CC5
102
{ACAD_REACTORS
330
CDF
102
}
330
1D
100
AcDbEntity
  8
Visible (ISO)
100
AcDbCircle
 10
96.84065462781318
 20
146.4000000000001
 30
0.0
 40
1.999999999999999
100
AcDbArc
 50
45.00000000000058
 51
90.0
  0
ARC
  5
CC6
102
{ACAD_REACTORS
330
CDF
102
}
330
1D
100
AcDbEntity
  8
Visible (ISO)
100
AcDbCircle
 10
91.32618853374582
 20
140.3110998730007
 30
0.0
 40
1.999999999999999
100
AcDbArc
 50
180.0
 51
230.2090389252583
  0
ARC
  5
CC7
102
{ACAD_REACTORS
330
CDF
102
}
330
1D
100
AcDbEntity
  8
Visible (ISO)
100
AcDbCircle
 10
91.32618853374582
 20
146.4000000000001
 30
0.0
 40
1.999999999999998
100
AcDbArc
 50
90.0
 51
180.0
  0
ARC
  5
CC8
102
{ACAD_REACTORS
330
CDF
102
}
330
1D
100
AcDbEntity
  8
Visible (ISO)
100
AcDbCircle
 10
140.0761885337459
 20
103.1644660940674
 30
0.0
 40
2.000000000000021
100
AcDbArc
 50
0.0
 51
45.0
  0
ARC
  5
CC9
102
{ACAD_REACTORS
330
CDF
102
}
330
1D
100
AcDbEntity
  8
Visible (ISO)
100
AcDbCircle
 10
140.0761885337459
 20
99.70715887534392
 30
0.0
 40
2.000000000000001
100
AcDbArc
 50
230.2090389252589
 51
0.0
  0
LINE
  5
CCA
102
{ACAD_REACTORS
330
CDF
102
}
330
1D
100
AcDbEntity
  8
Visible (ISO)
100
AcDbLine
 10
141.4904020961191
 20
104.5786796564403
 30
0.0
 11
98.25486819018629
 21
147.8142135623731
 31
0.0
  0
LINE
  5
CCB
102
{ACAD_REACTORS
330
CDF
102
}
330
1D
100
AcDbEntity
  8
Visible (ISO)
100
AcDbLine
 10
89.32618853374582
 20
146.4000000000001
 30
0.0
 11
89.32618853374582
 21
140.3110998730007
 31
0.0
  0
LINE
  5
CCC
102
{ACAD_REACTORS
330
CDF
102
}
330
1D
100
AcDbEntity
  8
Visible (ISO)
100
AcDbLine
 10
96.84065462781318
 20
148.4000000000001
 30
0.0
 11
91.32618853374582
 21
148.4000000000001
 31
0.0
  0
LINE
  5
CCD
102
{ACAD_REACTORS
330
CDF
102
}
330
1D
100
AcDbEntity
  8
Visible (ISO)
100
AcDbLine
 10
142.0761885337459
 20
99.70715887534392
 30
0.0
 11
142.0761885337459
 21
103.1644660940674
 31
0.0
  0
LINE
  5
CCE
102
{ACAD_REACTORS
330
CDF
102
}
330
1D
100
AcDbEntity
  8
Visible (ISO)
100
AcDbLine
 10
90.04621155799684
 20
138.7743308787948
 30
0.0
 11
138.7962115579969
 21
98.17038988113815
 31
0.0
  0
ARC
  5
CCF
102
{ACAD_REACTORS
330
CDF
102
}
330
1D
100
AcDbEntity
  8
Visible (ISO)
100
AcDbCircle
 10
89.71135334088034
 20
149.4000000000001
 30
0.0
 40
2.0
100
AcDbArc
 50
90.0
 51
139.8050720510867
  0
ARC
  5
CD0
102
{ACAD_REACTORS
330
CDF
102
}
330
1D
100
AcDbEntity
  8
Visible (ISO)
100
AcDbCircle
 10
98.08329531493247
 20
149.4000000000001
 30
0.0
 40
1.999999999999989
100
AcDbArc
 50
45.00000000000058
 51
90.0
  0
ARC
  5
CD1
102
{ACAD_REACTORS
330
CDF
102
}
330
1D
100
AcDbEntity
  8
Visible (ISO)
100
AcDbCircle
 10
143.076188533746
 20
104.4071067811865
 30
0.0
 40
1.999999999999966
100
AcDbArc
 50
359.9999999999984
 51
44.99999999999856
  0
ARC
  5
CD2
102
{ACAD_REACTORS
330
CDF
102
}
330
1D
100
AcDbEntity
  8
Visible (ISO)
100
AcDbCircle
 10
143.0761885337459
 20
95.2
 30
0.0
 40
1.999999999999984
100
AcDbArc
 50
270.0
 51
0.0
  0
ARC
  5
CD3
102
{ACAD_REACTORS
330
CDF
102
}
330
1D
100
AcDbEntity
  8
Visible (ISO)
100
AcDbCircle
 10
140.8
 20
95.2
 30
0.0
 40
1.999999999999965
100
AcDbArc
 50
230.2090389252579
 51
270.0
  0
ARC
  5
CD4
102
{ACAD_REACTORS
330
CDF
102
}
330
1D
100
AcDbEntity
  8
Visible (ISO)
100
AcDbCircle
 10
76.56104204446443
 20
149.4000000000001
 30
0.0
 40
2.000000000000002
100
AcDbArc
 50
90.0
 51
210.368238324725
  0
ARC
  5
CD5
102
{ACAD_REACTORS
330
CDF
102
}
330
1D
100
AcDbEntity
  8
Visible (ISO)
100
AcDbCircle
 10
78.94102372661136
 20
149.4000000000001
 30
0.0
 40
1.999999999999998
100
AcDbArc
 50
40.1949279489136
 51
90.0
  0
ARC
  5
CD6
102
{ACAD_REACTORS
330
CDF
102
}
330
1D
100
AcDbEntity
  8
Visible (ISO)
100
AcDbCircle
 10
84.32618853374582
 20
153.95
 30
0.0
 40
5.049999999999998
100
AcDbArc
 50
220.1949279489132
 51
319.8050720510868
  0
LINE
  5
CD7
102
{ACAD_REACTORS
330
CDF
102
}
330
1D
100
AcDbEntity
  8
Visible (ISO)
100
AcDbLine
 10
89.71135334088034
 20
151.4000000000001
 30
0.0
 11
98.08329531493247
 21
151.4000000000001
 31
0.0
  0
LINE
  5
CD8
102
{ACAD_REACTORS
330
CDF
102
}
330
1D
100
AcDbEntity
  8
Visible (ISO)
100
AcDbLine
 10
99.49750887730549
 20
150.8142135623731
 30
0.0
 11
144.490402096119
 21
105.8213203435596
 31
0.0
  0
LINE
  5
CD9
102
{ACAD_REACTORS
330
CDF
102
}
330
1D
100
AcDbEntity
  8
Visible (ISO)
100
AcDbLine
 10
145.0761885337459
 20
104.4071067811865
 30
0.0
 11
145.0761885337459
 21
95.2
 31
0.0
  0
LINE
  5
CDA
102
{ACAD_REACTORS
330
CDF
102
}
330
1D
100
AcDbEntity
  8
Visible (ISO)
100
AcDbLine
 10
143.0761885337459
 20
93.2
 30
0.0
 11
140.8
 21
93.2
 31
0.0
  0
LINE
  5
CDB
102
{ACAD_REACTORS
330
CDF
102
}
330
1D
100
AcDbEntity
  8
Visible (ISO)
100
AcDbLine
 10
139.520023024251
 20
93.66323100579412
 30
0.0
 11
77.28631516712646
 21
145.4977705318679
 31
0.0
  0
ARC
  5
CDC
102
{ACAD_REACTORS
330
CDF
102
}
330
1D
100
AcDbEntity
  8
Visible (ISO)
100
AcDbCircle
 10
84.32618853374582
 20
153.95
 30
0.0
 40
10.99999999999997
100
AcDbArc
 50
210.3682383247229
 51
230.2090389252589
  0
LINE
  5
CDD
102
{ACAD_REACTORS
330
CDF
102
}
330
1D
100
AcDbEntity
  8
Visible (ISO)
100
AcDbLine
 10
76.56104204446443
 20
151.4000000000001
 30
0.0
 11
78.94102372661136
 21
151.4000000000001
 31
0.0
  0
CIRCLE
  5
CDE
102
{ACAD_REACTORS
330
CDF
102
}
330
1D
100
AcDbEntity
  8
Visible (ISO)
100
AcDbCircle
 10
84.32618853374582
 20
145.45
 30
0.0
 40
1.35
  0
ARC
  5
D11
102
{ACAD_REACTORS
330
D3B
102
}
330
1D
100
AcDbEntity
  8
Visible (ISO)
100
AcDbCircle
 10
102.1117662534446
 20
216.0180962950852
 30
0.0
 40
1.999999999999983
100
AcDbArc
 50
350.4114066040614
 51
87.59216238552169
  0
ARC
  5
D12
102
{ACAD_REACTORS
330
D3B
102
}
330
1D
100
AcDbEntity
  8
Visible (ISO)
100
AcDbCircle
 10
102.1117662534446
 20
213.3529371180722
 30
0.0
 40
1.99999999999999
100
AcDbArc
 50
272.4078376144799
 51
9.588593395939318
  0
ARC
  5
D13
102
{ACAD_REACTORS
330
D3B
102
}
330
1D
100
AcDbEntity
  8
Visible (ISO)
100
AcDbCircle
 10
19.8
 20
219.4792609017043
 30
0.0
 40
2.0
100
AcDbArc
 50
87.59216238552007
 51
180.0
  0
ARC
  5
D14
102
{ACAD_REACTORS
330
D3B
102
}
330
1D
100
AcDbEntity
  8
Visible (ISO)
100
AcDbCircle
 10
19.8
 20
209.891772511453
 30
0.0
 40
1.999999999999999
100
AcDbArc
 50
180.0
 51
272.4078376144799
  0
ARC
  5
D15
102
{ACAD_REACTORS
330
D3B
102
}
330
1D
100
AcDbEntity
  8
Visible (ISO)
100
AcDbCircle
 10
109.9999999999987
 20
214.6855167065787
 30
0.0
 40
5.999999999998735
100
AcDbArc
 50
170.41140660406
 51
189.58859339594
  0
LINE
  5
D16
102
{ACAD_REACTORS
330
D3B
102
}
330
1D
100
AcDbEntity
  8
Visible (ISO)
100
AcDbLine
 10
102.1957909044949
 20
211.354702933094
 30
0.0
 11
19.8840246510503
 21
207.8935383264748
 31
0.0
  0
LINE
  5
D17
102
{ACAD_REACTORS
330
D3B
102
}
330
1D
100
AcDbEntity
  8
Visible (ISO)
100
AcDbLine
 10
17.8
 20
209.891772511453
 30
0.0
 11
17.8
 21
219.4792609017043
 31
0.0
  0
LINE
  5
D18
102
{ACAD_REACTORS
330
D3B
102
}
330
1D
100
AcDbEntity
  8
Visible (ISO)
100
AcDbLine
 10
19.8840246510503
 20
221.4774950866826
 30
0.0
 11
102.1957909044949
 21
218.0163304800634
 31
0.0
  0
CIRCLE
  5
D19
102
{ACAD_REACTORS
330
D3B
102
}
330
1D
100
AcDbEntity
  8
Visible (ISO)
100
AcDbCircle
 10
9.999999999999993
 20
209.6855167065787
 30
0.0
 40
1.55
  0
LINE
  5
D1A
102
{ACAD_REACTORS
330
D3B
102
}
330
1D
100
AcDbEntity
  8
Visible (ISO)
100
AcDbLine
 10
12.8
 20
210.2520974603096
 30
0.0
 11
12.8
 21
209.1189359528477
 31
0.0
  0
LINE
  5
D1B
102
{ACAD_REACTORS
330
D3B
102
}
330
1D
100
AcDbEntity
  8
Visible (ISO)
100
AcDbLine
 10
7.199999999999982
 20
209.1189359528478
 30
0.0
 11
7.199999999999982
 21
210.2520974603097
 31
0.0
  0
LINE
  5
D1C
102
{ACAD_REACTORS
330
D3B
102
}
330
1D
100
AcDbEntity
  8
Visible (ISO)
100
AcDbLine
 10
8.109326673973662
 20
211.8270974603096
 30
0.0
 11
9.090673326026256
 21
212.3936782140406
 31
0.0
  0
LINE
  5
D1D
102
{ACAD_REACTORS
330
D3B
102
}
330
1D
100
AcDbEntity
  8
Visible (ISO)
100
AcDbLine
 10
10.90932667397362
 20
212.3936782140406
 30
0.0
 11
11.89067332602632
 21
211.8270974603096
 31
0.0
  0
LINE
  5
D1E
102
{ACAD_REACTORS
330
D3B
102
}
330
1D
100
AcDbEntity
  8
Visible (ISO)
100
AcDbLine
 10
9.090673326026256
 20
206.9773551991168
 30
0.0
 11
8.109326673973662
 21
207.5439359528478
 31
0.0
  0
LINE
  5
D1F
102
{ACAD_REACTORS
330
D3B
102
}
330
1D
100
AcDbEntity
  8
Visible (ISO)
100
AcDbLine
 10
11.89067332602632
 20
207.5439359528478
 30
0.0
 11
10.90932667397362
 21
206.9773551991168
 31
0.0
  0
ARC
  5
D20
102
{ACAD_REACTORS
330
D3B
102
}
330
1D
100
AcDbEntity
  8
Visible (ISO)
100
AcDbCircle
 10
9.999999999999993
 20
207.5023551991168
 30
0.0
 40
1.05
100
AcDbArc
 50
209.9999999999986
 51
329.9999999999978
  0
ARC
  5
D21
102
{ACAD_REACTORS
330
D3B
102
}
330
1D
100
AcDbEntity
  8
Visible (ISO)
100
AcDbCircle
 10
9.999999999999993
 20
211.8686782140406
 30
0.0
 40
1.05
100
AcDbArc
 50
29.99999999999858
 51
149.9999999999997
  0
ARC
  5
D22
102
{ACAD_REACTORS
330
D3B
102
}
330
1D
100
AcDbEntity
  8
Visible (ISO)
100
AcDbCircle
 10
8.109326673973662
 20
210.7770974603096
 30
0.0
 40
1.05
100
AcDbArc
 50
90.0
 51
210.0000000000021
  0
ARC
  5
D23
102
{ACAD_REACTORS
330
D3B
102
}
330
1D
100
AcDbEntity
  8
Visible (ISO)
100
AcDbCircle
 10
11.89067332602632
 20
210.7770974603096
 30
0.0
 40
1.05
100
AcDbArc
 50
329.9999999999996
 51
90.0
  0
ARC
  5
D24
102
{ACAD_REACTORS
330
D3B
102
}
330
1D
100
AcDbEntity
  8
Visible (ISO)
100
AcDbCircle
 10
11.89067332602632
 20
208.5939359528478
 30
0.0
 40
1.049999999999999
100
AcDbArc
 50
270.0
 51
30.00000000000218
  0
ARC
  5
D25
102
{ACAD_REACTORS
330
D3B
102
}
330
1D
100
AcDbEntity
  8
Visible (ISO)
100
AcDbCircle
 10
8.109326673973662
 20
208.5939359528478
 30
0.0
 40
1.049999999999998
100
AcDbArc
 50
149.9999999999978
 51
270.0
  0
CIRCLE
  5
D26
102
{ACAD_REACTORS
330
D3B
102
}
330
1D
100
AcDbEntity
  8
Visible (ISO)
100
AcDbCircle
 10
9.999999999999993
 20
219.6855167065787
 30
0.0
 40
1.55
  0
LINE
  5
D27
102
{ACAD_REACTORS
330
D3B
102
}
330
1D
100
AcDbEntity
  8
Visible (ISO)
100
AcDbLine
 10
8.109326673973662
 20
221.8270974603097
 30
0.0
 11
9.090673326026256
 21
222.3936782140406
 31
0.0
  0
LINE
  5
D28
102
{ACAD_REACTORS
330
D3B
102
}
330
1D
100
AcDbEntity
  8
Visible (ISO)
100
AcDbLine
 10
11.89067332602632
 20
217.5439359528478
 30
0.0
 11
10.90932667397362
 21
216.9773551991168
 31
0.0
  0
LINE
  5
D29
102
{ACAD_REACTORS
330
D3B
102
}
330
1D
100
AcDbEntity
  8
Visible (ISO)
100
AcDbLine
 10
7.199999999999982
 20
219.1189359528477
 30
0.0
 11
7.199999999999982
 21
220.2520974603097
 31
0.0
  0
LINE
  5
D2A
102
{ACAD_REACTORS
330
D3B
102
}
330
1D
100
AcDbEntity
  8
Visible (ISO)
100
AcDbLine
 10
9.090673326026256
 20
216.9773551991168
 30
0.0
 11
8.109326673973662
 21
217.5439359528478
 31
0.0
  0
LINE
  5
D2B
102
{ACAD_REACTORS
330
D3B
102
}
330
1D
100
AcDbEntity
  8
Visible (ISO)
100
AcDbLine
 10
12.8
 20
220.2520974603096
 30
0.0
 11
12.8
 21
219.1189359528477
 31
0.0
  0
LINE
  5
D2C
102
{ACAD_REACTORS
330
D3B
102
}
330
1D
100
AcDbEntity
  8
Visible (ISO)
100
AcDbLine
 10
10.90932667397362
 20
222.3936782140406
 30
0.0
 11
11.89067332602632
 21
221.8270974603097
 31
0.0
  0
ARC
  5
D2D
102
{ACAD_REACTORS
330
D3B
102
}
330
1D
100
AcDbEntity
  8
Visible (ISO)
100
AcDbCircle
 10
8.109326673973662
 20
218.5939359528477
 30
0.0
 40
1.049999999999999
100
AcDbArc
 50
149.9999999999978
 51
270.0
  0
ARC
  5
D2E
102
{ACAD_REACTORS
330
D3B
102
}
330
1D
100
AcDbEntity
  8
Visible (ISO)
100
AcDbCircle
 10
11.89067332602632
 20
218.5939359528477
 30
0.0
 40
1.05
100
AcDbArc
 50
270.0
 51
30.00000000000214
  0
ARC
  5
D2F
102
{ACAD_REACTORS
330
D3B
102
}
330
1D
100
AcDbEntity
  8
Visible (ISO)
100
AcDbCircle
 10
11.89067332602632
 20
220.7770974603097
 30
0.0
 40
1.049999999999999
100
AcDbArc
 50
329.9999999999978
 51
90.0
  0
ARC
  5
D30
102
{ACAD_REACTORS
330
D3B
102
}
330
1D
100
AcDbEntity
  8
Visible (ISO)
100
AcDbCircle
 10
8.109326673973662
 20
220.7770974603097
 30
0.0
 40
1.05
100
AcDbArc
 50
90.0
 51
210.0000000000021
  0
ARC
  5
D31
102
{ACAD_REACTORS
330
D3B
102
}
330
1D
100
AcDbEntity
  8
Visible (ISO)
100
AcDbCircle
 10
9.999999999999993
 20
221.8686782140406
 30
0.0
 40
1.05
100
AcDbArc
 50
29.99999999999858
 51
149.9999999999997
  0
ARC
  5
D32
102
{ACAD_REACTORS
330
D3B
102
}
330
1D
100
AcDbEntity
  8
Visible (ISO)
100
AcDbCircle
 10
9.999999999999993
 20
217.5023551991168
 30
0.0
 40
1.05
100
AcDbArc
 50
209.9999999999986
 51
329.9999999999996
  0
CIRCLE
  5
D33
102
{ACAD_REACTORS
330
D3B
102
}
330
1D
100
AcDbEntity
  8
Visible (ISO)
100
AcDbCircle
 10
110.0
 20
214.6855167065787
 30
0.0
 40
4.05
  0
CIRCLE
  5
D34
102
{ACAD_REACTORS
330
D3B
102
}
330
1D
100
AcDbEntity
  8
Visible (ISO)
100
AcDbCircle
 10
110.0
 20
214.6855167065787
 30
0.0
 40
1.55
  0
LINE
  5
D35
102
{ACAD_REACTORS
330
D3B
102
}
330
1D
100
AcDbEntity
  8
Visible (ISO)
100
AcDbLine
 10
14.99999999999999
 20
204.6855167065787
 30
0.0
 11
4.999999999999994
 21
204.6855167065787
 31
0.0
  0
LINE
  5
D36
102
{ACAD_REACTORS
330
D3B
102
}
330
1D
100
AcDbEntity
  8
Visible (ISO)
100
AcDbLine
 10
110.252073953151
 20
208.6908141516438
 30
0.0
 11
14.99999999999999
 21
204.6855167065787
 31
0.0
  0
ARC
  5
D37
102
{ACAD_REACTORS
330
D3B
102
}
330
1D
100
AcDbEntity
  8
Visible (ISO)
100
AcDbCircle
 10
110.0
 20
214.6855167065787
 30
0.0
 40
6.000000000000003
100
AcDbArc
 50
272.4078376144794
 51
87.59216238552007
  0
LINE
  5
D38
102
{ACAD_REACTORS
330
D3B
102
}
330
1D
100
AcDbEntity
  8
Visible (ISO)
100
AcDbLine
 10
14.99999999999999
 20
224.6855167065787
 30
0.0
 11
110.252073953151
 21
220.6802192615136
 31
0.0
  0
LINE
  5
D39
102
{ACAD_REACTORS
330
D3B
102
}
330
1D
100
AcDbEntity
  8
Visible (ISO)
100
AcDbLine
 10
4.999999999999994
 20
224.6855167065787
 30
0.0
 11
14.99999999999999
 21
224.6855167065787
 31
0.0
  0
LINE
  5
D3A
102
{ACAD_REACTORS
330
D3B
102
}
330
1D
100
AcDbEntity
  8
Visible (ISO)
100
AcDbLine
 10
4.999999999999994
 20
204.6855167065787
 30
0.0
 11
4.999999999999994
 21
224.6855167065787
 31
0.0
  0
ARC
  5
10D3
102
{ACAD_REACTORS
330
1107
102
}
330
1D
100
AcDbEntity
  8
Visible (ISO)
100
AcDbCircle
 10
136.25
 20
200.0002525316942
 30
0.0
 40
2.0
100
AcDbArc
 50
45.00000000000058
 51
134.9999999999994
  0
ARC
  5
10D4
102
{ACAD_REACTORS
330
1107
102
}
330
1D
100
AcDbEntity
  8
Visible (ISO)
100
AcDbCircle
 10
131.3002525316942
 20
204.95
 30
0.0
 40
2.000000000000001
100
AcDbArc
 50
314.9999999999994
 51
45.0
  0
ARC
  5
10D5
102
{ACAD_REACTORS
330
1107
102
}
330
1D
100
AcDbEntity
  8
Visible (ISO)
100
AcDbCircle
 10
146.5
 20
210.2502525316942
 30
0.0
 40
2.000000000000001
100
AcDbArc
 50
0.0
 51
135.0
  0
ARC
  5
10D6
102
{ACAD_REACTORS
330
1107
102
}
330
1D
100
AcDbEntity
  8
Visible (ISO)
100
AcDbCircle
 10
141.5502525316941
 20
215.2
 30
0.0
 40
1.999999999999999
100
AcDbArc
 50
314.9999999999994
 51
90.0
  0
ARC
  5
10D7
102
{ACAD_REACTORS
330
1107
102
}
330
1D
100
AcDbEntity
  8
Visible (ISO)
100
AcDbCircle
 10
146.5
 20
199.6497474683058
 30
0.0
 40
1.999999999999999
100
AcDbArc
 50
225.0000000000006
 51
0.0
  0
ARC
  5
10D8
102
{ACAD_REACTORS
330
1107
102
}
330
1D
100
AcDbEntity
  8
Visible (ISO)
100
AcDbCircle
 10
130.9497474683058
 20
215.2
 30
0.0
 40
1.999999999999999
100
AcDbArc
 50
90.0
 51
225.0000000000006
  0
ARC
  5
10D9
102
{ACAD_REACTORS
330
1107
102
}
330
1D
100
AcDbEntity
  8
Visible (ISO)
100
AcDbCircle
 10
126.0
 20
210.2502525316942
 30
0.0
 40
1.999999999999999
100
AcDbArc
 50
45.00000000000029
 51
180.0
  0
ARC
  5
10DA
102
{ACAD_REACTORS
330
1107
102
}
330
1D
100
AcDbEntity
  8
Visible (ISO)
100
AcDbCircle
 10
136.25
 20
209.8997474683057
 30
0.0
 40
2.0
100
AcDbArc
 50
225.0000000000006
 51
314.9999999999994
  0
ARC
  5
10DB
102
{ACAD_REACTORS
330
1107
102
}
330
1D
100
AcDbEntity
  8
Visible (ISO)
100
AcDbCircle
 10
141.1997474683058
 20
204.95
 30
0.0
 40
2.000000000000001
100
AcDbArc
 50
135.0
 51
225.0
  0
ARC
  5
10DC
102
{ACAD_REACTORS
330
1107
102
}
330
1D
100
AcDbEntity
  8
Visible (ISO)
100
AcDbCircle
 10
126.0
 20
199.6497474683058
 30
0.0
 40
1.999999999999999
100
AcDbArc
 50
180.0
 51
314.9999999999997
  0
ARC
  5
10DD
102
{ACAD_REACTORS
330
1107
102
}
330
1D
100
AcDbEntity
  8
Visible (ISO)
100
AcDbCircle
 10
130.9497474683058
 20
194.7
 30
0.0
 40
2.0
100
AcDbArc
 50
134.9999999999994
 51
270.0
  0
ARC
  5
10DE
102
{ACAD_REACTORS
330
1107
102
}
330
1D
100
AcDbEntity
  8
Visible (ISO)
100
AcDbCircle
 10
141.5502525316941
 20
194.7
 30
0.0
 40
1.999999999999999
100
AcDbArc
 50
270.0
 51
45.00000000000058
  0
LINE
  5
10DF
102
{ACAD_REACTORS
330
1107
102
}
330
1D
100
AcDbEntity
  8
Visible (ISO)
100
AcDbLine
 10
137.6642135623731
 20
201.4144660940673
 30
0.0
 11
142.9644660940672
 21
196.1142135623731
 31
0.0
  0
LINE
  5
10E0
102
{ACAD_REACTORS
330
1107
102
}
330
1D
100
AcDbEntity
  8
Visible (ISO)
100
AcDbLine
 10
132.7144660940672
 20
203.5357864376269
 30
0.0
 11
127.4142135623731
 21
198.2355339059327
 31
0.0
  0
LINE
  5
10E1
102
{ACAD_REACTORS
330
1107
102
}
330
1D
100
AcDbEntity
  8
Visible (ISO)
100
AcDbLine
 10
148.5
 20
210.2502525316942
 30
0.0
 11
148.5
 21
199.6497474683058
 31
0.0
  0
LINE
  5
10E2
102
{ACAD_REACTORS
330
1107
102
}
330
1D
100
AcDbEntity
  8
Visible (ISO)
100
AcDbLine
 10
130.9497474683058
 20
217.2
 30
0.0
 11
141.5502525316941
 21
217.2
 31
0.0
  0
LINE
  5
10E3
102
{ACAD_REACTORS
330
1107
102
}
330
1D
100
AcDbEntity
  8
Visible (ISO)
100
AcDbLine
 10
124.0
 20
199.6497474683058
 30
0.0
 11
124.0
 21
210.2502525316942
 31
0.0
  0
LINE
  5
10E4
102
{ACAD_REACTORS
330
1107
102
}
330
1D
100
AcDbEntity
  8
Visible (ISO)
100
AcDbLine
 10
134.8357864376269
 20
208.4855339059327
 30
0.0
 11
129.5355339059328
 21
213.7857864376269
 31
0.0
  0
LINE
  5
10E5
102
{ACAD_REACTORS
330
1107
102
}
330
1D
100
AcDbEntity
  8
Visible (ISO)
100
AcDbLine
 10
139.7855339059327
 20
206.3642135623731
 30
0.0
 11
145.0857864376269
 21
211.6644660940673
 31
0.0
  0
LINE
  5
10E6
102
{ACAD_REACTORS
330
1107
102
}
330
1D
100
AcDbEntity
  8
Visible (ISO)
100
AcDbLine
 10
141.5502525316941
 20
192.7
 30
0.0
 11
130.9497474683058
 21
192.7
 31
0.0
  0
LINE
  5
10E7
102
{ACAD_REACTORS
330
1107
102
}
330
1D
100
AcDbEntity
  8
Visible (ISO)
100
AcDbLine
 10
129.5355339059328
 20
196.1142135623731
 30
0.0
 11
134.8357864376269
 21
201.4144660940673
 31
0.0
  0
LINE
  5
10E8
102
{ACAD_REACTORS
330
1107
102
}
330
1D
100
AcDbEntity
  8
Visible (ISO)
100
AcDbLine
 10
127.4142135623731
 20
211.6644660940673
 30
0.0
 11
132.7144660940672
 21
206.3642135623731
 31
0.0
  0
LINE
  5
10E9
102
{ACAD_REACTORS
330
1107
102
}
330
1D
100
AcDbEntity
  8
Visible (ISO)
100
AcDbLine
 10
142.9644660940672
 20
213.7857864376269
 30
0.0
 11
137.6642135623731
 21
208.4855339059327
 31
0.0
  0
LINE
  5
10EA
102
{ACAD_REACTORS
330
1107
102
}
330
1D
100
AcDbEntity
  8
Visible (ISO)
100
AcDbLine
 10
145.0857864376269
 20
198.2355339059327
 30
0.0
 11
139.7855339059327
 21
203.5357864376269
 31
0.0
  0
ARC
  5
10EB
102
{ACAD_REACTORS
330
1107
102
}
330
1D
100
AcDbEntity
  8
Visible (ISO)
100
AcDbCircle
 10
152.5
 20
212.25
 30
0.0
 40
1.049999999999999
100
AcDbArc
 50
90.0
 51
270.0
  0
LINE
  5
10EC
102
{ACAD_REACTORS
330
1107
102
}
330
1D
100
AcDbEntity
  8
Visible (ISO)
100
AcDbLine
 10
154.5
 20
211.2
 30
0.0
 11
152.5
 21
211.2
 31
0.0
  0
LINE
  5
10ED
102
{ACAD_REACTORS
330
1107
102
}
330
1D
100
AcDbEntity
  8
Visible (ISO)
100
AcDbLine
 10
154.5
 20
198.7
 30
0.0
 11
154.5
 21
211.2
 31
0.0
  0
LINE
  5
10EE
102
{ACAD_REACTORS
330
1107
102
}
330
1D
100
AcDbEntity
  8
Visible (ISO)
100
AcDbLine
 10
152.5
 20
198.7
 30
0.0
 11
154.5
 21
198.7
 31
0.0
  0
ARC
  5
10EF
102
{ACAD_REACTORS
330
1107
102
}
330
1D
100
AcDbEntity
  8
Visible (ISO)
100
AcDbCircle
 10
152.5
 20
197.65
 30
0.0
 40
1.049999999999999
100
AcDbArc
 50
90.0
 51
270.0
  0
LINE
  5
10F0
102
{ACAD_REACTORS
330
1107
102
}
330
1D
100
AcDbEntity
  8
Visible (ISO)
100
AcDbLine
 10
152.5
 20
188.7
 30
0.0
 11
152.5
 21
196.6
 31
0.0
  0
LINE
  5
10F1
102
{ACAD_REACTORS
330
1107
102
}
330
1D
100
AcDbEntity
  8
Visible (ISO)
100
AcDbLine
 10
144.6
 20
188.7
 30
0.0
 11
152.5
 21
188.7
 31
0.0
  0
ARC
  5
10F2
102
{ACAD_REACTORS
330
1107
102
}
330
1D
100
AcDbEntity
  8
Visible (ISO)
100
AcDbCircle
 10
143.55
 20
188.7
 30
0.0
 40
1.049999999999999
100
AcDbArc
 50
0.0
 51
180.0
  0
LINE
  5
10F3
102
{ACAD_REACTORS
330
1107
102
}
330
1D
100
AcDbEntity
  8
Visible (ISO)
100
AcDbLine
 10
142.5
 20
186.7
 30
0.0
 11
142.5
 21
188.7
 31
0.0
  0
LINE
  5
10F4
102
{ACAD_REACTORS
330
1107
102
}
330
1D
100
AcDbEntity
  8
Visible (ISO)
100
AcDbLine
 10
130.0
 20
186.7
 30
0.0
 11
142.5
 21
186.7
 31
0.0
  0
LINE
  5
10F5
102
{ACAD_REACTORS
330
1107
102
}
330
1D
100
AcDbEntity
  8
Visible (ISO)
100
AcDbLine
 10
130.0
 20
188.7
 30
0.0
 11
130.0
 21
186.7
 31
0.0
  0
ARC
  5
10F6
102
{ACAD_REACTORS
330
1107
102
}
330
1D
100
AcDbEntity
  8
Visible (ISO)
100
AcDbCircle
 10
128.95
 20
188.7
 30
0.0
 40
1.049999999999999
100
AcDbArc
 50
0.0
 51
180.0
  0
LINE
  5
10F7
102
{ACAD_REACTORS
330
1107
102
}
330
1D
100
AcDbEntity
  8
Visible (ISO)
100
AcDbLine
 10
120.0
 20
188.7
 30
0.0
 11
127.9
 21
188.7
 31
0.0
  0
LINE
  5
10F8
102
{ACAD_REACTORS
330
1107
102
}
330
1D
100
AcDbEntity
  8
Visible (ISO)
100
AcDbLine
 10
120.0
 20
196.6
 30
0.0
 11
120.0
 21
188.7
 31
0.0
  0
ARC
  5
10F9
102
{ACAD_REACTORS
330
1107
102
}
330
1D
100
AcDbEntity
  8
Visible (ISO)
100
AcDbCircle
 10
120.0
 20
197.65
 30
0.0
 40
1.049999999999999
100
AcDbArc
 50
270.0
 51
90.0
  0
LINE
  5
10FA
102
{ACAD_REACTORS
330
1107
102
}
330
1D
100
AcDbEntity
  8
Visible (ISO)
100
AcDbLine
 10
118.0
 20
198.7
 30
0.0
 11
120.0
 21
198.7
 31
0.0
  0
LINE
  5
10FB
102
{ACAD_REACTORS
330
1107
102
}
330
1D
100
AcDbEntity
  8
Visible (ISO)
100
AcDbLine
 10
118.0
 20
211.2
 30
0.0
 11
118.0
 21
198.7
 31
0.0
  0
LINE
  5
10FC
102
{ACAD_REACTORS
330
1107
102
}
330
1D
100
AcDbEntity
  8
Visible (ISO)
100
AcDbLine
 10
120.0
 20
211.2
 30
0.0
 11
118.0
 21
211.2
 31
0.0
  0
ARC
  5
10FD
102
{ACAD_REACTORS
330
1107
102
}
330
1D
100
AcDbEntity
  8
Visible (ISO)
100
AcDbCircle
 10
120.0
 20
212.25
 30
0.0
 40
1.049999999999999
100
AcDbArc
 50
270.0
 51
90.0
  0
LINE
  5
10FE
102
{ACAD_REACTORS
330
1107
102
}
330
1D
100
AcDbEntity
  8
Visible (ISO)
100
AcDbLine
 10
120.0
 20
221.2
 30
0.0
 11
120.0
 21
213.3
 31
0.0
  0
LINE
  5
10FF
102
{ACAD_REACTORS
330
1107
102
}
330
1D
100
AcDbEntity
  8
Visible (ISO)
100
AcDbLine
 10
127.9
 20
221.2
 30
0.0
 11
120.0
 21
221.2
 31
0.0
  0
ARC
  5
1100
102
{ACAD_REACTORS
330
1107
102
}
330
1D
100
AcDbEntity
  8
Visible (ISO)
100
AcDbCircle
 10
128.95
 20
221.2
 30
0.0
 40
1.049999999999999
100
AcDbArc
 50
180.0
 51
0.0
  0
LINE
  5
1101
102
{ACAD_REACTORS
330
1107
102
}
330
1D
100
AcDbEntity
  8
Visible (ISO)
100
AcDbLine
 10
130.0
 20
223.2
 30
0.0
 11
130.0
 21
221.2
 31
0.0
  0
LINE
  5
1102
102
{ACAD_REACTORS
330
1107
102
}
330
1D
100
AcDbEntity
  8
Visible (ISO)
100
AcDbLine
 10
142.5
 20
223.2
 30
0.0
 11
130.0
 21
223.2
 31
0.0
  0
LINE
  5
1103
102
{ACAD_REACTORS
330
1107
102
}
330
1D
100
AcDbEntity
  8
Visible (ISO)
100
AcDbLine
 10
142.5
 20
221.2
 30
0.0
 11
142.5
 21
223.2
 31
0.0
  0
ARC
  5
1104
102
{ACAD_REACTORS
330
1107
102
}
330
1D
100
AcDbEntity
  8
Visible (ISO)
100
AcDbCircle
 10
143.55
 20
221.2
 30
0.0
 40
1.049999999999999
100
AcDbArc
 50
180.0
 51
0.0
  0
LINE
  5
1105
102
{ACAD_REACTORS
330
1107
102
}
330
1D
100
AcDbEntity
  8
Visible (ISO)
100
AcDbLine
 10
152.5
 20
221.2
 30
0.0
 11
144.6
 21
221.2
 31
0.0
  0
LINE
  5
1106
102
{ACAD_REACTORS
330
1107
102
}
330
1D
100
AcDbEntity
  8
Visible (ISO)
100
AcDbLine
 10
152.5
 20
213.3
 30
0.0
 11
152.5
 21
221.2
 31
0.0
  0
ARC
  5
1108
102
{ACAD_REACTORS
330
113C
102
}
330
1D
100
AcDbEntity
  8
Visible (ISO)
100
AcDbCircle
 10
174.85
 20
200.0002525316942
 30
0.0
 40
2.0
100
AcDbArc
 50
45.00000000000058
 51
134.9999999999994
  0
ARC
  5
1109
102
{ACAD_REACTORS
330
113C
102
}
330
1D
100
AcDbEntity
  8
Visible (ISO)
100
AcDbCircle
 10
169.9002525316942
 20
204.95
 30
0.0
 40
2.000000000000001
100
AcDbArc
 50
314.9999999999994
 51
45.00000000000058
  0
ARC
  5
110A
102
{ACAD_REACTORS
330
113C
102
}
330
1D
100
AcDbEntity
  8
Visible (ISO)
100
AcDbCircle
 10
185.1
 20
210.2502525316942
 30
0.0
 40
2.000000000000001
100
AcDbArc
 50
0.0
 51
134.9999999999994
  0
ARC
  5
110B
102
{ACAD_REACTORS
330
113C
102
}
330
1D
100
AcDbEntity
  8
Visible (ISO)
100
AcDbCircle
 10
180.1502525316941
 20
215.2
 30
0.0
 40
1.999999999999999
100
AcDbArc
 50
314.9999999999994
 51
90.0
  0
ARC
  5
110C
102
{ACAD_REACTORS
330
113C
102
}
330
1D
100
AcDbEntity
  8
Visible (ISO)
100
AcDbCircle
 10
185.1
 20
199.6497474683058
 30
0.0
 40
1.999999999999999
100
AcDbArc
 50
225.0000000000006
 51
0.0
  0
ARC
  5
110D
102
{ACAD_REACTORS
330
113C
102
}
330
1D
100
AcDbEntity
  8
Visible (ISO)
100
AcDbCircle
 10
169.5497474683058
 20
215.2
 30
0.0
 40
1.999999999999999
100
AcDbArc
 50
90.0
 51
225.0000000000006
  0
ARC
  5
110E
102
{ACAD_REACTORS
330
113C
102
}
330
1D
100
AcDbEntity
  8
Visible (ISO)
100
AcDbCircle
 10
164.6
 20
210.2502525316942
 30
0.0
 40
1.999999999999999
100
AcDbArc
 50
45.00000000000058
 51
180.0
  0
ARC
  5
110F
102
{ACAD_REACTORS
330
113C
102
}
330
1D
100
AcDbEntity
  8
Visible (ISO)
100
AcDbCircle
 10
174.85
 20
209.8997474683057
 30
0.0
 40
2.0
100
AcDbArc
 50
225.0000000000006
 51
314.9999999999994
  0
ARC
  5
1110
102
{ACAD_REACTORS
330
113C
102
}
330
1D
100
AcDbEntity
  8
Visible (ISO)
100
AcDbCircle
 10
179.7997474683058
 20
204.95
 30
0.0
 40
2.000000000000001
100
AcDbArc
 50
134.9999999999994
 51
225.0000000000006
  0
ARC
  5
1111
102
{ACAD_REACTORS
330
113C
102
}
330
1D
100
AcDbEntity
  8
Visible (ISO)
100
AcDbCircle
 10
164.6
 20
199.6497474683058
 30
0.0
 40
1.999999999999999
100
AcDbArc
 50
180.0
 51
314.9999999999994
  0
ARC
  5
1112
102
{ACAD_REACTORS
330
113C
102
}
330
1D
100
AcDbEntity
  8
Visible (ISO)
100
AcDbCircle
 10
169.5497474683058
 20
194.7
 30
0.0
 40
2.0
100
AcDbArc
 50
134.9999999999994
 51
270.0
  0
ARC
  5
1113
102
{ACAD_REACTORS
330
113C
102
}
330
1D
100
AcDbEntity
  8
Visible (ISO)
100
AcDbCircle
 10
180.1502525316941
 20
194.7
 30
0.0
 40
1.999999999999999
100
AcDbArc
 50
270.0
 51
45.00000000000058
  0
LINE
  5
1114
102
{ACAD_REACTORS
330
113C
102
}
330
1D
100
AcDbEntity
  8
Visible (ISO)
100
AcDbLine
 10
176.2642135623731
 20
201.4144660940673
 30
0.0
 11
181.5644660940672
 21
196.1142135623731
 31
0.0
  0
LINE
  5
1115
102
{ACAD_REACTORS
330
113C
102
}
330
1D
100
AcDbEntity
  8
Visible (ISO)
100
AcDbLine
 10
171.3144660940672
 20
203.5357864376269
 30
0.0
 11
166.0142135623731
 21
198.2355339059327
 31
0.0
  0
LINE
  5
1116
102
{ACAD_REACTORS
330
113C
102
}
330
1D
100
AcDbEntity
  8
Visible (ISO)
100
AcDbLine
 10
187.1
 20
210.2502525316942
 30
0.0
 11
187.1
 21
199.6497474683058
 31
0.0
  0
LINE
  5
1117
102
{ACAD_REACTORS
330
113C
102
}
330
1D
100
AcDbEntity
  8
Visible (ISO)
100
AcDbLine
 10
169.5497474683058
 20
217.2
 30
0.0
 11
180.1502525316941
 21
217.2
 31
0.0
  0
LINE
  5
1118
102
{ACAD_REACTORS
330
113C
102
}
330
1D
100
AcDbEntity
  8
Visible (ISO)
100
AcDbLine
 10
162.6
 20
199.6497474683058
 30
0.0
 11
162.6
 21
210.2502525316942
 31
0.0
  0
LINE
  5
1119
102
{ACAD_REACTORS
330
113C
102
}
330
1D
100
AcDbEntity
  8
Visible (ISO)
100
AcDbLine
 10
173.4357864376269
 20
208.4855339059327
 30
0.0
 11
168.1355339059328
 21
213.7857864376269
 31
0.0
  0
LINE
  5
111A
102
{ACAD_REACTORS
330
113C
102
}
330
1D
100
AcDbEntity
  8
Visible (ISO)
100
AcDbLine
 10
178.3855339059327
 20
206.3642135623731
 30
0.0
 11
183.6857864376269
 21
211.6644660940673
 31
0.0
  0
LINE
  5
111B
102
{ACAD_REACTORS
330
113C
102
}
330
1D
100
AcDbEntity
  8
Visible (ISO)
100
AcDbLine
 10
180.1502525316941
 20
192.7
 30
0.0
 11
169.5497474683058
 21
192.7
 31
0.0
  0
LINE
  5
111C
102
{ACAD_REACTORS
330
113C
102
}
330
1D
100
AcDbEntity
  8
Visible (ISO)
100
AcDbLine
 10
168.1355339059328
 20
196.1142135623731
 30
0.0
 11
173.4357864376269
 21
201.4144660940673
 31
0.0
  0
LINE
  5
111D
102
{ACAD_REACTORS
330
113C
102
}
330
1D
100
AcDbEntity
  8
Visible (ISO)
100
AcDbLine
 10
166.0142135623731
 20
211.6644660940673
 30
0.0
 11
171.3144660940672
 21
206.3642135623731
 31
0.0
  0
LINE
  5
111E
102
{ACAD_REACTORS
330
113C
102
}
330
1D
100
AcDbEntity
  8
Visible (ISO)
100
AcDbLine
 10
181.5644660940672
 20
213.7857864376269
 30
0.0
 11
176.2642135623731
 21
208.4855339059327
 31
0.0
  0
LINE
  5
111F
102
{ACAD_REACTORS
330
113C
102
}
330
1D
100
AcDbEntity
  8
Visible (ISO)
100
AcDbLine
 10
183.6857864376269
 20
198.2355339059327
 30
0.0
 11
178.3855339059327
 21
203.5357864376269
 31
0.0
  0
ARC
  5
1120
102
{ACAD_REACTORS
330
113C
102
}
330
1D
100
AcDbEntity
  8
Visible (ISO)
100
AcDbCircle
 10
191.1
 20
212.25
 30
0.0
 40
1.049999999999999
100
AcDbArc
 50
90.0
 51
270.0
  0
LINE
  5
1121
102
{ACAD_REACTORS
330
113C
102
}
330
1D
100
AcDbEntity
  8
Visible (ISO)
100
AcDbLine
 10
193.1
 20
211.2
 30
0.0
 11
191.1
 21
211.2
 31
0.0
  0
LINE
  5
1122
102
{ACAD_REACTORS
330
113C
102
}
330
1D
100
AcDbEntity
  8
Visible (ISO)
100
AcDbLine
 10
193.1
 20
198.7
 30
0.0
 11
193.1
 21
211.2
 31
0.0
  0
LINE
  5
1123
102
{ACAD_REACTORS
330
113C
102
}
330
1D
100
AcDbEntity
  8
Visible (ISO)
100
AcDbLine
 10
191.1
 20
198.7
 30
0.0
 11
193.1
 21
198.7
 31
0.0
  0
ARC
  5
1124
102
{ACAD_REACTORS
330
113C
102
}
330
1D
100
AcDbEntity
  8
Visible (ISO)
100
AcDbCircle
 10
191.1
 20
197.65
 30
0.0
 40
1.049999999999999
100
AcDbArc
 50
90.0
 51
270.0
  0
LINE
  5
1125
102
{ACAD_REACTORS
330
113C
102
}
330
1D
100
AcDbEntity
  8
Visible (ISO)
100
AcDbLine
 10
191.1
 20
188.7
 30
0.0
 11
191.1
 21
196.6
 31
0.0
  0
LINE
  5
1126
102
{ACAD_REACTORS
330
113C
102
}
330
1D
100
AcDbEntity
  8
Visible (ISO)
100
AcDbLine
 10
183.2
 20
188.7
 30
0.0
 11
191.1
 21
188.7
 31
0.0
  0
ARC
  5
1127
102
{ACAD_REACTORS
330
113C
102
}
330
1D
100
AcDbEntity
  8
Visible (ISO)
100
AcDbCircle
 10
182.15
 20
188.7
 30
0.0
 40
1.049999999999999
100
AcDbArc
 50
0.0
 51
180.0
  0
LINE
  5
1128
102
{ACAD_REACTORS
330
113C
102
}
330
1D
100
AcDbEntity
  8
Visible (ISO)
100
AcDbLine
 10
181.1
 20
186.7
 30
0.0
 11
181.1
 21
188.7
 31
0.0
  0
LINE
  5
1129
102
{ACAD_REACTORS
330
113C
102
}
330
1D
100
AcDbEntity
  8
Visible (ISO)
100
AcDbLine
 10
168.6
 20
186.7
 30
0.0
 11
181.1
 21
186.7
 31
0.0
  0
LINE
  5
112A
102
{ACAD_REACTORS
330
113C
102
}
330
1D
100
AcDbEntity
  8
Visible (ISO)
100
AcDbLine
 10
168.6
 20
188.7
 30
0.0
 11
168.6
 21
186.7
 31
0.0
  0
ARC
  5
112B
102
{ACAD_REACTORS
330
113C
102
}
330
1D
100
AcDbEntity
  8
Visible (ISO)
100
AcDbCircle
 10
167.55
 20
188.7
 30
0.0
 40
1.049999999999999
100
AcDbArc
 50
0.0
 51
180.0
  0
LINE
  5
112C
102
{ACAD_REACTORS
330
113C
102
}
330
1D
100
AcDbEntity
  8
Visible (ISO)
100
AcDbLine
 10
158.6
 20
188.7
 30
0.0
 11
166.5
 21
188.7
 31
0.0
  0
LINE
  5
112D
102
{ACAD_REACTORS
330
113C
102
}
330
1D
100
AcDbEntity
  8
Visible (ISO)
100
AcDbLine
 10
158.6
 20
196.6
 30
0.0
 11
158.6
 21
188.7
 31
0.0
  0
ARC
  5
112E
102
{ACAD_REACTORS
330
113C
102
}
330
1D
100
AcDbEntity
  8
Visible (ISO)
100
AcDbCircle
 10
158.6
 20
197.65
 30
0.0
 40
1.049999999999999
100
AcDbArc
 50
270.0
 51
90.0
  0
LINE
  5
112F
102
{ACAD_REACTORS
330
113C
102
}
330
1D
100
AcDbEntity
  8
Visible (ISO)
100
AcDbLine
 10
156.6
 20
198.7
 30
0.0
 11
158.6
 21
198.7
 31
0.0
  0
LINE
  5
1130
102
{ACAD_REACTORS
330
113C
102
}
330
1D
100
AcDbEntity
  8
Visible (ISO)
100
AcDbLine
 10
156.6
 20
211.2
 30
0.0
 11
156.6
 21
198.7
 31
0.0
  0
LINE
  5
1131
102
{ACAD_REACTORS
330
113C
102
}
330
1D
100
AcDbEntity
  8
Visible (ISO)
100
AcDbLine
 10
158.6
 20
211.2
 30
0.0
 11
156.6
 21
211.2
 31
0.0
  0
ARC
  5
1132
102
{ACAD_REACTORS
330
113C
102
}
330
1D
100
AcDbEntity
  8
Visible (ISO)
100
AcDbCircle
 10
158.6
 20
212.25
 30
0.0
 40
1.049999999999999
100
AcDbArc
 50
270.0
 51
90.0
  0
LINE
  5
1133
102
{ACAD_REACTORS
330
113C
102
}
330
1D
100
AcDbEntity
  8
Visible (ISO)
100
AcDbLine
 10
158.6
 20
221.2
 30
0.0
 11
158.6
 21
213.3
 31
0.0
  0
LINE
  5
1134
102
{ACAD_REACTORS
330
113C
102
}
330
1D
100
AcDbEntity
  8
Visible (ISO)
100
AcDbLine
 10
166.5
 20
221.2
 30
0.0
 11
158.6
 21
221.2
 31
0.0
  0
ARC
  5
1135
102
{ACAD_REACTORS
330
113C
102
}
330
1D
100
AcDbEntity
  8
Visible (ISO)
100
AcDbCircle
 10
167.55
 20
221.2
 30
0.0
 40
1.049999999999999
100
AcDbArc
 50
180.0
 51
0.0
  0
LINE
  5
1136
102
{ACAD_REACTORS
330
113C
102
}
330
1D
100
AcDbEntity
  8
Visible (ISO)
100
AcDbLine
 10
168.6
 20
223.2
 30
0.0
 11
168.6
 21
221.2
 31
0.0
  0
LINE
  5
1137
102
{ACAD_REACTORS
330
113C
102
}
330
1D
100
AcDbEntity
  8
Visible (ISO)
100
AcDbLine
 10
181.1
 20
223.2
 30
0.0
 11
168.6
 21
223.2
 31
0.0
  0
LINE
  5
1138
102
{ACAD_REACTORS
330
113C
102
}
330
1D
100
AcDbEntity
  8
Visible (ISO)
100
AcDbLine
 10
181.1
 20
221.2
 30
0.0
 11
181.1
 21
223.2
 31
0.0
  0
ARC
  5
1139
102
{ACAD_REACTORS
330
113C
102
}
330
1D
100
AcDbEntity
  8
Visible (ISO)
100
AcDbCircle
 10
182.15
 20
221.2
 30
0.0
 40
1.049999999999999
100
AcDbArc
 50
180.0
 51
0.0
  0
LINE
  5
113A
102
{ACAD_REACTORS
330
113C
102
}
330
1D
100
AcDbEntity
  8
Visible (ISO)
100
AcDbLine
 10
191.1
 20
221.2
 30
0.0
 11
183.2
 21
221.2
 31
0.0
  0
LINE
  5
113B
102
{ACAD_REACTORS
330
113C
102
}
330
1D
100
AcDbEntity
  8
Visible (ISO)
100
AcDbLine
 10
191.1
 20
213.3
 30
0.0
 11
191.1
 21
221.2
 31
0.0
  0
ARC
  5
11A2
102
{ACAD_REACTORS
330
11C1
102
}
330
1D
100
AcDbEntity
  8
Visible (ISO)
100
AcDbCircle
 10
528.0
 20
709.3000000000001
 30
0.0
 40
2.999999999999998
100
AcDbArc
 50
0.0
 51
90.0
  0
ARC
  5
11A3
102
{ACAD_REACTORS
330
11C1
102
}
330
1D
100
AcDbEntity
  8
Visible (ISO)
100
AcDbCircle
 10
424.4971499458292
 20
682.0
 30
0.0
 40
3.000000000000003
100
AcDbArc
 50
108.8788559455054
 51
270.0
  0
ARC
  5
11A4
102
{ACAD_REACTORS
330
11C1
102
}
330
1D
100
AcDbEntity
  8
Visible (ISO)
100
AcDbCircle
 10
450.7598515215239
 20
690.98090598526
 30
0.0
 40
2.999999999999993
100
AcDbArc
 50
77.62051085551636
 51
108.8788559455054
  0
ARC
  5
11A5
102
{ACAD_REACTORS
330
11C1
102
}
330
1D
100
AcDbEntity
  8
Visible (ISO)
100
AcDbCircle
 10
491.6771908988189
 20
682.0000000000001
 30
0.0
 40
3.0
100
AcDbArc
 50
270.0
 51
77.62051085551636
  0
ARC
  5
11A6
102
{ACAD_REACTORS
330
11C1
102
}
330
1D
100
AcDbEntity
  8
Visible (ISO)
100
AcDbCircle
 10
528.0
 20
685.2893911323258
 30
0.0
 40
2.999999999999998
100
AcDbArc
 50
257.6205108555164
 51
0.0
  0
ARC
  5
11A7
102
{ACAD_REACTORS
330
11C1
102
}
330
1D
100
AcDbEntity
  8
Visible (ISO)
100
AcDbCircle
 10
504.330048118153
 20
709.3000000000002
 30
0.0
 40
2.999999999999953
100
AcDbArc
 50
90.0
 51
108.8788559455044
  0
ARC
  5
11A8
102
{ACAD_REACTORS
330
11C1
102
}
330
1D
100
AcDbEntity
  8
Visible (ISO)
100
AcDbCircle
 10
470.8182401685347
 20
697.8401585315146
 30
0.0
 40
3.0
100
AcDbArc
 50
108.8788559455054
 51
257.6205108555164
  0
LINE
  5
11A9
102
{ACAD_REACTORS
330
11C1
102
}
330
1D
100
AcDbEntity
  8
Visible (ISO)
100
AcDbLine
 10
504.330048118153
 20
712.3000000000001
 30
0.0
 11
528.0
 21
712.3000000000001
 31
0.0
  0
LINE
  5
11AA
102
{ACAD_REACTORS
330
11C1
102
}
330
1D
100
AcDbEntity
  8
Visible (ISO)
100
AcDbLine
 10
491.6771908988189
 20
679.0000000000001
 30
0.0
 11
424.4971499458292
 21
679.0000000000001
 31
0.0
  0
LINE
  5
11AB
102
{ACAD_REACTORS
330
11C1
102
}
330
1D
100
AcDbEntity
  8
Visible (ISO)
100
AcDbLine
 10
423.5264451685799
 20
684.8386144922173
 30
0.0
 11
449.7891467442745
 21
693.8195204774771
 31
0.0
  0
LINE
  5
11AC
102
{ACAD_REACTORS
330
11C1
102
}
330
1D
100
AcDbEntity
  8
Visible (ISO)
100
AcDbLine
 10
451.4030085685967
 20
693.9111532466356
 30
0.0
 11
492.3203479458919
 21
684.9302472613758
 31
0.0
  0
LINE
  5
11AD
102
{ACAD_REACTORS
330
11C1
102
}
330
1D
100
AcDbEntity
  8
Visible (ISO)
100
AcDbLine
 10
531.0
 20
709.3000000000001
 30
0.0
 11
531.0
 21
685.2893911323258
 31
0.0
  0
LINE
  5
11AE
102
{ACAD_REACTORS
330
11C1
102
}
330
1D
100
AcDbEntity
  8
Visible (ISO)
100
AcDbLine
 10
469.8475353912855
 20
700.6787730237317
 30
0.0
 11
503.3593433409037
 21
712.1386144922174
 31
0.0
  0
LINE
  5
11AF
102
{ACAD_REACTORS
330
11C1
102
}
330
1D
100
AcDbEntity
  8
Visible (ISO)
100
AcDbLine
 10
527.3568429529271
 20
682.35914387095
 30
0.0
 11
470.1750831214618
 21
694.9099112701388
 31
0.0
  0
LINE
  5
11B0
102
{ACAD_REACTORS
330
11C1
102
}
330
1D
100
AcDbEntity
  8
Visible (ISO)
100
AcDbLine
 10
391.0
 20
679.0000000000001
 30
0.0
 11
391.0
 21
674.0000000000001
 31
0.0
  0
LINE
  5
11B1
102
{ACAD_REACTORS
330
11C1
102
}
330
1D
100
AcDbEntity
  8
Visible (ISO)
100
AcDbLine
 10
503.0
 20
717.3000000000001
 30
0.0
 11
391.0
 21
679.0000000000001
 31
0.0
  0
LINE
  5
11B2
102
{ACAD_REACTORS
330
11C1
102
}
330
1D
100
AcDbEntity
  8
Visible (ISO)
100
AcDbLine
 10
508.9
 20
717.3000000000001
 30
0.0
 11
503.0
 21
717.3000000000001
 31
0.0
  0
ARC
  5
11B3
102
{ACAD_REACTORS
330
11C1
102
}
330
1D
100
AcDbEntity
  8
Visible (ISO)
100
AcDbCircle
 10
510.95
 20
717.3000000000001
 30
0.0
 40
2.05
100
AcDbArc
 50
180.0
 51
0.0
  0
LINE
  5
11B4
102
{ACAD_REACTORS
330
11C1
102
}
330
1D
100
AcDbEntity
  8
Visible (ISO)
100
AcDbLine
 10
513.0
 20
719.3000000000001
 30
0.0
 11
513.0
 21
717.3000000000001
 31
0.0
  0
LINE
  5
11B5
102
{ACAD_REACTORS
330
11C1
102
}
330
1D
100
AcDbEntity
  8
Visible (ISO)
100
AcDbLine
 10
526.0
 20
719.3000000000001
 30
0.0
 11
513.0
 21
719.3000000000001
 31
0.0
  0
LINE
  5
11B6
102
{ACAD_REACTORS
330
11C1
102
}
330
1D
100
AcDbEntity
  8
Visible (ISO)
100
AcDbLine
 10
526.0
 20
717.3000000000001
 30
0.0
 11
526.0
 21
719.3000000000001
 31
0.0
  0
ARC
  5
11B7
102
{ACAD_REACTORS
330
11C1
102
}
330
1D
100
AcDbEntity
  8
Visible (ISO)
100
AcDbCircle
 10
528.05
 20
717.3000000000001
 30
0.0
 40
2.05
100
AcDbArc
 50
180.0
 51
0.0
  0
LINE
  5
11B8
102
{ACAD_REACTORS
330
11C1
102
}
330
1D
100
AcDbEntity
  8
Visible (ISO)
100
AcDbLine
 10
536.0
 20
717.3000000000001
 30
0.0
 11
530.1
 21
717.3000000000001
 31
0.0
  0
LINE
  5
11B9
102
{ACAD_REACTORS
330
11C1
102
}
330
1D
100
AcDbEntity
  8
Visible (ISO)
100
AcDbLine
 10
536.0
 20
674.0000000000001
 30
0.0
 11
536.0
 21
717.3000000000001
 31
0.0
  0
LINE
  5
11BA
102
{ACAD_REACTORS
330
11C1
102
}
330
1D
100
AcDbEntity
  8
Visible (ISO)
100
AcDbLine
 10
525.1
 20
674.0000000000001
 30
0.0
 11
536.0
 21
674.0000000000001
 31
0.0
  0
ARC
  5
11BB
102
{ACAD_REACTORS
330
11C1
102
}
330
1D
100
AcDbEntity
  8
Visible (ISO)
100
AcDbCircle
 10
523.05
 20
674.0000000000001
 30
0.0
 40
2.05
100
AcDbArc
 50
0.0
 51
180.0
  0
LINE
  5
11BC
102
{ACAD_REACTORS
330
11C1
102
}
330
1D
100
AcDbEntity
  8
Visible (ISO)
100
AcDbLine
 10
521.0
 20
672.0
 30
0.0
 11
521.0
 21
674.0000000000001
 31
0.0
  0
LINE
  5
11BD
102
{ACAD_REACTORS
330
11C1
102
}
330
1D
100
AcDbEntity
  8
Visible (ISO)
100
AcDbLine
 10
406.0
 20
672.0
 30
0.0
 11
521.0
 21
672.0
 31
0.0
  0
LINE
  5
11BE
102
{ACAD_REACTORS
330
11C1
102
}
330
1D
100
AcDbEntity
  8
Visible (ISO)
100
AcDbLine
 10
406.0
 20
674.0000000000001
 30
0.0
 11
406.0
 21
672.0
 31
0.0
  0
ARC
  5
11BF
102
{ACAD_REACTORS
330
11C1
102
}
330
1D
100
AcDbEntity
  8
Visible (ISO)
100
AcDbCircle
 10
403.95
 20
674.0000000000001
 30
0.0
 40
2.05
100
AcDbArc
 50
0.0
 51
180.0
  0
LINE
  5
11C0
102
{ACAD_REACTORS
330
11C1
102
}
330
1D
100
AcDbEntity
  8
Visible (ISO)
100
AcDbLine
 10
391.0
 20
674.0000000000001
 30
0.0
 11
401.9
 21
674.0000000000001
 31
0.0
  0
ARC
  5
11C2
102
{ACAD_REACTORS
330
11E1
102
}
330
1D
100
AcDbEntity
  8
Visible (ISO)
100
AcDbCircle
 10
641.000983148444
 20
717.3000000000002
 30
0.0
 40
2.999999999999998
100
AcDbArc
 50
0.0
 51
90.0
  0
ARC
  5
11C3
102
{ACAD_REACTORS
330
11E1
102
}
330
1D
100
AcDbEntity
  8
Visible (ISO)
100
AcDbCircle
 10
537.4981330942733
 20
690.0000000000001
 30
0.0
 40
3.000000000000003
100
AcDbArc
 50
108.8788559455044
 51
270.0
  0
ARC
  5
11C4
102
{ACAD_REACTORS
330
11E1
102
}
330
1D
100
AcDbEntity
  8
Visible (ISO)
100
AcDbCircle
 10
563.760834669968
 20
698.98090598526
 30
0.0
 40
2.999999999999993
100
AcDbArc
 50
77.62051085551636
 51
108.8788559455064
  0
ARC
  5
11C5
102
{ACAD_REACTORS
330
11E1
102
}
330
1D
100
AcDbEntity
  8
Visible (ISO)
100
AcDbCircle
 10
604.6781740472629
 20
690.0000000000002
 30
0.0
 40
3.0
100
AcDbArc
 50
270.0
 51
77.62051085551636
  0
ARC
  5
11C6
102
{ACAD_REACTORS
330
11E1
102
}
330
1D
100
AcDbEntity
  8
Visible (ISO)
100
AcDbCircle
 10
641.000983148444
 20
693.2893911323259
 30
0.0
 40
2.999999999999998
100
AcDbArc
 50
257.6205108555164
 51
0.0
  0
ARC
  5
11C7
102
{ACAD_REACTORS
330
11E1
102
}
330
1D
100
AcDbEntity
  8
Visible (ISO)
100
AcDbCircle
 10
617.331031266597
 20
717.3000000000003
 30
0.0
 40
2.999999999999953
100
AcDbArc
 50
90.0
 51
108.8788559455044
  0
ARC
  5
11C8
102
{ACAD_REACTORS
330
11E1
102
}
330
1D
100
AcDbEntity
  8
Visible (ISO)
100
AcDbCircle
 10
583.8192233169788
 20
705.8401585315147
 30
0.0
 40
3.0
100
AcDbArc
 50
108.8788559455064
 51
257.6205108555164
  0
LINE
  5
11C9
102
{ACAD_REACTORS
330
11E1
102
}
330
1D
100
AcDbEntity
  8
Visible (ISO)
100
AcDbLine
 10
617.331031266597
 20
720.3000000000002
 30
0.0
 11
641.000983148444
 21
720.3000000000002
 31
0.0
  0
LINE
  5
11CA
102
{ACAD_REACTORS
330
11E1
102
}
330
1D
100
AcDbEntity
  8
Visible (ISO)
100
AcDbLine
 10
604.6781740472629
 20
687.0000000000002
 30
0.0
 11
537.4981330942733
 21
687.0000000000002
 31
0.0
  0
LINE
  5
11CB
102
{ACAD_REACTORS
330
11E1
102
}
330
1D
100
AcDbEntity
  8
Visible (ISO)
100
AcDbLine
 10
536.527428317024
 20
692.8386144922174
 30
0.0
 11
562.7901298927186
 21
701.8195204774772
 31
0.0
  0
LINE
  5
11CC
102
{ACAD_REACTORS
330
11E1
102
}
330
1D
100
AcDbEntity
  8
Visible (ISO)
100
AcDbLine
 10
564.4039917170408
 20
701.9111532466358
 30
0.0
 11
605.321331094336
 21
692.930247261376
 31
0.0
  0
LINE
  5
11CD
102
{ACAD_REACTORS
330
11E1
102
}
330
1D
100
AcDbEntity
  8
Visible (ISO)
100
AcDbLine
 10
644.000983148444
 20
717.3000000000002
 30
0.0
 11
644.000983148444
 21
693.2893911323259
 31
0.0
  0
LINE
  5
11CE
102
{ACAD_REACTORS
330
11E1
102
}
330
1D
100
AcDbEntity
  8
Visible (ISO)
100
AcDbLine
 10
582.8485185397295
 20
708.6787730237318
 30
0.0
 11
616.3603264893477
 21
720.1386144922174
 31
0.0
  0
LINE
  5
11CF
102
{ACAD_REACTORS
330
11E1
102
}
330
1D
100
AcDbEntity
  8
Visible (ISO)
100
AcDbLine
 10
640.3578261013711
 20
690.3591438709501
 30
0.0
 11
583.1760662699058
 21
702.9099112701389
 31
0.0
  0
LINE
  5
11D0
102
{ACAD_REACTORS
330
11E1
102
}
330
1D
100
AcDbEntity
  8
Visible (ISO)
100
AcDbLine
 10
504.000983148444
 20
687.0000000000002
 30
0.0
 11
504.000983148444
 21
682.0000000000002
 31
0.0
  0
LINE
  5
11D1
102
{ACAD_REACTORS
330
11E1
102
}
330
1D
100
AcDbEntity
  8
Visible (ISO)
100
AcDbLine
 10
616.000983148444
 20
725.3000000000002
 30
0.0
 11
504.000983148444
 21
687.0000000000002
 31
0.0
  0
LINE
  5
11D2
102
{ACAD_REACTORS
330
11E1
102
}
330
1D
100
AcDbEntity
  8
Visible (ISO)
100
AcDbLine
 10
621.9009831484441
 20
725.3000000000002
 30
0.0
 11
616.000983148444
 21
725.3000000000002
 31
0.0
  0
ARC
  5
11D3
102
{ACAD_REACTORS
330
11E1
102
}
330
1D
100
AcDbEntity
  8
Visible (ISO)
100
AcDbCircle
 10
623.950983148444
 20
725.3000000000002
 30
0.0
 40
2.05
100
AcDbArc
 50
180.0
 51
0.0
  0
LINE
  5
11D4
102
{ACAD_REACTORS
330
11E1
102
}
330
1D
100
AcDbEntity
  8
Visible (ISO)
100
AcDbLine
 10
626.000983148444
 20
727.3000000000002
 30
0.0
 11
626.000983148444
 21
725.3000000000002
 31
0.0
  0
LINE
  5
11D5
102
{ACAD_REACTORS
330
11E1
102
}
330
1D
100
AcDbEntity
  8
Visible (ISO)
100
AcDbLine
 10
639.000983148444
 20
727.3000000000002
 30
0.0
 11
626.000983148444
 21
727.3000000000002
 31
0.0
  0
LINE
  5
11D6
102
{ACAD_REACTORS
330
11E1
102
}
330
1D
100
AcDbEntity
  8
Visible (ISO)
100
AcDbLine
 10
639.000983148444
 20
725.3000000000002
 30
0.0
 11
639.000983148444
 21
727.3000000000002
 31
0.0
  0
ARC
  5
11D7
102
{ACAD_REACTORS
330
11E1
102
}
330
1D
100
AcDbEntity
  8
Visible (ISO)
100
AcDbCircle
 10
641.0509831484441
 20
725.3000000000002
 30
0.0
 40
2.05
100
AcDbArc
 50
180.0
 51
0.0
  0
LINE
  5
11D8
102
{ACAD_REACTORS
330
11E1
102
}
330
1D
100
AcDbEntity
  8
Visible (ISO)
100
AcDbLine
 10
649.000983148444
 20
725.3000000000002
 30
0.0
 11
643.1009831484441
 21
725.3000000000002
 31
0.0
  0
LINE
  5
11D9
102
{ACAD_REACTORS
330
11E1
102
}
330
1D
100
AcDbEntity
  8
Visible (ISO)
100
AcDbLine
 10
649.000983148444
 20
682.0000000000002
 30
0.0
 11
649.000983148444
 21
725.3000000000002
 31
0.0
  0
LINE
  5
11DA
102
{ACAD_REACTORS
330
11E1
102
}
330
1D
100
AcDbEntity
  8
Visible (ISO)
100
AcDbLine
 10
638.1009831484441
 20
682.0000000000002
 30
0.0
 11
649.000983148444
 21
682.0000000000002
 31
0.0
  0
ARC
  5
11DB
102
{ACAD_REACTORS
330
11E1
102
}
330
1D
100
AcDbEntity
  8
Visible (ISO)
100
AcDbCircle
 10
636.0509831484441
 20
682.0000000000002
 30
0.0
 40
2.05
100
AcDbArc
 50
0.0
 51
180.0
  0
LINE
  5
11DC
102
{ACAD_REACTORS
330
11E1
102
}
330
1D
100
AcDbEntity
  8
Visible (ISO)
100
AcDbLine
 10
634.000983148444
 20
680.0000000000001
 30
0.0
 11
634.000983148444
 21
682.0000000000002
 31
0.0
  0
LINE
  5
11DD
102
{ACAD_REACTORS
330
11E1
102
}
330
1D
100
AcDbEntity
  8
Visible (ISO)
100
AcDbLine
 10
519.000983148444
 20
680.0000000000001
 30
0.0
 11
634.000983148444
 21
680.0000000000001
 31
0.0
  0
LINE
  5
11DE
102
{ACAD_REACTORS
330
11E1
102
}
330
1D
100
AcDbEntity
  8
Visible (ISO)
100
AcDbLine
 10
519.000983148444
 20
682.0000000000002
 30
0.0
 11
519.000983148444
 21
680.0000000000001
 31
0.0
  0
ARC
  5
11DF
102
{ACAD_REACTORS
330
11E1
102
}
330
1D
100
AcDbEntity
  8
Visible (ISO)
100
AcDbCircle
 10
516.950983148444
 20
682.0000000000002
 30
0.0
 40
2.05
100
AcDbArc
 50
0.0
 51
180.0
  0
LINE
  5
11E0
102
{ACAD_REACTORS
330
11E1
102
}
330
1D
100
AcDbEntity
  8
Visible (ISO)
100
AcDbLine
 10
504.000983148444
 20
682.0000000000002
 30
0.0
 11
514.9009831484441
 21
682.0000000000002
 31
0.0
  0
ARC
  5
1202
102
{ACAD_REACTORS
330
1221
102
}
330
1D
100
AcDbEntity
  8
Visible (ISO)
100
AcDbCircle
 10
13.0
 20
264.09
 30
0.0
 40
2.999999999999998
100
AcDbArc
 50
90.0
 51
180.0
  0
ARC
  5
1203
102
{ACAD_REACTORS
330
1221
102
}
330
1D
100
AcDbEntity
  8
Visible (ISO)
100
AcDbCircle
 10
116.5028500541708
 20
236.79
 30
0.0
 40
3.000000000000003
100
AcDbArc
 50
270.0
 51
71.12114405449458
  0
ARC
  5
1204
102
{ACAD_REACTORS
330
1221
102
}
330
1D
100
AcDbEntity
  8
Visible (ISO)
100
AcDbCircle
 10
90.2401484784761
 20
245.77090598526
 30
0.0
 40
2.999999999999993
100
AcDbArc
 50
71.12114405449458
 51
102.3794891444838
  0
ARC
  5
1205
102
{ACAD_REACTORS
330
1221
102
}
330
1D
100
AcDbEntity
  8
Visible (ISO)
100
AcDbCircle
 10
49.32280910118112
 20
236.7900000000001
 30
0.0
 40
3.0
100
AcDbArc
 50
102.3794891444837
 51
270.0
  0
ARC
  5
1206
102
{ACAD_REACTORS
330
1221
102
}
330
1D
100
AcDbEntity
  8
Visible (ISO)
100
AcDbCircle
 10
13.0
 20
240.0793911323258
 30
0.0
 40
2.999999999999998
100
AcDbArc
 50
180.0
 51
282.3794891444836
  0
ARC
  5
1207
102
{ACAD_REACTORS
330
1221
102
}
330
1D
100
AcDbEntity
  8
Visible (ISO)
100
AcDbCircle
 10
36.669951881847
 20
264.0900000000001
 30
0.0
 40
2.999999999999953
100
AcDbArc
 50
71.12114405449573
 51
90.0
  0
ARC
  5
1208
102
{ACAD_REACTORS
330
1221
102
}
330
1D
100
AcDbEntity
  8
Visible (ISO)
100
AcDbCircle
 10
70.18175983146529
 20
252.6301585315146
 30
0.0
 40
3.0
100
AcDbArc
 50
282.3794891444836
 51
71.12114405449458
  0
LINE
  5
1209
102
{ACAD_REACTORS
330
1221
102
}
330
1D
100
AcDbEntity
  8
Visible (ISO)
100
AcDbLine
 10
36.669951881847
 20
267.09
 30
0.0
 11
13.0
 21
267.09
 31
0.0
  0
LINE
  5
120A
102
{ACAD_REACTORS
330
1221
102
}
330
1D
100
AcDbEntity
  8
Visible (ISO)
100
AcDbLine
 10
49.32280910118112
 20
233.7900000000001
 30
0.0
 11
116.5028500541708
 21
233.7900000000001
 31
0.0
  0
LINE
  5
120B
102
{ACAD_REACTORS
330
1221
102
}
330
1D
100
AcDbEntity
  8
Visible (ISO)
100
AcDbLine
 10
117.4735548314201
 20
239.6286144922173
 30
0.0
 11
91.21085325572551
 21
248.6095204774771
 31
0.0
  0
LINE
  5
120C
102
{ACAD_REACTORS
330
1221
102
}
330
1D
100
AcDbEntity
  8
Visible (ISO)
100
AcDbLine
 10
89.5969914314033
 20
248.7011532466356
 30
0.0
 11
48.67965205410809
 21
239.7202472613759
 31
0.0
  0
LINE
  5
120D
102
{ACAD_REACTORS
330
1221
102
}
330
1D
100
AcDbEntity
  8
Visible (ISO)
100
AcDbLine
 10
10.0
 20
264.09
 30
0.0
 11
10.0
 21
240.0793911323258
 31
0.0
  0
LINE
  5
120E
102
{ACAD_REACTORS
330
1221
102
}
330
1D
100
AcDbEntity
  8
Visible (ISO)
100
AcDbLine
 10
71.15246460871452
 20
255.4687730237316
 30
0.0
 11
37.64065665909629
 21
266.9286144922173
 31
0.0
  0
LINE
  5
120F
102
{ACAD_REACTORS
330
1221
102
}
330
1D
100
AcDbEntity
  8
Visible (ISO)
100
AcDbLine
 10
13.64315704707292
 20
237.14914387095
 30
0.0
 11
70.8249168785382
 21
249.6999112701388
 31
0.0
  0
LINE
  5
1210
102
{ACAD_REACTORS
330
1221
102
}
330
1D
100
AcDbEntity
  8
Visible (ISO)
100
AcDbLine
 10
150.0
 20
233.7900000000001
 30
0.0
 11
150.0
 21
228.7900000000001
 31
0.0
  0
LINE
  5
1211
102
{ACAD_REACTORS
330
1221
102
}
330
1D
100
AcDbEntity
  8
Visible (ISO)
100
AcDbLine
 10
38.0
 20
272.09
 30
0.0
 11
150.0
 21
233.7900000000001
 31
0.0
  0
LINE
  5
1212
102
{ACAD_REACTORS
330
1221
102
}
330
1D
100
AcDbEntity
  8
Visible (ISO)
100
AcDbLine
 10
32.10000000000002
 20
272.09
 30
0.0
 11
38.0
 21
272.09
 31
0.0
  0
ARC
  5
1213
102
{ACAD_REACTORS
330
1221
102
}
330
1D
100
AcDbEntity
  8
Visible (ISO)
100
AcDbCircle
 10
30.05000000000001
 20
272.09
 30
0.0
 40
2.05
100
AcDbArc
 50
180.0
 51
0.0
  0
LINE
  5
1214
102
{ACAD_REACTORS
330
1221
102
}
330
1D
100
AcDbEntity
  8
Visible (ISO)
100
AcDbLine
 10
28.0
 20
274.09
 30
0.0
 11
28.0
 21
272.09
 31
0.0
  0
LINE
  5
1215
102
{ACAD_REACTORS
330
1221
102
}
330
1D
100
AcDbEntity
  8
Visible (ISO)
100
AcDbLine
 10
15.0
 20
274.09
 30
0.0
 11
28.0
 21
274.09
 31
0.0
  0
LINE
  5
1216
102
{ACAD_REACTORS
330
1221
102
}
330
1D
100
AcDbEntity
  8
Visible (ISO)
100
AcDbLine
 10
15.0
 20
272.09
 30
0.0
 11
15.0
 21
274.09
 31
0.0
  0
ARC
  5
1217
102
{ACAD_REACTORS
330
1221
102
}
330
1D
100
AcDbEntity
  8
Visible (ISO)
100
AcDbCircle
 10
12.94999999999999
 20
272.09
 30
0.0
 40
2.05
100
AcDbArc
 50
180.0
 51
0.0
  0
LINE
  5
1218
102
{ACAD_REACTORS
330
1221
102
}
330
1D
100
AcDbEntity
  8
Visible (ISO)
100
AcDbLine
 10
5.0
 20
272.09
 30
0.0
 11
10.89999999999998
 21
272.09
 31
0.0
  0
LINE
  5
1219
102
{ACAD_REACTORS
330
1221
102
}
330
1D
100
AcDbEntity
  8
Visible (ISO)
100
AcDbLine
 10
5.0
 20
228.7900000000001
 30
0.0
 11
5.0
 21
272.09
 31
0.0
  0
LINE
  5
121A
102
{ACAD_REACTORS
330
1221
102
}
330
1D
100
AcDbEntity
  8
Visible (ISO)
100
AcDbLine
 10
15.89999999999998
 20
228.7900000000001
 30
0.0
 11
5.0
 21
228.7900000000001
 31
0.0
  0
ARC
  5
121B
102
{ACAD_REACTORS
330
1221
102
}
330
1D
100
AcDbEntity
  8
Visible (ISO)
100
AcDbCircle
 10
17.94999999999999
 20
228.7900000000001
 30
0.0
 40
2.05
100
AcDbArc
 50
0.0
 51
180.0
  0
LINE
  5
121C
102
{ACAD_REACTORS
330
1221
102
}
330
1D
100
AcDbEntity
  8
Visible (ISO)
100
AcDbLine
 10
20.0
 20
226.79
 30
0.0
 11
20.0
 21
228.7900000000001
 31
0.0
  0
LINE
  5
121D
102
{ACAD_REACTORS
330
1221
102
}
330
1D
100
AcDbEntity
  8
Visible (ISO)
100
AcDbLine
 10
135.0
 20
226.79
 30
0.0
 11
20.0
 21
226.79
 31
0.0
  0
LINE
  5
121E
102
{ACAD_REACTORS
330
1221
102
}
330
1D
100
AcDbEntity
  8
Visible (ISO)
100
AcDbLine
 10
135.0
 20
228.7900000000001
 30
0.0
 11
135.0
 21
226.79
 31
0.0
  0
ARC
  5
121F
102
{ACAD_REACTORS
330
1221
102
}
330
1D
100
AcDbEntity
  8
Visible (ISO)
100
AcDbCircle
 10
137.05
 20
228.7900000000001
 30
0.0
 40
2.05
100
AcDbArc
 50
0.0
 51
180.0
  0
LINE
  5
1220
102
{ACAD_REACTORS
330
1221
102
}
330
1D
100
AcDbEntity
  8
Visible (ISO)
100
AcDbLine
 10
150.0
 20
228.7900000000001
 30
0.0
 11
139.1
 21
228.7900000000001
 31
0.0
  0
ARC
  5
1222
102
{ACAD_REACTORS
330
1241
102
}
330
1D
100
AcDbEntity
  8
Visible (ISO)
100
AcDbCircle
 10
177.0
 20
243.5
 30
0.0
 40
2.999999999999998
100
AcDbArc
 50
270.0
 51
0.0
  0
ARC
  5
1223
102
{ACAD_REACTORS
330
1241
102
}
330
1D
100
AcDbEntity
  8
Visible (ISO)
100
AcDbCircle
 10
73.49714994582924
 20
270.8000000000001
 30
0.0
 40
3.000000000000003
100
AcDbArc
 50
90.0
 51
251.1211440544944
  0
ARC
  5
1224
102
{ACAD_REACTORS
330
1241
102
}
330
1D
100
AcDbEntity
  8
Visible (ISO)
100
AcDbCircle
 10
99.75985152152391
 20
261.81909401474
 30
0.0
 40
2.999999999999993
100
AcDbArc
 50
251.1211440544946
 51
282.3794891444836
  0
ARC
  5
1225
102
{ACAD_REACTORS
330
1241
102
}
330
1D
100
AcDbEntity
  8
Visible (ISO)
100
AcDbCircle
 10
140.6771908988189
 20
270.8
 30
0.0
 40
3.0
100
AcDbArc
 50
282.3794891444836
 51
90.0
  0
ARC
  5
1226
102
{ACAD_REACTORS
330
1241
102
}
330
1D
100
AcDbEntity
  8
Visible (ISO)
100
AcDbCircle
 10
177.0
 20
267.5106088676743
 30
0.0
 40
2.999999999999998
100
AcDbArc
 50
0.0
 51
102.3794891444837
  0
ARC
  5
1227
102
{ACAD_REACTORS
330
1241
102
}
330
1D
100
AcDbEntity
  8
Visible (ISO)
100
AcDbCircle
 10
153.330048118153
 20
243.4999999999999
 30
0.0
 40
2.999999999999953
100
AcDbArc
 50
251.1211440544959
 51
270.0
  0
ARC
  5
1228
102
{ACAD_REACTORS
330
1241
102
}
330
1D
100
AcDbEntity
  8
Visible (ISO)
100
AcDbCircle
 10
119.8182401685347
 20
254.9598414684855
 30
0.0
 40
3.0
100
AcDbArc
 50
102.3794891444837
 51
251.1211440544946
  0
LINE
  5
1229
102
{ACAD_REACTORS
330
1241
102
}
330
1D
100
AcDbEntity
  8
Visible (ISO)
100
AcDbLine
 10
153.330048118153
 20
240.5
 30
0.0
 11
177.0
 21
240.5
 31
0.0
  0
LINE
  5
122A
102
{ACAD_REACTORS
330
1241
102
}
330
1D
100
AcDbEntity
  8
Visible (ISO)
100
AcDbLine
 10
140.6771908988189
 20
273.8
 30
0.0
 11
73.49714994582924
 21
273.8
 31
0.0
  0
LINE
  5
122B
102
{ACAD_REACTORS
330
1241
102
}
330
1D
100
AcDbEntity
  8
Visible (ISO)
100
AcDbLine
 10
72.52644516857994
 20
267.9613855077828
 30
0.0
 11
98.7891467442745
 21
258.980479522523
 31
0.0
  0
LINE
  5
122C
102
{ACAD_REACTORS
330
1241
102
}
330
1D
100
AcDbEntity
  8
Visible (ISO)
100
AcDbLine
 10
100.4030085685967
 20
258.8888467533644
 30
0.0
 11
141.3203479458919
 21
267.8697527386241
 31
0.0
  0
LINE
  5
122D
102
{ACAD_REACTORS
330
1241
102
}
330
1D
100
AcDbEntity
  8
Visible (ISO)
100
AcDbLine
 10
180.0
 20
243.5
 30
0.0
 11
180.0
 21
267.5106088676743
 31
0.0
  0
LINE
  5
122E
102
{ACAD_REACTORS
330
1241
102
}
330
1D
100
AcDbEntity
  8
Visible (ISO)
100
AcDbLine
 10
118.8475353912855
 20
252.1212269762684
 30
0.0
 11
152.3593433409037
 21
240.6613855077827
 31
0.0
  0
LINE
  5
122F
102
{ACAD_REACTORS
330
1241
102
}
330
1D
100
AcDbEntity
  8
Visible (ISO)
100
AcDbLine
 10
176.3568429529271
 20
270.4408561290501
 30
0.0
 11
119.1750831214618
 21
257.8900887298613
 31
0.0
  0
LINE
  5
1230
102
{ACAD_REACTORS
330
1241
102
}
330
1D
100
AcDbEntity
  8
Visible (ISO)
100
AcDbLine
 10
40.00000000000001
 20
273.8
 30
0.0
 11
40.00000000000001
 21
278.8
 31
0.0
  0
LINE
  5
1231
102
{ACAD_REACTORS
330
1241
102
}
330
1D
100
AcDbEntity
  8
Visible (ISO)
100
AcDbLine
 10
152.0
 20
235.5
 30
0.0
 11
40.00000000000001
 21
273.8
 31
0.0
  0
LINE
  5
1232
102
{ACAD_REACTORS
330
1241
102
}
330
1D
100
AcDbEntity
  8
Visible (ISO)
100
AcDbLine
 10
157.9
 20
235.5
 30
0.0
 11
152.0
 21
235.5
 31
0.0
  0
ARC
  5
1233
102
{ACAD_REACTORS
330
1241
102
}
330
1D
100
AcDbEntity
  8
Visible (ISO)
100
AcDbCircle
 10
159.95
 20
235.5
 30
0.0
 40
2.05
100
AcDbArc
 50
0.0
 51
180.0
  0
LINE
  5
1234
102
{ACAD_REACTORS
330
1241
102
}
330
1D
100
AcDbEntity
  8
Visible (ISO)
100
AcDbLine
 10
162.0
 20
233.5
 30
0.0
 11
162.0
 21
235.5
 31
0.0
  0
LINE
  5
1235
102
{ACAD_REACTORS
330
1241
102
}
330
1D
100
AcDbEntity
  8
Visible (ISO)
100
AcDbLine
 10
175.0
 20
233.5
 30
0.0
 11
162.0
 21
233.5
 31
0.0
  0
LINE
  5
1236
102
{ACAD_REACTORS
330
1241
102
}
330
1D
100
AcDbEntity
  8
Visible (ISO)
100
AcDbLine
 10
175.0
 20
235.5
 30
0.0
 11
175.0
 21
233.5
 31
0.0
  0
ARC
  5
1237
102
{ACAD_REACTORS
330
1241
102
}
330
1D
100
AcDbEntity
  8
Visible (ISO)
100
AcDbCircle
 10
177.05
 20
235.5
 30
0.0
 40
2.05
100
AcDbArc
 50
0.0
 51
180.0
  0
LINE
  5
1238
102
{ACAD_REACTORS
330
1241
102
}
330
1D
100
AcDbEntity
  8
Visible (ISO)
100
AcDbLine
 10
185.0
 20
235.5
 30
0.0
 11
179.1
 21
235.5
 31
0.0
  0
LINE
  5
1239
102
{ACAD_REACTORS
330
1241
102
}
330
1D
100
AcDbEntity
  8
Visible (ISO)
100
AcDbLine
 10
185.0
 20
278.8
 30
0.0
 11
185.0
 21
235.5
 31
0.0
  0
LINE
  5
123A
102
{ACAD_REACTORS
330
1241
102
}
330
1D
100
AcDbEntity
  8
Visible (ISO)
100
AcDbLine
 10
174.1
 20
278.8
 30
0.0
 11
185.0
 21
278.8
 31
0.0
  0
ARC
  5
123B
102
{ACAD_REACTORS
330
1241
102
}
330
1D
100
AcDbEntity
  8
Visible (ISO)
100
AcDbCircle
 10
172.05
 20
278.8
 30
0.0
 40
2.05
100
AcDbArc
 50
180.0
 51
0.0
  0
LINE
  5
123C
102
{ACAD_REACTORS
330
1241
102
}
330
1D
100
AcDbEntity
  8
Visible (ISO)
100
AcDbLine
 10
170.0
 20
280.8000000000001
 30
0.0
 11
170.0
 21
278.8
 31
0.0
  0
LINE
  5
123D
102
{ACAD_REACTORS
330
1241
102
}
330
1D
100
AcDbEntity
  8
Visible (ISO)
100
AcDbLine
 10
55.00000000000001
 20
280.8000000000001
 30
0.0
 11
170.0
 21
280.8000000000001
 31
0.0
  0
LINE
  5
123E
102
{ACAD_REACTORS
330
1241
102
}
330
1D
100
AcDbEntity
  8
Visible (ISO)
100
AcDbLine
 10
55.00000000000001
 20
278.8
 30
0.0
 11
55.00000000000001
 21
280.8000000000001
 31
0.0
  0
ARC
  5
123F
102
{ACAD_REACTORS
330
1241
102
}
330
1D
100
AcDbEntity
  8
Visible (ISO)
100
AcDbCircle
 10
52.95
 20
278.8
 30
0.0
 40
2.05
100
AcDbArc
 50
180.0
 51
0.0
  0
LINE
  5
1240
102
{ACAD_REACTORS
330
1241
102
}
330
1D
100
AcDbEntity
  8
Visible (ISO)
100
AcDbLine
 10
40.00000000000001
 20
278.8
 30
0.0
 11
50.89999999999999
 21
278.8
 31
0.0
  0
CIRCLE
  5
1337
102
{ACAD_REACTORS
330
1357
102
}
330
1D
100
AcDbEntity
  8
Visible (ISO)
100
AcDbCircle
 10
161.0
 20
122.0
 30
0.0
 40
1.05
  0
CIRCLE
  5
1338
102
{ACAD_REACTORS
330
1357
102
}
330
1D
100
AcDbEntity
  8
Visible (ISO)
100
AcDbCircle
 10
161.0
 20
122.0
 30
0.0
 40
2.0
  0
CIRCLE
  5
1339
102
{ACAD_REACTORS
330
1357
102
}
330
1D
100
AcDbEntity
  8
Visible (ISO)
100
AcDbCircle
 10
182.0
 20
134.5
 30
0.0
 40
1.05
  0
CIRCLE
  5
133A
102
{ACAD_REACTORS
330
1357
102
}
330
1D
100
AcDbEntity
  8
Visible (ISO)
100
AcDbCircle
 10
182.0
 20
134.5
 30
0.0
 40
2.0
  0
CIRCLE
  5
133B
102
{ACAD_REACTORS
330
1357
102
}
330
1D
100
AcDbEntity
  8
Visible (ISO)
100
AcDbCircle
 10
161.0
 20
134.5
 30
0.0
 40
1.05
  0
CIRCLE
  5
133C
102
{ACAD_REACTORS
330
1357
102
}
330
1D
100
AcDbEntity
  8
Visible (ISO)
100
AcDbCircle
 10
161.0
 20
134.5
 30
0.0
 40
2.0
  0
CIRCLE
  5
133D
102
{ACAD_REACTORS
330
1357
102
}
330
1D
100
AcDbEntity
  8
Visible (ISO)
100
AcDbCircle
 10
182.0
 20
122.0
 30
0.0
 40
1.05
  0
CIRCLE
  5
133E
102
{ACAD_REACTORS
330
1357
102
}
330
1D
100
AcDbEntity
  8
Visible (ISO)
100
AcDbCircle
 10
182.0
 20
122.0
 30
0.0
 40
2.0
  0
LINE
  5
133F
102
{ACAD_REACTORS
330
1357
102
}
330
1D
100
AcDbEntity
  8
Visible (ISO)
100
AcDbLine
 10
182.0
 20
120.0
 30
0.0
 11
184.0
 21
120.0
 31
0.0
  0
LINE
  5
1340
102
{ACAD_REACTORS
330
1357
102
}
330
1D
100
AcDbEntity
  8
Visible (ISO)
100
AcDbLine
 10
184.0
 20
120.0
 30
0.0
 11
184.0
 21
122.0
 31
0.0
  0
LINE
  5
1341
102
{ACAD_REACTORS
330
1357
102
}
330
1D
100
AcDbEntity
  8
Visible (ISO)
100
AcDbLine
 10
161.0
 20
136.5
 30
0.0
 11
159.0
 21
136.5
 31
0.0
  0
LINE
  5
1342
102
{ACAD_REACTORS
330
1357
102
}
330
1D
100
AcDbEntity
  8
Visible (ISO)
100
AcDbLine
 10
159.0
 20
136.5
 30
0.0
 11
159.0
 21
134.5
 31
0.0
  0
LINE
  5
1343
102
{ACAD_REACTORS
330
1357
102
}
330
1D
100
AcDbEntity
  8
Visible (ISO)
100
AcDbLine
 10
182.0
 20
136.5
 30
0.0
 11
161.0
 21
136.5
 31
0.0
  0
LINE
  5
1344
102
{ACAD_REACTORS
330
1357
102
}
330
1D
100
AcDbEntity
  8
Visible (ISO)
100
AcDbLine
 10
165.0
 20
134.5
 30
0.0
 11
178.0
 21
134.5
 31
0.0
  0
LINE
  5
1345
102
{ACAD_REACTORS
330
1357
102
}
330
1D
100
AcDbEntity
  8
Visible (ISO)
100
AcDbLine
 10
184.0
 20
134.5
 30
0.0
 11
184.0
 21
136.5
 31
0.0
  0
LINE
  5
1346
102
{ACAD_REACTORS
330
1357
102
}
330
1D
100
AcDbEntity
  8
Visible (ISO)
100
AcDbLine
 10
184.0
 20
136.5
 30
0.0
 11
182.0
 21
136.5
 31
0.0
  0
LINE
  5
1347
102
{ACAD_REACTORS
330
1357
102
}
330
1D
100
AcDbEntity
  8
Visible (ISO)
100
AcDbLine
 10
182.0
 20
130.5
 30
0.0
 11
182.0
 21
126.0
 31
0.0
  0
LINE
  5
1348
102
{ACAD_REACTORS
330
1357
102
}
330
1D
100
AcDbEntity
  8
Visible (ISO)
100
AcDbLine
 10
184.0
 20
122.0
 30
0.0
 11
184.0
 21
134.5
 31
0.0
  0
LINE
  5
1349
102
{ACAD_REACTORS
330
1357
102
}
330
1D
100
AcDbEntity
  8
Visible (ISO)
100
AcDbLine
 10
159.0
 20
122.0
 30
0.0
 11
159.0
 21
120.0
 31
0.0
  0
LINE
  5
134A
102
{ACAD_REACTORS
330
1357
102
}
330
1D
100
AcDbEntity
  8
Visible (ISO)
100
AcDbLine
 10
159.0
 20
120.0
 30
0.0
 11
161.0
 21
120.0
 31
0.0
  0
LINE
  5
134B
102
{ACAD_REACTORS
330
1357
102
}
330
1D
100
AcDbEntity
  8
Visible (ISO)
100
AcDbLine
 10
161.0
 20
126.0
 30
0.0
 11
161.0
 21
130.5
 31
0.0
  0
LINE
  5
134C
102
{ACAD_REACTORS
330
1357
102
}
330
1D
100
AcDbEntity
  8
Visible (ISO)
100
AcDbLine
 10
159.0
 20
134.5
 30
0.0
 11
159.0
 21
122.0
 31
0.0
  0
LINE
  5
134D
102
{ACAD_REACTORS
330
1357
102
}
330
1D
100
AcDbEntity
  8
Visible (ISO)
100
AcDbLine
 10
161.0
 20
120.0
 30
0.0
 11
182.0
 21
120.0
 31
0.0
  0
LINE
  5
134E
102
{ACAD_REACTORS
330
1357
102
}
330
1D
100
AcDbEntity
  8
Visible (ISO)
100
AcDbLine
 10
178.0
 20
122.0
 30
0.0
 11
165.0
 21
122.0
 31
0.0
  0
ARC
  5
134F
102
{ACAD_REACTORS
330
1357
102
}
330
1D
100
AcDbEntity
  8
Visible (ISO)
100
AcDbCircle
 10
165.0
 20
131.5
 30
0.0
 40
3.000000000000003
100
AcDbArc
 50
90.0
 51
143.1301023541556
  0
ARC
  5
1350
102
{ACAD_REACTORS
330
1357
102
}
330
1D
100
AcDbEntity
  8
Visible (ISO)
100
AcDbCircle
 10
178.0
 20
131.5
 30
0.0
 40
3.0
100
AcDbArc
 50
36.86989764584445
 51
90.0000000000011
  0
ARC
  5
1351
102
{ACAD_REACTORS
330
1357
102
}
330
1D
100
AcDbEntity
  8
Visible (ISO)
100
AcDbCircle
 10
179.0
 20
130.5
 30
0.0
 40
2.999999999999998
100
AcDbArc
 50
0.0
 51
53.13010235415587
  0
ARC
  5
1352
102
{ACAD_REACTORS
330
1357
102
}
330
1D
100
AcDbEntity
  8
Visible (ISO)
100
AcDbCircle
 10
179.0
 20
126.0
 30
0.0
 40
3.000000000000011
100
AcDbArc
 50
306.8698976458441
 51
0.0
  0
ARC
  5
1353
102
{ACAD_REACTORS
330
1357
102
}
330
1D
100
AcDbEntity
  8
Visible (ISO)
100
AcDbCircle
 10
164.0
 20
126.0
 30
0.0
 40
2.999999999999998
100
AcDbArc
 50
180.0
 51
233.1301023541559
  0
ARC
  5
1354
102
{ACAD_REACTORS
330
1357
102
}
330
1D
100
AcDbEntity
  8
Visible (ISO)
100
AcDbCircle
 10
164.0
 20
130.5
 30
0.0
 40
3.000000000000011
100
AcDbArc
 50
126.8698976458441
 51
180.0
  0
ARC
  5
1355
102
{ACAD_REACTORS
330
1357
102
}
330
1D
100
AcDbEntity
  8
Visible (ISO)
100
AcDbCircle
 10
178.0
 20
125.0
 30
0.0
 40
2.999999999999997
100
AcDbArc
 50
270.0
 51
323.1301023541556
  0
ARC
  5
1356
102
{ACAD_REACTORS
330
1357
102
}
330
1D
100
AcDbEntity
  8
Visible (ISO)
100
AcDbCircle
 10
165.0
 20
125.0
 30
0.0
 40
3.000000000000007
100
AcDbArc
 50
216.8698976458433
 51
269.9999999999989
  0
LWPOLYLINE
  5
1398
330
1D
100
AcDbEntity
  8
0
100
AcDbPolyline
 90
        4
 70
     1
 43
0.0
 10
158.0
 20
119.0
 10
158.0
 20
137.5
 10
185.0
 20
137.5
 10
185.0
 20
119.0
  0
ENDSEC
  0
SECTION
  2
OBJECTS
  0
DICTIONARY
  5
C
330
0
100
AcDbDictionary
281
     1
  3
ACAD_DETAILVIEWSTYLE
350
135
  3
ACAD_GROUP
350
D
  3
ACAD_LAYOUT
350
1A
  3
ACAD_MLINESTYLE
350
17
  3
ACAD_PLOTSETTINGS
350
19
  3
ACAD_PLOTSTYLENAME
350
E
  3
ACAD_SCALELIST
350
E8
  3
ACAD_SECTIONVIEWSTYLE
350
136
  3
AcDbVariableDictionary
350
130
  3
APPDATA
350
12F
  3
DWGPROPS
350
1399
  0
DICTIONARY
  5
135
102
{ACAD_REACTORS
330
C
102
}
330
C
100
AcDbDictionary
281
     1
  0
DICTIONARY
  5
D
102
{ACAD_REACTORS
330
C
102
}
330
C
100
AcDbDictionary
281
     1
  3
*A1
350
B11
  3
*A10
350
CC4
  3
*A11
350
CDF
  3
*A12
350
D3B
  3
*A13
350
1107
  3
*A14
350
113C
  3
*A15
350
11C1
  3
*A16
350
11E1
  3
*A17
350
1221
  3
*A18
350
1241
  3
*A19
350
1357
  3
*A2
350
B12
  3
*A3
350
B13
  3
*A4
350
B14
  3
*A5
350
B15
  3
*A6
350
B16
  3
*A7
350
B68
  3
*A8
350
B69
  3
*A9
350
C69
  0
DICTIONARY
  5
1A
102
{ACAD_REACTORS
330
C
102
}
330
C
100
AcDbDictionary
281
     1
  3
Model
350
1E
  3
ГVБ[Гg 1
350
1C
  0
DICTIONARY
  5
17
102
{ACAD_REACTORS
330
C
102
}
330
C
100
AcDbDictionary
281
     1
  3
Standard
350
18
  0
DICTIONARY
  5
19
102
{ACAD_REACTORS
330
C
102
}
330
C
100
AcDbDictionary
281
     1
  0
ACDBDICTIONARYWDFLT
  5
E
102
{ACAD_REACTORS
330
C
102
}
330
C
100
AcDbDictionary
281
     1
  3
Normal
350
F
100
AcDbDictionaryWithDefault
340
F
  0
DICTIONARY
  5
E8
102
{ACAD_REACTORS
330
C
102
}
330
C
100
AcDbDictionary
281
     1
  3
A0
350
E9
  3
A1
350
EA
  3
A2
350
EB
  3
A3
350
EC
  3
A4
350
ED
  3
A5
350
EE
  3
A6
350
EF
  3
A7
350
F0
  3
A8
350
F1
  3
A9
350
F2
  3
B0
350
F3
  3
B1
350
F4
  3
B2
350
F5
  3
B3
350
F6
  3
B4
350
F7
  3
B5
350
F8
  3
B6
350
F9
  3
B7
350
FA
  3
B8
350
FB
  3
B9
350
FC
  3
C0
350
FD
  3
C1
350
FE
  3
C2
350
FF
  3
C3
350
100
  3
C4
350
101
  3
C5
350
102
  3
C6
350
103
  3
C7
350
104
  3
C8
350
105
  3
C9
350
106
  3
D0
350
107
  3
D1
350
108
  3
D2
350
109
  0
DICTIONARY
  5
136
102
{ACAD_REACTORS
330
C
102
}
330
C
100
AcDbDictionary
281
     1
  0
DICTIONARY
  5
130
102
{ACAD_REACTORS
330
C
102
}
330
C
100
AcDbDictionary
281
     1
  0
DICTIONARY
  5
12F
102
{ACAD_REACTORS
330
C
102
}
330
C
100
AcDbDictionary
281
     1
  0
XRECORD
  5
1399
102
{ACAD_REACTORS
330
C
102
}
330
C
100
AcDbXrecord
280
     1
  1
DWGPROPS COOKIE
  2

  3

  4

  6

  7

  8
haya
  9

300
=
301
=
302
=
303
=
304
=
305
=
306
=
307
=
308
=
309
=
 40
0.0
 41
2447892.625
 42
2458196.132368843
  1

 90
        0
  0
GROUP
  5
B11
102
{ACAD_REACTORS
330
D
102
}
330
D
100
AcDbGroup
300

 70
     1
 71
     1
340
7C
340
7D
340
7E
340
7F
340
80
340
81
340
82
340
83
340
84
340
85
340
86
340
87
  0
GROUP
  5
CC4
102
{ACAD_REACTORS
330
D
102
}
330
D
100
AcDbGroup
300

 70
     1
 71
     1
340
CAA
340
CAB
340
CAC
340
CAD
340
CAE
340
CAF
340
CB0
340
CB1
340
CB2
340
CB3
340
CB4
340
CB5
340
CB6
340
CB7
340
CB8
340
CB9
340
CBA
340
CBB
340
CBC
340
CBD
340
CBE
340
CBF
340
CC0
340
CC1
340
CC2
340
CC3
  0
GROUP
  5
CDF
102
{ACAD_REACTORS
330
D
102
}
330
D
100
AcDbGroup
300

 70
     1
 71
     1
340
CC5
340
CC6
340
CC7
340
CC8
340
CC9
340
CCA
340
CCB
340
CCC
340
CCD
340
CCE
340
CCF
340
CD0
340
CD1
340
CD2
340
CD3
340
CD4
340
CD5
340
CD6
340
CD7
340
CD8
340
CD9
340
CDA
340
CDB
340
CDC
340
CDD
340
CDE
  0
GROUP
  5
D3B
102
{ACAD_REACTORS
330
D
102
}
330
D
100
AcDbGroup
300

 70
     1
 71
     1
340
D11
340
D12
340
D13
340
D14
340
D15
340
D16
340
D17
340
D18
340
D19
340
D1A
340
D1B
340
D1C
340
D1D
340
D1E
340
D1F
340
D20
340
D21
340
D22
340
D23
340
D24
340
D25
340
D26
340
D27
340
D28
340
D29
340
D2A
340
D2B
340
D2C
340
D2D
340
D2E
340
D2F
340
D30
340
D31
340
D32
340
D33
340
D34
340
D35
340
D36
340
D37
340
D38
340
D39
340
D3A
  0
GROUP
  5
1107
102
{ACAD_REACTORS
330
D
102
}
330
D
100
AcDbGroup
300

 70
     1
 71
     1
340
10D3
340
10D4
340
10D5
340
10D6
340
10D7
340
10D8
340
10D9
340
10DA
340
10DB
340
10DC
340
10DD
340
10DE
340
10DF
340
10E0
340
10E1
340
10E2
340
10E3
340
10E4
340
10E5
340
10E6
340
10E7
340
10E8
340
10E9
340
10EA
340
10EB
340
10EC
340
10ED
340
10EE
340
10EF
340
10F0
340
10F1
340
10F2
340
10F3
340
10F4
340
10F5
340
10F6
340
10F7
340
10F8
340
10F9
340
10FA
340
10FB
340
10FC
340
10FD
340
10FE
340
10FF
340
1100
340
1101
340
1102
340
1103
340
1104
340
1105
340
1106
  0
GROUP
  5
113C
102
{ACAD_REACTORS
330
D
102
}
330
D
100
AcDbGroup
300

 70
     1
 71
     1
340
1108
340
1109
340
110A
340
110B
340
110C
340
110D
340
110E
340
110F
340
1110
340
1111
340
1112
340
1113
340
1114
340
1115
340
1116
340
1117
340
1118
340
1119
340
111A
340
111B
340
111C
340
111D
340
111E
340
111F
340
1120
340
1121
340
1122
340
1123
340
1124
340
1125
340
1126
340
1127
340
1128
340
1129
340
112A
340
112B
340
112C
340
112D
340
112E
340
112F
340
1130
340
1131
340
1132
340
1133
340
1134
340
1135
340
1136
340
1137
340
1138
340
1139
340
113A
340
113B
  0
GROUP
  5
11C1
102
{ACAD_REACTORS
330
D
102
}
330
D
100
AcDbGroup
300

 70
     1
 71
     1
340
11A2
340
11A3
340
11A4
340
11A5
340
11A6
340
11A7
340
11A8
340
11A9
340
11AA
340
11AB
340
11AC
340
11AD
340
11AE
340
11AF
340
11B0
340
11B1
340
11B2
340
11B3
340
11B4
340
11B5
340
11B6
340
11B7
340
11B8
340
11B9
340
11BA
340
11BB
340
11BC
340
11BD
340
11BE
340
11BF
340
11C0
  0
GROUP
  5
11E1
102
{ACAD_REACTORS
330
D
102
}
330
D
100
AcDbGroup
300

 70
     1
 71
     1
340
11C2
340
11C3
340
11C4
340
11C5
340
11C6
340
11C7
340
11C8
340
11C9
340
11CA
340
11CB
340
11CC
340
11CD
340
11CE
340
11CF
340
11D0
340
11D1
340
11D2
340
11D3
340
11D4
340
11D5
340
11D6
340
11D7
340
11D8
340
11D9
340
11DA
340
11DB
340
11DC
340
11DD
340
11DE
340
11DF
340
11E0
  0
GROUP
  5
1221
102
{ACAD_REACTORS
330
D
102
}
330
D
100
AcDbGroup
300

 70
     1
 71
     1
340
1202
340
1203
340
1204
340
1205
340
1206
340
1207
340
1208
340
1209
340
120A
340
120B
340
120C
340
120D
340
120E
340
120F
340
1210
340
1211
340
1212
340
1213
340
1214
340
1215
340
1216
340
1217
340
1218
340
1219
340
121A
340
121B
340
121C
340
121D
340
121E
340
121F
340
1220
  0
GROUP
  5
1241
102
{ACAD_REACTORS
330
D
102
}
330
D
100
AcDbGroup
300

 70
     1
 71
     1
340
1222
340
1223
340
1224
340
1225
340
1226
340
1227
340
1228
340
1229
340
122A
340
122B
340
122C
340
122D
340
122E
340
122F
340
1230
340
1231
340
1232
340
1233
340
1234
340
1235
340
1236
340
1237
340
1238
340
1239
340
123A
340
123B
340
123C
340
123D
340
123E
340
123F
340
1240
  0
GROUP
  5
1357
102
{ACAD_REACTORS
330
D
102
}
330
D
100
AcDbGroup
300

 70
     1
 71
     1
340
1337
340
1338
340
1339
340
133A
340
133B
340
133C
340
133D
340
133E
340
133F
340
1340
340
1341
340
1342
340
1343
340
1344
340
1345
340
1346
340
1347
340
1348
340
1349
340
134A
340
134B
340
134C
340
134D
340
134E
340
134F
340
1350
340
1351
340
1352
340
1353
340
1354
340
1355
340
1356
  0
GROUP
  5
B12
102
{ACAD_REACTORS
330
D
102
}
330
D
100
AcDbGroup
300

 70
     1
 71
     1
340
B6
340
B7
340
B8
340
B9
340
BA
340
BB
340
BC
340
BD
340
BE
340
BF
340
C0
340
C1
340
C2
340
C3
340
C4
340
C5
340
C6
340
C7
340
C8
340
C9
340
CA
340
CB
340
CC
340
CD
340
CE
340
CF
340
D0
340
D1
340
D2
340
D3
340
D4
340
D5
340
D6
340
D7
340
D8
340
D9
340
DA
340
DB
340
DC
340
DD
340
DE
340
DF
340
E0
340
E1
340
E2
340
E3
  0
GROUP
  5
B13
102
{ACAD_REACTORS
330
D
102
}
330
D
100
AcDbGroup
300

 70
     1
 71
     1
340
70
340
71
340
72
340
73
340
74
340
75
340
76
340
77
340
78
340
79
340
7A
340
7B
  0
GROUP
  5
B14
102
{ACAD_REACTORS
330
D
102
}
330
D
100
AcDbGroup
300

 70
     1
 71
     1
340
88
340
89
340
8A
340
8B
340
8C
340
8D
340
8E
340
8F
340
90
340
91
340
92
340
93
340
94
340
95
340
96
340
97
340
98
340
99
340
9A
340
9B
340
9C
340
9D
340
9E
340
9F
340
A0
340
A1
340
A2
340
A3
340
A4
340
A5
340
A6
340
A7
340
A8
340
A9
340
AA
340
AB
340
AC
340
AD
340
AE
340
AF
340
B0
340
B1
340
B2
340
B3
340
B4
340
B5
  0
GROUP
  5
B15
102
{ACAD_REACTORS
330
D
102
}
330
D
100
AcDbGroup
300

 70
     1
 71
     1
340
775
340
776
340
777
340
778
340
779
340
77A
340
77B
340
77C
340
77D
340
77E
340
77F
340
780
340
781
340
782
340
783
340
784
340
785
340
786
340
787
340
788
340
789
340
78A
340
78B
340
78C
340
78D
340
78E
340
78F
340
790
340
791
340
792
340
793
340
794
340
795
340
796
340
797
340
798
340
799
340
79A
340
79B
340
79C
340
79D
340
79E
340
79F
340
7A0
340
7A1
340
7A2
340
7A3
340
7A4
340
7A5
340
7A6
340
7A7
340
7A8
340
7A9
340
7AA
340
7AB
340
7AC
340
7AD
340
7AE
340
7AF
340
7B0
340
7B1
340
7B2
340
7B3
340
7B4
340
7B5
340
7B6
340
7B7
340
7B8
340
7B9
340
7BA
340
7BB
340
7BC
340
7BD
340
7BE
  0
GROUP
  5
B16
102
{ACAD_REACTORS
330
D
102
}
330
D
100
AcDbGroup
300

 70
     1
 71
     1
340
2E
340
2F
340
30
340
31
340
32
340
33
340
34
340
35
340
36
340
37
340
38
340
39
340
3A
340
3B
340
3C
340
3D
340
3E
340
3F
340
40
340
41
340
42
340
43
340
44
340
45
340
46
340
47
340
48
340
49
340
4A
340
4B
340
4C
340
4D
340
4E
340
4F
340
50
340
51
340
52
340
53
340
54
340
55
340
56
340
57
340
58
340
59
340
5A
340
5B
340
5C
340
5D
340
5E
340
5F
340
60
340
61
340
62
340
63
340
64
340
65
340
66
340
67
340
68
340
69
340
6A
340
6B
340
6C
340
6D
340
6E
340
6F
  0
GROUP
  5
B68
102
{ACAD_REACTORS
330
D
102
}
330
D
100
AcDbGroup
300

 70
     1
 71
     1
340
729
340
72A
340
72B
340
72C
340
72D
340
72E
340
72F
340
730
340
731
340
732
340
733
340
734
340
735
340
736
340
737
340
738
340
739
340
73A
340
73B
340
73C
340
73D
340
73E
340
73F
340
740
340
741
340
742
340
743
340
744
340
745
340
746
340
747
340
748
340
749
340
74A
340
74B
340
74C
340
74D
340
74E
  0
GROUP
  5
B69
102
{ACAD_REACTORS
330
D
102
}
330
D
100
AcDbGroup
300

 70
     1
 71
     1
340
74F
340
750
340
751
340
752
340
753
340
754
340
755
340
756
340
757
340
758
340
759
340
75A
340
75B
340
75C
340
75D
340
75E
340
75F
340
760
340
761
340
762
340
763
340
764
340
765
340
766
340
767
340
768
340
769
340
76A
340
76B
340
76C
340
76D
340
76E
340
76F
340
770
340
771
340
772
340
773
340
774
  0
GROUP
  5
C69
102
{ACAD_REACTORS
330
D
102
}
330
D
100
AcDbGroup
300

 70
     1
 71
     1
340
C3F
340
C40
340
C41
340
C42
340
C43
340
C44
340
C45
340
C46
340
C47
340
C48
340
C49
340
C4A
340
C4B
340
C4C
340
C4D
340
C4E
340
C4F
340
C50
340
C51
340
C52
340
C53
340
C54
340
C55
340
C56
340
C57
340
C58
340
C59
340
C5A
340
C5B
340
C5C
340
C5D
340
C5E
340
C5F
340
C60
340
C61
340
C62
340
C63
340
C64
340
C65
340
C66
340
C67
340
C68
  0
LAYOUT
  5
1E
102
{ACAD_REACTORS
330
1A
102
}
330
1A
100
AcDbPlotSettings
  1

  2
none_device
  4
Letter_(8.50_x_11.00_Inches)
  6

 40
6.35
 41
6.35
 42
6.35
 43
6.35
 44
215.9
 45
279.4
 46
0.0
 47
0.0
 48
0.0
 49
0.0
140
0.0
141
0.0
142
1.0
143
1.0
 70
  1712
 72
     0
 73
     0
 74
     0
  7

 75
     0
147
1.0
148
0.0
149
0.0
100
AcDbLayout
  1
Model
 70
     3
 71
     0
 10
0.0
 20
0.0
 11
12.0
 21
9.0
 12
0.0
 22
0.0
 32
0.0
 14
0.0
 24
0.0
 34
0.0
 15
649.0009831484441
 25
727.3000000000003
 35
0.0
146
0.0
 13
0.0
 23
0.0
 33
0.0
 16
1.0
 26
0.0
 36
0.0
 17
0.0
 27
1.0
 37
0.0
 76
     0
330
1D
331
2D
  0
LAYOUT
  5
1C
102
{ACAD_REACTORS
330
1A
102
}
330
1A
100
AcDbPlotSettings
  1

  2
none_device
  4

  6

 40
0.0
 41
0.0
 42
0.0
 43
0.0
 44
0.0
 45
0.0
 46
0.0
 47
0.0
 48
0.0
 49
0.0
140
0.0
141
0.0
142
1.0
143
1.0
 70
   688
 72
     0
 73
     0
 74
     5
  7

 75
    16
147
1.0
148
0.0
149
0.0
100
AcDbLayout
  1
ГVБ[Гg 1
 70
     1
 71
     1
 10
0.0
 20
0.0
 11
0.0
 21
0.0
 12
0.0
 22
0.0
 32
0.0
 14
0.0
 24
0.0
 34
0.0
 15
594.0
 25
420.0
 35
0.0
146
0.0
 13
0.0
 23
0.0
 33
0.0
 16
1.0
 26
0.0
 36
0.0
 17
0.0
 27
1.0
 37
0.0
 76
     0
330
1B
  0
MLINESTYLE
  5
18
102
{ACAD_REACTORS
330
17
102
}
330
17
100
AcDbMlineStyle
  2
Standard
 70
     0
  3

 62
   256
 51
90.0
 52
90.0
 71
     2
 49
0.5
 62
   256
  6
BYLAYER
 49
-0.5
 62
   256
  6
BYLAYER
  0
ACDBPLACEHOLDER
  5
F
102
{ACAD_REACTORS
330
E
102
}
330
E
  0
SCALE
  5
E9
102
{ACAD_REACTORS
330
E8
102
}
330
E8
100
AcDbScale
 70
     0
300
1:1
140
1.0
141
1.0
290
     1
  0
SCALE
  5
EA
102
{ACAD_REACTORS
330
E8
102
}
330
E8
100
AcDbScale
 70
     0
300
1:2
140
1.0
141
2.0
290
     0
  0
SCALE
  5
EB
102
{ACAD_REACTORS
330
E8
102
}
330
E8
100
AcDbScale
 70
     0
300
1:4
140
1.0
141
4.0
290
     0
  0
SCALE
  5
EC
102
{ACAD_REACTORS
330
E8
102
}
330
E8
100
AcDbScale
 70
     0
300
1:5
140
1.0
141
5.0
290
     0
  0
SCALE
  5
ED
102
{ACAD_REACTORS
330
E8
102
}
330
E8
100
AcDbScale
 70
     0
300
1:8
140
1.0
141
8.0
290
     0
  0
SCALE
  5
EE
102
{ACAD_REACTORS
330
E8
102
}
330
E8
100
AcDbScale
 70
     0
300
1:10
140
1.0
141
10.0
290
     0
  0
SCALE
  5
EF
102
{ACAD_REACTORS
330
E8
102
}
330
E8
100
AcDbScale
 70
     0
300
1:16
140
1.0
141
16.0
290
     0
  0
SCALE
  5
F0
102
{ACAD_REACTORS
330
E8
102
}
330
E8
100
AcDbScale
 70
     0
300
1:20
140
1.0
141
20.0
290
     0
  0
SCALE
  5
F1
102
{ACAD_REACTORS
330
E8
102
}
330
E8
100
AcDbScale
 70
     0
300
1:30
140
1.0
141
30.0
290
     0
  0
SCALE
  5
F2
102
{ACAD_REACTORS
330
E8
102
}
330
E8
100
AcDbScale
 70
     0
300
1:40
140
1.0
141
40.0
290
     0
  0
SCALE
  5
F3
102
{ACAD_REACTORS
330
E8
102
}
330
E8
100
AcDbScale
 70
     0
300
1:50
140
1.0
141
50.0
290
     0
  0
SCALE
  5
F4
102
{ACAD_REACTORS
330
E8
102
}
330
E8
100
AcDbScale
 70
     0
300
1:100
140
1.0
141
100.0
290
     0
  0
SCALE
  5
F5
102
{ACAD_REACTORS
330
E8
102
}
330
E8
100
AcDbScale
 70
     0
300
2:1
140
2.0
141
1.0
290
     0
  0
SCALE
  5
F6
102
{ACAD_REACTORS
330
E8
102
}
330
E8
100
AcDbScale
 70
     0
300
4:1
140
4.0
141
1.0
290
     0
  0
SCALE
  5
F7
102
{ACAD_REACTORS
330
E8
102
}
330
E8
100
AcDbScale
 70
     0
300
8:1
140
8.0
141
1.0
290
     0
  0
SCALE
  5
F8
102
{ACAD_REACTORS
330
E8
102
}
330
E8
100
AcDbScale
 70
     0
300
10:1
140
10.0
141
1.0
290
     0
  0
SCALE
  5
F9
102
{ACAD_REACTORS
330
E8
102
}
330
E8
100
AcDbScale
 70
     0
300
100:1
140
100.0
141
1.0
290
     0
  0
SCALE
  5
FA
102
{ACAD_REACTORS
330
E8
102
}
330
E8
100
AcDbScale
 70
     0
300
1/128" = 1'-0"
140
0.0078125
141
12.0
290
     0
  0
SCALE
  5
FB
102
{ACAD_REACTORS
330
E8
102
}
330
E8
100
AcDbScale
 70
     0
300
1/64" = 1'-0"
140
0.015625
141
12.0
290
     0
  0
SCALE
  5
FC
102
{ACAD_REACTORS
330
E8
102
}
330
E8
100
AcDbScale
 70
     0
300
1/32" = 1'-0"
140
0.03125
141
12.0
290
     0
  0
SCALE
  5
FD
102
{ACAD_REACTORS
330
E8
102
}
330
E8
100
AcDbScale
 70
     0
300
1/16" = 1'-0"
140
0.0625
141
12.0
290
     0
  0
SCALE
  5
FE
102
{ACAD_REACTORS
330
E8
102
}
330
E8
100
AcDbScale
 70
     0
300
3/32" = 1'-0"
140
0.09375
141
12.0
290
     0
  0
SCALE
  5
FF
102
{ACAD_REACTORS
330
E8
102
}
330
E8
100
AcDbScale
 70
     0
300
1/8" = 1'-0"
140
0.125
141
12.0
290
     0
  0
SCALE
  5
100
102
{ACAD_REACTORS
330
E8
102
}
330
E8
100
AcDbScale
 70
     0
300
3/16" = 1'-0"
140
0.1875
141
12.0
290
     0
  0
SCALE
  5
101
102
{ACAD_REACTORS
330
E8
102
}
330
E8
100
AcDbScale
 70
     0
300
1/4" = 1'-0"
140
0.25
141
12.0
290
     0
  0
SCALE
  5
102
102
{ACAD_REACTORS
330
E8
102
}
330
E8
100
AcDbScale
 70
     0
300
3/8" = 1'-0"
140
0.375
141
12.0
290
     0
  0
SCALE
  5
103
102
{ACAD_REACTORS
330
E8
102
}
330
E8
100
AcDbScale
 70
     0
300
1/2" = 1'-0"
140
0.5
141
12.0
290
     0
  0
SCALE
  5
104
102
{ACAD_REACTORS
330
E8
102
}
330
E8
100
AcDbScale
 70
     0
300
3/4" = 1'-0"
140
0.75
141
12.0
290
     0
  0
SCALE
  5
105
102
{ACAD_REACTORS
330
E8
102
}
330
E8
100
AcDbScale
 70
     0
300
1" = 1'-0"
140
1.0
141
12.0
290
     0
  0
SCALE
  5
106
102
{ACAD_REACTORS
330
E8
102
}
330
E8
100
AcDbScale
 70
     0
300
1-1/2" = 1'-0"
140
1.5
141
12.0
290
     0
  0
SCALE
  5
107
102
{ACAD_REACTORS
330
E8
102
}
330
E8
100
AcDbScale
 70
     0
300
3" = 1'-0"
140
3.0
141
12.0
290
     0
  0
SCALE
  5
108
102
{ACAD_REACTORS
330
E8
102
}
330
E8
100
AcDbScale
 70
     0
300
6" = 1'-0"
140
6.0
141
12.0
290
     0
  0
SCALE
  5
109
102
{ACAD_REACTORS
330
E8
102
}
330
E8
100
AcDbScale
 70
     0
300
1'-0" = 1'-0"
140
12.0
141
12.0
290
     0
  0
ENDSEC
  0
EOF
