  0
SECTION
  2
HEADER
  9
$ACADVER
  1
AC1015
  9
$ACADMAINTVER
 70
     6
  9
$DWGCODEPAGE
  3
ANSI_932
  9
$INSBASE
 10
0.0
 20
0.0
 30
0.0
  9
$EXTMIN
 10
-0.0000000000000036
 20
0.0
 30
0.0
  9
$EXTMAX
 10
200.0
 20
299.9999999999998
 30
0.0
  9
$LIMMIN
 10
0.0
 20
0.0
  9
$LIMMAX
 10
594.0
 20
420.0
  9
$ORTHOMODE
 70
     0
  9
$REGENMODE
 70
     1
  9
$FILLMODE
 70
     1
  9
$QTEXTMODE
 70
     0
  9
$MIRRTEXT
 70
     1
  9
$LTSCALE
 40
0.25
  9
$ATTMODE
 70
     1
  9
$TEXTSIZE
 40
0.2
  9
$TRACEWID
 40
0.05
  9
$TEXTSTYLE
  7
STANDARD
  9
$CLAYER
  8
0
  9
$CELTYPE
  6
ByLayer
  9
$CECOLOR
 62
   256
  9
$CELTSCALE
 40
1.0
  9
$DISPSILH
 70
     0
  9
$DIMSCALE
 40
1.0
  9
$DIMASZ
 40
1.0
  9
$DIMEXO
 40
0.0
  9
$DIMDLI
 40
0.5
  9
$DIMRND
 40
0.0
  9
$DIMDLE
 40
0.0
  9
$DIMEXE
 40
0.0
  9
$DIMTP
 40
0.0
  9
$DIMTM
 40
0.0
  9
$DIMTXT
 40
4.0
  9
$DIMCEN
 40
0.0
  9
$DIMTSZ
 40
0.0
  9
$DIMTOL
 70
     0
  9
$DIMLIM
 70
     0
  9
$DIMTIH
 70
     1
  9
$DIMTOH
 70
     1
  9
$DIMSE1
 70
     0
  9
$DIMSE2
 70
     0
  9
$DIMTAD
 70
     0
  9
$DIMZIN
 70
     0
  9
$DIMBLK
  1

  9
$DIMASO
 70
     0
  9
$DIMSHO
 70
     0
  9
$DIMPOST
  1

  9
$DIMAPOST
  1

  9
$DIMALT
 70
     0
  9
$DIMALTD
 70
     0
  9
$DIMALTF
 40
25.4
  9
$DIMLFAC
 40
1.0
  9
$DIMTOFL
 70
     0
  9
$DIMTVP
 40
0.0
  9
$DIMTIX
 70
     0
  9
$DIMSOXD
 70
     0
  9
$DIMSAH
 70
     0
  9
$DIMBLK1
  1

  9
$DIMBLK2
  1

  9
$DIMSTYLE
  2
Standard
  9
$DIMCLRD
 70
     0
  9
$DIMCLRE
 70
     0
  9
$DIMCLRT
 70
     0
  9
$DIMTFAC
 40
1.0
  9
$DIMGAP
 40
0.09
  9
$DIMJUST
 70
     0
  9
$DIMSD1
 70
     0
  9
$DIMSD2
 70
     0
  9
$DIMTOLJ
 70
     1
  9
$DIMTZIN
 70
     0
  9
$DIMALTZ
 70
     0
  9
$DIMALTTZ
 70
     0
  9
$DIMUPT
 70
     0
  9
$DIMDEC
 70
     2
  9
$DIMTDEC
 70
     2
  9
$DIMALTU
 70
     2
  9
$DIMALTTD
 70
     2
  9
$DIMTXSTY
  7
STANDARD
  9
$DIMAUNIT
 70
     0
  9
$DIMADEC
 70
     0
  9
$DIMALTRND
 40
0.0
  9
$DIMAZIN
 70
     0
  9
$DIMDSEP
 70
    46
  9
$DIMATFIT
 70
     3
  9
$DIMFRAC
 70
     0
  9
$DIMLDRBLK
  1

  9
$DIMLUNIT
 70
     2
  9
$DIMLWD
 70
    -2
  9
$DIMLWE
 70
    -2
  9
$DIMTMOVE
 70
     2
  9
$LUNITS
 70
     2
  9
$LUPREC
 70
     2
  9
$SKETCHINC
 40
0.0
  9
$FILLETRAD
 40
0.0
  9
$AUNITS
 70
     1
  9
$AUPREC
 70
     2
  9
$MENU
  1
ACAD
  9
$ELEVATION
 40
0.0
  9
$PELEVATION
 40
0.0
  9
$THICKNESS
 40
0.0
  9
$LIMCHECK
 70
     1
  9
$CHAMFERA
 40
0.0
  9
$CHAMFERB
 40
0.0
  9
$CHAMFERC
 40
0.0
  9
$CHAMFERD
 40
0.0
  9
$SKPOLY
 70
     0
  9
$TDCREATE
 40
2447893.0
  9
$TDUCREATE
 40
2447892.625
  9
$TDUPDATE
 40
2458196.364390972
  9
$TDUUPDATE
 40
2458195.989390972
  9
$TDINDWG
 40
0.013573044
  9
$TDUSRTIMER
 40
0.0000948958
  9
$USRTIMER
 70
     1
  9
$ANGBASE
 50
0.0
  9
$ANGDIR
 70
     0
  9
$PDMODE
 70
     0
  9
$PDSIZE
 40
0.0
  9
$PLINEWID
 40
0.0
  9
$SPLFRAME
 70
     0
  9
$SPLINETYPE
 70
     6
  9
$SPLINESEGS
 70
     8
  9
$HANDSEED
  5
18AF
  9
$SURFTAB1
 70
     6
  9
$SURFTAB2
 70
     6
  9
$SURFTYPE
 70
     6
  9
$SURFU
 70
     6
  9
$SURFV
 70
     6
  9
$UCSBASE
  2

  9
$UCSNAME
  2

  9
$UCSORG
 10
0.0
 20
0.0
 30
0.0
  9
$UCSXDIR
 10
1.0
 20
0.0
 30
0.0
  9
$UCSYDIR
 10
0.0
 20
1.0
 30
0.0
  9
$UCSORTHOREF
  2

  9
$UCSORTHOVIEW
 70
     0
  9
$UCSORGTOP
 10
0.0
 20
0.0
 30
0.0
  9
$UCSORGBOTTOM
 10
0.0
 20
0.0
 30
0.0
  9
$UCSORGLEFT
 10
0.0
 20
0.0
 30
0.0
  9
$UCSORGRIGHT
 10
0.0
 20
0.0
 30
0.0
  9
$UCSORGFRONT
 10
0.0
 20
0.0
 30
0.0
  9
$UCSORGBACK
 10
0.0
 20
0.0
 30
0.0
  9
$PUCSBASE
  2

  9
$PUCSNAME
  2

  9
$PUCSORG
 10
0.0
 20
0.0
 30
0.0
  9
$PUCSXDIR
 10
1.0
 20
0.0
 30
0.0
  9
$PUCSYDIR
 10
0.0
 20
1.0
 30
0.0
  9
$PUCSORTHOREF
  2

  9
$PUCSORTHOVIEW
 70
     0
  9
$PUCSORGTOP
 10
0.0
 20
0.0
 30
0.0
  9
$PUCSORGBOTTOM
 10
0.0
 20
0.0
 30
0.0
  9
$PUCSORGLEFT
 10
0.0
 20
0.0
 30
0.0
  9
$PUCSORGRIGHT
 10
0.0
 20
0.0
 30
0.0
  9
$PUCSORGFRONT
 10
0.0
 20
0.0
 30
0.0
  9
$PUCSORGBACK
 10
0.0
 20
0.0
 30
0.0
  9
$USERI1
 70
     0
  9
$USERI2
 70
     0
  9
$USERI3
 70
     0
  9
$USERI4
 70
     0
  9
$USERI5
 70
     0
  9
$USERR1
 40
0.0
  9
$USERR2
 40
0.0
  9
$USERR3
 40
0.0
  9
$USERR4
 40
0.0
  9
$USERR5
 40
0.0
  9
$WORLDVIEW
 70
     1
  9
$SHADEDGE
 70
     3
  9
$SHADEDIF
 70
    70
  9
$TILEMODE
 70
     1
  9
$MAXACTVP
 70
    64
  9
$PINSBASE
 10
0.0
 20
0.0
 30
0.0
  9
$PLIMCHECK
 70
     0
  9
$PEXTMIN
 10
0.0
 20
0.0
 30
0.0
  9
$PEXTMAX
 10
594.0
 20
420.0
 30
0.0
  9
$PLIMMIN
 10
0.0
 20
0.0
  9
$PLIMMAX
 10
0.0
 20
0.0
  9
$UNITMODE
 70
     0
  9
$VISRETAIN
 70
     1
  9
$PLINEGEN
 70
     0
  9
$PSLTSCALE
 70
     1
  9
$TREEDEPTH
 70
  3020
  9
$CMLSTYLE
  2
Standard
  9
$CMLJUST
 70
     0
  9
$CMLSCALE
 40
1.0
  9
$PROXYGRAPHICS
 70
     1
  9
$MEASUREMENT
 70
     0
  9
$CELWEIGHT
370
    -1
  9
$ENDCAPS
280
     0
  9
$JOINSTYLE
280
     0
  9
$LWDISPLAY
290
     0
  9
$INSUNITS
 70
     0
  9
$HYPERLINKBASE
  1

  9
$STYLESHEET
  1

  9
$XEDIT
290
     1
  9
$CEPSNTYPE
380
     0
  9
$PSTYLEMODE
290
     1
  9
$FINGERPRINTGUID
  2
{00C79C05-1B87-42DA-8BC2-AB079F41D1C4}
  9
$VERSIONGUID
  2
{FAEB1C32-E019-11D5-929B-00C0DF256EC4}
  9
$EXTNAMES
290
     1
  9
$PSVPSCALE
 40
0.0
  9
$OLESTARTUP
290
     0
  0
ENDSEC
  0
SECTION
  2
CLASSES
  0
CLASS
  1
ACDBDICTIONARYWDFLT
  2
AcDbDictionaryWithDefault
  3
ObjectDBX Classes
 90
        0
280
     0
281
     0
  0
CLASS
  1
SCALE
  2
AcDbScale
  3
ObjectDBX Classes
 90
     1153
280
     0
281
     0
  0
CLASS
  1
VISUALSTYLE
  2
AcDbVisualStyle
  3
ObjectDBX Classes
 90
     4095
280
     0
281
     0
  0
CLASS
  1
MATERIAL
  2
AcDbMaterial
  3
ObjectDBX Classes
 90
     1153
280
     0
281
     0
  0
CLASS
  1
TABLESTYLE
  2
AcDbTableStyle
  3
ObjectDBX Classes
 90
     4095
280
     0
281
     0
  0
CLASS
  1
MLEADERSTYLE
  2
AcDbMLeaderStyle
  3
ACDB_MLEADERSTYLE_CLASS
 90
     4095
280
     0
281
     0
  0
CLASS
  1
DICTIONARYVAR
  2
AcDbDictionaryVar
  3
ObjectDBX Classes
 90
        0
280
     0
281
     0
  0
CLASS
  1
SUN
  2
AcDbSun
  3
SCENEOE
 90
     1153
280
     0
281
     0
  0
CLASS
  1
DIMASSOC
  2
AcDbDimAssoc
  3
"AcDbDimAssoc|Product Desc:     AcDim ARX App For Dimension|Company:          Autodesk, Inc.|WEB Address:      www.autodesk.com"
 90
        0
280
     0
281
     0
  0
CLASS
  1
ACDBPLACEHOLDER
  2
AcDbPlaceHolder
  3
ObjectDBX Classes
 90
        0
280
     0
281
     0
  0
CLASS
  1
LAYOUT
  2
AcDbLayout
  3
ObjectDBX Classes
 90
        0
280
     0
281
     0
  0
ENDSEC
  0
SECTION
  2
TABLES
  0
TABLE
  2
VPORT
  5
8
330
0
100
AcDbSymbolTable
 70
     1
  0
VPORT
  5
2B
330
8
100
AcDbSymbolTableRecord
100
AcDbViewportTableRecord
  2
*Active
 70
     0
 10
0.0
 20
0.0
 11
1.0
 21
1.0
 12
142.8856328084701
 22
85.11568657807992
 13
0.0
 23
0.0
 14
1.0
 24
1.0
 15
5.0
 25
5.0
 16
0.0
 26
0.0
 36
1.0
 17
0.0
 27
0.0
 37
0.0
 40
231.3140482293584
 41
2.111409395973154
 42
50.0
 43
0.0
 44
0.0
 50
0.0
 51
0.0
 71
    16
 72
   100
 73
     1
 74
     3
 75
     1
 76
     1
 77
     0
 78
     0
281
     0
 65
     1
110
0.0
120
0.0
130
0.0
111
1.0
121
0.0
131
0.0
112
0.0
122
1.0
132
0.0
 79
     0
146
0.0
  0
ENDTAB
  0
TABLE
  2
LTYPE
  5
5
330
0
100
AcDbSymbolTable
 70
     8
  0
LTYPE
  5
14
330
5
100
AcDbSymbolTableRecord
100
AcDbLinetypeTableRecord
  2
ByBlock
 70
     0
  3

 72
    65
 73
     0
 40
0.0
  0
LTYPE
  5
15
330
5
100
AcDbSymbolTableRecord
100
AcDbLinetypeTableRecord
  2
ByLayer
 70
     0
  3

 72
    65
 73
     0
 40
0.0
  0
LTYPE
  5
16
330
5
100
AcDbSymbolTableRecord
100
AcDbLinetypeTableRecord
  2
CONTINUOUS
 70
     0
  3
Solid line
 72
    65
 73
     0
 40
0.0
  0
LTYPE
  5
21
330
5
100
AcDbSymbolTableRecord
100
AcDbLinetypeTableRecord
  2
HIDDEN
 70
     0
  3
------------------------
 72
    65
 73
     2
 40
12.6
 49
8.4
 74
     0
 49
-4.2
 74
     0
  0
LTYPE
  5
22
330
5
100
AcDbSymbolTableRecord
100
AcDbLinetypeTableRecord
  2
DOT
 70
     0
  3
ееееееееееееееееееееееее
 72
    65
 73
     2
 40
8.0
 49
6.0
 74
     0
 49
-2.0
 74
     0
  0
LTYPE
  5
23
330
5
100
AcDbSymbolTableRecord
100
AcDbLinetypeTableRecord
  2
DASHDOT
 70
     0
  3
--е--е--е--е--е--е--е--
 72
    65
 73
     4
 40
50.5
 49
30.0
 74
     0
 49
-9.0
 74
     0
 49
2.5
 74
     0
 49
-9.0
 74
     0
  0
LTYPE
  5
24
330
5
100
AcDbSymbolTableRecord
100
AcDbLinetypeTableRecord
  2
DIVIDE
 70
     0
  3
--ее--ее--ее--ее--ее--
 72
    65
 73
     6
 40
58.0
 49
30.0
 74
     0
 49
-9.0
 74
     0
 49
2.5
 74
     0
 49
-5.0
 74
     0
 49
2.5
 74
     0
 49
-9.0
 74
     0
  0
LTYPE
  5
25
330
5
100
AcDbSymbolTableRecord
100
AcDbLinetypeTableRecord
  2
ACAD_ISO06W100
 70
     0
  3
____ ... ____ ... ____
 72
    65
 73
     8
 40
37.5
 49
24.0
 74
     0
 49
-3.0
 74
     0
 49
0.5
 74
     0
 49
-3.0
 74
     0
 49
0.5
 74
     0
 49
-3.0
 74
     0
 49
0.5
 74
     0
 49
-3.0
 74
     0
  0
LTYPE
  5
26
330
5
100
AcDbSymbolTableRecord
100
AcDbLinetypeTableRecord
  2
ACAD_ISO14W100
 70
     0
  3
__ . . . __ . . . __ . . . 
 72
    65
 73
     8
 40
25.5
 49
12.0
 74
     0
 49
-3.0
 74
     0
 49
0.5
 74
     0
 49
-3.0
 74
     0
 49
0.5
 74
     0
 49
-3.0
 74
     0
 49
0.5
 74
     0
 49
-3.0
 74
     0
  0
LTYPE
  5
CDA
330
5
100
AcDbSymbolTableRecord
100
AcDbLinetypeTableRecord
  2
DASHED
 70
     0
  3
Dashed __ __ __ __ __ __ __ __ __ __ __ __ __ _
 72
    65
 73
     2
 40
0.2067
 49
0.1654
 74
     0
 49
-0.0413
 74
     0
  0
ENDTAB
  0
TABLE
  2
LAYER
  5
2
330
0
100
AcDbSymbolTable
 70
     5
  0
LAYER
  5
10
330
2
100
AcDbSymbolTableRecord
100
AcDbLayerTableRecord
  2
0
 70
     0
 62
     7
  6
CONTINUOUS
370
    -3
390
F
  0
LAYER
  5
27
330
2
100
AcDbSymbolTableRecord
100
AcDbLayerTableRecord
  2
23
 70
     0
 62
     7
  6
CONTINUOUS
370
    -3
390
F
  0
LAYER
  5
CD8
330
2
100
AcDbSymbolTableRecord
100
AcDbLayerTableRecord
  2
Hidden (ISO)
 70
     0
 62
     7
  6
DASHED
370
    35
390
F
  0
LAYER
  5
CDB
330
2
100
AcDbSymbolTableRecord
100
AcDbLayerTableRecord
  2
Visible (ISO)
 70
     0
 62
     7
  6
CONTINUOUS
370
    50
390
F
  0
LAYER
  5
16CA
330
2
100
AcDbSymbolTableRecord
100
AcDbLayerTableRecord
  2
Defpoints
 70
     0
 62
     7
  6
CONTINUOUS
290
     0
370
    -3
390
F
  0
ENDTAB
  0
TABLE
  2
STYLE
  5
3
330
0
100
AcDbSymbolTable
 70
     2
  0
STYLE
  5
11
330
3
100
AcDbSymbolTableRecord
100
AcDbTextStyleTableRecord
  2
STANDARD
 70
     0
 40
0.0
 41
1.0
 50
0.0
 71
     0
 42
0.2
  3
TXT
  4

  0
STYLE
  5
29
330
3
100
AcDbSymbolTableRecord
100
AcDbTextStyleTableRecord
  2
KANJI
 70
     0
 40
0.0
 41
1.0
 50
0.0
 71
     0
 42
0.2
  3
TXT
  4
BIGFONT
  0
ENDTAB
  0
TABLE
  2
VIEW
  5
6
330
0
100
AcDbSymbolTable
 70
     0
  0
ENDTAB
  0
TABLE
  2
UCS
  5
7
330
0
100
AcDbSymbolTable
 70
     0
  0
ENDTAB
  0
TABLE
  2
APPID
  5
9
330
0
100
AcDbSymbolTable
 70
     2
  0
APPID
  5
12
330
9
100
AcDbSymbolTableRecord
100
AcDbRegAppTableRecord
  2
ACAD
 70
     0
  0
APPID
  5
173F
330
9
100
AcDbSymbolTableRecord
100
AcDbRegAppTableRecord
  2
ACAD_DSTYLE_DIMRADIAL_EXTENSION
 70
     0
  0
ENDTAB
  0
TABLE
  2
DIMSTYLE
  5
A
330
0
100
AcDbSymbolTable
 70
     1
100
AcDbDimStyleTable
  0
DIMSTYLE
105
2A
330
A
100
AcDbSymbolTableRecord
100
AcDbDimStyleTableRecord
  2
Standard
 70
     0
178
     0
340
11
  0
ENDTAB
  0
TABLE
  2
BLOCK_RECORD
  5
1
330
0
100
AcDbSymbolTable
 70
     0
  0
BLOCK_RECORD
  5
1D
330
1
100
AcDbSymbolTableRecord
100
AcDbBlockTableRecord
  2
*Model_Space
340
1E
  0
BLOCK_RECORD
  5
1B
330
1
100
AcDbSymbolTableRecord
100
AcDbBlockTableRecord
  2
*Paper_Space
340
1C
  0
ENDTAB
  0
ENDSEC
  0
SECTION
  2
BLOCKS
  0
BLOCK
  5
202
330
1D
100
AcDbEntity
  8
0
100
AcDbBlockBegin
  2
*Model_Space
 70
     0
 10
0.0
 20
0.0
 30
0.0
  3
*Model_Space
  1

  0
ENDBLK
  5
203
330
1D
100
AcDbEntity
  8
0
100
AcDbBlockEnd
  0
BLOCK
  5
204
330
1B
100
AcDbEntity
 67
     1
  8
0
100
AcDbBlockBegin
  2
*Paper_Space
 70
     0
 10
0.0
 20
0.0
 30
0.0
  3
*Paper_Space
  1

  0
ENDBLK
  5
205
330
1B
100
AcDbEntity
 67
     1
  8
0
100
AcDbBlockEnd
  0
ENDSEC
  0
SECTION
  2
ENTITIES
  0
CIRCLE
  5
2C
102
{ACAD_REACTORS
330
10FD
102
}
330
1D
100
AcDbEntity
  8
23
  6
Continuous
 62
     7
100
AcDbCircle
 10
29.0
 20
21.00107000000002
 30
0.0
 40
5.05
  0
ARC
  5
2D
102
{ACAD_REACTORS
330
10FD
102
}
330
1D
100
AcDbEntity
  8
23
  6
Continuous
 62
     7
100
AcDbCircle
 10
10.05000000000001
 20
26.00107000000002
 30
0.0
 40
1.05
100
AcDbArc
 50
270.0
 51
90.0
  0
LINE
  5
2E
102
{ACAD_REACTORS
330
10FD
102
}
330
1D
100
AcDbEntity
  8
23
  6
Continuous
 62
     7
100
AcDbLine
 10
10.05000000000001
 20
24.95107
 30
0.0
 11
10.05000000000001
 21
17.05107
 31
0.0
  0
ARC
  5
2F
102
{ACAD_REACTORS
330
10FD
102
}
330
1D
100
AcDbEntity
  8
23
  6
Continuous
 62
     7
100
AcDbCircle
 10
10.05000000000001
 20
16.00107000000002
 30
0.0
 40
1.05
100
AcDbArc
 50
270.0
 51
90.0
  0
LINE
  5
30
102
{ACAD_REACTORS
330
10FD
102
}
330
1D
100
AcDbEntity
  8
23
  6
Continuous
 62
     7
100
AcDbLine
 10
10.05000000000001
 20
14.95107
 30
0.0
 11
7.449999999999989
 21
14.95107
 31
0.0
  0
ARC
  5
31
102
{ACAD_REACTORS
330
10FD
102
}
330
1D
100
AcDbEntity
  8
23
  6
Continuous
 62
     7
100
AcDbCircle
 10
7.449999999999989
 20
16.00107000000002
 30
0.0
 40
1.05
100
AcDbArc
 50
90.0
 51
270.0
  0
LINE
  5
32
102
{ACAD_REACTORS
330
10FD
102
}
330
1D
100
AcDbEntity
  8
23
  6
Continuous
 62
     7
100
AcDbLine
 10
7.449999999999989
 20
17.05107
 30
0.0
 11
7.449999999999989
 21
24.95107
 31
0.0
  0
ARC
  5
33
102
{ACAD_REACTORS
330
10FD
102
}
330
1D
100
AcDbEntity
  8
23
  6
Continuous
 62
     7
100
AcDbCircle
 10
7.449999999999989
 20
26.00107000000002
 30
0.0
 40
1.05
100
AcDbArc
 50
90.0
 51
270.0
  0
LINE
  5
34
102
{ACAD_REACTORS
330
10FD
102
}
330
1D
100
AcDbEntity
  8
23
  6
Continuous
 62
     7
100
AcDbLine
 10
7.449999999999989
 20
27.05107000000003
 30
0.0
 11
10.05000000000001
 21
27.05107000000003
 31
0.0
  0
CIRCLE
  5
35
102
{ACAD_REACTORS
330
10FD
102
}
330
1D
100
AcDbEntity
  8
23
  6
Continuous
 62
     7
100
AcDbCircle
 10
7.5
 20
8.001070000000016
 30
0.0
 40
1.55
  0
CIRCLE
  5
36
102
{ACAD_REACTORS
330
10FD
102
}
330
1D
100
AcDbEntity
  8
23
  6
Continuous
 62
     7
100
AcDbCircle
 10
7.5
 20
34.00107000000001
 30
0.0
 40
1.55
  0
CIRCLE
  5
37
102
{ACAD_REACTORS
330
10FD
102
}
330
1D
100
AcDbEntity
  8
23
  6
Continuous
 62
     7
100
AcDbCircle
 10
37.5
 20
21.00107000000002
 30
0.0
 40
1.35
  0
CIRCLE
  5
38
102
{ACAD_REACTORS
330
10FD
102
}
330
1D
100
AcDbEntity
  8
23
  6
Continuous
 62
     7
100
AcDbCircle
 10
29.0
 20
12.50107000000002
 30
0.0
 40
1.35
  0
CIRCLE
  5
39
102
{ACAD_REACTORS
330
10FD
102
}
330
1D
100
AcDbEntity
  8
23
  6
Continuous
 62
     7
100
AcDbCircle
 10
20.5
 20
21.00107000000002
 30
0.0
 40
1.35
  0
CIRCLE
  5
3A
102
{ACAD_REACTORS
330
10FD
102
}
330
1D
100
AcDbEntity
  8
23
  6
Continuous
 62
     7
100
AcDbCircle
 10
29.0
 20
29.50107000000002
 30
0.0
 40
1.35
  0
LINE
  5
3B
102
{ACAD_REACTORS
330
10FD
102
}
330
1D
100
AcDbEntity
  8
23
  6
Continuous
 62
     7
100
AcDbLine
 10
31.27014700000001
 20
32.27477500000002
 30
0.0
 11
7.799048000000028
 21
37.00107000000001
 31
0.0
  0
ARC
  5
3C
102
{ACAD_REACTORS
330
10FD
102
}
330
1D
100
AcDbEntity
  8
23
  6
Continuous
 62
     7
100
AcDbCircle
 10
29.0
 20
21.00107000000002
 30
0.0
 40
11.5
100
AcDbArc
 50
281.3851999999999
 51
78.61480000000005
  0
LINE
  5
3D
102
{ACAD_REACTORS
330
10FD
102
}
330
1D
100
AcDbEntity
  8
23
  6
Continuous
 62
     7
100
AcDbLine
 10
7.799048000000028
 20
5.001070000000016
 30
0.0
 11
31.27014700000001
 21
9.72736500000001
 31
0.0
  0
LINE
  5
3E
102
{ACAD_REACTORS
330
10FD
102
}
330
1D
100
AcDbEntity
  8
23
  6
Continuous
 62
     7
100
AcDbLine
 10
5.0
 20
5.001070000000016
 30
0.0
 11
7.799048000000028
 21
5.001070000000016
 31
0.0
  0
LINE
  5
3F
102
{ACAD_REACTORS
330
10FD
102
}
330
1D
100
AcDbEntity
  8
23
  6
Continuous
 62
     7
100
AcDbLine
 10
5.0
 20
37.00107000000001
 30
0.0
 11
5.0
 21
5.001070000000016
 31
0.0
  0
LINE
  5
40
102
{ACAD_REACTORS
330
10FD
102
}
330
1D
100
AcDbEntity
  8
23
  6
Continuous
 62
     7
100
AcDbLine
 10
7.799048000000028
 20
37.00107000000001
 30
0.0
 11
5.0
 21
37.00107000000001
 31
0.0
  0
CIRCLE
  5
41
102
{ACAD_REACTORS
330
10FE
102
}
330
1D
100
AcDbEntity
  8
23
  6
Continuous
 62
     7
100
AcDbCircle
 10
29.0
 20
55.10106999999998
 30
0.0
 40
5.05
  0
ARC
  5
42
102
{ACAD_REACTORS
330
10FE
102
}
330
1D
100
AcDbEntity
  8
23
  6
Continuous
 62
     7
100
AcDbCircle
 10
10.05000000000001
 20
50.10106999999998
 30
0.0
 40
1.05
100
AcDbArc
 50
270.0
 51
90.0
  0
LINE
  5
43
102
{ACAD_REACTORS
330
10FE
102
}
330
1D
100
AcDbEntity
  8
23
  6
Continuous
 62
     7
100
AcDbLine
 10
10.05000000000001
 20
51.15106999999999
 30
0.0
 11
10.05000000000001
 21
59.05107000000002
 31
0.0
  0
ARC
  5
44
102
{ACAD_REACTORS
330
10FE
102
}
330
1D
100
AcDbEntity
  8
23
  6
Continuous
 62
     7
100
AcDbCircle
 10
10.05000000000001
 20
60.10106999999998
 30
0.0
 40
1.05
100
AcDbArc
 50
270.0
 51
90.0
  0
LINE
  5
45
102
{ACAD_REACTORS
330
10FE
102
}
330
1D
100
AcDbEntity
  8
23
  6
Continuous
 62
     7
100
AcDbLine
 10
10.05000000000001
 20
61.15106999999999
 30
0.0
 11
7.449999999999989
 21
61.15106999999999
 31
0.0
  0
ARC
  5
46
102
{ACAD_REACTORS
330
10FE
102
}
330
1D
100
AcDbEntity
  8
23
  6
Continuous
 62
     7
100
AcDbCircle
 10
7.449999999999989
 20
60.10106999999998
 30
0.0
 40
1.05
100
AcDbArc
 50
90.0
 51
270.0
  0
LINE
  5
47
102
{ACAD_REACTORS
330
10FE
102
}
330
1D
100
AcDbEntity
  8
23
  6
Continuous
 62
     7
100
AcDbLine
 10
7.449999999999989
 20
59.05107000000002
 30
0.0
 11
7.449999999999989
 21
51.15106999999999
 31
0.0
  0
ARC
  5
48
102
{ACAD_REACTORS
330
10FE
102
}
330
1D
100
AcDbEntity
  8
23
  6
Continuous
 62
     7
100
AcDbCircle
 10
7.449999999999989
 20
50.10106999999998
 30
0.0
 40
1.05
100
AcDbArc
 50
90.0
 51
270.0
  0
LINE
  5
49
102
{ACAD_REACTORS
330
10FE
102
}
330
1D
100
AcDbEntity
  8
23
  6
Continuous
 62
     7
100
AcDbLine
 10
7.449999999999989
 20
49.05107000000002
 30
0.0
 11
10.05000000000001
 21
49.05107000000002
 31
0.0
  0
CIRCLE
  5
4A
102
{ACAD_REACTORS
330
10FE
102
}
330
1D
100
AcDbEntity
  8
23
  6
Continuous
 62
     7
100
AcDbCircle
 10
7.5
 20
68.10106999999998
 30
0.0
 40
1.55
  0
CIRCLE
  5
4B
102
{ACAD_REACTORS
330
10FE
102
}
330
1D
100
AcDbEntity
  8
23
  6
Continuous
 62
     7
100
AcDbCircle
 10
7.5
 20
42.10106999999998
 30
0.0
 40
1.55
  0
CIRCLE
  5
4C
102
{ACAD_REACTORS
330
10FE
102
}
330
1D
100
AcDbEntity
  8
23
  6
Continuous
 62
     7
100
AcDbCircle
 10
37.5
 20
55.10106999999998
 30
0.0
 40
1.35
  0
CIRCLE
  5
4D
102
{ACAD_REACTORS
330
10FE
102
}
330
1D
100
AcDbEntity
  8
23
  6
Continuous
 62
     7
100
AcDbCircle
 10
29.0
 20
63.60106999999998
 30
0.0
 40
1.35
  0
CIRCLE
  5
4E
102
{ACAD_REACTORS
330
10FE
102
}
330
1D
100
AcDbEntity
  8
23
  6
Continuous
 62
     7
100
AcDbCircle
 10
20.5
 20
55.10106999999998
 30
0.0
 40
1.35
  0
CIRCLE
  5
4F
102
{ACAD_REACTORS
330
10FE
102
}
330
1D
100
AcDbEntity
  8
23
  6
Continuous
 62
     7
100
AcDbCircle
 10
29.0
 20
46.60106999999998
 30
0.0
 40
1.35
  0
LINE
  5
50
102
{ACAD_REACTORS
330
10FE
102
}
330
1D
100
AcDbEntity
  8
23
  6
Continuous
 62
     7
100
AcDbLine
 10
31.27014700000001
 20
43.82736500000003
 30
0.0
 11
7.799048000000028
 21
39.10106999999998
 31
0.0
  0
ARC
  5
51
102
{ACAD_REACTORS
330
10FE
102
}
330
1D
100
AcDbEntity
  8
23
  6
Continuous
 62
     7
100
AcDbCircle
 10
29.0
 20
55.10106999999998
 30
0.0
 40
11.5
100
AcDbArc
 50
281.3851999999999
 51
78.61480000000007
  0
LINE
  5
52
102
{ACAD_REACTORS
330
10FE
102
}
330
1D
100
AcDbEntity
  8
23
  6
Continuous
 62
     7
100
AcDbLine
 10
7.799048000000028
 20
71.10106999999998
 30
0.0
 11
31.27014700000001
 21
66.37477499999999
 31
0.0
  0
LINE
  5
53
102
{ACAD_REACTORS
330
10FE
102
}
330
1D
100
AcDbEntity
  8
23
  6
Continuous
 62
     7
100
AcDbLine
 10
5.0
 20
71.10106999999998
 30
0.0
 11
7.799048000000028
 21
71.10106999999998
 31
0.0
  0
LINE
  5
54
102
{ACAD_REACTORS
330
10FE
102
}
330
1D
100
AcDbEntity
  8
23
  6
Continuous
 62
     7
100
AcDbLine
 10
5.0
 20
39.10106999999998
 30
0.0
 11
5.0
 21
71.10106999999998
 31
0.0
  0
LINE
  5
55
102
{ACAD_REACTORS
330
10FE
102
}
330
1D
100
AcDbEntity
  8
23
  6
Continuous
 62
     7
100
AcDbLine
 10
7.799048000000028
 20
39.10106999999998
 30
0.0
 11
5.0
 21
39.10106999999998
 31
0.0
  0
ARC
  5
56
102
{ACAD_REACTORS
330
10FF
102
}
330
1D
100
AcDbEntity
  8
23
  6
Continuous
 62
     7
100
AcDbCircle
 10
77.63018199999999
 20
24.05107000000003
 30
0.0
 40
1.05
100
AcDbArc
 50
270.0
 51
314.0848850000005
  0
ARC
  5
57
102
{ACAD_REACTORS
330
10FF
102
}
330
1D
100
AcDbEntity
  8
23
  6
Continuous
 62
     7
100
AcDbCircle
 10
80.30000000000001
 20
25.04543199999999
 30
0.0
 40
1.05
100
AcDbArc
 50
266.7703589999974
 51
0.0
  0
ARC
  5
58
102
{ACAD_REACTORS
330
10FF
102
}
330
1D
100
AcDbEntity
  8
23
  6
Continuous
 62
     7
100
AcDbCircle
 10
82.39999999999998
 20
34.16599699999999
 30
0.0
 40
1.05
100
AcDbArc
 50
129.9999999999984
 51
180.0
  0
ARC
  5
59
102
{ACAD_REACTORS
330
10FF
102
}
330
1D
100
AcDbEntity
  8
23
  6
Continuous
 62
     7
100
AcDbCircle
 10
82.5
 20
36.99126299999999
 30
0.0
 40
1.05
100
AcDbArc
 50
310.0000000000017
 51
0.0
  0
ARC
  5
5A
102
{ACAD_REACTORS
330
10FF
102
}
330
1D
100
AcDbEntity
  8
23
  6
Continuous
 62
     7
100
AcDbCircle
 10
77.63018199999999
 20
18.95107
 30
0.0
 40
1.05
100
AcDbArc
 50
45.91511499999734
 51
90.0
  0
ARC
  5
5B
102
{ACAD_REACTORS
330
10FF
102
}
330
1D
100
AcDbEntity
  8
23
  6
Continuous
 62
     7
100
AcDbCircle
 10
80.30000000000001
 20
17.95670800000001
 30
0.0
 40
1.05
100
AcDbArc
 50
0.0
 51
93.22964100000259
  0
ARC
  5
5C
102
{ACAD_REACTORS
330
10FF
102
}
330
1D
100
AcDbEntity
  8
23
  6
Continuous
 62
     7
100
AcDbCircle
 10
80.30000000000001
 20
14.05107
 30
0.0
 40
1.05
100
AcDbArc
 50
270.0
 51
0.0
  0
ARC
  5
5D
102
{ACAD_REACTORS
330
10FF
102
}
330
1D
100
AcDbEntity
  8
23
  6
Continuous
 62
     7
100
AcDbCircle
 10
52.89999999999998
 20
25.04543199999999
 30
0.0
 40
1.05
100
AcDbArc
 50
180.0
 51
273.2296409999995
  0
ARC
  5
5E
102
{ACAD_REACTORS
330
10FF
102
}
330
1D
100
AcDbEntity
  8
23
  6
Continuous
 62
     7
100
AcDbCircle
 10
55.569818
 20
24.05107000000003
 30
0.0
 40
1.05
100
AcDbArc
 50
225.9151150000012
 51
270.0
  0
ARC
  5
5F
102
{ACAD_REACTORS
330
10FF
102
}
330
1D
100
AcDbEntity
  8
23
  6
Continuous
 62
     7
100
AcDbCircle
 10
55.569818
 20
18.95107
 30
0.0
 40
1.05
100
AcDbArc
 50
90.0
 51
134.0848849999998
  0
ARC
  5
60
102
{ACAD_REACTORS
330
10FF
102
}
330
1D
100
AcDbEntity
  8
23
  6
Continuous
 62
     7
100
AcDbCircle
 10
52.89999999999998
 20
14.05107
 30
0.0
 40
1.05
100
AcDbArc
 50
180.0
 51
270.0
  0
ARC
  5
61
102
{ACAD_REACTORS
330
10FF
102
}
330
1D
100
AcDbEntity
  8
23
  6
Continuous
 62
     7
100
AcDbCircle
 10
52.89999999999998
 20
17.95670800000001
 30
0.0
 40
1.05
100
AcDbArc
 50
86.77035900000051
 51
180.0
  0
ARC
  5
62
102
{ACAD_REACTORS
330
10FF
102
}
330
1D
100
AcDbEntity
  8
23
  6
Continuous
 62
     7
100
AcDbCircle
 10
50.69999999999999
 20
36.99126299999999
 30
0.0
 40
1.05
100
AcDbArc
 50
180.0
 51
230.0000000000011
  0
ARC
  5
63
102
{ACAD_REACTORS
330
10FF
102
}
330
1D
100
AcDbEntity
  8
23
  6
Continuous
 62
     7
100
AcDbCircle
 10
50.80000000000001
 20
34.16599699999999
 30
0.0
 40
1.05
100
AcDbArc
 50
0.0
 51
50.00000000000162
  0
ARC
  5
64
102
{ACAD_REACTORS
330
10FF
102
}
330
1D
100
AcDbEntity
  8
23
  6
Continuous
 62
     7
100
AcDbCircle
 10
58.91185999999999
 20
52.05107000000002
 30
0.0
 40
1.05
100
AcDbArc
 50
270.0
 51
341.6503649999991
  0
ARC
  5
65
102
{ACAD_REACTORS
330
10FF
102
}
330
1D
100
AcDbEntity
  8
23
  6
Continuous
 62
     7
100
AcDbCircle
 10
74.28814
 20
52.05107000000002
 30
0.0
 40
1.05
100
AcDbArc
 50
198.3496350000009
 51
270.0
  0
ARC
  5
66
102
{ACAD_REACTORS
330
10FF
102
}
330
1D
100
AcDbEntity
  8
23
  6
Continuous
 62
     7
100
AcDbCircle
 10
73.30130600000001
 20
44.95107
 30
0.0
 40
1.05
100
AcDbArc
 50
90.0
 51
145.824588
  0
ARC
  5
67
102
{ACAD_REACTORS
330
10FF
102
}
330
1D
100
AcDbEntity
  8
23
  6
Continuous
 62
     7
100
AcDbCircle
 10
82.5
 20
44.95107
 30
0.0
 40
1.05
100
AcDbArc
 50
0.0
 51
90.0
  0
ARC
  5
68
102
{ACAD_REACTORS
330
10FF
102
}
330
1D
100
AcDbEntity
  8
23
  6
Continuous
 62
     7
100
AcDbCircle
 10
82.5
 20
52.05107000000002
 30
0.0
 40
1.05
100
AcDbArc
 50
270.0
 51
0.0
  0
ARC
  5
69
102
{ACAD_REACTORS
330
10FF
102
}
330
1D
100
AcDbEntity
  8
23
  6
Continuous
 62
     7
100
AcDbCircle
 10
82.5
 20
60.01087699999998
 30
0.0
 40
1.05
100
AcDbArc
 50
0.0
 51
49.99999999999859
  0
ARC
  5
6A
102
{ACAD_REACTORS
330
10FF
102
}
330
1D
100
AcDbEntity
  8
23
  6
Continuous
 62
     7
100
AcDbCircle
 10
79.59189200000003
 20
62.45107
 30
0.0
 40
1.05
100
AcDbArc
 50
50.00000000000162
 51
90.0
  0
ARC
  5
6B
102
{ACAD_REACTORS
330
10FF
102
}
330
1D
100
AcDbEntity
  8
23
  6
Continuous
 62
     7
100
AcDbCircle
 10
53.60810800000002
 20
62.45107
 30
0.0
 40
1.05
100
AcDbArc
 50
90.0
 51
130.0000000000009
  0
ARC
  5
6C
102
{ACAD_REACTORS
330
10FF
102
}
330
1D
100
AcDbEntity
  8
23
  6
Continuous
 62
     7
100
AcDbCircle
 10
50.69999999999999
 20
60.01087699999998
 30
0.0
 40
1.05
100
AcDbArc
 50
129.9999999999984
 51
180.0
  0
ARC
  5
6D
102
{ACAD_REACTORS
330
10FF
102
}
330
1D
100
AcDbEntity
  8
23
  6
Continuous
 62
     7
100
AcDbCircle
 10
50.69999999999999
 20
52.05107000000002
 30
0.0
 40
1.05
100
AcDbArc
 50
180.0
 51
270.0
  0
ARC
  5
6E
102
{ACAD_REACTORS
330
10FF
102
}
330
1D
100
AcDbEntity
  8
23
  6
Continuous
 62
     7
100
AcDbCircle
 10
59.89869399999998
 20
44.95107
 30
0.0
 40
1.05
100
AcDbArc
 50
34.17541199999979
 51
90.0
  0
ARC
  5
6F
102
{ACAD_REACTORS
330
10FF
102
}
330
1D
100
AcDbEntity
  8
23
  6
Continuous
 62
     7
100
AcDbCircle
 10
50.69999999999999
 20
44.95107
 30
0.0
 40
1.05
100
AcDbArc
 50
90.0
 51
180.0
  0
ARC
  5
70
102
{ACAD_REACTORS
330
10FF
102
}
330
1D
100
AcDbEntity
  8
23
  6
Continuous
 62
     7
100
AcDbCircle
 10
80.10000000000002
 20
21.50107000000002
 30
0.0
 40
2.5
100
AcDbArc
 50
86.77035900000034
 51
134.0848850000001
  0
LINE
  5
71
102
{ACAD_REACTORS
330
10FF
102
}
330
1D
100
AcDbEntity
  8
23
  6
Continuous
 62
     7
100
AcDbLine
 10
81.35000000000002
 20
34.16599699999999
 30
0.0
 11
81.35000000000002
 21
25.04543199999999
 31
0.0
  0
LINE
  5
72
102
{ACAD_REACTORS
330
10FF
102
}
330
1D
100
AcDbEntity
  8
23
  6
Continuous
 62
     7
100
AcDbLine
 10
83.55000000000001
 20
44.95107
 30
0.0
 11
83.55000000000001
 21
36.99126299999999
 31
0.0
  0
LINE
  5
73
102
{ACAD_REACTORS
330
10FF
102
}
330
1D
100
AcDbEntity
  8
23
  6
Continuous
 62
     7
100
AcDbLine
 10
55.569818
 20
20.00107000000002
 30
0.0
 11
77.63018199999999
 21
20.00107000000002
 31
0.0
  0
ARC
  5
74
102
{ACAD_REACTORS
330
10FF
102
}
330
1D
100
AcDbEntity
  8
23
  6
Continuous
 62
     7
100
AcDbCircle
 10
80.10000000000002
 20
21.50107000000002
 30
0.0
 40
2.5
100
AcDbArc
 50
225.9151149999998
 51
273.2296409999997
  0
LINE
  5
75
102
{ACAD_REACTORS
330
10FF
102
}
330
1D
100
AcDbEntity
  8
23
  6
Continuous
 62
     7
100
AcDbLine
 10
81.35000000000002
 20
17.95670800000001
 30
0.0
 11
81.35000000000002
 21
14.05107
 31
0.0
  0
ARC
  5
76
102
{ACAD_REACTORS
330
10FF
102
}
330
1D
100
AcDbEntity
  8
23
  6
Continuous
 62
     7
100
AcDbCircle
 10
53.10000000000002
 20
21.50107000000002
 30
0.0
 40
2.5
100
AcDbArc
 50
45.91511500000076
 51
93.22964100000097
  0
LINE
  5
77
102
{ACAD_REACTORS
330
10FF
102
}
330
1D
100
AcDbEntity
  8
23
  6
Continuous
 62
     7
100
AcDbLine
 10
77.63018199999999
 20
23.00107000000002
 30
0.0
 11
55.569818
 21
23.00107000000002
 31
0.0
  0
ARC
  5
78
102
{ACAD_REACTORS
330
10FF
102
}
330
1D
100
AcDbEntity
  8
23
  6
Continuous
 62
     7
100
AcDbCircle
 10
53.10000000000002
 20
21.50107000000002
 30
0.0
 40
2.5
100
AcDbArc
 50
266.770358999999
 51
314.0848849999988
  0
LINE
  5
79
102
{ACAD_REACTORS
330
10FF
102
}
330
1D
100
AcDbEntity
  8
23
  6
Continuous
 62
     7
100
AcDbLine
 10
80.30000000000001
 20
13.00107000000002
 30
0.0
 11
52.89999999999998
 21
13.00107000000002
 31
0.0
  0
LINE
  5
7A
102
{ACAD_REACTORS
330
10FF
102
}
330
1D
100
AcDbEntity
  8
23
  6
Continuous
 62
     7
100
AcDbLine
 10
51.85000000000002
 20
14.05107
 30
0.0
 11
51.85000000000002
 21
17.95670800000001
 31
0.0
  0
LINE
  5
7B
102
{ACAD_REACTORS
330
10FF
102
}
330
1D
100
AcDbEntity
  8
23
  6
Continuous
 62
     7
100
AcDbLine
 10
51.47492699999998
 20
34.970344
 30
0.0
 11
50.02507300000002
 21
36.18691599999998
 31
0.0
  0
LINE
  5
7C
102
{ACAD_REACTORS
330
10FF
102
}
330
1D
100
AcDbEntity
  8
23
  6
Continuous
 62
     7
100
AcDbLine
 10
51.85000000000002
 20
25.04543199999999
 30
0.0
 11
51.85000000000002
 21
34.16599699999999
 31
0.0
  0
ARC
  5
7D
102
{ACAD_REACTORS
330
10FF
102
}
330
1D
100
AcDbEntity
  8
23
  6
Continuous
 62
     7
100
AcDbCircle
 10
66.60000000000002
 20
49.50107000000001
 30
0.0
 40
7.05
100
AcDbArc
 50
18.34963500000019
 51
161.6503649999998
  0
LINE
  5
7E
102
{ACAD_REACTORS
330
10FF
102
}
330
1D
100
AcDbEntity
  8
23
  6
Continuous
 62
     7
100
AcDbLine
 10
82.5
 20
51.00107000000001
 30
0.0
 11
74.28814
 21
51.00107000000001
 31
0.0
  0
ARC
  5
7F
102
{ACAD_REACTORS
330
10FF
102
}
330
1D
100
AcDbEntity
  8
23
  6
Continuous
 62
     7
100
AcDbCircle
 10
66.60000000000002
 20
49.50107000000001
 30
0.0
 40
7.05
100
AcDbArc
 50
214.1754120000004
 51
325.8245879999995
  0
LINE
  5
80
102
{ACAD_REACTORS
330
10FF
102
}
330
1D
100
AcDbEntity
  8
23
  6
Continuous
 62
     7
100
AcDbLine
 10
73.30130600000001
 20
46.00107000000001
 30
0.0
 11
82.5
 21
46.00107000000001
 31
0.0
  0
LINE
  5
81
102
{ACAD_REACTORS
330
10FF
102
}
330
1D
100
AcDbEntity
  8
23
  6
Continuous
 62
     7
100
AcDbLine
 10
83.55000000000001
 20
60.01087699999998
 30
0.0
 11
83.55000000000001
 21
52.05107000000002
 31
0.0
  0
LINE
  5
82
102
{ACAD_REACTORS
330
10FF
102
}
330
1D
100
AcDbEntity
  8
23
  6
Continuous
 62
     7
100
AcDbLine
 10
80.266819
 20
63.25541700000001
 30
0.0
 11
83.17492700000003
 21
60.81522399999999
 31
0.0
  0
LINE
  5
83
102
{ACAD_REACTORS
330
10FF
102
}
330
1D
100
AcDbEntity
  8
23
  6
Continuous
 62
     7
100
AcDbLine
 10
53.60810800000002
 20
63.50107000000001
 30
0.0
 11
79.59189200000003
 21
63.50107000000001
 31
0.0
  0
LINE
  5
84
102
{ACAD_REACTORS
330
10FF
102
}
330
1D
100
AcDbEntity
  8
23
  6
Continuous
 62
     7
100
AcDbLine
 10
50.02507300000002
 20
60.81522399999999
 30
0.0
 11
52.93318099999999
 21
63.25541700000001
 31
0.0
  0
LINE
  5
85
102
{ACAD_REACTORS
330
10FF
102
}
330
1D
100
AcDbEntity
  8
23
  6
Continuous
 62
     7
100
AcDbLine
 10
49.64999999999998
 20
52.05107000000002
 30
0.0
 11
49.64999999999998
 21
60.01087699999998
 31
0.0
  0
LINE
  5
86
102
{ACAD_REACTORS
330
10FF
102
}
330
1D
100
AcDbEntity
  8
23
  6
Continuous
 62
     7
100
AcDbLine
 10
58.91185999999999
 20
51.00107000000001
 30
0.0
 11
50.69999999999999
 21
51.00107000000001
 31
0.0
  0
LINE
  5
87
102
{ACAD_REACTORS
330
10FF
102
}
330
1D
100
AcDbEntity
  8
23
  6
Continuous
 62
     7
100
AcDbLine
 10
50.69999999999999
 20
46.00107000000001
 30
0.0
 11
59.89869399999998
 21
46.00107000000001
 31
0.0
  0
LINE
  5
88
102
{ACAD_REACTORS
330
10FF
102
}
330
1D
100
AcDbEntity
  8
23
  6
Continuous
 62
     7
100
AcDbLine
 10
49.64999999999998
 20
36.99126299999999
 30
0.0
 11
49.64999999999998
 21
44.95107
 31
0.0
  0
LINE
  5
89
102
{ACAD_REACTORS
330
10FF
102
}
330
1D
100
AcDbEntity
  8
23
  6
Continuous
 62
     7
100
AcDbLine
 10
83.17492700000003
 20
36.18691599999998
 30
0.0
 11
81.72507300000001
 21
34.970344
 31
0.0
  0
LINE
  5
8A
102
{ACAD_REACTORS
330
10FF
102
}
330
1D
100
AcDbEntity
  8
23
  6
Continuous
 62
     7
100
AcDbLine
 10
74.55000000000001
 20
65.95107
 30
0.0
 11
58.64999999999998
 21
65.95107
 31
0.0
  0
LINE
  5
8B
102
{ACAD_REACTORS
330
10FF
102
}
330
1D
100
AcDbEntity
  8
23
  6
Continuous
 62
     7
100
AcDbLine
 10
76.64999999999998
 20
68.55107000000002
 30
0.0
 11
76.64999999999998
 21
65.95107
 31
0.0
  0
LINE
  5
8C
102
{ACAD_REACTORS
330
10FF
102
}
330
1D
100
AcDbEntity
  8
23
  6
Continuous
 62
     7
100
AcDbLine
 10
56.55000000000001
 20
65.95107
 30
0.0
 11
56.55000000000001
 21
68.55107000000002
 31
0.0
  0
LINE
  5
8D
102
{ACAD_REACTORS
330
10FF
102
}
330
1D
100
AcDbEntity
  8
23
  6
Continuous
 62
     7
100
AcDbLine
 10
58.64999999999998
 20
68.55107000000002
 30
0.0
 11
74.55000000000001
 21
68.55107000000002
 31
0.0
  0
ARC
  5
8E
102
{ACAD_REACTORS
330
10FF
102
}
330
1D
100
AcDbEntity
  8
23
  6
Continuous
 62
     7
100
AcDbCircle
 10
57.60000000000002
 20
65.95107
 30
0.0
 40
1.05
100
AcDbArc
 50
180.0
 51
0.0
  0
ARC
  5
8F
102
{ACAD_REACTORS
330
10FF
102
}
330
1D
100
AcDbEntity
  8
23
  6
Continuous
 62
     7
100
AcDbCircle
 10
57.60000000000002
 20
68.55107000000002
 30
0.0
 40
1.05
100
AcDbArc
 50
0.0
 51
180.0
  0
LINE
  5
90
102
{ACAD_REACTORS
330
10FF
102
}
330
1D
100
AcDbEntity
  8
23
  6
Continuous
 62
     7
100
AcDbLine
 10
74.55000000000001
 20
7.451070000000005
 30
0.0
 11
58.64999999999998
 21
7.451070000000005
 31
0.0
  0
LINE
  5
91
102
{ACAD_REACTORS
330
10FF
102
}
330
1D
100
AcDbEntity
  8
23
  6
Continuous
 62
     7
100
AcDbLine
 10
76.64999999999998
 20
10.05107
 30
0.0
 11
76.64999999999998
 21
7.451070000000005
 31
0.0
  0
LINE
  5
92
102
{ACAD_REACTORS
330
10FF
102
}
330
1D
100
AcDbEntity
  8
23
  6
Continuous
 62
     7
100
AcDbLine
 10
56.55000000000001
 20
7.451070000000005
 30
0.0
 11
56.55000000000001
 21
10.05107
 31
0.0
  0
LINE
  5
93
102
{ACAD_REACTORS
330
10FF
102
}
330
1D
100
AcDbEntity
  8
23
  6
Continuous
 62
     7
100
AcDbLine
 10
58.64999999999998
 20
10.05107
 30
0.0
 11
74.55000000000001
 21
10.05107
 31
0.0
  0
ARC
  5
94
102
{ACAD_REACTORS
330
10FF
102
}
330
1D
100
AcDbEntity
  8
23
  6
Continuous
 62
     7
100
AcDbCircle
 10
57.60000000000002
 20
7.451070000000005
 30
0.0
 40
1.05
100
AcDbArc
 50
180.0
 51
0.0
  0
ARC
  5
95
102
{ACAD_REACTORS
330
10FF
102
}
330
1D
100
AcDbEntity
  8
23
  6
Continuous
 62
     7
100
AcDbCircle
 10
57.60000000000002
 20
10.05107
 30
0.0
 40
1.05
100
AcDbArc
 50
0.0
 51
180.0
  0
CIRCLE
  5
96
102
{ACAD_REACTORS
330
10FF
102
}
330
1D
100
AcDbEntity
  8
23
  6
Continuous
 62
     7
100
AcDbCircle
 10
66.60000000000002
 20
49.50107000000001
 30
0.0
 40
5.05
  0
LINE
  5
97
102
{ACAD_REACTORS
330
10FF
102
}
330
1D
100
AcDbEntity
  8
23
  6
Continuous
 62
     7
100
AcDbLine
 10
86.5
 20
46.50107000000001
 30
0.0
 11
86.5
 21
52.50107000000001
 31
0.0
  0
LINE
  5
98
102
{ACAD_REACTORS
330
10FF
102
}
330
1D
100
AcDbEntity
  8
23
  6
Continuous
 62
     7
100
AcDbLine
 10
88.69999999999999
 20
52.50107000000001
 30
0.0
 11
88.69999999999999
 21
46.50107000000001
 31
0.0
  0
LINE
  5
99
102
{ACAD_REACTORS
330
10FF
102
}
330
1D
100
AcDbEntity
  8
23
  6
Continuous
 62
     7
100
AcDbLine
 10
88.69999999999999
 20
44.40106999999999
 30
0.0
 11
86.5
 21
44.40106999999999
 31
0.0
  0
LINE
  5
9A
102
{ACAD_REACTORS
330
10FF
102
}
330
1D
100
AcDbEntity
  8
23
  6
Continuous
 62
     7
100
AcDbLine
 10
86.5
 20
54.60106999999998
 30
0.0
 11
88.69999999999999
 21
54.60106999999998
 31
0.0
  0
ARC
  5
9B
102
{ACAD_REACTORS
330
10FF
102
}
330
1D
100
AcDbEntity
  8
23
  6
Continuous
 62
     7
100
AcDbCircle
 10
86.5
 20
45.45107
 30
0.0
 40
1.05
100
AcDbArc
 50
90.0
 51
270.0
  0
LINE
  5
9C
102
{ACAD_REACTORS
330
10FF
102
}
330
1D
100
AcDbEntity
  8
23
  6
Continuous
 62
     7
100
AcDbLine
 10
44.5
 20
46.50107000000001
 30
0.0
 11
44.5
 21
52.50107000000001
 31
0.0
  0
LINE
  5
9D
102
{ACAD_REACTORS
330
10FF
102
}
330
1D
100
AcDbEntity
  8
23
  6
Continuous
 62
     7
100
AcDbLine
 10
46.69999999999999
 20
52.50107000000001
 30
0.0
 11
46.69999999999999
 21
46.50107000000001
 31
0.0
  0
LINE
  5
9E
102
{ACAD_REACTORS
330
10FF
102
}
330
1D
100
AcDbEntity
  8
23
  6
Continuous
 62
     7
100
AcDbLine
 10
46.69999999999999
 20
44.40106999999999
 30
0.0
 11
44.5
 21
44.40106999999999
 31
0.0
  0
LINE
  5
9F
102
{ACAD_REACTORS
330
10FF
102
}
330
1D
100
AcDbEntity
  8
23
  6
Continuous
 62
     7
100
AcDbLine
 10
44.5
 20
54.60106999999998
 30
0.0
 11
46.69999999999999
 21
54.60106999999998
 31
0.0
  0
ARC
  5
A0
102
{ACAD_REACTORS
330
10FF
102
}
330
1D
100
AcDbEntity
  8
23
  6
Continuous
 62
     7
100
AcDbCircle
 10
44.5
 20
45.45107
 30
0.0
 40
1.05
100
AcDbArc
 50
90.0
 51
270.0
  0
CIRCLE
  5
A1
102
{ACAD_REACTORS
330
10FF
102
}
330
1D
100
AcDbEntity
  8
23
  6
Continuous
 62
     7
100
AcDbCircle
 10
80.10000000000002
 20
48.50107000000001
 30
0.0
 40
1.35
  0
CIRCLE
  5
A2
102
{ACAD_REACTORS
330
10FF
102
}
330
1D
100
AcDbEntity
  8
23
  6
Continuous
 62
     7
100
AcDbCircle
 10
80.10000000000002
 20
21.50107000000002
 30
0.0
 40
1.35
  0
CIRCLE
  5
A3
102
{ACAD_REACTORS
330
10FF
102
}
330
1D
100
AcDbEntity
  8
23
  6
Continuous
 62
     7
100
AcDbCircle
 10
53.10000000000002
 20
21.50107000000002
 30
0.0
 40
1.35
  0
CIRCLE
  5
A4
102
{ACAD_REACTORS
330
10FF
102
}
330
1D
100
AcDbEntity
  8
23
  6
Continuous
 62
     7
100
AcDbCircle
 10
53.10000000000002
 20
48.50107000000001
 30
0.0
 40
1.35
  0
CIRCLE
  5
A5
102
{ACAD_REACTORS
330
10FF
102
}
330
1D
100
AcDbEntity
  8
23
  6
Continuous
 62
     7
100
AcDbCircle
 10
81.60000000000002
 20
7.501070000000016
 30
0.0
 40
1.55
  0
CIRCLE
  5
A6
102
{ACAD_REACTORS
330
10FF
102
}
330
1D
100
AcDbEntity
  8
23
  6
Continuous
 62
     7
100
AcDbCircle
 10
51.60000000000002
 20
7.501070000000016
 30
0.0
 40
1.55
  0
CIRCLE
  5
A7
102
{ACAD_REACTORS
330
10FF
102
}
330
1D
100
AcDbEntity
  8
23
  6
Continuous
 62
     7
100
AcDbCircle
 10
81.60000000000002
 20
66.00107000000001
 30
0.0
 40
1.55
  0
CIRCLE
  5
A8
102
{ACAD_REACTORS
330
10FF
102
}
330
1D
100
AcDbEntity
  8
23
  6
Continuous
 62
     7
100
AcDbCircle
 10
51.60000000000002
 20
66.00107000000001
 30
0.0
 40
1.55
  0
ARC
  5
A9
102
{ACAD_REACTORS
330
10FF
102
}
330
1D
100
AcDbEntity
  8
23
  6
Continuous
 62
     7
100
AcDbCircle
 10
75.60000000000002
 20
7.451070000000005
 30
0.0
 40
1.05
100
AcDbArc
 50
180.0
 51
0.0
  0
ARC
  5
AA
102
{ACAD_REACTORS
330
10FF
102
}
330
1D
100
AcDbEntity
  8
23
  6
Continuous
 62
     7
100
AcDbCircle
 10
75.60000000000002
 20
10.05107
 30
0.0
 40
1.05
100
AcDbArc
 50
0.0
 51
180.0
  0
ARC
  5
AB
102
{ACAD_REACTORS
330
10FF
102
}
330
1D
100
AcDbEntity
  8
23
  6
Continuous
 62
     7
100
AcDbCircle
 10
75.60000000000002
 20
65.95107
 30
0.0
 40
1.05
100
AcDbArc
 50
180.0
 51
0.0
  0
ARC
  5
AC
102
{ACAD_REACTORS
330
10FF
102
}
330
1D
100
AcDbEntity
  8
23
  6
Continuous
 62
     7
100
AcDbCircle
 10
75.60000000000002
 20
68.55107000000002
 30
0.0
 40
1.05
100
AcDbArc
 50
0.0
 51
180.0
  0
ARC
  5
AD
102
{ACAD_REACTORS
330
10FF
102
}
330
1D
100
AcDbEntity
  8
23
  6
Continuous
 62
     7
100
AcDbCircle
 10
88.69999999999999
 20
45.45107
 30
0.0
 40
1.05
100
AcDbArc
 50
270.0
 51
90.0
  0
ARC
  5
AE
102
{ACAD_REACTORS
330
10FF
102
}
330
1D
100
AcDbEntity
  8
23
  6
Continuous
 62
     7
100
AcDbCircle
 10
88.69999999999999
 20
53.55107000000002
 30
0.0
 40
1.05
100
AcDbArc
 50
270.0
 51
90.0
  0
ARC
  5
AF
102
{ACAD_REACTORS
330
10FF
102
}
330
1D
100
AcDbEntity
  8
23
  6
Continuous
 62
     7
100
AcDbCircle
 10
86.5
 20
53.55107000000002
 30
0.0
 40
1.05
100
AcDbArc
 50
90.0
 51
270.0
  0
ARC
  5
B0
102
{ACAD_REACTORS
330
10FF
102
}
330
1D
100
AcDbEntity
  8
23
  6
Continuous
 62
     7
100
AcDbCircle
 10
46.69999999999999
 20
45.45107
 30
0.0
 40
1.05
100
AcDbArc
 50
270.0
 51
90.0
  0
ARC
  5
B1
102
{ACAD_REACTORS
330
10FF
102
}
330
1D
100
AcDbEntity
  8
23
  6
Continuous
 62
     7
100
AcDbCircle
 10
46.69999999999999
 20
53.55107000000002
 30
0.0
 40
1.05
100
AcDbArc
 50
270.0
 51
90.0
  0
ARC
  5
B2
102
{ACAD_REACTORS
330
10FF
102
}
330
1D
100
AcDbEntity
  8
23
  6
Continuous
 62
     7
100
AcDbCircle
 10
44.5
 20
53.55107000000002
 30
0.0
 40
1.05
100
AcDbArc
 50
90.0
 51
270.0
  0
LINE
  5
B3
102
{ACAD_REACTORS
330
10FF
102
}
330
1D
100
AcDbEntity
  8
23
  6
Continuous
 62
     7
100
AcDbLine
 10
56.60000000000002
 20
71.50107000000001
 30
0.0
 11
48.85000000000002
 21
67.71904199999999
 31
0.0
  0
LINE
  5
B4
102
{ACAD_REACTORS
330
10FF
102
}
330
1D
100
AcDbEntity
  8
23
  6
Continuous
 62
     7
100
AcDbLine
 10
76.60000000000002
 20
71.50107000000001
 30
0.0
 11
56.60000000000002
 21
71.50107000000001
 31
0.0
  0
LINE
  5
B5
102
{ACAD_REACTORS
330
10FF
102
}
330
1D
100
AcDbEntity
  8
23
  6
Continuous
 62
     7
100
AcDbLine
 10
84.35000000000002
 20
67.71904199999999
 30
0.0
 11
76.60000000000002
 21
71.50107000000001
 31
0.0
  0
LINE
  5
B6
102
{ACAD_REACTORS
330
10FF
102
}
330
1D
100
AcDbEntity
  8
23
  6
Continuous
 62
     7
100
AcDbLine
 10
84.35000000000002
 20
63.74544300000001
 30
0.0
 11
84.35000000000002
 21
67.71904199999999
 31
0.0
  0
LINE
  5
B7
102
{ACAD_REACTORS
330
10FF
102
}
330
1D
100
AcDbEntity
  8
23
  6
Continuous
 62
     7
100
AcDbLine
 10
90.60000000000002
 20
58.50107000000001
 30
0.0
 11
84.35000000000002
 21
63.74544300000001
 31
0.0
  0
LINE
  5
B8
102
{ACAD_REACTORS
330
10FF
102
}
330
1D
100
AcDbEntity
  8
23
  6
Continuous
 62
     7
100
AcDbLine
 10
90.60000000000002
 20
38.50107000000001
 30
0.0
 11
90.60000000000002
 21
58.50107000000001
 31
0.0
  0
LINE
  5
B9
102
{ACAD_REACTORS
330
10FF
102
}
330
1D
100
AcDbEntity
  8
23
  6
Continuous
 62
     7
100
AcDbLine
 10
84.35000000000002
 20
33.25669700000002
 30
0.0
 11
90.60000000000002
 21
38.50107000000001
 31
0.0
  0
LINE
  5
BA
102
{ACAD_REACTORS
330
10FF
102
}
330
1D
100
AcDbEntity
  8
23
  6
Continuous
 62
     7
100
AcDbLine
 10
84.35000000000002
 20
5.001070000000016
 30
0.0
 11
84.35000000000002
 21
33.25669700000002
 31
0.0
  0
LINE
  5
BB
102
{ACAD_REACTORS
330
10FF
102
}
330
1D
100
AcDbEntity
  8
23
  6
Continuous
 62
     7
100
AcDbLine
 10
48.85000000000002
 20
5.001070000000016
 30
0.0
 11
84.35000000000002
 21
5.001070000000016
 31
0.0
  0
LINE
  5
BC
102
{ACAD_REACTORS
330
10FF
102
}
330
1D
100
AcDbEntity
  8
23
  6
Continuous
 62
     7
100
AcDbLine
 10
48.85000000000002
 20
33.25669700000002
 30
0.0
 11
48.85000000000002
 21
5.001070000000016
 31
0.0
  0
LINE
  5
BD
102
{ACAD_REACTORS
330
10FF
102
}
330
1D
100
AcDbEntity
  8
23
  6
Continuous
 62
     7
100
AcDbLine
 10
42.60000000000002
 20
38.50107000000001
 30
0.0
 11
48.85000000000002
 21
33.25669700000002
 31
0.0
  0
LINE
  5
BE
102
{ACAD_REACTORS
330
10FF
102
}
330
1D
100
AcDbEntity
  8
23
  6
Continuous
 62
     7
100
AcDbLine
 10
42.60000000000002
 20
58.50107000000001
 30
0.0
 11
42.60000000000002
 21
38.50107000000001
 31
0.0
  0
LINE
  5
BF
102
{ACAD_REACTORS
330
10FF
102
}
330
1D
100
AcDbEntity
  8
23
  6
Continuous
 62
     7
100
AcDbLine
 10
48.85000000000002
 20
63.74544300000001
 30
0.0
 11
42.60000000000002
 21
58.50107000000001
 31
0.0
  0
LINE
  5
C0
102
{ACAD_REACTORS
330
10FF
102
}
330
1D
100
AcDbEntity
  8
23
  6
Continuous
 62
     7
100
AcDbLine
 10
48.85000000000002
 20
67.71904199999999
 30
0.0
 11
48.85000000000002
 21
63.74544300000001
 31
0.0
  0
ARC
  5
103
102
{ACAD_REACTORS
330
1100
102
}
330
1D
100
AcDbEntity
  8
23
  6
Continuous
 62
     7
100
AcDbCircle
 10
132.45
 20
7.001070000000016
 30
0.0
 40
2.0
100
AcDbArc
 50
270.0
 51
0.0
  0
ARC
  5
104
102
{ACAD_REACTORS
330
1100
102
}
330
1D
100
AcDbEntity
  8
23
  6
Continuous
 62
     7
100
AcDbCircle
 10
100.95
 20
7.001070000000016
 30
0.0
 40
2.0
100
AcDbArc
 50
180.0
 51
270.0
  0
ARC
  5
105
102
{ACAD_REACTORS
330
1100
102
}
330
1D
100
AcDbEntity
  8
23
  6
Continuous
 62
     7
100
AcDbCircle
 10
94.69999999999999
 20
39.43368500000001
 30
0.0
 40
2.0
100
AcDbArc
 50
180.0
 51
229.9999999999996
  0
ARC
  5
106
102
{ACAD_REACTORS
330
1100
102
}
330
1D
100
AcDbEntity
  8
23
  6
Continuous
 62
     7
100
AcDbCircle
 10
96.94999999999999
 20
32.32408200000002
 30
0.0
 40
2.0
100
AcDbArc
 50
0.0
 51
49.99999999999986
  0
ARC
  5
107
102
{ACAD_REACTORS
330
1100
102
}
330
1D
100
AcDbEntity
  8
23
  6
Continuous
 62
     7
100
AcDbCircle
 10
136.45
 20
32.32408200000002
 30
0.0
 40
2.0
100
AcDbArc
 50
130.0000000000039
 51
180.0
  0
ARC
  5
108
102
{ACAD_REACTORS
330
1100
102
}
330
1D
100
AcDbEntity
  8
23
  6
Continuous
 62
     7
100
AcDbCircle
 10
138.7
 20
39.43368500000001
 30
0.0
 40
2.0
100
AcDbArc
 50
309.9999999999966
 51
0.0
  0
ARC
  5
109
102
{ACAD_REACTORS
330
1100
102
}
330
1D
100
AcDbEntity
  8
23
  6
Continuous
 62
     7
100
AcDbCircle
 10
138.7
 20
57.56845500000001
 30
0.0
 40
2.0
100
AcDbArc
 50
0.0
 51
50.00000000000348
  0
ARC
  5
10A
102
{ACAD_REACTORS
330
1100
102
}
330
1D
100
AcDbEntity
  8
23
  6
Continuous
 62
     7
100
AcDbCircle
 10
136.45
 20
64.67805800000001
 30
0.0
 40
2.0
100
AcDbArc
 50
180.0
 51
229.999999999996
  0
ARC
  5
10B
102
{ACAD_REACTORS
330
1100
102
}
330
1D
100
AcDbEntity
  8
23
  6
Continuous
 62
     7
100
AcDbCircle
 10
132.45
 20
66.46960799999998
 30
0.0
 40
2.0
100
AcDbArc
 50
0.0
 51
63.98745800000252
  0
ARC
  5
10C
102
{ACAD_REACTORS
330
1100
102
}
330
1D
100
AcDbEntity
  8
23
  6
Continuous
 62
     7
100
AcDbCircle
 10
126.238033
 20
69.50107000000001
 30
0.0
 40
2.0
100
AcDbArc
 50
63.98745799999887
 51
90.0
  0
ARC
  5
10D
102
{ACAD_REACTORS
330
1100
102
}
330
1D
100
AcDbEntity
  8
23
  6
Continuous
 62
     7
100
AcDbCircle
 10
107.161967
 20
69.50107000000001
 30
0.0
 40
2.0
100
AcDbArc
 50
90.0
 51
116.0125419999993
  0
ARC
  5
10E
102
{ACAD_REACTORS
330
1100
102
}
330
1D
100
AcDbEntity
  8
23
  6
Continuous
 62
     7
100
AcDbCircle
 10
100.95
 20
66.46960799999998
 30
0.0
 40
2.0
100
AcDbArc
 50
116.0125419999993
 51
180.0
  0
ARC
  5
10F
102
{ACAD_REACTORS
330
1100
102
}
330
1D
100
AcDbEntity
  8
23
  6
Continuous
 62
     7
100
AcDbCircle
 10
96.94999999999999
 20
64.67805800000001
 30
0.0
 40
2.0
100
AcDbArc
 50
310.0000000000003
 51
0.0
  0
ARC
  5
110
102
{ACAD_REACTORS
330
1100
102
}
330
1D
100
AcDbEntity
  8
23
  6
Continuous
 62
     7
100
AcDbCircle
 10
94.69999999999999
 20
57.56845500000001
 30
0.0
 40
2.0
100
AcDbArc
 50
130.0000000000003
 51
180.0
  0
ARC
  5
111
102
{ACAD_REACTORS
330
1100
102
}
330
1D
100
AcDbEntity
  8
23
  6
Continuous
 62
     7
100
AcDbCircle
 10
132.45
 20
34.18931300000001
 30
0.0
 40
2.0
100
AcDbArc
 50
130.0000000000039
 51
180.0
  0
ARC
  5
112
102
{ACAD_REACTORS
330
1100
102
}
330
1D
100
AcDbEntity
  8
23
  6
Continuous
 62
     7
100
AcDbCircle
 10
128.45
 20
25.64685100000002
 30
0.0
 40
2.0
100
AcDbArc
 50
292.8853799999989
 51
0.0
  0
ARC
  5
113
102
{ACAD_REACTORS
330
1100
102
}
330
1D
100
AcDbEntity
  8
23
  6
Continuous
 62
     7
100
AcDbCircle
 10
127.371573
 20
25.00107000000002
 30
0.0
 40
2.0
100
AcDbArc
 50
270.0
 51
308.9424409999987
  0
ARC
  5
114
102
{ACAD_REACTORS
330
1100
102
}
330
1D
100
AcDbEntity
  8
23
  6
Continuous
 62
     7
100
AcDbCircle
 10
106.028427
 20
25.00107000000002
 30
0.0
 40
2.0
100
AcDbArc
 50
231.0575590000014
 51
270.0
  0
ARC
  5
115
102
{ACAD_REACTORS
330
1100
102
}
330
1D
100
AcDbEntity
  8
23
  6
Continuous
 62
     7
100
AcDbCircle
 10
104.95
 20
25.64685100000002
 30
0.0
 40
2.0
100
AcDbArc
 50
180.0
 51
247.1146200000006
  0
ARC
  5
116
102
{ACAD_REACTORS
330
1100
102
}
330
1D
100
AcDbEntity
  8
23
  6
Continuous
 62
     7
100
AcDbCircle
 10
100.95
 20
34.18931300000001
 30
0.0
 40
2.0
100
AcDbArc
 50
0.0
 51
49.99999999999972
  0
ARC
  5
117
102
{ACAD_REACTORS
330
1100
102
}
330
1D
100
AcDbEntity
  8
23
  6
Continuous
 62
     7
100
AcDbCircle
 10
102.75
 20
37.90056199999997
 30
0.0
 40
2.0
100
AcDbArc
 50
180.0
 51
229.9999999999996
  0
ARC
  5
118
102
{ACAD_REACTORS
330
1100
102
}
330
1D
100
AcDbEntity
  8
23
  6
Continuous
 62
     7
100
AcDbCircle
 10
102.75
 20
43.98767700000001
 30
0.0
 40
2.0
100
AcDbArc
 50
21.56518499999952
 51
180.0
  0
ARC
  5
119
102
{ACAD_REACTORS
330
1100
102
}
330
1D
100
AcDbEntity
  8
23
  6
Continuous
 62
     7
100
AcDbCircle
 10
130.65
 20
43.98767700000001
 30
0.0
 40
2.0
100
AcDbArc
 50
0.0
 51
158.4348150000006
  0
ARC
  5
11A
102
{ACAD_REACTORS
330
1100
102
}
330
1D
100
AcDbEntity
  8
23
  6
Continuous
 62
     7
100
AcDbCircle
 10
130.65
 20
37.90056199999997
 30
0.0
 40
2.0
100
AcDbArc
 50
309.9999999999999
 51
0.0
  0
ARC
  5
11B
102
{ACAD_REACTORS
330
1100
102
}
330
1D
100
AcDbEntity
  8
23
  6
Continuous
 62
     7
100
AcDbCircle
 10
104.95
 20
16.00107000000002
 30
0.0
 40
2.0
100
AcDbArc
 50
180.0
 51
270.0
  0
ARC
  5
11C
102
{ACAD_REACTORS
330
1100
102
}
330
1D
100
AcDbEntity
  8
23
  6
Continuous
 62
     7
100
AcDbCircle
 10
104.95
 20
17.35528900000002
 30
0.0
 40
2.0
100
AcDbArc
 50
112.8853799999989
 51
180.0
  0
ARC
  5
11D
102
{ACAD_REACTORS
330
1100
102
}
330
1D
100
AcDbEntity
  8
23
  6
Continuous
 62
     7
100
AcDbCircle
 10
106.028427
 20
18.00107000000002
 30
0.0
 40
2.0
100
AcDbArc
 50
90.0
 51
128.9424409999991
  0
ARC
  5
11E
102
{ACAD_REACTORS
330
1100
102
}
330
1D
100
AcDbEntity
  8
23
  6
Continuous
 62
     7
100
AcDbCircle
 10
127.371573
 20
18.00107000000002
 30
0.0
 40
2.0
100
AcDbArc
 50
51.05755900000129
 51
90.0
  0
ARC
  5
11F
102
{ACAD_REACTORS
330
1100
102
}
330
1D
100
AcDbEntity
  8
23
  6
Continuous
 62
     7
100
AcDbCircle
 10
128.45
 20
17.35528900000002
 30
0.0
 40
2.0
100
AcDbArc
 50
0.0
 51
67.11462000000108
  0
ARC
  5
120
102
{ACAD_REACTORS
330
1100
102
}
330
1D
100
AcDbEntity
  8
23
  6
Continuous
 62
     7
100
AcDbCircle
 10
128.45
 20
16.00107000000002
 30
0.0
 40
2.0
100
AcDbArc
 50
270.0
 51
0.0
  0
ARC
  5
121
102
{ACAD_REACTORS
330
1100
102
}
330
1D
100
AcDbEntity
  8
23
  6
Continuous
 62
     7
100
AcDbCircle
 10
102.75
 20
55.01446300000002
 30
0.0
 40
2.0
100
AcDbArc
 50
180.0
 51
338.4348149999992
  0
ARC
  5
122
102
{ACAD_REACTORS
330
1100
102
}
330
1D
100
AcDbEntity
  8
23
  6
Continuous
 62
     7
100
AcDbCircle
 10
102.75
 20
60.00107000000001
 30
0.0
 40
2.0
100
AcDbArc
 50
90.0
 51
180.0
  0
ARC
  5
123
102
{ACAD_REACTORS
330
1100
102
}
330
1D
100
AcDbEntity
  8
23
  6
Continuous
 62
     7
100
AcDbCircle
 10
105.987857
 20
60.00107000000001
 30
0.0
 40
2.0
100
AcDbArc
 50
315.5729959999994
 51
90.0
  0
ARC
  5
124
102
{ACAD_REACTORS
330
1100
102
}
330
1D
100
AcDbEntity
  8
23
  6
Continuous
 62
     7
100
AcDbCircle
 10
130.65
 20
55.01446300000002
 30
0.0
 40
2.0
100
AcDbArc
 50
201.5651850000008
 51
0.0
  0
ARC
  5
125
102
{ACAD_REACTORS
330
1100
102
}
330
1D
100
AcDbEntity
  8
23
  6
Continuous
 62
     7
100
AcDbCircle
 10
127.412143
 20
60.00107000000001
 30
0.0
 40
2.0
100
AcDbArc
 50
90.0
 51
224.4270039999994
  0
ARC
  5
126
102
{ACAD_REACTORS
330
1100
102
}
330
1D
100
AcDbEntity
  8
23
  6
Continuous
 62
     7
100
AcDbCircle
 10
130.65
 20
60.00107000000001
 30
0.0
 40
2.0
100
AcDbArc
 50
0.0
 51
90.0
  0
LINE
  5
127
102
{ACAD_REACTORS
330
1100
102
}
330
1D
100
AcDbEntity
  8
23
  6
Continuous
 62
     7
100
AcDbLine
 10
100.95
 20
5.001070000000016
 30
0.0
 11
132.45
 21
5.001070000000016
 31
0.0
  0
LINE
  5
128
102
{ACAD_REACTORS
330
1100
102
}
330
1D
100
AcDbEntity
  8
23
  6
Continuous
 62
     7
100
AcDbLine
 10
93.414425
 20
37.90159599999997
 30
0.0
 11
98.23557499999998
 21
33.856171
 31
0.0
  0
LINE
  5
129
102
{ACAD_REACTORS
330
1100
102
}
330
1D
100
AcDbEntity
  8
23
  6
Continuous
 62
     7
100
AcDbLine
 10
98.94999999999999
 20
32.32408200000002
 30
0.0
 11
98.94999999999999
 21
7.001070000000016
 31
0.0
  0
LINE
  5
12A
102
{ACAD_REACTORS
330
1100
102
}
330
1D
100
AcDbEntity
  8
23
  6
Continuous
 62
     7
100
AcDbLine
 10
135.1644249999999
 20
33.856171
 30
0.0
 11
139.985575
 21
37.90159599999997
 31
0.0
  0
LINE
  5
12B
102
{ACAD_REACTORS
330
1100
102
}
330
1D
100
AcDbEntity
  8
23
  6
Continuous
 62
     7
100
AcDbLine
 10
134.45
 20
7.001070000000016
 30
0.0
 11
134.45
 21
32.32408200000002
 31
0.0
  0
LINE
  5
12C
102
{ACAD_REACTORS
330
1100
102
}
330
1D
100
AcDbEntity
  8
23
  6
Continuous
 62
     7
100
AcDbLine
 10
140.7
 20
39.43368500000001
 30
0.0
 11
140.7
 21
57.56845500000001
 31
0.0
  0
LINE
  5
12D
102
{ACAD_REACTORS
330
1100
102
}
330
1D
100
AcDbEntity
  8
23
  6
Continuous
 62
     7
100
AcDbLine
 10
139.985575
 20
59.100544
 30
0.0
 11
135.1644249999999
 21
63.14596899999997
 31
0.0
  0
LINE
  5
12E
102
{ACAD_REACTORS
330
1100
102
}
330
1D
100
AcDbEntity
  8
23
  6
Continuous
 62
     7
100
AcDbLine
 10
134.45
 20
64.67805800000001
 30
0.0
 11
134.45
 21
66.46960799999998
 31
0.0
  0
LINE
  5
12F
102
{ACAD_REACTORS
330
1100
102
}
330
1D
100
AcDbEntity
  8
23
  6
Continuous
 62
     7
100
AcDbLine
 10
133.327136
 20
68.26700399999997
 30
0.0
 11
127.115169
 21
71.298466
 31
0.0
  0
LINE
  5
130
102
{ACAD_REACTORS
330
1100
102
}
330
1D
100
AcDbEntity
  8
23
  6
Continuous
 62
     7
100
AcDbLine
 10
126.238033
 20
71.50107000000001
 30
0.0
 11
107.161967
 21
71.50107000000001
 31
0.0
  0
LINE
  5
131
102
{ACAD_REACTORS
330
1100
102
}
330
1D
100
AcDbEntity
  8
23
  6
Continuous
 62
     7
100
AcDbLine
 10
106.284831
 20
71.298466
 30
0.0
 11
100.072864
 21
68.26700399999997
 31
0.0
  0
LINE
  5
132
102
{ACAD_REACTORS
330
1100
102
}
330
1D
100
AcDbEntity
  8
23
  6
Continuous
 62
     7
100
AcDbLine
 10
98.94999999999999
 20
66.46960799999998
 30
0.0
 11
98.94999999999999
 21
64.67805800000001
 31
0.0
  0
LINE
  5
133
102
{ACAD_REACTORS
330
1100
102
}
330
1D
100
AcDbEntity
  8
23
  6
Continuous
 62
     7
100
AcDbLine
 10
98.23557499999998
 20
63.14596899999997
 30
0.0
 11
93.414425
 21
59.100544
 31
0.0
  0
LINE
  5
134
102
{ACAD_REACTORS
330
1100
102
}
330
1D
100
AcDbEntity
  8
23
  6
Continuous
 62
     7
100
AcDbLine
 10
92.69999999999999
 20
57.56845500000001
 30
0.0
 11
92.69999999999999
 21
39.43368500000001
 31
0.0
  0
CIRCLE
  5
135
102
{ACAD_REACTORS
330
1100
102
}
330
1D
100
AcDbEntity
  8
23
  6
Continuous
 62
     7
100
AcDbCircle
 10
116.7
 20
49.50107000000001
 30
0.0
 40
11.0
  0
LINE
  5
136
102
{ACAD_REACTORS
330
1100
102
}
330
1D
100
AcDbEntity
  8
23
  6
Continuous
 62
     7
100
AcDbLine
 10
124.65
 20
65.95107
 30
0.0
 11
108.75
 21
65.95107
 31
0.0
  0
ARC
  5
137
102
{ACAD_REACTORS
330
1100
102
}
330
1D
100
AcDbEntity
  8
23
  6
Continuous
 62
     7
100
AcDbCircle
 10
107.7
 20
65.95107
 30
0.0
 40
1.05
100
AcDbArc
 50
180.0
 51
0.0
  0
LINE
  5
138
102
{ACAD_REACTORS
330
1100
102
}
330
1D
100
AcDbEntity
  8
23
  6
Continuous
 62
     7
100
AcDbLine
 10
106.65
 20
65.95107
 30
0.0
 11
106.65
 21
68.55107000000002
 31
0.0
  0
ARC
  5
139
102
{ACAD_REACTORS
330
1100
102
}
330
1D
100
AcDbEntity
  8
23
  6
Continuous
 62
     7
100
AcDbCircle
 10
107.7
 20
68.55107000000002
 30
0.0
 40
1.05
100
AcDbArc
 50
0.0
 51
180.0
  0
LINE
  5
13A
102
{ACAD_REACTORS
330
1100
102
}
330
1D
100
AcDbEntity
  8
23
  6
Continuous
 62
     7
100
AcDbLine
 10
108.75
 20
68.55107000000002
 30
0.0
 11
124.65
 21
68.55107000000002
 31
0.0
  0
ARC
  5
13B
102
{ACAD_REACTORS
330
1100
102
}
330
1D
100
AcDbEntity
  8
23
  6
Continuous
 62
     7
100
AcDbCircle
 10
125.7
 20
68.55107000000002
 30
0.0
 40
1.05
100
AcDbArc
 50
0.0
 51
180.0
  0
LINE
  5
13C
102
{ACAD_REACTORS
330
1100
102
}
330
1D
100
AcDbEntity
  8
23
  6
Continuous
 62
     7
100
AcDbLine
 10
126.75
 20
68.55107000000002
 30
0.0
 11
126.75
 21
65.95107
 31
0.0
  0
ARC
  5
13D
102
{ACAD_REACTORS
330
1100
102
}
330
1D
100
AcDbEntity
  8
23
  6
Continuous
 62
     7
100
AcDbCircle
 10
125.7
 20
65.95107
 30
0.0
 40
1.05
100
AcDbArc
 50
180.0
 51
0.0
  0
LINE
  5
13E
102
{ACAD_REACTORS
330
1100
102
}
330
1D
100
AcDbEntity
  8
23
  6
Continuous
 62
     7
100
AcDbLine
 10
124.65
 20
7.451070000000005
 30
0.0
 11
108.75
 21
7.451070000000005
 31
0.0
  0
ARC
  5
13F
102
{ACAD_REACTORS
330
1100
102
}
330
1D
100
AcDbEntity
  8
23
  6
Continuous
 62
     7
100
AcDbCircle
 10
107.7
 20
7.451070000000005
 30
0.0
 40
1.05
100
AcDbArc
 50
180.0
 51
0.0
  0
LINE
  5
140
102
{ACAD_REACTORS
330
1100
102
}
330
1D
100
AcDbEntity
  8
23
  6
Continuous
 62
     7
100
AcDbLine
 10
106.65
 20
7.451070000000005
 30
0.0
 11
106.65
 21
10.05107
 31
0.0
  0
ARC
  5
141
102
{ACAD_REACTORS
330
1100
102
}
330
1D
100
AcDbEntity
  8
23
  6
Continuous
 62
     7
100
AcDbCircle
 10
107.7
 20
10.05107
 30
0.0
 40
1.05
100
AcDbArc
 50
0.0
 51
180.0
  0
LINE
  5
142
102
{ACAD_REACTORS
330
1100
102
}
330
1D
100
AcDbEntity
  8
23
  6
Continuous
 62
     7
100
AcDbLine
 10
108.75
 20
10.05107
 30
0.0
 11
124.65
 21
10.05107
 31
0.0
  0
ARC
  5
143
102
{ACAD_REACTORS
330
1100
102
}
330
1D
100
AcDbEntity
  8
23
  6
Continuous
 62
     7
100
AcDbCircle
 10
125.7
 20
10.05107
 30
0.0
 40
1.05
100
AcDbArc
 50
0.0
 51
180.0
  0
LINE
  5
144
102
{ACAD_REACTORS
330
1100
102
}
330
1D
100
AcDbEntity
  8
23
  6
Continuous
 62
     7
100
AcDbLine
 10
126.75
 20
10.05107
 30
0.0
 11
126.75
 21
7.451070000000005
 31
0.0
  0
ARC
  5
145
102
{ACAD_REACTORS
330
1100
102
}
330
1D
100
AcDbEntity
  8
23
  6
Continuous
 62
     7
100
AcDbCircle
 10
125.7
 20
7.451070000000005
 30
0.0
 40
1.05
100
AcDbArc
 50
180.0
 51
0.0
  0
LINE
  5
146
102
{ACAD_REACTORS
330
1100
102
}
330
1D
100
AcDbEntity
  8
23
  6
Continuous
 62
     7
100
AcDbLine
 10
138.8
 20
44.40106999999999
 30
0.0
 11
136.6
 21
44.40106999999999
 31
0.0
  0
ARC
  5
147
102
{ACAD_REACTORS
330
1100
102
}
330
1D
100
AcDbEntity
  8
23
  6
Continuous
 62
     7
100
AcDbCircle
 10
136.6
 20
45.45107
 30
0.0
 40
1.05
100
AcDbArc
 50
90.0
 51
270.0
  0
LINE
  5
148
102
{ACAD_REACTORS
330
1100
102
}
330
1D
100
AcDbEntity
  8
23
  6
Continuous
 62
     7
100
AcDbLine
 10
136.6
 20
46.50107000000001
 30
0.0
 11
136.6
 21
52.50107000000001
 31
0.0
  0
ARC
  5
149
102
{ACAD_REACTORS
330
1100
102
}
330
1D
100
AcDbEntity
  8
23
  6
Continuous
 62
     7
100
AcDbCircle
 10
136.6
 20
53.55107000000002
 30
0.0
 40
1.05
100
AcDbArc
 50
90.0
 51
270.0
  0
LINE
  5
14A
102
{ACAD_REACTORS
330
1100
102
}
330
1D
100
AcDbEntity
  8
23
  6
Continuous
 62
     7
100
AcDbLine
 10
136.6
 20
54.60106999999998
 30
0.0
 11
138.8
 21
54.60106999999998
 31
0.0
  0
ARC
  5
14B
102
{ACAD_REACTORS
330
1100
102
}
330
1D
100
AcDbEntity
  8
23
  6
Continuous
 62
     7
100
AcDbCircle
 10
138.8
 20
53.55107000000002
 30
0.0
 40
1.05
100
AcDbArc
 50
270.0
 51
90.0
  0
LINE
  5
14C
102
{ACAD_REACTORS
330
1100
102
}
330
1D
100
AcDbEntity
  8
23
  6
Continuous
 62
     7
100
AcDbLine
 10
138.8
 20
52.50107000000001
 30
0.0
 11
138.8
 21
46.50107000000001
 31
0.0
  0
ARC
  5
14D
102
{ACAD_REACTORS
330
1100
102
}
330
1D
100
AcDbEntity
  8
23
  6
Continuous
 62
     7
100
AcDbCircle
 10
138.8
 20
45.45107
 30
0.0
 40
1.05
100
AcDbArc
 50
270.0
 51
90.0
  0
LINE
  5
14E
102
{ACAD_REACTORS
330
1100
102
}
330
1D
100
AcDbEntity
  8
23
  6
Continuous
 62
     7
100
AcDbLine
 10
96.80000000000001
 20
44.40106999999999
 30
0.0
 11
94.60000000000002
 21
44.40106999999999
 31
0.0
  0
ARC
  5
14F
102
{ACAD_REACTORS
330
1100
102
}
330
1D
100
AcDbEntity
  8
23
  6
Continuous
 62
     7
100
AcDbCircle
 10
94.60000000000002
 20
45.45107
 30
0.0
 40
1.05
100
AcDbArc
 50
90.0
 51
270.0
  0
LINE
  5
150
102
{ACAD_REACTORS
330
1100
102
}
330
1D
100
AcDbEntity
  8
23
  6
Continuous
 62
     7
100
AcDbLine
 10
94.60000000000002
 20
46.50107000000001
 30
0.0
 11
94.60000000000002
 21
52.50107000000001
 31
0.0
  0
ARC
  5
151
102
{ACAD_REACTORS
330
1100
102
}
330
1D
100
AcDbEntity
  8
23
  6
Continuous
 62
     7
100
AcDbCircle
 10
94.60000000000002
 20
53.55107000000002
 30
0.0
 40
1.05
100
AcDbArc
 50
90.0
 51
270.0
  0
LINE
  5
152
102
{ACAD_REACTORS
330
1100
102
}
330
1D
100
AcDbEntity
  8
23
  6
Continuous
 62
     7
100
AcDbLine
 10
94.60000000000002
 20
54.60106999999998
 30
0.0
 11
96.80000000000001
 21
54.60106999999998
 31
0.0
  0
ARC
  5
153
102
{ACAD_REACTORS
330
1100
102
}
330
1D
100
AcDbEntity
  8
23
  6
Continuous
 62
     7
100
AcDbCircle
 10
96.80000000000001
 20
53.55107000000002
 30
0.0
 40
1.05
100
AcDbArc
 50
270.0
 51
90.0
  0
LINE
  5
154
102
{ACAD_REACTORS
330
1100
102
}
330
1D
100
AcDbEntity
  8
23
  6
Continuous
 62
     7
100
AcDbLine
 10
96.80000000000001
 20
52.50107000000001
 30
0.0
 11
96.80000000000001
 21
46.50107000000001
 31
0.0
  0
ARC
  5
155
102
{ACAD_REACTORS
330
1100
102
}
330
1D
100
AcDbEntity
  8
23
  6
Continuous
 62
     7
100
AcDbCircle
 10
96.80000000000001
 20
45.45107
 30
0.0
 40
1.05
100
AcDbArc
 50
270.0
 51
90.0
  0
CIRCLE
  5
156
102
{ACAD_REACTORS
330
1100
102
}
330
1D
100
AcDbEntity
  8
23
  6
Continuous
 62
     7
100
AcDbCircle
 10
130.2
 20
48.50107000000001
 30
0.0
 40
1.35
  0
CIRCLE
  5
157
102
{ACAD_REACTORS
330
1100
102
}
330
1D
100
AcDbEntity
  8
23
  6
Continuous
 62
     7
100
AcDbCircle
 10
130.2
 20
21.50107000000002
 30
0.0
 40
1.35
  0
CIRCLE
  5
158
102
{ACAD_REACTORS
330
1100
102
}
330
1D
100
AcDbEntity
  8
23
  6
Continuous
 62
     7
100
AcDbCircle
 10
103.2
 20
21.50107000000002
 30
0.0
 40
1.35
  0
CIRCLE
  5
159
102
{ACAD_REACTORS
330
1100
102
}
330
1D
100
AcDbEntity
  8
23
  6
Continuous
 62
     7
100
AcDbCircle
 10
103.2
 20
48.50107000000001
 30
0.0
 40
1.35
  0
CIRCLE
  5
15A
102
{ACAD_REACTORS
330
1100
102
}
330
1D
100
AcDbEntity
  8
23
  6
Continuous
 62
     7
100
AcDbCircle
 10
131.7
 20
7.501070000000016
 30
0.0
 40
1.55
  0
CIRCLE
  5
15B
102
{ACAD_REACTORS
330
1100
102
}
330
1D
100
AcDbEntity
  8
23
  6
Continuous
 62
     7
100
AcDbCircle
 10
101.7
 20
7.501070000000016
 30
0.0
 40
1.55
  0
CIRCLE
  5
15C
102
{ACAD_REACTORS
330
1100
102
}
330
1D
100
AcDbEntity
  8
23
  6
Continuous
 62
     7
100
AcDbCircle
 10
131.7
 20
66.00107000000001
 30
0.0
 40
1.55
  0
CIRCLE
  5
15D
102
{ACAD_REACTORS
330
1100
102
}
330
1D
100
AcDbEntity
  8
23
  6
Continuous
 62
     7
100
AcDbCircle
 10
101.7
 20
66.00107000000001
 30
0.0
 40
1.55
  0
LINE
  5
15E
102
{ACAD_REACTORS
330
1100
102
}
330
1D
100
AcDbEntity
  8
23
  6
Continuous
 62
     7
100
AcDbLine
 10
130.45
 20
34.18931300000001
 30
0.0
 11
130.45
 21
25.64685100000002
 31
0.0
  0
ARC
  5
15F
102
{ACAD_REACTORS
330
1100
102
}
330
1D
100
AcDbEntity
  8
23
  6
Continuous
 62
     7
100
AcDbCircle
 10
130.2
 20
21.50107000000002
 30
0.0
 40
2.5
100
AcDbArc
 50
112.8853800000025
 51
128.9424410000004
  0
LINE
  5
160
102
{ACAD_REACTORS
330
1100
102
}
330
1D
100
AcDbEntity
  8
23
  6
Continuous
 62
     7
100
AcDbLine
 10
127.371573
 20
23.00107000000002
 30
0.0
 11
106.028427
 21
23.00107000000002
 31
0.0
  0
ARC
  5
161
102
{ACAD_REACTORS
330
1100
102
}
330
1D
100
AcDbEntity
  8
23
  6
Continuous
 62
     7
100
AcDbCircle
 10
103.2
 20
21.50107000000002
 30
0.0
 40
2.5
100
AcDbArc
 50
51.05755900000014
 51
67.11461999999858
  0
LINE
  5
162
102
{ACAD_REACTORS
330
1100
102
}
330
1D
100
AcDbEntity
  8
23
  6
Continuous
 62
     7
100
AcDbLine
 10
102.95
 20
25.64685100000002
 30
0.0
 11
102.95
 21
34.18931300000001
 31
0.0
  0
LINE
  5
163
102
{ACAD_REACTORS
330
1100
102
}
330
1D
100
AcDbEntity
  8
23
  6
Continuous
 62
     7
100
AcDbLine
 10
102.235575
 20
35.721402
 30
0.0
 11
101.464425
 21
36.36847399999998
 31
0.0
  0
LINE
  5
164
102
{ACAD_REACTORS
330
1100
102
}
330
1D
100
AcDbEntity
  8
23
  6
Continuous
 62
     7
100
AcDbLine
 10
100.75
 20
37.90056199999997
 30
0.0
 11
100.75
 21
43.98767700000001
 31
0.0
  0
ARC
  5
165
102
{ACAD_REACTORS
330
1100
102
}
330
1D
100
AcDbEntity
  8
23
  6
Continuous
 62
     7
100
AcDbCircle
 10
116.7
 20
49.50107000000001
 30
0.0
 40
13.0
100
AcDbArc
 50
201.5651849999999
 51
338.4348150000001
  0
LINE
  5
166
102
{ACAD_REACTORS
330
1100
102
}
330
1D
100
AcDbEntity
  8
23
  6
Continuous
 62
     7
100
AcDbLine
 10
132.65
 20
43.98767700000001
 30
0.0
 11
132.65
 21
37.90056199999997
 31
0.0
  0
LINE
  5
167
102
{ACAD_REACTORS
330
1100
102
}
330
1D
100
AcDbEntity
  8
23
  6
Continuous
 62
     7
100
AcDbLine
 10
131.935575
 20
36.36847399999998
 30
0.0
 11
131.1644249999999
 21
35.721402
 31
0.0
  0
LINE
  5
168
102
{ACAD_REACTORS
330
1100
102
}
330
1D
100
AcDbEntity
  8
23
  6
Continuous
 62
     7
100
AcDbLine
 10
128.45
 20
14.00107000000002
 30
0.0
 11
104.95
 21
14.00107000000002
 31
0.0
  0
LINE
  5
169
102
{ACAD_REACTORS
330
1100
102
}
330
1D
100
AcDbEntity
  8
23
  6
Continuous
 62
     7
100
AcDbLine
 10
102.95
 20
16.00107000000002
 30
0.0
 11
102.95
 21
17.35528900000002
 31
0.0
  0
ARC
  5
16A
102
{ACAD_REACTORS
330
1100
102
}
330
1D
100
AcDbEntity
  8
23
  6
Continuous
 62
     7
100
AcDbCircle
 10
103.2
 20
21.50107000000002
 30
0.0
 40
2.5
100
AcDbArc
 50
292.8853800000011
 51
308.9424409999999
  0
LINE
  5
16B
102
{ACAD_REACTORS
330
1100
102
}
330
1D
100
AcDbEntity
  8
23
  6
Continuous
 62
     7
100
AcDbLine
 10
106.028427
 20
20.00107000000002
 30
0.0
 11
127.371573
 21
20.00107000000002
 31
0.0
  0
ARC
  5
16C
102
{ACAD_REACTORS
330
1100
102
}
330
1D
100
AcDbEntity
  8
23
  6
Continuous
 62
     7
100
AcDbCircle
 10
130.2
 20
21.50107000000002
 30
0.0
 40
2.5
100
AcDbArc
 50
231.0575589999989
 51
247.1146199999975
  0
LINE
  5
16D
102
{ACAD_REACTORS
330
1100
102
}
330
1D
100
AcDbEntity
  8
23
  6
Continuous
 62
     7
100
AcDbLine
 10
130.45
 20
17.35528900000002
 30
0.0
 11
130.45
 21
16.00107000000002
 31
0.0
  0
LINE
  5
16E
102
{ACAD_REACTORS
330
1100
102
}
330
1D
100
AcDbEntity
  8
23
  6
Continuous
 62
     7
100
AcDbLine
 10
100.75
 20
55.01446300000002
 30
0.0
 11
100.75
 21
60.00107000000001
 31
0.0
  0
LINE
  5
16F
102
{ACAD_REACTORS
330
1100
102
}
330
1D
100
AcDbEntity
  8
23
  6
Continuous
 62
     7
100
AcDbLine
 10
102.75
 20
62.00107000000001
 30
0.0
 11
105.987857
 21
62.00107000000001
 31
0.0
  0
ARC
  5
170
102
{ACAD_REACTORS
330
1100
102
}
330
1D
100
AcDbEntity
  8
23
  6
Continuous
 62
     7
100
AcDbCircle
 10
116.7
 20
49.50107000000001
 30
0.0
 40
13.0
100
AcDbArc
 50
135.5729959999999
 51
158.434815
  0
ARC
  5
171
102
{ACAD_REACTORS
330
1100
102
}
330
1D
100
AcDbEntity
  8
23
  6
Continuous
 62
     7
100
AcDbCircle
 10
116.7
 20
49.50107000000001
 30
0.0
 40
13.0
100
AcDbArc
 50
21.56518499999991
 51
44.42700399999994
  0
LINE
  5
172
102
{ACAD_REACTORS
330
1100
102
}
330
1D
100
AcDbEntity
  8
23
  6
Continuous
 62
     7
100
AcDbLine
 10
127.412143
 20
62.00107000000001
 30
0.0
 11
130.65
 21
62.00107000000001
 31
0.0
  0
LINE
  5
173
102
{ACAD_REACTORS
330
1100
102
}
330
1D
100
AcDbEntity
  8
23
  6
Continuous
 62
     7
100
AcDbLine
 10
132.65
 20
60.00107000000001
 30
0.0
 11
132.65
 21
55.01446300000002
 31
0.0
  0
LWPOLYLINE
  5
22F
330
1D
100
AcDbEntity
  8
0
100
AcDbPolyline
 90
        4
 70
     1
 43
0.0
 10
0.0
 20
0.0
 10
0.0
 20
299.9999999999998
 10
200.0
 20
299.9999999999998
 10
200.0
 20
0.0
  0
CIRCLE
  5
1872
102
{ACAD_REACTORS
330
1887
102
}
330
1D
100
AcDbEntity
  8
23
  6
Continuous
 62
     7
100
AcDbCircle
 10
28.99999999999999
 20
89.20106999999999
 30
0.0
 40
5.05
  0
ARC
  5
1873
102
{ACAD_REACTORS
330
1887
102
}
330
1D
100
AcDbEntity
  8
23
  6
Continuous
 62
     7
100
AcDbCircle
 10
10.05
 20
84.20106999999999
 30
0.0
 40
1.05
100
AcDbArc
 50
270.0
 51
90.0
  0
LINE
  5
1874
102
{ACAD_REACTORS
330
1887
102
}
330
1D
100
AcDbEntity
  8
23
  6
Continuous
 62
     7
100
AcDbLine
 10
10.05
 20
85.25107
 30
0.0
 11
10.05
 21
93.15107000000003
 31
0.0
  0
ARC
  5
1875
102
{ACAD_REACTORS
330
1887
102
}
330
1D
100
AcDbEntity
  8
23
  6
Continuous
 62
     7
100
AcDbCircle
 10
10.05
 20
94.20106999999999
 30
0.0
 40
1.05
100
AcDbArc
 50
270.0
 51
90.0
  0
LINE
  5
1876
102
{ACAD_REACTORS
330
1887
102
}
330
1D
100
AcDbEntity
  8
23
  6
Continuous
 62
     7
100
AcDbLine
 10
10.05
 20
95.25107
 30
0.0
 11
7.449999999999981
 21
95.25107
 31
0.0
  0
ARC
  5
1877
102
{ACAD_REACTORS
330
1887
102
}
330
1D
100
AcDbEntity
  8
23
  6
Continuous
 62
     7
100
AcDbCircle
 10
7.449999999999981
 20
94.20106999999999
 30
0.0
 40
1.05
100
AcDbArc
 50
90.0
 51
270.0
  0
LINE
  5
1878
102
{ACAD_REACTORS
330
1887
102
}
330
1D
100
AcDbEntity
  8
23
  6
Continuous
 62
     7
100
AcDbLine
 10
7.449999999999981
 20
93.15107000000003
 30
0.0
 11
7.449999999999981
 21
85.25107
 31
0.0
  0
ARC
  5
1879
102
{ACAD_REACTORS
330
1887
102
}
330
1D
100
AcDbEntity
  8
23
  6
Continuous
 62
     7
100
AcDbCircle
 10
7.449999999999981
 20
84.20106999999999
 30
0.0
 40
1.05
100
AcDbArc
 50
90.0
 51
270.0
  0
LINE
  5
187A
102
{ACAD_REACTORS
330
1887
102
}
330
1D
100
AcDbEntity
  8
23
  6
Continuous
 62
     7
100
AcDbLine
 10
7.449999999999981
 20
83.15107000000003
 30
0.0
 11
10.05
 21
83.15107000000003
 31
0.0
  0
CIRCLE
  5
187B
102
{ACAD_REACTORS
330
1887
102
}
330
1D
100
AcDbEntity
  8
23
  6
Continuous
 62
     7
100
AcDbCircle
 10
7.499999999999992
 20
102.20107
 30
0.0
 40
1.55
  0
CIRCLE
  5
187C
102
{ACAD_REACTORS
330
1887
102
}
330
1D
100
AcDbEntity
  8
23
  6
Continuous
 62
     7
100
AcDbCircle
 10
7.499999999999992
 20
76.20106999999999
 30
0.0
 40
1.55
  0
CIRCLE
  5
187D
102
{ACAD_REACTORS
330
1887
102
}
330
1D
100
AcDbEntity
  8
23
  6
Continuous
 62
     7
100
AcDbCircle
 10
37.49999999999999
 20
89.20106999999999
 30
0.0
 40
1.35
  0
CIRCLE
  5
187E
102
{ACAD_REACTORS
330
1887
102
}
330
1D
100
AcDbEntity
  8
23
  6
Continuous
 62
     7
100
AcDbCircle
 10
28.99999999999999
 20
97.70106999999999
 30
0.0
 40
1.35
  0
CIRCLE
  5
187F
102
{ACAD_REACTORS
330
1887
102
}
330
1D
100
AcDbEntity
  8
23
  6
Continuous
 62
     7
100
AcDbCircle
 10
20.49999999999999
 20
89.20106999999999
 30
0.0
 40
1.35
  0
CIRCLE
  5
1880
102
{ACAD_REACTORS
330
1887
102
}
330
1D
100
AcDbEntity
  8
23
  6
Continuous
 62
     7
100
AcDbCircle
 10
28.99999999999999
 20
80.70106999999999
 30
0.0
 40
1.35
  0
LINE
  5
1881
102
{ACAD_REACTORS
330
1887
102
}
330
1D
100
AcDbEntity
  8
23
  6
Continuous
 62
     7
100
AcDbLine
 10
31.270147
 20
77.92736500000004
 30
0.0
 11
7.79904800000002
 21
73.20106999999999
 31
0.0
  0
ARC
  5
1882
102
{ACAD_REACTORS
330
1887
102
}
330
1D
100
AcDbEntity
  8
23
  6
Continuous
 62
     7
100
AcDbCircle
 10
28.99999999999999
 20
89.20106999999999
 30
0.0
 40
11.5
100
AcDbArc
 50
281.3851999999999
 51
78.61480000000007
  0
LINE
  5
1883
102
{ACAD_REACTORS
330
1887
102
}
330
1D
100
AcDbEntity
  8
23
  6
Continuous
 62
     7
100
AcDbLine
 10
7.79904800000002
 20
105.20107
 30
0.0
 11
31.270147
 21
100.474775
 31
0.0
  0
LINE
  5
1884
102
{ACAD_REACTORS
330
1887
102
}
330
1D
100
AcDbEntity
  8
23
  6
Continuous
 62
     7
100
AcDbLine
 10
4.999999999999992
 20
105.20107
 30
0.0
 11
7.79904800000002
 21
105.20107
 31
0.0
  0
LINE
  5
1885
102
{ACAD_REACTORS
330
1887
102
}
330
1D
100
AcDbEntity
  8
23
  6
Continuous
 62
     7
100
AcDbLine
 10
4.999999999999992
 20
73.20106999999999
 30
0.0
 11
4.999999999999992
 21
105.20107
 31
0.0
  0
LINE
  5
1886
102
{ACAD_REACTORS
330
1887
102
}
330
1D
100
AcDbEntity
  8
23
  6
Continuous
 62
     7
100
AcDbLine
 10
7.79904800000002
 20
73.20106999999999
 30
0.0
 11
4.999999999999992
 21
73.20106999999999
 31
0.0
  0
CIRCLE
  5
1888
102
{ACAD_REACTORS
330
189D
102
}
330
1D
100
AcDbEntity
  8
23
  6
Continuous
 62
     7
100
AcDbCircle
 10
28.99999999999998
 20
123.30107
 30
0.0
 40
5.05
  0
ARC
  5
1889
102
{ACAD_REACTORS
330
189D
102
}
330
1D
100
AcDbEntity
  8
23
  6
Continuous
 62
     7
100
AcDbCircle
 10
10.05
 20
118.30107
 30
0.0
 40
1.05
100
AcDbArc
 50
270.0
 51
90.0
  0
LINE
  5
188A
102
{ACAD_REACTORS
330
189D
102
}
330
1D
100
AcDbEntity
  8
23
  6
Continuous
 62
     7
100
AcDbLine
 10
10.05
 20
119.35107
 30
0.0
 11
10.05
 21
127.25107
 31
0.0
  0
ARC
  5
188B
102
{ACAD_REACTORS
330
189D
102
}
330
1D
100
AcDbEntity
  8
23
  6
Continuous
 62
     7
100
AcDbCircle
 10
10.05
 20
128.30107
 30
0.0
 40
1.05
100
AcDbArc
 50
270.0
 51
90.0
  0
LINE
  5
188C
102
{ACAD_REACTORS
330
189D
102
}
330
1D
100
AcDbEntity
  8
23
  6
Continuous
 62
     7
100
AcDbLine
 10
10.05
 20
129.35107
 30
0.0
 11
7.449999999999972
 21
129.35107
 31
0.0
  0
ARC
  5
188D
102
{ACAD_REACTORS
330
189D
102
}
330
1D
100
AcDbEntity
  8
23
  6
Continuous
 62
     7
100
AcDbCircle
 10
7.449999999999972
 20
128.30107
 30
0.0
 40
1.05
100
AcDbArc
 50
90.0
 51
270.0
  0
LINE
  5
188E
102
{ACAD_REACTORS
330
189D
102
}
330
1D
100
AcDbEntity
  8
23
  6
Continuous
 62
     7
100
AcDbLine
 10
7.449999999999972
 20
127.25107
 30
0.0
 11
7.449999999999972
 21
119.35107
 31
0.0
  0
ARC
  5
188F
102
{ACAD_REACTORS
330
189D
102
}
330
1D
100
AcDbEntity
  8
23
  6
Continuous
 62
     7
100
AcDbCircle
 10
7.449999999999972
 20
118.30107
 30
0.0
 40
1.05
100
AcDbArc
 50
90.0
 51
270.0
  0
LINE
  5
1890
102
{ACAD_REACTORS
330
189D
102
}
330
1D
100
AcDbEntity
  8
23
  6
Continuous
 62
     7
100
AcDbLine
 10
7.449999999999972
 20
117.25107
 30
0.0
 11
10.05
 21
117.25107
 31
0.0
  0
CIRCLE
  5
1891
102
{ACAD_REACTORS
330
189D
102
}
330
1D
100
AcDbEntity
  8
23
  6
Continuous
 62
     7
100
AcDbCircle
 10
7.499999999999983
 20
136.30107
 30
0.0
 40
1.55
  0
CIRCLE
  5
1892
102
{ACAD_REACTORS
330
189D
102
}
330
1D
100
AcDbEntity
  8
23
  6
Continuous
 62
     7
100
AcDbCircle
 10
7.499999999999983
 20
110.30107
 30
0.0
 40
1.55
  0
CIRCLE
  5
1893
102
{ACAD_REACTORS
330
189D
102
}
330
1D
100
AcDbEntity
  8
23
  6
Continuous
 62
     7
100
AcDbCircle
 10
37.49999999999999
 20
123.30107
 30
0.0
 40
1.35
  0
CIRCLE
  5
1894
102
{ACAD_REACTORS
330
189D
102
}
330
1D
100
AcDbEntity
  8
23
  6
Continuous
 62
     7
100
AcDbCircle
 10
28.99999999999998
 20
131.80107
 30
0.0
 40
1.35
  0
CIRCLE
  5
1895
102
{ACAD_REACTORS
330
189D
102
}
330
1D
100
AcDbEntity
  8
23
  6
Continuous
 62
     7
100
AcDbCircle
 10
20.49999999999998
 20
123.30107
 30
0.0
 40
1.35
  0
CIRCLE
  5
1896
102
{ACAD_REACTORS
330
189D
102
}
330
1D
100
AcDbEntity
  8
23
  6
Continuous
 62
     7
100
AcDbCircle
 10
28.99999999999998
 20
114.80107
 30
0.0
 40
1.35
  0
LINE
  5
1897
102
{ACAD_REACTORS
330
189D
102
}
330
1D
100
AcDbEntity
  8
23
  6
Continuous
 62
     7
100
AcDbLine
 10
31.27014699999999
 20
112.027365
 30
0.0
 11
7.799048000000011
 21
107.30107
 31
0.0
  0
ARC
  5
1898
102
{ACAD_REACTORS
330
189D
102
}
330
1D
100
AcDbEntity
  8
23
  6
Continuous
 62
     7
100
AcDbCircle
 10
28.99999999999998
 20
123.30107
 30
0.0
 40
11.5
100
AcDbArc
 50
281.3851999999999
 51
78.61480000000007
  0
LINE
  5
1899
102
{ACAD_REACTORS
330
189D
102
}
330
1D
100
AcDbEntity
  8
23
  6
Continuous
 62
     7
100
AcDbLine
 10
7.799048000000011
 20
139.30107
 30
0.0
 11
31.27014699999999
 21
134.574775
 31
0.0
  0
LINE
  5
189A
102
{ACAD_REACTORS
330
189D
102
}
330
1D
100
AcDbEntity
  8
23
  6
Continuous
 62
     7
100
AcDbLine
 10
4.999999999999983
 20
139.30107
 30
0.0
 11
7.799048000000011
 21
139.30107
 31
0.0
  0
LINE
  5
189B
102
{ACAD_REACTORS
330
189D
102
}
330
1D
100
AcDbEntity
  8
23
  6
Continuous
 62
     7
100
AcDbLine
 10
4.999999999999983
 20
107.30107
 30
0.0
 11
4.999999999999983
 21
139.30107
 31
0.0
  0
LINE
  5
189C
102
{ACAD_REACTORS
330
189D
102
}
330
1D
100
AcDbEntity
  8
23
  6
Continuous
 62
     7
100
AcDbLine
 10
7.799048000000011
 20
107.30107
 30
0.0
 11
4.999999999999983
 21
107.30107
 31
0.0
  0
ENDSEC
  0
SECTION
  2
OBJECTS
  0
DICTIONARY
  5
C
330
0
100
AcDbDictionary
281
     1
  3
ACAD_DETAILVIEWSTYLE
350
22D
  3
ACAD_GROUP
350
D
  3
ACAD_LAYOUT
350
1A
  3
ACAD_MLINESTYLE
350
17
  3
ACAD_PLOTSETTINGS
350
19
  3
ACAD_PLOTSTYLENAME
350
E
  3
ACAD_SCALELIST
350
1E0
  3
ACAD_SECTIONVIEWSTYLE
350
22E
  3
AcDbVariableDictionary
350
228
  3
APPDATA
350
227
  3
DWGPROPS
350
18AE
  0
DICTIONARY
  5
22D
102
{ACAD_REACTORS
330
C
102
}
330
C
100
AcDbDictionary
281
     1
  0
DICTIONARY
  5
D
102
{ACAD_REACTORS
330
C
102
}
330
C
100
AcDbDictionary
281
     1
  3
*A1
350
10FD
  3
*A2
350
10FE
  3
*A3
350
10FF
  3
*A4
350
1100
  3
*A5
350
1887
  3
*A6
350
189D
  0
DICTIONARY
  5
1A
102
{ACAD_REACTORS
330
C
102
}
330
C
100
AcDbDictionary
281
     1
  3
Model
350
1E
  3
ГVБ[Гg 1
350
1C
  0
DICTIONARY
  5
17
102
{ACAD_REACTORS
330
C
102
}
330
C
100
AcDbDictionary
281
     1
  3
Standard
350
18
  0
DICTIONARY
  5
19
102
{ACAD_REACTORS
330
C
102
}
330
C
100
AcDbDictionary
281
     1
  0
ACDBDICTIONARYWDFLT
  5
E
102
{ACAD_REACTORS
330
C
102
}
330
C
100
AcDbDictionary
281
     1
  3
Normal
350
F
100
AcDbDictionaryWithDefault
340
F
  0
DICTIONARY
  5
1E0
102
{ACAD_REACTORS
330
C
102
}
330
C
100
AcDbDictionary
281
     1
  3
A0
350
1E1
  3
A1
350
1E2
  3
A2
350
1E3
  3
A3
350
1E4
  3
A4
350
1E5
  3
A5
350
1E6
  3
A6
350
1E7
  3
A7
350
1E8
  3
A8
350
1E9
  3
A9
350
1EA
  3
B0
350
1EB
  3
B1
350
1EC
  3
B2
350
1ED
  3
B3
350
1EE
  3
B4
350
1EF
  3
B5
350
1F0
  3
B6
350
1F1
  3
B7
350
1F2
  3
B8
350
1F3
  3
B9
350
1F4
  3
C0
350
1F5
  3
C1
350
1F6
  3
C2
350
1F7
  3
C3
350
1F8
  3
C4
350
1F9
  3
C5
350
1FA
  3
C6
350
1FB
  3
C7
350
1FC
  3
C8
350
1FD
  3
C9
350
1FE
  3
D0
350
1FF
  3
D1
350
200
  3
D2
350
201
  0
DICTIONARY
  5
22E
102
{ACAD_REACTORS
330
C
102
}
330
C
100
AcDbDictionary
281
     1
  0
DICTIONARY
  5
228
102
{ACAD_REACTORS
330
C
102
}
330
C
100
AcDbDictionary
281
     1
  0
DICTIONARY
  5
227
102
{ACAD_REACTORS
330
C
102
}
330
C
100
AcDbDictionary
281
     1
  0
XRECORD
  5
18AE
102
{ACAD_REACTORS
330
C
102
}
330
C
100
AcDbXrecord
280
     1
  1
DWGPROPS COOKIE
  2

  3

  4

  6

  7

  8
haya
  9

300
=
301
=
302
=
303
=
304
=
305
=
306
=
307
=
308
=
309
=
 40
0.0
 41
2447892.625
 42
2458195.989390972
  1

 90
        0
  0
GROUP
  5
10FD
102
{ACAD_REACTORS
330
D
102
}
330
D
100
AcDbGroup
300

 70
     1
 71
     1
340
2C
340
2D
340
2E
340
2F
340
30
340
31
340
32
340
33
340
34
340
35
340
36
340
37
340
38
340
39
340
3A
340
3B
340
3C
340
3D
340
3E
340
3F
340
40
  0
GROUP
  5
10FE
102
{ACAD_REACTORS
330
D
102
}
330
D
100
AcDbGroup
300

 70
     1
 71
     1
340
41
340
42
340
43
340
44
340
45
340
46
340
47
340
48
340
49
340
4A
340
4B
340
4C
340
4D
340
4E
340
4F
340
50
340
51
340
52
340
53
340
54
340
55
  0
GROUP
  5
10FF
102
{ACAD_REACTORS
330
D
102
}
330
D
100
AcDbGroup
300

 70
     1
 71
     1
340
56
340
57
340
58
340
59
340
5A
340
5B
340
5C
340
5D
340
5E
340
5F
340
60
340
61
340
62
340
63
340
64
340
65
340
66
340
67
340
68
340
69
340
6A
340
6B
340
6C
340
6D
340
6E
340
6F
340
70
340
71
340
72
340
73
340
74
340
75
340
76
340
77
340
78
340
79
340
7A
340
7B
340
7C
340
7D
340
7E
340
7F
340
80
340
81
340
82
340
83
340
84
340
85
340
86
340
87
340
88
340
89
340
8A
340
8B
340
8C
340
8D
340
8E
340
8F
340
90
340
91
340
92
340
93
340
94
340
95
340
96
340
97
340
98
340
99
340
9A
340
9B
340
9C
340
9D
340
9E
340
9F
340
A0
340
A1
340
A2
340
A3
340
A4
340
A5
340
A6
340
A7
340
A8
340
A9
340
AA
340
AB
340
AC
340
AD
340
AE
340
AF
340
B0
340
B1
340
B2
340
B3
340
B4
340
B5
340
B6
340
B7
340
B8
340
B9
340
BA
340
BB
340
BC
340
BD
340
BE
340
BF
340
C0
  0
GROUP
  5
1100
102
{ACAD_REACTORS
330
D
102
}
330
D
100
AcDbGroup
300

 70
     1
 71
     1
340
103
340
104
340
105
340
106
340
107
340
108
340
109
340
10A
340
10B
340
10C
340
10D
340
10E
340
10F
340
110
340
111
340
112
340
113
340
114
340
115
340
116
340
117
340
118
340
119
340
11A
340
11B
340
11C
340
11D
340
11E
340
11F
340
120
340
121
340
122
340
123
340
124
340
125
340
126
340
127
340
128
340
129
340
12A
340
12B
340
12C
340
12D
340
12E
340
12F
340
130
340
131
340
132
340
133
340
134
340
135
340
136
340
137
340
138
340
139
340
13A
340
13B
340
13C
340
13D
340
13E
340
13F
340
140
340
141
340
142
340
143
340
144
340
145
340
146
340
147
340
148
340
149
340
14A
340
14B
340
14C
340
14D
340
14E
340
14F
340
150
340
151
340
152
340
153
340
154
340
155
340
156
340
157
340
158
340
159
340
15A
340
15B
340
15C
340
15D
340
15E
340
15F
340
160
340
161
340
162
340
163
340
164
340
165
340
166
340
167
340
168
340
169
340
16A
340
16B
340
16C
340
16D
340
16E
340
16F
340
170
340
171
340
172
340
173
  0
GROUP
  5
1887
102
{ACAD_REACTORS
330
D
102
}
330
D
100
AcDbGroup
300

 70
     1
 71
     1
340
1872
340
1873
340
1874
340
1875
340
1876
340
1877
340
1878
340
1879
340
187A
340
187B
340
187C
340
187D
340
187E
340
187F
340
1880
340
1881
340
1882
340
1883
340
1884
340
1885
340
1886
  0
GROUP
  5
189D
102
{ACAD_REACTORS
330
D
102
}
330
D
100
AcDbGroup
300

 70
     1
 71
     1
340
1888
340
1889
340
188A
340
188B
340
188C
340
188D
340
188E
340
188F
340
1890
340
1891
340
1892
340
1893
340
1894
340
1895
340
1896
340
1897
340
1898
340
1899
340
189A
340
189B
340
189C
  0
LAYOUT
  5
1E
102
{ACAD_REACTORS
330
1A
102
}
330
1A
100
AcDbPlotSettings
  1

  2
none_device
  4
Letter_(8.50_x_11.00_Inches)
  6

 40
6.35
 41
6.35
 42
6.35
 43
6.35
 44
215.9
 45
279.4
 46
0.0
 47
0.0
 48
0.0
 49
0.0
140
0.0
141
0.0
142
1.0
143
1.0
 70
  1712
 72
     0
 73
     0
 74
     0
  7

 75
     0
147
1.0
148
0.0
149
0.0
100
AcDbLayout
  1
Model
 70
     3
 71
     0
 10
0.0
 20
0.0
 11
12.0
 21
9.0
 12
0.0
 22
0.0
 32
0.0
 14
-0.0000000000000036
 24
0.0
 34
0.0
 15
200.0
 25
299.9999999999998
 35
0.0
146
0.0
 13
0.0
 23
0.0
 33
0.0
 16
1.0
 26
0.0
 36
0.0
 17
0.0
 27
1.0
 37
0.0
 76
     0
330
1D
331
2B
  0
LAYOUT
  5
1C
102
{ACAD_REACTORS
330
1A
102
}
330
1A
100
AcDbPlotSettings
  1

  2
none_device
  4

  6

 40
0.0
 41
0.0
 42
0.0
 43
0.0
 44
0.0
 45
0.0
 46
0.0
 47
0.0
 48
0.0
 49
0.0
140
0.0
141
0.0
142
1.0
143
1.0
 70
   688
 72
     0
 73
     0
 74
     5
  7

 75
    16
147
1.0
148
0.0
149
0.0
100
AcDbLayout
  1
ГVБ[Гg 1
 70
     1
 71
     1
 10
0.0
 20
0.0
 11
0.0
 21
0.0
 12
0.0
 22
0.0
 32
0.0
 14
0.0
 24
0.0
 34
0.0
 15
594.0
 25
420.0
 35
0.0
146
0.0
 13
0.0
 23
0.0
 33
0.0
 16
1.0
 26
0.0
 36
0.0
 17
0.0
 27
1.0
 37
0.0
 76
     0
330
1B
  0
MLINESTYLE
  5
18
102
{ACAD_REACTORS
330
17
102
}
330
17
100
AcDbMlineStyle
  2
Standard
 70
     0
  3

 62
   256
 51
90.0
 52
90.0
 71
     2
 49
0.5
 62
   256
  6
BYLAYER
 49
-0.5
 62
   256
  6
BYLAYER
  0
ACDBPLACEHOLDER
  5
F
102
{ACAD_REACTORS
330
E
102
}
330
E
  0
SCALE
  5
1E1
102
{ACAD_REACTORS
330
1E0
102
}
330
1E0
100
AcDbScale
 70
     0
300
1:1
140
1.0
141
1.0
290
     1
  0
SCALE
  5
1E2
102
{ACAD_REACTORS
330
1E0
102
}
330
1E0
100
AcDbScale
 70
     0
300
1:2
140
1.0
141
2.0
290
     0
  0
SCALE
  5
1E3
102
{ACAD_REACTORS
330
1E0
102
}
330
1E0
100
AcDbScale
 70
     0
300
1:4
140
1.0
141
4.0
290
     0
  0
SCALE
  5
1E4
102
{ACAD_REACTORS
330
1E0
102
}
330
1E0
100
AcDbScale
 70
     0
300
1:5
140
1.0
141
5.0
290
     0
  0
SCALE
  5
1E5
102
{ACAD_REACTORS
330
1E0
102
}
330
1E0
100
AcDbScale
 70
     0
300
1:8
140
1.0
141
8.0
290
     0
  0
SCALE
  5
1E6
102
{ACAD_REACTORS
330
1E0
102
}
330
1E0
100
AcDbScale
 70
     0
300
1:10
140
1.0
141
10.0
290
     0
  0
SCALE
  5
1E7
102
{ACAD_REACTORS
330
1E0
102
}
330
1E0
100
AcDbScale
 70
     0
300
1:16
140
1.0
141
16.0
290
     0
  0
SCALE
  5
1E8
102
{ACAD_REACTORS
330
1E0
102
}
330
1E0
100
AcDbScale
 70
     0
300
1:20
140
1.0
141
20.0
290
     0
  0
SCALE
  5
1E9
102
{ACAD_REACTORS
330
1E0
102
}
330
1E0
100
AcDbScale
 70
     0
300
1:30
140
1.0
141
30.0
290
     0
  0
SCALE
  5
1EA
102
{ACAD_REACTORS
330
1E0
102
}
330
1E0
100
AcDbScale
 70
     0
300
1:40
140
1.0
141
40.0
290
     0
  0
SCALE
  5
1EB
102
{ACAD_REACTORS
330
1E0
102
}
330
1E0
100
AcDbScale
 70
     0
300
1:50
140
1.0
141
50.0
290
     0
  0
SCALE
  5
1EC
102
{ACAD_REACTORS
330
1E0
102
}
330
1E0
100
AcDbScale
 70
     0
300
1:100
140
1.0
141
100.0
290
     0
  0
SCALE
  5
1ED
102
{ACAD_REACTORS
330
1E0
102
}
330
1E0
100
AcDbScale
 70
     0
300
2:1
140
2.0
141
1.0
290
     0
  0
SCALE
  5
1EE
102
{ACAD_REACTORS
330
1E0
102
}
330
1E0
100
AcDbScale
 70
     0
300
4:1
140
4.0
141
1.0
290
     0
  0
SCALE
  5
1EF
102
{ACAD_REACTORS
330
1E0
102
}
330
1E0
100
AcDbScale
 70
     0
300
8:1
140
8.0
141
1.0
290
     0
  0
SCALE
  5
1F0
102
{ACAD_REACTORS
330
1E0
102
}
330
1E0
100
AcDbScale
 70
     0
300
10:1
140
10.0
141
1.0
290
     0
  0
SCALE
  5
1F1
102
{ACAD_REACTORS
330
1E0
102
}
330
1E0
100
AcDbScale
 70
     0
300
100:1
140
100.0
141
1.0
290
     0
  0
SCALE
  5
1F2
102
{ACAD_REACTORS
330
1E0
102
}
330
1E0
100
AcDbScale
 70
     0
300
1/128" = 1'-0"
140
0.0078125
141
12.0
290
     0
  0
SCALE
  5
1F3
102
{ACAD_REACTORS
330
1E0
102
}
330
1E0
100
AcDbScale
 70
     0
300
1/64" = 1'-0"
140
0.015625
141
12.0
290
     0
  0
SCALE
  5
1F4
102
{ACAD_REACTORS
330
1E0
102
}
330
1E0
100
AcDbScale
 70
     0
300
1/32" = 1'-0"
140
0.03125
141
12.0
290
     0
  0
SCALE
  5
1F5
102
{ACAD_REACTORS
330
1E0
102
}
330
1E0
100
AcDbScale
 70
     0
300
1/16" = 1'-0"
140
0.0625
141
12.0
290
     0
  0
SCALE
  5
1F6
102
{ACAD_REACTORS
330
1E0
102
}
330
1E0
100
AcDbScale
 70
     0
300
3/32" = 1'-0"
140
0.09375
141
12.0
290
     0
  0
SCALE
  5
1F7
102
{ACAD_REACTORS
330
1E0
102
}
330
1E0
100
AcDbScale
 70
     0
300
1/8" = 1'-0"
140
0.125
141
12.0
290
     0
  0
SCALE
  5
1F8
102
{ACAD_REACTORS
330
1E0
102
}
330
1E0
100
AcDbScale
 70
     0
300
3/16" = 1'-0"
140
0.1875
141
12.0
290
     0
  0
SCALE
  5
1F9
102
{ACAD_REACTORS
330
1E0
102
}
330
1E0
100
AcDbScale
 70
     0
300
1/4" = 1'-0"
140
0.25
141
12.0
290
     0
  0
SCALE
  5
1FA
102
{ACAD_REACTORS
330
1E0
102
}
330
1E0
100
AcDbScale
 70
     0
300
3/8" = 1'-0"
140
0.375
141
12.0
290
     0
  0
SCALE
  5
1FB
102
{ACAD_REACTORS
330
1E0
102
}
330
1E0
100
AcDbScale
 70
     0
300
1/2" = 1'-0"
140
0.5
141
12.0
290
     0
  0
SCALE
  5
1FC
102
{ACAD_REACTORS
330
1E0
102
}
330
1E0
100
AcDbScale
 70
     0
300
3/4" = 1'-0"
140
0.75
141
12.0
290
     0
  0
SCALE
  5
1FD
102
{ACAD_REACTORS
330
1E0
102
}
330
1E0
100
AcDbScale
 70
     0
300
1" = 1'-0"
140
1.0
141
12.0
290
     0
  0
SCALE
  5
1FE
102
{ACAD_REACTORS
330
1E0
102
}
330
1E0
100
AcDbScale
 70
     0
300
1-1/2" = 1'-0"
140
1.5
141
12.0
290
     0
  0
SCALE
  5
1FF
102
{ACAD_REACTORS
330
1E0
102
}
330
1E0
100
AcDbScale
 70
     0
300
3" = 1'-0"
140
3.0
141
12.0
290
     0
  0
SCALE
  5
200
102
{ACAD_REACTORS
330
1E0
102
}
330
1E0
100
AcDbScale
 70
     0
300
6" = 1'-0"
140
6.0
141
12.0
290
     0
  0
SCALE
  5
201
102
{ACAD_REACTORS
330
1E0
102
}
330
1E0
100
AcDbScale
 70
     0
300
1'-0" = 1'-0"
140
12.0
141
12.0
290
     0
  0
ENDSEC
  0
EOF
