  0
SECTION
  2
HEADER
  9
$ACADVER
  1
AC1015
  9
$ACADMAINTVER
 70
     6
  9
$DWGCODEPAGE
  3
ANSI_932
  9
$INSBASE
 10
0.0
 20
0.0
 30
0.0
  9
$EXTMIN
 10
-0.0000000000000036
 20
0.0
 30
0.0
  9
$EXTMAX
 10
200.0
 20
299.9999999999998
 30
0.0
  9
$LIMMIN
 10
0.0
 20
0.0
  9
$LIMMAX
 10
594.0
 20
420.0
  9
$ORTHOMODE
 70
     0
  9
$REGENMODE
 70
     1
  9
$FILLMODE
 70
     1
  9
$QTEXTMODE
 70
     0
  9
$MIRRTEXT
 70
     1
  9
$LTSCALE
 40
0.5
  9
$ATTMODE
 70
     1
  9
$TEXTSIZE
 40
0.2
  9
$TRACEWID
 40
0.05
  9
$TEXTSTYLE
  7
STANDARD
  9
$CLAYER
  8
0
  9
$CELTYPE
  6
ByLayer
  9
$CECOLOR
 62
   256
  9
$CELTSCALE
 40
1.0
  9
$DISPSILH
 70
     0
  9
$DIMSCALE
 40
1.0
  9
$DIMASZ
 40
1.0
  9
$DIMEXO
 40
0.0
  9
$DIMDLI
 40
0.5
  9
$DIMRND
 40
0.0
  9
$DIMDLE
 40
0.0
  9
$DIMEXE
 40
0.0
  9
$DIMTP
 40
0.0
  9
$DIMTM
 40
0.0
  9
$DIMTXT
 40
4.0
  9
$DIMCEN
 40
0.0
  9
$DIMTSZ
 40
0.0
  9
$DIMTOL
 70
     0
  9
$DIMLIM
 70
     0
  9
$DIMTIH
 70
     1
  9
$DIMTOH
 70
     1
  9
$DIMSE1
 70
     0
  9
$DIMSE2
 70
     0
  9
$DIMTAD
 70
     0
  9
$DIMZIN
 70
     0
  9
$DIMBLK
  1

  9
$DIMASO
 70
     0
  9
$DIMSHO
 70
     0
  9
$DIMPOST
  1

  9
$DIMAPOST
  1

  9
$DIMALT
 70
     0
  9
$DIMALTD
 70
     0
  9
$DIMALTF
 40
25.4
  9
$DIMLFAC
 40
1.0
  9
$DIMTOFL
 70
     0
  9
$DIMTVP
 40
0.0
  9
$DIMTIX
 70
     0
  9
$DIMSOXD
 70
     0
  9
$DIMSAH
 70
     0
  9
$DIMBLK1
  1

  9
$DIMBLK2
  1

  9
$DIMSTYLE
  2
Standard
  9
$DIMCLRD
 70
     0
  9
$DIMCLRE
 70
     0
  9
$DIMCLRT
 70
     0
  9
$DIMTFAC
 40
1.0
  9
$DIMGAP
 40
0.09
  9
$DIMJUST
 70
     0
  9
$DIMSD1
 70
     0
  9
$DIMSD2
 70
     0
  9
$DIMTOLJ
 70
     1
  9
$DIMTZIN
 70
     0
  9
$DIMALTZ
 70
     0
  9
$DIMALTTZ
 70
     0
  9
$DIMUPT
 70
     0
  9
$DIMDEC
 70
     2
  9
$DIMTDEC
 70
     2
  9
$DIMALTU
 70
     2
  9
$DIMALTTD
 70
     2
  9
$DIMTXSTY
  7
STANDARD
  9
$DIMAUNIT
 70
     0
  9
$DIMADEC
 70
     0
  9
$DIMALTRND
 40
0.0
  9
$DIMAZIN
 70
     0
  9
$DIMDSEP
 70
    46
  9
$DIMATFIT
 70
     3
  9
$DIMFRAC
 70
     0
  9
$DIMLDRBLK
  1

  9
$DIMLUNIT
 70
     2
  9
$DIMLWD
 70
    -2
  9
$DIMLWE
 70
    -2
  9
$DIMTMOVE
 70
     2
  9
$LUNITS
 70
     2
  9
$LUPREC
 70
     2
  9
$SKETCHINC
 40
0.0
  9
$FILLETRAD
 40
0.0
  9
$AUNITS
 70
     1
  9
$AUPREC
 70
     2
  9
$MENU
  1
ACAD
  9
$ELEVATION
 40
0.0
  9
$PELEVATION
 40
0.0
  9
$THICKNESS
 40
0.0
  9
$LIMCHECK
 70
     1
  9
$CHAMFERA
 40
0.0
  9
$CHAMFERB
 40
0.0
  9
$CHAMFERC
 40
0.0
  9
$CHAMFERD
 40
0.0
  9
$SKPOLY
 70
     0
  9
$TDCREATE
 40
2447893.0
  9
$TDUCREATE
 40
2447892.625
  9
$TDUPDATE
 40
2458246.525920845
  9
$TDUUPDATE
 40
2458246.150920845
  9
$TDINDWG
 40
0.0014293287
  9
$TDUSRTIMER
 40
0.0003097338
  9
$USRTIMER
 70
     1
  9
$ANGBASE
 50
0.0
  9
$ANGDIR
 70
     0
  9
$PDMODE
 70
     0
  9
$PDSIZE
 40
0.0
  9
$PLINEWID
 40
0.0
  9
$SPLFRAME
 70
     0
  9
$SPLINETYPE
 70
     6
  9
$SPLINESEGS
 70
     8
  9
$HANDSEED
  5
108
  9
$SURFTAB1
 70
     6
  9
$SURFTAB2
 70
     6
  9
$SURFTYPE
 70
     6
  9
$SURFU
 70
     6
  9
$SURFV
 70
     6
  9
$UCSBASE
  2

  9
$UCSNAME
  2

  9
$UCSORG
 10
0.0
 20
0.0
 30
0.0
  9
$UCSXDIR
 10
1.0
 20
0.0
 30
0.0
  9
$UCSYDIR
 10
0.0
 20
1.0
 30
0.0
  9
$UCSORTHOREF
  2

  9
$UCSORTHOVIEW
 70
     0
  9
$UCSORGTOP
 10
0.0
 20
0.0
 30
0.0
  9
$UCSORGBOTTOM
 10
0.0
 20
0.0
 30
0.0
  9
$UCSORGLEFT
 10
0.0
 20
0.0
 30
0.0
  9
$UCSORGRIGHT
 10
0.0
 20
0.0
 30
0.0
  9
$UCSORGFRONT
 10
0.0
 20
0.0
 30
0.0
  9
$UCSORGBACK
 10
0.0
 20
0.0
 30
0.0
  9
$PUCSBASE
  2

  9
$PUCSNAME
  2

  9
$PUCSORG
 10
0.0
 20
0.0
 30
0.0
  9
$PUCSXDIR
 10
1.0
 20
0.0
 30
0.0
  9
$PUCSYDIR
 10
0.0
 20
1.0
 30
0.0
  9
$PUCSORTHOREF
  2

  9
$PUCSORTHOVIEW
 70
     0
  9
$PUCSORGTOP
 10
0.0
 20
0.0
 30
0.0
  9
$PUCSORGBOTTOM
 10
0.0
 20
0.0
 30
0.0
  9
$PUCSORGLEFT
 10
0.0
 20
0.0
 30
0.0
  9
$PUCSORGRIGHT
 10
0.0
 20
0.0
 30
0.0
  9
$PUCSORGFRONT
 10
0.0
 20
0.0
 30
0.0
  9
$PUCSORGBACK
 10
0.0
 20
0.0
 30
0.0
  9
$USERI1
 70
     0
  9
$USERI2
 70
     0
  9
$USERI3
 70
     0
  9
$USERI4
 70
     0
  9
$USERI5
 70
     0
  9
$USERR1
 40
0.0
  9
$USERR2
 40
0.0
  9
$USERR3
 40
0.0
  9
$USERR4
 40
0.0
  9
$USERR5
 40
0.0
  9
$WORLDVIEW
 70
     1
  9
$SHADEDGE
 70
     3
  9
$SHADEDIF
 70
    70
  9
$TILEMODE
 70
     1
  9
$MAXACTVP
 70
    64
  9
$PINSBASE
 10
0.0
 20
0.0
 30
0.0
  9
$PLIMCHECK
 70
     0
  9
$PEXTMIN
 10
0.0
 20
0.0
 30
0.0
  9
$PEXTMAX
 10
297.0
 20
210.0
 30
0.0
  9
$PLIMMIN
 10
0.0
 20
0.0
  9
$PLIMMAX
 10
0.0
 20
0.0
  9
$UNITMODE
 70
     0
  9
$VISRETAIN
 70
     1
  9
$PLINEGEN
 70
     0
  9
$PSLTSCALE
 70
     1
  9
$TREEDEPTH
 70
  3020
  9
$CMLSTYLE
  2
Standard
  9
$CMLJUST
 70
     0
  9
$CMLSCALE
 40
1.0
  9
$PROXYGRAPHICS
 70
     1
  9
$MEASUREMENT
 70
     0
  9
$CELWEIGHT
370
    -1
  9
$ENDCAPS
280
     0
  9
$JOINSTYLE
280
     0
  9
$LWDISPLAY
290
     0
  9
$INSUNITS
 70
     0
  9
$HYPERLINKBASE
  1

  9
$STYLESHEET
  1

  9
$XEDIT
290
     1
  9
$CEPSNTYPE
380
     0
  9
$PSTYLEMODE
290
     1
  9
$FINGERPRINTGUID
  2
{D4B4C4C5-E44A-46E0-9396-5937A01EDFDE}
  9
$VERSIONGUID
  2
{FAEB1C32-E019-11D5-929B-00C0DF256EC4}
  9
$EXTNAMES
290
     1
  9
$PSVPSCALE
 40
0.0
  9
$OLESTARTUP
290
     0
  0
ENDSEC
  0
SECTION
  2
CLASSES
  0
CLASS
  1
ACDBDICTIONARYWDFLT
  2
AcDbDictionaryWithDefault
  3
ObjectDBX Classes
 90
        0
280
     0
281
     0
  0
CLASS
  1
SCALE
  2
AcDbScale
  3
ObjectDBX Classes
 90
     1153
280
     0
281
     0
  0
CLASS
  1
VISUALSTYLE
  2
AcDbVisualStyle
  3
ObjectDBX Classes
 90
     4095
280
     0
281
     0
  0
CLASS
  1
MATERIAL
  2
AcDbMaterial
  3
ObjectDBX Classes
 90
     1153
280
     0
281
     0
  0
CLASS
  1
TABLESTYLE
  2
AcDbTableStyle
  3
ObjectDBX Classes
 90
     4095
280
     0
281
     0
  0
CLASS
  1
MLEADERSTYLE
  2
AcDbMLeaderStyle
  3
ACDB_MLEADERSTYLE_CLASS
 90
     4095
280
     0
281
     0
  0
CLASS
  1
DICTIONARYVAR
  2
AcDbDictionaryVar
  3
ObjectDBX Classes
 90
        0
280
     0
281
     0
  0
CLASS
  1
SUN
  2
AcDbSun
  3
SCENEOE
 90
     1153
280
     0
281
     0
  0
CLASS
  1
ACDBPLACEHOLDER
  2
AcDbPlaceHolder
  3
ObjectDBX Classes
 90
        0
280
     0
281
     0
  0
CLASS
  1
LAYOUT
  2
AcDbLayout
  3
ObjectDBX Classes
 90
        0
280
     0
281
     0
  0
ENDSEC
  0
SECTION
  2
TABLES
  0
TABLE
  2
VPORT
  5
8
330
0
100
AcDbSymbolTable
 70
     1
  0
VPORT
  5
2C
330
8
100
AcDbSymbolTableRecord
100
AcDbViewportTableRecord
  2
*Active
 70
     0
 10
0.0
 20
0.0
 11
1.0
 21
1.0
 12
338.9452105277066
 22
219.9966017536759
 13
0.0
 23
0.0
 14
10.0
 24
10.0
 15
0.5
 25
0.5
 16
0.0
 26
0.0
 36
1.0
 17
0.0
 27
0.0
 37
0.0
 40
780.6255641895623
 41
2.111409395973154
 42
50.0
 43
0.0
 44
0.0
 50
0.0
 51
0.0
 71
    16
 72
   100
 73
     1
 74
     3
 75
     1
 76
     0
 77
     0
 78
     0
281
     0
 65
     1
110
0.0
120
0.0
130
0.0
111
1.0
121
0.0
131
0.0
112
0.0
122
1.0
132
0.0
 79
     0
146
0.0
  0
ENDTAB
  0
TABLE
  2
LTYPE
  5
5
330
0
100
AcDbSymbolTable
 70
     7
  0
LTYPE
  5
14
330
5
100
AcDbSymbolTableRecord
100
AcDbLinetypeTableRecord
  2
ByBlock
 70
     0
  3

 72
    65
 73
     0
 40
0.0
  0
LTYPE
  5
15
330
5
100
AcDbSymbolTableRecord
100
AcDbLinetypeTableRecord
  2
ByLayer
 70
     0
  3

 72
    65
 73
     0
 40
0.0
  0
LTYPE
  5
16
330
5
100
AcDbSymbolTableRecord
100
AcDbLinetypeTableRecord
  2
CONTINUOUS
 70
     0
  3
Solid line
 72
    65
 73
     0
 40
0.0
  0
LTYPE
  5
21
330
5
100
AcDbSymbolTableRecord
100
AcDbLinetypeTableRecord
  2
HIDDEN
 70
     0
  3
------------------------
 72
    65
 73
     2
 40
12.6
 49
8.4
 74
     0
 49
-4.2
 74
     0
  0
LTYPE
  5
22
330
5
100
AcDbSymbolTableRecord
100
AcDbLinetypeTableRecord
  2
DOT
 70
     0
  3
････････････････････････
 72
    65
 73
     2
 40
8.0
 49
6.0
 74
     0
 49
-2.0
 74
     0
  0
LTYPE
  5
23
330
5
100
AcDbSymbolTableRecord
100
AcDbLinetypeTableRecord
  2
DASHDOT
 70
     0
  3
--･--･--･--･--･--･--･--
 72
    65
 73
     4
 40
50.5
 49
30.0
 74
     0
 49
-9.0
 74
     0
 49
2.5
 74
     0
 49
-9.0
 74
     0
  0
LTYPE
  5
24
330
5
100
AcDbSymbolTableRecord
100
AcDbLinetypeTableRecord
  2
DIVIDE
 70
     0
  3
--･･--･･--･･--･･--･･--
 72
    65
 73
     6
 40
58.0
 49
30.0
 74
     0
 49
-9.0
 74
     0
 49
2.5
 74
     0
 49
-5.0
 74
     0
 49
2.5
 74
     0
 49
-9.0
 74
     0
  0
LTYPE
  5
25
330
5
100
AcDbSymbolTableRecord
100
AcDbLinetypeTableRecord
  2
ACAD_ISO06W100
 70
     0
  3
____ ... ____ ... ____
 72
    65
 73
     8
 40
37.5
 49
24.0
 74
     0
 49
-3.0
 74
     0
 49
0.5
 74
     0
 49
-3.0
 74
     0
 49
0.5
 74
     0
 49
-3.0
 74
     0
 49
0.5
 74
     0
 49
-3.0
 74
     0
  0
LTYPE
  5
26
330
5
100
AcDbSymbolTableRecord
100
AcDbLinetypeTableRecord
  2
ACAD_ISO14W100
 70
     0
  3
__ . . . __ . . . __ . . . 
 72
    65
 73
     8
 40
25.5
 49
12.0
 74
     0
 49
-3.0
 74
     0
 49
0.5
 74
     0
 49
-3.0
 74
     0
 49
0.5
 74
     0
 49
-3.0
 74
     0
 49
0.5
 74
     0
 49
-3.0
 74
     0
  0
ENDTAB
  0
TABLE
  2
LAYER
  5
2
330
0
100
AcDbSymbolTable
 70
     3
  0
LAYER
  5
10
330
2
100
AcDbSymbolTableRecord
100
AcDbLayerTableRecord
  2
0
 70
     0
 62
     7
  6
CONTINUOUS
370
    -3
390
F
  0
LAYER
  5
27
330
2
100
AcDbSymbolTableRecord
100
AcDbLayerTableRecord
  2
1
 70
     0
 62
     7
  6
CONTINUOUS
370
    -3
390
F
  0
LAYER
  5
28
330
2
100
AcDbSymbolTableRecord
100
AcDbLayerTableRecord
  2
24
 70
     0
 62
     7
  6
CONTINUOUS
370
    -3
390
F
  0
ENDTAB
  0
TABLE
  2
STYLE
  5
3
330
0
100
AcDbSymbolTable
 70
     2
  0
STYLE
  5
11
330
3
100
AcDbSymbolTableRecord
100
AcDbTextStyleTableRecord
  2
STANDARD
 70
     0
 40
0.0
 41
1.0
 50
0.0
 71
     0
 42
0.2
  3
TXT
  4

  0
STYLE
  5
2A
330
3
100
AcDbSymbolTableRecord
100
AcDbTextStyleTableRecord
  2
KANJI
 70
     0
 40
0.0
 41
1.0
 50
0.0
 71
     0
 42
0.2
  3
TXT
  4
BIGFONT
  0
ENDTAB
  0
TABLE
  2
VIEW
  5
6
330
0
100
AcDbSymbolTable
 70
     0
  0
ENDTAB
  0
TABLE
  2
UCS
  5
7
330
0
100
AcDbSymbolTable
 70
     0
  0
ENDTAB
  0
TABLE
  2
APPID
  5
9
330
0
100
AcDbSymbolTable
 70
     1
  0
APPID
  5
12
330
9
100
AcDbSymbolTableRecord
100
AcDbRegAppTableRecord
  2
ACAD
 70
     0
  0
ENDTAB
  0
TABLE
  2
DIMSTYLE
  5
A
330
0
100
AcDbSymbolTable
 70
     1
100
AcDbDimStyleTable
  0
DIMSTYLE
105
2B
330
A
100
AcDbSymbolTableRecord
100
AcDbDimStyleTableRecord
  2
Standard
 70
     0
178
     0
340
11
  0
ENDTAB
  0
TABLE
  2
BLOCK_RECORD
  5
1
330
0
100
AcDbSymbolTable
 70
     0
  0
BLOCK_RECORD
  5
1D
330
1
100
AcDbSymbolTableRecord
100
AcDbBlockTableRecord
  2
*Model_Space
340
1E
  0
BLOCK_RECORD
  5
1B
330
1
100
AcDbSymbolTableRecord
100
AcDbBlockTableRecord
  2
*Paper_Space
340
1C
  0
ENDTAB
  0
ENDSEC
  0
SECTION
  2
BLOCKS
  0
BLOCK
  5
D8
330
1D
100
AcDbEntity
  8
0
100
AcDbBlockBegin
  2
*Model_Space
 70
     0
 10
0.0
 20
0.0
 30
0.0
  3
*Model_Space
  1

  0
ENDBLK
  5
D9
330
1D
100
AcDbEntity
  8
0
100
AcDbBlockEnd
  0
BLOCK
  5
DA
330
1B
100
AcDbEntity
 67
     1
  8
0
100
AcDbBlockBegin
  2
*Paper_Space
 70
     0
 10
0.0
 20
0.0
 30
0.0
  3
*Paper_Space
  1

  0
ENDBLK
  5
DB
330
1B
100
AcDbEntity
 67
     1
  8
0
100
AcDbBlockEnd
  0
ENDSEC
  0
SECTION
  2
ENTITIES
  0
ARC
  5
2D
330
1D
100
AcDbEntity
  8
24
  6
Continuous
 62
     7
100
AcDbCircle
 10
95.881872
 20
36.221975
 30
0.0
 40
2.0
100
AcDbArc
 50
41.247274
 51
180.0
  0
ARC
  5
2E
330
1D
100
AcDbEntity
  8
24
  6
Continuous
 62
     7
100
AcDbCircle
 10
120.380872
 20
43.328073
 30
0.0
 40
2.0
100
AcDbArc
 50
0.0
 51
90.0
  0
ARC
  5
2F
330
1D
100
AcDbEntity
  8
24
  6
Continuous
 62
     7
100
AcDbCircle
 10
114.642019
 20
14.828073
 30
0.0
 40
2.0
100
AcDbArc
 50
270.0
 51
41.247274
  0
ARC
  5
30
330
1D
100
AcDbEntity
  8
24
  6
Continuous
 62
     7
100
AcDbCircle
 10
120.380872
 20
21.934172
 30
0.0
 40
2.0
100
AcDbArc
 50
221.247274
 51
0.0
  0
ARC
  5
31
330
1D
100
AcDbEntity
  8
24
  6
Continuous
 62
     7
100
AcDbCircle
 10
95.881872
 20
14.828073
 30
0.0
 40
2.0
100
AcDbArc
 50
180.0
 51
270.0
  0
ARC
  5
32
330
1D
100
AcDbEntity
  8
24
  6
Continuous
 62
     7
100
AcDbCircle
 10
43.881872
 20
14.828073
 30
0.0
 40
2.0
100
AcDbArc
 50
270.0
 51
0.0
  0
ARC
  5
33
330
1D
100
AcDbEntity
  8
24
  6
Continuous
 62
     7
100
AcDbCircle
 10
101.620724
 20
43.328073
 30
0.0
 40
2.0
100
AcDbArc
 50
90.0
 51
221.247274
  0
ARC
  5
34
330
1D
100
AcDbEntity
  8
24
  6
Continuous
 62
     7
100
AcDbCircle
 10
43.881872
 20
36.221975
 30
0.0
 40
2.0
100
AcDbArc
 50
0.0
 51
138.752726
  0
ARC
  5
35
330
1D
100
AcDbEntity
  8
24
  6
Continuous
 62
     7
100
AcDbCircle
 10
25.121724
 20
14.828073
 30
0.0
 40
2.0
100
AcDbArc
 50
138.752726
 51
270.0
  0
ARC
  5
36
330
1D
100
AcDbEntity
  8
24
  6
Continuous
 62
     7
100
AcDbCircle
 10
19.382872
 20
21.934172
 30
0.0
 40
2.0
100
AcDbArc
 50
180.0
 51
318.752726
  0
ARC
  5
37
330
1D
100
AcDbEntity
  8
24
  6
Continuous
 62
     7
100
AcDbCircle
 10
38.143019
 20
43.328073
 30
0.0
 40
2.0
100
AcDbArc
 50
318.752726
 51
90.0
  0
ARC
  5
38
330
1D
100
AcDbEntity
  8
24
  6
Continuous
 62
     7
100
AcDbCircle
 10
19.382872
 20
43.328073
 30
0.0
 40
2.0
100
AcDbArc
 50
90.0
 51
180.0
  0
LINE
  5
39
330
1D
100
AcDbEntity
  8
24
  6
Continuous
 62
     7
100
AcDbLine
 10
93.881872
 20
14.828073
 30
0.0
 11
93.881872
 21
36.221975
 31
0.0
  0
LINE
  5
3A
330
1D
100
AcDbEntity
  8
24
  6
Continuous
 62
     7
100
AcDbLine
 10
101.620724
 20
45.328073
 30
0.0
 11
120.380872
 21
45.328073
 31
0.0
  0
LINE
  5
3B
330
1D
100
AcDbEntity
  8
24
  6
Continuous
 62
     7
100
AcDbLine
 10
97.385614
 20
37.540595
 30
0.0
 11
116.145761
 21
16.146693
 31
0.0
  0
LINE
  5
3C
330
1D
100
AcDbEntity
  8
24
  6
Continuous
 62
     7
100
AcDbLine
 10
122.380872
 20
43.328073
 30
0.0
 11
122.380872
 21
21.934172
 31
0.0
  0
LINE
  5
3D
330
1D
100
AcDbEntity
  8
24
  6
Continuous
 62
     7
100
AcDbLine
 10
114.642019
 20
12.828073
 30
0.0
 11
95.881872
 21
12.828073
 31
0.0
  0
LINE
  5
3E
330
1D
100
AcDbEntity
  8
24
  6
Continuous
 62
     7
100
AcDbLine
 10
45.881872
 20
36.221975
 30
0.0
 11
45.881872
 21
14.828073
 31
0.0
  0
LINE
  5
3F
330
1D
100
AcDbEntity
  8
24
  6
Continuous
 62
     7
100
AcDbLine
 10
118.877129
 20
20.615552
 30
0.0
 11
100.116982
 21
42.009453
 31
0.0
  0
LINE
  5
40
330
1D
100
AcDbEntity
  8
24
  6
Continuous
 62
     7
100
AcDbLine
 10
23.617982
 20
16.146693
 30
0.0
 11
42.378129
 21
37.540595
 31
0.0
  0
LINE
  5
41
330
1D
100
AcDbEntity
  8
24
  6
Continuous
 62
     7
100
AcDbLine
 10
43.881872
 20
12.828073
 30
0.0
 11
25.121724
 21
12.828073
 31
0.0
  0
LINE
  5
42
330
1D
100
AcDbEntity
  8
24
  6
Continuous
 62
     7
100
AcDbLine
 10
39.646761
 20
42.009453
 30
0.0
 11
20.886614
 21
20.615552
 31
0.0
  0
LINE
  5
43
330
1D
100
AcDbEntity
  8
24
  6
Continuous
 62
     7
100
AcDbLine
 10
19.382872
 20
45.328073
 30
0.0
 11
38.143019
 21
45.328073
 31
0.0
  0
LINE
  5
44
330
1D
100
AcDbEntity
  8
24
  6
Continuous
 62
     7
100
AcDbLine
 10
17.382872
 20
21.934172
 30
0.0
 11
17.382872
 21
43.328073
 31
0.0
  0
CIRCLE
  5
45
330
1D
100
AcDbEntity
  8
24
  6
Continuous
 62
     7
100
AcDbCircle
 10
69.881872
 20
29.078073
 30
0.0
 40
16.25
  0
CIRCLE
  5
46
330
1D
100
AcDbEntity
  8
24
  6
Continuous
 62
     7
100
AcDbCircle
 10
89.881872
 20
34.078073
 30
0.0
 40
0.7835
  0
CIRCLE
  5
47
330
1D
100
AcDbEntity
  8
24
  6
Continuous
 62
     7
100
AcDbCircle
 10
49.881872
 20
34.078073
 30
0.0
 40
0.7835
  0
CIRCLE
  5
48
330
1D
100
AcDbEntity
  8
24
  6
Continuous
 62
     7
100
AcDbCircle
 10
49.881872
 20
24.078073
 30
0.0
 40
0.7835
  0
CIRCLE
  5
49
330
1D
100
AcDbEntity
  8
24
  6
Continuous
 62
     7
100
AcDbCircle
 10
89.881872
 20
24.078073
 30
0.0
 40
0.7835
  0
ARC
  5
4A
330
1D
100
AcDbEntity
  8
24
  6
Continuous
 62
     7
100
AcDbCircle
 10
7.999
 20
6.0
 30
0.0
 40
3.0
100
AcDbArc
 50
250.508521
 51
0.0
  0
ARC
  5
4B
330
1D
100
AcDbEntity
  8
24
  6
Continuous
 62
     7
100
AcDbCircle
 10
131.764743
 20
6.0
 30
0.0
 40
3.0
100
AcDbArc
 50
180.0
 51
289.491479
  0
LINE
  5
4C
330
1D
100
AcDbEntity
  8
24
  6
Continuous
 62
     7
100
AcDbLine
 10
10.999
 20
6.0
 30
0.0
 11
10.999
 21
7.828073
 31
0.0
  0
LINE
  5
4D
330
1D
100
AcDbEntity
  8
24
  6
Continuous
 62
     7
100
AcDbLine
 10
128.764743
 20
7.828073
 30
0.0
 11
128.764743
 21
6.0
 31
0.0
  0
LINE
  5
4E
330
1D
100
AcDbEntity
  8
24
  6
Continuous
 62
     7
100
AcDbLine
 10
12.382872
 20
7.828073
 30
0.0
 11
128.764743
 21
7.828073
 31
0.0
  0
LINE
  5
4F
330
1D
100
AcDbEntity
  8
24
  6
Continuous
 62
     7
100
AcDbLine
 10
10.999
 20
7.828073
 30
0.0
 11
12.382872
 21
7.828073
 31
0.0
  0
ARC
  5
50
330
1D
100
AcDbEntity
  8
24
  6
Continuous
 62
     7
100
AcDbCircle
 10
134.763743
 20
77.710945
 30
0.0
 40
2.0
100
AcDbArc
 50
0.0
 51
90.0
  0
ARC
  5
51
330
1D
100
AcDbEntity
  8
24
  6
Continuous
 62
     7
100
AcDbCircle
 10
5.0
 20
77.710945
 30
0.0
 40
2.0
100
AcDbArc
 50
90.0
 51
180.0
  0
ARC
  5
52
330
1D
100
AcDbEntity
  8
24
  6
Continuous
 62
     7
100
AcDbCircle
 10
134.763743
 20
63.711945
 30
0.0
 40
2.0
100
AcDbArc
 50
270.0
 51
0.0
  0
ARC
  5
53
330
1D
100
AcDbEntity
  8
24
  6
Continuous
 62
     7
100
AcDbCircle
 10
5.0
 20
63.711945
 30
0.0
 40
2.0
100
AcDbArc
 50
180.0
 51
270.0
  0
ARC
  5
54
330
1D
100
AcDbEntity
  8
24
  6
Continuous
 62
     7
100
AcDbCircle
 10
134.763743
 20
30.828073
 30
0.0
 40
2.0
100
AcDbArc
 50
0.0
 51
90.0
  0
ARC
  5
55
330
1D
100
AcDbEntity
  8
24
  6
Continuous
 62
     7
100
AcDbCircle
 10
116.881872
 20
77.710945
 30
0.0
 40
2.0
100
AcDbArc
 50
90.0
 51
180.0
  0
ARC
  5
56
330
1D
100
AcDbEntity
  8
24
  6
Continuous
 62
     7
100
AcDbCircle
 10
112.881872
 20
71.710945
 30
0.0
 40
2.0
100
AcDbArc
 50
270.0
 51
0.0
  0
ARC
  5
57
330
1D
100
AcDbEntity
  8
24
  6
Continuous
 62
     7
100
AcDbCircle
 10
26.881872
 20
71.710945
 30
0.0
 40
2.0
100
AcDbArc
 50
180.0
 51
270.0
  0
ARC
  5
58
330
1D
100
AcDbEntity
  8
24
  6
Continuous
 62
     7
100
AcDbCircle
 10
22.881872
 20
77.710945
 30
0.0
 40
2.0
100
AcDbArc
 50
0.0
 51
90.0
  0
ARC
  5
59
330
1D
100
AcDbEntity
  8
24
  6
Continuous
 62
     7
100
AcDbCircle
 10
5.0
 20
30.828073
 30
0.0
 40
2.0
100
AcDbArc
 50
90.0
 51
180.0
  0
LINE
  5
5A
330
1D
100
AcDbEntity
  8
24
  6
Continuous
 62
     7
100
AcDbLine
 10
136.763743
 20
77.710945
 30
0.0
 11
136.763743
 21
63.711945
 31
0.0
  0
LINE
  5
5B
330
1D
100
AcDbEntity
  8
24
  6
Continuous
 62
     7
100
AcDbLine
 10
3.0
 20
63.711945
 30
0.0
 11
3.0
 21
77.710945
 31
0.0
  0
LINE
  5
5C
330
1D
100
AcDbEntity
  8
24
  6
Continuous
 62
     7
100
AcDbLine
 10
5.0
 20
79.710945
 30
0.0
 11
12.382872
 21
79.710945
 31
0.0
  0
LINE
  5
5D
330
1D
100
AcDbEntity
  8
24
  6
Continuous
 62
     7
100
AcDbLine
 10
12.382872
 20
79.710945
 30
0.0
 11
22.881872
 21
79.710945
 31
0.0
  0
LINE
  5
5E
330
1D
100
AcDbEntity
  8
24
  6
Continuous
 62
     7
100
AcDbLine
 10
116.881872
 20
79.710945
 30
0.0
 11
134.763743
 21
79.710945
 31
0.0
  0
LINE
  5
5F
330
1D
100
AcDbEntity
  8
24
  6
Continuous
 62
     7
100
AcDbLine
 10
127.380872
 20
61.711945
 30
0.0
 11
134.763743
 21
61.711945
 31
0.0
  0
LINE
  5
60
330
1D
100
AcDbEntity
  8
24
  6
Continuous
 62
     7
100
AcDbLine
 10
5.0
 20
61.711945
 30
0.0
 11
12.382872
 21
61.711945
 31
0.0
  0
CIRCLE
  5
61
330
1D
100
AcDbEntity
  8
24
  6
Continuous
 62
     7
100
AcDbCircle
 10
8.0
 20
6.828073
 30
0.0
 40
1.2295
  0
CIRCLE
  5
62
330
1D
100
AcDbEntity
  8
24
  6
Continuous
 62
     7
100
AcDbCircle
 10
133.764743
 20
69.710945
 30
0.0
 40
1.2295
  0
CIRCLE
  5
63
330
1D
100
AcDbEntity
  8
24
  6
Continuous
 62
     7
100
AcDbCircle
 10
131.763743
 20
6.828073
 30
0.0
 40
1.2295
  0
CIRCLE
  5
64
330
1D
100
AcDbEntity
  8
24
  6
Continuous
 62
     7
100
AcDbCircle
 10
5.999
 20
69.710945
 30
0.0
 40
1.2295
  0
ARC
  5
65
330
1D
100
AcDbEntity
  8
24
  6
Continuous
 62
     7
100
AcDbCircle
 10
130.763743
 20
8.828073
 30
0.0
 40
6.0
100
AcDbArc
 50
289.491479
 51
0.0
  0
ARC
  5
66
330
1D
100
AcDbEntity
  8
24
  6
Continuous
 62
     7
100
AcDbCircle
 10
9.0
 20
8.828073
 30
0.0
 40
6.0
100
AcDbArc
 50
180.0
 51
250.508521
  0
LINE
  5
67
330
1D
100
AcDbEntity
  8
24
  6
Continuous
 62
     7
100
AcDbLine
 10
136.763743
 20
30.828073
 30
0.0
 11
136.763743
 21
8.828073
 31
0.0
  0
LINE
  5
68
330
1D
100
AcDbEntity
  8
24
  6
Continuous
 62
     7
100
AcDbLine
 10
3.0
 20
8.828073
 30
0.0
 11
3.0
 21
30.828073
 31
0.0
  0
LINE
  5
69
330
1D
100
AcDbEntity
  8
24
  6
Continuous
 62
     7
100
AcDbLine
 10
134.763743
 20
32.828073
 30
0.0
 11
127.380872
 21
32.828073
 31
0.0
  0
LINE
  5
6A
330
1D
100
AcDbEntity
  8
24
  6
Continuous
 62
     7
100
AcDbLine
 10
127.380872
 20
61.711945
 30
0.0
 11
127.380872
 21
32.828073
 31
0.0
  0
LINE
  5
6B
330
1D
100
AcDbEntity
  8
24
  6
Continuous
 62
     7
100
AcDbLine
 10
12.382872
 20
61.711945
 30
0.0
 11
12.382872
 21
32.828073
 31
0.0
  0
LINE
  5
6C
330
1D
100
AcDbEntity
  8
24
  6
Continuous
 62
     7
100
AcDbLine
 10
12.382872
 20
32.828073
 30
0.0
 11
5.0
 21
32.828073
 31
0.0
  0
LINE
  5
6D
330
1D
100
AcDbEntity
  8
24
  6
Continuous
 62
     7
100
AcDbLine
 10
114.881872
 20
77.710945
 30
0.0
 11
114.881872
 21
71.710945
 31
0.0
  0
LINE
  5
6E
330
1D
100
AcDbEntity
  8
24
  6
Continuous
 62
     7
100
AcDbLine
 10
112.881872
 20
69.710945
 30
0.0
 11
26.881872
 21
69.710945
 31
0.0
  0
LINE
  5
6F
330
1D
100
AcDbEntity
  8
24
  6
Continuous
 62
     7
100
AcDbLine
 10
24.881872
 20
71.710945
 30
0.0
 11
24.881872
 21
77.710945
 31
0.0
  0
LINE
  5
70
330
1D
100
AcDbEntity
  8
24
  6
Continuous
 62
     7
100
AcDbLine
 10
72.064716
 20
98.310945
 30
0.0
 11
24.0
 21
98.310945
 31
0.0
  0
LINE
  5
71
330
1D
100
AcDbEntity
  8
24
  6
Continuous
 62
     7
100
AcDbLine
 10
30.382358
 20
88.310945
 30
0.0
 11
30.382358
 21
91.810945
 31
0.0
  0
LINE
  5
72
330
1D
100
AcDbEntity
  8
24
  6
Continuous
 62
     7
100
AcDbLine
 10
63.682358
 20
86.310945
 30
0.0
 11
32.382358
 21
86.310945
 31
0.0
  0
LINE
  5
73
330
1D
100
AcDbEntity
  8
24
  6
Continuous
 62
     7
100
AcDbLine
 10
32.382358
 20
93.810945
 30
0.0
 11
63.682358
 21
93.810945
 31
0.0
  0
LINE
  5
74
330
1D
100
AcDbEntity
  8
24
  6
Continuous
 62
     7
100
AcDbLine
 10
65.682358
 20
91.810945
 30
0.0
 11
65.682358
 21
88.310945
 31
0.0
  0
LINE
  5
75
330
1D
100
AcDbEntity
  8
24
  6
Continuous
 62
     7
100
AcDbLine
 10
72.064716
 20
110.810945
 30
0.0
 11
72.064716
 21
98.310945
 31
0.0
  0
LINE
  5
76
330
1D
100
AcDbEntity
  8
24
  6
Continuous
 62
     7
100
AcDbLine
 10
24.0
 20
98.310945
 30
0.0
 11
24.0
 21
110.810945
 31
0.0
  0
ARC
  5
77
330
1D
100
AcDbEntity
  8
24
  6
Continuous
 62
     7
100
AcDbCircle
 10
32.382358
 20
91.810945
 30
0.0
 40
2.0
100
AcDbArc
 50
90.0
 51
180.0
  0
ARC
  5
78
330
1D
100
AcDbEntity
  8
24
  6
Continuous
 62
     7
100
AcDbCircle
 10
32.382358
 20
88.310945
 30
0.0
 40
2.0
100
AcDbArc
 50
180.0
 51
270.0
  0
ARC
  5
79
330
1D
100
AcDbEntity
  8
24
  6
Continuous
 62
     7
100
AcDbCircle
 10
63.682358
 20
91.810945
 30
0.0
 40
2.0
100
AcDbArc
 50
0.0
 51
90.0
  0
ARC
  5
7A
330
1D
100
AcDbEntity
  8
24
  6
Continuous
 62
     7
100
AcDbCircle
 10
63.682358
 20
88.310945
 30
0.0
 40
2.0
100
AcDbArc
 50
270.0
 51
0.0
  0
LINE
  5
7B
330
1D
100
AcDbEntity
  8
24
  6
Continuous
 62
     7
100
AcDbLine
 10
24.0
 20
110.810945
 30
0.0
 11
5.0
 21
110.810945
 31
0.0
  0
ARC
  5
7C
330
1D
100
AcDbEntity
  8
24
  6
Continuous
 62
     7
100
AcDbCircle
 10
5.0
 20
83.810945
 30
0.0
 40
2.0
100
AcDbArc
 50
180.0
 51
270.0
  0
LINE
  5
7D
330
1D
100
AcDbEntity
  8
24
  6
Continuous
 62
     7
100
AcDbLine
 10
3.0
 20
89.278691
 30
0.0
 11
3.0
 21
83.810945
 31
0.0
  0
ARC
  5
7E
330
1D
100
AcDbEntity
  8
24
  6
Continuous
 62
     7
100
AcDbCircle
 10
5.0
 20
108.810945
 30
0.0
 40
2.0
100
AcDbArc
 50
90.0
 51
180.0
  0
LINE
  5
7F
330
1D
100
AcDbEntity
  8
24
  6
Continuous
 62
     7
100
AcDbLine
 10
3.0
 20
108.810945
 30
0.0
 11
3.0
 21
103.343199
 31
0.0
  0
ARC
  5
80
330
1D
100
AcDbEntity
  8
24
  6
Continuous
 62
     7
100
AcDbCircle
 10
5.0
 20
103.343199
 30
0.0
 40
2.0
100
AcDbArc
 50
180.0
 51
274.06613
  0
ARC
  5
81
330
1D
100
AcDbEntity
  8
24
  6
Continuous
 62
     7
100
AcDbCircle
 10
5.0
 20
89.278691
 30
0.0
 40
2.0
100
AcDbArc
 50
85.93387
 51
180.0
  0
CIRCLE
  5
82
330
1D
100
AcDbEntity
  8
24
  6
Continuous
 62
     7
100
AcDbCircle
 10
5.4999
 20
104.810945
 30
0.0
 40
1.35
  0
CIRCLE
  5
83
330
1D
100
AcDbEntity
  8
24
  6
Continuous
 62
     7
100
AcDbCircle
 10
13.9999
 20
96.310945
 30
0.0
 40
1.35
  0
CIRCLE
  5
84
330
1D
100
AcDbEntity
  8
24
  6
Continuous
 62
     7
100
AcDbCircle
 10
20.0
 20
86.310945
 30
0.0
 40
1.2
  0
CIRCLE
  5
85
330
1D
100
AcDbEntity
  8
24
  6
Continuous
 62
     7
100
AcDbCircle
 10
20.0
 20
106.310945
 30
0.0
 40
1.2
  0
CIRCLE
  5
86
330
1D
100
AcDbEntity
  8
24
  6
Continuous
 62
     7
100
AcDbCircle
 10
5.4999
 20
87.810945
 30
0.0
 40
1.35
  0
ARC
  5
87
330
1D
100
AcDbEntity
  8
24
  6
Continuous
 62
     7
100
AcDbCircle
 10
5.4999
 20
96.310945
 30
0.0
 40
5.05
100
AcDbArc
 50
265.93387
 51
94.06612999999999
  0
ARC
  5
88
330
1D
100
AcDbEntity
  8
24
  6
Continuous
 62
     7
100
AcDbCircle
 10
91.064716
 20
83.810945
 30
0.0
 40
2.0
100
AcDbArc
 50
270.0
 51
0.0
  0
ARC
  5
89
330
1D
100
AcDbEntity
  8
24
  6
Continuous
 62
     7
100
AcDbCircle
 10
91.064716
 20
89.278691
 30
0.0
 40
2.0
100
AcDbArc
 50
0.0
 51
94.06612999999999
  0
ARC
  5
8A
330
1D
100
AcDbEntity
  8
24
  6
Continuous
 62
     7
100
AcDbCircle
 10
91.064716
 20
103.343199
 30
0.0
 40
2.0
100
AcDbArc
 50
265.93387
 51
0.0
  0
ARC
  5
8B
330
1D
100
AcDbEntity
  8
24
  6
Continuous
 62
     7
100
AcDbCircle
 10
91.064716
 20
108.810945
 30
0.0
 40
2.0
100
AcDbArc
 50
0.0
 51
90.0
  0
LINE
  5
8C
330
1D
100
AcDbEntity
  8
24
  6
Continuous
 62
     7
100
AcDbLine
 10
91.064716
 20
81.810945
 30
0.0
 11
5.0
 21
81.810945
 31
0.0
  0
CIRCLE
  5
8D
330
1D
100
AcDbEntity
  8
24
  6
Continuous
 62
     7
100
AcDbCircle
 10
37.532358
 20
96.310945
 30
0.0
 40
0.8
  0
CIRCLE
  5
8E
330
1D
100
AcDbEntity
  8
24
  6
Continuous
 62
     7
100
AcDbCircle
 10
58.532358
 20
96.310945
 30
0.0
 40
0.8
  0
CIRCLE
  5
8F
330
1D
100
AcDbEntity
  8
24
  6
Continuous
 62
     7
100
AcDbCircle
 10
58.532358
 20
83.810945
 30
0.0
 40
0.8
  0
CIRCLE
  5
90
330
1D
100
AcDbEntity
  8
24
  6
Continuous
 62
     7
100
AcDbCircle
 10
37.532358
 20
83.810945
 30
0.0
 40
0.8
  0
LINE
  5
91
330
1D
100
AcDbEntity
  8
24
  6
Continuous
 62
     7
100
AcDbLine
 10
93.064716
 20
89.278691
 30
0.0
 11
93.064716
 21
83.810945
 31
0.0
  0
LINE
  5
92
330
1D
100
AcDbEntity
  8
24
  6
Continuous
 62
     7
100
AcDbLine
 10
93.064716
 20
108.810945
 30
0.0
 11
93.064716
 21
103.343199
 31
0.0
  0
LINE
  5
93
330
1D
100
AcDbEntity
  8
24
  6
Continuous
 62
     7
100
AcDbLine
 10
72.064716
 20
110.810945
 30
0.0
 11
91.064716
 21
110.810945
 31
0.0
  0
ARC
  5
94
330
1D
100
AcDbEntity
  8
24
  6
Continuous
 62
     7
100
AcDbCircle
 10
90.564816
 20
96.310945
 30
0.0
 40
5.05
100
AcDbArc
 50
85.93387
 51
274.06613
  0
CIRCLE
  5
95
330
1D
100
AcDbEntity
  8
24
  6
Continuous
 62
     7
100
AcDbCircle
 10
90.564816
 20
87.810945
 30
0.0
 40
1.35
  0
CIRCLE
  5
96
330
1D
100
AcDbEntity
  8
24
  6
Continuous
 62
     7
100
AcDbCircle
 10
76.064716
 20
106.310945
 30
0.0
 40
1.2
  0
CIRCLE
  5
97
330
1D
100
AcDbEntity
  8
24
  6
Continuous
 62
     7
100
AcDbCircle
 10
76.064716
 20
86.310945
 30
0.0
 40
1.2
  0
CIRCLE
  5
98
330
1D
100
AcDbEntity
  8
24
  6
Continuous
 62
     7
100
AcDbCircle
 10
82.064816
 20
96.310945
 30
0.0
 40
1.35
  0
CIRCLE
  5
99
330
1D
100
AcDbEntity
  8
24
  6
Continuous
 62
     7
100
AcDbCircle
 10
90.564816
 20
104.810945
 30
0.0
 40
1.35
  0
LINE
  5
9A
330
1D
100
AcDbEntity
  8
1
  6
Continuous
 62
     7
100
AcDbLine
 10
11.690936
 20
80.710945
 30
0.0
 11
11.690936
 21
60.711945
 31
0.0
  0
LINE
  5
9B
330
1D
100
AcDbEntity
  8
1
  6
Continuous
 62
     7
100
AcDbLine
 10
11.690936
 20
60.711945
 30
0.0
 11
13.790936
 21
60.711945
 31
0.0
  0
LINE
  5
9C
330
1D
100
AcDbEntity
  8
1
  6
Continuous
 62
     7
100
AcDbLine
 10
13.790936
 20
60.711945
 30
0.0
 11
13.790936
 21
80.710945
 31
0.0
  0
LINE
  5
9D
330
1D
100
AcDbEntity
  8
1
  6
Continuous
 62
     7
100
AcDbLine
 10
13.790936
 20
80.710945
 30
0.0
 11
11.690936
 21
80.710945
 31
0.0
  0
LINE
  5
9E
330
1D
100
AcDbEntity
  8
1
  6
Continuous
 62
     7
100
AcDbLine
 10
11.382872
 20
53.120009
 30
0.0
 11
11.382872
 21
51.020009
 31
0.0
  0
LINE
  5
9F
330
1D
100
AcDbEntity
  8
1
  6
Continuous
 62
     7
100
AcDbLine
 10
11.382872
 20
51.020009
 30
0.0
 11
128.380872
 21
51.020009
 31
0.0
  0
LINE
  5
A0
330
1D
100
AcDbEntity
  8
1
  6
Continuous
 62
     7
100
AcDbLine
 10
128.380872
 20
51.020009
 30
0.0
 11
128.380872
 21
53.120009
 31
0.0
  0
LINE
  5
A1
330
1D
100
AcDbEntity
  8
1
  6
Continuous
 62
     7
100
AcDbLine
 10
128.380872
 20
53.120009
 30
0.0
 11
11.382872
 21
53.120009
 31
0.0
  0
LINE
  5
A2
330
1D
100
AcDbEntity
  8
1
  6
Continuous
 62
     7
100
AcDbLine
 10
128.072808
 20
80.710945
 30
0.0
 11
128.072808
 21
60.711945
 31
0.0
  0
LINE
  5
A3
330
1D
100
AcDbEntity
  8
1
  6
Continuous
 62
     7
100
AcDbLine
 10
128.072808
 20
60.711945
 30
0.0
 11
125.972808
 21
60.711945
 31
0.0
  0
LINE
  5
A4
330
1D
100
AcDbEntity
  8
1
  6
Continuous
 62
     7
100
AcDbLine
 10
125.972808
 20
60.711945
 30
0.0
 11
125.972808
 21
80.710945
 31
0.0
  0
LINE
  5
A5
330
1D
100
AcDbEntity
  8
1
  6
Continuous
 62
     7
100
AcDbLine
 10
125.972808
 20
80.710945
 30
0.0
 11
128.072808
 21
80.710945
 31
0.0
  0
LINE
  5
A6
330
1D
100
AcDbEntity
  8
1
  6
Continuous
 62
     7
100
AcDbLine
 10
11.690936
 20
33.828073
 30
0.0
 11
11.690936
 21
3.457218
 31
0.0
  0
LINE
  5
A7
330
1D
100
AcDbEntity
  8
1
  6
Continuous
 62
     7
100
AcDbLine
 10
11.690936
 20
3.457218
 30
0.0
 11
13.790936
 21
3.457218
 31
0.0
  0
LINE
  5
A8
330
1D
100
AcDbEntity
  8
1
  6
Continuous
 62
     7
100
AcDbLine
 10
13.790936
 20
3.457218
 30
0.0
 11
13.790936
 21
33.828073
 31
0.0
  0
LINE
  5
A9
330
1D
100
AcDbEntity
  8
1
  6
Continuous
 62
     7
100
AcDbLine
 10
13.790936
 20
33.828073
 30
0.0
 11
11.690936
 21
33.828073
 31
0.0
  0
LINE
  5
AA
330
1D
100
AcDbEntity
  8
1
  6
Continuous
 62
     7
100
AcDbLine
 10
128.072808
 20
33.828073
 30
0.0
 11
128.072808
 21
3.457218
 31
0.0
  0
LINE
  5
AB
330
1D
100
AcDbEntity
  8
1
  6
Continuous
 62
     7
100
AcDbLine
 10
128.072808
 20
3.457218
 30
0.0
 11
125.972808
 21
3.457218
 31
0.0
  0
LINE
  5
AC
330
1D
100
AcDbEntity
  8
1
  6
Continuous
 62
     7
100
AcDbLine
 10
125.972808
 20
3.457218
 30
0.0
 11
125.972808
 21
33.828073
 31
0.0
  0
LINE
  5
AD
330
1D
100
AcDbEntity
  8
1
  6
Continuous
 62
     7
100
AcDbLine
 10
125.972808
 20
33.828073
 30
0.0
 11
128.072808
 21
33.828073
 31
0.0
  0
LINE
  5
AE
330
1D
100
AcDbEntity
  8
1
  6
Continuous
 62
     7
100
AcDbLine
 10
25.691129
 20
99.310945
 30
0.0
 11
25.691129
 21
80.810945
 31
0.0
  0
LINE
  5
AF
330
1D
100
AcDbEntity
  8
1
  6
Continuous
 62
     7
100
AcDbLine
 10
25.691129
 20
80.810945
 30
0.0
 11
27.791129
 21
80.810945
 31
0.0
  0
LINE
  5
B0
330
1D
100
AcDbEntity
  8
1
  6
Continuous
 62
     7
100
AcDbLine
 10
27.791129
 20
80.810945
 30
0.0
 11
27.791129
 21
99.310945
 31
0.0
  0
LINE
  5
B1
330
1D
100
AcDbEntity
  8
1
  6
Continuous
 62
     7
100
AcDbLine
 10
27.791129
 20
99.310945
 30
0.0
 11
25.691129
 21
99.310945
 31
0.0
  0
LINE
  5
B2
330
1D
100
AcDbEntity
  8
1
  6
Continuous
 62
     7
100
AcDbLine
 10
70.373587
 20
99.310945
 30
0.0
 11
70.373587
 21
80.810945
 31
0.0
  0
LINE
  5
B3
330
1D
100
AcDbEntity
  8
1
  6
Continuous
 62
     7
100
AcDbLine
 10
70.373587
 20
80.810945
 30
0.0
 11
68.273587
 21
80.810945
 31
0.0
  0
LINE
  5
B4
330
1D
100
AcDbEntity
  8
1
  6
Continuous
 62
     7
100
AcDbLine
 10
68.273587
 20
80.810945
 30
0.0
 11
68.273587
 21
99.310945
 31
0.0
  0
LINE
  5
B5
330
1D
100
AcDbEntity
  8
1
  6
Continuous
 62
     7
100
AcDbLine
 10
68.273587
 20
99.310945
 30
0.0
 11
70.373587
 21
99.310945
 31
0.0
  0
LWPOLYLINE
  5
FE
330
1D
100
AcDbEntity
  8
0
100
AcDbPolyline
 90
        4
 70
     1
 43
0.0
 10
0.0
 20
0.0
 10
0.0
 20
299.9999999999998
 10
200.0
 20
299.9999999999998
 10
200.0
 20
0.0
  0
ENDSEC
  0
SECTION
  2
OBJECTS
  0
DICTIONARY
  5
C
330
0
100
AcDbDictionary
281
     1
  3
ACAD_DETAILVIEWSTYLE
350
104
  3
ACAD_GROUP
350
D
  3
ACAD_LAYOUT
350
1A
  3
ACAD_MLINESTYLE
350
17
  3
ACAD_PLOTSETTINGS
350
19
  3
ACAD_PLOTSTYLENAME
350
E
  3
ACAD_SCALELIST
350
B6
  3
ACAD_SECTIONVIEWSTYLE
350
105
  3
AcDbVariableDictionary
350
FF
  3
APPDATA
350
FD
  3
DWGPROPS
350
107
  0
DICTIONARY
  5
104
102
{ACAD_REACTORS
330
C
102
}
330
C
100
AcDbDictionary
281
     1
  0
DICTIONARY
  5
D
102
{ACAD_REACTORS
330
C
102
}
330
C
100
AcDbDictionary
281
     1
  0
DICTIONARY
  5
1A
102
{ACAD_REACTORS
330
C
102
}
330
C
100
AcDbDictionary
281
     1
  3
Model
350
1E
  3
シート 1
350
1C
  0
DICTIONARY
  5
17
102
{ACAD_REACTORS
330
C
102
}
330
C
100
AcDbDictionary
281
     1
  3
Standard
350
18
  0
DICTIONARY
  5
19
102
{ACAD_REACTORS
330
C
102
}
330
C
100
AcDbDictionary
281
     1
  0
ACDBDICTIONARYWDFLT
  5
E
102
{ACAD_REACTORS
330
C
102
}
330
C
100
AcDbDictionary
281
     1
  3
Normal
350
F
100
AcDbDictionaryWithDefault
340
F
  0
DICTIONARY
  5
B6
102
{ACAD_REACTORS
330
C
102
}
330
C
100
AcDbDictionary
281
     1
  3
A0
350
B7
  3
A1
350
B8
  3
A2
350
B9
  3
A3
350
BA
  3
A4
350
BB
  3
A5
350
BC
  3
A6
350
BD
  3
A7
350
BE
  3
A8
350
BF
  3
A9
350
C0
  3
B0
350
C1
  3
B1
350
C2
  3
B2
350
C3
  3
B3
350
C4
  3
B4
350
C5
  3
B5
350
C6
  3
B6
350
C7
  3
B7
350
C8
  3
B8
350
C9
  3
B9
350
CA
  3
C0
350
CB
  3
C1
350
CC
  3
C2
350
CD
  3
C3
350
CE
  3
C4
350
CF
  3
C5
350
D0
  3
C6
350
D1
  3
C7
350
D2
  3
C8
350
D3
  3
C9
350
D4
  3
D0
350
D5
  3
D1
350
D6
  3
D2
350
D7
  0
DICTIONARY
  5
105
102
{ACAD_REACTORS
330
C
102
}
330
C
100
AcDbDictionary
281
     1
  0
DICTIONARY
  5
FF
102
{ACAD_REACTORS
330
C
102
}
330
C
100
AcDbDictionary
281
     1
  0
DICTIONARY
  5
FD
102
{ACAD_REACTORS
330
C
102
}
330
C
100
AcDbDictionary
281
     1
  0
XRECORD
  5
107
102
{ACAD_REACTORS
330
C
102
}
330
C
100
AcDbXrecord
280
     1
  1
DWGPROPS COOKIE
  2

  3

  4

  6

  7

  8
haya
  9

300
=
301
=
302
=
303
=
304
=
305
=
306
=
307
=
308
=
309
=
 40
0.0
 41
2447892.625
 42
2458246.150920845
  1

 90
        0
  0
LAYOUT
  5
1E
102
{ACAD_REACTORS
330
1A
102
}
330
1A
100
AcDbPlotSettings
  1

  2
none_device
  4
Letter_(8.50_x_11.00_Inches)
  6

 40
6.35
 41
6.35
 42
6.35
 43
6.35
 44
215.9
 45
279.4
 46
0.0
 47
0.0
 48
0.0
 49
0.0
140
0.0
141
0.0
142
1.0
143
1.0
 70
  1712
 72
     0
 73
     0
 74
     0
  7

 75
     0
147
1.0
148
0.0
149
0.0
100
AcDbLayout
  1
Model
 70
     3
 71
     0
 10
0.0
 20
0.0
 11
12.0
 21
9.0
 12
0.0
 22
0.0
 32
0.0
 14
-0.0000000000000036
 24
0.0
 34
0.0
 15
200.0
 25
299.9999999999998
 35
0.0
146
0.0
 13
0.0
 23
0.0
 33
0.0
 16
1.0
 26
0.0
 36
0.0
 17
0.0
 27
1.0
 37
0.0
 76
     0
330
1D
331
2C
  0
LAYOUT
  5
1C
102
{ACAD_REACTORS
330
1A
102
}
330
1A
100
AcDbPlotSettings
  1

  2
none_device
  4

  6

 40
0.0
 41
0.0
 42
0.0
 43
0.0
 44
0.0
 45
0.0
 46
0.0
 47
0.0
 48
0.0
 49
0.0
140
0.0
141
0.0
142
1.0
143
1.0
 70
   688
 72
     0
 73
     0
 74
     5
  7

 75
    16
147
1.0
148
0.0
149
0.0
100
AcDbLayout
  1
シート 1
 70
     1
 71
     1
 10
0.0
 20
0.0
 11
0.0
 21
0.0
 12
0.0
 22
0.0
 32
0.0
 14
0.0
 24
0.0
 34
0.0
 15
297.0
 25
210.0
 35
0.0
146
0.0
 13
0.0
 23
0.0
 33
0.0
 16
1.0
 26
0.0
 36
0.0
 17
0.0
 27
1.0
 37
0.0
 76
     0
330
1B
  0
MLINESTYLE
  5
18
102
{ACAD_REACTORS
330
17
102
}
330
17
100
AcDbMlineStyle
  2
Standard
 70
     0
  3

 62
   256
 51
90.0
 52
90.0
 71
     2
 49
0.5
 62
   256
  6
BYLAYER
 49
-0.5
 62
   256
  6
BYLAYER
  0
ACDBPLACEHOLDER
  5
F
102
{ACAD_REACTORS
330
E
102
}
330
E
  0
SCALE
  5
B7
102
{ACAD_REACTORS
330
B6
102
}
330
B6
100
AcDbScale
 70
     0
300
1:1
140
1.0
141
1.0
290
     1
  0
SCALE
  5
B8
102
{ACAD_REACTORS
330
B6
102
}
330
B6
100
AcDbScale
 70
     0
300
1:2
140
1.0
141
2.0
290
     0
  0
SCALE
  5
B9
102
{ACAD_REACTORS
330
B6
102
}
330
B6
100
AcDbScale
 70
     0
300
1:4
140
1.0
141
4.0
290
     0
  0
SCALE
  5
BA
102
{ACAD_REACTORS
330
B6
102
}
330
B6
100
AcDbScale
 70
     0
300
1:5
140
1.0
141
5.0
290
     0
  0
SCALE
  5
BB
102
{ACAD_REACTORS
330
B6
102
}
330
B6
100
AcDbScale
 70
     0
300
1:8
140
1.0
141
8.0
290
     0
  0
SCALE
  5
BC
102
{ACAD_REACTORS
330
B6
102
}
330
B6
100
AcDbScale
 70
     0
300
1:10
140
1.0
141
10.0
290
     0
  0
SCALE
  5
BD
102
{ACAD_REACTORS
330
B6
102
}
330
B6
100
AcDbScale
 70
     0
300
1:16
140
1.0
141
16.0
290
     0
  0
SCALE
  5
BE
102
{ACAD_REACTORS
330
B6
102
}
330
B6
100
AcDbScale
 70
     0
300
1:20
140
1.0
141
20.0
290
     0
  0
SCALE
  5
BF
102
{ACAD_REACTORS
330
B6
102
}
330
B6
100
AcDbScale
 70
     0
300
1:30
140
1.0
141
30.0
290
     0
  0
SCALE
  5
C0
102
{ACAD_REACTORS
330
B6
102
}
330
B6
100
AcDbScale
 70
     0
300
1:40
140
1.0
141
40.0
290
     0
  0
SCALE
  5
C1
102
{ACAD_REACTORS
330
B6
102
}
330
B6
100
AcDbScale
 70
     0
300
1:50
140
1.0
141
50.0
290
     0
  0
SCALE
  5
C2
102
{ACAD_REACTORS
330
B6
102
}
330
B6
100
AcDbScale
 70
     0
300
1:100
140
1.0
141
100.0
290
     0
  0
SCALE
  5
C3
102
{ACAD_REACTORS
330
B6
102
}
330
B6
100
AcDbScale
 70
     0
300
2:1
140
2.0
141
1.0
290
     0
  0
SCALE
  5
C4
102
{ACAD_REACTORS
330
B6
102
}
330
B6
100
AcDbScale
 70
     0
300
4:1
140
4.0
141
1.0
290
     0
  0
SCALE
  5
C5
102
{ACAD_REACTORS
330
B6
102
}
330
B6
100
AcDbScale
 70
     0
300
8:1
140
8.0
141
1.0
290
     0
  0
SCALE
  5
C6
102
{ACAD_REACTORS
330
B6
102
}
330
B6
100
AcDbScale
 70
     0
300
10:1
140
10.0
141
1.0
290
     0
  0
SCALE
  5
C7
102
{ACAD_REACTORS
330
B6
102
}
330
B6
100
AcDbScale
 70
     0
300
100:1
140
100.0
141
1.0
290
     0
  0
SCALE
  5
C8
102
{ACAD_REACTORS
330
B6
102
}
330
B6
100
AcDbScale
 70
     0
300
1/128" = 1'-0"
140
0.0078125
141
12.0
290
     0
  0
SCALE
  5
C9
102
{ACAD_REACTORS
330
B6
102
}
330
B6
100
AcDbScale
 70
     0
300
1/64" = 1'-0"
140
0.015625
141
12.0
290
     0
  0
SCALE
  5
CA
102
{ACAD_REACTORS
330
B6
102
}
330
B6
100
AcDbScale
 70
     0
300
1/32" = 1'-0"
140
0.03125
141
12.0
290
     0
  0
SCALE
  5
CB
102
{ACAD_REACTORS
330
B6
102
}
330
B6
100
AcDbScale
 70
     0
300
1/16" = 1'-0"
140
0.0625
141
12.0
290
     0
  0
SCALE
  5
CC
102
{ACAD_REACTORS
330
B6
102
}
330
B6
100
AcDbScale
 70
     0
300
3/32" = 1'-0"
140
0.09375
141
12.0
290
     0
  0
SCALE
  5
CD
102
{ACAD_REACTORS
330
B6
102
}
330
B6
100
AcDbScale
 70
     0
300
1/8" = 1'-0"
140
0.125
141
12.0
290
     0
  0
SCALE
  5
CE
102
{ACAD_REACTORS
330
B6
102
}
330
B6
100
AcDbScale
 70
     0
300
3/16" = 1'-0"
140
0.1875
141
12.0
290
     0
  0
SCALE
  5
CF
102
{ACAD_REACTORS
330
B6
102
}
330
B6
100
AcDbScale
 70
     0
300
1/4" = 1'-0"
140
0.25
141
12.0
290
     0
  0
SCALE
  5
D0
102
{ACAD_REACTORS
330
B6
102
}
330
B6
100
AcDbScale
 70
     0
300
3/8" = 1'-0"
140
0.375
141
12.0
290
     0
  0
SCALE
  5
D1
102
{ACAD_REACTORS
330
B6
102
}
330
B6
100
AcDbScale
 70
     0
300
1/2" = 1'-0"
140
0.5
141
12.0
290
     0
  0
SCALE
  5
D2
102
{ACAD_REACTORS
330
B6
102
}
330
B6
100
AcDbScale
 70
     0
300
3/4" = 1'-0"
140
0.75
141
12.0
290
     0
  0
SCALE
  5
D3
102
{ACAD_REACTORS
330
B6
102
}
330
B6
100
AcDbScale
 70
     0
300
1" = 1'-0"
140
1.0
141
12.0
290
     0
  0
SCALE
  5
D4
102
{ACAD_REACTORS
330
B6
102
}
330
B6
100
AcDbScale
 70
     0
300
1-1/2" = 1'-0"
140
1.5
141
12.0
290
     0
  0
SCALE
  5
D5
102
{ACAD_REACTORS
330
B6
102
}
330
B6
100
AcDbScale
 70
     0
300
3" = 1'-0"
140
3.0
141
12.0
290
     0
  0
SCALE
  5
D6
102
{ACAD_REACTORS
330
B6
102
}
330
B6
100
AcDbScale
 70
     0
300
6" = 1'-0"
140
6.0
141
12.0
290
     0
  0
SCALE
  5
D7
102
{ACAD_REACTORS
330
B6
102
}
330
B6
100
AcDbScale
 70
     0
300
1'-0" = 1'-0"
140
12.0
141
12.0
290
     0
  0
ENDSEC
  0
EOF
