  0
SECTION
  2
HEADER
  9
$ACADVER
  1
AC1015
  9
$ACADMAINTVER
 70
     6
  9
$DWGCODEPAGE
  3
ANSI_932
  9
$INSBASE
 10
0.0
 20
0.0
 30
0.0
  9
$EXTMIN
 10
-0.0000000000000036
 20
0.0
 30
0.0
  9
$EXTMAX
 10
200.0
 20
299.9999999999998
 30
0.0
  9
$LIMMIN
 10
0.0
 20
0.0
  9
$LIMMAX
 10
594.0
 20
420.0
  9
$ORTHOMODE
 70
     0
  9
$REGENMODE
 70
     1
  9
$FILLMODE
 70
     1
  9
$QTEXTMODE
 70
     0
  9
$MIRRTEXT
 70
     1
  9
$LTSCALE
 40
0.25
  9
$ATTMODE
 70
     1
  9
$TEXTSIZE
 40
0.2
  9
$TRACEWID
 40
0.05
  9
$TEXTSTYLE
  7
STANDARD
  9
$CLAYER
  8
0
  9
$CELTYPE
  6
ByLayer
  9
$CECOLOR
 62
   256
  9
$CELTSCALE
 40
1.0
  9
$DISPSILH
 70
     0
  9
$DIMSCALE
 40
1.0
  9
$DIMASZ
 40
1.0
  9
$DIMEXO
 40
0.0
  9
$DIMDLI
 40
0.5
  9
$DIMRND
 40
0.0
  9
$DIMDLE
 40
0.0
  9
$DIMEXE
 40
0.0
  9
$DIMTP
 40
0.0
  9
$DIMTM
 40
0.0
  9
$DIMTXT
 40
4.0
  9
$DIMCEN
 40
0.0
  9
$DIMTSZ
 40
0.0
  9
$DIMTOL
 70
     0
  9
$DIMLIM
 70
     0
  9
$DIMTIH
 70
     1
  9
$DIMTOH
 70
     1
  9
$DIMSE1
 70
     0
  9
$DIMSE2
 70
     0
  9
$DIMTAD
 70
     0
  9
$DIMZIN
 70
     0
  9
$DIMBLK
  1

  9
$DIMASO
 70
     0
  9
$DIMSHO
 70
     0
  9
$DIMPOST
  1

  9
$DIMAPOST
  1

  9
$DIMALT
 70
     0
  9
$DIMALTD
 70
     0
  9
$DIMALTF
 40
25.4
  9
$DIMLFAC
 40
1.0
  9
$DIMTOFL
 70
     0
  9
$DIMTVP
 40
0.0
  9
$DIMTIX
 70
     0
  9
$DIMSOXD
 70
     0
  9
$DIMSAH
 70
     0
  9
$DIMBLK1
  1

  9
$DIMBLK2
  1

  9
$DIMSTYLE
  2
Standard
  9
$DIMCLRD
 70
     0
  9
$DIMCLRE
 70
     0
  9
$DIMCLRT
 70
     0
  9
$DIMTFAC
 40
1.0
  9
$DIMGAP
 40
0.09
  9
$DIMJUST
 70
     0
  9
$DIMSD1
 70
     0
  9
$DIMSD2
 70
     0
  9
$DIMTOLJ
 70
     1
  9
$DIMTZIN
 70
     0
  9
$DIMALTZ
 70
     0
  9
$DIMALTTZ
 70
     0
  9
$DIMUPT
 70
     0
  9
$DIMDEC
 70
     2
  9
$DIMTDEC
 70
     2
  9
$DIMALTU
 70
     2
  9
$DIMALTTD
 70
     2
  9
$DIMTXSTY
  7
STANDARD
  9
$DIMAUNIT
 70
     0
  9
$DIMADEC
 70
     0
  9
$DIMALTRND
 40
0.0
  9
$DIMAZIN
 70
     0
  9
$DIMDSEP
 70
    46
  9
$DIMATFIT
 70
     3
  9
$DIMFRAC
 70
     0
  9
$DIMLDRBLK
  1

  9
$DIMLUNIT
 70
     2
  9
$DIMLWD
 70
    -2
  9
$DIMLWE
 70
    -2
  9
$DIMTMOVE
 70
     2
  9
$LUNITS
 70
     2
  9
$LUPREC
 70
     2
  9
$SKETCHINC
 40
0.0
  9
$FILLETRAD
 40
0.0
  9
$AUNITS
 70
     1
  9
$AUPREC
 70
     2
  9
$MENU
  1
ACAD
  9
$ELEVATION
 40
0.0
  9
$PELEVATION
 40
0.0
  9
$THICKNESS
 40
0.0
  9
$LIMCHECK
 70
     1
  9
$CHAMFERA
 40
0.0
  9
$CHAMFERB
 40
0.0
  9
$CHAMFERC
 40
0.0
  9
$CHAMFERD
 40
0.0
  9
$SKPOLY
 70
     0
  9
$TDCREATE
 40
2447893.0
  9
$TDUCREATE
 40
2447892.625
  9
$TDUPDATE
 40
2458196.508084422
  9
$TDUUPDATE
 40
2458196.133084422
  9
$TDINDWG
 40
0.0010658912
  9
$TDUSRTIMER
 40
0.0002027431
  9
$USRTIMER
 70
     1
  9
$ANGBASE
 50
0.0
  9
$ANGDIR
 70
     0
  9
$PDMODE
 70
     0
  9
$PDSIZE
 40
0.0
  9
$PLINEWID
 40
0.0
  9
$SPLFRAME
 70
     0
  9
$SPLINETYPE
 70
     6
  9
$SPLINESEGS
 70
     8
  9
$HANDSEED
  5
1D6
  9
$SURFTAB1
 70
     6
  9
$SURFTAB2
 70
     6
  9
$SURFTYPE
 70
     6
  9
$SURFU
 70
     6
  9
$SURFV
 70
     6
  9
$UCSBASE
  2

  9
$UCSNAME
  2

  9
$UCSORG
 10
0.0
 20
0.0
 30
0.0
  9
$UCSXDIR
 10
1.0
 20
0.0
 30
0.0
  9
$UCSYDIR
 10
0.0
 20
1.0
 30
0.0
  9
$UCSORTHOREF
  2

  9
$UCSORTHOVIEW
 70
     0
  9
$UCSORGTOP
 10
0.0
 20
0.0
 30
0.0
  9
$UCSORGBOTTOM
 10
0.0
 20
0.0
 30
0.0
  9
$UCSORGLEFT
 10
0.0
 20
0.0
 30
0.0
  9
$UCSORGRIGHT
 10
0.0
 20
0.0
 30
0.0
  9
$UCSORGFRONT
 10
0.0
 20
0.0
 30
0.0
  9
$UCSORGBACK
 10
0.0
 20
0.0
 30
0.0
  9
$PUCSBASE
  2

  9
$PUCSNAME
  2

  9
$PUCSORG
 10
0.0
 20
0.0
 30
0.0
  9
$PUCSXDIR
 10
1.0
 20
0.0
 30
0.0
  9
$PUCSYDIR
 10
0.0
 20
1.0
 30
0.0
  9
$PUCSORTHOREF
  2

  9
$PUCSORTHOVIEW
 70
     0
  9
$PUCSORGTOP
 10
0.0
 20
0.0
 30
0.0
  9
$PUCSORGBOTTOM
 10
0.0
 20
0.0
 30
0.0
  9
$PUCSORGLEFT
 10
0.0
 20
0.0
 30
0.0
  9
$PUCSORGRIGHT
 10
0.0
 20
0.0
 30
0.0
  9
$PUCSORGFRONT
 10
0.0
 20
0.0
 30
0.0
  9
$PUCSORGBACK
 10
0.0
 20
0.0
 30
0.0
  9
$USERI1
 70
     0
  9
$USERI2
 70
     0
  9
$USERI3
 70
     0
  9
$USERI4
 70
     0
  9
$USERI5
 70
     0
  9
$USERR1
 40
0.0
  9
$USERR2
 40
0.0
  9
$USERR3
 40
0.0
  9
$USERR4
 40
0.0
  9
$USERR5
 40
0.0
  9
$WORLDVIEW
 70
     1
  9
$SHADEDGE
 70
     3
  9
$SHADEDIF
 70
    70
  9
$TILEMODE
 70
     1
  9
$MAXACTVP
 70
    64
  9
$PINSBASE
 10
0.0
 20
0.0
 30
0.0
  9
$PLIMCHECK
 70
     0
  9
$PEXTMIN
 10
0.0
 20
0.0
 30
0.0
  9
$PEXTMAX
 10
594.0
 20
420.0
 30
0.0
  9
$PLIMMIN
 10
0.0
 20
0.0
  9
$PLIMMAX
 10
0.0
 20
0.0
  9
$UNITMODE
 70
     0
  9
$VISRETAIN
 70
     1
  9
$PLINEGEN
 70
     0
  9
$PSLTSCALE
 70
     1
  9
$TREEDEPTH
 70
  3020
  9
$CMLSTYLE
  2
Standard
  9
$CMLJUST
 70
     0
  9
$CMLSCALE
 40
1.0
  9
$PROXYGRAPHICS
 70
     1
  9
$MEASUREMENT
 70
     0
  9
$CELWEIGHT
370
    -1
  9
$ENDCAPS
280
     0
  9
$JOINSTYLE
280
     0
  9
$LWDISPLAY
290
     0
  9
$INSUNITS
 70
     0
  9
$HYPERLINKBASE
  1

  9
$STYLESHEET
  1

  9
$XEDIT
290
     1
  9
$CEPSNTYPE
380
     0
  9
$PSTYLEMODE
290
     1
  9
$FINGERPRINTGUID
  2
{D6C02B1B-92D0-4748-B57F-CB5F92E34484}
  9
$VERSIONGUID
  2
{FAEB1C32-E019-11D5-929B-00C0DF256EC4}
  9
$EXTNAMES
290
     1
  9
$PSVPSCALE
 40
0.0
  9
$OLESTARTUP
290
     0
  0
ENDSEC
  0
SECTION
  2
CLASSES
  0
CLASS
  1
ACDBDICTIONARYWDFLT
  2
AcDbDictionaryWithDefault
  3
ObjectDBX Classes
 90
        0
280
     0
281
     0
  0
CLASS
  1
SCALE
  2
AcDbScale
  3
ObjectDBX Classes
 90
     1153
280
     0
281
     0
  0
CLASS
  1
VISUALSTYLE
  2
AcDbVisualStyle
  3
ObjectDBX Classes
 90
     4095
280
     0
281
     0
  0
CLASS
  1
MATERIAL
  2
AcDbMaterial
  3
ObjectDBX Classes
 90
     1153
280
     0
281
     0
  0
CLASS
  1
TABLESTYLE
  2
AcDbTableStyle
  3
ObjectDBX Classes
 90
     4095
280
     0
281
     0
  0
CLASS
  1
MLEADERSTYLE
  2
AcDbMLeaderStyle
  3
ACDB_MLEADERSTYLE_CLASS
 90
     4095
280
     0
281
     0
  0
CLASS
  1
DICTIONARYVAR
  2
AcDbDictionaryVar
  3
ObjectDBX Classes
 90
        0
280
     0
281
     0
  0
CLASS
  1
SUN
  2
AcDbSun
  3
SCENEOE
 90
     1153
280
     0
281
     0
  0
CLASS
  1
ACDBPLACEHOLDER
  2
AcDbPlaceHolder
  3
ObjectDBX Classes
 90
        0
280
     0
281
     0
  0
CLASS
  1
LAYOUT
  2
AcDbLayout
  3
ObjectDBX Classes
 90
        0
280
     0
281
     0
  0
ENDSEC
  0
SECTION
  2
TABLES
  0
TABLE
  2
VPORT
  5
8
330
0
100
AcDbSymbolTable
 70
     1
  0
VPORT
  5
2C
330
8
100
AcDbSymbolTableRecord
100
AcDbViewportTableRecord
  2
*Active
 70
     0
 10
0.0
 20
0.0
 11
1.0
 21
1.0
 12
64.32713522890035
 22
61.05313794957763
 13
0.0
 23
0.0
 14
10.0
 24
10.0
 15
0.5
 25
0.5
 16
0.0
 26
0.0
 36
1.0
 17
0.0
 27
0.0
 37
0.0
 40
163.7090463191269
 41
2.111409395973154
 42
50.0
 43
0.0
 44
0.0
 50
0.0
 51
0.0
 71
    16
 72
   100
 73
     1
 74
     3
 75
     1
 76
     0
 77
     0
 78
     0
281
     0
 65
     1
110
0.0
120
0.0
130
0.0
111
1.0
121
0.0
131
0.0
112
0.0
122
1.0
132
0.0
 79
     0
146
0.0
  0
ENDTAB
  0
TABLE
  2
LTYPE
  5
5
330
0
100
AcDbSymbolTable
 70
     7
  0
LTYPE
  5
14
330
5
100
AcDbSymbolTableRecord
100
AcDbLinetypeTableRecord
  2
ByBlock
 70
     0
  3

 72
    65
 73
     0
 40
0.0
  0
LTYPE
  5
15
330
5
100
AcDbSymbolTableRecord
100
AcDbLinetypeTableRecord
  2
ByLayer
 70
     0
  3

 72
    65
 73
     0
 40
0.0
  0
LTYPE
  5
16
330
5
100
AcDbSymbolTableRecord
100
AcDbLinetypeTableRecord
  2
CONTINUOUS
 70
     0
  3
Solid line
 72
    65
 73
     0
 40
0.0
  0
LTYPE
  5
21
330
5
100
AcDbSymbolTableRecord
100
AcDbLinetypeTableRecord
  2
HIDDEN
 70
     0
  3
------------------------
 72
    65
 73
     2
 40
12.6
 49
8.4
 74
     0
 49
-4.2
 74
     0
  0
LTYPE
  5
22
330
5
100
AcDbSymbolTableRecord
100
AcDbLinetypeTableRecord
  2
DOT
 70
     0
  3
････････････････････････
 72
    65
 73
     2
 40
8.0
 49
6.0
 74
     0
 49
-2.0
 74
     0
  0
LTYPE
  5
23
330
5
100
AcDbSymbolTableRecord
100
AcDbLinetypeTableRecord
  2
DASHDOT
 70
     0
  3
--･--･--･--･--･--･--･--
 72
    65
 73
     4
 40
50.5
 49
30.0
 74
     0
 49
-9.0
 74
     0
 49
2.5
 74
     0
 49
-9.0
 74
     0
  0
LTYPE
  5
24
330
5
100
AcDbSymbolTableRecord
100
AcDbLinetypeTableRecord
  2
DIVIDE
 70
     0
  3
--･･--･･--･･--･･--･･--
 72
    65
 73
     6
 40
58.0
 49
30.0
 74
     0
 49
-9.0
 74
     0
 49
2.5
 74
     0
 49
-5.0
 74
     0
 49
2.5
 74
     0
 49
-9.0
 74
     0
  0
LTYPE
  5
25
330
5
100
AcDbSymbolTableRecord
100
AcDbLinetypeTableRecord
  2
ACAD_ISO06W100
 70
     0
  3
____ ... ____ ... ____
 72
    65
 73
     8
 40
37.5
 49
24.0
 74
     0
 49
-3.0
 74
     0
 49
0.5
 74
     0
 49
-3.0
 74
     0
 49
0.5
 74
     0
 49
-3.0
 74
     0
 49
0.5
 74
     0
 49
-3.0
 74
     0
  0
LTYPE
  5
26
330
5
100
AcDbSymbolTableRecord
100
AcDbLinetypeTableRecord
  2
ACAD_ISO14W100
 70
     0
  3
__ . . . __ . . . __ . . . 
 72
    65
 73
     8
 40
25.5
 49
12.0
 74
     0
 49
-3.0
 74
     0
 49
0.5
 74
     0
 49
-3.0
 74
     0
 49
0.5
 74
     0
 49
-3.0
 74
     0
 49
0.5
 74
     0
 49
-3.0
 74
     0
  0
ENDTAB
  0
TABLE
  2
LAYER
  5
2
330
0
100
AcDbSymbolTable
 70
     4
  0
LAYER
  5
10
330
2
100
AcDbSymbolTableRecord
100
AcDbLayerTableRecord
  2
0
 70
     0
 62
     7
  6
CONTINUOUS
370
    -3
390
F
  0
LAYER
  5
27
330
2
100
AcDbSymbolTableRecord
100
AcDbLayerTableRecord
  2
1
 70
     0
 62
     7
  6
CONTINUOUS
370
    -3
390
F
  0
LAYER
  5
28
330
2
100
AcDbSymbolTableRecord
100
AcDbLayerTableRecord
  2
23
 70
     0
 62
     7
  6
CONTINUOUS
370
    -3
390
F
  0
LAYER
  5
146
330
2
100
AcDbSymbolTableRecord
100
AcDbLayerTableRecord
  2
Visible (ISO)
 70
     0
 62
     7
  6
CONTINUOUS
370
    50
390
F
  0
ENDTAB
  0
TABLE
  2
STYLE
  5
3
330
0
100
AcDbSymbolTable
 70
     2
  0
STYLE
  5
11
330
3
100
AcDbSymbolTableRecord
100
AcDbTextStyleTableRecord
  2
STANDARD
 70
     0
 40
0.0
 41
1.0
 50
0.0
 71
     0
 42
0.2
  3
TXT
  4

  0
STYLE
  5
2A
330
3
100
AcDbSymbolTableRecord
100
AcDbTextStyleTableRecord
  2
KANJI
 70
     0
 40
0.0
 41
1.0
 50
0.0
 71
     0
 42
0.2
  3
TXT
  4
BIGFONT
  0
ENDTAB
  0
TABLE
  2
VIEW
  5
6
330
0
100
AcDbSymbolTable
 70
     0
  0
ENDTAB
  0
TABLE
  2
UCS
  5
7
330
0
100
AcDbSymbolTable
 70
     0
  0
ENDTAB
  0
TABLE
  2
APPID
  5
9
330
0
100
AcDbSymbolTable
 70
     1
  0
APPID
  5
12
330
9
100
AcDbSymbolTableRecord
100
AcDbRegAppTableRecord
  2
ACAD
 70
     0
  0
ENDTAB
  0
TABLE
  2
DIMSTYLE
  5
A
330
0
100
AcDbSymbolTable
 70
     1
100
AcDbDimStyleTable
  0
DIMSTYLE
105
2B
330
A
100
AcDbSymbolTableRecord
100
AcDbDimStyleTableRecord
  2
Standard
 70
     0
178
     0
340
11
  0
ENDTAB
  0
TABLE
  2
BLOCK_RECORD
  5
1
330
0
100
AcDbSymbolTable
 70
     0
  0
BLOCK_RECORD
  5
1D
330
1
100
AcDbSymbolTableRecord
100
AcDbBlockTableRecord
  2
*Model_Space
340
1E
  0
BLOCK_RECORD
  5
1B
330
1
100
AcDbSymbolTableRecord
100
AcDbBlockTableRecord
  2
*Paper_Space
340
1C
  0
ENDTAB
  0
ENDSEC
  0
SECTION
  2
BLOCKS
  0
BLOCK
  5
117
330
1D
100
AcDbEntity
  8
0
100
AcDbBlockBegin
  2
*Model_Space
 70
     0
 10
0.0
 20
0.0
 30
0.0
  3
*Model_Space
  1

  0
ENDBLK
  5
118
330
1D
100
AcDbEntity
  8
0
100
AcDbBlockEnd
  0
BLOCK
  5
119
330
1B
100
AcDbEntity
 67
     1
  8
0
100
AcDbBlockBegin
  2
*Paper_Space
 70
     0
 10
0.0
 20
0.0
 30
0.0
  3
*Paper_Space
  1

  0
ENDBLK
  5
11A
330
1B
100
AcDbEntity
 67
     1
  8
0
100
AcDbBlockEnd
  0
ENDSEC
  0
SECTION
  2
ENTITIES
  0
LINE
  5
2D
330
1D
100
AcDbEntity
  8
23
  6
Continuous
 62
     7
100
AcDbLine
 10
11.05
 20
21.710918
 30
0.0
 11
11.05
 21
20.289082
 31
0.0
  0
LINE
  5
2E
330
1D
100
AcDbEntity
  8
23
  6
Continuous
 62
     7
100
AcDbLine
 10
10.140673
 20
18.714082
 30
0.0
 11
8.909327
 21
18.003163
 31
0.0
  0
LINE
  5
2F
330
1D
100
AcDbEntity
  8
23
  6
Continuous
 62
     7
100
AcDbLine
 10
7.090673
 20
18.003163
 30
0.0
 11
5.859327
 21
18.714082
 31
0.0
  0
LINE
  5
30
330
1D
100
AcDbEntity
  8
23
  6
Continuous
 62
     7
100
AcDbLine
 10
5.859327
 20
23.285918
 30
0.0
 11
7.090673
 21
23.996837
 31
0.0
  0
LINE
  5
31
330
1D
100
AcDbEntity
  8
23
  6
Continuous
 62
     7
100
AcDbLine
 10
8.909327
 20
23.996837
 30
0.0
 11
10.140673
 21
23.285918
 31
0.0
  0
LINE
  5
32
330
1D
100
AcDbEntity
  8
23
  6
Continuous
 62
     7
100
AcDbLine
 10
4.95
 20
20.289082
 30
0.0
 11
4.95
 21
21.710918
 31
0.0
  0
ARC
  5
33
330
1D
100
AcDbEntity
  8
23
  6
Continuous
 62
     7
100
AcDbCircle
 10
10.140673
 20
19.764082
 30
0.0
 40
1.05
100
AcDbArc
 50
270.0
 51
30.0
  0
ARC
  5
34
330
1D
100
AcDbEntity
  8
23
  6
Continuous
 62
     7
100
AcDbCircle
 10
8.0
 20
18.528163
 30
0.0
 40
1.05
100
AcDbArc
 50
210.0
 51
330.0
  0
ARC
  5
35
330
1D
100
AcDbEntity
  8
23
  6
Continuous
 62
     7
100
AcDbCircle
 10
5.859327
 20
19.764082
 30
0.0
 40
1.05
100
AcDbArc
 50
150.0
 51
270.0
  0
ARC
  5
36
330
1D
100
AcDbEntity
  8
23
  6
Continuous
 62
     7
100
AcDbCircle
 10
5.859327
 20
22.235918
 30
0.0
 40
1.05
100
AcDbArc
 50
90.0
 51
210.0
  0
ARC
  5
37
330
1D
100
AcDbEntity
  8
23
  6
Continuous
 62
     7
100
AcDbCircle
 10
8.0
 20
23.471837
 30
0.0
 40
1.05
100
AcDbArc
 50
30.0
 51
150.0
  0
ARC
  5
38
330
1D
100
AcDbEntity
  8
23
  6
Continuous
 62
     7
100
AcDbCircle
 10
10.140673
 20
22.235918
 30
0.0
 40
1.05
100
AcDbArc
 50
330.0
 51
90.0
  0
LINE
  5
39
330
1D
100
AcDbEntity
  8
23
  6
Continuous
 62
     7
100
AcDbLine
 10
11.05
 20
34.710918
 30
0.0
 11
11.05
 21
33.289082
 31
0.0
  0
ARC
  5
3A
330
1D
100
AcDbEntity
  8
23
  6
Continuous
 62
     7
100
AcDbCircle
 10
10.140673
 20
32.764082
 30
0.0
 40
1.05
100
AcDbArc
 50
270.0
 51
30.0
  0
LINE
  5
3B
330
1D
100
AcDbEntity
  8
23
  6
Continuous
 62
     7
100
AcDbLine
 10
10.140673
 20
31.714082
 30
0.0
 11
8.909327
 21
31.003163
 31
0.0
  0
ARC
  5
3C
330
1D
100
AcDbEntity
  8
23
  6
Continuous
 62
     7
100
AcDbCircle
 10
8.0
 20
31.528163
 30
0.0
 40
1.05
100
AcDbArc
 50
210.0
 51
330.0
  0
LINE
  5
3D
330
1D
100
AcDbEntity
  8
23
  6
Continuous
 62
     7
100
AcDbLine
 10
7.090673
 20
31.003163
 30
0.0
 11
5.859327
 21
31.714082
 31
0.0
  0
ARC
  5
3E
330
1D
100
AcDbEntity
  8
23
  6
Continuous
 62
     7
100
AcDbCircle
 10
5.859327
 20
32.764082
 30
0.0
 40
1.05
100
AcDbArc
 50
150.0
 51
270.0
  0
LINE
  5
3F
330
1D
100
AcDbEntity
  8
23
  6
Continuous
 62
     7
100
AcDbLine
 10
4.95
 20
33.289082
 30
0.0
 11
4.95
 21
34.710918
 31
0.0
  0
ARC
  5
40
330
1D
100
AcDbEntity
  8
23
  6
Continuous
 62
     7
100
AcDbCircle
 10
5.859327
 20
35.235918
 30
0.0
 40
1.05
100
AcDbArc
 50
90.0
 51
210.0
  0
LINE
  5
41
330
1D
100
AcDbEntity
  8
23
  6
Continuous
 62
     7
100
AcDbLine
 10
5.859327
 20
36.285918
 30
0.0
 11
7.090673
 21
36.996837
 31
0.0
  0
ARC
  5
42
330
1D
100
AcDbEntity
  8
23
  6
Continuous
 62
     7
100
AcDbCircle
 10
8.0
 20
36.471837
 30
0.0
 40
1.05
100
AcDbArc
 50
30.0
 51
150.0
  0
LINE
  5
43
330
1D
100
AcDbEntity
  8
23
  6
Continuous
 62
     7
100
AcDbLine
 10
8.909327
 20
36.996837
 30
0.0
 11
10.140673
 21
36.285918
 31
0.0
  0
ARC
  5
44
330
1D
100
AcDbEntity
  8
23
  6
Continuous
 62
     7
100
AcDbCircle
 10
10.140673
 20
35.235918
 30
0.0
 40
1.05
100
AcDbArc
 50
330.0
 51
90.0
  0
LINE
  5
45
330
1D
100
AcDbEntity
  8
23
  6
Continuous
 62
     7
100
AcDbLine
 10
3.0
 20
39.0
 30
0.0
 11
3.0
 21
3.0
 31
0.0
  0
LINE
  5
46
330
1D
100
AcDbEntity
  8
23
  6
Continuous
 62
     7
100
AcDbLine
 10
3.0
 20
3.0
 30
0.0
 11
13.0
 21
3.0
 31
0.0
  0
LINE
  5
47
330
1D
100
AcDbEntity
  8
23
  6
Continuous
 62
     7
100
AcDbLine
 10
13.0
 20
3.0
 30
0.0
 11
13.0
 21
39.0
 31
0.0
  0
LINE
  5
48
330
1D
100
AcDbEntity
  8
23
  6
Continuous
 62
     7
100
AcDbLine
 10
13.0
 20
39.0
 30
0.0
 11
3.0
 21
39.0
 31
0.0
  0
LINE
  5
49
330
1D
100
AcDbEntity
  8
23
  6
Continuous
 62
     7
100
AcDbLine
 10
7.090673
 20
5.003163
 30
0.0
 11
5.859327
 21
5.714082
 31
0.0
  0
ARC
  5
4A
330
1D
100
AcDbEntity
  8
23
  6
Continuous
 62
     7
100
AcDbCircle
 10
5.859327
 20
6.764082
 30
0.0
 40
1.05
100
AcDbArc
 50
150.0
 51
270.0
  0
LINE
  5
4B
330
1D
100
AcDbEntity
  8
23
  6
Continuous
 62
     7
100
AcDbLine
 10
4.95
 20
7.289082
 30
0.0
 11
4.95
 21
8.710918
 31
0.0
  0
ARC
  5
4C
330
1D
100
AcDbEntity
  8
23
  6
Continuous
 62
     7
100
AcDbCircle
 10
5.859327
 20
9.235918
 30
0.0
 40
1.05
100
AcDbArc
 50
90.0
 51
210.0
  0
LINE
  5
4D
330
1D
100
AcDbEntity
  8
23
  6
Continuous
 62
     7
100
AcDbLine
 10
5.859327
 20
10.285918
 30
0.0
 11
7.090673
 21
10.996837
 31
0.0
  0
ARC
  5
4E
330
1D
100
AcDbEntity
  8
23
  6
Continuous
 62
     7
100
AcDbCircle
 10
8.0
 20
10.471837
 30
0.0
 40
1.05
100
AcDbArc
 50
30.0
 51
150.0
  0
LINE
  5
4F
330
1D
100
AcDbEntity
  8
23
  6
Continuous
 62
     7
100
AcDbLine
 10
8.909327
 20
10.996837
 30
0.0
 11
10.140673
 21
10.285918
 31
0.0
  0
ARC
  5
50
330
1D
100
AcDbEntity
  8
23
  6
Continuous
 62
     7
100
AcDbCircle
 10
10.140673
 20
9.235918
 30
0.0
 40
1.05
100
AcDbArc
 50
330.0
 51
90.0
  0
LINE
  5
51
330
1D
100
AcDbEntity
  8
23
  6
Continuous
 62
     7
100
AcDbLine
 10
11.05
 20
8.710918
 30
0.0
 11
11.05
 21
7.289082
 31
0.0
  0
ARC
  5
52
330
1D
100
AcDbEntity
  8
23
  6
Continuous
 62
     7
100
AcDbCircle
 10
10.140673
 20
6.764082
 30
0.0
 40
1.05
100
AcDbArc
 50
270.0
 51
30.0
  0
LINE
  5
53
330
1D
100
AcDbEntity
  8
23
  6
Continuous
 62
     7
100
AcDbLine
 10
10.140673
 20
5.714082
 30
0.0
 11
8.909327
 21
5.003163
 31
0.0
  0
ARC
  5
54
330
1D
100
AcDbEntity
  8
23
  6
Continuous
 62
     7
100
AcDbCircle
 10
8.0
 20
5.528163
 30
0.0
 40
1.05
100
AcDbArc
 50
210.0
 51
330.0
  0
LINE
  5
55
330
1D
100
AcDbEntity
  8
23
  6
Continuous
 62
     7
100
AcDbLine
 10
17.05
 20
21.710918
 30
0.0
 11
17.05
 21
20.289082
 31
0.0
  0
LINE
  5
56
330
1D
100
AcDbEntity
  8
23
  6
Continuous
 62
     7
100
AcDbLine
 10
17.959327
 20
18.714082
 30
0.0
 11
19.190674
 21
18.003163
 31
0.0
  0
LINE
  5
57
330
1D
100
AcDbEntity
  8
23
  6
Continuous
 62
     7
100
AcDbLine
 10
21.009327
 20
18.003163
 30
0.0
 11
22.240674
 21
18.714082
 31
0.0
  0
LINE
  5
58
330
1D
100
AcDbEntity
  8
23
  6
Continuous
 62
     7
100
AcDbLine
 10
22.240674
 20
23.285918
 30
0.0
 11
21.009327
 21
23.996837
 31
0.0
  0
LINE
  5
59
330
1D
100
AcDbEntity
  8
23
  6
Continuous
 62
     7
100
AcDbLine
 10
19.190674
 20
23.996837
 30
0.0
 11
17.959327
 21
23.285918
 31
0.0
  0
LINE
  5
5A
330
1D
100
AcDbEntity
  8
23
  6
Continuous
 62
     7
100
AcDbLine
 10
23.15
 20
20.289082
 30
0.0
 11
23.15
 21
21.710918
 31
0.0
  0
ARC
  5
5B
330
1D
100
AcDbEntity
  8
23
  6
Continuous
 62
     7
100
AcDbCircle
 10
17.959327
 20
19.764082
 30
0.0
 40
1.05
100
AcDbArc
 50
150.0
 51
270.0
  0
ARC
  5
5C
330
1D
100
AcDbEntity
  8
23
  6
Continuous
 62
     7
100
AcDbCircle
 10
20.1
 20
18.528163
 30
0.0
 40
1.05
100
AcDbArc
 50
210.0
 51
330.0
  0
ARC
  5
5D
330
1D
100
AcDbEntity
  8
23
  6
Continuous
 62
     7
100
AcDbCircle
 10
22.240674
 20
19.764082
 30
0.0
 40
1.05
100
AcDbArc
 50
270.0
 51
30.0
  0
ARC
  5
5E
330
1D
100
AcDbEntity
  8
23
  6
Continuous
 62
     7
100
AcDbCircle
 10
22.240674
 20
22.235918
 30
0.0
 40
1.05
100
AcDbArc
 50
330.0
 51
90.0
  0
ARC
  5
5F
330
1D
100
AcDbEntity
  8
23
  6
Continuous
 62
     7
100
AcDbCircle
 10
20.1
 20
23.471837
 30
0.0
 40
1.05
100
AcDbArc
 50
30.0
 51
150.0
  0
ARC
  5
60
330
1D
100
AcDbEntity
  8
23
  6
Continuous
 62
     7
100
AcDbCircle
 10
17.959327
 20
22.235918
 30
0.0
 40
1.05
100
AcDbArc
 50
90.0
 51
210.0
  0
LINE
  5
61
330
1D
100
AcDbEntity
  8
23
  6
Continuous
 62
     7
100
AcDbLine
 10
17.05
 20
34.710918
 30
0.0
 11
17.05
 21
33.289082
 31
0.0
  0
ARC
  5
62
330
1D
100
AcDbEntity
  8
23
  6
Continuous
 62
     7
100
AcDbCircle
 10
17.959327
 20
32.764082
 30
0.0
 40
1.05
100
AcDbArc
 50
150.0
 51
270.0
  0
LINE
  5
63
330
1D
100
AcDbEntity
  8
23
  6
Continuous
 62
     7
100
AcDbLine
 10
17.959327
 20
31.714082
 30
0.0
 11
19.190674
 21
31.003163
 31
0.0
  0
ARC
  5
64
330
1D
100
AcDbEntity
  8
23
  6
Continuous
 62
     7
100
AcDbCircle
 10
20.1
 20
31.528163
 30
0.0
 40
1.05
100
AcDbArc
 50
210.0
 51
330.0
  0
LINE
  5
65
330
1D
100
AcDbEntity
  8
23
  6
Continuous
 62
     7
100
AcDbLine
 10
21.009327
 20
31.003163
 30
0.0
 11
22.240674
 21
31.714082
 31
0.0
  0
ARC
  5
66
330
1D
100
AcDbEntity
  8
23
  6
Continuous
 62
     7
100
AcDbCircle
 10
22.240674
 20
32.764082
 30
0.0
 40
1.05
100
AcDbArc
 50
270.0
 51
30.0
  0
LINE
  5
67
330
1D
100
AcDbEntity
  8
23
  6
Continuous
 62
     7
100
AcDbLine
 10
23.15
 20
33.289082
 30
0.0
 11
23.15
 21
34.710918
 31
0.0
  0
ARC
  5
68
330
1D
100
AcDbEntity
  8
23
  6
Continuous
 62
     7
100
AcDbCircle
 10
22.240674
 20
35.235918
 30
0.0
 40
1.05
100
AcDbArc
 50
330.0
 51
90.0
  0
LINE
  5
69
330
1D
100
AcDbEntity
  8
23
  6
Continuous
 62
     7
100
AcDbLine
 10
22.240674
 20
36.285918
 30
0.0
 11
21.009327
 21
36.996837
 31
0.0
  0
ARC
  5
6A
330
1D
100
AcDbEntity
  8
23
  6
Continuous
 62
     7
100
AcDbCircle
 10
20.1
 20
36.471837
 30
0.0
 40
1.05
100
AcDbArc
 50
30.0
 51
150.0
  0
LINE
  5
6B
330
1D
100
AcDbEntity
  8
23
  6
Continuous
 62
     7
100
AcDbLine
 10
19.190674
 20
36.996837
 30
0.0
 11
17.959327
 21
36.285918
 31
0.0
  0
ARC
  5
6C
330
1D
100
AcDbEntity
  8
23
  6
Continuous
 62
     7
100
AcDbCircle
 10
17.959327
 20
35.235918
 30
0.0
 40
1.05
100
AcDbArc
 50
90.0
 51
210.0
  0
LINE
  5
6D
330
1D
100
AcDbEntity
  8
23
  6
Continuous
 62
     7
100
AcDbLine
 10
25.1
 20
39.0
 30
0.0
 11
25.1
 21
3.0
 31
0.0
  0
LINE
  5
6E
330
1D
100
AcDbEntity
  8
23
  6
Continuous
 62
     7
100
AcDbLine
 10
25.1
 20
3.0
 30
0.0
 11
15.1
 21
3.0
 31
0.0
  0
LINE
  5
6F
330
1D
100
AcDbEntity
  8
23
  6
Continuous
 62
     7
100
AcDbLine
 10
15.1
 20
3.0
 30
0.0
 11
15.1
 21
39.0
 31
0.0
  0
LINE
  5
70
330
1D
100
AcDbEntity
  8
23
  6
Continuous
 62
     7
100
AcDbLine
 10
15.1
 20
39.0
 30
0.0
 11
25.1
 21
39.0
 31
0.0
  0
LINE
  5
71
330
1D
100
AcDbEntity
  8
23
  6
Continuous
 62
     7
100
AcDbLine
 10
21.009327
 20
5.003163
 30
0.0
 11
22.240674
 21
5.714082
 31
0.0
  0
ARC
  5
72
330
1D
100
AcDbEntity
  8
23
  6
Continuous
 62
     7
100
AcDbCircle
 10
22.240674
 20
6.764082
 30
0.0
 40
1.05
100
AcDbArc
 50
270.0
 51
30.0
  0
LINE
  5
73
330
1D
100
AcDbEntity
  8
23
  6
Continuous
 62
     7
100
AcDbLine
 10
23.15
 20
7.289082
 30
0.0
 11
23.15
 21
8.710918
 31
0.0
  0
ARC
  5
74
330
1D
100
AcDbEntity
  8
23
  6
Continuous
 62
     7
100
AcDbCircle
 10
22.240674
 20
9.235918
 30
0.0
 40
1.05
100
AcDbArc
 50
330.0
 51
90.0
  0
LINE
  5
75
330
1D
100
AcDbEntity
  8
23
  6
Continuous
 62
     7
100
AcDbLine
 10
22.240674
 20
10.285918
 30
0.0
 11
21.009327
 21
10.996837
 31
0.0
  0
ARC
  5
76
330
1D
100
AcDbEntity
  8
23
  6
Continuous
 62
     7
100
AcDbCircle
 10
20.1
 20
10.471837
 30
0.0
 40
1.05
100
AcDbArc
 50
30.0
 51
150.0
  0
LINE
  5
77
330
1D
100
AcDbEntity
  8
23
  6
Continuous
 62
     7
100
AcDbLine
 10
19.190674
 20
10.996837
 30
0.0
 11
17.959327
 21
10.285918
 31
0.0
  0
ARC
  5
78
330
1D
100
AcDbEntity
  8
23
  6
Continuous
 62
     7
100
AcDbCircle
 10
17.959327
 20
9.235918
 30
0.0
 40
1.05
100
AcDbArc
 50
90.0
 51
210.0
  0
LINE
  5
79
330
1D
100
AcDbEntity
  8
23
  6
Continuous
 62
     7
100
AcDbLine
 10
17.05
 20
8.710918
 30
0.0
 11
17.05
 21
7.289082
 31
0.0
  0
ARC
  5
7A
330
1D
100
AcDbEntity
  8
23
  6
Continuous
 62
     7
100
AcDbCircle
 10
17.959327
 20
6.764082
 30
0.0
 40
1.05
100
AcDbArc
 50
150.0
 51
270.0
  0
LINE
  5
7B
330
1D
100
AcDbEntity
  8
23
  6
Continuous
 62
     7
100
AcDbLine
 10
17.959327
 20
5.714082
 30
0.0
 11
19.190674
 21
5.003163
 31
0.0
  0
ARC
  5
7C
330
1D
100
AcDbEntity
  8
23
  6
Continuous
 62
     7
100
AcDbCircle
 10
20.1
 20
5.528163
 30
0.0
 40
1.05
100
AcDbArc
 50
210.0
 51
330.0
  0
ARC
  5
7D
330
1D
100
AcDbEntity
  8
23
  6
Continuous
 62
     7
100
AcDbCircle
 10
29.710112
 20
33.5
 30
0.0
 40
2.0
100
AcDbArc
 50
270.0
 51
289.765825
  0
ARC
  5
7E
330
1D
100
AcDbEntity
  8
23
  6
Continuous
 62
     7
100
AcDbCircle
 10
29.2
 20
29.5
 30
0.0
 40
2.0
100
AcDbArc
 50
90.0
 51
180.0
  0
ARC
  5
7F
330
1D
100
AcDbEntity
  8
23
  6
Continuous
 62
     7
100
AcDbCircle
 10
29.2
 20
5.0
 30
0.0
 40
2.0
100
AcDbArc
 50
180.0
 51
270.0
  0
ARC
  5
80
330
1D
100
AcDbEntity
  8
23
  6
Continuous
 62
     7
100
AcDbCircle
 10
77.5
 20
5.0
 30
0.0
 40
2.0
100
AcDbArc
 50
270.0
 51
0.0
  0
ARC
  5
81
330
1D
100
AcDbEntity
  8
23
  6
Continuous
 62
     7
100
AcDbCircle
 10
77.5
 20
15.023456
 30
0.0
 40
2.0
100
AcDbArc
 50
0.0
 51
44.244942
  0
ARC
  5
82
330
1D
100
AcDbEntity
  8
23
  6
Continuous
 62
     7
100
AcDbCircle
 10
71.860452
 20
20.813637
 30
0.0
 40
2.0
100
AcDbArc
 50
44.244942
 51
134.244942
  0
ARC
  5
83
330
1D
100
AcDbEntity
  8
23
  6
Continuous
 62
     7
100
AcDbCircle
 10
49.073846
 20
35.1453
 30
0.0
 40
2.0
100
AcDbArc
 50
289.765825
 51
19.765825
  0
ARC
  5
84
330
1D
100
AcDbEntity
  8
23
  6
Continuous
 62
     7
100
AcDbCircle
 10
48.73567
 20
36.086382
 30
0.0
 40
2.0
100
AcDbArc
 50
19.765825
 51
109.765825
  0
LINE
  5
85
330
1D
100
AcDbEntity
  8
23
  6
Continuous
 62
     7
100
AcDbLine
 10
29.710112
 20
31.5
 30
0.0
 11
29.2
 21
31.5
 31
0.0
  0
CIRCLE
  5
86
330
1D
100
AcDbEntity
  8
23
  6
Continuous
 62
     7
100
AcDbCircle
 10
76.5
 20
5.5
 30
0.0
 40
1.35
  0
CIRCLE
  5
87
330
1D
100
AcDbEntity
  8
23
  6
Continuous
 62
     7
100
AcDbCircle
 10
30.2
 20
28.5
 30
0.0
 40
1.55
  0
LINE
  5
88
330
1D
100
AcDbEntity
  8
23
  6
Continuous
 62
     7
100
AcDbLine
 10
27.2
 20
29.5
 30
0.0
 11
27.2
 21
5.0
 31
0.0
  0
LINE
  5
89
330
1D
100
AcDbEntity
  8
23
  6
Continuous
 62
     7
100
AcDbLine
 10
29.2
 20
3.0
 30
0.0
 11
77.5
 21
3.0
 31
0.0
  0
LINE
  5
8A
330
1D
100
AcDbEntity
  8
23
  6
Continuous
 62
     7
100
AcDbLine
 10
79.5
 20
5.0
 30
0.0
 11
79.5
 21
15.023456
 31
0.0
  0
LINE
  5
8B
330
1D
100
AcDbEntity
  8
23
  6
Continuous
 62
     7
100
AcDbLine
 10
78.932727
 20
16.418911
 30
0.0
 11
73.293179
 21
22.209091
 31
0.0
  0
LINE
  5
8C
330
1D
100
AcDbEntity
  8
23
  6
Continuous
 62
     7
100
AcDbLine
 10
70.464998
 20
22.246364
 30
0.0
 11
57.570454
 21
9.687274
 31
0.0
  0
ARC
  5
8D
330
1D
100
AcDbEntity
  8
23
  6
Continuous
 62
     7
100
AcDbCircle
 10
48.5
 20
19.0
 30
0.0
 40
13.0
100
AcDbArc
 50
205.191193
 51
314.244942
  0
ARC
  5
8E
330
1D
100
AcDbEntity
  8
23
  6
Continuous
 62
     7
100
AcDbCircle
 10
36.55
 20
14.5
 30
0.0
 40
1.05
100
AcDbArc
 50
270.0
 51
280.225434
  0
LINE
  5
8F
330
1D
100
AcDbEntity
  8
23
  6
Continuous
 62
     7
100
AcDbLine
 10
36.55
 20
13.45
 30
0.0
 11
33.45
 21
13.45
 31
0.0
  0
ARC
  5
90
330
1D
100
AcDbEntity
  8
23
  6
Continuous
 62
     7
100
AcDbCircle
 10
33.45
 20
14.5
 30
0.0
 40
1.05
100
AcDbArc
 50
90.0
 51
270.0
  0
LINE
  5
91
330
1D
100
AcDbEntity
  8
23
  6
Continuous
 62
     7
100
AcDbLine
 10
33.45
 20
15.55
 30
0.0
 11
33.45
 21
22.45
 31
0.0
  0
ARC
  5
92
330
1D
100
AcDbEntity
  8
23
  6
Continuous
 62
     7
100
AcDbCircle
 10
33.45
 20
23.5
 30
0.0
 40
1.05
100
AcDbArc
 50
90.0
 51
270.0
  0
LINE
  5
93
330
1D
100
AcDbEntity
  8
23
  6
Continuous
 62
     7
100
AcDbLine
 10
33.45
 20
24.55
 30
0.0
 11
36.55
 21
24.55
 31
0.0
  0
ARC
  5
94
330
1D
100
AcDbEntity
  8
23
  6
Continuous
 62
     7
100
AcDbCircle
 10
36.55
 20
23.5
 30
0.0
 40
1.05
100
AcDbArc
 50
79.774566
 51
90.0
  0
LINE
  5
95
330
1D
100
AcDbEntity
  8
23
  6
Continuous
 62
     7
100
AcDbLine
 10
44.103704
 20
31.234074
 30
0.0
 11
49.7502
 21
33.263134
 31
0.0
  0
LINE
  5
96
330
1D
100
AcDbEntity
  8
23
  6
Continuous
 62
     7
100
AcDbLine
 10
50.956012
 20
35.821653
 30
0.0
 11
50.617835
 21
36.762736
 31
0.0
  0
LINE
  5
97
330
1D
100
AcDbEntity
  8
23
  6
Continuous
 62
     7
100
AcDbLine
 10
48.059316
 20
37.968548
 30
0.0
 11
30.386465
 21
31.617835
 31
0.0
  0
ARC
  5
98
330
1D
100
AcDbEntity
  8
23
  6
Continuous
 62
     7
100
AcDbCircle
 10
48.5
 20
19.0
 30
0.0
 40
13.0
100
AcDbArc
 50
109.765825
 51
154.808807
  0
ARC
  5
99
330
1D
100
AcDbEntity
  8
23
  6
Continuous
 62
     7
100
AcDbCircle
 10
29.710112
 20
44.772765
 30
0.0
 40
2.0
100
AcDbArc
 50
70.234175
 51
90.0
  0
ARC
  5
9A
330
1D
100
AcDbEntity
  8
23
  6
Continuous
 62
     7
100
AcDbCircle
 10
29.2
 20
48.772765
 30
0.0
 40
2.0
100
AcDbArc
 50
180.0
 51
270.0
  0
ARC
  5
9B
330
1D
100
AcDbEntity
  8
23
  6
Continuous
 62
     7
100
AcDbCircle
 10
29.2
 20
73.272765
 30
0.0
 40
2.0
100
AcDbArc
 50
90.0
 51
180.0
  0
ARC
  5
9C
330
1D
100
AcDbEntity
  8
23
  6
Continuous
 62
     7
100
AcDbCircle
 10
77.5
 20
73.272765
 30
0.0
 40
2.0
100
AcDbArc
 50
0.0
 51
90.0
  0
ARC
  5
9D
330
1D
100
AcDbEntity
  8
23
  6
Continuous
 62
     7
100
AcDbCircle
 10
77.5
 20
63.249308
 30
0.0
 40
2.0
100
AcDbArc
 50
315.755058
 51
0.0
  0
ARC
  5
9E
330
1D
100
AcDbEntity
  8
23
  6
Continuous
 62
     7
100
AcDbCircle
 10
71.860452
 20
57.459128
 30
0.0
 40
2.0
100
AcDbArc
 50
225.755058
 51
315.755058
  0
ARC
  5
9F
330
1D
100
AcDbEntity
  8
23
  6
Continuous
 62
     7
100
AcDbCircle
 10
49.073846
 20
43.127465
 30
0.0
 40
2.0
100
AcDbArc
 50
340.2341749999999
 51
70.234175
  0
ARC
  5
A0
330
1D
100
AcDbEntity
  8
23
  6
Continuous
 62
     7
100
AcDbCircle
 10
48.73567
 20
42.186382
 30
0.0
 40
2.0
100
AcDbArc
 50
250.234175
 51
340.2341749999999
  0
LINE
  5
A1
330
1D
100
AcDbEntity
  8
23
  6
Continuous
 62
     7
100
AcDbLine
 10
29.710112
 20
46.772765
 30
0.0
 11
29.2
 21
46.772765
 31
0.0
  0
CIRCLE
  5
A2
330
1D
100
AcDbEntity
  8
23
  6
Continuous
 62
     7
100
AcDbCircle
 10
76.5
 20
72.772765
 30
0.0
 40
1.35
  0
CIRCLE
  5
A3
330
1D
100
AcDbEntity
  8
23
  6
Continuous
 62
     7
100
AcDbCircle
 10
30.2
 20
49.772765
 30
0.0
 40
1.55
  0
LINE
  5
A4
330
1D
100
AcDbEntity
  8
23
  6
Continuous
 62
     7
100
AcDbLine
 10
27.2
 20
48.772765
 30
0.0
 11
27.2
 21
73.272765
 31
0.0
  0
LINE
  5
A5
330
1D
100
AcDbEntity
  8
23
  6
Continuous
 62
     7
100
AcDbLine
 10
29.2
 20
75.272765
 30
0.0
 11
77.5
 21
75.272765
 31
0.0
  0
LINE
  5
A6
330
1D
100
AcDbEntity
  8
23
  6
Continuous
 62
     7
100
AcDbLine
 10
79.5
 20
73.272765
 30
0.0
 11
79.5
 21
63.249308
 31
0.0
  0
LINE
  5
A7
330
1D
100
AcDbEntity
  8
23
  6
Continuous
 62
     7
100
AcDbLine
 10
78.932727
 20
61.853854
 30
0.0
 11
73.293179
 21
56.063673
 31
0.0
  0
LINE
  5
A8
330
1D
100
AcDbEntity
  8
23
  6
Continuous
 62
     7
100
AcDbLine
 10
70.464998
 20
56.026401
 30
0.0
 11
57.570454
 21
68.585491
 31
0.0
  0
ARC
  5
A9
330
1D
100
AcDbEntity
  8
23
  6
Continuous
 62
     7
100
AcDbCircle
 10
48.5
 20
59.272765
 30
0.0
 40
13.0
100
AcDbArc
 50
45.75505800000001
 51
154.808807
  0
ARC
  5
AA
330
1D
100
AcDbEntity
  8
23
  6
Continuous
 62
     7
100
AcDbCircle
 10
36.55
 20
63.772765
 30
0.0
 40
1.05
100
AcDbArc
 50
79.774566
 51
90.0
  0
LINE
  5
AB
330
1D
100
AcDbEntity
  8
23
  6
Continuous
 62
     7
100
AcDbLine
 10
36.55
 20
64.822765
 30
0.0
 11
33.45
 21
64.822765
 31
0.0
  0
ARC
  5
AC
330
1D
100
AcDbEntity
  8
23
  6
Continuous
 62
     7
100
AcDbCircle
 10
33.45
 20
63.772765
 30
0.0
 40
1.05
100
AcDbArc
 50
90.0
 51
270.0
  0
LINE
  5
AD
330
1D
100
AcDbEntity
  8
23
  6
Continuous
 62
     7
100
AcDbLine
 10
33.45
 20
62.722765
 30
0.0
 11
33.45
 21
55.822765
 31
0.0
  0
ARC
  5
AE
330
1D
100
AcDbEntity
  8
23
  6
Continuous
 62
     7
100
AcDbCircle
 10
33.45
 20
54.772765
 30
0.0
 40
1.05
100
AcDbArc
 50
90.0
 51
270.0
  0
LINE
  5
AF
330
1D
100
AcDbEntity
  8
23
  6
Continuous
 62
     7
100
AcDbLine
 10
33.45
 20
53.722765
 30
0.0
 11
36.55
 21
53.722765
 31
0.0
  0
ARC
  5
B0
330
1D
100
AcDbEntity
  8
23
  6
Continuous
 62
     7
100
AcDbCircle
 10
36.55
 20
54.772765
 30
0.0
 40
1.05
100
AcDbArc
 50
270.0
 51
280.225434
  0
LINE
  5
B1
330
1D
100
AcDbEntity
  8
23
  6
Continuous
 62
     7
100
AcDbLine
 10
44.103704
 20
47.03869
 30
0.0
 11
49.7502
 21
45.00963
 31
0.0
  0
LINE
  5
B2
330
1D
100
AcDbEntity
  8
23
  6
Continuous
 62
     7
100
AcDbLine
 10
50.956012
 20
42.451112
 30
0.0
 11
50.617835
 21
41.510029
 31
0.0
  0
LINE
  5
B3
330
1D
100
AcDbEntity
  8
23
  6
Continuous
 62
     7
100
AcDbLine
 10
48.059316
 20
40.304217
 30
0.0
 11
30.386465
 21
46.65493
 31
0.0
  0
ARC
  5
B4
330
1D
100
AcDbEntity
  8
23
  6
Continuous
 62
     7
100
AcDbCircle
 10
48.5
 20
59.272765
 30
0.0
 40
13.0
100
AcDbArc
 50
205.191193
 51
250.234175
  0
LINE
  5
B5
330
1D
100
AcDbEntity
  8
1
  6
Continuous
 62
     7
100
AcDbLine
 10
3.0
 20
91.2
 30
0.0
 11
3.0
 21
41.1
 31
0.0
  0
LINE
  5
B6
330
1D
100
AcDbEntity
  8
1
  6
Continuous
 62
     7
100
AcDbLine
 10
3.0
 20
41.1
 30
0.0
 11
12.1
 21
41.1
 31
0.0
  0
LINE
  5
B7
330
1D
100
AcDbEntity
  8
1
  6
Continuous
 62
     7
100
AcDbLine
 10
12.1
 20
41.1
 30
0.0
 11
12.1
 21
91.2
 31
0.0
  0
LINE
  5
B8
330
1D
100
AcDbEntity
  8
1
  6
Continuous
 62
     7
100
AcDbLine
 10
12.1
 20
91.2
 30
0.0
 11
3.0
 21
91.2
 31
0.0
  0
ARC
  5
B9
330
1D
100
AcDbEntity
  8
1
  6
Continuous
 62
     7
100
AcDbCircle
 10
5.742463
 20
88.457538
 30
0.0
 40
1.05
100
AcDbArc
 50
45.0
 51
225.0
  0
ARC
  5
BA
330
1D
100
AcDbEntity
  8
1
  6
Continuous
 62
     7
100
AcDbCircle
 10
9.357538
 20
88.457538
 30
0.0
 40
1.05
100
AcDbArc
 50
315.0
 51
135.0
  0
ARC
  5
BB
330
1D
100
AcDbEntity
  8
1
  6
Continuous
 62
     7
100
AcDbCircle
 10
5.742463
 20
43.842462
 30
0.0
 40
1.05
100
AcDbArc
 50
135.0
 51
315.0
  0
ARC
  5
BC
330
1D
100
AcDbEntity
  8
1
  6
Continuous
 62
     7
100
AcDbCircle
 10
9.357538
 20
43.842462
 30
0.0
 40
1.05
100
AcDbArc
 50
225.0
 51
45.0
  0
LINE
  5
BD
330
1D
100
AcDbEntity
  8
1
  6
Continuous
 62
     7
100
AcDbLine
 10
5.0
 20
44.584923
 30
0.0
 11
5.0
 21
87.715075
 31
0.0
  0
LINE
  5
BE
330
1D
100
AcDbEntity
  8
1
  6
Continuous
 62
     7
100
AcDbLine
 10
6.484924
 20
89.2
 30
0.0
 11
8.615076
 21
89.2
 31
0.0
  0
LINE
  5
BF
330
1D
100
AcDbEntity
  8
1
  6
Continuous
 62
     7
100
AcDbLine
 10
10.1
 20
87.715077
 30
0.0
 11
10.1
 21
44.584923
 31
0.0
  0
LINE
  5
C0
330
1D
100
AcDbEntity
  8
1
  6
Continuous
 62
     7
100
AcDbLine
 10
8.615076
 20
43.1
 30
0.0
 11
6.484924
 21
43.1
 31
0.0
  0
CIRCLE
  5
C1
330
1D
100
AcDbEntity
  8
1
  6
Continuous
 62
     7
100
AcDbCircle
 10
7.55
 20
66.15
 30
0.0
 40
1.05
  0
CIRCLE
  5
C2
330
1D
100
AcDbEntity
  8
1
  6
Continuous
 62
     7
100
AcDbCircle
 10
7.55
 20
46.15
 30
0.0
 40
1.05
  0
CIRCLE
  5
C3
330
1D
100
AcDbEntity
  8
1
  6
Continuous
 62
     7
100
AcDbCircle
 10
7.55
 20
86.15
 30
0.0
 40
1.05
  0
ARC
  5
C4
330
1D
100
AcDbEntity
  8
1
  6
Continuous
 62
     7
100
AcDbCircle
 10
20.557538
 20
43.842462
 30
0.0
 40
1.05
100
AcDbArc
 50
225.0
 51
45.0
  0
ARC
  5
C5
330
1D
100
AcDbEntity
  8
1
  6
Continuous
 62
     7
100
AcDbCircle
 10
16.942463
 20
43.842462
 30
0.0
 40
1.05
100
AcDbArc
 50
135.0
 51
315.0
  0
LINE
  5
C6
330
1D
100
AcDbEntity
  8
1
  6
Continuous
 62
     7
100
AcDbLine
 10
17.684924
 20
43.1
 30
0.0
 11
19.815076
 21
43.1
 31
0.0
  0
CIRCLE
  5
C7
330
1D
100
AcDbEntity
  8
1
  6
Continuous
 62
     7
100
AcDbCircle
 10
18.75
 20
46.15
 30
0.0
 40
1.05
  0
ARC
  5
C8
330
1D
100
AcDbEntity
  8
1
  6
Continuous
 62
     7
100
AcDbCircle
 10
20.557538
 20
72.457538
 30
0.0
 40
1.05
100
AcDbArc
 50
315.0
 51
135.0
  0
ARC
  5
C9
330
1D
100
AcDbEntity
  8
1
  6
Continuous
 62
     7
100
AcDbCircle
 10
16.942463
 20
72.457538
 30
0.0
 40
1.05
100
AcDbArc
 50
45.0
 51
225.0
  0
LINE
  5
CA
330
1D
100
AcDbEntity
  8
1
  6
Continuous
 62
     7
100
AcDbLine
 10
17.684924
 20
73.2
 30
0.0
 11
19.815076
 21
73.2
 31
0.0
  0
CIRCLE
  5
CB
330
1D
100
AcDbEntity
  8
1
  6
Continuous
 62
     7
100
AcDbCircle
 10
18.75
 20
70.15
 30
0.0
 40
1.05
  0
LINE
  5
CC
330
1D
100
AcDbEntity
  8
1
  6
Continuous
 62
     7
100
AcDbLine
 10
16.2
 20
71.715077
 30
0.0
 11
16.2
 21
44.584923
 31
0.0
  0
LINE
  5
CD
330
1D
100
AcDbEntity
  8
1
  6
Continuous
 62
     7
100
AcDbLine
 10
21.3
 20
44.584923
 30
0.0
 11
21.3
 21
71.715077
 31
0.0
  0
LINE
  5
CE
330
1D
100
AcDbEntity
  8
1
  6
Continuous
 62
     7
100
AcDbLine
 10
14.2
 20
75.2
 30
0.0
 11
14.2
 21
41.1
 31
0.0
  0
LINE
  5
CF
330
1D
100
AcDbEntity
  8
1
  6
Continuous
 62
     7
100
AcDbLine
 10
14.2
 20
41.1
 30
0.0
 11
23.3
 21
41.1
 31
0.0
  0
LINE
  5
D0
330
1D
100
AcDbEntity
  8
1
  6
Continuous
 62
     7
100
AcDbLine
 10
23.3
 20
41.1
 30
0.0
 11
23.3
 21
75.2
 31
0.0
  0
LINE
  5
D1
330
1D
100
AcDbEntity
  8
1
  6
Continuous
 62
     7
100
AcDbLine
 10
23.3
 20
75.2
 30
0.0
 11
14.2
 21
75.2
 31
0.0
  0
CIRCLE
  5
D2
330
1D
100
AcDbEntity
  8
1
  6
Continuous
 62
     7
100
AcDbCircle
 10
18.75
 20
58.15
 30
0.0
 40
1.05
  0
LINE
  5
D3
330
1D
100
AcDbEntity
  8
1
  6
Continuous
 62
     7
100
AcDbLine
 10
26.2
 20
76.272765
 30
0.0
 11
26.2
 21
2.0
 31
0.0
  0
LINE
  5
D4
330
1D
100
AcDbEntity
  8
1
  6
Continuous
 62
     7
100
AcDbLine
 10
26.2
 20
2.0
 30
0.0
 11
80.5
 21
2.0
 31
0.0
  0
LINE
  5
D5
330
1D
100
AcDbEntity
  8
1
  6
Continuous
 62
     7
100
AcDbLine
 10
80.5
 20
2.0
 30
0.0
 11
80.5
 21
76.272765
 31
0.0
  0
LINE
  5
D6
330
1D
100
AcDbEntity
  8
1
  6
Continuous
 62
     7
100
AcDbLine
 10
80.5
 20
76.272765
 30
0.0
 11
26.2
 21
76.272765
 31
0.0
  0
ARC
  5
D7
330
1D
100
AcDbEntity
  8
1
  6
Continuous
 62
     7
100
AcDbCircle
 10
16.942462
 20
83.730302
 30
0.0
 40
1.05
100
AcDbArc
 50
45.0
 51
225.0
  0
ARC
  5
D8
330
1D
100
AcDbEntity
  8
1
  6
Continuous
 62
     7
100
AcDbCircle
 10
16.942462
 20
80.115227
 30
0.0
 40
1.05
100
AcDbArc
 50
135.0
 51
315.0
  0
LINE
  5
D9
330
1D
100
AcDbEntity
  8
1
  6
Continuous
 62
     7
100
AcDbLine
 10
16.2
 20
80.857689
 30
0.0
 11
16.2
 21
82.98784
 31
0.0
  0
CIRCLE
  5
DA
330
1D
100
AcDbEntity
  8
1
  6
Continuous
 62
     7
100
AcDbCircle
 10
19.25
 20
81.922765
 30
0.0
 40
1.05
  0
ARC
  5
DB
330
1D
100
AcDbEntity
  8
1
  6
Continuous
 62
     7
100
AcDbCircle
 10
60.557538
 20
83.730302
 30
0.0
 40
1.05
100
AcDbArc
 50
315.0
 51
135.0
  0
ARC
  5
DC
330
1D
100
AcDbEntity
  8
1
  6
Continuous
 62
     7
100
AcDbCircle
 10
60.557538
 20
80.115227
 30
0.0
 40
1.05
100
AcDbArc
 50
225.0
 51
45.0
  0
LINE
  5
DD
330
1D
100
AcDbEntity
  8
1
  6
Continuous
 62
     7
100
AcDbLine
 10
61.3
 20
80.857689
 30
0.0
 11
61.3
 21
82.98784
 31
0.0
  0
CIRCLE
  5
DE
330
1D
100
AcDbEntity
  8
1
  6
Continuous
 62
     7
100
AcDbCircle
 10
58.25
 20
81.922765
 30
0.0
 40
1.05
  0
LINE
  5
DF
330
1D
100
AcDbEntity
  8
1
  6
Continuous
 62
     7
100
AcDbLine
 10
59.815077
 20
84.472765
 30
0.0
 11
17.684923
 21
84.472765
 31
0.0
  0
LINE
  5
E0
330
1D
100
AcDbEntity
  8
1
  6
Continuous
 62
     7
100
AcDbLine
 10
59.815077
 20
79.372765
 30
0.0
 11
17.684923
 21
79.372765
 31
0.0
  0
LINE
  5
E1
330
1D
100
AcDbEntity
  8
1
  6
Continuous
 62
     7
100
AcDbLine
 10
14.2
 20
86.472765
 30
0.0
 11
14.2
 21
77.372765
 31
0.0
  0
LINE
  5
E2
330
1D
100
AcDbEntity
  8
1
  6
Continuous
 62
     7
100
AcDbLine
 10
14.2
 20
77.372765
 30
0.0
 11
63.3
 21
77.372765
 31
0.0
  0
LINE
  5
E3
330
1D
100
AcDbEntity
  8
1
  6
Continuous
 62
     7
100
AcDbLine
 10
63.3
 20
77.372765
 30
0.0
 11
63.3
 21
86.472765
 31
0.0
  0
LINE
  5
E4
330
1D
100
AcDbEntity
  8
1
  6
Continuous
 62
     7
100
AcDbLine
 10
63.3
 20
86.472765
 30
0.0
 11
14.2
 21
86.472765
 31
0.0
  0
CIRCLE
  5
E5
330
1D
100
AcDbEntity
  8
1
  6
Continuous
 62
     7
100
AcDbCircle
 10
38.75
 20
81.922765
 30
0.0
 40
1.05
  0
ARC
  5
E6
330
1D
100
AcDbEntity
  8
1
  6
Continuous
 62
     7
100
AcDbCircle
 10
16.942462
 20
91.315227
 30
0.0
 40
1.05
100
AcDbArc
 50
135.0
 51
315.0
  0
ARC
  5
E7
330
1D
100
AcDbEntity
  8
1
  6
Continuous
 62
     7
100
AcDbCircle
 10
16.942462
 20
94.930303
 30
0.0
 40
1.05
100
AcDbArc
 50
45.0
 51
225.0
  0
LINE
  5
E8
330
1D
100
AcDbEntity
  8
1
  6
Continuous
 62
     7
100
AcDbLine
 10
16.2
 20
94.187841
 30
0.0
 11
16.2
 21
92.057689
 31
0.0
  0
CIRCLE
  5
E9
330
1D
100
AcDbEntity
  8
1
  6
Continuous
 62
     7
100
AcDbCircle
 10
19.25
 20
93.122765
 30
0.0
 40
1.05
  0
ARC
  5
EA
330
1D
100
AcDbEntity
  8
1
  6
Continuous
 62
     7
100
AcDbCircle
 10
44.557538
 20
91.315227
 30
0.0
 40
1.05
100
AcDbArc
 50
225.0
 51
45.0
  0
ARC
  5
EB
330
1D
100
AcDbEntity
  8
1
  6
Continuous
 62
     7
100
AcDbCircle
 10
44.557538
 20
94.930303
 30
0.0
 40
1.05
100
AcDbArc
 50
315.0
 51
135.0
  0
LINE
  5
EC
330
1D
100
AcDbEntity
  8
1
  6
Continuous
 62
     7
100
AcDbLine
 10
45.3
 20
94.187841
 30
0.0
 11
45.3
 21
92.057689
 31
0.0
  0
CIRCLE
  5
ED
330
1D
100
AcDbEntity
  8
1
  6
Continuous
 62
     7
100
AcDbCircle
 10
42.25
 20
93.122765
 30
0.0
 40
1.05
  0
LINE
  5
EE
330
1D
100
AcDbEntity
  8
1
  6
Continuous
 62
     7
100
AcDbLine
 10
17.684923
 20
95.672765
 30
0.0
 11
43.815077
 21
95.672765
 31
0.0
  0
LINE
  5
EF
330
1D
100
AcDbEntity
  8
1
  6
Continuous
 62
     7
100
AcDbLine
 10
43.815077
 20
90.572765
 30
0.0
 11
17.684923
 21
90.572765
 31
0.0
  0
LINE
  5
F0
330
1D
100
AcDbEntity
  8
1
  6
Continuous
 62
     7
100
AcDbLine
 10
14.2
 20
97.672765
 30
0.0
 11
14.2
 21
88.572765
 31
0.0
  0
LINE
  5
F1
330
1D
100
AcDbEntity
  8
1
  6
Continuous
 62
     7
100
AcDbLine
 10
14.2
 20
88.572765
 30
0.0
 11
47.3
 21
88.572765
 31
0.0
  0
LINE
  5
F2
330
1D
100
AcDbEntity
  8
1
  6
Continuous
 62
     7
100
AcDbLine
 10
47.3
 20
88.572765
 30
0.0
 11
47.3
 21
97.672765
 31
0.0
  0
LINE
  5
F3
330
1D
100
AcDbEntity
  8
1
  6
Continuous
 62
     7
100
AcDbLine
 10
47.3
 20
97.672765
 30
0.0
 11
14.2
 21
97.672765
 31
0.0
  0
CIRCLE
  5
F4
330
1D
100
AcDbEntity
  8
1
  6
Continuous
 62
     7
100
AcDbCircle
 10
30.75
 20
93.122765
 30
0.0
 40
1.05
  0
LWPOLYLINE
  5
13D
330
1D
100
AcDbEntity
  8
0
100
AcDbPolyline
 90
        4
 70
     1
 43
0.0
 10
0.0
 20
0.0
 10
0.0
 20
299.9999999999998
 10
200.0
 20
299.9999999999998
 10
200.0
 20
0.0
  0
ENDSEC
  0
SECTION
  2
OBJECTS
  0
DICTIONARY
  5
C
330
0
100
AcDbDictionary
281
     1
  3
ACAD_DETAILVIEWSTYLE
350
143
  3
ACAD_GROUP
350
D
  3
ACAD_LAYOUT
350
1A
  3
ACAD_MLINESTYLE
350
17
  3
ACAD_PLOTSETTINGS
350
19
  3
ACAD_PLOTSTYLENAME
350
E
  3
ACAD_SCALELIST
350
F5
  3
ACAD_SECTIONVIEWSTYLE
350
144
  3
AcDbVariableDictionary
350
13E
  3
APPDATA
350
13C
  3
DWGPROPS
350
1D5
  0
DICTIONARY
  5
143
102
{ACAD_REACTORS
330
C
102
}
330
C
100
AcDbDictionary
281
     1
  0
DICTIONARY
  5
D
102
{ACAD_REACTORS
330
C
102
}
330
C
100
AcDbDictionary
281
     1
  0
DICTIONARY
  5
1A
102
{ACAD_REACTORS
330
C
102
}
330
C
100
AcDbDictionary
281
     1
  3
Model
350
1E
  3
シート 1
350
1C
  0
DICTIONARY
  5
17
102
{ACAD_REACTORS
330
C
102
}
330
C
100
AcDbDictionary
281
     1
  3
Standard
350
18
  0
DICTIONARY
  5
19
102
{ACAD_REACTORS
330
C
102
}
330
C
100
AcDbDictionary
281
     1
  0
ACDBDICTIONARYWDFLT
  5
E
102
{ACAD_REACTORS
330
C
102
}
330
C
100
AcDbDictionary
281
     1
  3
Normal
350
F
100
AcDbDictionaryWithDefault
340
F
  0
DICTIONARY
  5
F5
102
{ACAD_REACTORS
330
C
102
}
330
C
100
AcDbDictionary
281
     1
  3
A0
350
F6
  3
A1
350
F7
  3
A2
350
F8
  3
A3
350
F9
  3
A4
350
FA
  3
A5
350
FB
  3
A6
350
FC
  3
A7
350
FD
  3
A8
350
FE
  3
A9
350
FF
  3
B0
350
100
  3
B1
350
101
  3
B2
350
102
  3
B3
350
103
  3
B4
350
104
  3
B5
350
105
  3
B6
350
106
  3
B7
350
107
  3
B8
350
108
  3
B9
350
109
  3
C0
350
10A
  3
C1
350
10B
  3
C2
350
10C
  3
C3
350
10D
  3
C4
350
10E
  3
C5
350
10F
  3
C6
350
110
  3
C7
350
111
  3
C8
350
112
  3
C9
350
113
  3
D0
350
114
  3
D1
350
115
  3
D2
350
116
  0
DICTIONARY
  5
144
102
{ACAD_REACTORS
330
C
102
}
330
C
100
AcDbDictionary
281
     1
  0
DICTIONARY
  5
13E
102
{ACAD_REACTORS
330
C
102
}
330
C
100
AcDbDictionary
281
     1
  0
DICTIONARY
  5
13C
102
{ACAD_REACTORS
330
C
102
}
330
C
100
AcDbDictionary
281
     1
  0
XRECORD
  5
1D5
102
{ACAD_REACTORS
330
C
102
}
330
C
100
AcDbXrecord
280
     1
  1
DWGPROPS COOKIE
  2

  3

  4

  6

  7

  8
haya
  9

300
=
301
=
302
=
303
=
304
=
305
=
306
=
307
=
308
=
309
=
 40
0.0
 41
2447892.625
 42
2458196.133084422
  1

 90
        0
  0
LAYOUT
  5
1E
102
{ACAD_REACTORS
330
1A
102
}
330
1A
100
AcDbPlotSettings
  1

  2
none_device
  4
Letter_(8.50_x_11.00_Inches)
  6

 40
6.35
 41
6.35
 42
6.35
 43
6.35
 44
215.9
 45
279.4
 46
0.0
 47
0.0
 48
0.0
 49
0.0
140
0.0
141
0.0
142
1.0
143
1.0
 70
  1712
 72
     0
 73
     0
 74
     0
  7

 75
     0
147
1.0
148
0.0
149
0.0
100
AcDbLayout
  1
Model
 70
     3
 71
     0
 10
0.0
 20
0.0
 11
12.0
 21
9.0
 12
0.0
 22
0.0
 32
0.0
 14
-0.0000000000000036
 24
0.0
 34
0.0
 15
200.0
 25
299.9999999999998
 35
0.0
146
0.0
 13
0.0
 23
0.0
 33
0.0
 16
1.0
 26
0.0
 36
0.0
 17
0.0
 27
1.0
 37
0.0
 76
     0
330
1D
331
2C
  0
LAYOUT
  5
1C
102
{ACAD_REACTORS
330
1A
102
}
330
1A
100
AcDbPlotSettings
  1

  2
none_device
  4

  6

 40
0.0
 41
0.0
 42
0.0
 43
0.0
 44
0.0
 45
0.0
 46
0.0
 47
0.0
 48
0.0
 49
0.0
140
0.0
141
0.0
142
1.0
143
1.0
 70
   688
 72
     0
 73
     0
 74
     5
  7

 75
    16
147
1.0
148
0.0
149
0.0
100
AcDbLayout
  1
シート 1
 70
     1
 71
     1
 10
0.0
 20
0.0
 11
0.0
 21
0.0
 12
0.0
 22
0.0
 32
0.0
 14
0.0
 24
0.0
 34
0.0
 15
594.0
 25
420.0
 35
0.0
146
0.0
 13
0.0
 23
0.0
 33
0.0
 16
1.0
 26
0.0
 36
0.0
 17
0.0
 27
1.0
 37
0.0
 76
     0
330
1B
  0
MLINESTYLE
  5
18
102
{ACAD_REACTORS
330
17
102
}
330
17
100
AcDbMlineStyle
  2
Standard
 70
     0
  3

 62
   256
 51
90.0
 52
90.0
 71
     2
 49
0.5
 62
   256
  6
BYLAYER
 49
-0.5
 62
   256
  6
BYLAYER
  0
ACDBPLACEHOLDER
  5
F
102
{ACAD_REACTORS
330
E
102
}
330
E
  0
SCALE
  5
F6
102
{ACAD_REACTORS
330
F5
102
}
330
F5
100
AcDbScale
 70
     0
300
1:1
140
1.0
141
1.0
290
     1
  0
SCALE
  5
F7
102
{ACAD_REACTORS
330
F5
102
}
330
F5
100
AcDbScale
 70
     0
300
1:2
140
1.0
141
2.0
290
     0
  0
SCALE
  5
F8
102
{ACAD_REACTORS
330
F5
102
}
330
F5
100
AcDbScale
 70
     0
300
1:4
140
1.0
141
4.0
290
     0
  0
SCALE
  5
F9
102
{ACAD_REACTORS
330
F5
102
}
330
F5
100
AcDbScale
 70
     0
300
1:5
140
1.0
141
5.0
290
     0
  0
SCALE
  5
FA
102
{ACAD_REACTORS
330
F5
102
}
330
F5
100
AcDbScale
 70
     0
300
1:8
140
1.0
141
8.0
290
     0
  0
SCALE
  5
FB
102
{ACAD_REACTORS
330
F5
102
}
330
F5
100
AcDbScale
 70
     0
300
1:10
140
1.0
141
10.0
290
     0
  0
SCALE
  5
FC
102
{ACAD_REACTORS
330
F5
102
}
330
F5
100
AcDbScale
 70
     0
300
1:16
140
1.0
141
16.0
290
     0
  0
SCALE
  5
FD
102
{ACAD_REACTORS
330
F5
102
}
330
F5
100
AcDbScale
 70
     0
300
1:20
140
1.0
141
20.0
290
     0
  0
SCALE
  5
FE
102
{ACAD_REACTORS
330
F5
102
}
330
F5
100
AcDbScale
 70
     0
300
1:30
140
1.0
141
30.0
290
     0
  0
SCALE
  5
FF
102
{ACAD_REACTORS
330
F5
102
}
330
F5
100
AcDbScale
 70
     0
300
1:40
140
1.0
141
40.0
290
     0
  0
SCALE
  5
100
102
{ACAD_REACTORS
330
F5
102
}
330
F5
100
AcDbScale
 70
     0
300
1:50
140
1.0
141
50.0
290
     0
  0
SCALE
  5
101
102
{ACAD_REACTORS
330
F5
102
}
330
F5
100
AcDbScale
 70
     0
300
1:100
140
1.0
141
100.0
290
     0
  0
SCALE
  5
102
102
{ACAD_REACTORS
330
F5
102
}
330
F5
100
AcDbScale
 70
     0
300
2:1
140
2.0
141
1.0
290
     0
  0
SCALE
  5
103
102
{ACAD_REACTORS
330
F5
102
}
330
F5
100
AcDbScale
 70
     0
300
4:1
140
4.0
141
1.0
290
     0
  0
SCALE
  5
104
102
{ACAD_REACTORS
330
F5
102
}
330
F5
100
AcDbScale
 70
     0
300
8:1
140
8.0
141
1.0
290
     0
  0
SCALE
  5
105
102
{ACAD_REACTORS
330
F5
102
}
330
F5
100
AcDbScale
 70
     0
300
10:1
140
10.0
141
1.0
290
     0
  0
SCALE
  5
106
102
{ACAD_REACTORS
330
F5
102
}
330
F5
100
AcDbScale
 70
     0
300
100:1
140
100.0
141
1.0
290
     0
  0
SCALE
  5
107
102
{ACAD_REACTORS
330
F5
102
}
330
F5
100
AcDbScale
 70
     0
300
1/128" = 1'-0"
140
0.0078125
141
12.0
290
     0
  0
SCALE
  5
108
102
{ACAD_REACTORS
330
F5
102
}
330
F5
100
AcDbScale
 70
     0
300
1/64" = 1'-0"
140
0.015625
141
12.0
290
     0
  0
SCALE
  5
109
102
{ACAD_REACTORS
330
F5
102
}
330
F5
100
AcDbScale
 70
     0
300
1/32" = 1'-0"
140
0.03125
141
12.0
290
     0
  0
SCALE
  5
10A
102
{ACAD_REACTORS
330
F5
102
}
330
F5
100
AcDbScale
 70
     0
300
1/16" = 1'-0"
140
0.0625
141
12.0
290
     0
  0
SCALE
  5
10B
102
{ACAD_REACTORS
330
F5
102
}
330
F5
100
AcDbScale
 70
     0
300
3/32" = 1'-0"
140
0.09375
141
12.0
290
     0
  0
SCALE
  5
10C
102
{ACAD_REACTORS
330
F5
102
}
330
F5
100
AcDbScale
 70
     0
300
1/8" = 1'-0"
140
0.125
141
12.0
290
     0
  0
SCALE
  5
10D
102
{ACAD_REACTORS
330
F5
102
}
330
F5
100
AcDbScale
 70
     0
300
3/16" = 1'-0"
140
0.1875
141
12.0
290
     0
  0
SCALE
  5
10E
102
{ACAD_REACTORS
330
F5
102
}
330
F5
100
AcDbScale
 70
     0
300
1/4" = 1'-0"
140
0.25
141
12.0
290
     0
  0
SCALE
  5
10F
102
{ACAD_REACTORS
330
F5
102
}
330
F5
100
AcDbScale
 70
     0
300
3/8" = 1'-0"
140
0.375
141
12.0
290
     0
  0
SCALE
  5
110
102
{ACAD_REACTORS
330
F5
102
}
330
F5
100
AcDbScale
 70
     0
300
1/2" = 1'-0"
140
0.5
141
12.0
290
     0
  0
SCALE
  5
111
102
{ACAD_REACTORS
330
F5
102
}
330
F5
100
AcDbScale
 70
     0
300
3/4" = 1'-0"
140
0.75
141
12.0
290
     0
  0
SCALE
  5
112
102
{ACAD_REACTORS
330
F5
102
}
330
F5
100
AcDbScale
 70
     0
300
1" = 1'-0"
140
1.0
141
12.0
290
     0
  0
SCALE
  5
113
102
{ACAD_REACTORS
330
F5
102
}
330
F5
100
AcDbScale
 70
     0
300
1-1/2" = 1'-0"
140
1.5
141
12.0
290
     0
  0
SCALE
  5
114
102
{ACAD_REACTORS
330
F5
102
}
330
F5
100
AcDbScale
 70
     0
300
3" = 1'-0"
140
3.0
141
12.0
290
     0
  0
SCALE
  5
115
102
{ACAD_REACTORS
330
F5
102
}
330
F5
100
AcDbScale
 70
     0
300
6" = 1'-0"
140
6.0
141
12.0
290
     0
  0
SCALE
  5
116
102
{ACAD_REACTORS
330
F5
102
}
330
F5
100
AcDbScale
 70
     0
300
1'-0" = 1'-0"
140
12.0
141
12.0
290
     0
  0
ENDSEC
  0
EOF
